<?xml version="1.0" encoding="UTF-8" standalone="no"?>
<!-- Created with Inkscape (http://www.inkscape.org/) -->

<svg
   width="117.44552mm"
   height="74.951805mm"
   viewBox="0 0 117.44552 74.951805"
   version="1.1"
   id="svg14087"
   sodipodi:docname="time_theta.svg"
   inkscape:version="1.2.2 (1:1.2.2+202212051552+b0a8486541)"
   xmlns:inkscape="http://www.inkscape.org/namespaces/inkscape"
   xmlns:sodipodi="http://sodipodi.sourceforge.net/DTD/sodipodi-0.dtd"
   xmlns="http://www.w3.org/2000/svg"
   xmlns:svg="http://www.w3.org/2000/svg">
  <sodipodi:namedview
     id="namedview14089"
     pagecolor="#ffffff"
     bordercolor="#666666"
     borderopacity="1.0"
     inkscape:showpageshadow="2"
     inkscape:pageopacity="0.0"
     inkscape:pagecheckerboard="0"
     inkscape:deskcolor="#d1d1d1"
     inkscape:document-units="mm"
     showgrid="false"
     inkscape:zoom="1.8265846"
     inkscape:cx="316.16384"
     inkscape:cy="160.13493"
     inkscape:window-width="1920"
     inkscape:window-height="1016"
     inkscape:window-x="0"
     inkscape:window-y="0"
     inkscape:window-maximized="1"
     inkscape:current-layer="g3863" />
  <defs
     id="defs14084">
    <clipPath
       id="clipPath2198">
      <path
         d="m 5,0 h 5 V 9.964844 H 5 Z m 0,0"
         id="path4420" />
    </clipPath>
    <clipPath
       id="clipPath9434">
      <path
         d="m 25,0 h 5.46875 V 8 H 25 Z m 0,0"
         id="path9887" />
    </clipPath>
    <clipPath
       id="clipPath8001">
      <path
         d="M 0,0 H 31 V 8.964844 H 0 Z m 0,0"
         id="path8562" />
    </clipPath>
    <clipPath
       id="clipPath64">
      <path
         d="m 39,0 h 4 v 8.964844 h -4 z m 0,0"
         id="path8401" />
    </clipPath>
    <clipPath
       id="clipPath2796">
      <path
         d="m 58,0 h 4.472656 V 7 H 58 Z m 0,0"
         id="path5743" />
    </clipPath>
    <clipPath
       id="clipPath6966">
      <path
         d="M 0,0 H 25 V 5.976562 H 0 Z m 0,0"
         id="path1322" />
    </clipPath>
    <clipPath
       id="clipPath1207">
      <path
         d="m 31,0 h 4 v 5.976562 h -4 z m 0,0"
         id="path8428" />
    </clipPath>
    <clipPath
       id="clipPath2084">
      <path
         d="M 0,0 H 27 V 6.972656 H 0 Z m 0,0"
         id="path4737" />
    </clipPath>
    <clipPath
       id="clipPath930">
      <path
         d="m 34,0 h 4 v 6.972656 h -4 z m 0,0"
         id="path8071" />
    </clipPath>
    <clipPath
       clipPathUnits="userSpaceOnUse"
       id="clipPath18219">
      <g
         id="g18223"
         transform="matrix(2.8346439,0,0,2.8346439,-340.12841,-94.62996)">
        <path
           d="m 142.21483,33.383368 h 1.60542 v 2.822224 h -1.60542 z m 0,0"
           id="path18221"
           style="stroke-width:0.352778" />
      </g>
    </clipPath>
    <clipPath
       clipPathUnits="userSpaceOnUse"
       id="clipPath18252">
      <g
         id="g18256"
         transform="matrix(2.8346439,0,0,2.8346439,-340.12841,-94.62996)">
        <path
           d="m 119.98982,33.383368 h 11.99445 v 3.515378 h -11.99445 z m 0,0"
           id="path18254"
           style="stroke-width:0.352778" />
      </g>
    </clipPath>
    <clipPath
       clipPathUnits="userSpaceOnUse"
       id="clipPath18265">
      <g
         id="g18269"
         transform="matrix(2.8346439,0,0,2.8346439,-340.12841,-94.62996)">
        <path
           d="m 134.8065,33.383368 h 1.76389 v 3.515378 h -1.76389 z m 0,0"
           id="path18267"
           style="stroke-width:0.352778" />
      </g>
    </clipPath>
    <clipPath
       id="clipPath2298">
      <path
         d="M 0,0 H 22.691406 V 6.808594 H 0 Z m 0,0"
         id="path9400" />
    </clipPath>
    <clipPath
       id="clipPath8788">
      <path
         d="M 0,0 H 34 V 9.964844 H 0 Z m 0,0"
         id="path1209" />
    </clipPath>
    <clipPath
       id="clipPath5484">
      <path
         d="m 64,0 h 4 v 9.964844 h -4 z m 0,0"
         id="path995" />
    </clipPath>
    <clipPath
       id="clipPath2991">
      <path
         d="m 60,13 h 12 v 6.992188 H 60 Z m 0,0"
         id="path4540" />
    </clipPath>
    <clipPath
       id="clipPath6389">
      <path
         d="m 74,12 h 5 v 7.992188 h -5 z m 0,0"
         id="path1410" />
    </clipPath>
  </defs>
  <g
     inkscape:label="Layer 1"
     inkscape:groupmode="layer"
     id="layer1"
     transform="translate(-32.2906, -26.3416)">
    <rect
       style="fill:#ffffff;stroke:#ffffff;stroke-width:0.260015"
       id="rect18095"
       width="117.18598"
       height="74.691986"
       x="32.420391"
       y="26.471472" />
    <path
       style="fill:none;stroke:#000000;stroke-width:0.304417;stroke-linecap:square;stroke-linejoin:miter;stroke-miterlimit:5;stroke-opacity:1"
       d="m 41.76878,92.227471 h 106.33791 v -65.7337 H 41.76878 Z m 0,0"
       id="path9137" />
    <path
       style="fill:none;stroke:#000000;stroke-width:0.137745;stroke-linecap:butt;stroke-linejoin:miter;stroke-miterlimit:5;stroke-opacity:1"
       d="m 56.960163,67.836944 0.276208,0.297731 0.276208,0.299524 0.278003,0.297727 0.276208,0.297732 0.277997,0.29773 0.559593,0.591871 0.279793,0.294145 0.281588,0.294141 0.283378,0.292348 0.285174,0.290556 0.286972,0.288763 0.288759,0.28876 0.290556,0.285176 0.292353,0.283383 0.29414,0.281588 0.297735,0.278001 0.299515,0.277996 0.303116,0.274415 0.304905,0.270826 0.308481,0.267243 0.312083,0.265443 0.313871,0.261857 0.319254,0.260068 0.322838,0.254684 0.324635,0.252891 0.331805,0.247509 0.333601,0.243924 0.338984,0.240337 0.342569,0.234955 0.346153,0.231367 0.353333,0.227783 0.356916,0.222398 0.3623,0.217022 0.367671,0.213431 0.371266,0.208054 0.378444,0.202668 0.38203,0.195497 0.390987,0.191911 0.39458,0.186528 0.40176,0.179359 0.408929,0.173972 0.414312,0.168595 0.419693,0.161419 0.428652,0.156041 0.43405,0.148866 0.444796,0.145275 0.451983,0.136312 0.457341,0.130926 0.464544,0.123763 0.471697,0.12017 0.475291,0.112998 0.48246,0.10761 0.486054,0.104031 0.491444,0.09864 0.496809,0.09327 0.500395,0.08969 0.505784,0.08429 0.507573,0.08251 0.512954,0.07712 0.514751,0.07534 0.518337,0.07174 0.521921,0.06815 0.523726,0.06636 0.523718,0.06458 0.527303,0.06099 0.529091,0.05918 0.530897,0.05919 1.061784,0.111203 0.532693,0.05559 1.063565,0.107611 0.532685,0.0538 0.530896,0.05381 0.529099,0.0538 0.534482,0.05559 0.530886,0.05381 0.532676,0.05739 2.112805,0.222398 0.525524,0.05559 0.525497,0.0538 0.525523,0.05203 1.045631,0.105814 0.523718,0.04843 0.52193,0.04843 1.04385,0.09327 0.520125,0.04303 0.521931,0.04123 1.040259,0.07534 0.52012,0.03407 1.040278,0.06098 0.52012,0.02512 0.521923,0.02152 0.52013,0.01975 0.52191,0.01616 0.52014,0.0108 0.52192,0.009 0.52013,0.0036 0.52015,0.0018 0.52012,-0.0036 0.52013,-0.0054 0.52013,-0.009 0.52193,-0.0125 0.52191,-0.01433 0.52193,-0.01795 0.52193,-0.01975 0.52371,-0.02154 1.04743,-0.05023 0.52373,-0.0287 0.52193,-0.0287 1.05101,-0.06098 0.52371,-0.03227 1.05103,-0.06636 0.52551,-0.03407 0.52371,-0.03407 0.5273,-0.03407 0.52551,-0.03407 1.05102,-0.06458 0.52732,-0.03227 0.5255,-0.03049 1.05462,-0.05739 0.52551,-0.0269 0.52371,-0.02512 0.52731,-0.02332 0.52372,-0.02332 0.5273,-0.01975 0.52372,-0.01795 0.5273,-0.01616 0.52551,-0.01616 0.52372,-0.0125 0.5255,-0.0108 1.05102,-0.01795 0.52373,-0.0054 0.52551,-0.0036 h 1.04923 l 0.52372,0.0036 0.52191,0.0054 0.52553,0.0072 0.52372,0.009 0.52191,0.01249 0.52191,0.01433 0.52194,0.01616 0.52372,0.01795 0.52193,0.02332 0.52012,0.02332 0.52013,0.02512 0.52192,0.0287 0.52013,0.03228 0.50937,0.03227 0.51115,0.03586 0.50939,0.03766 0.50937,0.04123 0.50936,0.04301 0.50758,0.04487 0.50937,0.04663 0.50757,0.04843 0.50758,0.05022 0.50758,0.05201 0.50578,0.0538 0.50578,0.05559 0.50757,0.05739 1.01157,0.118374 0.50577,0.06098 1.01158,0.125545 0.50578,0.06457 0.50398,0.06457 0.50399,0.06637 1.00977,0.134516 1.51375,0.206259 0.50399,0.06815 0.50399,0.06994 1.00976,0.139894"
       id="path9139" />
    <path
       style="fill:#000000;fill-opacity:1;fill-rule:nonzero;stroke:none;stroke-width:0.459149"
       d="m 56.958375,66.599395 1.072548,1.856328 h -2.1433 l 1.070752,-1.856328"
       id="path9141" />
    <path
       style="fill:#000000;fill-opacity:1;fill-rule:nonzero;stroke:none;stroke-width:0.459149"
       d="m 72.149764,77.997421 1.070751,1.856328 h -2.143299 l 1.072548,-1.856328"
       id="path9143" />
    <path
       style="fill:#000000;fill-opacity:1;fill-rule:nonzero;stroke:none;stroke-width:0.459149"
       d="m 87.342941,80.463555 1.072553,1.856327 h -2.143305 l 1.070752,-1.856327"
       id="path9145" />
    <path
       style="fill:#000000;fill-opacity:1;fill-rule:nonzero;stroke:none;stroke-width:0.459149"
       d="m 102.53433,81.665236 1.07075,1.856327 h -2.1415 l 1.07075,-1.856327"
       id="path9147" />
    <path
       style="fill:#000000;fill-opacity:1;fill-rule:nonzero;stroke:none;stroke-width:0.459149"
       d="m 117.72571,80.980098 1.07077,1.854536 h -2.14331 l 1.07254,-1.854536"
       id="path9149" />
    <path
       style="fill:#000000;fill-opacity:1;fill-rule:nonzero;stroke:none;stroke-width:0.459149"
       d="m 132.91531,80.980098 1.07076,1.854536 h -2.14152 l 1.07076,-1.854536"
       id="path9151" />
    <path
       style="fill:#000000;fill-opacity:1;fill-rule:nonzero;stroke:none;stroke-width:0.459149"
       d="m 148.10669,82.700117 1.07076,1.856328 h -2.14328 l 1.07252,-1.856328"
       id="path9153" />
    <path
       style="fill:none;stroke:#000000;stroke-width:0.137745;stroke-linecap:butt;stroke-linejoin:miter;stroke-miterlimit:5;stroke-opacity:1"
       d="m 56.960163,63.109142 0.238553,0.319251 0.480663,0.634915 0.240341,0.319257 0.240331,0.317456 0.242129,0.315665 0.242129,0.31746 0.487851,0.631331 0.245714,0.31387 0.24751,0.313875 0.498605,0.624153 0.505785,0.620569 0.256477,0.308494 0.258274,0.3049 0.260063,0.306698 0.261858,0.303113 0.265444,0.301317 0.267241,0.299522 0.270826,0.299522 0.274419,0.295939 0.276199,0.295936 0.279801,0.290554 0.283386,0.290555 0.286963,0.288764 0.290556,0.285173 0.294141,0.283382 0.297727,0.281587 0.303116,0.278002 0.304904,0.276205 0.310278,0.272619 0.315668,0.27083 0.319253,0.26724 0.324627,0.263653 0.328229,0.261856 0.335389,0.258273 0.338984,0.25289 0.344365,0.251094 0.349739,0.249304 0.35512,0.243924 0.360511,0.240337 0.367672,0.236751 0.373063,0.23316 0.378435,0.229575 0.383826,0.22599 0.390988,0.220602 0.398174,0.218818 0.405344,0.211634 0.410727,0.20985 0.419693,0.206254 0.426854,0.20088 0.434034,0.1955 0.44122,0.195496 0.446602,0.18653 0.450178,0.184734 0.459153,0.18115 0.462731,0.177561 0.468121,0.172181 0.473493,0.170386 0.478884,0.165008 0.482461,0.161419 0.486054,0.157833 0.491427,0.154247 0.49503,0.150656 0.498614,0.148865 0.50219,0.143484 0.505776,0.143484 0.509378,0.136313 0.511158,0.136307 0.512955,0.130931 0.516539,0.129137 0.518336,0.125546 0.520125,0.125545 0.52193,0.12017 0.523718,0.118373 0.525514,0.114783 0.525506,0.112997 0.527312,0.111203 0.527302,0.10761 0.527303,0.105827 0.539856,0.10761 0.538063,0.102235 0.538059,0.100439 0.539863,0.09864 0.538066,0.09685 0.539855,0.09685 1.079726,0.182945 0.541652,0.08967 0.539863,0.08609 0.541651,0.08609 0.54166,0.08251 0.539856,0.08071 0.543439,0.08071 0.54166,0.07893 1.08689,0.150656 1.086897,0.143484 0.545243,0.07174 0.543444,0.06816 0.545234,0.06637 0.547041,0.06636 0.54523,0.06457 1.09407,0.125546 0.54703,0.05919 0.54703,0.06098 1.07793,0.112998 1.07793,0.109406 1.07972,0.10761 0.54164,0.05023 0.53986,0.05022 0.54167,0.05023 0.54164,0.0466 0.54167,0.04842 0.54342,0.0466 0.54167,0.0466 0.54343,0.0449 1.08691,0.08785 0.54344,0.04308 1.08689,0.08252 1.08868,0.07887 0.54524,0.03944 1.63572,0.112973 1.0887,0.07171 1.0869,0.06989 0.54164,0.03228 0.54345,0.03411 1.62495,0.09683 0.54346,0.03045 0.54164,0.03045 1.08511,0.05922 1.08509,0.05739 1.08331,0.05375 1.08689,0.05375 0.54164,0.02694 0.54167,0.02512 1.08689,0.04842 1.08511,0.04842 0.54343,0.02161 0.54167,0.0233 1.63034,0.06456 0.54343,0.01978 0.54166,0.02148 0.54166,0.01978 1.08509,0.03762 0.54166,0.01796 0.54344,0.01977 1.08331,0.03411 0.54344,0.01796 0.54165,0.01796 0.54167,0.01614 1.62854,0.04842 1.08509,0.03045 1.62855,0.0466 1.08509,0.02877 0.54166,0.01614 0.54344,0.01431 0.54345,0.01302 0.54166,0.01431 0.54344,0.01614 1.08688,0.02876"
       id="path9155" />
    <path
       style="fill:none;stroke:#000000;stroke-width:0.304417;stroke-linecap:butt;stroke-linejoin:miter;stroke-miterlimit:5;stroke-opacity:1"
       d="M 41.76878,92.227471 V 90.701159"
       id="path9161" />
    <path
       style="fill:none;stroke:#000000;stroke-width:0.137745;stroke-linecap:butt;stroke-linejoin:miter;stroke-miterlimit:5;stroke-opacity:1"
       d="M 44.808848,92.227471 V 91.31096 m 3.036484,0.916511 V 91.31096 m 3.036484,0.916511 V 91.31096 m 3.040074,0.916511 V 91.31096"
       id="path9163" />
    <path
       style="fill:none;stroke:#000000;stroke-width:0.304417;stroke-linecap:butt;stroke-linejoin:miter;stroke-miterlimit:5;stroke-opacity:1"
       d="M 56.958375,92.227471 V 90.701159"
       id="path9165" />
    <path
       style="fill:none;stroke:#000000;stroke-width:0.137745;stroke-linecap:butt;stroke-linejoin:miter;stroke-miterlimit:5;stroke-opacity:1"
       d="M 59.998446,92.227471 V 91.31096 m 3.036478,0.916511 V 91.31096 m 3.041868,0.916511 V 91.31096 m 3.036486,0.916511 V 91.31096"
       id="path9167" />
    <path
       style="fill:none;stroke:#000000;stroke-width:0.304417;stroke-linecap:butt;stroke-linejoin:miter;stroke-miterlimit:5;stroke-opacity:1"
       d="M 72.149764,92.227471 V 90.701159"
       id="path9169" />
    <path
       style="fill:none;stroke:#000000;stroke-width:0.137745;stroke-linecap:butt;stroke-linejoin:miter;stroke-miterlimit:5;stroke-opacity:1"
       d="M 75.189827,92.227471 V 91.31096 m 3.036486,0.916511 V 91.31096 m 3.040071,0.916511 V 91.31096 m 3.036494,0.916511 V 91.31096"
       id="path9171" />
    <path
       style="fill:none;stroke:#000000;stroke-width:0.304417;stroke-linecap:butt;stroke-linejoin:miter;stroke-miterlimit:5;stroke-opacity:1"
       d="M 87.342941,92.227471 V 90.701159"
       id="path9173" />
    <path
       style="fill:none;stroke:#000000;stroke-width:0.137745;stroke-linecap:butt;stroke-linejoin:miter;stroke-miterlimit:5;stroke-opacity:1"
       d="M 90.379425,92.227471 V 91.31096 m 3.038282,0.916511 V 91.31096 m 3.040072,0.916511 V 91.31096 m 3.036481,0.916511 V 91.31096"
       id="path9175" />
    <path
       style="fill:none;stroke:#000000;stroke-width:0.304417;stroke-linecap:butt;stroke-linejoin:miter;stroke-miterlimit:5;stroke-opacity:1"
       d="M 102.53433,92.227471 V 90.701159"
       id="path9177" />
    <path
       style="fill:none;stroke:#000000;stroke-width:0.137745;stroke-linecap:butt;stroke-linejoin:miter;stroke-miterlimit:5;stroke-opacity:1"
       d="M 105.57081,92.227471 V 91.31096 m 3.04008,0.916511 V 91.31096 m 3.03647,0.916511 V 91.31096 m 3.03649,0.916511 V 91.31096"
       id="path9179" />
    <path
       style="fill:none;stroke:#000000;stroke-width:0.304417;stroke-linecap:butt;stroke-linejoin:miter;stroke-miterlimit:5;stroke-opacity:1"
       d="M 117.72571,92.227471 V 90.701159"
       id="path9181" />
    <path
       style="fill:none;stroke:#000000;stroke-width:0.137745;stroke-linecap:butt;stroke-linejoin:miter;stroke-miterlimit:5;stroke-opacity:1"
       d="M 120.76041,92.227471 V 91.31096 m 3.04186,0.916511 V 91.31096 m 3.03649,0.916511 V 91.31096 m 3.03648,0.916511 V 91.31096"
       id="path9183" />
    <path
       style="fill:none;stroke:#000000;stroke-width:0.304417;stroke-linecap:butt;stroke-linejoin:miter;stroke-miterlimit:5;stroke-opacity:1"
       d="M 132.91531,92.227471 V 90.701159"
       id="path9185" />
    <path
       style="fill:none;stroke:#000000;stroke-width:0.137745;stroke-linecap:butt;stroke-linejoin:miter;stroke-miterlimit:5;stroke-opacity:1"
       d="M 135.9518,92.227471 V 91.31096 m 3.04006,0.916511 V 91.31096 m 3.03649,0.916511 V 91.31096 m 3.04008,0.916511 V 91.31096"
       id="path9187" />
    <path
       style="fill:none;stroke:#000000;stroke-width:0.304417;stroke-linecap:butt;stroke-linejoin:miter;stroke-miterlimit:5;stroke-opacity:1"
       d="M 148.10669,92.227471 V 90.701159"
       id="path9189" />
    <path
       style="fill:none;stroke:#000000;stroke-width:0.304417;stroke-linecap:square;stroke-linejoin:miter;stroke-miterlimit:5;stroke-opacity:1"
       d="M 41.76878,92.227471 H 148.10669"
       id="path9191" />
    <g
       style="fill:#000000;fill-opacity:1"
       id="g9195"
       transform="matrix(0.45914942,0,0,0.45914942,-25.43563,-1.6883157)">
      <g
         id="use9193"
         transform="translate(260.00119,224.1942)">
        <path
           style="stroke:none"
           d="m 0.421875,-1.375 c 0,0.953125 0.359375,1.46875 1.03125,1.46875 0.640625,0 1.234375,-0.46875 1.734375,-1.40625 0.5,-0.875 0.828125,-2.09375 0.828125,-2.984375 0,-0.921875 -0.390625,-1.4375 -1.046875,-1.4375 -0.609375,0 -1.15625,0.40625 -1.65625,1.21875 C 0.84375,-3.75 0.53125,-2.796875 0.453125,-1.953125 0.4375,-1.796875 0.421875,-1.46875 0.421875,-1.375 Z m 0.9375,-1.609375 c 0.171875,-0.671875 0.390625,-1.296875 0.59375,-1.75 0.28125,-0.578125 0.5625,-0.84375 0.90625,-0.84375 0.375,0 0.609375,0.34375 0.609375,0.890625 0,0.28125 -0.046875,0.59375 -0.15625,1.0625 -0.0625,0.25 -0.109375,0.421875 -0.171875,0.640625 z M 1.3125,-2.84375 h 1.796875 l -0.03125,0.09375 -0.296875,1 c -0.125,0.328125 -0.234375,0.640625 -0.359375,0.921875 -0.234375,0.46875 -0.5625,0.765625 -0.875,0.765625 -0.34375,0 -0.609375,-0.375 -0.609375,-0.890625 0,-0.328125 0.09375,-0.890625 0.203125,-1.265625 l 0.15625,-0.546875 z m 0,0"
           id="path14866" />
      </g>
    </g>
    <path
       style="fill:none;stroke:#000000;stroke-width:0.304417;stroke-linecap:butt;stroke-linejoin:miter;stroke-miterlimit:5;stroke-opacity:1"
       d="m 41.76878,92.227471 h 1.411526"
       id="path9197" />
    <path
       style="fill:none;stroke:#000000;stroke-width:0.137745;stroke-linecap:butt;stroke-linejoin:miter;stroke-miterlimit:5;stroke-opacity:1"
       d="m 41.76878,91.21769 h 0.846556 M 41.76878,90.20613 h 0.846556 M 41.76878,89.194561 h 0.846556 m -0.846556,-1.01156 h 0.846556"
       id="path9199" />
    <path
       style="fill:none;stroke:#000000;stroke-width:0.304417;stroke-linecap:butt;stroke-linejoin:miter;stroke-miterlimit:5;stroke-opacity:1"
       d="m 41.76878,87.173238 h 1.411526"
       id="path9201" />
    <path
       style="fill:none;stroke:#000000;stroke-width:0.137745;stroke-linecap:butt;stroke-linejoin:miter;stroke-miterlimit:5;stroke-opacity:1"
       d="m 41.76878,86.163463 h 0.846556 M 41.76878,85.151905 h 0.846556 M 41.76878,84.140338 h 0.846556 M 41.76878,83.125187 h 0.846556"
       id="path9203" />
    <path
       style="fill:none;stroke:#000000;stroke-width:0.304417;stroke-linecap:butt;stroke-linejoin:miter;stroke-miterlimit:5;stroke-opacity:1"
       d="m 41.76878,82.11362 h 1.411526"
       id="path9205" />
    <path
       style="fill:none;stroke:#000000;stroke-width:0.137745;stroke-linecap:butt;stroke-linejoin:miter;stroke-miterlimit:5;stroke-opacity:1"
       d="m 41.76878,81.103855 h 0.846556 M 41.76878,80.092289 h 0.846556 M 41.76878,79.082518 h 0.846556 M 41.76878,78.070957 h 0.846556"
       id="path9207" />
    <path
       style="fill:none;stroke:#000000;stroke-width:0.304417;stroke-linecap:butt;stroke-linejoin:miter;stroke-miterlimit:5;stroke-opacity:1"
       d="m 41.76878,77.061186 h 1.411526"
       id="path9209" />
    <path
       style="fill:none;stroke:#000000;stroke-width:0.137745;stroke-linecap:butt;stroke-linejoin:miter;stroke-miterlimit:5;stroke-opacity:1"
       d="m 41.76878,76.04962 h 0.846556 M 41.76878,75.038059 h 0.846556 M 41.76878,74.022906 h 0.846556 M 41.76878,73.013137 h 0.846556"
       id="path9211" />
    <path
       style="fill:none;stroke:#000000;stroke-width:0.304417;stroke-linecap:butt;stroke-linejoin:miter;stroke-miterlimit:5;stroke-opacity:1"
       d="m 41.76878,72.001576 h 1.411526"
       id="path9213" />
    <path
       style="fill:none;stroke:#000000;stroke-width:0.137745;stroke-linecap:butt;stroke-linejoin:miter;stroke-miterlimit:5;stroke-opacity:1"
       d="m 41.76878,70.990009 h 0.846556 m -0.846556,-1.00977 h 0.846556 M 41.76878,68.968678 h 0.846556 m -0.846556,-1.00977 h 0.846556"
       id="path9215" />
    <path
       style="fill:none;stroke:#000000;stroke-width:0.304417;stroke-linecap:butt;stroke-linejoin:miter;stroke-miterlimit:5;stroke-opacity:1"
       d="m 41.76878,66.947341 h 1.411526"
       id="path9217" />
    <path
       style="fill:none;stroke:#000000;stroke-width:0.137745;stroke-linecap:butt;stroke-linejoin:miter;stroke-miterlimit:5;stroke-opacity:1"
       d="m 41.76878,65.935781 h 0.846556 M 41.76878,64.922424 h 0.846556 M 41.76878,63.910857 h 0.846556 M 41.76878,62.901086 h 0.846556"
       id="path9219" />
    <path
       style="fill:none;stroke:#000000;stroke-width:0.304417;stroke-linecap:butt;stroke-linejoin:miter;stroke-miterlimit:5;stroke-opacity:1"
       d="m 41.76878,61.889527 h 1.411526"
       id="path9221" />
    <path
       style="fill:none;stroke:#000000;stroke-width:0.137745;stroke-linecap:butt;stroke-linejoin:miter;stroke-miterlimit:5;stroke-opacity:1"
       d="m 41.76878,60.877959 h 0.846556 M 41.76878,59.868194 h 0.846556 M 41.76878,58.856629 h 0.846556 M 41.76878,57.845066 h 0.846556"
       id="path9223" />
    <path
       style="fill:none;stroke:#000000;stroke-width:0.304417;stroke-linecap:butt;stroke-linejoin:miter;stroke-miterlimit:5;stroke-opacity:1"
       d="m 41.76878,56.835297 h 1.411526"
       id="path9225" />
    <path
       style="fill:none;stroke:#000000;stroke-width:0.137745;stroke-linecap:butt;stroke-linejoin:miter;stroke-miterlimit:5;stroke-opacity:1"
       d="m 41.76878,55.820146 h 0.846556 M 41.76878,54.808578 h 0.846556 M 41.76878,53.798813 h 0.846556 M 41.76878,52.787248 h 0.846556"
       id="path9227" />
    <path
       style="fill:none;stroke:#000000;stroke-width:0.304417;stroke-linecap:butt;stroke-linejoin:miter;stroke-miterlimit:5;stroke-opacity:1"
       d="m 41.76878,51.777476 h 1.411526"
       id="path9229" />
    <path
       style="fill:none;stroke:#000000;stroke-width:0.137745;stroke-linecap:butt;stroke-linejoin:miter;stroke-miterlimit:5;stroke-opacity:1"
       d="m 41.76878,50.765916 h 0.846556 M 41.76878,49.75435 h 0.846556 M 41.76878,48.744579 h 0.846556 M 41.76878,47.733018 h 0.846556"
       id="path9231" />
    <path
       style="fill:none;stroke:#000000;stroke-width:0.304417;stroke-linecap:butt;stroke-linejoin:miter;stroke-miterlimit:5;stroke-opacity:1"
       d="m 41.76878,46.717865 h 1.411526"
       id="path9233" />
    <path
       style="fill:none;stroke:#000000;stroke-width:0.137745;stroke-linecap:butt;stroke-linejoin:miter;stroke-miterlimit:5;stroke-opacity:1"
       d="m 41.76878,45.708095 h 0.846556 M 41.76878,44.696534 h 0.846556 M 41.76878,43.684967 h 0.846556 M 41.76878,42.675198 h 0.846556"
       id="path9235" />
    <path
       style="fill:none;stroke:#000000;stroke-width:0.304417;stroke-linecap:butt;stroke-linejoin:miter;stroke-miterlimit:5;stroke-opacity:1"
       d="m 41.76878,41.663636 h 1.411526"
       id="path9237" />
    <path
       style="fill:none;stroke:#000000;stroke-width:0.137745;stroke-linecap:butt;stroke-linejoin:miter;stroke-miterlimit:5;stroke-opacity:1"
       d="m 41.76878,40.653866 h 0.846556 M 41.76878,39.6423 h 0.846556 M 41.76878,38.630738 h 0.846556 M 41.76878,37.617383 h 0.846556"
       id="path9239" />
    <path
       style="fill:none;stroke:#000000;stroke-width:0.304417;stroke-linecap:butt;stroke-linejoin:miter;stroke-miterlimit:5;stroke-opacity:1"
       d="m 41.76878,36.605816 h 1.411526"
       id="path9241" />
    <path
       style="fill:none;stroke:#000000;stroke-width:0.137745;stroke-linecap:butt;stroke-linejoin:miter;stroke-miterlimit:5;stroke-opacity:1"
       d="m 41.76878,35.594255 h 0.846556 m -0.846556,-1.00977 h 0.846556 M 41.76878,33.572918 h 0.846556 M 41.76878,32.561357 h 0.846556"
       id="path9243" />
    <path
       style="fill:none;stroke:#000000;stroke-width:0.304417;stroke-linecap:butt;stroke-linejoin:miter;stroke-miterlimit:5;stroke-opacity:1"
       d="m 41.76878,31.551588 h 1.411526"
       id="path9245" />
    <path
       style="fill:none;stroke:#000000;stroke-width:0.137745;stroke-linecap:butt;stroke-linejoin:miter;stroke-miterlimit:5;stroke-opacity:1"
       d="m 41.76878,30.540025 h 0.846556 M 41.76878,29.52846 h 0.846556 M 41.76878,28.515104 h 0.846556 M 41.76878,27.503537 h 0.846556"
       id="path9247" />
    <path
       style="fill:none;stroke:#000000;stroke-width:0.304417;stroke-linecap:butt;stroke-linejoin:miter;stroke-miterlimit:5;stroke-opacity:1"
       d="m 41.76878,26.493771 h 1.411526"
       id="path9249" />
    <path
       style="fill:none;stroke:#000000;stroke-width:0.304417;stroke-linecap:square;stroke-linejoin:miter;stroke-miterlimit:5;stroke-opacity:1"
       d="m 41.76878,92.227471 v -65.7337"
       id="path9251" />
    <g
       style="fill:#000000;fill-opacity:1"
       id="g9255"
       transform="matrix(0.45914942,0,0,0.45914942,-25.43563,-1.6883157)">
      <g
         id="use9253"
         transform="translate(125.3962,135.28889)">
        <path
           style="stroke:none"
           d="M 2.078125,-4.5 H 1.90625 C 1.5,-3.84375 1.203125,-3.5 0.546875,-3.34375 l -0.03125,0.15625 h 0.59375 L 0.4375,-0.828125 c -0.03125,0.125 -0.109375,0.421875 -0.109375,0.5625 0,0.21875 0.15625,0.359375 0.375,0.359375 0.421875,0 0.90625,-0.5625 1.125,-0.890625 L 1.6875,-0.890625 c -0.109375,0.15625 -0.421875,0.625 -0.65625,0.625 -0.078125,0 -0.109375,-0.09375 -0.109375,-0.140625 0,-0.140625 0.109375,-0.4375 0.140625,-0.578125 L 1.703125,-3.1875 H 2.3125 l 0.078125,-0.25 h -0.625 z m 0,0"
           id="path14994" />
      </g>
    </g>
    <g
       style="fill:#000000;fill-opacity:1"
       id="g9259"
       transform="matrix(0.45914942,0,0,0.45914942,-25.43563,-1.6883157)">
      <g
         id="use9257"
         transform="translate(127.6202,133.28889)">
        <path
           style="stroke:none"
           d="m 1.390625,-2.953125 c -0.25,0.171875 -0.96875,0.09375 -0.96875,0.5 0,0.109375 0.109375,0.203125 0.21875,0.203125 0.34375,0 0.515625,-0.46875 0.8125,-0.59375 0,0.296875 -0.1875,0.5625 -0.1875,0.78125 0,0.15625 0.0625,0.328125 0.234375,0.328125 0.171875,0 0.234375,-0.171875 0.234375,-0.328125 0,-0.21875 -0.1875,-0.484375 -0.1875,-0.78125 0.296875,0.125 0.46875,0.59375 0.8125,0.59375 0.109375,0 0.21875,-0.09375 0.21875,-0.203125 0,-0.40625 -0.71875,-0.328125 -0.96875,-0.5 0.25,-0.171875 0.96875,-0.09375 0.96875,-0.484375 0,-0.125 -0.109375,-0.21875 -0.21875,-0.21875 -0.34375,0 -0.515625,0.46875 -0.8125,0.59375 0,-0.296875 0.1875,-0.5625 0.1875,-0.78125 0,-0.15625 -0.0625,-0.3125 -0.234375,-0.3125 -0.171875,0 -0.234375,0.15625 -0.234375,0.3125 0,0.21875 0.1875,0.484375 0.1875,0.78125 -0.296875,-0.125 -0.46875,-0.59375 -0.8125,-0.59375 -0.109375,0 -0.21875,0.09375 -0.21875,0.21875 0,0.390625 0.71875,0.3125 0.96875,0.484375 z m 0,0"
           id="path14846" />
      </g>
    </g>
    <g
       style="fill:#000000;fill-opacity:1"
       id="g9265"
       transform="matrix(0.45914942,0,0,0.45914942,-25.43563,-1.6883157)">
      <g
         id="use9261"
         transform="translate(175.4821,213.3914)">
        <path
           style="stroke:none"
           d="m 0.9375,-4.78125 0.046875,0.125 C 1.125,-4.71875 1.25,-4.78125 1.40625,-4.78125 c 0.234375,0 0.3125,0.203125 0.3125,0.75 v 3.1875 c 0,0.609375 -0.078125,0.6875 -0.6875,0.703125 V 0 h 2 v -0.140625 c -0.671875,0 -0.671875,-0.265625 -0.671875,-0.90625 V -5.40625 H 2.21875 Z m 0,0"
           id="path14870" />
      </g>
      <g
         id="use9263"
         transform="translate(179.4821,213.3914)">
        <path
           style="stroke:none"
           d="m 2,-5.40625 c -0.75,0 -1.71875,0.84375 -1.71875,2.765625 0,1.90625 0.96875,2.75 1.71875,2.75 0.75,0 1.71875,-0.84375 1.71875,-2.75 C 3.71875,-4.5625 2.75,-5.40625 2,-5.40625 Z m 0,0.234375 c 0.859375,0 0.9375,1.65625 0.9375,2.265625 C 2.9375,-1.125 2.625,-0.125 2,-0.125 1.171875,-0.125 1.0625,-1.78125 1.0625,-2.390625 1.0625,-4.1875 1.375,-5.171875 2,-5.171875 Z m 0,0"
           id="path14914" />
      </g>
    </g>
    <g
       style="fill:#000000;fill-opacity:1"
       id="g9271"
       transform="matrix(0.45914942,0,0,0.45914942,-25.43563,-1.6883157)">
      <g
         id="use9267"
         transform="translate(208.5341,213.3914)">
        <path
           style="stroke:none"
           d="M 3.65625,-1.015625 H 3.515625 C 3.3125,-0.59375 2.765625,-0.59375 2.65625,-0.59375 H 1.015625 l 1.171875,-1.25 c 0.53125,-0.5625 1.15625,-1.359375 1.15625,-2.171875 0,-0.8125 -0.734375,-1.390625 -1.5,-1.390625 -0.921875,0 -1.390625,0.65625 -1.515625,1.5 H 0.46875 c 0.140625,-0.546875 0.625,-0.90625 1.171875,-0.90625 0.625,0 1.015625,0.53125 1.015625,1.15625 0,0.859375 -0.453125,1.515625 -2.484375,3.515625 V 0 h 3.125 z m 0,0"
           id="path14898" />
      </g>
      <g
         id="use9269"
         transform="translate(212.5341,213.3914)">
        <path
           style="stroke:none"
           d="m 2,-5.40625 c -0.75,0 -1.71875,0.84375 -1.71875,2.765625 0,1.90625 0.96875,2.75 1.71875,2.75 0.75,0 1.71875,-0.84375 1.71875,-2.75 C 3.71875,-4.5625 2.75,-5.40625 2,-5.40625 Z m 0,0.234375 c 0.859375,0 0.9375,1.65625 0.9375,2.265625 C 2.9375,-1.125 2.625,-0.125 2,-0.125 1.171875,-0.125 1.0625,-1.78125 1.0625,-2.390625 1.0625,-4.1875 1.375,-5.171875 2,-5.171875 Z m 0,0"
           id="path14918" />
      </g>
    </g>
    <g
       style="fill:#000000;fill-opacity:1"
       id="g9277"
       transform="matrix(0.45914942,0,0,0.45914942,-25.43563,-1.6883157)">
      <g
         id="use9273"
         transform="translate(241.58611,213.3914)">
        <path
           style="stroke:none"
           d="M 1.21875,-2.625 C 2.75,-2.625 2.75,-1.40625 2.75,-1.328125 2.75,-0.78125 2.359375,-0.25 1.78125,-0.25 c -0.5625,0 -0.734375,-0.359375 -1.140625,-0.359375 -0.171875,0 -0.328125,0.125 -0.328125,0.296875 0,0.375 0.640625,0.421875 0.90625,0.421875 1.5,0 2.125,-0.96875 2.125,-1.84375 0,-0.6875 -0.375,-1.15625 -1,-1.40625 C 2.6875,-3.40625 3.078125,-3.875 3.078125,-4.3125 c 0,-0.34375 -0.28125,-1.09375 -1.25,-1.09375 -0.71875,0 -1.1875,0.484375 -1.421875,1.125 l 0.125,0.0625 c 0.203125,-0.359375 0.578125,-0.65625 1,-0.65625 0.546875,0 0.890625,0.375 0.890625,0.90625 0,0.703125 -0.5625,1.125 -1.203125,1.21875 z m 0,0"
           id="path14890" />
      </g>
      <g
         id="use9275"
         transform="translate(245.58611,213.3914)">
        <path
           style="stroke:none"
           d="m 2,-5.40625 c -0.75,0 -1.71875,0.84375 -1.71875,2.765625 0,1.90625 0.96875,2.75 1.71875,2.75 0.75,0 1.71875,-0.84375 1.71875,-2.75 C 3.71875,-4.5625 2.75,-5.40625 2,-5.40625 Z m 0,0.234375 c 0.859375,0 0.9375,1.65625 0.9375,2.265625 C 2.9375,-1.125 2.625,-0.125 2,-0.125 1.171875,-0.125 1.0625,-1.78125 1.0625,-2.390625 1.0625,-4.1875 1.375,-5.171875 2,-5.171875 Z m 0,0"
           id="path14922" />
      </g>
    </g>
    <g
       style="fill:#000000;fill-opacity:1"
       id="g9283"
       transform="matrix(0.45914942,0,0,0.45914942,-25.43563,-1.6883157)">
      <g
         id="use9279"
         transform="translate(274.63809,213.3914)">
        <path
           style="stroke:none"
           d="M 3.71875,-1.953125 H 3.015625 V -5.40625 h -0.4375 L 0.125,-1.890625 v 0.5 H 2.359375 V 0 h 0.65625 V -1.390625 H 3.71875 Z m -1.359375,0 H 0.5 L 2.34375,-4.5625 h 0.015625 z m 0,0"
           id="path14986" />
      </g>
      <g
         id="use9281"
         transform="translate(278.63809,213.3914)">
        <path
           style="stroke:none"
           d="m 2,-5.40625 c -0.75,0 -1.71875,0.84375 -1.71875,2.765625 0,1.90625 0.96875,2.75 1.71875,2.75 0.75,0 1.71875,-0.84375 1.71875,-2.75 C 3.71875,-4.5625 2.75,-5.40625 2,-5.40625 Z m 0,0.234375 c 0.859375,0 0.9375,1.65625 0.9375,2.265625 C 2.9375,-1.125 2.625,-0.125 2,-0.125 1.171875,-0.125 1.0625,-1.78125 1.0625,-2.390625 1.0625,-4.1875 1.375,-5.171875 2,-5.171875 Z m 0,0"
           id="path14926" />
      </g>
    </g>
    <g
       style="fill:#000000;fill-opacity:1"
       id="g9289"
       transform="matrix(0.45914942,0,0,0.45914942,-25.43563,-1.6883157)">
      <g
         id="use9285"
         transform="translate(307.69009,213.3914)">
        <path
           style="stroke:none"
           d="M 3.46875,-5.296875 H 1.578125 l -1.015625,2.0625 c 1.390625,0 2.3125,0.75 2.3125,1.75 0,0.640625 -0.515625,1.1875 -1.15625,1.1875 -0.515625,0 -0.65625,-0.40625 -1.015625,-0.40625 -0.171875,0 -0.3125,0.125 -0.3125,0.28125 0,0.421875 0.578125,0.53125 0.890625,0.53125 1.09375,0 2.109375,-0.875 2.109375,-2 0,-1.1875 -1.09375,-1.90625 -2.171875,-2.03125 l 0.375,-0.734375 H 3.1875 Z m 0,0"
           id="path14882" />
      </g>
      <g
         id="use9287"
         transform="translate(311.69009,213.3914)">
        <path
           style="stroke:none"
           d="m 2,-5.40625 c -0.75,0 -1.71875,0.84375 -1.71875,2.765625 0,1.90625 0.96875,2.75 1.71875,2.75 0.75,0 1.71875,-0.84375 1.71875,-2.75 C 3.71875,-4.5625 2.75,-5.40625 2,-5.40625 Z m 0,0.234375 c 0.859375,0 0.9375,1.65625 0.9375,2.265625 C 2.9375,-1.125 2.625,-0.125 2,-0.125 1.171875,-0.125 1.0625,-1.78125 1.0625,-2.390625 1.0625,-4.1875 1.375,-5.171875 2,-5.171875 Z m 0,0"
           id="path14930" />
      </g>
    </g>
    <g
       style="fill:#000000;fill-opacity:1"
       id="g9295"
       transform="matrix(0.45914942,0,0,0.45914942,-25.43563,-1.6883157)">
      <g
         id="use9291"
         transform="translate(340.74289,213.3914)">
        <path
           style="stroke:none"
           d="m 3.578125,-5.40625 h -0.15625 c -1.671875,0 -3.078125,1.625 -3.078125,3.3125 0,0.96875 0.53125,2.203125 1.6875,2.203125 1,0 1.65625,-0.953125 1.65625,-1.875 0,-0.78125 -0.484375,-1.578125 -1.34375,-1.578125 -0.40625,0 -0.796875,0.15625 -1.125,0.390625 0.265625,-1.125 1.125,-2.265625 2.359375,-2.3125 z M 2.984375,-1.375 c 0,0.546875 -0.21875,1.25 -0.890625,1.25 -0.734375,0 -1,-1.15625 -1,-1.734375 0,-0.34375 0.03125,-0.546875 0.078125,-0.8125 0.25,-0.171875 0.53125,-0.34375 0.796875,-0.34375 0.78125,0 1.015625,1.03125 1.015625,1.640625 z m 0,0"
           id="path14858" />
      </g>
      <g
         id="use9293"
         transform="translate(344.74289,213.3914)">
        <path
           style="stroke:none"
           d="m 2,-5.40625 c -0.75,0 -1.71875,0.84375 -1.71875,2.765625 0,1.90625 0.96875,2.75 1.71875,2.75 0.75,0 1.71875,-0.84375 1.71875,-2.75 C 3.71875,-4.5625 2.75,-5.40625 2,-5.40625 Z m 0,0.234375 c 0.859375,0 0.9375,1.65625 0.9375,2.265625 C 2.9375,-1.125 2.625,-0.125 2,-0.125 1.171875,-0.125 1.0625,-1.78125 1.0625,-2.390625 1.0625,-4.1875 1.375,-5.171875 2,-5.171875 Z m 0,0"
           id="path14934" />
      </g>
    </g>
    <g
       style="fill:#000000;fill-opacity:1"
       id="g9301"
       transform="matrix(0.45914942,0,0,0.45914942,-25.43563,-1.6883157)">
      <g
         id="use9297"
         transform="translate(373.79489,213.3914)">
        <path
           style="stroke:none"
           d="m 0.796875,-5.296875 -0.5,1.25 L 0.40625,-4 C 0.703125,-4.5 0.984375,-4.65625 1.515625,-4.65625 H 3.03125 L 1.4375,0.109375 H 1.875 L 3.640625,-5.15625 v -0.140625 z m 0,0"
           id="path14878" />
      </g>
      <g
         id="use9299"
         transform="translate(377.79489,213.3914)">
        <path
           style="stroke:none"
           d="m 2,-5.40625 c -0.75,0 -1.71875,0.84375 -1.71875,2.765625 0,1.90625 0.96875,2.75 1.71875,2.75 0.75,0 1.71875,-0.84375 1.71875,-2.75 C 3.71875,-4.5625 2.75,-5.40625 2,-5.40625 Z m 0,0.234375 c 0.859375,0 0.9375,1.65625 0.9375,2.265625 C 2.9375,-1.125 2.625,-0.125 2,-0.125 1.171875,-0.125 1.0625,-1.78125 1.0625,-2.390625 1.0625,-4.1875 1.375,-5.171875 2,-5.171875 Z m 0,0"
           id="path14938" />
      </g>
    </g>
    <g
       style="fill:#000000;fill-opacity:1"
       id="g9305"
       transform="matrix(0.45914942,0,0,0.45914942,-25.43563,-1.6883157)">
      <g
         id="use9303"
         transform="translate(139.1541,213.3914)">
        <path
           style="stroke:none"
           d="m 2,-5.40625 c -0.75,0 -1.71875,0.84375 -1.71875,2.765625 0,1.90625 0.96875,2.75 1.71875,2.75 0.75,0 1.71875,-0.84375 1.71875,-2.75 C 3.71875,-4.5625 2.75,-5.40625 2,-5.40625 Z m 0,0.234375 c 0.859375,0 0.9375,1.65625 0.9375,2.265625 C 2.9375,-1.125 2.625,-0.125 2,-0.125 1.171875,-0.125 1.0625,-1.78125 1.0625,-2.390625 1.0625,-4.1875 1.375,-5.171875 2,-5.171875 Z m 0,0"
           id="path14942" />
      </g>
    </g>
    <g
       style="fill:#000000;fill-opacity:1"
       id="g9311"
       transform="matrix(0.45914942,0,0,0.45914942,-25.43563,-1.6883157)">
      <g
         id="use9307"
         transform="translate(134.96449,185.2818)">
        <path
           style="stroke:none"
           d="m 0.9375,-4.78125 0.046875,0.125 C 1.125,-4.71875 1.25,-4.78125 1.40625,-4.78125 c 0.234375,0 0.3125,0.203125 0.3125,0.75 v 3.1875 c 0,0.609375 -0.078125,0.6875 -0.6875,0.703125 V 0 h 2 v -0.140625 c -0.671875,0 -0.671875,-0.265625 -0.671875,-0.90625 V -5.40625 H 2.21875 Z m 0,0"
           id="path14874" />
      </g>
      <g
         id="use9309"
         transform="translate(138.96449,185.2818)">
        <path
           style="stroke:none"
           d="m 2,-5.40625 c -0.75,0 -1.71875,0.84375 -1.71875,2.765625 0,1.90625 0.96875,2.75 1.71875,2.75 0.75,0 1.71875,-0.84375 1.71875,-2.75 C 3.71875,-4.5625 2.75,-5.40625 2,-5.40625 Z m 0,0.234375 c 0.859375,0 0.9375,1.65625 0.9375,2.265625 C 2.9375,-1.125 2.625,-0.125 2,-0.125 1.171875,-0.125 1.0625,-1.78125 1.0625,-2.390625 1.0625,-4.1875 1.375,-5.171875 2,-5.171875 Z m 0,0"
           id="path14946" />
      </g>
    </g>
    <g
       style="fill:#000000;fill-opacity:1"
       id="g9317"
       transform="matrix(0.45914942,0,0,0.45914942,-25.43563,-1.6883157)">
      <g
         id="use9313"
         transform="translate(134.96449,163.257)">
        <path
           style="stroke:none"
           d="M 3.65625,-1.015625 H 3.515625 C 3.3125,-0.59375 2.765625,-0.59375 2.65625,-0.59375 H 1.015625 l 1.171875,-1.25 c 0.53125,-0.5625 1.15625,-1.359375 1.15625,-2.171875 0,-0.8125 -0.734375,-1.390625 -1.5,-1.390625 -0.921875,0 -1.390625,0.65625 -1.515625,1.5 H 0.46875 c 0.140625,-0.546875 0.625,-0.90625 1.171875,-0.90625 0.625,0 1.015625,0.53125 1.015625,1.15625 0,0.859375 -0.453125,1.515625 -2.484375,3.515625 V 0 h 3.125 z m 0,0"
           id="path14902" />
      </g>
      <g
         id="use9315"
         transform="translate(138.96449,163.257)">
        <path
           style="stroke:none"
           d="m 2,-5.40625 c -0.75,0 -1.71875,0.84375 -1.71875,2.765625 0,1.90625 0.96875,2.75 1.71875,2.75 0.75,0 1.71875,-0.84375 1.71875,-2.75 C 3.71875,-4.5625 2.75,-5.40625 2,-5.40625 Z m 0,0.234375 c 0.859375,0 0.9375,1.65625 0.9375,2.265625 C 2.9375,-1.125 2.625,-0.125 2,-0.125 1.171875,-0.125 1.0625,-1.78125 1.0625,-2.390625 1.0625,-4.1875 1.375,-5.171875 2,-5.171875 Z m 0,0"
           id="path14950" />
      </g>
    </g>
    <g
       style="fill:#000000;fill-opacity:1"
       id="g9323"
       transform="matrix(0.45914942,0,0,0.45914942,-25.43563,-1.6883157)">
      <g
         id="use9319"
         transform="translate(134.96449,141.2314)">
        <path
           style="stroke:none"
           d="M 1.21875,-2.625 C 2.75,-2.625 2.75,-1.40625 2.75,-1.328125 2.75,-0.78125 2.359375,-0.25 1.78125,-0.25 c -0.5625,0 -0.734375,-0.359375 -1.140625,-0.359375 -0.171875,0 -0.328125,0.125 -0.328125,0.296875 0,0.375 0.640625,0.421875 0.90625,0.421875 1.5,0 2.125,-0.96875 2.125,-1.84375 0,-0.6875 -0.375,-1.15625 -1,-1.40625 C 2.6875,-3.40625 3.078125,-3.875 3.078125,-4.3125 c 0,-0.34375 -0.28125,-1.09375 -1.25,-1.09375 -0.71875,0 -1.1875,0.484375 -1.421875,1.125 l 0.125,0.0625 c 0.203125,-0.359375 0.578125,-0.65625 1,-0.65625 0.546875,0 0.890625,0.375 0.890625,0.90625 0,0.703125 -0.5625,1.125 -1.203125,1.21875 z m 0,0"
           id="path14894" />
      </g>
      <g
         id="use9321"
         transform="translate(138.96449,141.2314)">
        <path
           style="stroke:none"
           d="m 2,-5.40625 c -0.75,0 -1.71875,0.84375 -1.71875,2.765625 0,1.90625 0.96875,2.75 1.71875,2.75 0.75,0 1.71875,-0.84375 1.71875,-2.75 C 3.71875,-4.5625 2.75,-5.40625 2,-5.40625 Z m 0,0.234375 c 0.859375,0 0.9375,1.65625 0.9375,2.265625 C 2.9375,-1.125 2.625,-0.125 2,-0.125 1.171875,-0.125 1.0625,-1.78125 1.0625,-2.390625 1.0625,-4.1875 1.375,-5.171875 2,-5.171875 Z m 0,0"
           id="path14954" />
      </g>
    </g>
    <g
       style="fill:#000000;fill-opacity:1"
       id="g9329"
       transform="matrix(0.45914942,0,0,0.45914942,-25.43563,-1.6883157)">
      <g
         id="use9325"
         transform="translate(134.96449,119.2066)">
        <path
           style="stroke:none"
           d="M 3.71875,-1.953125 H 3.015625 V -5.40625 h -0.4375 L 0.125,-1.890625 v 0.5 H 2.359375 V 0 h 0.65625 V -1.390625 H 3.71875 Z m -1.359375,0 H 0.5 L 2.34375,-4.5625 h 0.015625 z m 0,0"
           id="path14990" />
      </g>
      <g
         id="use9327"
         transform="translate(138.96449,119.2066)">
        <path
           style="stroke:none"
           d="m 2,-5.40625 c -0.75,0 -1.71875,0.84375 -1.71875,2.765625 0,1.90625 0.96875,2.75 1.71875,2.75 0.75,0 1.71875,-0.84375 1.71875,-2.75 C 3.71875,-4.5625 2.75,-5.40625 2,-5.40625 Z m 0,0.234375 c 0.859375,0 0.9375,1.65625 0.9375,2.265625 C 2.9375,-1.125 2.625,-0.125 2,-0.125 1.171875,-0.125 1.0625,-1.78125 1.0625,-2.390625 1.0625,-4.1875 1.375,-5.171875 2,-5.171875 Z m 0,0"
           id="path14958" />
      </g>
    </g>
    <g
       style="fill:#000000;fill-opacity:1"
       id="g9335"
       transform="matrix(0.45914942,0,0,0.45914942,-25.43563,-1.6883157)">
      <g
         id="use9331"
         transform="translate(134.96449,97.181801)">
        <path
           style="stroke:none"
           d="M 3.46875,-5.296875 H 1.578125 l -1.015625,2.0625 c 1.390625,0 2.3125,0.75 2.3125,1.75 0,0.640625 -0.515625,1.1875 -1.15625,1.1875 -0.515625,0 -0.65625,-0.40625 -1.015625,-0.40625 -0.171875,0 -0.3125,0.125 -0.3125,0.28125 0,0.421875 0.578125,0.53125 0.890625,0.53125 1.09375,0 2.109375,-0.875 2.109375,-2 0,-1.1875 -1.09375,-1.90625 -2.171875,-2.03125 l 0.375,-0.734375 H 3.1875 Z m 0,0"
           id="path14886" />
      </g>
      <g
         id="use9333"
         transform="translate(138.96449,97.181801)">
        <path
           style="stroke:none"
           d="m 2,-5.40625 c -0.75,0 -1.71875,0.84375 -1.71875,2.765625 0,1.90625 0.96875,2.75 1.71875,2.75 0.75,0 1.71875,-0.84375 1.71875,-2.75 C 3.71875,-4.5625 2.75,-5.40625 2,-5.40625 Z m 0,0.234375 c 0.859375,0 0.9375,1.65625 0.9375,2.265625 C 2.9375,-1.125 2.625,-0.125 2,-0.125 1.171875,-0.125 1.0625,-1.78125 1.0625,-2.390625 1.0625,-4.1875 1.375,-5.171875 2,-5.171875 Z m 0,0"
           id="path14962" />
      </g>
    </g>
    <g
       style="fill:#000000;fill-opacity:1"
       id="g9341"
       transform="matrix(0.45914942,0,0,0.45914942,-25.43563,-1.6883157)">
      <g
         id="use9337"
         transform="translate(134.96449,75.156998)">
        <path
           style="stroke:none"
           d="m 3.578125,-5.40625 h -0.15625 c -1.671875,0 -3.078125,1.625 -3.078125,3.3125 0,0.96875 0.53125,2.203125 1.6875,2.203125 1,0 1.65625,-0.953125 1.65625,-1.875 0,-0.78125 -0.484375,-1.578125 -1.34375,-1.578125 -0.40625,0 -0.796875,0.15625 -1.125,0.390625 0.265625,-1.125 1.125,-2.265625 2.359375,-2.3125 z M 2.984375,-1.375 c 0,0.546875 -0.21875,1.25 -0.890625,1.25 -0.734375,0 -1,-1.15625 -1,-1.734375 0,-0.34375 0.03125,-0.546875 0.078125,-0.8125 0.25,-0.171875 0.53125,-0.34375 0.796875,-0.34375 0.78125,0 1.015625,1.03125 1.015625,1.640625 z m 0,0"
           id="path14862" />
      </g>
      <g
         id="use9339"
         transform="translate(138.96449,75.156998)">
        <path
           style="stroke:none"
           d="m 2,-5.40625 c -0.75,0 -1.71875,0.84375 -1.71875,2.765625 0,1.90625 0.96875,2.75 1.71875,2.75 0.75,0 1.71875,-0.84375 1.71875,-2.75 C 3.71875,-4.5625 2.75,-5.40625 2,-5.40625 Z m 0,0.234375 c 0.859375,0 0.9375,1.65625 0.9375,2.265625 C 2.9375,-1.125 2.625,-0.125 2,-0.125 1.171875,-0.125 1.0625,-1.78125 1.0625,-2.390625 1.0625,-4.1875 1.375,-5.171875 2,-5.171875 Z m 0,0"
           id="path14966" />
      </g>
    </g>
    <g
       style="fill:#000000;fill-opacity:1"
       id="g9365"
       transform="matrix(0.45914942,0,0,0.45914942,-26.740131,-1.6883157)">
      <g
         id="use9343"
         transform="translate(316.6445,72.970596)">
        <path
           style="stroke:none"
           d="M 3.6875,-5.421875 H 3.53125 C 3.5,-5.25 3.453125,-5.109375 3.265625,-5.109375 c -0.109375,0 -0.25,-0.078125 -0.453125,-0.15625 C 2.609375,-5.34375 2.375,-5.421875 2.09375,-5.421875 1.25,-5.421875 0.515625,-4.8125 0.515625,-4 c 0,1.578125 2.828125,1.734375 2.828125,2.9375 0,0.59375 -0.53125,0.875 -1.0625,0.875 -0.46875,0 -1.453125,-0.234375 -1.5625,-1.515625 H 0.5625 V 0.125 h 0.15625 c 0.015625,-0.171875 0.046875,-0.296875 0.234375,-0.296875 0.1875,0 0.34375,0.0625 0.5625,0.140625 0.21875,0.078125 0.46875,0.15625 0.84375,0.15625 1.015625,0 1.671875,-0.703125 1.671875,-1.53125 0,-1.5625 -2.890625,-1.765625 -2.890625,-2.875 0,-0.484375 0.453125,-0.828125 0.921875,-0.828125 0.875,0 1.421875,0.6875 1.46875,1.53125 H 3.6875 Z m 0,0"
           id="path14850" />
      </g>
      <g
         id="use9345"
         transform="translate(321.0925,72.970596)">
        <path
           style="stroke:none"
           d="M 1.46875,-3.6875 H 1.296875 L 0.21875,-3.25 0.265625,-3.109375 c 0.09375,-0.03125 0.1875,-0.0625 0.28125,-0.0625 0.109375,0 0.28125,0 0.28125,0.546875 v 1.9375 c 0,0.484375 -0.1875,0.53125 -0.5625,0.546875 V 0 H 2.03125 V -0.140625 C 1.65625,-0.15625 1.46875,-0.203125 1.46875,-0.6875 Z M 0.75,-5.15625 c 0,0.21875 0.171875,0.390625 0.390625,0.390625 0.21875,0 0.390625,-0.171875 0.390625,-0.390625 0,-0.21875 -0.171875,-0.390625 -0.390625,-0.390625 C 0.921875,-5.546875 0.75,-5.375 0.75,-5.15625 Z m 0,0"
           id="path15054" />
      </g>
      <g
         id="use9347"
         transform="translate(323.3165,72.970596)">
        <path
           style="stroke:none"
           d="M 1.296875,-3.6875 H 1.125 L 0.046875,-3.25 0.09375,-3.109375 c 0.078125,-0.03125 0.1875,-0.0625 0.28125,-0.0625 0.109375,0 0.265625,0 0.265625,0.546875 v 1.9375 c 0,0.484375 -0.171875,0.53125 -0.546875,0.546875 V 0 h 1.75 V -0.140625 C 1.484375,-0.15625 1.296875,-0.203125 1.296875,-0.6875 V -2.734375 C 1.5625,-2.96875 1.84375,-3.203125 2.21875,-3.203125 c 0.578125,0 0.59375,0.484375 0.59375,0.9375 V -0.6875 c 0,0.484375 -0.1875,0.53125 -0.546875,0.546875 V 0 h 1.75 V -0.140625 C 3.640625,-0.15625 3.46875,-0.203125 3.46875,-0.6875 v -2.046875 c 0.265625,-0.234375 0.546875,-0.46875 0.921875,-0.46875 0.578125,0 0.59375,0.484375 0.59375,0.9375 V -0.6875 c 0,0.484375 -0.1875,0.53125 -0.546875,0.546875 V 0 h 1.75 V -0.140625 C 5.8125,-0.15625 5.625,-0.203125 5.625,-0.6875 v -1.796875 c 0,-0.59375 -0.25,-1.203125 -0.9375,-1.203125 -0.5625,0 -0.890625,0.359375 -1.25,0.78125 C 3.390625,-3.359375 2.984375,-3.6875 2.546875,-3.6875 c -0.5625,0 -0.90625,0.40625 -1.25,0.765625 z m 0,0"
           id="path14798" />
      </g>
      <g
         id="use9349"
         transform="translate(329.5405,72.970596)">
        <path
           style="stroke:none"
           d="M 3.390625,-3.578125 H 2.15625 V -3.4375 C 2.6875,-3.421875 2.75,-3.296875 2.75,-2.8125 v 1.9375 c -0.21875,0.21875 -0.5625,0.5 -0.890625,0.5 -0.40625,0 -0.59375,-0.265625 -0.59375,-0.71875 V -3.578125 H 0.03125 V -3.4375 c 0.53125,0.015625 0.578125,0.140625 0.578125,0.625 v 1.75 c 0,0.671875 0.328125,1.171875 0.921875,1.171875 0.53125,0 0.859375,-0.375 1.21875,-0.75 v 0.75 H 2.921875 L 4,-0.328125 3.9375,-0.46875 c -0.078125,0.03125 -0.171875,0.0625 -0.265625,0.0625 -0.109375,0 -0.28125,0 -0.28125,-0.53125 z m 0,0"
           id="path15042" />
      </g>
      <g
         id="use9351"
         transform="translate(333.5405,72.970596)">
        <path
           style="stroke:none"
           d="M 1.46875,-5.546875 H 1.296875 l -1.078125,0.4375 0.046875,0.140625 c 0.09375,-0.046875 0.1875,-0.078125 0.28125,-0.078125 0.109375,0 0.28125,0 0.28125,0.546875 v 3.8125 c 0,0.484375 -0.1875,0.53125 -0.5625,0.546875 V 0 H 2.03125 v -0.140625 c -0.375,-0.015625 -0.5625,-0.0625 -0.5625,-0.546875 z m 0,0"
           id="path14814" />
      </g>
      <g
         id="use9353"
         transform="translate(335.7645,72.970596)">
        <path
           style="stroke:none"
           d="m 2.90625,-2.71875 c 0,-0.21875 0,-0.96875 -1.171875,-0.96875 -1.09375,0 -1.328125,0.671875 -1.328125,0.890625 0,0.21875 0.109375,0.390625 0.328125,0.390625 0.25,0 0.328125,-0.1875 0.328125,-0.5625 0,-0.328125 0.28125,-0.484375 0.53125,-0.484375 0.625,0 0.65625,0.53125 0.65625,1.125 -0.65625,0.28125 -1.984375,0.609375 -1.984375,1.5 0,0.53125 0.3125,0.9375 0.859375,0.9375 0.484375,0 0.765625,-0.3125 1.125,-0.578125 0,0.296875 0.09375,0.578125 0.4375,0.578125 0.34375,0 0.65625,-0.34375 0.828125,-0.578125 v -0.234375 c -0.09375,0.109375 -0.28125,0.3125 -0.40625,0.3125 -0.203125,0 -0.203125,-0.25 -0.203125,-0.609375 z M 2.25,-0.734375 c -0.171875,0.15625 -0.515625,0.390625 -0.765625,0.390625 -0.34375,0 -0.5625,-0.328125 -0.5625,-0.640625 C 0.921875,-1.59375 1.71875,-1.875 2.25,-2.09375 Z m 0,0"
           id="path14778" />
      </g>
      <g
         id="use9355"
         transform="translate(339.3165,72.970596)">
        <path
           style="stroke:none"
           d="M 1.265625,-3.578125 V -4.75 H 1.15625 C 0.859375,-4.015625 0.5,-3.625 0.0625,-3.453125 V -3.28125 H 0.625 v 2.46875 c 0,0.6875 0.421875,0.859375 0.671875,0.859375 0.453125,0 0.78125,-0.375 0.921875,-0.765625 H 2.0625 c -0.046875,0.171875 -0.234375,0.3125 -0.421875,0.3125 -0.375,0 -0.375,-0.359375 -0.375,-0.6875 v -2.1875 h 0.84375 v -0.296875 z m 0,0"
           id="path14842" />
      </g>
      <g
         id="use9357"
         transform="translate(341.5405,72.970596)">
        <path
           style="stroke:none"
           d="M 1.46875,-3.6875 H 1.296875 L 0.21875,-3.25 0.265625,-3.109375 c 0.09375,-0.03125 0.1875,-0.0625 0.28125,-0.0625 0.109375,0 0.28125,0 0.28125,0.546875 v 1.9375 c 0,0.484375 -0.1875,0.53125 -0.5625,0.546875 V 0 H 2.03125 V -0.140625 C 1.65625,-0.15625 1.46875,-0.203125 1.46875,-0.6875 Z M 0.75,-5.15625 c 0,0.21875 0.171875,0.390625 0.390625,0.390625 0.21875,0 0.390625,-0.171875 0.390625,-0.390625 0,-0.21875 -0.171875,-0.390625 -0.390625,-0.390625 C 0.921875,-5.546875 0.75,-5.375 0.75,-5.15625 Z m 0,0"
           id="path15058" />
      </g>
      <g
         id="use9359"
         transform="translate(343.7645,72.970596)">
        <path
           style="stroke:none"
           d="m 2.015625,-3.6875 c -1.0625,0 -1.75,0.953125 -1.75,1.9375 0,0.953125 0.671875,1.859375 1.6875,1.859375 1.265625,0 1.78125,-1.15625 1.78125,-1.984375 0,-0.96875 -0.71875,-1.8125 -1.71875,-1.8125 z M 1.875,-3.421875 c 0.890625,0 1.125,1.1875 1.125,1.890625 0,0.5625 -0.140625,1.375 -0.859375,1.375 C 1.25,-0.15625 1,-1.40625 1,-2.09375 1,-3.125 1.484375,-3.421875 1.875,-3.421875 Z m 0,0"
           id="path15074" />
      </g>
      <g
         id="use9361"
         transform="translate(347.7645,72.970596)">
        <path
           style="stroke:none"
           d="M 1.296875,-3.6875 H 1.125 L 0.046875,-3.25 0.09375,-3.109375 c 0.078125,-0.03125 0.1875,-0.0625 0.28125,-0.0625 0.109375,0 0.265625,0 0.265625,0.546875 v 1.9375 c 0,0.484375 -0.171875,0.53125 -0.546875,0.546875 V 0 h 1.75 V -0.140625 C 1.484375,-0.15625 1.296875,-0.203125 1.296875,-0.6875 v -2.015625 c 0.265625,-0.265625 0.53125,-0.5 0.90625,-0.5 0.234375,0 0.5625,0.078125 0.5625,0.859375 v 1.65625 c 0,0.484375 -0.1875,0.53125 -0.546875,0.546875 V 0 h 1.75 V -0.140625 C 3.59375,-0.15625 3.421875,-0.203125 3.421875,-0.6875 v -1.796875 c 0,-0.59375 -0.265625,-1.203125 -0.90625,-1.203125 -0.453125,0 -0.765625,0.25 -1.21875,0.75 z m 0,0"
           id="path14906" />
      </g>
      <g
         id="use9363"
         transform="translate(351.7645,72.970596)">
        <path
           style="stroke:none"
           d="M 2.578125,-3.6875 H 2.4375 c -0.03125,0.09375 -0.0625,0.15625 -0.171875,0.15625 -0.09375,0 -0.1875,-0.046875 -0.296875,-0.0625 C 1.8125,-3.640625 1.6875,-3.6875 1.515625,-3.6875 c -0.640625,0 -1.109375,0.421875 -1.109375,1.078125 0,1.125 1.859375,1 1.859375,1.9375 C 2.265625,-0.3125 1.984375,-0.125 1.65625,-0.125 1.0625,-0.125 0.625,-0.65625 0.5625,-1.21875 H 0.421875 V 0.0625 H 0.5625 c 0.015625,-0.078125 0.0625,-0.109375 0.140625,-0.109375 0.0625,0 0.15625,0.015625 0.203125,0.03125 0.234375,0.078125 0.484375,0.125 0.71875,0.125 0.609375,0 1.21875,-0.40625 1.21875,-1.0625 0,-1.25 -1.96875,-1.140625 -1.96875,-2 0,-0.328125 0.3125,-0.5 0.609375,-0.5 0.625,0 0.828125,0.453125 0.953125,0.984375 h 0.140625 z m 0,0"
           id="path14774" />
      </g>
    </g>
    <path
       style="fill:none;stroke:#000000;stroke-width:0.137745;stroke-linecap:butt;stroke-linejoin:miter;stroke-miterlimit:5;stroke-opacity:1"
       d="m 106.85306,31.130101 h 10.3201"
       id="path9451" />
    <path
       style="fill:#000000;fill-opacity:1;fill-rule:nonzero;stroke:none;stroke-width:0.459149"
       d="m 112.01132,29.892554 1.07255,1.856327 h -2.1433 l 1.07075,-1.856327"
       id="path9453" />
    <path
       style="fill:none;stroke:#000000;stroke-width:0.137745;stroke-linecap:butt;stroke-linejoin:miter;stroke-miterlimit:5;stroke-opacity:1"
       d="m 106.85306,37.653595 h 10.3201"
       id="path9455" />
    <g
       inkscape:label=""
       transform="translate(118.88375,32.036842)"
       id="g3865">
      <g
         id="g3863"
         transform="matrix(0.352778,0,0,0.352778,-0.198437,0.0778316)">
        <g
           style="fill:#000000;fill-opacity:1"
           id="g82"
           transform="translate(0,4.4999973)">
          <g
             id="use66"
             transform="translate(0,13.16)">
            <path
               style="stroke:none"
               d="m 3.484375,-3.875 -1.28125,-0.296875 c -0.625,-0.15625 -1,-0.6875 -1,-1.265625 0,-0.703125 0.53125,-1.3125 1.3125,-1.3125 1.65625,0 1.875,1.640625 1.9375,2.078125 0.015625,0.0625 0.015625,0.125 0.125,0.125 0.125,0 0.125,-0.046875 0.125,-0.234375 v -2 c 0,-0.171875 0,-0.25 -0.109375,-0.25 -0.0625,0 -0.078125,0.015625 -0.140625,0.140625 l -0.359375,0.5625 C 3.796875,-6.625 3.390625,-7.03125 2.5,-7.03125 c -1.109375,0 -1.9375,0.875 -1.9375,1.9375 0,0.828125 0.53125,1.5625 1.296875,1.828125 0.109375,0.03125 0.625,0.15625 1.328125,0.328125 0.265625,0.0625 0.5625,0.140625 0.84375,0.5 0.203125,0.265625 0.3125,0.59375 0.3125,0.921875 0,0.703125 -0.5,1.421875 -1.34375,1.421875 -0.28125,0 -1.046875,-0.046875 -1.578125,-0.53125 C 0.84375,-1.171875 0.8125,-1.796875 0.8125,-2.15625 0.796875,-2.265625 0.71875,-2.265625 0.6875,-2.265625 c -0.125,0 -0.125,0.078125 -0.125,0.25 v 2 c 0,0.171875 0,0.234375 0.109375,0.234375 0.0625,0 0.078125,-0.015625 0.140625,-0.125 0,-0.015625 0.03125,-0.046875 0.359375,-0.578125 0.3125,0.34375 0.953125,0.703125 1.84375,0.703125 1.15625,0 1.953125,-0.96875 1.953125,-2.078125 0,-0.984375 -0.65625,-1.8125 -1.484375,-2.015625 z m 0,0"
               id="path123" />
          </g>
          <g
             id="use68"
             transform="translate(5.5352211,13.16)">
            <path
               style="stroke:none"
               d="m 1.171875,-2.171875 c 0,-1.625 0.8125,-2.046875 1.34375,-2.046875 0.09375,0 0.71875,0.015625 1.0625,0.375 -0.40625,0.03125 -0.46875,0.328125 -0.46875,0.453125 0,0.265625 0.1875,0.453125 0.453125,0.453125 0.265625,0 0.46875,-0.15625 0.46875,-0.46875 0,-0.671875 -0.765625,-1.0625 -1.53125,-1.0625 -1.25,0 -2.15625,1.078125 -2.15625,2.3125 0,1.28125 0.984375,2.265625 2.140625,2.265625 1.328125,0 1.65625,-1.203125 1.65625,-1.296875 0,-0.09375 -0.109375,-0.09375 -0.140625,-0.09375 -0.078125,0 -0.109375,0.03125 -0.125,0.09375 -0.28125,0.921875 -0.9375,1.046875 -1.296875,1.046875 -0.53125,0 -1.40625,-0.421875 -1.40625,-2.03125 z m 0,0"
               id="path127" />
          </g>
          <g
             id="use70"
             transform="translate(9.9625998,13.16)">
            <path
               style="stroke:none"
               d="m 3.3125,-0.75 c 0.046875,0.390625 0.3125,0.8125 0.78125,0.8125 0.21875,0 0.828125,-0.140625 0.828125,-0.953125 v -0.5625 h -0.25 v 0.5625 c 0,0.578125 -0.25,0.640625 -0.359375,0.640625 -0.328125,0 -0.375,-0.453125 -0.375,-0.5 v -1.984375 c 0,-0.421875 0,-0.8125 -0.359375,-1.1875 C 3.1875,-4.3125 2.6875,-4.46875 2.21875,-4.46875 c -0.828125,0 -1.515625,0.46875 -1.515625,1.125 0,0.296875 0.203125,0.46875 0.46875,0.46875 0.28125,0 0.453125,-0.203125 0.453125,-0.453125 0,-0.125 -0.046875,-0.453125 -0.515625,-0.453125 C 1.390625,-4.140625 1.875,-4.25 2.1875,-4.25 c 0.5,0 1.0625,0.390625 1.0625,1.28125 v 0.359375 c -0.515625,0.03125 -1.203125,0.0625 -1.828125,0.359375 -0.75,0.34375 -1,0.859375 -1,1.296875 0,0.8125 0.96875,1.0625 1.59375,1.0625 0.65625,0 1.109375,-0.40625 1.296875,-0.859375 z M 3.25,-2.390625 v 1 c 0,0.9375 -0.71875,1.28125 -1.171875,1.28125 -0.484375,0 -0.890625,-0.34375 -0.890625,-0.84375 0,-0.546875 0.421875,-1.375 2.0625,-1.4375 z m 0,0"
               id="path131" />
          </g>
          <g
             id="use72"
             transform="translate(14.9439,13.16)">
            <path
               style="stroke:none"
               d="M 1.765625,-6.921875 0.328125,-6.8125 V -6.5 c 0.703125,0 0.78125,0.0625 0.78125,0.5625 V -0.75 c 0,0.4375 -0.109375,0.4375 -0.78125,0.4375 V 0 C 0.65625,-0.015625 1.1875,-0.03125 1.4375,-0.03125 c 0.25,0 0.734375,0.015625 1.109375,0.03125 v -0.3125 c -0.671875,0 -0.78125,0 -0.78125,-0.4375 z m 0,0"
               id="path135" />
          </g>
          <g
             id="use74"
             transform="translate(17.71151,13.16)">
            <path
               style="stroke:none"
               d="M 1.765625,-4.40625 0.375,-4.296875 v 0.3125 c 0.640625,0 0.734375,0.0625 0.734375,0.546875 V -0.75 c 0,0.4375 -0.109375,0.4375 -0.78125,0.4375 V 0 C 0.640625,-0.015625 1.1875,-0.03125 1.421875,-0.03125 1.78125,-0.03125 2.125,-0.015625 2.46875,0 v -0.3125 c -0.671875,0 -0.703125,-0.046875 -0.703125,-0.4375 z m 0.03125,-1.734375 c 0,-0.3125 -0.234375,-0.53125 -0.515625,-0.53125 -0.3125,0 -0.53125,0.265625 -0.53125,0.53125 0,0.265625 0.21875,0.53125 0.53125,0.53125 0.28125,0 0.515625,-0.21875 0.515625,-0.53125 z m 0,0"
               id="path139" />
          </g>
          <g
             id="use76"
             transform="translate(20.47912,13.16)">
            <path
               style="stroke:none"
               d="M 1.09375,-3.421875 V -0.75 c 0,0.4375 -0.109375,0.4375 -0.78125,0.4375 V 0 c 0.359375,-0.015625 0.859375,-0.03125 1.140625,-0.03125 0.25,0 0.765625,0.015625 1.109375,0.03125 v -0.3125 c -0.671875,0 -0.78125,0 -0.78125,-0.4375 V -2.59375 C 1.78125,-3.625 2.5,-4.1875 3.125,-4.1875 c 0.640625,0 0.75,0.53125 0.75,1.109375 V -0.75 c 0,0.4375 -0.109375,0.4375 -0.78125,0.4375 V 0 c 0.34375,-0.015625 0.859375,-0.03125 1.125,-0.03125 0.25,0 0.78125,0.015625 1.109375,0.03125 v -0.3125 c -0.515625,0 -0.765625,0 -0.765625,-0.296875 v -1.90625 c 0,-0.859375 0,-1.15625 -0.3125,-1.515625 -0.140625,-0.171875 -0.46875,-0.375 -1.046875,-0.375 C 2.46875,-4.40625 2,-3.984375 1.71875,-3.359375 V -4.40625 L 0.3125,-4.296875 v 0.3125 c 0.703125,0 0.78125,0.0625 0.78125,0.5625 z m 0,0"
               id="path143" />
          </g>
          <g
             id="use78"
             transform="translate(26.014341,13.16)">
            <path
               style="stroke:none"
               d="m 2.21875,-1.71875 c -0.875,0 -0.875,-1 -0.875,-1.21875 0,-0.265625 0.015625,-0.59375 0.15625,-0.84375 0.078125,-0.109375 0.3125,-0.390625 0.71875,-0.390625 0.859375,0 0.859375,0.984375 0.859375,1.21875 0,0.265625 0,0.59375 -0.15625,0.84375 C 2.84375,-2 2.609375,-1.71875 2.21875,-1.71875 Z M 1.0625,-1.328125 c 0,-0.03125 0,-0.265625 0.15625,-0.46875 0.390625,0.28125 0.8125,0.3125 1,0.3125 0.921875,0 1.609375,-0.6875 1.609375,-1.453125 0,-0.375 -0.15625,-0.734375 -0.40625,-0.96875 C 3.78125,-4.25 4.140625,-4.296875 4.3125,-4.296875 c 0.03125,0 0.078125,0 0.109375,0.015625 C 4.3125,-4.25 4.25,-4.140625 4.25,-4.015625 c 0,0.171875 0.140625,0.28125 0.296875,0.28125 0.09375,0 0.28125,-0.0625 0.28125,-0.296875 0,-0.171875 -0.109375,-0.484375 -0.5,-0.484375 -0.203125,0 -0.640625,0.0625 -1.0625,0.46875 C 2.84375,-4.375 2.4375,-4.40625 2.21875,-4.40625 c -0.9375,0 -1.625,0.6875 -1.625,1.453125 0,0.4375 0.21875,0.8125 0.46875,1.03125 -0.125,0.140625 -0.3125,0.46875 -0.3125,0.828125 0,0.3125 0.140625,0.6875 0.453125,0.890625 -0.609375,0.15625 -0.921875,0.59375 -0.921875,0.984375 0,0.71875 0.984375,1.265625 2.203125,1.265625 1.171875,0 2.203125,-0.5 2.203125,-1.28125 0,-0.34375 -0.125,-0.859375 -0.640625,-1.140625 -0.53125,-0.265625 -1.109375,-0.265625 -1.71875,-0.265625 -0.25,0 -0.671875,0 -0.75,-0.015625 C 1.265625,-0.703125 1.0625,-1 1.0625,-1.328125 Z M 2.5,1.828125 c -1.015625,0 -1.703125,-0.515625 -1.703125,-1.046875 0,-0.453125 0.375,-0.828125 0.8125,-0.84375 h 0.59375 c 0.859375,0 1.96875,0 1.96875,0.84375 0,0.546875 -0.703125,1.046875 -1.671875,1.046875 z m 0,0"
               id="path147" />
          </g>
          <g
             id="use80"
             transform="translate(30.995642,13.16)">
            <path
               style="stroke:none"
               d="m 2.03125,-0.015625 c 0,-0.625 -0.25,-1.046875 -0.640625,-1.046875 -0.359375,0 -0.53125,0.28125 -0.53125,0.53125 0,0.265625 0.171875,0.53125 0.53125,0.53125 0.15625,0 0.28125,-0.0625 0.375,-0.140625 L 1.78125,-0.15625 c 0.015625,0 0.015625,0 0.015625,0.140625 0,0.640625 -0.265625,1.25 -0.703125,1.71875 -0.0625,0.0625 -0.078125,0.078125 -0.078125,0.109375 0,0.078125 0.046875,0.109375 0.09375,0.109375 0.125,0 0.921875,-0.78125 0.921875,-1.9375 z m 0,0"
               id="path151" />
          </g>
        </g>
        <g
           style="fill:#000000;fill-opacity:1"
           id="g98"
           transform="translate(-20.999987,4.4999973)">
          <g
             id="use96"
             transform="translate(66.671997,6.4200001)">
            <path
               style="stroke:none"
               d="m 2.9375,-6.375 c 0,-0.25 0,-0.265625 -0.234375,-0.265625 C 2.078125,-6 1.203125,-6 0.890625,-6 v 0.3125 c 0.203125,0 0.78125,0 1.296875,-0.265625 v 5.171875 c 0,0.359375 -0.03125,0.46875 -0.921875,0.46875 h -0.3125 V 0 c 0.34375,-0.03125 1.203125,-0.03125 1.609375,-0.03125 0.390625,0 1.265625,0 1.609375,0.03125 v -0.3125 h -0.3125 c -0.90625,0 -0.921875,-0.109375 -0.921875,-0.46875 z m 0,0"
               id="path167" />
          </g>
        </g>
        <path
           style="fill:none;stroke:#000000;stroke-width:0.398;stroke-linecap:butt;stroke-linejoin:miter;stroke-miterlimit:10;stroke-opacity:1"
           d="M 38.738295,15.167966 H 57.585951"
           id="path100" />
        <g
           clip-path="url(#clipPath2991)"
           clip-rule="nonzero"
           id="g110"
           transform="translate(-20.999987,4.4999973)">
          <g
             style="fill:#000000;fill-opacity:1"
             id="g108">
            <g
               id="use102"
               transform="translate(59.740002,19.993999)">
              <path
                 style="stroke:none"
                 d="m 2.078125,-1.9375 c 0.21875,0.046875 1.03125,0.203125 1.03125,0.921875 0,0.5 -0.34375,0.90625 -1.125,0.90625 -0.84375,0 -1.203125,-0.5625 -1.390625,-1.421875 C 0.5625,-1.65625 0.5625,-1.6875 0.453125,-1.6875 c -0.125,0 -0.125,0.0625 -0.125,0.234375 V -0.125 c 0,0.171875 0,0.234375 0.109375,0.234375 0.046875,0 0.0625,-0.015625 0.25,-0.203125 0.015625,-0.015625 0.015625,-0.03125 0.203125,-0.21875 0.4375,0.40625 0.890625,0.421875 1.09375,0.421875 1.140625,0 1.609375,-0.671875 1.609375,-1.390625 0,-0.515625 -0.296875,-0.828125 -0.421875,-0.9375 C 2.84375,-2.546875 2.453125,-2.625 2.03125,-2.703125 1.46875,-2.8125 0.8125,-2.9375 0.8125,-3.515625 c 0,-0.359375 0.25,-0.765625 1.109375,-0.765625 1.09375,0 1.15625,0.90625 1.171875,1.203125 0,0.09375 0.09375,0.09375 0.109375,0.09375 0.140625,0 0.140625,-0.046875 0.140625,-0.234375 v -1.015625 c 0,-0.15625 0,-0.234375 -0.109375,-0.234375 -0.046875,0 -0.078125,0 -0.203125,0.125 -0.03125,0.03125 -0.125,0.125 -0.171875,0.15625 -0.375,-0.28125 -0.78125,-0.28125 -0.9375,-0.28125 -1.21875,0 -1.59375,0.671875 -1.59375,1.234375 0,0.34375 0.15625,0.625 0.421875,0.84375 0.328125,0.25 0.609375,0.3125 1.328125,0.453125 z m 0,0"
                 id="path171" />
            </g>
            <g
               id="use104"
               transform="translate(63.66925,19.993999)">
              <path
                 style="stroke:none"
                 d="M 1.765625,-4.40625 0.375,-4.296875 v 0.3125 c 0.640625,0 0.734375,0.0625 0.734375,0.546875 V -0.75 c 0,0.4375 -0.109375,0.4375 -0.78125,0.4375 V 0 C 0.640625,-0.015625 1.1875,-0.03125 1.421875,-0.03125 1.78125,-0.03125 2.125,-0.015625 2.46875,0 v -0.3125 c -0.671875,0 -0.703125,-0.046875 -0.703125,-0.4375 z m 0.03125,-1.734375 c 0,-0.3125 -0.234375,-0.53125 -0.515625,-0.53125 -0.3125,0 -0.53125,0.265625 -0.53125,0.53125 0,0.265625 0.21875,0.53125 0.53125,0.53125 0.28125,0 0.515625,-0.21875 0.515625,-0.53125 z m 0,0"
                 id="path175" />
            </g>
            <g
               id="use106"
               transform="translate(66.436859,19.993999)">
              <path
                 style="stroke:none"
                 d="M 1.09375,-3.421875 V -0.75 c 0,0.4375 -0.109375,0.4375 -0.78125,0.4375 V 0 c 0.359375,-0.015625 0.859375,-0.03125 1.140625,-0.03125 0.25,0 0.765625,0.015625 1.109375,0.03125 v -0.3125 c -0.671875,0 -0.78125,0 -0.78125,-0.4375 V -2.59375 C 1.78125,-3.625 2.5,-4.1875 3.125,-4.1875 c 0.640625,0 0.75,0.53125 0.75,1.109375 V -0.75 c 0,0.4375 -0.109375,0.4375 -0.78125,0.4375 V 0 c 0.34375,-0.015625 0.859375,-0.03125 1.125,-0.03125 0.25,0 0.78125,0.015625 1.109375,0.03125 v -0.3125 c -0.515625,0 -0.765625,0 -0.765625,-0.296875 v -1.90625 c 0,-0.859375 0,-1.15625 -0.3125,-1.515625 -0.140625,-0.171875 -0.46875,-0.375 -1.046875,-0.375 C 2.46875,-4.40625 2,-3.984375 1.71875,-3.359375 V -4.40625 L 0.3125,-4.296875 v 0.3125 c 0.703125,0 0.78125,0.0625 0.78125,0.5625 z m 0,0"
                 id="path179" />
            </g>
          </g>
        </g>
        <g
           clip-path="url(#clipPath6389)"
           clip-rule="nonzero"
           id="g116"
           transform="translate(-20.999987,4.4999973)">
          <g
             style="fill:#000000;fill-opacity:1"
             id="g114">
            <g
               id="use112"
               transform="translate(73.632004,19.993999)">
              <path
                 style="stroke:none"
                 d="m 4.53125,-4.984375 c 0,-0.65625 -0.171875,-2.046875 -1.1875,-2.046875 -1.390625,0 -2.921875,2.8125 -2.921875,5.09375 0,0.9375 0.28125,2.046875 1.1875,2.046875 1.40625,0 2.921875,-2.859375 2.921875,-5.09375 z M 1.46875,-3.625 C 1.640625,-4.25 1.84375,-5.046875 2.25,-5.765625 2.515625,-6.25 2.875,-6.8125 3.328125,-6.8125 c 0.484375,0 0.546875,0.640625 0.546875,1.203125 0,0.5 -0.078125,1 -0.3125,1.984375 z m 2,0.328125 C 3.359375,-2.84375 3.15625,-2 2.765625,-1.28125 c -0.34375,0.6875 -0.71875,1.171875 -1.15625,1.171875 -0.328125,0 -0.53125,-0.296875 -0.53125,-1.21875 0,-0.421875 0.0625,-1 0.3125,-1.96875 z m 0,0"
                 id="path183" />
            </g>
          </g>
        </g>
      </g>
    </g>
  </g>
</svg>
