<?xml version="1.0" encoding="UTF-8" standalone="no"?>
<!-- Created with Inkscape (http://www.inkscape.org/) -->

<svg
   width="93.13903mm"
   height="57.618031mm"
   viewBox="0 0 93.13903 57.618031"
   version="1.1"
   id="svg7272"
   inkscape:version="1.2.2 (1:1.2.2+202212051552+b0a8486541)"
   sodipodi:docname="velocity_theta.svg"
   xmlns:inkscape="http://www.inkscape.org/namespaces/inkscape"
   xmlns:sodipodi="http://sodipodi.sourceforge.net/DTD/sodipodi-0.dtd"
   xmlns="http://www.w3.org/2000/svg"
   xmlns:svg="http://www.w3.org/2000/svg">
  <sodipodi:namedview
     id="namedview7274"
     pagecolor="#ffffff"
     bordercolor="#666666"
     borderopacity="1.0"
     inkscape:showpageshadow="2"
     inkscape:pageopacity="0.0"
     inkscape:pagecheckerboard="0"
     inkscape:deskcolor="#d1d1d1"
     inkscape:document-units="mm"
     showgrid="false"
     inkscape:zoom="1.1954302"
     inkscape:cx="45.590282"
     inkscape:cy="207.03844"
     inkscape:window-width="1920"
     inkscape:window-height="1016"
     inkscape:window-x="0"
     inkscape:window-y="0"
     inkscape:window-maximized="1"
     inkscape:current-layer="layer1" />
  <defs
     id="defs7269" />
  <g
     inkscape:label="Layer 1"
     inkscape:groupmode="layer"
     id="layer1"
     transform="translate(-74.244042,-56.767257)">
    <rect
       style="fill:#ffffff;stroke:#ffffff;stroke-width:0.590466"
       id="rect365"
       width="92.548531"
       height="57.027534"
       x="74.539291"
       y="57.062504" />
    <g
       id="g8132">
      <path
         style="fill:none;stroke:#000000;stroke-width:0.233892;stroke-linecap:square;stroke-linejoin:miter;stroke-miterlimit:5;stroke-opacity:1"
         d="M 84.428495,108.20108 H 166.131 V 57.694605 H 84.428495 Z m 0,0"
         id="path754" />
      <path
         style="fill:#000000;fill-opacity:1;fill-rule:nonzero;stroke:none;stroke-width:0.352778"
         d="m 84.785407,87.745481 -0.04823,0.179147 -0.130913,0.130912 -0.177768,0.04685 -0.177765,-0.04685 -0.130916,-0.130912 -0.04823,-0.179147 0.04823,-0.177765 0.130916,-0.130916 0.177765,-0.04823 0.177768,0.04823 0.130913,0.130916 0.04823,0.177765"
         id="path756" />
      <path
         style="fill:#000000;fill-opacity:1;fill-rule:nonzero;stroke:none;stroke-width:0.352778"
         d="m 87.121184,84.464372 -0.04686,0.179144 -0.130912,0.130916 -0.179144,0.04685 -0.177768,-0.04685 -0.130913,-0.130916 -0.04823,-0.179144 0.04823,-0.177765 0.130913,-0.130915 0.177768,-0.04685 0.179144,0.04685 0.130912,0.130915 0.04686,0.177765"
         id="path758" />
      <path
         style="fill:#000000;fill-opacity:1;fill-rule:nonzero;stroke:none;stroke-width:0.352778"
         d="m 90.621399,79.919603 -0.04823,0.177768 -0.130913,0.130913 -0.177768,0.04823 -0.179144,-0.04823 -0.129537,-0.130913 -0.04823,-0.177768 0.04823,-0.179144 0.129537,-0.129536 0.179144,-0.04961 0.177768,0.04961 0.130913,0.129536 0.04823,0.179144"
         id="path760" />
      <path
         style="fill:#000000;fill-opacity:1;fill-rule:nonzero;stroke:none;stroke-width:0.352778"
         d="m 92.957173,77.138723 -0.04823,0.179144 -0.130915,0.130912 -0.177765,0.04686 -0.177768,-0.04686 -0.130913,-0.130912 -0.04823,-0.179144 0.04823,-0.177768 0.130913,-0.130913 0.177768,-0.04823 0.177765,0.04823 0.130915,0.130913 0.04823,0.177768"
         id="path762" />
      <path
         style="fill:#000000;fill-opacity:1;fill-rule:nonzero;stroke:none;stroke-width:0.352778"
         d="m 96.456012,74.614157 -0.04685,0.179144 -0.130913,0.129537 -0.179147,0.04823 -0.177765,-0.04823 -0.130916,-0.129537 -0.04685,-0.179144 0.04685,-0.177768 0.130916,-0.130912 0.177765,-0.04823 0.179147,0.04823 0.130913,0.130912 0.04685,0.177768"
         id="path764" />
      <path
         style="fill:#000000;fill-opacity:1;fill-rule:nonzero;stroke:none;stroke-width:0.352778"
         d="m 108.128,66.536096 -0.0482,0.177767 -0.12953,0.130914 -0.17915,0.04685 -0.17776,-0.04685 -0.13092,-0.130914 -0.0482,-0.177767 0.0482,-0.179144 0.13092,-0.130914 0.17776,-0.04685 0.17915,0.04685 0.12953,0.130914 0.0482,0.179144"
         id="path766" />
      <path
         style="fill:#000000;fill-opacity:1;fill-rule:nonzero;stroke:none;stroke-width:0.352778"
         d="m 119.80274,61.737768 -0.0482,0.177767 -0.13091,0.130913 -0.17777,0.04823 -0.17914,-0.04823 -0.12954,-0.130913 -0.0482,-0.177767 0.0482,-0.179145 0.12954,-0.129536 0.17914,-0.04823 0.17777,0.04823 0.13091,0.129536 0.0482,0.179145"
         id="path768" />
      <path
         style="fill:#000000;fill-opacity:1;fill-rule:nonzero;stroke:none;stroke-width:0.352778"
         d="m 125.63735,60.726288 -0.0468,0.179144 -0.13092,0.130914 -0.17914,0.04685 -0.17777,-0.04685 -0.13091,-0.130914 -0.0482,-0.179144 0.0482,-0.177767 0.13091,-0.130914 0.17777,-0.04823 0.17914,0.04823 0.13092,0.130914 0.0468,0.177767"
         id="path770" />
      <path
         style="fill:#000000;fill-opacity:1;fill-rule:nonzero;stroke:none;stroke-width:0.352778"
         d="m 131.47334,60.220547 -0.0469,0.177767 -0.13091,0.130914 -0.17915,0.04823 -0.17777,-0.04823 -0.13091,-0.130914 -0.0482,-0.177767 0.0482,-0.179144 0.13091,-0.130914 0.17777,-0.04685 0.17915,0.04685 0.13091,0.130914 0.0469,0.179144"
         id="path772" />
      <path
         style="fill:#000000;fill-opacity:1;fill-rule:nonzero;stroke:none;stroke-width:0.352778"
         d="m 143.14395,60.978469 -0.0469,0.179144 -0.13091,0.130914 -0.17777,0.04685 -0.17914,-0.04685 -0.12954,-0.130914 -0.0482,-0.179144 0.0482,-0.177767 0.12954,-0.130914 0.17914,-0.04823 0.17777,0.04823 0.13091,0.130914 0.0469,0.177767"
         id="path774" />
      <path
         style="fill:#000000;fill-opacity:1;fill-rule:nonzero;stroke:none;stroke-width:0.352778"
         d="m 154.81593,63.503035 -0.0469,0.179144 -0.13229,0.130914 -0.17777,0.04685 -0.17777,-0.04685 -0.13091,-0.130914 -0.0482,-0.179144 0.0482,-0.177767 0.13091,-0.130914 0.17777,-0.04685 0.17777,0.04685 0.13229,0.130914 0.0469,0.177767"
         id="path776" />
      <path
         style="fill:#000000;fill-opacity:1;fill-rule:nonzero;stroke:none;stroke-width:0.352778"
         d="m 166.48653,68.301363 -0.0468,0.179145 -0.13091,0.130914 -0.17777,0.04685 -0.17914,-0.04685 -0.12954,-0.130914 -0.0482,-0.179145 0.0482,-0.177767 0.12954,-0.130913 0.17914,-0.04823 0.17777,0.04823 0.13091,0.130913 0.0468,0.177767"
         id="path778" />
      <path
         style="fill:none;stroke:#000000;stroke-width:0.105833;stroke-linecap:butt;stroke-linejoin:miter;stroke-miterlimit:5;stroke-opacity:1"
         d="m 84.428495,86.206213 0.934311,-0.964625 0.467155,-0.480935 0.467155,-0.476803 0.465777,-0.472666 0.438217,-0.438217 0.438217,-0.434083 0.436837,-0.428568 0.438214,-0.424438 0.438217,-0.420299 0.436837,-0.416169 0.438217,-0.412033 0.436838,-0.409276 0.467155,-0.431327 0.467156,-0.427193 0.467155,-0.423058 0.465776,-0.418923 0.467156,-0.41341 0.438217,-0.384475 0.436837,-0.380337 0.438217,-0.376205 0.438214,-0.372068 0.438217,-0.367937 0.436837,-0.363802 0.438217,-0.361047 0.436838,-0.355533 0.416169,-0.336243 0.417544,-0.332105 0.417548,-0.327974 0.416164,-0.325218 0.417548,-0.321081 0.416165,-0.318329 0.416168,-0.314191 0.417548,-0.31006 0.417544,-0.307301 0.416173,-0.304546 0.41754,-0.299036 0.41617,-0.296277 0.41754,-0.293521 0.41617,-0.289391 0.41755,-0.285253 0.41616,-0.282497 0.41755,-0.278363 0.41617,-0.274232 0.41754,-0.271473 0.41617,-0.268717 0.41755,-0.263204 0.41616,-0.260449 0.41617,-0.257694 0.41755,-0.253559 0.41616,-0.249424 0.41755,-0.24667 0.41617,-0.242534 0.41754,-0.2384 0.41617,-0.237025 0.41755,-0.23151 0.41616,-0.227376 0.41755,-0.225997 0.41754,-0.220486 0.41617,-0.217731 0.41755,-0.214975 0.41616,-0.209462 0.41617,-0.206703 0.41755,-0.203952 0.41616,-0.199816 0.41755,-0.195679 0.41617,-0.192927 0.41755,-0.188789 0.41616,-0.184658 0.41755,-0.183279 0.41617,-0.177768 0.41754,-0.17501 0.41617,-0.170878 0.41754,-0.166741 0.41617,-0.163988 0.41755,-0.16123 0.41616,-0.15572 0.41755,-0.152961 0.41617,-0.150206 0.41754,-0.146071 0.41617,-0.143316 0.41755,-0.137805 0.44786,-0.146072 0.44924,-0.141936 0.44924,-0.136426 0.44924,-0.132292 0.44786,-0.129537 0.44924,-0.124022 0.44924,-0.121267 0.44924,-0.117133 0.44924,-0.111623 0.44787,-0.107487 0.44924,-0.10473 0.44924,-0.100598 0.44924,-0.09646 0.44786,-0.09095 0.44924,-0.08681 0.44924,-0.08406 0.44924,-0.07993 0.44786,-0.07441 0.44925,-0.07166 0.44923,-0.06615 0.44924,-0.06201 0.44787,-0.05926 0.44924,-0.05374 0.44924,-0.04961 0.44924,-0.04547 0.44786,-0.04272 0.41755,-0.03447 0.41616,-0.0303 0.41755,-0.02755 0.41617,-0.02342 0.41754,-0.02067 0.41617,-0.01655 0.41754,-0.01242 0.41617,-0.0096 0.41755,-0.0055 0.41617,-0.0028 0.41754,0.0014 0.41617,0.0055 0.41755,0.0083 0.41616,0.01242 0.41755,0.01517 0.41617,0.01792 0.41754,0.02343 0.41617,0.0248 0.41754,0.0303 0.41617,0.03168 0.41755,0.0372 0.41616,0.03859 0.41755,0.04272 0.41617,0.04686 0.41755,0.04961 0.41616,0.05237 0.41755,0.0565 0.41616,0.05926 0.41755,0.06339 0.41617,0.06615 0.41754,0.07028 0.41617,0.07304 0.41755,0.07717 0.41616,0.07992 0.41755,0.08406 0.41617,0.08682 0.41754,0.09233 0.41617,0.0937 0.41754,0.09922 0.41617,0.101974 0.41755,0.106112 0.41616,0.110243 0.41755,0.114374 0.41617,0.117136 0.41755,0.122644 0.41616,0.125402 0.41755,0.130912 0.41617,0.133671 0.41754,0.139181 0.41617,0.14194 0.41617,0.147447 0.41754,0.151586 0.41755,0.155719 0.41616,0.159851 0.41755,0.163989 0.41617,0.169499 0.41754,0.17363 0.41617,0.177768 0.41617,0.181899 0.41754,0.187414 0.41617,0.190171 0.41755,0.192924 0.41616,0.197062 0.41755,0.201192 0.41617,0.203948 0.41754,0.206707 0.41617,0.210841 0.41755,0.212217 0.41616,0.214972 0.41755,0.219111 0.41617,0.219106 0.41754,0.223242 0.41617,0.223244 0.41754,0.225997 0.41617,0.227376 0.41755,0.230134 0.41617,0.228752 0.41754,0.23289 0.41617,0.23151 0.41755,0.23289 0.83371,0.468531 0.83371,0.469911"
         id="path780" />
      <path
         style="fill:none;stroke:#000000;stroke-width:0.233892;stroke-linecap:butt;stroke-linejoin:miter;stroke-miterlimit:5;stroke-opacity:1"
         d="m 84.428495,108.20108 v -1.17271"
         id="path782" />
      <path
         style="fill:none;stroke:#000000;stroke-width:0.105833;stroke-linecap:butt;stroke-linejoin:miter;stroke-miterlimit:5;stroke-opacity:1"
         d="m 86.764272,108.20108 v -0.70417 m 2.333018,0.70417 v -0.70417 m 2.333018,0.70417 v -0.70417 m 2.335774,0.70417 v -0.70417"
         id="path784" />
      <path
         style="fill:none;stroke:#000000;stroke-width:0.233892;stroke-linecap:butt;stroke-linejoin:miter;stroke-miterlimit:5;stroke-opacity:1"
         d="m 96.0991,108.20108 v -1.17271"
         id="path786" />
      <path
         style="fill:none;stroke:#000000;stroke-width:0.105833;stroke-linecap:butt;stroke-linejoin:miter;stroke-miterlimit:5;stroke-opacity:1"
         d="m 98.436252,108.20108 v -0.70417 m 2.333018,0.70417 v -0.70417 m 2.33578,0.70417 v -0.70417 m 2.33302,0.70417 v -0.70417"
         id="path788" />
      <path
         style="fill:none;stroke:#000000;stroke-width:0.233892;stroke-linecap:butt;stroke-linejoin:miter;stroke-miterlimit:5;stroke-opacity:1"
         d="m 107.77108,108.20108 v -1.17271"
         id="path790" />
      <path
         style="fill:none;stroke:#000000;stroke-width:0.105833;stroke-linecap:butt;stroke-linejoin:miter;stroke-miterlimit:5;stroke-opacity:1"
         d="m 110.10686,108.20108 v -0.70417 m 2.33302,0.70417 v -0.70417 m 2.33715,0.70417 v -0.70417 m 2.33302,0.70417 v -0.70417"
         id="path792" />
      <path
         style="fill:none;stroke:#000000;stroke-width:0.233892;stroke-linecap:butt;stroke-linejoin:miter;stroke-miterlimit:5;stroke-opacity:1"
         d="m 119.44582,108.20108 v -1.17271"
         id="path794" />
      <path
         style="fill:none;stroke:#000000;stroke-width:0.105833;stroke-linecap:butt;stroke-linejoin:miter;stroke-miterlimit:5;stroke-opacity:1"
         d="m 121.77884,108.20108 v -0.70417 m 2.33302,0.70417 v -0.70417 m 2.33578,0.70417 v -0.70417 m 2.33301,0.70417 v -0.70417"
         id="path796" />
      <path
         style="fill:none;stroke:#000000;stroke-width:0.233892;stroke-linecap:butt;stroke-linejoin:miter;stroke-miterlimit:5;stroke-opacity:1"
         d="m 131.11643,108.20108 v -1.17271"
         id="path798" />
      <path
         style="fill:none;stroke:#000000;stroke-width:0.105833;stroke-linecap:butt;stroke-linejoin:miter;stroke-miterlimit:5;stroke-opacity:1"
         d="m 133.44945,108.20108 v -0.70417 m 2.33577,0.70417 v -0.70417 m 2.33302,0.70417 v -0.70417 m 2.33302,0.70417 v -0.70417"
         id="path800" />
      <path
         style="fill:none;stroke:#000000;stroke-width:0.233892;stroke-linecap:butt;stroke-linejoin:miter;stroke-miterlimit:5;stroke-opacity:1"
         d="m 142.78841,108.20108 v -1.17271"
         id="path802" />
      <path
         style="fill:none;stroke:#000000;stroke-width:0.105833;stroke-linecap:butt;stroke-linejoin:miter;stroke-miterlimit:5;stroke-opacity:1"
         d="m 145.12143,108.20108 v -0.70417 m 2.33578,0.70417 v -0.70417 m 2.33302,0.70417 v -0.70417 m 2.33301,0.70417 v -0.70417"
         id="path804" />
      <path
         style="fill:none;stroke:#000000;stroke-width:0.233892;stroke-linecap:butt;stroke-linejoin:miter;stroke-miterlimit:5;stroke-opacity:1"
         d="m 154.45902,108.20108 v -1.17271"
         id="path806" />
      <path
         style="fill:none;stroke:#000000;stroke-width:0.105833;stroke-linecap:butt;stroke-linejoin:miter;stroke-miterlimit:5;stroke-opacity:1"
         d="m 156.79204,108.20108 v -0.70417 m 2.33577,0.70417 v -0.70417 m 2.33302,0.70417 v -0.70417 m 2.33577,0.70417 v -0.70417"
         id="path808" />
      <path
         style="fill:none;stroke:#000000;stroke-width:0.233892;stroke-linecap:butt;stroke-linejoin:miter;stroke-miterlimit:5;stroke-opacity:1"
         d="m 166.131,108.20108 v -1.17271"
         id="path810" />
      <path
         style="fill:none;stroke:#000000;stroke-width:0.233892;stroke-linecap:square;stroke-linejoin:miter;stroke-miterlimit:5;stroke-opacity:1"
         d="M 84.428495,108.20108 H 166.131"
         id="path812" />
      <g
         style="fill:#000000;fill-opacity:1"
         id="g816"
         transform="matrix(0.35277777,0,0,0.35277777,36.430049,34.598684)">
        <g
           id="use814"
           transform="translate(249.6936,226.073)">
          <path
             style="stroke:none"
             d="m 0.421875,-1.375 c 0,0.953125 0.359375,1.46875 1.03125,1.46875 0.640625,0 1.234375,-0.46875 1.734375,-1.40625 0.5,-0.875 0.828125,-2.09375 0.828125,-2.984375 0,-0.921875 -0.390625,-1.4375 -1.046875,-1.4375 -0.609375,0 -1.15625,0.40625 -1.65625,1.21875 C 0.84375,-3.75 0.53125,-2.796875 0.453125,-1.953125 0.4375,-1.796875 0.421875,-1.46875 0.421875,-1.375 Z m 0.9375,-1.609375 c 0.171875,-0.671875 0.390625,-1.296875 0.59375,-1.75 0.28125,-0.578125 0.5625,-0.84375 0.90625,-0.84375 0.375,0 0.609375,0.34375 0.609375,0.890625 0,0.28125 -0.046875,0.59375 -0.15625,1.0625 -0.0625,0.25 -0.109375,0.421875 -0.171875,0.640625 z M 1.3125,-2.84375 h 1.796875 l -0.03125,0.09375 -0.296875,1 c -0.125,0.328125 -0.234375,0.640625 -0.359375,0.921875 -0.234375,0.46875 -0.5625,0.765625 -0.875,0.765625 -0.34375,0 -0.609375,-0.375 -0.609375,-0.890625 0,-0.328125 0.09375,-0.890625 0.203125,-1.265625 l 0.15625,-0.546875 z m 0,0"
             id="path7862" />
        </g>
      </g>
      <path
         style="fill:none;stroke:#000000;stroke-width:0.233892;stroke-linecap:butt;stroke-linejoin:miter;stroke-miterlimit:5;stroke-opacity:1"
         d="m 84.428495,108.20108 h 1.175466"
         id="path818" />
      <path
         style="fill:none;stroke:#000000;stroke-width:0.105833;stroke-linecap:butt;stroke-linejoin:miter;stroke-miterlimit:5;stroke-opacity:1"
         d="m 84.428495,105.67514 h 0.70418 m -0.70418,-2.52457 h 0.70418 m -0.70418,-2.52457 h 0.70418 m -0.70418,-2.524561 h 0.70418"
         id="path820" />
      <path
         style="fill:none;stroke:#000000;stroke-width:0.233892;stroke-linecap:butt;stroke-linejoin:miter;stroke-miterlimit:5;stroke-opacity:1"
         d="m 84.428495,95.575497 h 1.175466"
         id="path822" />
      <path
         style="fill:none;stroke:#000000;stroke-width:0.105833;stroke-linecap:butt;stroke-linejoin:miter;stroke-miterlimit:5;stroke-opacity:1"
         d="m 84.428495,93.050931 h 0.70418 m -0.70418,-2.525945 h 0.70418 m -0.70418,-2.523187 h 0.70418 m -0.70418,-2.5287 h 0.70418"
         id="path824" />
      <path
         style="fill:none;stroke:#000000;stroke-width:0.233892;stroke-linecap:butt;stroke-linejoin:miter;stroke-miterlimit:5;stroke-opacity:1"
         d="m 84.428495,82.947153 h 1.175466"
         id="path826" />
      <path
         style="fill:none;stroke:#000000;stroke-width:0.105833;stroke-linecap:butt;stroke-linejoin:miter;stroke-miterlimit:5;stroke-opacity:1"
         d="m 84.428495,80.422588 h 0.70418 m -0.70418,-2.524566 h 0.70418 m -0.70418,-2.525946 h 0.70418 m -0.70418,-2.524566 h 0.70418"
         id="path828" />
      <path
         style="fill:none;stroke:#000000;stroke-width:0.233892;stroke-linecap:butt;stroke-linejoin:miter;stroke-miterlimit:5;stroke-opacity:1"
         d="m 84.428495,70.322944 h 1.175466"
         id="path830" />
      <path
         style="fill:none;stroke:#000000;stroke-width:0.105833;stroke-linecap:butt;stroke-linejoin:miter;stroke-miterlimit:5;stroke-opacity:1"
         d="m 84.428495,67.798379 h 0.70418 m -0.70418,-2.525942 h 0.70418 m -0.70418,-2.527321 h 0.70418 m -0.70418,-2.524566 h 0.70418"
         id="path832" />
      <path
         style="fill:none;stroke:#000000;stroke-width:0.233892;stroke-linecap:butt;stroke-linejoin:miter;stroke-miterlimit:5;stroke-opacity:1"
         d="m 84.428495,57.694605 h 1.175466"
         id="path834" />
      <path
         style="fill:none;stroke:#000000;stroke-width:0.233892;stroke-linecap:square;stroke-linejoin:miter;stroke-miterlimit:5;stroke-opacity:1"
         d="M 84.428495,108.20108 V 57.694605"
         id="path836" />
      <g
         style="fill:#000000;fill-opacity:1"
         id="g840"
         transform="matrix(0.35277777,0,0,0.35277777,36.430049,34.598684)">
        <g
           id="use838"
           transform="translate(106.9549,138.0833)">
          <path
             style="stroke:none"
             d="m 3.796875,-3.53125 -0.625,0.09375 -0.09375,0.34375 c -0.453125,1.625 -1.53125,2.71875 -1.9375,2.71875 -0.09375,0 -0.171875,-0.0625 -0.171875,-0.171875 0,-0.234375 0.140625,-0.609375 0.265625,-1.046875 0.375,-1.296875 0.40625,-1.4375 0.40625,-1.609375 0,-0.203125 -0.125,-0.328125 -0.34375,-0.328125 -0.40625,0 -0.859375,0.5 -1.0625,0.828125 l 0.125,0.09375 c 0.125,-0.15625 0.328125,-0.484375 0.53125,-0.484375 0.078125,0 0.09375,0.0625 0.09375,0.125 0,0.203125 -0.078125,0.40625 -0.421875,1.625 -0.078125,0.28125 -0.203125,0.703125 -0.203125,0.96875 0,0.265625 0.15625,0.46875 0.4375,0.46875 0.765625,0 1.578125,-1.328125 1.90625,-1.890625 L 2.71875,-1.78125 c -0.265625,0.8125 -0.390625,1.25 -0.390625,1.5625 0,0.203125 0.140625,0.3125 0.328125,0.3125 0.421875,0 0.84375,-0.546875 1.046875,-0.875 l -0.125,-0.078125 C 3.3125,-0.484375 3.1875,-0.34375 3.03125,-0.34375 c -0.09375,0 -0.109375,-0.0625 -0.109375,-0.125 0,-0.125 0.140625,-0.578125 0.1875,-0.734375 z m 0,0"
             id="path7858" />
        </g>
      </g>
      <g
         style="fill:#000000;fill-opacity:1"
         id="g844"
         transform="matrix(0.35277777,0,0,0.35277777,36.430049,34.598684)">
        <g
           id="use842"
           transform="translate(110.9548,140.0833)">
          <path
             style="stroke:none"
             d="m 2.84375,-2.65625 -0.453125,0.078125 -0.09375,0.359375 c -0.078125,-0.296875 -0.25,-0.4375 -0.484375,-0.4375 -0.75,0 -1.6875,1.109375 -1.6875,1.96875 0,0.328125 0.171875,0.765625 0.546875,0.765625 0.515625,0 0.96875,-0.59375 1.203125,-0.953125 H 1.890625 L 1.4375,0.6875 C 1.3125,1.09375 1.21875,1.171875 0.828125,1.171875 L 0.796875,1.28125 h 1.375 l 0.03125,-0.109375 c -0.125,0 -0.390625,0 -0.390625,-0.203125 0,-0.09375 0.0625,-0.265625 0.09375,-0.359375 z m -1.90625,2.375 c -0.234375,0 -0.3125,-0.265625 -0.3125,-0.453125 0,-0.640625 0.609375,-1.78125 1.171875,-1.78125 0.21875,0 0.375,0.203125 0.375,0.421875 0,0.78125 -0.796875,1.8125 -1.234375,1.8125 z m 0,0"
             id="path7854" />
        </g>
      </g>
      <g
         style="fill:#000000;fill-opacity:1"
         id="g848"
         transform="matrix(0.35277777,0,0,0.35277777,36.430049,34.598684)">
        <g
           id="use846"
           transform="translate(133.86749,217.3815)">
          <path
             style="stroke:none"
             d="m 2,-5.40625 c -0.75,0 -1.71875,0.84375 -1.71875,2.765625 0,1.90625 0.96875,2.75 1.71875,2.75 0.75,0 1.71875,-0.84375 1.71875,-2.75 C 3.71875,-4.5625 2.75,-5.40625 2,-5.40625 Z m 0,0.234375 c 0.859375,0 0.9375,1.65625 0.9375,2.265625 C 2.9375,-1.125 2.625,-0.125 2,-0.125 1.171875,-0.125 1.0625,-1.78125 1.0625,-2.390625 1.0625,-4.1875 1.375,-5.171875 2,-5.171875 Z m 0,0"
             id="path7790" />
        </g>
      </g>
      <g
         style="fill:#000000;fill-opacity:1"
         id="g852"
         transform="matrix(0.35277777,0,0,0.35277777,36.430049,34.598684)">
        <g
           id="use850"
           transform="translate(165.1747,217.3815)">
          <path
             style="stroke:none"
             d="m 0.9375,-4.78125 0.046875,0.125 C 1.125,-4.71875 1.25,-4.78125 1.40625,-4.78125 c 0.234375,0 0.3125,0.203125 0.3125,0.75 v 3.1875 c 0,0.609375 -0.078125,0.6875 -0.6875,0.703125 V 0 h 2 v -0.140625 c -0.671875,0 -0.671875,-0.265625 -0.671875,-0.90625 V -5.40625 H 2.21875 Z m 0,0"
             id="path7786" />
        </g>
      </g>
      <g
         style="fill:#000000;fill-opacity:1"
         id="g858"
         transform="matrix(0.35277777,0,0,0.35277777,36.430049,34.598684)">
        <g
           id="use854"
           transform="translate(169.1747,217.3815)">
          <path
             style="stroke:none"
             d="m 2,-5.40625 c -0.75,0 -1.71875,0.84375 -1.71875,2.765625 0,1.90625 0.96875,2.75 1.71875,2.75 0.75,0 1.71875,-0.84375 1.71875,-2.75 C 3.71875,-4.5625 2.75,-5.40625 2,-5.40625 Z m 0,0.234375 c 0.859375,0 0.9375,1.65625 0.9375,2.265625 C 2.9375,-1.125 2.625,-0.125 2,-0.125 1.171875,-0.125 1.0625,-1.78125 1.0625,-2.390625 1.0625,-4.1875 1.375,-5.171875 2,-5.171875 Z m 0,0"
             id="path7794" />
        </g>
        <g
           id="use856"
           transform="translate(198.2267,217.3815)">
          <path
             style="stroke:none"
             d="M 3.65625,-1.015625 H 3.515625 C 3.3125,-0.59375 2.765625,-0.59375 2.65625,-0.59375 H 1.015625 l 1.171875,-1.25 c 0.53125,-0.5625 1.15625,-1.359375 1.15625,-2.171875 0,-0.8125 -0.734375,-1.390625 -1.5,-1.390625 -0.921875,0 -1.390625,0.65625 -1.515625,1.5 H 0.46875 c 0.140625,-0.546875 0.625,-0.90625 1.171875,-0.90625 0.625,0 1.015625,0.53125 1.015625,1.15625 0,0.859375 -0.453125,1.515625 -2.484375,3.515625 V 0 h 3.125 z m 0,0"
             id="path7782" />
        </g>
      </g>
      <g
         style="fill:#000000;fill-opacity:1"
         id="g864"
         transform="matrix(0.35277777,0,0,0.35277777,36.430049,34.598684)">
        <g
           id="use860"
           transform="translate(202.2267,217.3815)">
          <path
             style="stroke:none"
             d="m 2,-5.40625 c -0.75,0 -1.71875,0.84375 -1.71875,2.765625 0,1.90625 0.96875,2.75 1.71875,2.75 0.75,0 1.71875,-0.84375 1.71875,-2.75 C 3.71875,-4.5625 2.75,-5.40625 2,-5.40625 Z m 0,0.234375 c 0.859375,0 0.9375,1.65625 0.9375,2.265625 C 2.9375,-1.125 2.625,-0.125 2,-0.125 1.171875,-0.125 1.0625,-1.78125 1.0625,-2.390625 1.0625,-4.1875 1.375,-5.171875 2,-5.171875 Z m 0,0"
             id="path7798" />
        </g>
        <g
           id="use862"
           transform="translate(231.2787,217.3815)">
          <path
             style="stroke:none"
             d="M 1.21875,-2.625 C 2.75,-2.625 2.75,-1.40625 2.75,-1.328125 2.75,-0.78125 2.359375,-0.25 1.78125,-0.25 c -0.5625,0 -0.734375,-0.359375 -1.140625,-0.359375 -0.171875,0 -0.328125,0.125 -0.328125,0.296875 0,0.375 0.640625,0.421875 0.90625,0.421875 1.5,0 2.125,-0.96875 2.125,-1.84375 0,-0.6875 -0.375,-1.15625 -1,-1.40625 C 2.6875,-3.40625 3.078125,-3.875 3.078125,-4.3125 c 0,-0.34375 -0.28125,-1.09375 -1.25,-1.09375 -0.71875,0 -1.1875,0.484375 -1.421875,1.125 l 0.125,0.0625 c 0.203125,-0.359375 0.578125,-0.65625 1,-0.65625 0.546875,0 0.890625,0.375 0.890625,0.90625 0,0.703125 -0.5625,1.125 -1.203125,1.21875 z m 0,0"
             id="path7778" />
        </g>
      </g>
      <g
         style="fill:#000000;fill-opacity:1"
         id="g870"
         transform="matrix(0.35277777,0,0,0.35277777,36.430049,34.598684)">
        <g
           id="use866"
           transform="translate(235.2787,217.3815)">
          <path
             style="stroke:none"
             d="m 2,-5.40625 c -0.75,0 -1.71875,0.84375 -1.71875,2.765625 0,1.90625 0.96875,2.75 1.71875,2.75 0.75,0 1.71875,-0.84375 1.71875,-2.75 C 3.71875,-4.5625 2.75,-5.40625 2,-5.40625 Z m 0,0.234375 c 0.859375,0 0.9375,1.65625 0.9375,2.265625 C 2.9375,-1.125 2.625,-0.125 2,-0.125 1.171875,-0.125 1.0625,-1.78125 1.0625,-2.390625 1.0625,-4.1875 1.375,-5.171875 2,-5.171875 Z m 0,0"
             id="path7802" />
        </g>
        <g
           id="use868"
           transform="translate(264.33069,217.3815)">
          <path
             style="stroke:none"
             d="M 3.71875,-1.953125 H 3.015625 V -5.40625 h -0.4375 L 0.125,-1.890625 v 0.5 H 2.359375 V 0 h 0.65625 V -1.390625 H 3.71875 Z m -1.359375,0 H 0.5 L 2.34375,-4.5625 h 0.015625 z m 0,0"
             id="path7766" />
        </g>
      </g>
      <g
         style="fill:#000000;fill-opacity:1"
         id="g876"
         transform="matrix(0.35277777,0,0,0.35277777,36.430049,34.598684)">
        <g
           id="use872"
           transform="translate(268.33069,217.3815)">
          <path
             style="stroke:none"
             d="m 2,-5.40625 c -0.75,0 -1.71875,0.84375 -1.71875,2.765625 0,1.90625 0.96875,2.75 1.71875,2.75 0.75,0 1.71875,-0.84375 1.71875,-2.75 C 3.71875,-4.5625 2.75,-5.40625 2,-5.40625 Z m 0,0.234375 c 0.859375,0 0.9375,1.65625 0.9375,2.265625 C 2.9375,-1.125 2.625,-0.125 2,-0.125 1.171875,-0.125 1.0625,-1.78125 1.0625,-2.390625 1.0625,-4.1875 1.375,-5.171875 2,-5.171875 Z m 0,0"
             id="path7806" />
        </g>
        <g
           id="use874"
           transform="translate(297.38269,217.3815)">
          <path
             style="stroke:none"
             d="M 3.46875,-5.296875 H 1.578125 l -1.015625,2.0625 c 1.390625,0 2.3125,0.75 2.3125,1.75 0,0.640625 -0.515625,1.1875 -1.15625,1.1875 -0.515625,0 -0.65625,-0.40625 -1.015625,-0.40625 -0.171875,0 -0.3125,0.125 -0.3125,0.28125 0,0.421875 0.578125,0.53125 0.890625,0.53125 1.09375,0 2.109375,-0.875 2.109375,-2 0,-1.1875 -1.09375,-1.90625 -2.171875,-2.03125 l 0.375,-0.734375 H 3.1875 Z m 0,0"
             id="path7746" />
        </g>
      </g>
      <g
         style="fill:#000000;fill-opacity:1"
         id="g882"
         transform="matrix(0.35277777,0,0,0.35277777,36.430049,34.598684)">
        <g
           id="use878"
           transform="translate(301.38269,217.3815)">
          <path
             style="stroke:none"
             d="m 2,-5.40625 c -0.75,0 -1.71875,0.84375 -1.71875,2.765625 0,1.90625 0.96875,2.75 1.71875,2.75 0.75,0 1.71875,-0.84375 1.71875,-2.75 C 3.71875,-4.5625 2.75,-5.40625 2,-5.40625 Z m 0,0.234375 c 0.859375,0 0.9375,1.65625 0.9375,2.265625 C 2.9375,-1.125 2.625,-0.125 2,-0.125 1.171875,-0.125 1.0625,-1.78125 1.0625,-2.390625 1.0625,-4.1875 1.375,-5.171875 2,-5.171875 Z m 0,0"
             id="path7810" />
        </g>
        <g
           id="use880"
           transform="translate(330.43469,217.3815)">
          <path
             style="stroke:none"
             d="m 3.578125,-5.40625 h -0.15625 c -1.671875,0 -3.078125,1.625 -3.078125,3.3125 0,0.96875 0.53125,2.203125 1.6875,2.203125 1,0 1.65625,-0.953125 1.65625,-1.875 0,-0.78125 -0.484375,-1.578125 -1.34375,-1.578125 -0.40625,0 -0.796875,0.15625 -1.125,0.390625 0.265625,-1.125 1.125,-2.265625 2.359375,-2.3125 z M 2.984375,-1.375 c 0,0.546875 -0.21875,1.25 -0.890625,1.25 -0.734375,0 -1,-1.15625 -1,-1.734375 0,-0.34375 0.03125,-0.546875 0.078125,-0.8125 0.25,-0.171875 0.53125,-0.34375 0.796875,-0.34375 0.78125,0 1.015625,1.03125 1.015625,1.640625 z m 0,0"
             id="path7738" />
        </g>
      </g>
      <g
         style="fill:#000000;fill-opacity:1"
         id="g888"
         transform="matrix(0.35277777,0,0,0.35277777,36.430049,34.598684)">
        <g
           id="use884"
           transform="translate(334.43469,217.3815)">
          <path
             style="stroke:none"
             d="m 2,-5.40625 c -0.75,0 -1.71875,0.84375 -1.71875,2.765625 0,1.90625 0.96875,2.75 1.71875,2.75 0.75,0 1.71875,-0.84375 1.71875,-2.75 C 3.71875,-4.5625 2.75,-5.40625 2,-5.40625 Z m 0,0.234375 c 0.859375,0 0.9375,1.65625 0.9375,2.265625 C 2.9375,-1.125 2.625,-0.125 2,-0.125 1.171875,-0.125 1.0625,-1.78125 1.0625,-2.390625 1.0625,-4.1875 1.375,-5.171875 2,-5.171875 Z m 0,0"
             id="path7814" />
        </g>
        <g
           id="use886"
           transform="translate(363.48669,217.3815)">
          <path
             style="stroke:none"
             d="m 0.796875,-5.296875 -0.5,1.25 L 0.40625,-4 C 0.703125,-4.5 0.984375,-4.65625 1.515625,-4.65625 H 3.03125 L 1.4375,0.109375 H 1.875 L 3.640625,-5.15625 v -0.140625 z m 0,0"
             id="path7734" />
        </g>
      </g>
      <g
         style="fill:#000000;fill-opacity:1"
         id="g892"
         transform="matrix(0.35277777,0,0,0.35277777,36.430049,34.598684)">
        <g
           id="use890"
           transform="translate(367.48669,217.3815)">
          <path
             style="stroke:none"
             d="m 2,-5.40625 c -0.75,0 -1.71875,0.84375 -1.71875,2.765625 0,1.90625 0.96875,2.75 1.71875,2.75 0.75,0 1.71875,-0.84375 1.71875,-2.75 C 3.71875,-4.5625 2.75,-5.40625 2,-5.40625 Z m 0,0.234375 c 0.859375,0 0.9375,1.65625 0.9375,2.265625 C 2.9375,-1.125 2.625,-0.125 2,-0.125 1.171875,-0.125 1.0625,-1.78125 1.0625,-2.390625 1.0625,-4.1875 1.375,-5.171875 2,-5.171875 Z m 0,0"
             id="path7818" />
        </g>
      </g>
      <g
         style="fill:#000000;fill-opacity:1"
         id="g902"
         transform="matrix(0.35277777,0,0,0.35277777,36.430049,34.598684)">
        <g
           id="use894"
           transform="translate(118.9003,211.4127)">
          <path
             style="stroke:none"
             d="m 2,-5.40625 c -0.75,0 -1.71875,0.84375 -1.71875,2.765625 0,1.90625 0.96875,2.75 1.71875,2.75 0.75,0 1.71875,-0.84375 1.71875,-2.75 C 3.71875,-4.5625 2.75,-5.40625 2,-5.40625 Z m 0,0.234375 c 0.859375,0 0.9375,1.65625 0.9375,2.265625 C 2.9375,-1.125 2.625,-0.125 2,-0.125 1.171875,-0.125 1.0625,-1.78125 1.0625,-2.390625 1.0625,-4.1875 1.375,-5.171875 2,-5.171875 Z m 0,0"
             id="path7822" />
        </g>
        <g
           id="use896"
           transform="translate(122.9003,211.4127)">
          <path
             style="stroke:none"
             d="m 1,0.109375 c 0.234375,0 0.4375,-0.1875 0.4375,-0.421875 0,-0.25 -0.203125,-0.4375 -0.4375,-0.4375 -0.234375,0 -0.4375,0.1875 -0.4375,0.4375 0,0.234375 0.203125,0.421875 0.4375,0.421875 z m 0,0"
             id="path7714" />
        </g>
        <g
           id="use898"
           transform="translate(124.9003,211.4127)">
          <path
             style="stroke:none"
             d="M 3.71875,-1.953125 H 3.015625 V -5.40625 h -0.4375 L 0.125,-1.890625 v 0.5 H 2.359375 V 0 h 0.65625 V -1.390625 H 3.71875 Z m -1.359375,0 H 0.5 L 2.34375,-4.5625 h 0.015625 z m 0,0"
             id="path7770" />
        </g>
        <g
           id="use900"
           transform="translate(128.9003,211.4127)">
          <path
             style="stroke:none"
             d="m 2,-5.40625 c -0.75,0 -1.71875,0.84375 -1.71875,2.765625 0,1.90625 0.96875,2.75 1.71875,2.75 0.75,0 1.71875,-0.84375 1.71875,-2.75 C 3.71875,-4.5625 2.75,-5.40625 2,-5.40625 Z m 0,0.234375 c 0.859375,0 0.9375,1.65625 0.9375,2.265625 C 2.9375,-1.125 2.625,-0.125 2,-0.125 1.171875,-0.125 1.0625,-1.78125 1.0625,-2.390625 1.0625,-4.1875 1.375,-5.171875 2,-5.171875 Z m 0,0"
             id="path7826" />
        </g>
      </g>
      <g
         style="fill:#000000;fill-opacity:1"
         id="g912"
         transform="matrix(0.35277777,0,0,0.35277777,36.430049,34.598684)">
        <g
           id="use904"
           transform="translate(118.9003,175.6255)">
          <path
             style="stroke:none"
             d="m 2,-5.40625 c -0.75,0 -1.71875,0.84375 -1.71875,2.765625 0,1.90625 0.96875,2.75 1.71875,2.75 0.75,0 1.71875,-0.84375 1.71875,-2.75 C 3.71875,-4.5625 2.75,-5.40625 2,-5.40625 Z m 0,0.234375 c 0.859375,0 0.9375,1.65625 0.9375,2.265625 C 2.9375,-1.125 2.625,-0.125 2,-0.125 1.171875,-0.125 1.0625,-1.78125 1.0625,-2.390625 1.0625,-4.1875 1.375,-5.171875 2,-5.171875 Z m 0,0"
             id="path7830" />
        </g>
        <g
           id="use906"
           transform="translate(122.9003,175.6255)">
          <path
             style="stroke:none"
             d="m 1,0.109375 c 0.234375,0 0.4375,-0.1875 0.4375,-0.421875 0,-0.25 -0.203125,-0.4375 -0.4375,-0.4375 -0.234375,0 -0.4375,0.1875 -0.4375,0.4375 0,0.234375 0.203125,0.421875 0.4375,0.421875 z m 0,0"
             id="path7718" />
        </g>
        <g
           id="use908"
           transform="translate(124.9003,175.6255)">
          <path
             style="stroke:none"
             d="M 3.71875,-1.953125 H 3.015625 V -5.40625 h -0.4375 L 0.125,-1.890625 v 0.5 H 2.359375 V 0 h 0.65625 V -1.390625 H 3.71875 Z m -1.359375,0 H 0.5 L 2.34375,-4.5625 h 0.015625 z m 0,0"
             id="path7774" />
        </g>
        <g
           id="use910"
           transform="translate(128.9003,175.6255)">
          <path
             style="stroke:none"
             d="M 3.46875,-5.296875 H 1.578125 l -1.015625,2.0625 c 1.390625,0 2.3125,0.75 2.3125,1.75 0,0.640625 -0.515625,1.1875 -1.15625,1.1875 -0.515625,0 -0.65625,-0.40625 -1.015625,-0.40625 -0.171875,0 -0.3125,0.125 -0.3125,0.28125 0,0.421875 0.578125,0.53125 0.890625,0.53125 1.09375,0 2.109375,-0.875 2.109375,-2 0,-1.1875 -1.09375,-1.90625 -2.171875,-2.03125 l 0.375,-0.734375 H 3.1875 Z m 0,0"
             id="path7750" />
        </g>
      </g>
      <g
         style="fill:#000000;fill-opacity:1"
         id="g922"
         transform="matrix(0.35277777,0,0,0.35277777,36.430049,34.598684)">
        <g
           id="use914"
           transform="translate(118.9003,139.8295)">
          <path
             style="stroke:none"
             d="m 2,-5.40625 c -0.75,0 -1.71875,0.84375 -1.71875,2.765625 0,1.90625 0.96875,2.75 1.71875,2.75 0.75,0 1.71875,-0.84375 1.71875,-2.75 C 3.71875,-4.5625 2.75,-5.40625 2,-5.40625 Z m 0,0.234375 c 0.859375,0 0.9375,1.65625 0.9375,2.265625 C 2.9375,-1.125 2.625,-0.125 2,-0.125 1.171875,-0.125 1.0625,-1.78125 1.0625,-2.390625 1.0625,-4.1875 1.375,-5.171875 2,-5.171875 Z m 0,0"
             id="path7834" />
        </g>
        <g
           id="use916"
           transform="translate(122.9003,139.8295)">
          <path
             style="stroke:none"
             d="m 1,0.109375 c 0.234375,0 0.4375,-0.1875 0.4375,-0.421875 0,-0.25 -0.203125,-0.4375 -0.4375,-0.4375 -0.234375,0 -0.4375,0.1875 -0.4375,0.4375 0,0.234375 0.203125,0.421875 0.4375,0.421875 z m 0,0"
             id="path7722" />
        </g>
        <g
           id="use918"
           transform="translate(124.9003,139.8295)">
          <path
             style="stroke:none"
             d="M 3.46875,-5.296875 H 1.578125 l -1.015625,2.0625 c 1.390625,0 2.3125,0.75 2.3125,1.75 0,0.640625 -0.515625,1.1875 -1.15625,1.1875 -0.515625,0 -0.65625,-0.40625 -1.015625,-0.40625 -0.171875,0 -0.3125,0.125 -0.3125,0.28125 0,0.421875 0.578125,0.53125 0.890625,0.53125 1.09375,0 2.109375,-0.875 2.109375,-2 0,-1.1875 -1.09375,-1.90625 -2.171875,-2.03125 l 0.375,-0.734375 H 3.1875 Z m 0,0"
             id="path7754" />
        </g>
        <g
           id="use920"
           transform="translate(128.9003,139.8295)">
          <path
             style="stroke:none"
             d="m 2,-5.40625 c -0.75,0 -1.71875,0.84375 -1.71875,2.765625 0,1.90625 0.96875,2.75 1.71875,2.75 0.75,0 1.71875,-0.84375 1.71875,-2.75 C 3.71875,-4.5625 2.75,-5.40625 2,-5.40625 Z m 0,0.234375 c 0.859375,0 0.9375,1.65625 0.9375,2.265625 C 2.9375,-1.125 2.625,-0.125 2,-0.125 1.171875,-0.125 1.0625,-1.78125 1.0625,-2.390625 1.0625,-4.1875 1.375,-5.171875 2,-5.171875 Z m 0,0"
             id="path7838" />
        </g>
      </g>
      <g
         style="fill:#000000;fill-opacity:1"
         id="g932"
         transform="matrix(0.35277777,0,0,0.35277777,36.430049,34.598684)">
        <g
           id="use924"
           transform="translate(118.9003,104.0415)">
          <path
             style="stroke:none"
             d="m 2,-5.40625 c -0.75,0 -1.71875,0.84375 -1.71875,2.765625 0,1.90625 0.96875,2.75 1.71875,2.75 0.75,0 1.71875,-0.84375 1.71875,-2.75 C 3.71875,-4.5625 2.75,-5.40625 2,-5.40625 Z m 0,0.234375 c 0.859375,0 0.9375,1.65625 0.9375,2.265625 C 2.9375,-1.125 2.625,-0.125 2,-0.125 1.171875,-0.125 1.0625,-1.78125 1.0625,-2.390625 1.0625,-4.1875 1.375,-5.171875 2,-5.171875 Z m 0,0"
             id="path7842" />
        </g>
        <g
           id="use926"
           transform="translate(122.9003,104.0415)">
          <path
             style="stroke:none"
             d="m 1,0.109375 c 0.234375,0 0.4375,-0.1875 0.4375,-0.421875 0,-0.25 -0.203125,-0.4375 -0.4375,-0.4375 -0.234375,0 -0.4375,0.1875 -0.4375,0.4375 0,0.234375 0.203125,0.421875 0.4375,0.421875 z m 0,0"
             id="path7726" />
        </g>
        <g
           id="use928"
           transform="translate(124.9003,104.0415)">
          <path
             style="stroke:none"
             d="M 3.46875,-5.296875 H 1.578125 l -1.015625,2.0625 c 1.390625,0 2.3125,0.75 2.3125,1.75 0,0.640625 -0.515625,1.1875 -1.15625,1.1875 -0.515625,0 -0.65625,-0.40625 -1.015625,-0.40625 -0.171875,0 -0.3125,0.125 -0.3125,0.28125 0,0.421875 0.578125,0.53125 0.890625,0.53125 1.09375,0 2.109375,-0.875 2.109375,-2 0,-1.1875 -1.09375,-1.90625 -2.171875,-2.03125 l 0.375,-0.734375 H 3.1875 Z m 0,0"
             id="path7758" />
        </g>
        <g
           id="use930"
           transform="translate(128.9003,104.0415)">
          <path
             style="stroke:none"
             d="M 3.46875,-5.296875 H 1.578125 l -1.015625,2.0625 c 1.390625,0 2.3125,0.75 2.3125,1.75 0,0.640625 -0.515625,1.1875 -1.15625,1.1875 -0.515625,0 -0.65625,-0.40625 -1.015625,-0.40625 -0.171875,0 -0.3125,0.125 -0.3125,0.28125 0,0.421875 0.578125,0.53125 0.890625,0.53125 1.09375,0 2.109375,-0.875 2.109375,-2 0,-1.1875 -1.09375,-1.90625 -2.171875,-2.03125 l 0.375,-0.734375 H 3.1875 Z m 0,0"
             id="path7762" />
        </g>
      </g>
      <g
         style="fill:#000000;fill-opacity:1"
         id="g942"
         transform="matrix(0.35277777,0,0,0.35277777,36.430049,34.598684)">
        <g
           id="use934"
           transform="translate(118.9003,68.2463)">
          <path
             style="stroke:none"
             d="m 2,-5.40625 c -0.75,0 -1.71875,0.84375 -1.71875,2.765625 0,1.90625 0.96875,2.75 1.71875,2.75 0.75,0 1.71875,-0.84375 1.71875,-2.75 C 3.71875,-4.5625 2.75,-5.40625 2,-5.40625 Z m 0,0.234375 c 0.859375,0 0.9375,1.65625 0.9375,2.265625 C 2.9375,-1.125 2.625,-0.125 2,-0.125 1.171875,-0.125 1.0625,-1.78125 1.0625,-2.390625 1.0625,-4.1875 1.375,-5.171875 2,-5.171875 Z m 0,0"
             id="path7846" />
        </g>
        <g
           id="use936"
           transform="translate(122.9003,68.2463)">
          <path
             style="stroke:none"
             d="m 1,0.109375 c 0.234375,0 0.4375,-0.1875 0.4375,-0.421875 0,-0.25 -0.203125,-0.4375 -0.4375,-0.4375 -0.234375,0 -0.4375,0.1875 -0.4375,0.4375 0,0.234375 0.203125,0.421875 0.4375,0.421875 z m 0,0"
             id="path7730" />
        </g>
        <g
           id="use938"
           transform="translate(124.9003,68.2463)">
          <path
             style="stroke:none"
             d="m 3.578125,-5.40625 h -0.15625 c -1.671875,0 -3.078125,1.625 -3.078125,3.3125 0,0.96875 0.53125,2.203125 1.6875,2.203125 1,0 1.65625,-0.953125 1.65625,-1.875 0,-0.78125 -0.484375,-1.578125 -1.34375,-1.578125 -0.40625,0 -0.796875,0.15625 -1.125,0.390625 0.265625,-1.125 1.125,-2.265625 2.359375,-2.3125 z M 2.984375,-1.375 c 0,0.546875 -0.21875,1.25 -0.890625,1.25 -0.734375,0 -1,-1.15625 -1,-1.734375 0,-0.34375 0.03125,-0.546875 0.078125,-0.8125 0.25,-0.171875 0.53125,-0.34375 0.796875,-0.34375 0.78125,0 1.015625,1.03125 1.015625,1.640625 z m 0,0"
             id="path7742" />
        </g>
        <g
           id="use940"
           transform="translate(128.9003,68.2463)">
          <path
             style="stroke:none"
             d="m 2,-5.40625 c -0.75,0 -1.71875,0.84375 -1.71875,2.765625 0,1.90625 0.96875,2.75 1.71875,2.75 0.75,0 1.71875,-0.84375 1.71875,-2.75 C 3.71875,-4.5625 2.75,-5.40625 2,-5.40625 Z m 0,0.234375 c 0.859375,0 0.9375,1.65625 0.9375,2.265625 C 2.9375,-1.125 2.625,-0.125 2,-0.125 1.171875,-0.125 1.0625,-1.78125 1.0625,-2.390625 1.0625,-4.1875 1.375,-5.171875 2,-5.171875 Z m 0,0"
             id="path7850" />
        </g>
      </g>
    </g>
  </g>
</svg>
