<?xml version="1.0" encoding="UTF-8" standalone="no"?>
<!-- Created with Inkscape (http://www.inkscape.org/) -->

<svg
   width="92.030502mm"
   height="57.909245mm"
   viewBox="0 0 92.030502 57.909245"
   version="1.1"
   id="svg5836"
   inkscape:version="1.2.2 (1:1.2.2+202212051552+b0a8486541)"
   sodipodi:docname="velocity_time.svg"
   xmlns:inkscape="http://www.inkscape.org/namespaces/inkscape"
   xmlns:sodipodi="http://sodipodi.sourceforge.net/DTD/sodipodi-0.dtd"
   xmlns="http://www.w3.org/2000/svg"
   xmlns:svg="http://www.w3.org/2000/svg">
  <sodipodi:namedview
     id="namedview5838"
     pagecolor="#ffffff"
     bordercolor="#666666"
     borderopacity="1.0"
     inkscape:showpageshadow="2"
     inkscape:pageopacity="0.0"
     inkscape:pagecheckerboard="0"
     inkscape:deskcolor="#d1d1d1"
     inkscape:document-units="mm"
     showgrid="false"
     inkscape:zoom="2.2703042"
     inkscape:cx="161.87258"
     inkscape:cy="147.77755"
     inkscape:window-width="1920"
     inkscape:window-height="1016"
     inkscape:window-x="0"
     inkscape:window-y="0"
     inkscape:window-maximized="1"
     inkscape:current-layer="layer1" />
  <defs
     id="defs5833" />
  <g
     inkscape:label="Layer 1"
     inkscape:groupmode="layer"
     id="layer1"
     transform="translate(-40.28366,-46.126168)">
    <rect
       style="fill:#ffffff;stroke:#ffffff;stroke-width:1.52991"
       id="rect504"
       width="90.501091"
       height="56.379089"
       x="41.048367"
       y="46.891247" />
    <g
       id="g5522"
       transform="matrix(0.35277777,0,0,0.35277777,-3.345416,-62.519105)">
      <path
         style="fill:none;stroke:#000000;stroke-width:0.663;stroke-linecap:square;stroke-linejoin:miter;stroke-miterlimit:5;stroke-opacity:1"
         d="M 149.64844,246.68044 H 381.24609 V 389.8445 H 149.64844 Z m 0,0"
         transform="matrix(1,0,0,-1,0,700.157)"
         id="path2140" />
      <path
         style="fill:none;stroke:#000000;stroke-width:0.331;stroke-linecap:square;stroke-linejoin:miter;stroke-miterlimit:5;stroke-dasharray:0.0085, 1.2411;stroke-opacity:1"
         d="m 149.65234,246.67653 4.62891,45.29688 4.63281,30.48828 4.63281,6.32031 4.63282,-5.38672 4.63281,-2.76562 4.62891,-0.17969 4.63281,-0.52344 4.63281,-1.02344 4.63281,-1.04297 4.62891,-0.73437 4.63281,-0.26172 4.63281,-0.0898 4.63282,-0.23047 4.6289,-0.36328 4.63282,-0.36328 4.63281,-0.15235 4.63281,0.17188 4.62891,0.10547 4.63281,-0.28125 4.63281,-0.26172 4.63281,0.14843 4.62891,0.17969 4.63281,-0.20312 4.63282,-0.32813 4.63281,-0.10547 4.6289,0.0977 4.63282,0.19531 4.63281,0.12891 4.63281,-0.043 4.63281,-0.0234 4.62891,0.15625 h 4.63281 l 4.63282,-0.40234 4.63281,-0.21875 4.63281,0.45312 4.62891,0.42578 4.63281,-0.26953 4.62891,-0.375 4.63671,0.16016 4.63282,0.25391 4.6289,-0.16016 4.63282,-0.25781 4.6289,0.0469 4.63281,0.2461 4.63282,0.22656 4.63281,0.0195 4.63281,-0.25781 4.62891,-0.17188 4.63281,0.21485 4.63281,0.21875"
         transform="matrix(1,0,0,-1,0,700.157)"
         id="path2142" />
      <path
         style="fill:none;stroke:#000000;stroke-width:0.331;stroke-linecap:butt;stroke-linejoin:miter;stroke-miterlimit:5;stroke-opacity:1"
         d="m 149.65234,246.67653 4.62891,45.39453 4.63281,31.70313 4.63281,9.26562 4.63282,-2.13672 4.63281,-0.70703 4.62891,0.88281 4.63281,0.14454 4.63281,-0.30079 4.63281,-0.0312 4.62891,0.0234 4.63281,-0.24219 4.63281,-0.30078 4.63282,-0.12109 4.6289,-0.043 4.63282,-0.10547 4.63281,-0.12109 4.63281,-0.0547 4.62891,0.10547 4.63281,0.28516 4.63281,0.21875 4.63281,-0.043 4.62891,-0.0469 4.63281,0.1875 4.63282,0.14844 4.63281,-0.15234 4.6289,-0.11719 9.26563,0.48047 4.63281,-0.10938 4.63281,-0.10547 4.62891,0.30078 4.63281,0.5625 4.63282,0.64844 4.63281,0.95313 4.63281,1.48828 4.62891,1.90234 4.63281,2.17578 4.62891,2.54688 4.63671,3.14453 4.63282,4.28125 4.6289,5.81641 4.63282,6.96093 4.6289,7.0625 4.63281,4.32032 4.63282,-0.1211 4.63281,0.10938 4.63281,4.33203 4.62891,3.42578 4.63281,-2.69141 4.63281,-5.18359"
         transform="matrix(1,0,0,-1,0,700.157)"
         id="path2144" />
      <path
         style="fill:none;stroke:#000000;stroke-width:0.3;stroke-linecap:butt;stroke-linejoin:miter;stroke-miterlimit:5;stroke-dasharray:3.3322;stroke-opacity:1"
         d="M 149.8125,330.75075 H 367.07422"
         transform="matrix(1,0,0,-1,0,700.157)"
         id="path2146" />
      <path
         style="fill:none;stroke:#000000;stroke-width:0.3;stroke-linecap:butt;stroke-linejoin:miter;stroke-miterlimit:5;stroke-opacity:1"
         d="m 294.41406,333.63356 h 28.0586"
         transform="matrix(1,0,0,-1,0,700.157)"
         id="path2148" />
      <path
         style="fill:none;stroke:#000000;stroke-width:0.3;stroke-linecap:butt;stroke-linejoin:miter;stroke-miterlimit:5;stroke-dasharray:3.3322;stroke-opacity:1"
         d="M 308.08203,354.52419 V 238.56325"
         transform="matrix(1,0,0,-1,0,700.157)"
         id="path2150" />
      <path
         style="fill:none;stroke:#000000;stroke-width:0.3;stroke-linecap:square;stroke-linejoin:miter;stroke-miterlimit:5;stroke-opacity:1"
         d="m 308.48047,289.69997 h 22.62109"
         transform="matrix(1,0,0,-1,0,700.157)"
         id="path2152" />
      <path
         style="fill:#000000;fill-opacity:1;fill-rule:nonzero;stroke:none"
         d="M 315,411.84375 308.48828,410.45703 315,409.07031"
         id="path2154" />
      <path
         style="fill:none;stroke:#000000;stroke-width:0.3;stroke-linecap:square;stroke-linejoin:miter;stroke-miterlimit:5;stroke-opacity:1"
         d="m 315,288.31325 -6.51172,1.38672 6.51172,1.38672 z m 44.16016,43.20312 v 13.28516"
         transform="matrix(1,0,0,-1,0,700.157)"
         id="path2156" />
      <path
         style="fill:#000000;fill-opacity:1;fill-rule:nonzero;stroke:none"
         d="m 360.19922,363.75391 -1.03906,4.88671 -1.03516,-4.88671"
         id="path2158" />
      <path
         style="fill:none;stroke:#000000;stroke-width:0.3;stroke-linecap:square;stroke-linejoin:miter;stroke-miterlimit:5;stroke-opacity:1"
         d="m 360.19922,336.40309 -1.03906,-4.88672 -1.03516,4.88672 z m 0,0"
         transform="matrix(1,0,0,-1,0,700.157)"
         id="path2160" />
      <path
         style="fill:none;stroke:#000000;stroke-width:0.663;stroke-linecap:butt;stroke-linejoin:miter;stroke-miterlimit:5;stroke-opacity:1"
         d="m 149.64844,246.68044 v 3.32422"
         transform="matrix(1,0,0,-1,0,700.157)"
         id="path2162" />
      <path
         style="fill:none;stroke:#000000;stroke-width:0.3;stroke-linecap:butt;stroke-linejoin:miter;stroke-miterlimit:5;stroke-opacity:1"
         d="m 157.36719,246.68044 v 1.99609 m 7.72656,-1.99609 v 1.99609 m 7.71875,-1.99609 v 1.99609 m 7.71875,-1.99609 v 1.99609 m 7.71875,-1.99609 v 1.99609"
         transform="matrix(1,0,0,-1,0,700.157)"
         id="path2164" />
      <path
         style="fill:none;stroke:#000000;stroke-width:0.663;stroke-linecap:butt;stroke-linejoin:miter;stroke-miterlimit:5;stroke-opacity:1"
         d="m 195.96875,246.68044 v 3.32422"
         transform="matrix(1,0,0,-1,0,700.157)"
         id="path2166" />
      <path
         style="fill:none;stroke:#000000;stroke-width:0.3;stroke-linecap:butt;stroke-linejoin:miter;stroke-miterlimit:5;stroke-opacity:1"
         d="m 203.6875,246.68044 v 1.99609 m 7.71875,-1.99609 v 1.99609 m 7.72656,-1.99609 v 1.99609 m 7.71875,-1.99609 v 1.99609 m 7.71875,-1.99609 v 1.99609"
         transform="matrix(1,0,0,-1,0,700.157)"
         id="path2168" />
      <path
         style="fill:none;stroke:#000000;stroke-width:0.663;stroke-linecap:butt;stroke-linejoin:miter;stroke-miterlimit:5;stroke-opacity:1"
         d="m 242.28906,246.68044 v 3.32422"
         transform="matrix(1,0,0,-1,0,700.157)"
         id="path2170" />
      <path
         style="fill:none;stroke:#000000;stroke-width:0.3;stroke-linecap:butt;stroke-linejoin:miter;stroke-miterlimit:5;stroke-opacity:1"
         d="m 250.00781,246.68044 v 1.99609 m 7.71875,-1.99609 v 1.99609 m 7.72266,-1.99609 v 1.99609 m 7.72265,-1.99609 v 1.99609 m 7.71875,-1.99609 v 1.99609"
         transform="matrix(1,0,0,-1,0,700.157)"
         id="path2172" />
      <path
         style="fill:none;stroke:#000000;stroke-width:0.663;stroke-linecap:butt;stroke-linejoin:miter;stroke-miterlimit:5;stroke-opacity:1"
         d="m 288.60937,246.68044 v 3.32422"
         transform="matrix(1,0,0,-1,0,700.157)"
         id="path2174" />
      <path
         style="fill:none;stroke:#000000;stroke-width:0.3;stroke-linecap:butt;stroke-linejoin:miter;stroke-miterlimit:5;stroke-opacity:1"
         d="m 296.32422,246.68044 v 1.99609 m 7.71875,-1.99609 v 1.99609 m 7.73047,-1.99609 v 1.99609 m 7.71484,-1.99609 v 1.99609 m 7.71875,-1.99609 v 1.99609"
         transform="matrix(1,0,0,-1,0,700.157)"
         id="path2176" />
      <path
         style="fill:none;stroke:#000000;stroke-width:0.663;stroke-linecap:butt;stroke-linejoin:miter;stroke-miterlimit:5;stroke-opacity:1"
         d="m 334.92578,246.68044 v 3.32422"
         transform="matrix(1,0,0,-1,0,700.157)"
         id="path2178" />
      <path
         style="fill:none;stroke:#000000;stroke-width:0.3;stroke-linecap:butt;stroke-linejoin:miter;stroke-miterlimit:5;stroke-opacity:1"
         d="m 342.64453,246.68044 v 1.99609 m 7.71875,-1.99609 v 1.99609 m 7.72656,-1.99609 v 1.99609 m 7.71875,-1.99609 v 1.99609 m 7.71875,-1.99609 v 1.99609"
         transform="matrix(1,0,0,-1,0,700.157)"
         id="path2180" />
      <path
         style="fill:none;stroke:#000000;stroke-width:0.663;stroke-linecap:butt;stroke-linejoin:miter;stroke-miterlimit:5;stroke-opacity:1"
         d="m 381.24609,246.68044 v 3.32422"
         transform="matrix(1,0,0,-1,0,700.157)"
         id="path2182" />
      <path
         style="fill:none;stroke:#000000;stroke-width:0.663;stroke-linecap:square;stroke-linejoin:miter;stroke-miterlimit:5;stroke-opacity:1"
         d="M 149.64844,246.68044 H 381.24609"
         transform="matrix(1,0,0,-1,0,700.157)"
         id="path2184" />
      <g
         style="fill:#000000;fill-opacity:1"
         id="g2188">
        <g
           id="use2186"
           transform="translate(264.42401,472.0293)">
          <path
             style="stroke:none"
             d="M 2.078125,-4.5 H 1.90625 C 1.5,-3.84375 1.203125,-3.5 0.546875,-3.34375 l -0.03125,0.15625 h 0.59375 L 0.4375,-0.828125 c -0.03125,0.125 -0.109375,0.421875 -0.109375,0.5625 0,0.21875 0.15625,0.359375 0.375,0.359375 0.421875,0 0.90625,-0.5625 1.125,-0.890625 L 1.6875,-0.890625 c -0.109375,0.15625 -0.421875,0.625 -0.65625,0.625 -0.078125,0 -0.109375,-0.09375 -0.109375,-0.140625 0,-0.140625 0.109375,-0.4375 0.140625,-0.578125 L 1.703125,-3.1875 H 2.3125 l 0.078125,-0.25 h -0.625 z m 0,0"
             id="path6548" />
        </g>
      </g>
      <path
         style="fill:none;stroke:#000000;stroke-width:0.663;stroke-linecap:butt;stroke-linejoin:miter;stroke-miterlimit:5;stroke-opacity:1"
         d="m 149.64844,246.68044 h 3.33203"
         transform="matrix(1,0,0,-1,0,700.157)"
         id="path2190" />
      <path
         style="fill:none;stroke:#000000;stroke-width:0.3;stroke-linecap:butt;stroke-linejoin:miter;stroke-miterlimit:5;stroke-opacity:1"
         d="m 149.64844,249.53591 h 2 m -2,2.86328 h 2 m -2,2.86718 h 2 m -2,2.86329 h 2"
         transform="matrix(1,0,0,-1,0,700.157)"
         id="path2192" />
      <path
         style="fill:none;stroke:#000000;stroke-width:0.663;stroke-linecap:butt;stroke-linejoin:miter;stroke-miterlimit:5;stroke-opacity:1"
         d="m 149.64844,260.99684 h 3.33203"
         transform="matrix(1,0,0,-1,0,700.157)"
         id="path2194" />
      <path
         style="fill:none;stroke:#000000;stroke-width:0.3;stroke-linecap:butt;stroke-linejoin:miter;stroke-miterlimit:5;stroke-opacity:1"
         d="m 149.64844,263.86012 h 2 m -2,2.85547 h 2 m -2,2.86719 h 2 m -2,2.86328 h 2"
         transform="matrix(1,0,0,-1,0,700.157)"
         id="path2196" />
      <path
         style="fill:none;stroke:#000000;stroke-width:0.663;stroke-linecap:butt;stroke-linejoin:miter;stroke-miterlimit:5;stroke-opacity:1"
         d="m 149.64844,275.30934 h 3.33203"
         transform="matrix(1,0,0,-1,0,700.157)"
         id="path2198" />
      <path
         style="fill:none;stroke:#000000;stroke-width:0.3;stroke-linecap:butt;stroke-linejoin:miter;stroke-miterlimit:5;stroke-opacity:1"
         d="m 149.64844,278.17653 h 2 m -2,2.86328 h 2 m -2,2.86328 h 2 m -2,2.85547 h 2"
         transform="matrix(1,0,0,-1,0,700.157)"
         id="path2200" />
      <path
         style="fill:none;stroke:#000000;stroke-width:0.663;stroke-linecap:butt;stroke-linejoin:miter;stroke-miterlimit:5;stroke-opacity:1"
         d="m 149.64844,289.62575 h 3.33203"
         transform="matrix(1,0,0,-1,0,700.157)"
         id="path2202" />
      <path
         style="fill:none;stroke:#000000;stroke-width:0.3;stroke-linecap:butt;stroke-linejoin:miter;stroke-miterlimit:5;stroke-opacity:1"
         d="m 149.64844,292.48903 h 2 m -2,2.86328 h 2 m -2,2.86719 h 2 m -2,2.86328 h 2"
         transform="matrix(1,0,0,-1,0,700.157)"
         id="path2204" />
      <path
         style="fill:none;stroke:#000000;stroke-width:0.663;stroke-linecap:butt;stroke-linejoin:miter;stroke-miterlimit:5;stroke-opacity:1"
         d="m 149.64844,303.93825 h 3.33203"
         transform="matrix(1,0,0,-1,0,700.157)"
         id="path2206" />
      <path
         style="fill:none;stroke:#000000;stroke-width:0.3;stroke-linecap:butt;stroke-linejoin:miter;stroke-miterlimit:5;stroke-opacity:1"
         d="m 149.64844,306.80153 h 2 m -2,2.86719 h 2 m -2,2.86719 h 2 m -2,2.86328 h 2"
         transform="matrix(1,0,0,-1,0,700.157)"
         id="path2208" />
      <path
         style="fill:none;stroke:#000000;stroke-width:0.663;stroke-linecap:butt;stroke-linejoin:miter;stroke-miterlimit:5;stroke-opacity:1"
         d="m 149.64844,318.26247 h 3.33203"
         transform="matrix(1,0,0,-1,0,700.157)"
         id="path2210" />
      <path
         style="fill:none;stroke:#000000;stroke-width:0.3;stroke-linecap:butt;stroke-linejoin:miter;stroke-miterlimit:5;stroke-opacity:1"
         d="m 149.64844,321.12966 h 2 m -2,2.85546 h 2 m -2,2.86329 h 2 m -2,2.86718 h 2"
         transform="matrix(1,0,0,-1,0,700.157)"
         id="path2212" />
      <path
         style="fill:none;stroke:#000000;stroke-width:0.663;stroke-linecap:butt;stroke-linejoin:miter;stroke-miterlimit:5;stroke-opacity:1"
         d="m 149.64844,332.57887 h 3.33203"
         transform="matrix(1,0,0,-1,0,700.157)"
         id="path2214" />
      <path
         style="fill:none;stroke:#000000;stroke-width:0.3;stroke-linecap:butt;stroke-linejoin:miter;stroke-miterlimit:5;stroke-opacity:1"
         d="m 149.64844,335.44216 h 2 m -2,2.86328 h 2 m -2,2.85937 h 2 m -2,2.86328 h 2"
         transform="matrix(1,0,0,-1,0,700.157)"
         id="path2216" />
      <path
         style="fill:none;stroke:#000000;stroke-width:0.663;stroke-linecap:butt;stroke-linejoin:miter;stroke-miterlimit:5;stroke-opacity:1"
         d="m 149.64844,346.89137 h 3.33203"
         transform="matrix(1,0,0,-1,0,700.157)"
         id="path2218" />
      <path
         style="fill:none;stroke:#000000;stroke-width:0.3;stroke-linecap:butt;stroke-linejoin:miter;stroke-miterlimit:5;stroke-opacity:1"
         d="m 149.64844,349.75856 h 2 m -2,2.86328 h 2 m -2,2.86328 h 2 m -2,2.86719 h 2"
         transform="matrix(1,0,0,-1,0,700.157)"
         id="path2220" />
      <path
         style="fill:none;stroke:#000000;stroke-width:0.663;stroke-linecap:butt;stroke-linejoin:miter;stroke-miterlimit:5;stroke-opacity:1"
         d="m 149.64844,361.20778 h 3.33203"
         transform="matrix(1,0,0,-1,0,700.157)"
         id="path2222" />
      <path
         style="fill:none;stroke:#000000;stroke-width:0.3;stroke-linecap:butt;stroke-linejoin:miter;stroke-miterlimit:5;stroke-opacity:1"
         d="m 149.64844,364.07106 h 2 m -2,2.86719 h 2 m -2,2.86328 h 2 m -2,2.86328 h 2"
         transform="matrix(1,0,0,-1,0,700.157)"
         id="path2224" />
      <path
         style="fill:none;stroke:#000000;stroke-width:0.663;stroke-linecap:butt;stroke-linejoin:miter;stroke-miterlimit:5;stroke-opacity:1"
         d="m 149.64844,375.532 h 3.33203"
         transform="matrix(1,0,0,-1,0,700.157)"
         id="path2226" />
      <path
         style="fill:none;stroke:#000000;stroke-width:0.3;stroke-linecap:butt;stroke-linejoin:miter;stroke-miterlimit:5;stroke-opacity:1"
         d="m 149.64844,378.38747 h 2 m -2,2.86328 h 2 m -2,2.86719 h 2 m -2,2.86328 h 2"
         transform="matrix(1,0,0,-1,0,700.157)"
         id="path2228" />
      <path
         style="fill:none;stroke:#000000;stroke-width:0.663;stroke-linecap:butt;stroke-linejoin:miter;stroke-miterlimit:5;stroke-opacity:1"
         d="m 149.64844,389.8445 h 3.33203"
         transform="matrix(1,0,0,-1,0,700.157)"
         id="path2230" />
      <path
         style="fill:none;stroke:#000000;stroke-width:0.663;stroke-linecap:square;stroke-linejoin:miter;stroke-miterlimit:5;stroke-opacity:1"
         d="M 149.64844,246.68044 V 389.8445"
         transform="matrix(1,0,0,-1,0,700.157)"
         id="path2232" />
      <g
         style="fill:#000000;fill-opacity:1"
         id="g2236">
        <g
           id="use2234"
           transform="translate(122.8136,384.2807)">
          <path
             style="stroke:none"
             d="m 2.265625,-4.25 c 0.1875,-0.640625 0.25,-0.90625 0.984375,-0.90625 L 3.296875,-5.296875 H 1.0625 L 1.015625,-5.15625 c 0.390625,0 0.671875,0.03125 0.671875,0.34375 0,0.1875 -0.078125,0.46875 -0.453125,1.71875 -0.28125,0.984375 -0.375,1.3125 -0.375,1.703125 0,0.640625 0.515625,1.515625 1.78125,1.515625 0.59375,0 1.703125,-0.109375 2.265625,-2.078125 l 0.671875,-2.28125 C 5.78125,-4.9375 5.84375,-5.15625 6.484375,-5.15625 l 0.03125,-0.140625 H 4.84375 L 4.796875,-5.15625 c 0.25,0 0.59375,0.046875 0.59375,0.34375 0,0.125 -0.046875,0.328125 -0.15625,0.6875 L 4.78125,-2.5 c -0.296875,1.015625 -0.65625,2.265625 -1.9375,2.265625 -0.703125,0 -1.3125,-0.390625 -1.3125,-1.140625 0,-0.328125 0.078125,-0.640625 0.171875,-0.953125 z m 0,0"
             id="path6544" />
        </g>
      </g>
      <g
         style="fill:#000000;fill-opacity:1"
         id="g2240">
        <g
           id="use2238"
           transform="translate(128.58949,386.2807)">
          <path
             style="stroke:none"
             d="m 1.78125,-2.578125 h -0.4375 c 0.234375,-0.8125 0.46875,-1.453125 0.984375,-1.453125 0.046875,0 0.125,0.015625 0.125,0.078125 0,0.03125 -0.078125,0.125 -0.078125,0.203125 0,0.125 0.109375,0.1875 0.21875,0.1875 0.140625,0 0.234375,-0.109375 0.234375,-0.25 0,-0.25 -0.3125,-0.34375 -0.5,-0.34375 -0.171875,0 -0.75,0.0625 -1.21875,1.03125 C 0.90625,-2.6875 0.828125,-2.578125 0.375,-2.578125 l -0.046875,0.1875 H 0.84375 l -0.5,1.921875 c -0.28125,1.09375 -0.421875,1.625 -0.953125,1.625 -0.03125,0 -0.09375,0 -0.09375,-0.046875 0,-0.046875 0.109375,-0.078125 0.109375,-0.171875 0,-0.109375 -0.09375,-0.171875 -0.1875,-0.171875 -0.140625,0 -0.265625,0.09375 -0.265625,0.25 0,0.1875 0.234375,0.28125 0.40625,0.28125 0.765625,0 1.3125,-1.171875 1.53125,-2.046875 l 0.40625,-1.640625 h 0.4375 z m 0,0"
             id="path6560" />
        </g>
      </g>
      <g
         style="fill:#000000;fill-opacity:1"
         id="g2244">
        <g
           id="use2242"
           transform="translate(193.88049,462.3555)">
          <path
             style="stroke:none"
             d="M 1.21875,-2.625 C 2.75,-2.625 2.75,-1.40625 2.75,-1.328125 2.75,-0.78125 2.359375,-0.25 1.78125,-0.25 c -0.5625,0 -0.734375,-0.359375 -1.140625,-0.359375 -0.171875,0 -0.328125,0.125 -0.328125,0.296875 0,0.375 0.640625,0.421875 0.90625,0.421875 1.5,0 2.125,-0.96875 2.125,-1.84375 0,-0.6875 -0.375,-1.15625 -1,-1.40625 C 2.6875,-3.40625 3.078125,-3.875 3.078125,-4.3125 c 0,-0.34375 -0.28125,-1.09375 -1.25,-1.09375 -0.71875,0 -1.1875,0.484375 -1.421875,1.125 l 0.125,0.0625 c 0.203125,-0.359375 0.578125,-0.65625 1,-0.65625 0.546875,0 0.890625,0.375 0.890625,0.90625 0,0.703125 -0.5625,1.125 -1.203125,1.21875 z m 0,0"
             id="path6528" />
        </g>
      </g>
      <g
         style="fill:#000000;fill-opacity:1"
         id="g2248">
        <g
           id="use2246"
           transform="translate(240.19971,462.3555)">
          <path
             style="stroke:none"
             d="m 3.578125,-5.40625 h -0.15625 c -1.671875,0 -3.078125,1.625 -3.078125,3.3125 0,0.96875 0.53125,2.203125 1.6875,2.203125 1,0 1.65625,-0.953125 1.65625,-1.875 0,-0.78125 -0.484375,-1.578125 -1.34375,-1.578125 -0.40625,0 -0.796875,0.15625 -1.125,0.390625 0.265625,-1.125 1.125,-2.265625 2.359375,-2.3125 z M 2.984375,-1.375 c 0,0.546875 -0.21875,1.25 -0.890625,1.25 -0.734375,0 -1,-1.15625 -1,-1.734375 0,-0.34375 0.03125,-0.546875 0.078125,-0.8125 0.25,-0.171875 0.53125,-0.34375 0.796875,-0.34375 0.78125,0 1.015625,1.03125 1.015625,1.640625 z m 0,0"
             id="path6520" />
        </g>
      </g>
      <g
         style="fill:#000000;fill-opacity:1"
         id="g2252">
        <g
           id="use2250"
           transform="translate(286.51889,462.3555)">
          <path
             style="stroke:none"
             d="m 0.421875,0.109375 h 0.125 c 1.875,0 3.109375,-1.8125 3.109375,-3.296875 0,-0.984375 -0.546875,-2.21875 -1.6875,-2.21875 -1.015625,0 -1.65625,0.953125 -1.65625,1.890625 0,0.78125 0.484375,1.59375 1.34375,1.59375 0.40625,0 0.796875,-0.1875 1.125,-0.390625 -0.296875,1.125 -1.09375,2.28125 -2.359375,2.28125 z M 2.84375,-2.609375 C 2.625,-2.421875 2.25,-2.28125 1.96875,-2.28125 c -0.75,0 -0.953125,-1.03125 -0.953125,-1.609375 0,-0.578125 0.203125,-1.28125 0.890625,-1.28125 0.75,0 1,1.1875 1,1.765625 0,0.28125 -0.03125,0.53125 -0.0625,0.796875 z m 0,0"
             id="path6512" />
        </g>
      </g>
      <g
         style="fill:#000000;fill-opacity:1"
         id="g2258">
        <g
           id="use2254"
           transform="translate(330.75891,462.3555)">
          <path
             style="stroke:none"
             d="m 0.9375,-4.78125 0.046875,0.125 C 1.125,-4.71875 1.25,-4.78125 1.40625,-4.78125 c 0.234375,0 0.3125,0.203125 0.3125,0.75 v 3.1875 c 0,0.609375 -0.078125,0.6875 -0.6875,0.703125 V 0 h 2 v -0.140625 c -0.671875,0 -0.671875,-0.265625 -0.671875,-0.90625 V -5.40625 H 2.21875 Z m 0,0"
             id="path6496" />
        </g>
        <g
           id="use2256"
           transform="translate(334.75891,462.3555)">
          <path
             style="stroke:none"
             d="M 3.65625,-1.015625 H 3.515625 C 3.3125,-0.59375 2.765625,-0.59375 2.65625,-0.59375 H 1.015625 l 1.171875,-1.25 c 0.53125,-0.5625 1.15625,-1.359375 1.15625,-2.171875 0,-0.8125 -0.734375,-1.390625 -1.5,-1.390625 -0.921875,0 -1.390625,0.65625 -1.515625,1.5 H 0.46875 c 0.140625,-0.546875 0.625,-0.90625 1.171875,-0.90625 0.625,0 1.015625,0.53125 1.015625,1.15625 0,0.859375 -0.453125,1.515625 -2.484375,3.515625 V 0 h 3.125 z m 0,0"
             id="path6488" />
        </g>
      </g>
      <g
         style="fill:#000000;fill-opacity:1"
         id="g2264">
        <g
           id="use2260"
           transform="translate(377.07809,462.3555)">
          <path
             style="stroke:none"
             d="m 0.9375,-4.78125 0.046875,0.125 C 1.125,-4.71875 1.25,-4.78125 1.40625,-4.78125 c 0.234375,0 0.3125,0.203125 0.3125,0.75 v 3.1875 c 0,0.609375 -0.078125,0.6875 -0.6875,0.703125 V 0 h 2 v -0.140625 c -0.671875,0 -0.671875,-0.265625 -0.671875,-0.90625 V -5.40625 H 2.21875 Z m 0,0"
             id="path6500" />
        </g>
        <g
           id="use2262"
           transform="translate(381.07809,462.3555)">
          <path
             style="stroke:none"
             d="M 3.46875,-5.296875 H 1.578125 l -1.015625,2.0625 c 1.390625,0 2.3125,0.75 2.3125,1.75 0,0.640625 -0.515625,1.1875 -1.15625,1.1875 -0.515625,0 -0.65625,-0.40625 -1.015625,-0.40625 -0.171875,0 -0.3125,0.125 -0.3125,0.28125 0,0.421875 0.578125,0.53125 0.890625,0.53125 1.09375,0 2.109375,-0.875 2.109375,-2 0,-1.1875 -1.09375,-1.90625 -2.171875,-2.03125 l 0.375,-0.734375 H 3.1875 Z m 0,0"
             id="path6480" />
        </g>
      </g>
      <g
         style="fill:#000000;fill-opacity:1"
         id="g2268">
        <g
           id="use2266"
           transform="translate(142.2397,462.3555)">
          <path
             style="stroke:none"
             d="m 2,-5.40625 c -0.75,0 -1.71875,0.84375 -1.71875,2.765625 0,1.90625 0.96875,2.75 1.71875,2.75 0.75,0 1.71875,-0.84375 1.71875,-2.75 C 3.71875,-4.5625 2.75,-5.40625 2,-5.40625 Z m 0,0.234375 c 0.859375,0 0.9375,1.65625 0.9375,2.265625 C 2.9375,-1.125 2.625,-0.125 2,-0.125 1.171875,-0.125 1.0625,-1.78125 1.0625,-2.390625 1.0625,-4.1875 1.375,-5.171875 2,-5.171875 Z m 0,0"
             id="path6716" />
        </g>
      </g>
      <g
         style="fill:#000000;fill-opacity:1"
         id="g2276">
        <g
           id="use2270"
           transform="translate(136.2397,441.86191)">
          <path
             style="stroke:none"
             d="m 2,-5.40625 c -0.75,0 -1.71875,0.84375 -1.71875,2.765625 0,1.90625 0.96875,2.75 1.71875,2.75 0.75,0 1.71875,-0.84375 1.71875,-2.75 C 3.71875,-4.5625 2.75,-5.40625 2,-5.40625 Z m 0,0.234375 c 0.859375,0 0.9375,1.65625 0.9375,2.265625 C 2.9375,-1.125 2.625,-0.125 2,-0.125 1.171875,-0.125 1.0625,-1.78125 1.0625,-2.390625 1.0625,-4.1875 1.375,-5.171875 2,-5.171875 Z m 0,0"
             id="path6720" />
        </g>
        <g
           id="use2272"
           transform="translate(140.2397,441.86191)">
          <path
             style="stroke:none"
             d="m 1,0.109375 c 0.234375,0 0.4375,-0.1875 0.4375,-0.421875 0,-0.25 -0.203125,-0.4375 -0.4375,-0.4375 -0.234375,0 -0.4375,0.1875 -0.4375,0.4375 0,0.234375 0.203125,0.421875 0.4375,0.421875 z m 0,0"
             id="path6676" />
        </g>
        <g
           id="use2274"
           transform="translate(142.2397,441.86191)">
          <path
             style="stroke:none"
             d="m 0.9375,-4.78125 0.046875,0.125 C 1.125,-4.71875 1.25,-4.78125 1.40625,-4.78125 c 0.234375,0 0.3125,0.203125 0.3125,0.75 v 3.1875 c 0,0.609375 -0.078125,0.6875 -0.6875,0.703125 V 0 h 2 v -0.140625 c -0.671875,0 -0.671875,-0.265625 -0.671875,-0.90625 V -5.40625 H 2.21875 Z m 0,0"
             id="path6504" />
        </g>
      </g>
      <g
         style="fill:#000000;fill-opacity:1"
         id="g2284">
        <g
           id="use2278"
           transform="translate(136.2397,427.54749)">
          <path
             style="stroke:none"
             d="m 2,-5.40625 c -0.75,0 -1.71875,0.84375 -1.71875,2.765625 0,1.90625 0.96875,2.75 1.71875,2.75 0.75,0 1.71875,-0.84375 1.71875,-2.75 C 3.71875,-4.5625 2.75,-5.40625 2,-5.40625 Z m 0,0.234375 c 0.859375,0 0.9375,1.65625 0.9375,2.265625 C 2.9375,-1.125 2.625,-0.125 2,-0.125 1.171875,-0.125 1.0625,-1.78125 1.0625,-2.390625 1.0625,-4.1875 1.375,-5.171875 2,-5.171875 Z m 0,0"
             id="path6724" />
        </g>
        <g
           id="use2280"
           transform="translate(140.2397,427.54749)">
          <path
             style="stroke:none"
             d="m 1,0.109375 c 0.234375,0 0.4375,-0.1875 0.4375,-0.421875 0,-0.25 -0.203125,-0.4375 -0.4375,-0.4375 -0.234375,0 -0.4375,0.1875 -0.4375,0.4375 0,0.234375 0.203125,0.421875 0.4375,0.421875 z m 0,0"
             id="path6680" />
        </g>
        <g
           id="use2282"
           transform="translate(142.2397,427.54749)">
          <path
             style="stroke:none"
             d="M 3.65625,-1.015625 H 3.515625 C 3.3125,-0.59375 2.765625,-0.59375 2.65625,-0.59375 H 1.015625 l 1.171875,-1.25 c 0.53125,-0.5625 1.15625,-1.359375 1.15625,-2.171875 0,-0.8125 -0.734375,-1.390625 -1.5,-1.390625 -0.921875,0 -1.390625,0.65625 -1.515625,1.5 H 0.46875 c 0.140625,-0.546875 0.625,-0.90625 1.171875,-0.90625 0.625,0 1.015625,0.53125 1.015625,1.15625 0,0.859375 -0.453125,1.515625 -2.484375,3.515625 V 0 h 3.125 z m 0,0"
             id="path6492" />
        </g>
      </g>
      <g
         style="fill:#000000;fill-opacity:1"
         id="g2292">
        <g
           id="use2286"
           transform="translate(136.2397,413.23309)">
          <path
             style="stroke:none"
             d="m 2,-5.40625 c -0.75,0 -1.71875,0.84375 -1.71875,2.765625 0,1.90625 0.96875,2.75 1.71875,2.75 0.75,0 1.71875,-0.84375 1.71875,-2.75 C 3.71875,-4.5625 2.75,-5.40625 2,-5.40625 Z m 0,0.234375 c 0.859375,0 0.9375,1.65625 0.9375,2.265625 C 2.9375,-1.125 2.625,-0.125 2,-0.125 1.171875,-0.125 1.0625,-1.78125 1.0625,-2.390625 1.0625,-4.1875 1.375,-5.171875 2,-5.171875 Z m 0,0"
             id="path6728" />
        </g>
        <g
           id="use2288"
           transform="translate(140.2397,413.23309)">
          <path
             style="stroke:none"
             d="m 1,0.109375 c 0.234375,0 0.4375,-0.1875 0.4375,-0.421875 0,-0.25 -0.203125,-0.4375 -0.4375,-0.4375 -0.234375,0 -0.4375,0.1875 -0.4375,0.4375 0,0.234375 0.203125,0.421875 0.4375,0.421875 z m 0,0"
             id="path6684" />
        </g>
        <g
           id="use2290"
           transform="translate(142.2397,413.23309)">
          <path
             style="stroke:none"
             d="M 1.21875,-2.625 C 2.75,-2.625 2.75,-1.40625 2.75,-1.328125 2.75,-0.78125 2.359375,-0.25 1.78125,-0.25 c -0.5625,0 -0.734375,-0.359375 -1.140625,-0.359375 -0.171875,0 -0.328125,0.125 -0.328125,0.296875 0,0.375 0.640625,0.421875 0.90625,0.421875 1.5,0 2.125,-0.96875 2.125,-1.84375 0,-0.6875 -0.375,-1.15625 -1,-1.40625 C 2.6875,-3.40625 3.078125,-3.875 3.078125,-4.3125 c 0,-0.34375 -0.28125,-1.09375 -1.25,-1.09375 -0.71875,0 -1.1875,0.484375 -1.421875,1.125 l 0.125,0.0625 c 0.203125,-0.359375 0.578125,-0.65625 1,-0.65625 0.546875,0 0.890625,0.375 0.890625,0.90625 0,0.703125 -0.5625,1.125 -1.203125,1.21875 z m 0,0"
             id="path6532" />
        </g>
      </g>
      <g
         style="fill:#000000;fill-opacity:1"
         id="g2300">
        <g
           id="use2294"
           transform="translate(136.2397,398.90909)">
          <path
             style="stroke:none"
             d="m 2,-5.40625 c -0.75,0 -1.71875,0.84375 -1.71875,2.765625 0,1.90625 0.96875,2.75 1.71875,2.75 0.75,0 1.71875,-0.84375 1.71875,-2.75 C 3.71875,-4.5625 2.75,-5.40625 2,-5.40625 Z m 0,0.234375 c 0.859375,0 0.9375,1.65625 0.9375,2.265625 C 2.9375,-1.125 2.625,-0.125 2,-0.125 1.171875,-0.125 1.0625,-1.78125 1.0625,-2.390625 1.0625,-4.1875 1.375,-5.171875 2,-5.171875 Z m 0,0"
             id="path6732" />
        </g>
        <g
           id="use2296"
           transform="translate(140.2397,398.90909)">
          <path
             style="stroke:none"
             d="m 1,0.109375 c 0.234375,0 0.4375,-0.1875 0.4375,-0.421875 0,-0.25 -0.203125,-0.4375 -0.4375,-0.4375 -0.234375,0 -0.4375,0.1875 -0.4375,0.4375 0,0.234375 0.203125,0.421875 0.4375,0.421875 z m 0,0"
             id="path6688" />
        </g>
        <g
           id="use2298"
           transform="translate(142.2397,398.90909)">
          <path
             style="stroke:none"
             d="M 3.71875,-1.953125 H 3.015625 V -5.40625 h -0.4375 L 0.125,-1.890625 v 0.5 H 2.359375 V 0 h 0.65625 V -1.390625 H 3.71875 Z m -1.359375,0 H 0.5 L 2.34375,-4.5625 h 0.015625 z m 0,0"
             id="path6672" />
        </g>
      </g>
      <g
         style="fill:#000000;fill-opacity:1"
         id="g2308">
        <g
           id="use2302"
           transform="translate(136.2397,384.5947)">
          <path
             style="stroke:none"
             d="m 2,-5.40625 c -0.75,0 -1.71875,0.84375 -1.71875,2.765625 0,1.90625 0.96875,2.75 1.71875,2.75 0.75,0 1.71875,-0.84375 1.71875,-2.75 C 3.71875,-4.5625 2.75,-5.40625 2,-5.40625 Z m 0,0.234375 c 0.859375,0 0.9375,1.65625 0.9375,2.265625 C 2.9375,-1.125 2.625,-0.125 2,-0.125 1.171875,-0.125 1.0625,-1.78125 1.0625,-2.390625 1.0625,-4.1875 1.375,-5.171875 2,-5.171875 Z m 0,0"
             id="path6736" />
        </g>
        <g
           id="use2304"
           transform="translate(140.2397,384.5947)">
          <path
             style="stroke:none"
             d="m 1,0.109375 c 0.234375,0 0.4375,-0.1875 0.4375,-0.421875 0,-0.25 -0.203125,-0.4375 -0.4375,-0.4375 -0.234375,0 -0.4375,0.1875 -0.4375,0.4375 0,0.234375 0.203125,0.421875 0.4375,0.421875 z m 0,0"
             id="path6692" />
        </g>
        <g
           id="use2306"
           transform="translate(142.2397,384.5947)">
          <path
             style="stroke:none"
             d="M 3.46875,-5.296875 H 1.578125 l -1.015625,2.0625 c 1.390625,0 2.3125,0.75 2.3125,1.75 0,0.640625 -0.515625,1.1875 -1.15625,1.1875 -0.515625,0 -0.65625,-0.40625 -1.015625,-0.40625 -0.171875,0 -0.3125,0.125 -0.3125,0.28125 0,0.421875 0.578125,0.53125 0.890625,0.53125 1.09375,0 2.109375,-0.875 2.109375,-2 0,-1.1875 -1.09375,-1.90625 -2.171875,-2.03125 l 0.375,-0.734375 H 3.1875 Z m 0,0"
             id="path6484" />
        </g>
      </g>
      <g
         style="fill:#000000;fill-opacity:1"
         id="g2316">
        <g
           id="use2310"
           transform="translate(136.2397,370.2803)">
          <path
             style="stroke:none"
             d="m 2,-5.40625 c -0.75,0 -1.71875,0.84375 -1.71875,2.765625 0,1.90625 0.96875,2.75 1.71875,2.75 0.75,0 1.71875,-0.84375 1.71875,-2.75 C 3.71875,-4.5625 2.75,-5.40625 2,-5.40625 Z m 0,0.234375 c 0.859375,0 0.9375,1.65625 0.9375,2.265625 C 2.9375,-1.125 2.625,-0.125 2,-0.125 1.171875,-0.125 1.0625,-1.78125 1.0625,-2.390625 1.0625,-4.1875 1.375,-5.171875 2,-5.171875 Z m 0,0"
             id="path6740" />
        </g>
        <g
           id="use2312"
           transform="translate(140.2397,370.2803)">
          <path
             style="stroke:none"
             d="m 1,0.109375 c 0.234375,0 0.4375,-0.1875 0.4375,-0.421875 0,-0.25 -0.203125,-0.4375 -0.4375,-0.4375 -0.234375,0 -0.4375,0.1875 -0.4375,0.4375 0,0.234375 0.203125,0.421875 0.4375,0.421875 z m 0,0"
             id="path6696" />
        </g>
        <g
           id="use2314"
           transform="translate(142.2397,370.2803)">
          <path
             style="stroke:none"
             d="m 3.578125,-5.40625 h -0.15625 c -1.671875,0 -3.078125,1.625 -3.078125,3.3125 0,0.96875 0.53125,2.203125 1.6875,2.203125 1,0 1.65625,-0.953125 1.65625,-1.875 0,-0.78125 -0.484375,-1.578125 -1.34375,-1.578125 -0.40625,0 -0.796875,0.15625 -1.125,0.390625 0.265625,-1.125 1.125,-2.265625 2.359375,-2.3125 z M 2.984375,-1.375 c 0,0.546875 -0.21875,1.25 -0.890625,1.25 -0.734375,0 -1,-1.15625 -1,-1.734375 0,-0.34375 0.03125,-0.546875 0.078125,-0.8125 0.25,-0.171875 0.53125,-0.34375 0.796875,-0.34375 0.78125,0 1.015625,1.03125 1.015625,1.640625 z m 0,0"
             id="path6524" />
        </g>
      </g>
      <g
         style="fill:#000000;fill-opacity:1"
         id="g2324">
        <g
           id="use2318"
           transform="translate(136.2397,355.96591)">
          <path
             style="stroke:none"
             d="m 2,-5.40625 c -0.75,0 -1.71875,0.84375 -1.71875,2.765625 0,1.90625 0.96875,2.75 1.71875,2.75 0.75,0 1.71875,-0.84375 1.71875,-2.75 C 3.71875,-4.5625 2.75,-5.40625 2,-5.40625 Z m 0,0.234375 c 0.859375,0 0.9375,1.65625 0.9375,2.265625 C 2.9375,-1.125 2.625,-0.125 2,-0.125 1.171875,-0.125 1.0625,-1.78125 1.0625,-2.390625 1.0625,-4.1875 1.375,-5.171875 2,-5.171875 Z m 0,0"
             id="path6744" />
        </g>
        <g
           id="use2320"
           transform="translate(140.2397,355.96591)">
          <path
             style="stroke:none"
             d="m 1,0.109375 c 0.234375,0 0.4375,-0.1875 0.4375,-0.421875 0,-0.25 -0.203125,-0.4375 -0.4375,-0.4375 -0.234375,0 -0.4375,0.1875 -0.4375,0.4375 0,0.234375 0.203125,0.421875 0.4375,0.421875 z m 0,0"
             id="path6700" />
        </g>
        <g
           id="use2322"
           transform="translate(142.2397,355.96591)">
          <path
             style="stroke:none"
             d="m 0.796875,-5.296875 -0.5,1.25 L 0.40625,-4 C 0.703125,-4.5 0.984375,-4.65625 1.515625,-4.65625 H 3.03125 L 1.4375,0.109375 H 1.875 L 3.640625,-5.15625 v -0.140625 z m 0,0"
             id="path6668" />
        </g>
      </g>
      <g
         style="fill:#000000;fill-opacity:1"
         id="g2332">
        <g
           id="use2326"
           transform="translate(136.2397,341.64191)">
          <path
             style="stroke:none"
             d="m 2,-5.40625 c -0.75,0 -1.71875,0.84375 -1.71875,2.765625 0,1.90625 0.96875,2.75 1.71875,2.75 0.75,0 1.71875,-0.84375 1.71875,-2.75 C 3.71875,-4.5625 2.75,-5.40625 2,-5.40625 Z m 0,0.234375 c 0.859375,0 0.9375,1.65625 0.9375,2.265625 C 2.9375,-1.125 2.625,-0.125 2,-0.125 1.171875,-0.125 1.0625,-1.78125 1.0625,-2.390625 1.0625,-4.1875 1.375,-5.171875 2,-5.171875 Z m 0,0"
             id="path6748" />
        </g>
        <g
           id="use2328"
           transform="translate(140.2397,341.64191)">
          <path
             style="stroke:none"
             d="m 1,0.109375 c 0.234375,0 0.4375,-0.1875 0.4375,-0.421875 0,-0.25 -0.203125,-0.4375 -0.4375,-0.4375 -0.234375,0 -0.4375,0.1875 -0.4375,0.4375 0,0.234375 0.203125,0.421875 0.4375,0.421875 z m 0,0"
             id="path6704" />
        </g>
        <g
           id="use2330"
           transform="translate(142.2397,341.64191)">
          <path
             style="stroke:none"
             d="M 1.53125,-2.671875 C 1.046875,-2.3125 0.484375,-1.84375 0.484375,-1.1875 c 0,0.34375 0.3125,1.296875 1.515625,1.296875 0.8125,0 1.53125,-0.515625 1.53125,-1.375 C 3.53125,-2.03125 2.875,-2.5 2.328125,-2.9375 c 0.46875,-0.28125 1.09375,-0.703125 1.09375,-1.3125 0,-0.5625 -0.515625,-1.15625 -1.453125,-1.15625 -0.71875,0 -1.421875,0.46875 -1.421875,1.25 0,0.6875 0.5,1.078125 0.984375,1.484375 z m 0.609375,-0.40625 c -0.40625,-0.375 -1.03125,-0.71875 -1.03125,-1.34375 0,-0.453125 0.453125,-0.75 0.875,-0.75 0.546875,0 0.875,0.3125 0.875,0.859375 0,0.59375 -0.3125,0.859375 -0.71875,1.234375 z m -0.421875,0.5625 c 0.9375,0.75 1.25,1.140625 1.25,1.59375 0,0.5 -0.4375,0.796875 -0.90625,0.796875 -0.640625,0 -0.984375,-0.5 -0.984375,-1.109375 0,-0.5 0.234375,-0.984375 0.640625,-1.28125 z m 0,0"
             id="path6664" />
        </g>
      </g>
      <g
         style="fill:#000000;fill-opacity:1"
         id="g2340">
        <g
           id="use2334"
           transform="translate(136.2397,327.32669)">
          <path
             style="stroke:none"
             d="m 2,-5.40625 c -0.75,0 -1.71875,0.84375 -1.71875,2.765625 0,1.90625 0.96875,2.75 1.71875,2.75 0.75,0 1.71875,-0.84375 1.71875,-2.75 C 3.71875,-4.5625 2.75,-5.40625 2,-5.40625 Z m 0,0.234375 c 0.859375,0 0.9375,1.65625 0.9375,2.265625 C 2.9375,-1.125 2.625,-0.125 2,-0.125 1.171875,-0.125 1.0625,-1.78125 1.0625,-2.390625 1.0625,-4.1875 1.375,-5.171875 2,-5.171875 Z m 0,0"
             id="path6752" />
        </g>
        <g
           id="use2336"
           transform="translate(140.2397,327.32669)">
          <path
             style="stroke:none"
             d="m 1,0.109375 c 0.234375,0 0.4375,-0.1875 0.4375,-0.421875 0,-0.25 -0.203125,-0.4375 -0.4375,-0.4375 -0.234375,0 -0.4375,0.1875 -0.4375,0.4375 0,0.234375 0.203125,0.421875 0.4375,0.421875 z m 0,0"
             id="path6708" />
        </g>
        <g
           id="use2338"
           transform="translate(142.2397,327.32669)">
          <path
             style="stroke:none"
             d="m 0.421875,0.109375 h 0.125 c 1.875,0 3.109375,-1.8125 3.109375,-3.296875 0,-0.984375 -0.546875,-2.21875 -1.6875,-2.21875 -1.015625,0 -1.65625,0.953125 -1.65625,1.890625 0,0.78125 0.484375,1.59375 1.34375,1.59375 0.40625,0 0.796875,-0.1875 1.125,-0.390625 -0.296875,1.125 -1.09375,2.28125 -2.359375,2.28125 z M 2.84375,-2.609375 C 2.625,-2.421875 2.25,-2.28125 1.96875,-2.28125 c -0.75,0 -0.953125,-1.03125 -0.953125,-1.609375 0,-0.578125 0.203125,-1.28125 0.890625,-1.28125 0.75,0 1,1.1875 1,1.765625 0,0.28125 -0.03125,0.53125 -0.0625,0.796875 z m 0,0"
             id="path6516" />
        </g>
      </g>
      <g
         style="fill:#000000;fill-opacity:1"
         id="g2348">
        <g
           id="use2342"
           transform="translate(136.2397,313.37711)">
          <path
             style="stroke:none"
             d="m 0.9375,-4.78125 0.046875,0.125 C 1.125,-4.71875 1.25,-4.78125 1.40625,-4.78125 c 0.234375,0 0.3125,0.203125 0.3125,0.75 v 3.1875 c 0,0.609375 -0.078125,0.6875 -0.6875,0.703125 V 0 h 2 v -0.140625 c -0.671875,0 -0.671875,-0.265625 -0.671875,-0.90625 V -5.40625 H 2.21875 Z m 0,0"
             id="path6508" />
        </g>
        <g
           id="use2344"
           transform="translate(140.2397,313.37711)">
          <path
             style="stroke:none"
             d="m 1,0.109375 c 0.234375,0 0.4375,-0.1875 0.4375,-0.421875 0,-0.25 -0.203125,-0.4375 -0.4375,-0.4375 -0.234375,0 -0.4375,0.1875 -0.4375,0.4375 0,0.234375 0.203125,0.421875 0.4375,0.421875 z m 0,0"
             id="path6712" />
        </g>
        <g
           id="use2346"
           transform="translate(142.2397,313.37711)">
          <path
             style="stroke:none"
             d="m 2,-5.40625 c -0.75,0 -1.71875,0.84375 -1.71875,2.765625 0,1.90625 0.96875,2.75 1.71875,2.75 0.75,0 1.71875,-0.84375 1.71875,-2.75 C 3.71875,-4.5625 2.75,-5.40625 2,-5.40625 Z m 0,0.234375 c 0.859375,0 0.9375,1.65625 0.9375,2.265625 C 2.9375,-1.125 2.625,-0.125 2,-0.125 1.171875,-0.125 1.0625,-1.78125 1.0625,-2.390625 1.0625,-4.1875 1.375,-5.171875 2,-5.171875 Z m 0,0"
             id="path6756" />
        </g>
      </g>
      <g
         style="fill:#000000;fill-opacity:1"
         id="g2386">
        <g
           id="use2350"
           transform="translate(182.63969,320.9411)">
          <path
             style="stroke:none"
             d="m 1.65625,-2.84375 v -1.4375 c 0,-0.671875 0,-0.875 0.75,-0.875 v -0.140625 h -2.25 v 0.140625 c 0.75,0 0.75,0.203125 0.75,0.875 v 3.265625 c 0,0.671875 0,0.875 -0.75,0.875 V 0 h 2.25 v -0.140625 c -0.75,0 -0.75,-0.203125 -0.75,-0.875 v -1.53125 H 4.125 v 1.53125 c 0,0.671875 0,0.875 -0.75,0.875 V 0 h 2.25 v -0.140625 c -0.75,0 -0.75,-0.203125 -0.75,-0.875 V -4.28125 c 0,-0.671875 0,-0.875 0.75,-0.875 v -0.140625 h -2.25 v 0.140625 c 0.75,0 0.75,0.203125 0.75,0.875 v 1.4375 z m 0,0"
             id="path6568" />
        </g>
        <g
           id="use2352"
           transform="translate(188.4157,320.9411)">
          <path
             style="stroke:none"
             d="m 2.015625,-3.6875 c -1.0625,0 -1.75,0.953125 -1.75,1.9375 0,0.953125 0.671875,1.859375 1.6875,1.859375 1.265625,0 1.78125,-1.15625 1.78125,-1.984375 0,-0.96875 -0.71875,-1.8125 -1.71875,-1.8125 z M 1.875,-3.421875 c 0.890625,0 1.125,1.1875 1.125,1.890625 0,0.5625 -0.140625,1.375 -0.859375,1.375 C 1.25,-0.15625 1,-1.40625 1,-2.09375 1,-3.125 1.484375,-3.421875 1.875,-3.421875 Z m 0,0"
             id="path6644" />
        </g>
        <g
           id="use2354"
           transform="translate(192.4157,320.9411)">
          <path
             style="stroke:none"
             d="M 1.296875,-3.6875 H 1.125 L 0.046875,-3.25 0.09375,-3.109375 c 0.078125,-0.03125 0.1875,-0.0625 0.28125,-0.0625 0.109375,0 0.265625,0 0.265625,0.546875 v 1.9375 c 0,0.484375 -0.171875,0.53125 -0.546875,0.546875 V 0 h 1.859375 v -0.140625 c -0.65625,0 -0.65625,-0.265625 -0.65625,-0.90625 v -1.5 C 1.375,-2.703125 1.625,-3.15625 1.8125,-3.15625 c 0.171875,0 0.3125,0.265625 0.5625,0.265625 0.1875,0 0.34375,-0.171875 0.34375,-0.359375 0,-0.265625 -0.265625,-0.4375 -0.5,-0.4375 -0.421875,0 -0.734375,0.484375 -0.90625,0.765625 H 1.296875 Z m 0,0"
             id="path6640" />
        </g>
        <g
           id="use2356"
           transform="translate(195.0797,320.9411)">
          <path
             style="stroke:none"
             d="M 1.46875,-3.6875 H 1.296875 L 0.21875,-3.25 0.265625,-3.109375 c 0.09375,-0.03125 0.1875,-0.0625 0.28125,-0.0625 0.109375,0 0.28125,0 0.28125,0.546875 v 1.9375 c 0,0.484375 -0.1875,0.53125 -0.5625,0.546875 V 0 H 2.03125 V -0.140625 C 1.65625,-0.15625 1.46875,-0.203125 1.46875,-0.6875 Z M 0.75,-5.15625 c 0,0.21875 0.171875,0.390625 0.390625,0.390625 0.21875,0 0.390625,-0.171875 0.390625,-0.390625 0,-0.21875 -0.171875,-0.390625 -0.390625,-0.390625 C 0.921875,-5.546875 0.75,-5.375 0.75,-5.15625 Z m 0,0"
             id="path6604" />
        </g>
        <g
           id="use2358"
           transform="translate(197.3037,320.9411)">
          <path
             style="stroke:none"
             d="M 3.359375,-1.09375 H 3.203125 C 3.125,-0.296875 2.9375,-0.265625 2.21875,-0.265625 H 1.015625 L 3.40625,-3.4375 v -0.140625 h -3 v 1 h 0.140625 c 0.0625,-0.71875 0.25,-0.71875 0.90625,-0.71875 h 1.0625 l -2.375,3.15625 V 0 h 3.15625 z m 0,0"
             id="path6600" />
        </g>
        <g
           id="use2360"
           transform="translate(200.8557,320.9411)">
          <path
             style="stroke:none"
             d="m 2.015625,-3.6875 c -1.0625,0 -1.75,0.953125 -1.75,1.9375 0,0.953125 0.671875,1.859375 1.6875,1.859375 1.265625,0 1.78125,-1.15625 1.78125,-1.984375 0,-0.96875 -0.71875,-1.8125 -1.71875,-1.8125 z M 1.875,-3.421875 c 0.890625,0 1.125,1.1875 1.125,1.890625 0,0.5625 -0.140625,1.375 -0.859375,1.375 C 1.25,-0.15625 1,-1.40625 1,-2.09375 1,-3.125 1.484375,-3.421875 1.875,-3.421875 Z m 0,0"
             id="path6648" />
        </g>
        <g
           id="use2362"
           transform="translate(204.8557,320.9411)">
          <path
             style="stroke:none"
             d="M 1.296875,-3.6875 H 1.125 L 0.046875,-3.25 0.09375,-3.109375 c 0.078125,-0.03125 0.1875,-0.0625 0.28125,-0.0625 0.109375,0 0.265625,0 0.265625,0.546875 v 1.9375 c 0,0.484375 -0.171875,0.53125 -0.546875,0.546875 V 0 h 1.75 V -0.140625 C 1.484375,-0.15625 1.296875,-0.203125 1.296875,-0.6875 v -2.015625 c 0.265625,-0.265625 0.53125,-0.5 0.90625,-0.5 0.234375,0 0.5625,0.078125 0.5625,0.859375 v 1.65625 c 0,0.484375 -0.1875,0.53125 -0.546875,0.546875 V 0 h 1.75 V -0.140625 C 3.59375,-0.15625 3.421875,-0.203125 3.421875,-0.6875 v -1.796875 c 0,-0.59375 -0.265625,-1.203125 -0.90625,-1.203125 -0.453125,0 -0.765625,0.25 -1.21875,0.75 z m 0,0"
             id="path6588" />
        </g>
        <g
           id="use2364"
           transform="translate(208.8557,320.9411)">
          <path
             style="stroke:none"
             d="M 1.265625,-3.578125 V -4.75 H 1.15625 C 0.859375,-4.015625 0.5,-3.625 0.0625,-3.453125 V -3.28125 H 0.625 v 2.46875 c 0,0.6875 0.421875,0.859375 0.671875,0.859375 0.453125,0 0.78125,-0.375 0.921875,-0.765625 H 2.0625 c -0.046875,0.171875 -0.234375,0.3125 -0.421875,0.3125 -0.375,0 -0.375,-0.359375 -0.375,-0.6875 v -2.1875 h 0.84375 v -0.296875 z m 0,0"
             id="path6584" />
        </g>
        <g
           id="use2366"
           transform="translate(211.0797,320.9411)">
          <path
             style="stroke:none"
             d="m 2.90625,-2.71875 c 0,-0.21875 0,-0.96875 -1.171875,-0.96875 -1.09375,0 -1.328125,0.671875 -1.328125,0.890625 0,0.21875 0.109375,0.390625 0.328125,0.390625 0.25,0 0.328125,-0.1875 0.328125,-0.5625 0,-0.328125 0.28125,-0.484375 0.53125,-0.484375 0.625,0 0.65625,0.53125 0.65625,1.125 -0.65625,0.28125 -1.984375,0.609375 -1.984375,1.5 0,0.53125 0.3125,0.9375 0.859375,0.9375 0.484375,0 0.765625,-0.3125 1.125,-0.578125 0,0.296875 0.09375,0.578125 0.4375,0.578125 0.34375,0 0.65625,-0.34375 0.828125,-0.578125 v -0.234375 c -0.09375,0.109375 -0.28125,0.3125 -0.40625,0.3125 -0.203125,0 -0.203125,-0.25 -0.203125,-0.609375 z M 2.25,-0.734375 c -0.171875,0.15625 -0.515625,0.390625 -0.765625,0.390625 -0.34375,0 -0.5625,-0.328125 -0.5625,-0.640625 C 0.921875,-1.59375 1.71875,-1.875 2.25,-2.09375 Z m 0,0"
             id="path6576" />
        </g>
        <g
           id="use2368"
           transform="translate(214.6317,320.9411)">
          <path
             style="stroke:none"
             d="M 1.46875,-5.546875 H 1.296875 l -1.078125,0.4375 0.046875,0.140625 c 0.09375,-0.046875 0.1875,-0.078125 0.28125,-0.078125 0.109375,0 0.28125,0 0.28125,0.546875 v 3.8125 c 0,0.484375 -0.1875,0.53125 -0.5625,0.546875 V 0 H 2.03125 v -0.140625 c -0.375,-0.015625 -0.5625,-0.0625 -0.5625,-0.546875 z m 0,0"
             id="path6624" />
        </g>
        <g
           id="use2370"
           transform="translate(216.8557,320.9411)">
          <path
             style="stroke:none"
             d=""
             id="path6656" />
        </g>
        <g
           id="use2372"
           transform="translate(218.8557,320.9411)">
          <path
             style="stroke:none"
             d="M 3.171875,-1.421875 C 2.984375,-0.921875 2.640625,-0.5 2.0625,-0.5 1.25,-0.5 0.890625,-1.4375 0.890625,-2.125 c 0,-0.59375 0.28125,-1.296875 0.96875,-1.296875 0.3125,0 0.5,0.15625 0.53125,0.46875 C 2.421875,-2.65625 2.5,-2.5 2.828125,-2.5 3.03125,-2.5 3.1875,-2.609375 3.1875,-2.828125 3.1875,-3.375 2.453125,-3.6875 1.984375,-3.6875 c -0.890625,0 -1.71875,0.734375 -1.71875,1.890625 0,1.09375 0.625,1.90625 1.53125,1.90625 0.8125,0 1.359375,-0.71875 1.484375,-1.46875 z m 0,0"
             id="path6572" />
        </g>
        <g
           id="use2374"
           transform="translate(222.4077,320.9411)">
          <path
             style="stroke:none"
             d="m 3.421875,-2.484375 c 0,-0.59375 -0.265625,-1.203125 -0.90625,-1.203125 -0.453125,0 -0.765625,0.25 -1.21875,0.75 V -5.546875 H 1.125 l -1.078125,0.4375 0.046875,0.140625 c 0.078125,-0.046875 0.1875,-0.078125 0.28125,-0.078125 0.109375,0 0.265625,0 0.265625,0.546875 v 3.8125 c 0,0.484375 -0.171875,0.53125 -0.546875,0.546875 V 0 h 1.75 V -0.140625 C 1.484375,-0.15625 1.296875,-0.203125 1.296875,-0.6875 v -2.015625 c 0.265625,-0.265625 0.53125,-0.5 0.90625,-0.5 0.234375,0 0.5625,0.078125 0.5625,0.859375 v 1.65625 c 0,0.484375 -0.1875,0.53125 -0.546875,0.546875 V 0 h 1.75 V -0.140625 C 3.59375,-0.15625 3.421875,-0.203125 3.421875,-0.6875 Z m 0,0"
             id="path6608" />
        </g>
        <g
           id="use2376"
           transform="translate(226.4077,320.9411)">
          <path
             style="stroke:none"
             d="m 2.90625,-2.71875 c 0,-0.21875 0,-0.96875 -1.171875,-0.96875 -1.09375,0 -1.328125,0.671875 -1.328125,0.890625 0,0.21875 0.109375,0.390625 0.328125,0.390625 0.25,0 0.328125,-0.1875 0.328125,-0.5625 0,-0.328125 0.28125,-0.484375 0.53125,-0.484375 0.625,0 0.65625,0.53125 0.65625,1.125 -0.65625,0.28125 -1.984375,0.609375 -1.984375,1.5 0,0.53125 0.3125,0.9375 0.859375,0.9375 0.484375,0 0.765625,-0.3125 1.125,-0.578125 0,0.296875 0.09375,0.578125 0.4375,0.578125 0.34375,0 0.65625,-0.34375 0.828125,-0.578125 v -0.234375 c -0.09375,0.109375 -0.28125,0.3125 -0.40625,0.3125 -0.203125,0 -0.203125,-0.25 -0.203125,-0.609375 z M 2.25,-0.734375 c -0.171875,0.15625 -0.515625,0.390625 -0.765625,0.390625 -0.34375,0 -0.5625,-0.328125 -0.5625,-0.640625 C 0.921875,-1.59375 1.71875,-1.875 2.25,-2.09375 Z m 0,0"
             id="path6580" />
        </g>
        <g
           id="use2378"
           transform="translate(229.9597,320.9411)">
          <path
             style="stroke:none"
             d="M 1.296875,-3.6875 H 1.125 L 0.046875,-3.25 0.09375,-3.109375 c 0.078125,-0.03125 0.1875,-0.0625 0.28125,-0.0625 0.109375,0 0.265625,0 0.265625,0.546875 v 1.9375 c 0,0.484375 -0.171875,0.53125 -0.546875,0.546875 V 0 h 1.75 V -0.140625 C 1.484375,-0.15625 1.296875,-0.203125 1.296875,-0.6875 v -2.015625 c 0.265625,-0.265625 0.53125,-0.5 0.90625,-0.5 0.234375,0 0.5625,0.078125 0.5625,0.859375 v 1.65625 c 0,0.484375 -0.1875,0.53125 -0.546875,0.546875 V 0 h 1.75 V -0.140625 C 3.59375,-0.15625 3.421875,-0.203125 3.421875,-0.6875 v -1.796875 c 0,-0.59375 -0.265625,-1.203125 -0.90625,-1.203125 -0.453125,0 -0.765625,0.25 -1.21875,0.75 z m 0,0"
             id="path6592" />
        </g>
        <g
           id="use2380"
           transform="translate(233.9597,320.9411)">
          <path
             style="stroke:none"
             d="M 1.296875,-3.6875 H 1.125 L 0.046875,-3.25 0.09375,-3.109375 c 0.078125,-0.03125 0.1875,-0.0625 0.28125,-0.0625 0.109375,0 0.265625,0 0.265625,0.546875 v 1.9375 c 0,0.484375 -0.171875,0.53125 -0.546875,0.546875 V 0 h 1.75 V -0.140625 C 1.484375,-0.15625 1.296875,-0.203125 1.296875,-0.6875 v -2.015625 c 0.265625,-0.265625 0.53125,-0.5 0.90625,-0.5 0.234375,0 0.5625,0.078125 0.5625,0.859375 v 1.65625 c 0,0.484375 -0.1875,0.53125 -0.546875,0.546875 V 0 h 1.75 V -0.140625 C 3.59375,-0.15625 3.421875,-0.203125 3.421875,-0.6875 v -1.796875 c 0,-0.59375 -0.265625,-1.203125 -0.90625,-1.203125 -0.453125,0 -0.765625,0.25 -1.21875,0.75 z m 0,0"
             id="path6596" />
        </g>
        <g
           id="use2382"
           transform="translate(237.9597,320.9411)">
          <path
             style="stroke:none"
             d="m 3.296875,-2.21875 c 0,-0.875 -0.546875,-1.46875 -1.375,-1.46875 -1.125,0 -1.65625,0.921875 -1.65625,1.953125 0,1.109375 0.6875,1.84375 1.5625,1.84375 0.8125,0 1.328125,-0.671875 1.46875,-1.40625 l -0.125,-0.09375 c -0.1875,0.53125 -0.484375,0.859375 -1.0625,0.859375 -0.875,0 -1.296875,-0.890625 -1.296875,-1.6875 z m -2.46875,-0.25 c 0.03125,-0.453125 0.359375,-0.9375 0.828125,-0.9375 0.578125,0 0.828125,0.453125 0.828125,0.9375 z m 0,0"
             id="path6612" />
        </g>
        <g
           id="use2384"
           transform="translate(241.5117,320.9411)">
          <path
             style="stroke:none"
             d="M 1.46875,-5.546875 H 1.296875 l -1.078125,0.4375 0.046875,0.140625 c 0.09375,-0.046875 0.1875,-0.078125 0.28125,-0.078125 0.109375,0 0.28125,0 0.28125,0.546875 v 3.8125 c 0,0.484375 -0.1875,0.53125 -0.5625,0.546875 V 0 H 2.03125 v -0.140625 c -0.375,-0.015625 -0.5625,-0.0625 -0.5625,-0.546875 z m 0,0"
             id="path6628" />
        </g>
      </g>
      <g
         style="fill:#000000;fill-opacity:1"
         id="g2392">
        <g
           id="use2388"
           transform="translate(182.63969,331.7363)">
          <path
             style="stroke:none"
             d="M 1.21875,-2.625 C 2.75,-2.625 2.75,-1.40625 2.75,-1.328125 2.75,-0.78125 2.359375,-0.25 1.78125,-0.25 c -0.5625,0 -0.734375,-0.359375 -1.140625,-0.359375 -0.171875,0 -0.328125,0.125 -0.328125,0.296875 0,0.375 0.640625,0.421875 0.90625,0.421875 1.5,0 2.125,-0.96875 2.125,-1.84375 0,-0.6875 -0.375,-1.15625 -1,-1.40625 C 2.6875,-3.40625 3.078125,-3.875 3.078125,-4.3125 c 0,-0.34375 -0.28125,-1.09375 -1.25,-1.09375 -0.71875,0 -1.1875,0.484375 -1.421875,1.125 l 0.125,0.0625 c 0.203125,-0.359375 0.578125,-0.65625 1,-0.65625 0.546875,0 0.890625,0.375 0.890625,0.90625 0,0.703125 -0.5625,1.125 -1.203125,1.21875 z m 0,0"
             id="path6536" />
        </g>
        <g
           id="use2390"
           transform="translate(186.63969,331.7363)">
          <path
             style="stroke:none"
             d="m 2,-5.40625 c -0.75,0 -1.71875,0.84375 -1.71875,2.765625 0,1.90625 0.96875,2.75 1.71875,2.75 0.75,0 1.71875,-0.84375 1.71875,-2.75 C 3.71875,-4.5625 2.75,-5.40625 2,-5.40625 Z m 0,0.234375 c 0.859375,0 0.9375,1.65625 0.9375,2.265625 C 2.9375,-1.125 2.625,-0.125 2,-0.125 1.171875,-0.125 1.0625,-1.78125 1.0625,-2.390625 1.0625,-4.1875 1.375,-5.171875 2,-5.171875 Z m 0,0"
             id="path6760" />
        </g>
      </g>
      <g
         style="fill:#000000;fill-opacity:1"
         id="g2396">
        <g
           id="use2394"
           transform="translate(190.63969,331.7363)">
          <path
             style="stroke:none"
             d="m 2.796875,-4.28125 c 0,-0.65625 -0.546875,-1.203125 -1.203125,-1.203125 -0.65625,0 -1.203125,0.546875 -1.1875,1.203125 0,0.671875 0.53125,1.203125 1.1875,1.203125 0.65625,0 1.203125,-0.53125 1.203125,-1.203125 z m -0.3125,0 c 0,0.484375 -0.40625,0.875 -0.890625,0.875 -0.484375,0 -0.875,-0.390625 -0.875,-0.875 0,-0.484375 0.390625,-0.875 0.875,-0.875 0.484375,0 0.890625,0.390625 0.890625,0.875 z m 0,0"
             id="path6564" />
        </g>
      </g>
      <g
         style="fill:#000000;fill-opacity:1"
         id="g2410">
        <g
           id="use2398"
           transform="translate(193.83971,331.7363)">
          <path
             style="stroke:none"
             d=""
             id="path6660" />
        </g>
        <g
           id="use2400"
           transform="translate(195.83971,331.7363)">
          <path
             style="stroke:none"
             d="M 2.578125,-3.6875 H 2.4375 c -0.03125,0.09375 -0.0625,0.15625 -0.171875,0.15625 -0.09375,0 -0.1875,-0.046875 -0.296875,-0.0625 C 1.8125,-3.640625 1.6875,-3.6875 1.515625,-3.6875 c -0.640625,0 -1.109375,0.421875 -1.109375,1.078125 0,1.125 1.859375,1 1.859375,1.9375 C 2.265625,-0.3125 1.984375,-0.125 1.65625,-0.125 1.0625,-0.125 0.625,-0.65625 0.5625,-1.21875 H 0.421875 V 0.0625 H 0.5625 c 0.015625,-0.078125 0.0625,-0.109375 0.140625,-0.109375 0.0625,0 0.15625,0.015625 0.203125,0.03125 0.234375,0.078125 0.484375,0.125 0.71875,0.125 0.609375,0 1.21875,-0.40625 1.21875,-1.0625 0,-1.25 -1.96875,-1.140625 -1.96875,-2 0,-0.328125 0.3125,-0.5 0.609375,-0.5 0.625,0 0.828125,0.453125 0.953125,0.984375 h 0.140625 z m 0,0"
             id="path6636" />
        </g>
        <g
           id="use2402"
           transform="translate(198.95171,331.7363)">
          <path
             style="stroke:none"
             d="M 1.46875,-5.546875 H 1.296875 l -1.078125,0.4375 0.046875,0.140625 c 0.09375,-0.046875 0.1875,-0.078125 0.28125,-0.078125 0.109375,0 0.28125,0 0.28125,0.546875 v 3.8125 c 0,0.484375 -0.1875,0.53125 -0.5625,0.546875 V 0 H 2.03125 v -0.140625 c -0.375,-0.015625 -0.5625,-0.0625 -0.5625,-0.546875 z m 0,0"
             id="path6632" />
        </g>
        <g
           id="use2404"
           transform="translate(201.1757,331.7363)">
          <path
             style="stroke:none"
             d="m 2.015625,-3.6875 c -1.0625,0 -1.75,0.953125 -1.75,1.9375 0,0.953125 0.671875,1.859375 1.6875,1.859375 1.265625,0 1.78125,-1.15625 1.78125,-1.984375 0,-0.96875 -0.71875,-1.8125 -1.71875,-1.8125 z M 1.875,-3.421875 c 0.890625,0 1.125,1.1875 1.125,1.890625 0,0.5625 -0.140625,1.375 -0.859375,1.375 C 1.25,-0.15625 1,-1.40625 1,-2.09375 1,-3.125 1.484375,-3.421875 1.875,-3.421875 Z m 0,0"
             id="path6652" />
        </g>
        <g
           id="use2406"
           transform="translate(205.1757,331.7363)">
          <path
             style="stroke:none"
             d="M 0.578125,1.03125 C 0.578125,1.5 0.4375,1.546875 -0.03125,1.5625 v 0.140625 h 1.875 V 1.5625 C 1.375,1.546875 1.234375,1.5 1.234375,1.03125 v -1.234375 c 0.21875,0.234375 0.515625,0.3125 0.828125,0.3125 1.109375,0 1.65625,-1.046875 1.65625,-2.03125 0,-0.8125 -0.421875,-1.765625 -1.34375,-1.765625 -0.546875,0 -0.890625,0.421875 -1.125,0.828125 H 1.234375 V -3.6875 H 1.0625 l -1.09375,0.4375 0.0625,0.140625 c 0.078125,-0.03125 0.1875,-0.0625 0.265625,-0.0625 0.125,0 0.28125,0 0.28125,0.546875 z m 0.65625,-3.625 C 1.453125,-2.859375 1.6875,-3.125 2.0625,-3.125 c 0.734375,0 0.96875,0.96875 0.96875,1.546875 C 3.03125,-0.96875 2.828125,-0.125 2.078125,-0.125 1.859375,-0.125 1.625,-0.1875 1.46875,-0.359375 1.234375,-0.5625 1.234375,-0.8125 1.234375,-1.109375 Z m 0,0"
             id="path6620" />
        </g>
        <g
           id="use2408"
           transform="translate(209.1757,331.7363)">
          <path
             style="stroke:none"
             d="m 3.296875,-2.21875 c 0,-0.875 -0.546875,-1.46875 -1.375,-1.46875 -1.125,0 -1.65625,0.921875 -1.65625,1.953125 0,1.109375 0.6875,1.84375 1.5625,1.84375 0.8125,0 1.328125,-0.671875 1.46875,-1.40625 l -0.125,-0.09375 c -0.1875,0.53125 -0.484375,0.859375 -1.0625,0.859375 -0.875,0 -1.296875,-0.890625 -1.296875,-1.6875 z m -2.46875,-0.25 c 0.03125,-0.453125 0.359375,-0.9375 0.828125,-0.9375 0.578125,0 0.828125,0.453125 0.828125,0.9375 z m 0,0"
             id="path6616" />
        </g>
      </g>
      <path
         style="fill:none;stroke:#000000;stroke-width:0.331;stroke-linecap:square;stroke-linejoin:miter;stroke-miterlimit:5;stroke-dasharray:0.0085, 1.2411;stroke-opacity:1"
         d="m 156.41406,381.98122 h 22.47656"
         transform="matrix(1,0,0,-1,0,700.157)"
         id="path2412" />
      <path
         style="fill:none;stroke:#000000;stroke-width:0.331;stroke-linecap:butt;stroke-linejoin:miter;stroke-miterlimit:5;stroke-opacity:1"
         d="m 156.41406,371.04762 h 22.47656"
         transform="matrix(1,0,0,-1,0,700.157)"
         id="path2414" />
      <g
         style="fill:#000000;fill-opacity:1"
         id="g2418">
        <g
           id="use2416"
           transform="translate(332.9025,412.9805)">
          <path
             style="stroke:none"
             d="M 2.078125,-4.5 H 1.90625 C 1.5,-3.84375 1.203125,-3.5 0.546875,-3.34375 l -0.03125,0.15625 h 0.59375 L 0.4375,-0.828125 c -0.03125,0.125 -0.109375,0.421875 -0.109375,0.5625 0,0.21875 0.15625,0.359375 0.375,0.359375 0.421875,0 0.90625,-0.5625 1.125,-0.890625 L 1.6875,-0.890625 c -0.109375,0.15625 -0.421875,0.625 -0.65625,0.625 -0.078125,0 -0.109375,-0.09375 -0.109375,-0.140625 0,-0.140625 0.109375,-0.4375 0.140625,-0.578125 L 1.703125,-3.1875 H 2.3125 l 0.078125,-0.25 h -0.625 z m 0,0"
             id="path6552" />
        </g>
      </g>
      <g
         style="fill:#000000;fill-opacity:1"
         id="g2422">
        <g
           id="use2420"
           transform="translate(335.1265,410.9805)">
          <path
             style="stroke:none"
             d="m 1.390625,-2.953125 c -0.25,0.171875 -0.96875,0.09375 -0.96875,0.5 0,0.109375 0.109375,0.203125 0.21875,0.203125 0.34375,0 0.515625,-0.46875 0.8125,-0.59375 0,0.296875 -0.1875,0.5625 -0.1875,0.78125 0,0.15625 0.0625,0.328125 0.234375,0.328125 0.171875,0 0.234375,-0.171875 0.234375,-0.328125 0,-0.21875 -0.1875,-0.484375 -0.1875,-0.78125 0.296875,0.125 0.46875,0.59375 0.8125,0.59375 0.109375,0 0.21875,-0.09375 0.21875,-0.203125 0,-0.40625 -0.71875,-0.328125 -0.96875,-0.5 0.25,-0.171875 0.96875,-0.09375 0.96875,-0.484375 0,-0.125 -0.109375,-0.21875 -0.21875,-0.21875 -0.34375,0 -0.515625,0.46875 -0.8125,0.59375 0,-0.296875 0.1875,-0.5625 0.1875,-0.78125 0,-0.15625 -0.0625,-0.3125 -0.234375,-0.3125 -0.171875,0 -0.234375,0.15625 -0.234375,0.3125 0,0.21875 0.1875,0.484375 0.1875,0.78125 -0.296875,-0.125 -0.46875,-0.59375 -0.8125,-0.59375 -0.109375,0 -0.21875,0.09375 -0.21875,0.21875 0,0.390625 0.71875,0.3125 0.96875,0.484375 z m 0,0"
             id="path6476" />
        </g>
      </g>
      <g
         style="fill:#000000;fill-opacity:1"
         id="g2426">
        <g
           id="use2424"
           transform="translate(355.5665,350.9585)">
          <path
             style="stroke:none"
             d="m 3.796875,-3.53125 -0.625,0.09375 -0.09375,0.34375 c -0.453125,1.625 -1.53125,2.71875 -1.9375,2.71875 -0.09375,0 -0.171875,-0.0625 -0.171875,-0.171875 0,-0.234375 0.140625,-0.609375 0.265625,-1.046875 0.375,-1.296875 0.40625,-1.4375 0.40625,-1.609375 0,-0.203125 -0.125,-0.328125 -0.34375,-0.328125 -0.40625,0 -0.859375,0.5 -1.0625,0.828125 l 0.125,0.09375 c 0.125,-0.15625 0.328125,-0.484375 0.53125,-0.484375 0.078125,0 0.09375,0.0625 0.09375,0.125 0,0.203125 -0.078125,0.40625 -0.421875,1.625 -0.078125,0.28125 -0.203125,0.703125 -0.203125,0.96875 0,0.265625 0.15625,0.46875 0.4375,0.46875 0.765625,0 1.578125,-1.328125 1.90625,-1.890625 L 2.71875,-1.78125 c -0.265625,0.8125 -0.390625,1.25 -0.390625,1.5625 0,0.203125 0.140625,0.3125 0.328125,0.3125 0.421875,0 0.84375,-0.546875 1.046875,-0.875 l -0.125,-0.078125 C 3.3125,-0.484375 3.1875,-0.34375 3.03125,-0.34375 c -0.09375,0 -0.109375,-0.0625 -0.109375,-0.125 0,-0.125 0.140625,-0.578125 0.1875,-0.734375 z m 0,0"
             id="path6540" />
        </g>
      </g>
      <g
         style="fill:#000000;fill-opacity:1"
         id="g2430">
        <g
           id="use2428"
           transform="translate(359.56641,352.9585)">
          <path
             style="stroke:none"
             d="m 2.84375,-2.65625 -0.453125,0.078125 -0.09375,0.359375 c -0.078125,-0.296875 -0.25,-0.4375 -0.484375,-0.4375 -0.75,0 -1.6875,1.109375 -1.6875,1.96875 0,0.328125 0.171875,0.765625 0.546875,0.765625 0.515625,0 0.96875,-0.59375 1.203125,-0.953125 H 1.890625 L 1.4375,0.6875 C 1.3125,1.09375 1.21875,1.171875 0.828125,1.171875 L 0.796875,1.28125 h 1.375 l 0.03125,-0.109375 c -0.125,0 -0.390625,0 -0.390625,-0.203125 0,-0.09375 0.0625,-0.265625 0.09375,-0.359375 z m -1.90625,2.375 c -0.234375,0 -0.3125,-0.265625 -0.3125,-0.453125 0,-0.640625 0.609375,-1.78125 1.171875,-1.78125 0.21875,0 0.375,0.203125 0.375,0.421875 0,0.78125 -0.796875,1.8125 -1.234375,1.8125 z m 0,0"
             id="path6556" />
        </g>
      </g>
    </g>
  </g>
</svg>
