<?xml version="1.0" encoding="utf-8" standalone="no"?>
<!DOCTYPE svg PUBLIC "-//W3C//DTD SVG 1.1//EN"
  "http://www.w3.org/Graphics/SVG/1.1/DTD/svg11.dtd">
<svg xmlns:xlink="http://www.w3.org/1999/xlink" width="421.080404pt" height="206.694722pt" viewBox="0 0 421.080404 206.694722" xmlns="http://www.w3.org/2000/svg" version="1.1">
 <metadata>
  <rdf:RDF xmlns:dc="http://purl.org/dc/elements/1.1/" xmlns:cc="http://creativecommons.org/ns#" xmlns:rdf="http://www.w3.org/1999/02/22-rdf-syntax-ns#">
   <cc:Work>
    <dc:type rdf:resource="http://purl.org/dc/dcmitype/StillImage"/>
    <dc:date>2023-06-23T17:21:08.728988</dc:date>
    <dc:format>image/svg+xml</dc:format>
    <dc:creator>
     <cc:Agent>
      <dc:title>Matplotlib v3.7.1, https://matplotlib.org/</dc:title>
     </cc:Agent>
    </dc:creator>
   </cc:Work>
  </rdf:RDF>
 </metadata>
 <defs>
  <style type="text/css">*{stroke-linejoin: round; stroke-linecap: butt}</style>
 </defs>
 <g id="figure_1">
  <g id="patch_1">
   <path d="M 0 206.694722 
L 421.080404 206.694722 
L 421.080404 0 
L 0 0 
z
" style="fill: #191919"/>
  </g>
  <g id="axes_1">
   <g id="patch_2">
    <path d="M 39.51649 175.38353 
L 418.080164 175.38353 
L 418.080164 3.00024 
L 39.51649 3.00024 
z
" style="fill: #191919"/>
   </g>
   <g id="PathCollection_1">
    <defs>
     <path id="C0_0_e389dc2bfe" d="M 0 3 
C 0.795609 3 1.55874 2.683901 2.12132 2.12132 
C 2.683901 1.55874 3 0.795609 3 -0 
C 3 -0.795609 2.683901 -1.55874 2.12132 -2.12132 
C 1.55874 -2.683901 0.795609 -3 0 -3 
C -0.795609 -3 -1.55874 -2.683901 -2.12132 -2.12132 
C -2.683901 -1.55874 -3 -0.795609 -3 0 
C -3 0.795609 -2.683901 1.55874 -2.12132 2.12132 
C -1.55874 2.683901 -0.795609 3 0 3 
z
"/>
    </defs>
    <g clip-path="url(#p1b88cfdaeb)">
     <use xlink:href="#C0_0_e389dc2bfe" x="319.292352" y="24.918211" style="fill: #5ea3c6"/>
    </g>
    <g clip-path="url(#p1b88cfdaeb)">
     <use xlink:href="#C0_0_e389dc2bfe" x="217.106188" y="45.250757" style="fill: #3d4389"/>
    </g>
    <g clip-path="url(#p1b88cfdaeb)">
     <use xlink:href="#C0_0_e389dc2bfe" x="233.756911" y="40.778495" style="fill: #3f6cb2"/>
    </g>
    <g clip-path="url(#p1b88cfdaeb)">
     <use xlink:href="#C0_0_e389dc2bfe" x="288.638047" y="20.436934" style="fill: #5ea3c6"/>
    </g>
    <g clip-path="url(#p1b88cfdaeb)">
     <use xlink:href="#C0_0_e389dc2bfe" x="348.855984" y="28.902675" style="fill: #8ccbd6"/>
    </g>
    <g clip-path="url(#p1b88cfdaeb)">
     <use xlink:href="#C0_0_e389dc2bfe" x="194.861161" y="48.453762" style="fill: #ff800e"/>
    </g>
    <g clip-path="url(#p1b88cfdaeb)">
     <use xlink:href="#C0_0_e389dc2bfe" x="327.681259" y="26.117392" style="fill: #3f6cb2"/>
    </g>
    <g clip-path="url(#p1b88cfdaeb)">
     <use xlink:href="#C0_0_e389dc2bfe" x="273.544827" y="36.812293" style="fill: #3d4389"/>
    </g>
    <g clip-path="url(#p1b88cfdaeb)">
     <use xlink:href="#C0_0_e389dc2bfe" x="261.190726" y="26.940308" style="fill: #ff800e"/>
    </g>
    <g clip-path="url(#p1b88cfdaeb)">
     <use xlink:href="#C0_0_e389dc2bfe" x="307.268736" y="35.126001" style="fill: #ffbc79"/>
    </g>
    <g clip-path="url(#p1b88cfdaeb)">
     <use xlink:href="#C0_0_e389dc2bfe" x="196.263975" y="68.974641" style="fill: #c85200"/>
    </g>
    <g clip-path="url(#p1b88cfdaeb)">
     <use xlink:href="#C0_0_e389dc2bfe" x="222.546482" y="41.382202" style="fill: #c85200"/>
    </g>
    <g clip-path="url(#p1b88cfdaeb)">
     <use xlink:href="#C0_0_e389dc2bfe" x="338.576214" y="23.271995" style="fill: #3f6cb2"/>
    </g>
    <g clip-path="url(#p1b88cfdaeb)">
     <use xlink:href="#C0_0_e389dc2bfe" x="234.289518" y="41.82726" style="fill: #8ccbd6"/>
    </g>
    <g clip-path="url(#p1b88cfdaeb)">
     <use xlink:href="#C0_0_e389dc2bfe" x="212.930489" y="61.771865" style="fill: #5ea3c6"/>
    </g>
    <g clip-path="url(#p1b88cfdaeb)">
     <use xlink:href="#C0_0_e389dc2bfe" x="393.377836" y="17.918564" style="fill: #3d4389"/>
    </g>
    <g clip-path="url(#p1b88cfdaeb)">
     <use xlink:href="#C0_0_e389dc2bfe" x="221.358427" y="54.03901" style="fill: #ff800e"/>
    </g>
    <g clip-path="url(#p1b88cfdaeb)">
     <use xlink:href="#C0_0_e389dc2bfe" x="349.151527" y="29.444603" style="fill: #5ea3c6"/>
    </g>
    <g clip-path="url(#p1b88cfdaeb)">
     <use xlink:href="#C0_0_e389dc2bfe" x="323.988235" y="23.42361" style="fill: #bce4e7"/>
    </g>
    <g clip-path="url(#p1b88cfdaeb)">
     <use xlink:href="#C0_0_e389dc2bfe" x="222.30413" y="34.44882" style="fill: #8ccbd6"/>
    </g>
    <g clip-path="url(#p1b88cfdaeb)">
     <use xlink:href="#C0_0_e389dc2bfe" x="243.648555" y="40.671455" style="fill: #5ea3c6"/>
    </g>
    <g clip-path="url(#p1b88cfdaeb)">
     <use xlink:href="#C0_0_e389dc2bfe" x="287.412676" y="47.706006" style="fill: #ffbc79"/>
    </g>
    <g clip-path="url(#p1b88cfdaeb)">
     <use xlink:href="#C0_0_e389dc2bfe" x="330.640977" y="21.586552" style="fill: #c85200"/>
    </g>
    <g clip-path="url(#p1b88cfdaeb)">
     <use xlink:href="#C0_0_e389dc2bfe" x="299.659801" y="23.570759" style="fill: #3d4389"/>
    </g>
    <g clip-path="url(#p1b88cfdaeb)">
     <use xlink:href="#C0_0_e389dc2bfe" x="288.297817" y="21.706711" style="fill: #8ccbd6"/>
    </g>
    <g clip-path="url(#p1b88cfdaeb)">
     <use xlink:href="#C0_0_e389dc2bfe" x="233.756911" y="31.008022" style="fill: #3f6cb2"/>
    </g>
    <g clip-path="url(#p1b88cfdaeb)">
     <use xlink:href="#C0_0_e389dc2bfe" x="288.638047" y="24.749501" style="fill: #5ea3c6"/>
    </g>
    <g clip-path="url(#p1b88cfdaeb)">
     <use xlink:href="#C0_0_e389dc2bfe" x="286.406427" y="20.400153" style="fill: #3d4389"/>
    </g>
    <g clip-path="url(#p1b88cfdaeb)">
     <use xlink:href="#C0_0_e389dc2bfe" x="280.573382" y="26.663344" style="fill: #bce4e7"/>
    </g>
    <g clip-path="url(#p1b88cfdaeb)">
     <use xlink:href="#C0_0_e389dc2bfe" x="308.707548" y="21.163393" style="fill: #3f6cb2"/>
    </g>
    <g clip-path="url(#p1b88cfdaeb)">
     <use xlink:href="#C0_0_e389dc2bfe" x="194.55793" y="44.877213" style="fill: #ff800e"/>
    </g>
    <g clip-path="url(#p1b88cfdaeb)">
     <use xlink:href="#C0_0_e389dc2bfe" x="187.230728" y="107.567606" style="fill: #3d4389"/>
    </g>
    <g clip-path="url(#p1b88cfdaeb)">
     <use xlink:href="#C0_0_e389dc2bfe" x="288.297817" y="16.330443" style="fill: #8ccbd6"/>
    </g>
    <g clip-path="url(#p1b88cfdaeb)">
     <use xlink:href="#C0_0_e389dc2bfe" x="339.342807" y="27.63863" style="fill: #5ea3c6"/>
    </g>
    <g clip-path="url(#p1b88cfdaeb)">
     <use xlink:href="#C0_0_e389dc2bfe" x="275.451795" y="19.054647" style="fill: #5ea3c6"/>
    </g>
    <g clip-path="url(#p1b88cfdaeb)">
     <use xlink:href="#C0_0_e389dc2bfe" x="318.969536" y="20.090071" style="fill: #8ccbd6"/>
    </g>
    <g clip-path="url(#p1b88cfdaeb)">
     <use xlink:href="#C0_0_e389dc2bfe" x="336.538865" y="25.982628" style="fill: #bce4e7"/>
    </g>
    <g clip-path="url(#p1b88cfdaeb)">
     <use xlink:href="#C0_0_e389dc2bfe" x="339.037178" y="23.558043" style="fill: #8ccbd6"/>
    </g>
    <g clip-path="url(#p1b88cfdaeb)">
     <use xlink:href="#C0_0_e389dc2bfe" x="232.828499" y="44.702288" style="fill: #ff800e"/>
    </g>
    <g clip-path="url(#p1b88cfdaeb)">
     <use xlink:href="#C0_0_e389dc2bfe" x="288.638047" y="29.158424" style="fill: #5ea3c6"/>
    </g>
    <g clip-path="url(#p1b88cfdaeb)">
     <use xlink:href="#C0_0_e389dc2bfe" x="287.784347" y="22.629193" style="fill: #3f6cb2"/>
    </g>
    <g clip-path="url(#p1b88cfdaeb)">
     <use xlink:href="#C0_0_e389dc2bfe" x="348.23934" y="30.625341" style="fill: #3d4389"/>
    </g>
    <g clip-path="url(#p1b88cfdaeb)">
     <use xlink:href="#C0_0_e389dc2bfe" x="317.077352" y="27.755968" style="fill: #c85200"/>
    </g>
    <g clip-path="url(#p1b88cfdaeb)">
     <use xlink:href="#C0_0_e389dc2bfe" x="275.106846" y="28.796517" style="fill: #8ccbd6"/>
    </g>
    <g clip-path="url(#p1b88cfdaeb)">
     <use xlink:href="#C0_0_e389dc2bfe" x="348.410313" y="24.549787" style="fill: #3f6cb2"/>
    </g>
    <g clip-path="url(#p1b88cfdaeb)">
     <use xlink:href="#C0_0_e389dc2bfe" x="290.911625" y="26.27366" style="fill: #c85200"/>
    </g>
    <g clip-path="url(#p1b88cfdaeb)">
     <use xlink:href="#C0_0_e389dc2bfe" x="287.157035" y="21.5066" style="fill: #ff800e"/>
    </g>
    <g clip-path="url(#p1b88cfdaeb)">
     <use xlink:href="#C0_0_e389dc2bfe" x="288.638047" y="23.788431" style="fill: #5ea3c6"/>
    </g>
    <g clip-path="url(#p1b88cfdaeb)">
     <use xlink:href="#C0_0_e389dc2bfe" x="208.919" y="29.39195" style="fill: #ff800e"/>
    </g>
    <g clip-path="url(#p1b88cfdaeb)">
     <use xlink:href="#C0_0_e389dc2bfe" x="240.24474" y="42.813534" style="fill: #3d4389"/>
    </g>
    <g clip-path="url(#p1b88cfdaeb)">
     <use xlink:href="#C0_0_e389dc2bfe" x="328.472786" y="27.564799" style="fill: #5ea3c6"/>
    </g>
    <g clip-path="url(#p1b88cfdaeb)">
     <use xlink:href="#C0_0_e389dc2bfe" x="355.224949" y="20.578783" style="fill: #ff800e"/>
    </g>
    <g clip-path="url(#p1b88cfdaeb)">
     <use xlink:href="#C0_0_e389dc2bfe" x="327.407151" y="24.704013" style="fill: #3d4389"/>
    </g>
    <g clip-path="url(#p1b88cfdaeb)">
     <use xlink:href="#C0_0_e389dc2bfe" x="233.756911" y="46.159479" style="fill: #3f6cb2"/>
    </g>
    <g clip-path="url(#p1b88cfdaeb)">
     <use xlink:href="#C0_0_e389dc2bfe" x="234.642349" y="36.216695" style="fill: #5ea3c6"/>
    </g>
    <g clip-path="url(#p1b88cfdaeb)">
     <use xlink:href="#C0_0_e389dc2bfe" x="336.162977" y="23.249542" style="fill: #9467bd"/>
    </g>
    <g clip-path="url(#p1b88cfdaeb)">
     <use xlink:href="#C0_0_e389dc2bfe" x="307.038783" y="18.658689" style="fill: #ff800e"/>
    </g>
    <g clip-path="url(#p1b88cfdaeb)">
     <use xlink:href="#C0_0_e389dc2bfe" x="358.271544" y="25.083696" style="fill: #3d4389"/>
    </g>
    <g clip-path="url(#p1b88cfdaeb)">
     <use xlink:href="#C0_0_e389dc2bfe" x="243.296833" y="33.343726" style="fill: #8ccbd6"/>
    </g>
    <g clip-path="url(#p1b88cfdaeb)">
     <use xlink:href="#C0_0_e389dc2bfe" x="318.482501" y="23.808316" style="fill: #3f6cb2"/>
    </g>
    <g clip-path="url(#p1b88cfdaeb)">
     <use xlink:href="#C0_0_e389dc2bfe" x="339.342807" y="26.491929" style="fill: #5ea3c6"/>
    </g>
    <g clip-path="url(#p1b88cfdaeb)">
     <use xlink:href="#C0_0_e389dc2bfe" x="271.925044" y="30.736081" style="fill: #ababab"/>
    </g>
    <g clip-path="url(#p1b88cfdaeb)">
     <use xlink:href="#C0_0_e389dc2bfe" x="288.638047" y="25.585965" style="fill: #5ea3c6"/>
    </g>
    <g clip-path="url(#p1b88cfdaeb)">
     <use xlink:href="#C0_0_e389dc2bfe" x="344.681963" y="23.360521" style="fill: #ff800e"/>
    </g>
    <g clip-path="url(#p1b88cfdaeb)">
     <use xlink:href="#C0_0_e389dc2bfe" x="318.141858" y="22.710173" style="fill: #3d4389"/>
    </g>
    <g clip-path="url(#p1b88cfdaeb)">
     <use xlink:href="#C0_0_e389dc2bfe" x="234.289518" y="41.630803" style="fill: #8ccbd6"/>
    </g>
    <g clip-path="url(#p1b88cfdaeb)">
     <use xlink:href="#C0_0_e389dc2bfe" x="242.765911" y="65.780414" style="fill: #3f6cb2"/>
    </g>
    <g clip-path="url(#p1b88cfdaeb)">
     <use xlink:href="#C0_0_e389dc2bfe" x="336.162977" y="25.274712" style="fill: #3d4389"/>
    </g>
    <g clip-path="url(#p1b88cfdaeb)">
     <use xlink:href="#C0_0_e389dc2bfe" x="275.451795" y="24.491387" style="fill: #5ea3c6"/>
    </g>
    <g clip-path="url(#p1b88cfdaeb)">
     <use xlink:href="#C0_0_e389dc2bfe" x="287.050213" y="27.839677" style="fill: #3d4389"/>
    </g>
    <g clip-path="url(#p1b88cfdaeb)">
     <use xlink:href="#C0_0_e389dc2bfe" x="300.698371" y="21.083625" style="fill: #8ccbd6"/>
    </g>
    <g clip-path="url(#p1b88cfdaeb)">
     <use xlink:href="#C0_0_e389dc2bfe" x="336.162977" y="24.512744" style="fill: #3d4389"/>
    </g>
    <g clip-path="url(#p1b88cfdaeb)">
     <use xlink:href="#C0_0_e389dc2bfe" x="287.451205" y="34.22264" style="fill: #bce4e7"/>
    </g>
    <g clip-path="url(#p1b88cfdaeb)">
     <use xlink:href="#C0_0_e389dc2bfe" x="307.109996" y="20.323858" style="fill: #ff800e"/>
    </g>
    <g clip-path="url(#p1b88cfdaeb)">
     <use xlink:href="#C0_0_e389dc2bfe" x="328.15725" y="23.193317" style="fill: #8ccbd6"/>
    </g>
    <g clip-path="url(#p1b88cfdaeb)">
     <use xlink:href="#C0_0_e389dc2bfe" x="261.766274" y="29.336478" style="fill: #bce4e7"/>
    </g>
    <g clip-path="url(#p1b88cfdaeb)">
     <use xlink:href="#C0_0_e389dc2bfe" x="288.638047" y="27.235746" style="fill: #5ea3c6"/>
    </g>
    <g clip-path="url(#p1b88cfdaeb)">
     <use xlink:href="#C0_0_e389dc2bfe" x="338.576214" y="24.325103" style="fill: #3f6cb2"/>
    </g>
    <g clip-path="url(#p1b88cfdaeb)">
     <use xlink:href="#C0_0_e389dc2bfe" x="301.032758" y="22.821691" style="fill: #5ea3c6"/>
    </g>
    <g clip-path="url(#p1b88cfdaeb)">
     <use xlink:href="#C0_0_e389dc2bfe" x="217.106188" y="37.870029" style="fill: #3d4389"/>
    </g>
    <g clip-path="url(#p1b88cfdaeb)">
     <use xlink:href="#C0_0_e389dc2bfe" x="288.638047" y="20.675666" style="fill: #5ea3c6"/>
    </g>
    <g clip-path="url(#p1b88cfdaeb)">
     <use xlink:href="#C0_0_e389dc2bfe" x="234.289518" y="26.839721" style="fill: #8ccbd6"/>
    </g>
    <g clip-path="url(#p1b88cfdaeb)">
     <use xlink:href="#C0_0_e389dc2bfe" x="287.784347" y="22.651692" style="fill: #3f6cb2"/>
    </g>
    <g clip-path="url(#p1b88cfdaeb)">
     <use xlink:href="#C0_0_e389dc2bfe" x="336.162977" y="22.615685" style="fill: #3d4389"/>
    </g>
    <g clip-path="url(#p1b88cfdaeb)">
     <use xlink:href="#C0_0_e389dc2bfe" x="307.165649" y="32.538635" style="fill: #ababab"/>
    </g>
    <g clip-path="url(#p1b88cfdaeb)">
     <use xlink:href="#C0_0_e389dc2bfe" x="298.462749" y="27.75468" style="fill: #ffbc79"/>
    </g>
    <g clip-path="url(#p1b88cfdaeb)">
     <use xlink:href="#C0_0_e389dc2bfe" x="220.749742" y="36.173468" style="fill: #ff800e"/>
    </g>
    <g clip-path="url(#p1b88cfdaeb)">
     <use xlink:href="#C0_0_e389dc2bfe" x="339.037178" y="23.023879" style="fill: #8ccbd6"/>
    </g>
    <g clip-path="url(#p1b88cfdaeb)">
     <use xlink:href="#C0_0_e389dc2bfe" x="274.586212" y="25.049075" style="fill: #3f6cb2"/>
    </g>
    <g clip-path="url(#p1b88cfdaeb)">
     <use xlink:href="#C0_0_e389dc2bfe" x="247.465099" y="31.622006" style="fill: #bce4e7"/>
    </g>
    <g clip-path="url(#p1b88cfdaeb)">
     <use xlink:href="#C0_0_e389dc2bfe" x="323.989516" y="22.007456" style="fill: #ffbc79"/>
    </g>
    <g clip-path="url(#p1b88cfdaeb)">
     <use xlink:href="#C0_0_e389dc2bfe" x="271.880119" y="37.021052" style="fill: #ff800e"/>
    </g>
    <g clip-path="url(#p1b88cfdaeb)">
     <use xlink:href="#C0_0_e389dc2bfe" x="272.300566" y="33.183136" style="fill: #bce4e7"/>
    </g>
    <g clip-path="url(#p1b88cfdaeb)">
     <use xlink:href="#C0_0_e389dc2bfe" x="234.642349" y="35.694609" style="fill: #5ea3c6"/>
    </g>
    <g clip-path="url(#p1b88cfdaeb)">
     <use xlink:href="#C0_0_e389dc2bfe" x="262.162943" y="23.836049" style="fill: #5ea3c6"/>
    </g>
    <g clip-path="url(#p1b88cfdaeb)">
     <use xlink:href="#C0_0_e389dc2bfe" x="273.379022" y="26.475185" style="fill: #c85200"/>
    </g>
    <g clip-path="url(#p1b88cfdaeb)">
     <use xlink:href="#C0_0_e389dc2bfe" x="339.342807" y="28.879727" style="fill: #5ea3c6"/>
    </g>
    <g clip-path="url(#p1b88cfdaeb)">
     <use xlink:href="#C0_0_e389dc2bfe" x="300.193773" y="21.383223" style="fill: #3f6cb2"/>
    </g>
    <g clip-path="url(#p1b88cfdaeb)">
     <use xlink:href="#C0_0_e389dc2bfe" x="303.178713" y="28.847326" style="fill: #bce4e7"/>
    </g>
    <g clip-path="url(#p1b88cfdaeb)">
     <use xlink:href="#C0_0_e389dc2bfe" x="309.204676" y="20.075072" style="fill: #8ccbd6"/>
    </g>
    <g clip-path="url(#p1b88cfdaeb)">
     <use xlink:href="#C0_0_e389dc2bfe" x="260.715805" y="27.056475" style="fill: #ff800e"/>
    </g>
    <g clip-path="url(#p1b88cfdaeb)">
     <use xlink:href="#C0_0_e389dc2bfe" x="261.242984" y="21.287897" style="fill: #ababab"/>
    </g>
    <g clip-path="url(#p1b88cfdaeb)">
     <use xlink:href="#C0_0_e389dc2bfe" x="358.837044" y="26.570694" style="fill: #8ccbd6"/>
    </g>
    <g clip-path="url(#p1b88cfdaeb)">
     <use xlink:href="#C0_0_e389dc2bfe" x="251.278779" y="31.945803" style="fill: #3d4389"/>
    </g>
    <g clip-path="url(#p1b88cfdaeb)">
     <use xlink:href="#C0_0_e389dc2bfe" x="309.534143" y="25.332022" style="fill: #5ea3c6"/>
    </g>
    <g clip-path="url(#p1b88cfdaeb)">
     <use xlink:href="#C0_0_e389dc2bfe" x="261.288571" y="22.944457" style="fill: #3f6cb2"/>
    </g>
    <g clip-path="url(#p1b88cfdaeb)">
     <use xlink:href="#C0_0_e389dc2bfe" x="331.409216" y="24.567626" style="fill: #c85200"/>
    </g>
    <g clip-path="url(#p1b88cfdaeb)">
     <use xlink:href="#C0_0_e389dc2bfe" x="246.91501" y="34.027267" style="fill: #ff800e"/>
    </g>
    <g clip-path="url(#p1b88cfdaeb)">
     <use xlink:href="#C0_0_e389dc2bfe" x="221.769829" y="42.780641" style="fill: #3f6cb2"/>
    </g>
    <g clip-path="url(#p1b88cfdaeb)">
     <use xlink:href="#C0_0_e389dc2bfe" x="336.765207" y="20.317528" style="fill: #ff800e"/>
    </g>
    <g clip-path="url(#p1b88cfdaeb)">
     <use xlink:href="#C0_0_e389dc2bfe" x="207.444094" y="43.762251" style="fill: #ff800e"/>
    </g>
    <g clip-path="url(#p1b88cfdaeb)">
     <use xlink:href="#C0_0_e389dc2bfe" x="358.408437" y="21.592697" style="fill: #3f6cb2"/>
    </g>
    <g clip-path="url(#p1b88cfdaeb)">
     <use xlink:href="#C0_0_e389dc2bfe" x="240.24474" y="45.040071" style="fill: #3d4389"/>
    </g>
    <g clip-path="url(#p1b88cfdaeb)">
     <use xlink:href="#C0_0_e389dc2bfe" x="287.42533" y="43.043121" style="fill: #ffbc79"/>
    </g>
    <g clip-path="url(#p1b88cfdaeb)">
     <use xlink:href="#C0_0_e389dc2bfe" x="359.12133" y="24.811532" style="fill: #5ea3c6"/>
    </g>
    <g clip-path="url(#p1b88cfdaeb)">
     <use xlink:href="#C0_0_e389dc2bfe" x="345.768405" y="25.77378" style="fill: #c85200"/>
    </g>
    <g clip-path="url(#p1b88cfdaeb)">
     <use xlink:href="#C0_0_e389dc2bfe" x="288.638047" y="18.679778" style="fill: #5ea3c6"/>
    </g>
    <g clip-path="url(#p1b88cfdaeb)">
     <use xlink:href="#C0_0_e389dc2bfe" x="288.297817" y="17.295849" style="fill: #8ccbd6"/>
    </g>
    <g clip-path="url(#p1b88cfdaeb)">
     <use xlink:href="#C0_0_e389dc2bfe" x="323.847441" y="19.826952" style="fill: #ff800e"/>
    </g>
    <g clip-path="url(#p1b88cfdaeb)">
     <use xlink:href="#C0_0_e389dc2bfe" x="258.169716" y="25.908326" style="fill: #c85200"/>
    </g>
    <g clip-path="url(#p1b88cfdaeb)">
     <use xlink:href="#C0_0_e389dc2bfe" x="339.037178" y="27.248632" style="fill: #8ccbd6"/>
    </g>
    <g clip-path="url(#p1b88cfdaeb)">
     <use xlink:href="#C0_0_e389dc2bfe" x="287.784347" y="23.661366" style="fill: #3f6cb2"/>
    </g>
    <g clip-path="url(#p1b88cfdaeb)">
     <use xlink:href="#C0_0_e389dc2bfe" x="315.09463" y="22.753535" style="fill: #bce4e7"/>
    </g>
    <g clip-path="url(#p1b88cfdaeb)">
     <use xlink:href="#C0_0_e389dc2bfe" x="202.843397" y="58.195326" style="fill: #c85200"/>
    </g>
    <g clip-path="url(#p1b88cfdaeb)">
     <use xlink:href="#C0_0_e389dc2bfe" x="261.814505" y="33.093064" style="fill: #8ccbd6"/>
    </g>
    <g clip-path="url(#p1b88cfdaeb)">
     <use xlink:href="#C0_0_e389dc2bfe" x="338.576214" y="23.447907" style="fill: #3f6cb2"/>
    </g>
    <g clip-path="url(#p1b88cfdaeb)">
     <use xlink:href="#C0_0_e389dc2bfe" x="230.485475" y="36.042583" style="fill: #3d4389"/>
    </g>
    <g clip-path="url(#p1b88cfdaeb)">
     <use xlink:href="#C0_0_e389dc2bfe" x="234.642349" y="39.077456" style="fill: #5ea3c6"/>
    </g>
   </g>
   <g id="patch_3">
    <path d="M 353.724339 31.874441 
C 368.281797 31.874441 382.244979 30.648412 392.538656 28.466373 
C 402.832333 26.284334 408.616072 23.324438 408.616072 20.238569 
C 408.616072 17.1527 402.832333 14.192804 392.538656 12.010765 
C 382.244979 9.828726 368.281797 8.602697 353.724339 8.602697 
C 339.166882 8.602697 325.2037 9.828726 314.910023 12.010765 
C 304.616346 14.192804 298.832607 17.1527 298.832607 20.238569 
C 298.832607 23.324438 304.616346 26.284334 314.910023 28.466373 
C 325.2037 30.648412 339.166882 31.874441 353.724339 31.874441 
L 353.724339 31.874441 
z
" clip-path="url(#p1b88cfdaeb)" style="fill: none; stroke: #ffffff; stroke-linejoin: miter"/>
   </g>
   <g id="matplotlib.axis_1">
    <g id="xtick_1">
     <g id="line2d_1">
      <defs>
       <path id="m1c9ef1b831" d="M 0 0 
L 0 -2.5 
" style="stroke: #ffffff; stroke-width: 0.8"/>
      </defs>
      <g>
       <use xlink:href="#m1c9ef1b831" x="155.848018" y="175.38353" style="fill: #ffffff; stroke: #ffffff; stroke-width: 0.8"/>
      </g>
     </g>
     <g id="line2d_2">
      <defs>
       <path id="m8f1fc2f783" d="M 0 0 
L 0 2.5 
" style="stroke: #ffffff; stroke-width: 0.8"/>
      </defs>
      <g>
       <use xlink:href="#m8f1fc2f783" x="155.848018" y="3.00024" style="fill: #ffffff; stroke: #ffffff; stroke-width: 0.8"/>
      </g>
     </g>
     <g id="text_1">
      <!-- $\mathdefault{10^{4}}$ -->
      <g style="fill: #ffffff" transform="translate(148.881064 185.802029) scale(0.1 -0.1)">
       <defs>
        <path id="CMR17-31" d="M 1702 4058 
C 1702 4192 1696 4192 1606 4192 
C 1357 3916 979 3827 621 3827 
C 602 3827 570 3827 563 3808 
C 557 3795 557 3782 557 3648 
C 755 3648 1088 3686 1344 3839 
L 1344 461 
C 1344 236 1331 160 781 160 
L 589 160 
L 589 0 
C 896 0 1216 0 1523 0 
C 1830 0 2150 0 2458 0 
L 2458 160 
L 2266 160 
C 1715 160 1702 230 1702 458 
L 1702 4058 
z
" transform="scale(0.015625)"/>
        <path id="CMR17-30" d="M 2688 2025 
C 2688 2416 2682 3080 2413 3591 
C 2176 4039 1798 4198 1466 4198 
C 1158 4198 768 4058 525 3597 
C 269 3118 243 2524 243 2025 
C 243 1661 250 1106 448 619 
C 723 -39 1216 -128 1466 -128 
C 1760 -128 2208 -7 2470 600 
C 2662 1042 2688 1559 2688 2025 
z
M 1466 -26 
C 1056 -26 813 325 723 812 
C 653 1188 653 1738 653 2096 
C 653 2588 653 2997 736 3387 
C 858 3929 1216 4096 1466 4096 
C 1728 4096 2067 3923 2189 3400 
C 2272 3036 2278 2607 2278 2096 
C 2278 1680 2278 1169 2202 792 
C 2067 95 1690 -26 1466 -26 
z
" transform="scale(0.015625)"/>
        <path id="CMR17-34" d="M 2150 4122 
C 2150 4256 2144 4256 2029 4256 
L 128 1254 
L 128 1088 
L 1779 1088 
L 1779 457 
C 1779 224 1766 160 1318 160 
L 1197 160 
L 1197 0 
C 1402 0 1747 0 1965 0 
C 2182 0 2528 0 2733 0 
L 2733 160 
L 2611 160 
C 2163 160 2150 224 2150 457 
L 2150 1088 
L 2803 1088 
L 2803 1254 
L 2150 1254 
L 2150 4122 
z
M 1798 3703 
L 1798 1254 
L 256 1254 
L 1798 3703 
z
" transform="scale(0.015625)"/>
       </defs>
       <use xlink:href="#CMR17-31" transform="scale(0.996264)"/>
       <use xlink:href="#CMR17-30" transform="translate(45.690477 0) scale(0.996264)"/>
       <use xlink:href="#CMR17-34" transform="translate(91.380954 36.153639) scale(0.697382)"/>
      </g>
     </g>
    </g>
    <g id="xtick_2">
     <g id="line2d_3">
      <g>
       <use xlink:href="#m1c9ef1b831" x="316.858697" y="175.38353" style="fill: #ffffff; stroke: #ffffff; stroke-width: 0.8"/>
      </g>
     </g>
     <g id="line2d_4">
      <g>
       <use xlink:href="#m8f1fc2f783" x="316.858697" y="3.00024" style="fill: #ffffff; stroke: #ffffff; stroke-width: 0.8"/>
      </g>
     </g>
     <g id="text_2">
      <!-- $\mathdefault{10^{5}}$ -->
      <g style="fill: #ffffff" transform="translate(309.891743 185.802029) scale(0.1 -0.1)">
       <defs>
        <path id="CMR17-35" d="M 730 3692 
C 794 3666 1056 3584 1325 3584 
C 1920 3584 2246 3911 2432 4100 
C 2432 4157 2432 4192 2394 4192 
C 2387 4192 2374 4192 2323 4163 
C 2099 4058 1837 3973 1517 3973 
C 1325 3973 1037 3999 723 4139 
C 653 4171 640 4171 634 4171 
C 602 4171 595 4164 595 4037 
L 595 2203 
C 595 2089 595 2057 659 2057 
C 691 2057 704 2070 736 2114 
C 941 2401 1222 2522 1542 2522 
C 1766 2522 2246 2382 2246 1289 
C 2246 1085 2246 715 2054 421 
C 1894 159 1645 25 1370 25 
C 947 25 518 320 403 814 
C 429 807 480 795 506 795 
C 589 795 749 840 749 1038 
C 749 1210 627 1280 506 1280 
C 358 1280 262 1190 262 1011 
C 262 454 704 -128 1382 -128 
C 2042 -128 2669 440 2669 1264 
C 2669 2030 2170 2624 1549 2624 
C 1222 2624 947 2503 730 2274 
L 730 3692 
z
" transform="scale(0.015625)"/>
       </defs>
       <use xlink:href="#CMR17-31" transform="scale(0.996264)"/>
       <use xlink:href="#CMR17-30" transform="translate(45.690477 0) scale(0.996264)"/>
       <use xlink:href="#CMR17-35" transform="translate(91.380954 36.153639) scale(0.697382)"/>
      </g>
     </g>
    </g>
    <g id="xtick_3">
     <g id="line2d_5">
      <defs>
       <path id="m52bda43257" d="M 0 0 
L 0 -2 
" style="stroke: #ffffff; stroke-width: 0.6"/>
      </defs>
      <g>
       <use xlink:href="#m52bda43257" x="43.306384" y="175.38353" style="fill: #ffffff; stroke: #ffffff; stroke-width: 0.6"/>
      </g>
     </g>
     <g id="line2d_6">
      <defs>
       <path id="m34157bbc0a" d="M 0 0 
L 0 2 
" style="stroke: #ffffff; stroke-width: 0.6"/>
      </defs>
      <g>
       <use xlink:href="#m34157bbc0a" x="43.306384" y="3.00024" style="fill: #ffffff; stroke: #ffffff; stroke-width: 0.6"/>
      </g>
     </g>
    </g>
    <g id="xtick_4">
     <g id="line2d_7">
      <g>
       <use xlink:href="#m52bda43257" x="71.658957" y="175.38353" style="fill: #ffffff; stroke: #ffffff; stroke-width: 0.6"/>
      </g>
     </g>
     <g id="line2d_8">
      <g>
       <use xlink:href="#m34157bbc0a" x="71.658957" y="3.00024" style="fill: #ffffff; stroke: #ffffff; stroke-width: 0.6"/>
      </g>
     </g>
    </g>
    <g id="xtick_5">
     <g id="line2d_9">
      <g>
       <use xlink:href="#m52bda43257" x="91.775428" y="175.38353" style="fill: #ffffff; stroke: #ffffff; stroke-width: 0.6"/>
      </g>
     </g>
     <g id="line2d_10">
      <g>
       <use xlink:href="#m34157bbc0a" x="91.775428" y="3.00024" style="fill: #ffffff; stroke: #ffffff; stroke-width: 0.6"/>
      </g>
     </g>
    </g>
    <g id="xtick_6">
     <g id="line2d_11">
      <g>
       <use xlink:href="#m52bda43257" x="107.378975" y="175.38353" style="fill: #ffffff; stroke: #ffffff; stroke-width: 0.6"/>
      </g>
     </g>
     <g id="line2d_12">
      <g>
       <use xlink:href="#m34157bbc0a" x="107.378975" y="3.00024" style="fill: #ffffff; stroke: #ffffff; stroke-width: 0.6"/>
      </g>
     </g>
    </g>
    <g id="xtick_7">
     <g id="line2d_13">
      <g>
       <use xlink:href="#m52bda43257" x="120.128001" y="175.38353" style="fill: #ffffff; stroke: #ffffff; stroke-width: 0.6"/>
      </g>
     </g>
     <g id="line2d_14">
      <g>
       <use xlink:href="#m34157bbc0a" x="120.128001" y="3.00024" style="fill: #ffffff; stroke: #ffffff; stroke-width: 0.6"/>
      </g>
     </g>
    </g>
    <g id="xtick_8">
     <g id="line2d_15">
      <g>
       <use xlink:href="#m52bda43257" x="130.907149" y="175.38353" style="fill: #ffffff; stroke: #ffffff; stroke-width: 0.6"/>
      </g>
     </g>
     <g id="line2d_16">
      <g>
       <use xlink:href="#m34157bbc0a" x="130.907149" y="3.00024" style="fill: #ffffff; stroke: #ffffff; stroke-width: 0.6"/>
      </g>
     </g>
    </g>
    <g id="xtick_9">
     <g id="line2d_17">
      <g>
       <use xlink:href="#m52bda43257" x="140.244471" y="175.38353" style="fill: #ffffff; stroke: #ffffff; stroke-width: 0.6"/>
      </g>
     </g>
     <g id="line2d_18">
      <g>
       <use xlink:href="#m34157bbc0a" x="140.244471" y="3.00024" style="fill: #ffffff; stroke: #ffffff; stroke-width: 0.6"/>
      </g>
     </g>
    </g>
    <g id="xtick_10">
     <g id="line2d_19">
      <g>
       <use xlink:href="#m52bda43257" x="148.480574" y="175.38353" style="fill: #ffffff; stroke: #ffffff; stroke-width: 0.6"/>
      </g>
     </g>
     <g id="line2d_20">
      <g>
       <use xlink:href="#m34157bbc0a" x="148.480574" y="3.00024" style="fill: #ffffff; stroke: #ffffff; stroke-width: 0.6"/>
      </g>
     </g>
    </g>
    <g id="xtick_11">
     <g id="line2d_21">
      <g>
       <use xlink:href="#m52bda43257" x="204.317062" y="175.38353" style="fill: #ffffff; stroke: #ffffff; stroke-width: 0.6"/>
      </g>
     </g>
     <g id="line2d_22">
      <g>
       <use xlink:href="#m34157bbc0a" x="204.317062" y="3.00024" style="fill: #ffffff; stroke: #ffffff; stroke-width: 0.6"/>
      </g>
     </g>
    </g>
    <g id="xtick_12">
     <g id="line2d_23">
      <g>
       <use xlink:href="#m52bda43257" x="232.669635" y="175.38353" style="fill: #ffffff; stroke: #ffffff; stroke-width: 0.6"/>
      </g>
     </g>
     <g id="line2d_24">
      <g>
       <use xlink:href="#m34157bbc0a" x="232.669635" y="3.00024" style="fill: #ffffff; stroke: #ffffff; stroke-width: 0.6"/>
      </g>
     </g>
    </g>
    <g id="xtick_13">
     <g id="line2d_25">
      <g>
       <use xlink:href="#m52bda43257" x="252.786106" y="175.38353" style="fill: #ffffff; stroke: #ffffff; stroke-width: 0.6"/>
      </g>
     </g>
     <g id="line2d_26">
      <g>
       <use xlink:href="#m34157bbc0a" x="252.786106" y="3.00024" style="fill: #ffffff; stroke: #ffffff; stroke-width: 0.6"/>
      </g>
     </g>
    </g>
    <g id="xtick_14">
     <g id="line2d_27">
      <g>
       <use xlink:href="#m52bda43257" x="268.389653" y="175.38353" style="fill: #ffffff; stroke: #ffffff; stroke-width: 0.6"/>
      </g>
     </g>
     <g id="line2d_28">
      <g>
       <use xlink:href="#m34157bbc0a" x="268.389653" y="3.00024" style="fill: #ffffff; stroke: #ffffff; stroke-width: 0.6"/>
      </g>
     </g>
    </g>
    <g id="xtick_15">
     <g id="line2d_29">
      <g>
       <use xlink:href="#m52bda43257" x="281.138679" y="175.38353" style="fill: #ffffff; stroke: #ffffff; stroke-width: 0.6"/>
      </g>
     </g>
     <g id="line2d_30">
      <g>
       <use xlink:href="#m34157bbc0a" x="281.138679" y="3.00024" style="fill: #ffffff; stroke: #ffffff; stroke-width: 0.6"/>
      </g>
     </g>
    </g>
    <g id="xtick_16">
     <g id="line2d_31">
      <g>
       <use xlink:href="#m52bda43257" x="291.917827" y="175.38353" style="fill: #ffffff; stroke: #ffffff; stroke-width: 0.6"/>
      </g>
     </g>
     <g id="line2d_32">
      <g>
       <use xlink:href="#m34157bbc0a" x="291.917827" y="3.00024" style="fill: #ffffff; stroke: #ffffff; stroke-width: 0.6"/>
      </g>
     </g>
    </g>
    <g id="xtick_17">
     <g id="line2d_33">
      <g>
       <use xlink:href="#m52bda43257" x="301.25515" y="175.38353" style="fill: #ffffff; stroke: #ffffff; stroke-width: 0.6"/>
      </g>
     </g>
     <g id="line2d_34">
      <g>
       <use xlink:href="#m34157bbc0a" x="301.25515" y="3.00024" style="fill: #ffffff; stroke: #ffffff; stroke-width: 0.6"/>
      </g>
     </g>
    </g>
    <g id="xtick_18">
     <g id="line2d_35">
      <g>
       <use xlink:href="#m52bda43257" x="309.491252" y="175.38353" style="fill: #ffffff; stroke: #ffffff; stroke-width: 0.6"/>
      </g>
     </g>
     <g id="line2d_36">
      <g>
       <use xlink:href="#m34157bbc0a" x="309.491252" y="3.00024" style="fill: #ffffff; stroke: #ffffff; stroke-width: 0.6"/>
      </g>
     </g>
    </g>
    <g id="xtick_19">
     <g id="line2d_37">
      <g>
       <use xlink:href="#m52bda43257" x="365.32774" y="175.38353" style="fill: #ffffff; stroke: #ffffff; stroke-width: 0.6"/>
      </g>
     </g>
     <g id="line2d_38">
      <g>
       <use xlink:href="#m34157bbc0a" x="365.32774" y="3.00024" style="fill: #ffffff; stroke: #ffffff; stroke-width: 0.6"/>
      </g>
     </g>
    </g>
    <g id="xtick_20">
     <g id="line2d_39">
      <g>
       <use xlink:href="#m52bda43257" x="393.680313" y="175.38353" style="fill: #ffffff; stroke: #ffffff; stroke-width: 0.6"/>
      </g>
     </g>
     <g id="line2d_40">
      <g>
       <use xlink:href="#m34157bbc0a" x="393.680313" y="3.00024" style="fill: #ffffff; stroke: #ffffff; stroke-width: 0.6"/>
      </g>
     </g>
    </g>
    <g id="xtick_21">
     <g id="line2d_41">
      <g>
       <use xlink:href="#m52bda43257" x="413.796784" y="175.38353" style="fill: #ffffff; stroke: #ffffff; stroke-width: 0.6"/>
      </g>
     </g>
     <g id="line2d_42">
      <g>
       <use xlink:href="#m34157bbc0a" x="413.796784" y="3.00024" style="fill: #ffffff; stroke: #ffffff; stroke-width: 0.6"/>
      </g>
     </g>
    </g>
    <g id="text_3">
     <!-- Reynolds number, $\mathcal{R}e = \rho_{0} \sqrt{g_{0}'H_{0}} H_{0}/\eta $ -->
     <g style="fill: #ffffff" transform="translate(144.595814 200.489794) scale(0.1 -0.1)">
      <defs>
       <path id="CMSS17-52" d="M 2522 2109 
L 2534 2115 
C 3533 2459 3539 3147 3539 3268 
C 3539 3873 2925 4453 2003 4453 
L 570 4453 
L 570 32 
L 1094 32 
L 1094 2048 
L 2035 2048 
L 3168 32 
L 3706 32 
L 2522 2109 
z
M 1094 2437 
L 1094 4096 
L 1933 4096 
C 2746 4096 3034 3637 3034 3267 
C 3034 2922 2778 2437 1933 2437 
L 1094 2437 
z
" transform="scale(0.015625)"/>
       <path id="CMSS17-65" d="M 2502 1377 
C 2502 1590 2490 2003 2285 2345 
C 2061 2713 1696 2816 1421 2816 
C 755 2816 192 2188 192 1375 
C 192 582 774 -64 1510 -64 
C 1798 -64 2150 19 2470 248 
C 2470 274 2458 414 2451 420 
C 2451 433 2432 630 2432 656 
C 2125 407 1773 325 1517 325 
C 1107 325 666 667 646 1377 
L 2502 1377 
z
M 698 1728 
C 781 2084 1062 2421 1421 2421 
C 1517 2421 1965 2421 2080 1728 
L 698 1728 
z
" transform="scale(0.015625)"/>
       <path id="CMSS17-79" d="M 2675 2752 
L 2176 2752 
C 1632 1294 1446 702 1434 383 
L 1427 383 
C 1408 696 1126 1460 902 2007 
L 602 2752 
L 83 2752 
L 1216 13 
C 1146 -178 1043 -465 1011 -529 
C 870 -885 774 -885 672 -885 
C 646 -885 442 -885 211 -809 
L 250 -1229 
C 410 -1261 570 -1280 685 -1280 
C 845 -1280 1165 -1280 1459 -497 
L 2675 2752 
z
" transform="scale(0.015625)"/>
       <path id="CMSS17-6e" d="M 2618 1877 
C 2618 2283 2522 2816 1798 2816 
C 1389 2816 1120 2606 941 2389 
L 941 2758 
L 474 2758 
L 474 0 
L 960 0 
L 960 1559 
C 960 1964 1114 2428 1549 2428 
C 2112 2428 2131 2048 2131 1829 
L 2131 0 
L 2618 0 
L 2618 1877 
z
" transform="scale(0.015625)"/>
       <path id="CMSS17-6f" d="M 2829 1356 
C 2829 2176 2221 2816 1504 2816 
C 768 2816 173 2157 173 1356 
C 173 544 787 -64 1498 -64 
C 2227 -64 2829 563 2829 1356 
z
M 1504 337 
C 1050 337 659 709 659 1408 
C 659 2151 1114 2427 1498 2427 
C 1914 2427 2342 2126 2342 1408 
C 2342 683 1926 337 1504 337 
z
" transform="scale(0.015625)"/>
       <path id="CMSS17-6c" d="M 947 4416 
L 474 4416 
L 474 0 
L 947 0 
L 947 4416 
z
" transform="scale(0.015625)"/>
       <path id="CMSS17-64" d="M 2611 4416 
L 2138 4416 
L 2138 2438 
C 1939 2603 1613 2756 1254 2756 
C 672 2756 211 2131 211 1347 
C 211 562 666 -64 1235 -64 
C 1677 -64 1971 172 2125 306 
L 2125 -13 
L 2611 -13 
L 2611 4416 
z
M 2125 836 
C 2125 747 2125 653 1926 482 
C 1798 375 1645 325 1498 325 
C 1152 325 698 576 698 1340 
C 698 2134 1210 2368 1562 2368 
C 1798 2368 1990 2254 2125 2065 
L 2125 836 
z
" transform="scale(0.015625)"/>
       <path id="CMSS17-73" d="M 2061 2627 
C 1683 2807 1389 2807 1197 2807 
C 742 2807 198 2648 198 2003 
C 198 1359 902 1218 1094 1179 
C 1389 1122 1715 1058 1715 740 
C 1715 337 1254 337 1171 337 
C 915 337 563 407 243 638 
L 166 210 
C 531 0 883 -64 1178 -64 
C 1965 -64 2163 416 2163 781 
C 2163 1094 1984 1305 1862 1401 
C 1651 1568 1574 1587 1050 1696 
C 960 1709 646 1779 646 2066 
C 646 2432 1050 2432 1139 2432 
C 1555 2432 1811 2303 1984 2208 
L 2061 2627 
z
" transform="scale(0.015625)"/>
       <path id="CMSS17-75" d="M 2618 2739 
L 2131 2739 
L 2131 972 
C 2131 498 1786 306 1421 306 
C 998 306 960 447 960 709 
L 960 2739 
L 474 2739 
L 474 678 
C 474 179 646 -64 1088 -64 
C 1306 -64 1798 -13 2144 306 
L 2144 0 
L 2618 0 
L 2618 2739 
z
" transform="scale(0.015625)"/>
       <path id="CMSS17-6d" d="M 4288 1877 
C 4288 2308 4179 2816 3462 2816 
C 2982 2816 2694 2516 2566 2331 
C 2451 2670 2182 2816 1798 2816 
C 1363 2816 1088 2568 941 2389 
L 941 2758 
L 474 2758 
L 474 0 
L 960 0 
L 960 1559 
C 960 1939 1101 2428 1555 2428 
C 2138 2428 2138 2016 2138 1829 
L 2138 0 
L 2624 0 
L 2624 1559 
C 2624 1939 2765 2428 3219 2428 
C 3802 2428 3802 2016 3802 1829 
L 3802 0 
L 4288 0 
L 4288 1877 
z
" transform="scale(0.015625)"/>
       <path id="CMSS17-62" d="M 954 4416 
L 480 4416 
L 480 -13 
L 966 -13 
L 966 274 
C 1210 38 1504 -64 1766 -64 
C 2381 -64 2880 549 2880 1352 
C 2880 2086 2496 2756 1926 2756 
C 1523 2756 1165 2591 954 2419 
L 954 4416 
z
M 966 2046 
C 1107 2222 1306 2368 1587 2368 
C 1965 2368 2394 2097 2394 1352 
C 2394 558 1882 325 1530 325 
C 1402 325 1267 356 1139 464 
C 966 615 966 709 966 797 
L 966 2046 
z
" transform="scale(0.015625)"/>
       <path id="CMSS17-72" d="M 954 1363 
C 954 1965 1395 2368 1958 2368 
L 1958 2789 
C 1549 2789 1165 2585 934 2253 
L 934 2758 
L 480 2758 
L 480 0 
L 954 0 
L 954 1363 
z
" transform="scale(0.015625)"/>
       <path id="CMSS17-2c" d="M 1088 6 
L 1088 510 
L 576 510 
L 576 0 
L 736 0 
L 570 -800 
L 826 -800 
L 1088 6 
z
" transform="scale(0.015625)"/>
       <path id="CMSY10-52" d="M 2592 4032 
C 3821 4032 4141 3727 4141 3299 
C 4141 2904 3834 2125 2778 2125 
C 2464 2125 2246 1881 2246 1805 
C 2246 1767 2272 1767 2278 1767 
C 2547 1722 2675 1594 3008 839 
C 3302 167 3469 -128 3846 -128 
C 4621 -128 5357 659 5357 800 
C 5357 845 5306 845 5286 845 
C 5210 845 4960 755 4826 570 
C 4723 423 4582 224 4269 224 
C 3942 224 3744 679 3526 1178 
C 3392 1498 3277 1735 3130 1907 
C 4058 2247 4685 2919 4685 3584 
C 4685 4384 3610 4384 2643 4384 
C 2003 4384 1645 4384 1107 4154 
C 250 3776 134 3245 134 3194 
C 134 3155 160 3143 198 3143 
C 301 3143 448 3234 499 3267 
C 634 3359 653 3398 691 3522 
C 781 3784 960 4013 1766 4013 
C 1734 3625 1677 3033 1459 2102 
C 1286 1388 1050 687 768 6 
C 736 -64 736 -77 736 -83 
C 736 -128 787 -128 800 -128 
C 928 -128 1197 26 1267 147 
C 1280 179 2093 1984 2291 4032 
L 2592 4032 
z
" transform="scale(0.015625)"/>
       <path id="CMMI12-65" d="M 1146 1479 
C 1318 1479 1754 1479 2061 1595 
C 2547 1783 2592 2158 2592 2274 
C 2592 2558 2349 2816 1926 2816 
C 1254 2816 288 2210 288 1073 
C 288 402 672 -64 1254 -64 
C 2125 -64 2675 609 2675 692 
C 2675 730 2637 762 2611 762 
C 2592 762 2586 756 2528 699 
C 2118 159 1510 64 1267 64 
C 902 64 710 350 710 822 
C 710 911 710 1071 806 1479 
L 1146 1479 
z
M 838 1600 
C 1114 2592 1722 2689 1926 2689 
C 2208 2689 2400 2522 2400 2277 
C 2400 1600 1376 1600 1107 1600 
L 838 1600 
z
" transform="scale(0.015625)"/>
       <path id="CMR17-3d" d="M 4115 2017 
C 4211 2017 4307 2017 4307 2125 
C 4307 2240 4198 2240 4090 2240 
L 512 2240 
C 403 2240 294 2240 294 2125 
C 294 2017 390 2017 486 2017 
L 4115 2017 
z
M 4090 896 
C 4198 896 4307 896 4307 1011 
C 4307 1119 4211 1119 4115 1119 
L 486 1119 
C 390 1119 294 1119 294 1011 
C 294 896 403 896 512 896 
L 4090 896 
z
" transform="scale(0.015625)"/>
       <path id="CMMI12-1a" d="M 198 -1107 
C 192 -1139 179 -1177 179 -1216 
C 179 -1312 256 -1376 352 -1376 
C 448 -1376 538 -1312 576 -1222 
C 602 -1164 781 -397 986 390 
C 1114 70 1350 -64 1600 -64 
C 2323 -64 3142 830 3142 1795 
C 3142 2478 2726 2816 2285 2816 
C 1722 2816 1037 2235 826 1385 
L 198 -1107 
z
M 1594 64 
C 1158 64 1050 569 1050 645 
C 1050 684 1210 1295 1229 1391 
C 1555 2670 2182 2670 2278 2670 
C 2566 2670 2726 2410 2726 2036 
C 2726 1712 2554 1084 2445 819 
C 2253 381 1920 64 1594 64 
z
" transform="scale(0.015625)"/>
       <path id="CMSY10-70" d="M 2490 -5472 
L 1363 -2982 
C 1318 -2880 1286 -2880 1267 -2880 
C 1261 -2880 1229 -2880 1158 -2931 
L 550 -3392 
C 467 -3456 467 -3475 467 -3494 
C 467 -3526 486 -3565 531 -3565 
C 570 -3565 678 -3475 749 -3424 
C 787 -3393 883 -3323 954 -3271 
L 2214 -6042 
C 2259 -6144 2291 -6144 2349 -6144 
C 2445 -6144 2464 -6106 2509 -6016 
L 5414 0 
C 5459 90 5459 115 5459 128 
C 5459 192 5408 256 5331 256 
C 5280 256 5235 224 5184 122 
L 2490 -5472 
z
" transform="scale(0.015625)"/>
       <path id="CMMI12-67" d="M 2163 811 
C 2138 709 2125 683 2042 588 
C 1779 249 1510 128 1312 128 
C 1101 128 902 294 902 734 
C 902 1073 1094 1788 1235 2076 
C 1421 2433 1709 2689 1978 2689 
C 2400 2689 2483 2165 2483 2127 
L 2464 2037 
L 2163 811 
z
M 2560 2395 
C 2477 2580 2298 2816 1978 2816 
C 1280 2816 486 1941 486 990 
C 486 326 890 0 1299 0 
C 1638 0 1939 268 2054 396 
L 1914 -171 
C 1824 -516 1786 -674 1555 -894 
C 1293 -1152 1050 -1152 909 -1152 
C 717 -1152 557 -1139 397 -1089 
C 602 -1033 653 -858 653 -789 
C 653 -689 576 -588 435 -588 
C 282 -588 115 -714 115 -922 
C 115 -1180 378 -1280 922 -1280 
C 1747 -1280 2176 -753 2259 -410 
L 2970 2435 
C 2989 2511 2989 2524 2989 2536 
C 2989 2625 2918 2695 2822 2695 
C 2669 2695 2579 2567 2560 2395 
z
" transform="scale(0.015625)"/>
       <path id="CMSY10-30" d="M 1619 3040 
C 1651 3117 1677 3174 1677 3238 
C 1677 3424 1510 3578 1312 3578 
C 1133 3578 1018 3456 973 3290 
L 211 493 
C 211 480 186 410 186 403 
C 186 333 352 288 403 288 
C 442 288 448 307 486 390 
L 1619 3040 
z
" transform="scale(0.015625)"/>
       <path id="CMMI12-48" d="M 4787 3887 
C 4845 4103 4858 4167 5312 4167 
C 5427 4167 5491 4167 5491 4282 
C 5491 4352 5434 4352 5395 4352 
C 5280 4352 5146 4352 5024 4352 
L 4269 4352 
C 4147 4352 4013 4352 3891 4352 
C 3846 4352 3770 4352 3770 4231 
C 3770 4167 3814 4167 3936 4167 
C 4320 4167 4320 4116 4320 4046 
C 4320 4034 4320 3995 4294 3900 
L 3904 2361 
L 1971 2361 
L 2355 3887 
C 2413 4103 2426 4167 2880 4167 
C 2995 4167 3059 4167 3059 4282 
C 3059 4352 3002 4352 2963 4352 
C 2848 4352 2714 4352 2592 4352 
L 1837 4352 
C 1715 4352 1581 4352 1459 4352 
C 1414 4352 1338 4352 1338 4231 
C 1338 4167 1382 4167 1504 4167 
C 1888 4167 1888 4116 1888 4046 
C 1888 4034 1888 3995 1862 3899 
L 998 472 
C 941 249 928 185 486 185 
C 339 185 294 185 294 64 
C 294 0 365 0 384 0 
C 499 0 634 0 755 0 
L 1510 0 
C 1632 0 1766 0 1888 0 
C 1939 0 2010 0 2010 121 
C 2010 185 1952 185 1856 185 
C 1466 185 1466 236 1466 300 
C 1466 307 1466 351 1478 402 
L 1920 2176 
L 3859 2176 
C 3750 1753 3424 416 3411 376 
C 3341 185 3238 185 2861 185 
C 2784 185 2726 185 2726 64 
C 2726 0 2797 0 2816 0 
C 2931 0 3066 0 3187 0 
L 3942 0 
C 4064 0 4198 0 4320 0 
C 4371 0 4442 0 4442 121 
C 4442 185 4384 185 4288 185 
C 3898 185 3898 236 3898 300 
C 3898 307 3898 351 3910 402 
L 4787 3887 
z
" transform="scale(0.015625)"/>
       <path id="CMMI12-3d" d="M 2746 4562 
C 2746 4569 2784 4666 2784 4678 
C 2784 4755 2720 4800 2669 4800 
C 2637 4800 2579 4800 2528 4659 
L 384 -1363 
C 384 -1370 346 -1465 346 -1478 
C 346 -1555 410 -1600 461 -1600 
C 499 -1600 557 -1593 602 -1459 
L 2746 4562 
z
" transform="scale(0.015625)"/>
       <path id="CMMI12-11" d="M 3040 1768 
C 3072 1895 3091 1973 3091 2145 
C 3091 2528 2867 2815 2381 2815 
C 1811 2815 1510 2413 1395 2254 
C 1376 2618 1114 2815 832 2815 
C 646 2815 499 2726 378 2483 
C 262 2254 173 1864 173 1839 
C 173 1813 198 1781 243 1781 
C 294 1781 301 1788 339 1934 
C 435 2311 557 2688 813 2688 
C 960 2688 1011 2586 1011 2394 
C 1011 2254 947 2005 902 1807 
L 723 1118 
C 698 996 627 709 595 593 
C 550 428 480 127 480 96 
C 480 6 550 -64 646 -64 
C 723 -64 813 -25 864 70 
C 877 102 934 326 966 453 
L 1107 1028 
L 1318 1871 
C 1331 1909 1491 2228 1728 2432 
C 1894 2586 2112 2688 2362 2688 
C 2618 2688 2707 2496 2707 2241 
C 2707 2055 2682 1953 2650 1831 
L 1907 -1107 
C 1901 -1139 1888 -1177 1888 -1216 
C 1888 -1312 1965 -1376 2061 -1376 
C 2118 -1376 2253 -1350 2304 -1158 
L 3040 1768 
z
" transform="scale(0.015625)"/>
      </defs>
      <use xlink:href="#CMSS17-52" transform="scale(0.996264)"/>
      <use xlink:href="#CMSS17-65" transform="translate(60.416155 0) scale(0.996264)"/>
      <use xlink:href="#CMSS17-79" transform="translate(102.054977 0) scale(0.996264)"/>
      <use xlink:href="#CMSS17-6e" transform="translate(145.055119 0) scale(0.996264)"/>
      <use xlink:href="#CMSS17-6f" transform="translate(193.260062 0) scale(0.996264)"/>
      <use xlink:href="#CMSS17-6c" transform="translate(240.103685 0) scale(0.996264)"/>
      <use xlink:href="#CMSS17-64" transform="translate(262.284408 0) scale(0.996264)"/>
      <use xlink:href="#CMSS17-73" transform="translate(310.489351 0) scale(0.996264)"/>
      <use xlink:href="#CMSS17-6e" transform="translate(377.632006 0) scale(0.996264)"/>
      <use xlink:href="#CMSS17-75" transform="translate(425.836949 0) scale(0.996264)"/>
      <use xlink:href="#CMSS17-6d" transform="translate(474.041892 0) scale(0.996264)"/>
      <use xlink:href="#CMSS17-62" transform="translate(548.271147 0) scale(0.996264)"/>
      <use xlink:href="#CMSS17-65" transform="translate(599.078529 0) scale(0.996264)"/>
      <use xlink:href="#CMSS17-72" transform="translate(640.717351 0) scale(0.996264)"/>
      <use xlink:href="#CMSS17-2c" transform="translate(672.627123 0) scale(0.996264)"/>
      <use xlink:href="#CMSY10-52" transform="translate(729.880441 0) scale(0.996264)"/>
      <use xlink:href="#CMMI12-65" transform="translate(814.314181 0) scale(0.996264)"/>
      <use xlink:href="#CMR17-3d" transform="translate(887.20019 0) scale(0.996264)"/>
      <use xlink:href="#CMMI12-1a" transform="translate(986.588988 0) scale(0.996264)"/>
      <use xlink:href="#CMR17-30" transform="translate(1036.90336 -14.943915) scale(0.697382)"/>
      <use xlink:href="#CMSY10-70" transform="translate(1069.384674 70.164708) scale(0.996264)"/>
      <use xlink:href="#CMMI12-67" transform="translate(1152.406929 0) scale(0.996264)"/>
      <use xlink:href="#CMSY10-30" transform="translate(1202.692418 28.780957) scale(0.697382)"/>
      <use xlink:href="#CMR17-30" transform="translate(1199.117825 -24.62935) scale(0.697382)"/>
      <use xlink:href="#CMMI12-48" transform="translate(1231.599139 0) scale(0.996264)"/>
      <use xlink:href="#CMR17-30" transform="translate(1312.423976 -14.943915) scale(0.697382)"/>
      <use xlink:href="#CMMI12-48" transform="translate(1344.90529 0) scale(0.996264)"/>
      <use xlink:href="#CMR17-30" transform="translate(1425.730126 -14.943915) scale(0.697382)"/>
      <use xlink:href="#CMMI12-3d" transform="translate(1458.21144 0) scale(0.996264)"/>
      <use xlink:href="#CMMI12-11" transform="translate(1506.986359 0) scale(0.996264)"/>
      <path d="M 1152.406929 70.164708 
L 1344.90529 70.164708 
L 1344.90529 74.149658 
L 1152.406929 74.149658 
L 1152.406929 70.164708 
z
"/>
     </g>
    </g>
   </g>
   <g id="matplotlib.axis_2">
    <g id="ytick_1">
     <g id="line2d_43">
      <defs>
       <path id="m3b4794c7db" d="M 0 0 
L 2.5 0 
" style="stroke: #ffffff; stroke-width: 0.8"/>
      </defs>
      <g>
       <use xlink:href="#m3b4794c7db" x="39.51649" y="157.136272" style="fill: #ffffff; stroke: #ffffff; stroke-width: 0.8"/>
      </g>
     </g>
     <g id="line2d_44">
      <defs>
       <path id="m98064a56b5" d="M 0 0 
L -2.5 0 
" style="stroke: #ffffff; stroke-width: 0.8"/>
      </defs>
      <g>
       <use xlink:href="#m98064a56b5" x="418.080164" y="157.136272" style="fill: #ffffff; stroke: #ffffff; stroke-width: 0.8"/>
      </g>
     </g>
     <g id="text_4">
      <!-- $\mathdefault{10^{-3}}$ -->
      <g style="fill: #ffffff" transform="translate(15.855917 160.595522) scale(0.1 -0.1)">
       <defs>
        <path id="CMSY10-0" d="M 4218 1472 
C 4326 1472 4442 1472 4442 1600 
C 4442 1728 4326 1728 4218 1728 
L 755 1728 
C 646 1728 531 1728 531 1600 
C 531 1472 646 1472 755 1472 
L 4218 1472 
z
" transform="scale(0.015625)"/>
        <path id="CMR17-33" d="M 1414 2157 
C 1984 2157 2234 1662 2234 1090 
C 2234 320 1824 25 1453 25 
C 1114 25 563 194 390 693 
C 422 680 454 680 486 680 
C 640 680 755 782 755 948 
C 755 1133 614 1216 486 1216 
C 378 1216 211 1165 211 926 
C 211 335 787 -128 1466 -128 
C 2176 -128 2720 430 2720 1085 
C 2720 1707 2208 2157 1600 2227 
C 2086 2328 2554 2756 2554 3329 
C 2554 3820 2048 4179 1472 4179 
C 890 4179 378 3829 378 3329 
C 378 3110 544 3072 627 3072 
C 762 3072 877 3155 877 3321 
C 877 3486 762 3569 627 3569 
C 602 3569 570 3569 544 3557 
C 730 3959 1235 4032 1459 4032 
C 1683 4032 2106 3925 2106 3320 
C 2106 3143 2080 2828 1862 2550 
C 1670 2304 1453 2304 1242 2284 
C 1210 2284 1062 2269 1037 2269 
C 992 2263 966 2257 966 2208 
C 966 2163 973 2157 1101 2157 
L 1414 2157 
z
" transform="scale(0.015625)"/>
       </defs>
       <use xlink:href="#CMR17-31" transform="scale(0.996264)"/>
       <use xlink:href="#CMR17-30" transform="translate(45.690477 0) scale(0.996264)"/>
       <use xlink:href="#CMSY10-0" transform="translate(91.380954 36.153639) scale(0.697382)"/>
       <use xlink:href="#CMR17-33" transform="translate(145.621947 36.153639) scale(0.697382)"/>
      </g>
     </g>
    </g>
    <g id="ytick_2">
     <g id="line2d_45">
      <g>
       <use xlink:href="#m3b4794c7db" x="39.51649" y="74.885378" style="fill: #ffffff; stroke: #ffffff; stroke-width: 0.8"/>
      </g>
     </g>
     <g id="line2d_46">
      <g>
       <use xlink:href="#m98064a56b5" x="418.080164" y="74.885378" style="fill: #ffffff; stroke: #ffffff; stroke-width: 0.8"/>
      </g>
     </g>
     <g id="text_5">
      <!-- $\mathdefault{10^{-2}}$ -->
      <g style="fill: #ffffff" transform="translate(15.855917 78.344628) scale(0.1 -0.1)">
       <defs>
        <path id="CMR17-32" d="M 2669 989 
L 2554 989 
C 2490 536 2438 459 2413 420 
C 2381 369 1920 369 1830 369 
L 602 369 
C 832 619 1280 1072 1824 1597 
C 2214 1967 2669 2402 2669 3035 
C 2669 3790 2067 4224 1395 4224 
C 691 4224 262 3604 262 3030 
C 262 2780 448 2748 525 2748 
C 589 2748 781 2787 781 3010 
C 781 3207 614 3264 525 3264 
C 486 3264 448 3258 422 3245 
C 544 3790 915 4058 1306 4058 
C 1862 4058 2227 3617 2227 3035 
C 2227 2479 1901 2000 1536 1584 
L 262 146 
L 262 0 
L 2515 0 
L 2669 989 
z
" transform="scale(0.015625)"/>
       </defs>
       <use xlink:href="#CMR17-31" transform="scale(0.996264)"/>
       <use xlink:href="#CMR17-30" transform="translate(45.690477 0) scale(0.996264)"/>
       <use xlink:href="#CMSY10-0" transform="translate(91.380954 36.153639) scale(0.697382)"/>
       <use xlink:href="#CMR17-32" transform="translate(145.621947 36.153639) scale(0.697382)"/>
      </g>
     </g>
    </g>
    <g id="ytick_3">
     <g id="line2d_47">
      <defs>
       <path id="m84840fcff5" d="M 0 0 
L 2 0 
" style="stroke: #ffffff; stroke-width: 0.6"/>
      </defs>
      <g>
       <use xlink:href="#m84840fcff5" x="39.51649" y="175.38353" style="fill: #ffffff; stroke: #ffffff; stroke-width: 0.6"/>
      </g>
     </g>
     <g id="line2d_48">
      <defs>
       <path id="mdabcb5ae18" d="M 0 0 
L -2 0 
" style="stroke: #ffffff; stroke-width: 0.6"/>
      </defs>
      <g>
       <use xlink:href="#mdabcb5ae18" x="418.080164" y="175.38353" style="fill: #ffffff; stroke: #ffffff; stroke-width: 0.6"/>
      </g>
     </g>
    </g>
    <g id="ytick_4">
     <g id="line2d_49">
      <g>
       <use xlink:href="#m84840fcff5" x="39.51649" y="169.877097" style="fill: #ffffff; stroke: #ffffff; stroke-width: 0.6"/>
      </g>
     </g>
     <g id="line2d_50">
      <g>
       <use xlink:href="#mdabcb5ae18" x="418.080164" y="169.877097" style="fill: #ffffff; stroke: #ffffff; stroke-width: 0.6"/>
      </g>
     </g>
    </g>
    <g id="ytick_5">
     <g id="line2d_51">
      <g>
       <use xlink:href="#m84840fcff5" x="39.51649" y="165.107208" style="fill: #ffffff; stroke: #ffffff; stroke-width: 0.6"/>
      </g>
     </g>
     <g id="line2d_52">
      <g>
       <use xlink:href="#mdabcb5ae18" x="418.080164" y="165.107208" style="fill: #ffffff; stroke: #ffffff; stroke-width: 0.6"/>
      </g>
     </g>
    </g>
    <g id="ytick_6">
     <g id="line2d_53">
      <g>
       <use xlink:href="#m84840fcff5" x="39.51649" y="160.899867" style="fill: #ffffff; stroke: #ffffff; stroke-width: 0.6"/>
      </g>
     </g>
     <g id="line2d_54">
      <g>
       <use xlink:href="#mdabcb5ae18" x="418.080164" y="160.899867" style="fill: #ffffff; stroke: #ffffff; stroke-width: 0.6"/>
      </g>
     </g>
    </g>
    <g id="ytick_7">
     <g id="line2d_55">
      <g>
       <use xlink:href="#m84840fcff5" x="39.51649" y="132.376286" style="fill: #ffffff; stroke: #ffffff; stroke-width: 0.6"/>
      </g>
     </g>
     <g id="line2d_56">
      <g>
       <use xlink:href="#mdabcb5ae18" x="418.080164" y="132.376286" style="fill: #ffffff; stroke: #ffffff; stroke-width: 0.6"/>
      </g>
     </g>
    </g>
    <g id="ytick_8">
     <g id="line2d_57">
      <g>
       <use xlink:href="#m84840fcff5" x="39.51649" y="117.892623" style="fill: #ffffff; stroke: #ffffff; stroke-width: 0.6"/>
      </g>
     </g>
     <g id="line2d_58">
      <g>
       <use xlink:href="#mdabcb5ae18" x="418.080164" y="117.892623" style="fill: #ffffff; stroke: #ffffff; stroke-width: 0.6"/>
      </g>
     </g>
    </g>
    <g id="ytick_9">
     <g id="line2d_59">
      <g>
       <use xlink:href="#m84840fcff5" x="39.51649" y="107.6163" style="fill: #ffffff; stroke: #ffffff; stroke-width: 0.6"/>
      </g>
     </g>
     <g id="line2d_60">
      <g>
       <use xlink:href="#mdabcb5ae18" x="418.080164" y="107.6163" style="fill: #ffffff; stroke: #ffffff; stroke-width: 0.6"/>
      </g>
     </g>
    </g>
    <g id="ytick_10">
     <g id="line2d_61">
      <g>
       <use xlink:href="#m84840fcff5" x="39.51649" y="99.645365" style="fill: #ffffff; stroke: #ffffff; stroke-width: 0.6"/>
      </g>
     </g>
     <g id="line2d_62">
      <g>
       <use xlink:href="#mdabcb5ae18" x="418.080164" y="99.645365" style="fill: #ffffff; stroke: #ffffff; stroke-width: 0.6"/>
      </g>
     </g>
    </g>
    <g id="ytick_11">
     <g id="line2d_63">
      <g>
       <use xlink:href="#m84840fcff5" x="39.51649" y="93.132636" style="fill: #ffffff; stroke: #ffffff; stroke-width: 0.6"/>
      </g>
     </g>
     <g id="line2d_64">
      <g>
       <use xlink:href="#mdabcb5ae18" x="418.080164" y="93.132636" style="fill: #ffffff; stroke: #ffffff; stroke-width: 0.6"/>
      </g>
     </g>
    </g>
    <g id="ytick_12">
     <g id="line2d_65">
      <g>
       <use xlink:href="#m84840fcff5" x="39.51649" y="87.626203" style="fill: #ffffff; stroke: #ffffff; stroke-width: 0.6"/>
      </g>
     </g>
     <g id="line2d_66">
      <g>
       <use xlink:href="#mdabcb5ae18" x="418.080164" y="87.626203" style="fill: #ffffff; stroke: #ffffff; stroke-width: 0.6"/>
      </g>
     </g>
    </g>
    <g id="ytick_13">
     <g id="line2d_67">
      <g>
       <use xlink:href="#m84840fcff5" x="39.51649" y="82.856314" style="fill: #ffffff; stroke: #ffffff; stroke-width: 0.6"/>
      </g>
     </g>
     <g id="line2d_68">
      <g>
       <use xlink:href="#mdabcb5ae18" x="418.080164" y="82.856314" style="fill: #ffffff; stroke: #ffffff; stroke-width: 0.6"/>
      </g>
     </g>
    </g>
    <g id="ytick_14">
     <g id="line2d_69">
      <g>
       <use xlink:href="#m84840fcff5" x="39.51649" y="78.648973" style="fill: #ffffff; stroke: #ffffff; stroke-width: 0.6"/>
      </g>
     </g>
     <g id="line2d_70">
      <g>
       <use xlink:href="#mdabcb5ae18" x="418.080164" y="78.648973" style="fill: #ffffff; stroke: #ffffff; stroke-width: 0.6"/>
      </g>
     </g>
    </g>
    <g id="ytick_15">
     <g id="line2d_71">
      <g>
       <use xlink:href="#m84840fcff5" x="39.51649" y="50.125392" style="fill: #ffffff; stroke: #ffffff; stroke-width: 0.6"/>
      </g>
     </g>
     <g id="line2d_72">
      <g>
       <use xlink:href="#mdabcb5ae18" x="418.080164" y="50.125392" style="fill: #ffffff; stroke: #ffffff; stroke-width: 0.6"/>
      </g>
     </g>
    </g>
    <g id="ytick_16">
     <g id="line2d_73">
      <g>
       <use xlink:href="#m84840fcff5" x="39.51649" y="35.641729" style="fill: #ffffff; stroke: #ffffff; stroke-width: 0.6"/>
      </g>
     </g>
     <g id="line2d_74">
      <g>
       <use xlink:href="#mdabcb5ae18" x="418.080164" y="35.641729" style="fill: #ffffff; stroke: #ffffff; stroke-width: 0.6"/>
      </g>
     </g>
    </g>
    <g id="ytick_17">
     <g id="line2d_75">
      <g>
       <use xlink:href="#m84840fcff5" x="39.51649" y="25.365406" style="fill: #ffffff; stroke: #ffffff; stroke-width: 0.6"/>
      </g>
     </g>
     <g id="line2d_76">
      <g>
       <use xlink:href="#mdabcb5ae18" x="418.080164" y="25.365406" style="fill: #ffffff; stroke: #ffffff; stroke-width: 0.6"/>
      </g>
     </g>
    </g>
    <g id="ytick_18">
     <g id="line2d_77">
      <g>
       <use xlink:href="#m84840fcff5" x="39.51649" y="17.394471" style="fill: #ffffff; stroke: #ffffff; stroke-width: 0.6"/>
      </g>
     </g>
     <g id="line2d_78">
      <g>
       <use xlink:href="#mdabcb5ae18" x="418.080164" y="17.394471" style="fill: #ffffff; stroke: #ffffff; stroke-width: 0.6"/>
      </g>
     </g>
    </g>
    <g id="ytick_19">
     <g id="line2d_79">
      <g>
       <use xlink:href="#m84840fcff5" x="39.51649" y="10.881743" style="fill: #ffffff; stroke: #ffffff; stroke-width: 0.6"/>
      </g>
     </g>
     <g id="line2d_80">
      <g>
       <use xlink:href="#mdabcb5ae18" x="418.080164" y="10.881743" style="fill: #ffffff; stroke: #ffffff; stroke-width: 0.6"/>
      </g>
     </g>
    </g>
    <g id="ytick_20">
     <g id="line2d_81">
      <g>
       <use xlink:href="#m84840fcff5" x="39.51649" y="5.375309" style="fill: #ffffff; stroke: #ffffff; stroke-width: 0.6"/>
      </g>
     </g>
     <g id="line2d_82">
      <g>
       <use xlink:href="#mdabcb5ae18" x="418.080164" y="5.375309" style="fill: #ffffff; stroke: #ffffff; stroke-width: 0.6"/>
      </g>
     </g>
    </g>
    <g id="text_6">
     <!-- Entrainment coefficient, $E$ -->
     <g style="fill: #ffffff" transform="translate(9.918738 144.425783) rotate(-90) scale(0.1 -0.1)">
      <defs>
       <path id="CMSS17-45" d="M 1958 433 
C 1446 433 1216 433 1101 433 
L 1101 2107 
L 3085 2107 
L 3085 2496 
L 1101 2496 
L 1101 4009 
L 1926 4009 
C 2003 4009 2080 4009 2157 4009 
L 3251 4009 
L 3251 4416 
L 563 4416 
L 563 0 
L 3334 0 
L 3334 433 
L 1958 433 
z
" transform="scale(0.015625)"/>
       <path id="CMSS17-74" d="M 1069 2368 
L 1901 2368 
L 1901 2737 
L 1069 2737 
L 1069 3520 
L 614 3520 
L 614 2737 
L 109 2737 
L 109 2368 
L 602 2368 
L 602 749 
C 602 384 685 -64 1107 -64 
C 1427 -64 1722 25 2003 172 
L 1901 548 
C 1747 414 1562 337 1363 337 
C 1082 337 1069 696 1069 856 
L 1069 2368 
z
" transform="scale(0.015625)"/>
       <path id="CMSS17-61" d="M 2406 1791 
C 2406 2392 1978 2808 1402 2808 
C 1120 2808 813 2757 461 2553 
L 499 2135 
C 659 2248 934 2432 1395 2432 
C 1722 2432 1920 2180 1920 1782 
L 1920 1536 
C 896 1536 256 1238 256 726 
C 256 461 416 -64 947 -64 
C 1043 -64 1562 -64 1933 217 
L 1933 -19 
L 2406 -19 
L 2406 1791 
z
M 1920 816 
C 1920 701 1920 548 1728 434 
C 1562 325 1350 325 1261 325 
C 941 325 723 511 723 744 
C 723 1211 1722 1211 1920 1211 
L 1920 816 
z
" transform="scale(0.015625)"/>
       <path id="CMSS17-69" d="M 979 4183 
L 442 4183 
L 442 3648 
L 979 3648 
L 979 4183 
z
M 947 2739 
L 474 2739 
L 474 0 
L 947 0 
L 947 2739 
z
" transform="scale(0.015625)"/>
       <path id="CMSS17-63" d="M 2464 2541 
C 2464 2585 2170 2714 2093 2739 
C 1882 2816 1613 2816 1542 2816 
C 710 2816 211 2093 211 1363 
C 211 595 768 -64 1517 -64 
C 1946 -64 2253 76 2502 242 
L 2464 664 
C 2189 453 1869 337 1523 337 
C 1024 337 698 774 698 1369 
C 698 1831 909 2414 1549 2414 
C 1901 2414 2099 2343 2394 2145 
L 2464 2541 
z
" transform="scale(0.015625)"/>
       <path id="CMSS17-e" d="M 4422 4416 
L 3910 4416 
L 3910 3906 
L 4422 3906 
L 4422 4416 
z
M 4403 2737 
L 3930 2737 
L 3930 0 
L 4403 0 
L 4403 2737 
z
M 2739 2368 
L 3437 2368 
L 3437 2737 
L 2726 2737 
L 2726 3578 
C 2726 3919 2880 4092 3085 4092 
C 3226 4092 3360 4042 3437 3992 
L 3437 4416 
C 3322 4461 3270 4480 3085 4480 
C 2605 4480 2266 3995 2266 3376 
L 2266 0 
L 2739 0 
L 2739 2368 
z
M 1075 2368 
L 1773 2368 
L 1773 2737 
L 1062 2737 
L 1062 3565 
C 1062 3995 1325 4092 1510 4092 
C 1619 4092 1773 4070 1920 3999 
L 1920 4410 
C 1754 4480 1728 4480 1510 4480 
C 986 4480 602 3999 602 3366 
L 602 2737 
L 160 2737 
L 160 2368 
L 602 2368 
L 602 0 
L 1075 0 
L 1075 2368 
z
" transform="scale(0.015625)"/>
       <path id="CMMI12-45" d="M 4448 1489 
C 4454 1508 4474 1554 4474 1579 
C 4474 1611 4448 1643 4410 1643 
C 4384 1643 4371 1637 4352 1617 
C 4339 1611 4339 1598 4282 1469 
C 3904 570 3629 185 2605 185 
L 1670 185 
C 1581 185 1568 185 1530 192 
C 1459 198 1453 211 1453 262 
C 1453 307 1466 345 1478 403 
L 1920 2176 
L 2554 2176 
C 3053 2176 3091 2066 3091 1874 
C 3091 1810 3091 1752 3046 1560 
C 3034 1534 3027 1508 3027 1489 
C 3027 1444 3059 1425 3098 1425 
C 3155 1425 3162 1469 3187 1559 
L 3552 3042 
C 3552 3073 3526 3105 3488 3105 
C 3430 3105 3424 3080 3398 2990 
C 3270 2501 3142 2361 2573 2361 
L 1965 2361 
L 2362 3930 
C 2419 4154 2432 4154 2694 4154 
L 3610 4154 
C 4397 4154 4557 3943 4557 3458 
C 4557 3451 4557 3273 4531 3062 
C 4525 3036 4518 2998 4518 2985 
C 4518 2934 4550 2915 4589 2915 
C 4634 2915 4659 2941 4672 3055 
L 4806 4174 
C 4806 4195 4819 4263 4819 4277 
C 4819 4352 4762 4352 4646 4352 
L 1523 4352 
C 1402 4352 1338 4352 1338 4229 
C 1338 4154 1382 4154 1491 4154 
C 1888 4154 1888 4114 1888 4052 
C 1888 4020 1882 3994 1862 3924 
L 998 473 
C 941 249 928 185 480 185 
C 358 185 294 185 294 70 
C 294 0 333 0 461 0 
L 3674 0 
C 3814 0 3821 6 3866 110 
L 4448 1489 
z
" transform="scale(0.015625)"/>
      </defs>
      <use xlink:href="#CMSS17-45" transform="scale(0.996264)"/>
      <use xlink:href="#CMSS17-6e" transform="translate(55.892013 0) scale(0.996264)"/>
      <use xlink:href="#CMSS17-74" transform="translate(104.096956 0) scale(0.996264)"/>
      <use xlink:href="#CMSS17-72" transform="translate(137.928523 0) scale(0.996264)"/>
      <use xlink:href="#CMSS17-61" transform="translate(169.838296 0) scale(0.996264)"/>
      <use xlink:href="#CMSS17-69" transform="translate(214.760216 0) scale(0.996264)"/>
      <use xlink:href="#CMSS17-6e" transform="translate(236.940939 0) scale(0.996264)"/>
      <use xlink:href="#CMSS17-6d" transform="translate(285.145882 0) scale(0.996264)"/>
      <use xlink:href="#CMSS17-65" transform="translate(359.375137 0) scale(0.996264)"/>
      <use xlink:href="#CMSS17-6e" transform="translate(401.013959 0) scale(0.996264)"/>
      <use xlink:href="#CMSS17-74" transform="translate(449.218902 0) scale(0.996264)"/>
      <use xlink:href="#CMSS17-63" transform="translate(514.279581 0) scale(0.996264)"/>
      <use xlink:href="#CMSS17-6f" transform="translate(555.918404 0) scale(0.996264)"/>
      <use xlink:href="#CMSS17-65" transform="translate(605.364466 0) scale(0.996264)"/>
      <use xlink:href="#CMSS17-e" transform="translate(647.003288 0) scale(0.996264)"/>
      <use xlink:href="#CMSS17-63" transform="translate(723.15423 0) scale(0.996264)"/>
      <use xlink:href="#CMSS17-69" transform="translate(764.793052 0) scale(0.996264)"/>
      <use xlink:href="#CMSS17-65" transform="translate(786.973775 0) scale(0.996264)"/>
      <use xlink:href="#CMSS17-6e" transform="translate(828.612597 0) scale(0.996264)"/>
      <use xlink:href="#CMSS17-74" transform="translate(876.81754 0) scale(0.996264)"/>
      <use xlink:href="#CMSS17-2c" transform="translate(910.649107 0) scale(0.996264)"/>
      <use xlink:href="#CMMI12-45" transform="translate(967.902425 0) scale(0.996264)"/>
     </g>
    </g>
   </g>
   <g id="LineCollection_1">
    <path d="M 165.864687 107.567606 
L 203.573437 107.567606 
" clip-path="url(#p1b88cfdaeb)" style="fill: none; stroke: #3d4389; stroke-width: 1.5"/>
   </g>
   <g id="LineCollection_2">
    <path d="M 187.230728 207.694722 
L 187.230728 42.934994 
" clip-path="url(#p1b88cfdaeb)" style="fill: none; stroke: #3d4389; stroke-width: 1.5"/>
   </g>
   <g id="LineCollection_3">
    <path d="M 242.880182 31.945803 
L 258.775949 31.945803 
" clip-path="url(#p1b88cfdaeb)" style="fill: none; stroke: #3d4389; stroke-width: 1.5"/>
   </g>
   <g id="LineCollection_4">
    <path d="M 251.278779 37.73892 
L 251.278779 26.962401 
" clip-path="url(#p1b88cfdaeb)" style="fill: none; stroke: #3d4389; stroke-width: 1.5"/>
   </g>
   <g id="LineCollection_5">
    <path d="M 279.591233 34.22264 
L 294.516282 34.22264 
" clip-path="url(#p1b88cfdaeb)" style="fill: none; stroke: #bce4e7; stroke-width: 1.5"/>
   </g>
   <g id="LineCollection_6">
    <path d="M 287.451205 39.685555 
L 287.451205 29.485425 
" clip-path="url(#p1b88cfdaeb)" style="fill: none; stroke: #bce4e7; stroke-width: 1.5"/>
   </g>
   <g id="LineCollection_7">
    <path d="M 328.950528 20.317528 
L 343.793674 20.317528 
" clip-path="url(#p1b88cfdaeb)" style="fill: none; stroke: #ff800e; stroke-width: 1.5"/>
   </g>
   <g id="LineCollection_8">
    <path d="M 336.765207 27.498262 
L 336.765207 14.341481 
" clip-path="url(#p1b88cfdaeb)" style="fill: none; stroke: #ff800e; stroke-width: 1.5"/>
   </g>
   <g id="LineCollection_9">
    <path d="M 180.669468 44.877213 
L 206.139741 44.877213 
" clip-path="url(#p1b88cfdaeb)" style="fill: none; stroke: #ff800e; stroke-width: 1.5"/>
   </g>
   <g id="LineCollection_10">
    <path d="M 194.55793 81.852778 
L 194.55793 27.10138 
" clip-path="url(#p1b88cfdaeb)" style="fill: none; stroke: #ff800e; stroke-width: 1.5"/>
   </g>
   <g id="LineCollection_11">
    <path d="M 250.14884 25.908326 
L 265.364501 25.908326 
" clip-path="url(#p1b88cfdaeb)" style="fill: none; stroke: #c85200; stroke-width: 1.5"/>
   </g>
   <g id="LineCollection_12">
    <path d="M 258.169716 33.820228 
L 258.169716 19.435008 
" clip-path="url(#p1b88cfdaeb)" style="fill: none; stroke: #c85200; stroke-width: 1.5"/>
   </g>
   <g id="LineCollection_13">
    <path d="M 191.256021 58.195326 
L 212.780818 58.195326 
" clip-path="url(#p1b88cfdaeb)" style="fill: none; stroke: #c85200; stroke-width: 1.5"/>
   </g>
   <g id="LineCollection_14">
    <path d="M 202.843397 95.271409 
L 202.843397 40.397824 
" clip-path="url(#p1b88cfdaeb)" style="fill: none; stroke: #c85200; stroke-width: 1.5"/>
   </g>
   <g id="LineCollection_15">
    <path d="M 299.336704 32.538635 
L 314.205652 32.538635 
" clip-path="url(#p1b88cfdaeb)" style="fill: none; stroke: #ababab; stroke-width: 1.5"/>
   </g>
   <g id="LineCollection_16">
    <path d="M 307.165649 37.715381 
L 307.165649 28.018023 
" clip-path="url(#p1b88cfdaeb)" style="fill: none; stroke: #ababab; stroke-width: 1.5"/>
   </g>
   <g id="LineCollection_17">
    <path d="M 225.324855 35.694609 
L 242.863025 35.694609 
" clip-path="url(#p1b88cfdaeb)" style="fill: none; stroke: #5ea3c6; stroke-width: 1.5"/>
   </g>
   <g id="LineCollection_18">
    <path d="M 234.642349 42.971949 
L 234.642349 29.651873 
" clip-path="url(#p1b88cfdaeb)" style="fill: none; stroke: #5ea3c6; stroke-width: 1.5"/>
   </g>
   <g id="LineCollection_19">
    <path d="M 234.030277 65.780414 
L 250.530427 65.780414 
" clip-path="url(#p1b88cfdaeb)" style="fill: none; stroke: #3f6cb2; stroke-width: 1.5"/>
   </g>
   <g id="LineCollection_20">
    <path d="M 242.765911 69.492652 
L 242.765911 62.417902 
" clip-path="url(#p1b88cfdaeb)" style="fill: none; stroke: #3f6cb2; stroke-width: 1.5"/>
   </g>
   <g id="line2d_83">
    <defs>
     <path id="m6319e9d1db" d="M 0 2.5 
C 0.663008 2.5 1.29895 2.236584 1.767767 1.767767 
C 2.236584 1.29895 2.5 0.663008 2.5 0 
C 2.5 -0.663008 2.236584 -1.29895 1.767767 -1.767767 
C 1.29895 -2.236584 0.663008 -2.5 0 -2.5 
C -0.663008 -2.5 -1.29895 -2.236584 -1.767767 -1.767767 
C -2.236584 -1.29895 -2.5 -0.663008 -2.5 0 
C -2.5 0.663008 -2.236584 1.29895 -1.767767 1.767767 
C -1.29895 2.236584 -0.663008 2.5 0 2.5 
z
"/>
    </defs>
    <g clip-path="url(#p1b88cfdaeb)">
     <use xlink:href="#m6319e9d1db" x="187.230728" y="107.567606" style="fill: #3d4389"/>
    </g>
   </g>
   <g id="line2d_84">
    <g clip-path="url(#p1b88cfdaeb)">
     <use xlink:href="#m6319e9d1db" x="251.278779" y="31.945803" style="fill: #3d4389"/>
    </g>
   </g>
   <g id="line2d_85">
    <defs>
     <path id="me5ced69038" d="M 0 2.5 
C 0.663008 2.5 1.29895 2.236584 1.767767 1.767767 
C 2.236584 1.29895 2.5 0.663008 2.5 0 
C 2.5 -0.663008 2.236584 -1.29895 1.767767 -1.767767 
C 1.29895 -2.236584 0.663008 -2.5 0 -2.5 
C -0.663008 -2.5 -1.29895 -2.236584 -1.767767 -1.767767 
C -2.236584 -1.29895 -2.5 -0.663008 -2.5 0 
C -2.5 0.663008 -2.236584 1.29895 -1.767767 1.767767 
C -1.29895 2.236584 -0.663008 2.5 0 2.5 
z
"/>
    </defs>
    <g clip-path="url(#p1b88cfdaeb)">
     <use xlink:href="#me5ced69038" x="287.451205" y="34.22264" style="fill: #bce4e7"/>
    </g>
   </g>
   <g id="line2d_86">
    <defs>
     <path id="m0366da368d" d="M 0 2.5 
C 0.663008 2.5 1.29895 2.236584 1.767767 1.767767 
C 2.236584 1.29895 2.5 0.663008 2.5 0 
C 2.5 -0.663008 2.236584 -1.29895 1.767767 -1.767767 
C 1.29895 -2.236584 0.663008 -2.5 0 -2.5 
C -0.663008 -2.5 -1.29895 -2.236584 -1.767767 -1.767767 
C -2.236584 -1.29895 -2.5 -0.663008 -2.5 0 
C -2.5 0.663008 -2.236584 1.29895 -1.767767 1.767767 
C -1.29895 2.236584 -0.663008 2.5 0 2.5 
z
"/>
    </defs>
    <g clip-path="url(#p1b88cfdaeb)">
     <use xlink:href="#m0366da368d" x="336.765207" y="20.317528" style="fill: #ff800e"/>
    </g>
   </g>
   <g id="line2d_87">
    <g clip-path="url(#p1b88cfdaeb)">
     <use xlink:href="#m0366da368d" x="194.55793" y="44.877213" style="fill: #ff800e"/>
    </g>
   </g>
   <g id="line2d_88">
    <defs>
     <path id="m6c1bec7de1" d="M 0 2.5 
C 0.663008 2.5 1.29895 2.236584 1.767767 1.767767 
C 2.236584 1.29895 2.5 0.663008 2.5 0 
C 2.5 -0.663008 2.236584 -1.29895 1.767767 -1.767767 
C 1.29895 -2.236584 0.663008 -2.5 0 -2.5 
C -0.663008 -2.5 -1.29895 -2.236584 -1.767767 -1.767767 
C -2.236584 -1.29895 -2.5 -0.663008 -2.5 0 
C -2.5 0.663008 -2.236584 1.29895 -1.767767 1.767767 
C -1.29895 2.236584 -0.663008 2.5 0 2.5 
z
"/>
    </defs>
    <g clip-path="url(#p1b88cfdaeb)">
     <use xlink:href="#m6c1bec7de1" x="258.169716" y="25.908326" style="fill: #c85200"/>
    </g>
   </g>
   <g id="line2d_89">
    <g clip-path="url(#p1b88cfdaeb)">
     <use xlink:href="#m6c1bec7de1" x="202.843397" y="58.195326" style="fill: #c85200"/>
    </g>
   </g>
   <g id="line2d_90">
    <defs>
     <path id="m814842be13" d="M 0 2.5 
C 0.663008 2.5 1.29895 2.236584 1.767767 1.767767 
C 2.236584 1.29895 2.5 0.663008 2.5 0 
C 2.5 -0.663008 2.236584 -1.29895 1.767767 -1.767767 
C 1.29895 -2.236584 0.663008 -2.5 0 -2.5 
C -0.663008 -2.5 -1.29895 -2.236584 -1.767767 -1.767767 
C -2.236584 -1.29895 -2.5 -0.663008 -2.5 0 
C -2.5 0.663008 -2.236584 1.29895 -1.767767 1.767767 
C -1.29895 2.236584 -0.663008 2.5 0 2.5 
z
"/>
    </defs>
    <g clip-path="url(#p1b88cfdaeb)">
     <use xlink:href="#m814842be13" x="307.165649" y="32.538635" style="fill: #ababab"/>
    </g>
   </g>
   <g id="line2d_91">
    <defs>
     <path id="mad35dab226" d="M 0 2.5 
C 0.663008 2.5 1.29895 2.236584 1.767767 1.767767 
C 2.236584 1.29895 2.5 0.663008 2.5 0 
C 2.5 -0.663008 2.236584 -1.29895 1.767767 -1.767767 
C 1.29895 -2.236584 0.663008 -2.5 0 -2.5 
C -0.663008 -2.5 -1.29895 -2.236584 -1.767767 -1.767767 
C -2.236584 -1.29895 -2.5 -0.663008 -2.5 0 
C -2.5 0.663008 -2.236584 1.29895 -1.767767 1.767767 
C -1.29895 2.236584 -0.663008 2.5 0 2.5 
z
"/>
    </defs>
    <g clip-path="url(#p1b88cfdaeb)">
     <use xlink:href="#mad35dab226" x="234.642349" y="35.694609" style="fill: #5ea3c6"/>
    </g>
   </g>
   <g id="line2d_92">
    <defs>
     <path id="mc512b709a3" d="M 0 2.5 
C 0.663008 2.5 1.29895 2.236584 1.767767 1.767767 
C 2.236584 1.29895 2.5 0.663008 2.5 0 
C 2.5 -0.663008 2.236584 -1.29895 1.767767 -1.767767 
C 1.29895 -2.236584 0.663008 -2.5 0 -2.5 
C -0.663008 -2.5 -1.29895 -2.236584 -1.767767 -1.767767 
C -2.236584 -1.29895 -2.5 -0.663008 -2.5 0 
C -2.5 0.663008 -2.236584 1.29895 -1.767767 1.767767 
C -1.29895 2.236584 -0.663008 2.5 0 2.5 
z
"/>
    </defs>
    <g clip-path="url(#p1b88cfdaeb)">
     <use xlink:href="#mc512b709a3" x="242.765911" y="65.780414" style="fill: #3f6cb2"/>
    </g>
   </g>
   <g id="patch_4">
    <path d="M 39.51649 175.38353 
L 39.51649 3.00024 
" style="fill: none; stroke: #ffffff; stroke-width: 0.8; stroke-linejoin: miter; stroke-linecap: square"/>
   </g>
   <g id="patch_5">
    <path d="M 418.080164 175.38353 
L 418.080164 3.00024 
" style="fill: none; stroke: #ffffff; stroke-width: 0.8; stroke-linejoin: miter; stroke-linecap: square"/>
   </g>
   <g id="patch_6">
    <path d="M 39.51649 175.38353 
L 418.080164 175.38353 
" style="fill: none; stroke: #ffffff; stroke-width: 0.8; stroke-linejoin: miter; stroke-linecap: square"/>
   </g>
   <g id="patch_7">
    <path d="M 39.51649 3.00024 
L 418.080164 3.00024 
" style="fill: none; stroke: #ffffff; stroke-width: 0.8; stroke-linejoin: miter; stroke-linecap: square"/>
   </g>
   <g id="legend_1">
    <g id="patch_8">
     <path d="M 46.51649 97.660474 
L 132.895941 97.660474 
Q 134.895941 97.660474 134.895941 95.660474 
L 134.895941 82.723296 
Q 134.895941 80.723296 132.895941 80.723296 
L 46.51649 80.723296 
Q 44.51649 80.723296 44.51649 82.723296 
L 44.51649 95.660474 
Q 44.51649 97.660474 46.51649 97.660474 
z
" style="fill: #191919; opacity: 0.8; stroke: #cccccc; stroke-linejoin: miter"/>
    </g>
    <g id="patch_9">
     <path d="M 58.51649 91.723296 
C 61.168521 91.723296 63.712289 91.354514 65.587558 90.69817 
C 67.462827 90.041826 68.51649 89.151507 68.51649 88.223296 
C 68.51649 87.295085 67.462827 86.404766 65.587558 85.748422 
C 63.712289 85.092078 61.168521 84.723296 58.51649 84.723296 
C 55.864459 84.723296 53.320691 85.092078 51.445422 85.748422 
C 49.570153 86.404766 48.51649 87.295085 48.51649 88.223296 
C 48.51649 89.151507 49.570153 90.041826 51.445422 90.69817 
C 53.320691 91.354514 55.864459 91.723296 58.51649 91.723296 
L 58.51649 91.723296 
z
" style="fill: none; stroke: #ffffff; stroke-linejoin: miter"/>
    </g>
    <g id="text_7">
     <!-- biased points -->
     <g style="fill: #ffffff" transform="translate(76.51649 91.723296) scale(0.1 -0.1)">
      <defs>
       <path id="CMSS17-70" d="M 966 333 
C 1178 129 1466 -5 1773 -5 
C 2368 -5 2880 603 2880 1412 
C 2880 2159 2496 2816 1946 2816 
C 1626 2816 1242 2702 954 2472 
L 954 2765 
L 480 2765 
L 480 -1216 
L 966 -1216 
L 966 333 
z
M 966 2100 
C 1018 2176 1235 2415 1587 2415 
C 2035 2415 2394 1960 2394 1412 
C 2394 787 1958 384 1530 384 
C 1402 384 1267 415 1139 523 
C 966 674 966 768 966 857 
L 966 2100 
z
" transform="scale(0.015625)"/>
      </defs>
      <use xlink:href="#CMSS17-62" transform="scale(0.996264)"/>
      <use xlink:href="#CMSS17-69" transform="translate(48.204943 0) scale(0.996264)"/>
      <use xlink:href="#CMSS17-61" transform="translate(70.385666 0) scale(0.996264)"/>
      <use xlink:href="#CMSS17-73" transform="translate(115.307587 0) scale(0.996264)"/>
      <use xlink:href="#CMSS17-65" transform="translate(151.221129 0) scale(0.996264)"/>
      <use xlink:href="#CMSS17-64" transform="translate(192.859951 0) scale(0.996264)"/>
      <use xlink:href="#CMSS17-70" transform="translate(272.294007 0) scale(0.996264)"/>
      <use xlink:href="#CMSS17-6f" transform="translate(323.101389 0) scale(0.996264)"/>
      <use xlink:href="#CMSS17-69" transform="translate(369.945012 0) scale(0.996264)"/>
      <use xlink:href="#CMSS17-6e" transform="translate(392.125735 0) scale(0.996264)"/>
      <use xlink:href="#CMSS17-74" transform="translate(440.330678 0) scale(0.996264)"/>
      <use xlink:href="#CMSS17-73" transform="translate(474.162245 0) scale(0.996264)"/>
     </g>
    </g>
   </g>
  </g>
 </g>
 <defs>
  <clipPath id="p1b88cfdaeb">
   <rect x="39.51649" y="3.00024" width="378.563674" height="172.38329"/>
  </clipPath>
 </defs>
</svg>
