<?xml version="1.0" encoding="utf-8" standalone="no"?>
<!DOCTYPE svg PUBLIC "-//W3C//DTD SVG 1.1//EN"
  "http://www.w3.org/Graphics/SVG/1.1/DTD/svg11.dtd">
<svg xmlns:xlink="http://www.w3.org/1999/xlink" width="421.080404pt" height="192.226091pt" viewBox="0 0 421.080404 192.226091" xmlns="http://www.w3.org/2000/svg" version="1.1">
 <metadata>
  <rdf:RDF xmlns:dc="http://purl.org/dc/elements/1.1/" xmlns:cc="http://creativecommons.org/ns#" xmlns:rdf="http://www.w3.org/1999/02/22-rdf-syntax-ns#">
   <cc:Work>
    <dc:type rdf:resource="http://purl.org/dc/dcmitype/StillImage"/>
    <dc:date>2023-06-27T18:34:58.090911</dc:date>
    <dc:format>image/svg+xml</dc:format>
    <dc:creator>
     <cc:Agent>
      <dc:title>Matplotlib v3.7.1, https://matplotlib.org/</dc:title>
     </cc:Agent>
    </dc:creator>
   </cc:Work>
  </rdf:RDF>
 </metadata>
 <defs>
  <style type="text/css">*{stroke-linejoin: round; stroke-linecap: butt}</style>
 </defs>
 <g id="figure_1">
  <g id="patch_1">
   <path d="M 0 192.226091 
L 421.080404 192.226091 
L 421.080404 0 
L 0 0 
z
" style="fill: #191919"/>
  </g>
  <g id="axes_1">
   <g id="patch_2">
    <path d="M 51.454599 162.907534 
L 310.430051 162.907534 
L 310.430051 3.844522 
L 51.454599 3.844522 
z
" style="fill: #191919"/>
   </g>
   <g id="line2d_1">
    <path d="M 51.454599 53.854483 
L 310.430051 53.854483 
" clip-path="url(#p3630d1956a)" style="fill: none; stroke-dasharray: 3.7,1.6; stroke-dashoffset: 0; stroke: #ffffff"/>
   </g>
   <g id="matplotlib.axis_1">
    <g id="xtick_1">
     <g id="line2d_2">
      <defs>
       <path id="m1ff716cf1c" d="M 0 0 
L 0 -2.5 
" style="stroke: #ffffff; stroke-width: 0.8"/>
      </defs>
      <g>
       <use xlink:href="#m1ff716cf1c" x="188.357815" y="162.907534" style="fill: #ffffff; stroke: #ffffff; stroke-width: 0.8"/>
      </g>
     </g>
     <g id="line2d_3">
      <defs>
       <path id="m5ded9adb2c" d="M 0 0 
L 0 2.5 
" style="stroke: #ffffff; stroke-width: 0.8"/>
      </defs>
      <g>
       <use xlink:href="#m5ded9adb2c" x="188.357815" y="3.844522" style="fill: #ffffff; stroke: #ffffff; stroke-width: 0.8"/>
      </g>
     </g>
     <g id="text_1">
      <!-- $\mathdefault{10^{5}}$ -->
      <g style="fill: #ffffff" transform="translate(181.390861 173.326033) scale(0.1 -0.1)">
       <defs>
        <path id="CMR17-31" d="M 1702 4058 
C 1702 4192 1696 4192 1606 4192 
C 1357 3916 979 3827 621 3827 
C 602 3827 570 3827 563 3808 
C 557 3795 557 3782 557 3648 
C 755 3648 1088 3686 1344 3839 
L 1344 461 
C 1344 236 1331 160 781 160 
L 589 160 
L 589 0 
C 896 0 1216 0 1523 0 
C 1830 0 2150 0 2458 0 
L 2458 160 
L 2266 160 
C 1715 160 1702 230 1702 458 
L 1702 4058 
z
" transform="scale(0.015625)"/>
        <path id="CMR17-30" d="M 2688 2025 
C 2688 2416 2682 3080 2413 3591 
C 2176 4039 1798 4198 1466 4198 
C 1158 4198 768 4058 525 3597 
C 269 3118 243 2524 243 2025 
C 243 1661 250 1106 448 619 
C 723 -39 1216 -128 1466 -128 
C 1760 -128 2208 -7 2470 600 
C 2662 1042 2688 1559 2688 2025 
z
M 1466 -26 
C 1056 -26 813 325 723 812 
C 653 1188 653 1738 653 2096 
C 653 2588 653 2997 736 3387 
C 858 3929 1216 4096 1466 4096 
C 1728 4096 2067 3923 2189 3400 
C 2272 3036 2278 2607 2278 2096 
C 2278 1680 2278 1169 2202 792 
C 2067 95 1690 -26 1466 -26 
z
" transform="scale(0.015625)"/>
        <path id="CMR17-35" d="M 730 3692 
C 794 3666 1056 3584 1325 3584 
C 1920 3584 2246 3911 2432 4100 
C 2432 4157 2432 4192 2394 4192 
C 2387 4192 2374 4192 2323 4163 
C 2099 4058 1837 3973 1517 3973 
C 1325 3973 1037 3999 723 4139 
C 653 4171 640 4171 634 4171 
C 602 4171 595 4164 595 4037 
L 595 2203 
C 595 2089 595 2057 659 2057 
C 691 2057 704 2070 736 2114 
C 941 2401 1222 2522 1542 2522 
C 1766 2522 2246 2382 2246 1289 
C 2246 1085 2246 715 2054 421 
C 1894 159 1645 25 1370 25 
C 947 25 518 320 403 814 
C 429 807 480 795 506 795 
C 589 795 749 840 749 1038 
C 749 1210 627 1280 506 1280 
C 358 1280 262 1190 262 1011 
C 262 454 704 -128 1382 -128 
C 2042 -128 2669 440 2669 1264 
C 2669 2030 2170 2624 1549 2624 
C 1222 2624 947 2503 730 2274 
L 730 3692 
z
" transform="scale(0.015625)"/>
       </defs>
       <use xlink:href="#CMR17-31" transform="scale(0.996264)"/>
       <use xlink:href="#CMR17-30" transform="translate(45.690477 0) scale(0.996264)"/>
       <use xlink:href="#CMR17-35" transform="translate(91.380954 36.153639) scale(0.697382)"/>
      </g>
     </g>
    </g>
    <g id="xtick_2">
     <g id="line2d_4">
      <defs>
       <path id="mf7379d9973" d="M 0 0 
L 0 -2 
" style="stroke: #ffffff; stroke-width: 0.6"/>
      </defs>
      <g>
       <use xlink:href="#mf7379d9973" x="51.454599" y="162.907534" style="fill: #ffffff; stroke: #ffffff; stroke-width: 0.6"/>
      </g>
     </g>
     <g id="line2d_5">
      <defs>
       <path id="m3aa827edf6" d="M 0 0 
L 0 2 
" style="stroke: #ffffff; stroke-width: 0.6"/>
      </defs>
      <g>
       <use xlink:href="#m3aa827edf6" x="51.454599" y="3.844522" style="fill: #ffffff; stroke: #ffffff; stroke-width: 0.6"/>
      </g>
     </g>
    </g>
    <g id="xtick_3">
     <g id="line2d_6">
      <g>
       <use xlink:href="#mf7379d9973" x="85.944576" y="162.907534" style="fill: #ffffff; stroke: #ffffff; stroke-width: 0.6"/>
      </g>
     </g>
     <g id="line2d_7">
      <g>
       <use xlink:href="#m3aa827edf6" x="85.944576" y="3.844522" style="fill: #ffffff; stroke: #ffffff; stroke-width: 0.6"/>
      </g>
     </g>
    </g>
    <g id="xtick_4">
     <g id="line2d_8">
      <g>
       <use xlink:href="#mf7379d9973" x="110.415605" y="162.907534" style="fill: #ffffff; stroke: #ffffff; stroke-width: 0.6"/>
      </g>
     </g>
     <g id="line2d_9">
      <g>
       <use xlink:href="#m3aa827edf6" x="110.415605" y="3.844522" style="fill: #ffffff; stroke: #ffffff; stroke-width: 0.6"/>
      </g>
     </g>
    </g>
    <g id="xtick_5">
     <g id="line2d_10">
      <g>
       <use xlink:href="#mf7379d9973" x="129.396809" y="162.907534" style="fill: #ffffff; stroke: #ffffff; stroke-width: 0.6"/>
      </g>
     </g>
     <g id="line2d_11">
      <g>
       <use xlink:href="#m3aa827edf6" x="129.396809" y="3.844522" style="fill: #ffffff; stroke: #ffffff; stroke-width: 0.6"/>
      </g>
     </g>
    </g>
    <g id="xtick_6">
     <g id="line2d_12">
      <g>
       <use xlink:href="#mf7379d9973" x="144.905582" y="162.907534" style="fill: #ffffff; stroke: #ffffff; stroke-width: 0.6"/>
      </g>
     </g>
     <g id="line2d_13">
      <g>
       <use xlink:href="#m3aa827edf6" x="144.905582" y="3.844522" style="fill: #ffffff; stroke: #ffffff; stroke-width: 0.6"/>
      </g>
     </g>
    </g>
    <g id="xtick_7">
     <g id="line2d_14">
      <g>
       <use xlink:href="#mf7379d9973" x="158.018063" y="162.907534" style="fill: #ffffff; stroke: #ffffff; stroke-width: 0.6"/>
      </g>
     </g>
     <g id="line2d_15">
      <g>
       <use xlink:href="#m3aa827edf6" x="158.018063" y="3.844522" style="fill: #ffffff; stroke: #ffffff; stroke-width: 0.6"/>
      </g>
     </g>
    </g>
    <g id="xtick_8">
     <g id="line2d_16">
      <g>
       <use xlink:href="#mf7379d9973" x="169.37661" y="162.907534" style="fill: #ffffff; stroke: #ffffff; stroke-width: 0.6"/>
      </g>
     </g>
     <g id="line2d_17">
      <g>
       <use xlink:href="#m3aa827edf6" x="169.37661" y="3.844522" style="fill: #ffffff; stroke: #ffffff; stroke-width: 0.6"/>
      </g>
     </g>
    </g>
    <g id="xtick_9">
     <g id="line2d_18">
      <g>
       <use xlink:href="#mf7379d9973" x="179.395559" y="162.907534" style="fill: #ffffff; stroke: #ffffff; stroke-width: 0.6"/>
      </g>
     </g>
     <g id="line2d_19">
      <g>
       <use xlink:href="#m3aa827edf6" x="179.395559" y="3.844522" style="fill: #ffffff; stroke: #ffffff; stroke-width: 0.6"/>
      </g>
     </g>
    </g>
    <g id="xtick_10">
     <g id="line2d_20">
      <g>
       <use xlink:href="#mf7379d9973" x="247.31882" y="162.907534" style="fill: #ffffff; stroke: #ffffff; stroke-width: 0.6"/>
      </g>
     </g>
     <g id="line2d_21">
      <g>
       <use xlink:href="#m3aa827edf6" x="247.31882" y="3.844522" style="fill: #ffffff; stroke: #ffffff; stroke-width: 0.6"/>
      </g>
     </g>
    </g>
    <g id="xtick_11">
     <g id="line2d_22">
      <g>
       <use xlink:href="#mf7379d9973" x="281.808797" y="162.907534" style="fill: #ffffff; stroke: #ffffff; stroke-width: 0.6"/>
      </g>
     </g>
     <g id="line2d_23">
      <g>
       <use xlink:href="#m3aa827edf6" x="281.808797" y="3.844522" style="fill: #ffffff; stroke: #ffffff; stroke-width: 0.6"/>
      </g>
     </g>
    </g>
    <g id="xtick_12">
     <g id="line2d_24">
      <g>
       <use xlink:href="#mf7379d9973" x="306.279826" y="162.907534" style="fill: #ffffff; stroke: #ffffff; stroke-width: 0.6"/>
      </g>
     </g>
     <g id="line2d_25">
      <g>
       <use xlink:href="#m3aa827edf6" x="306.279826" y="3.844522" style="fill: #ffffff; stroke: #ffffff; stroke-width: 0.6"/>
      </g>
     </g>
    </g>
    <g id="text_2">
     <!-- Reynolds number, $\mathcal{R}_{e} = u_{0} h_{0}/\nu$ -->
     <g style="fill: #ffffff" transform="translate(113.894773 186.735191) scale(0.1 -0.1)">
      <defs>
       <path id="CMSS17-52" d="M 2522 2109 
L 2534 2115 
C 3533 2459 3539 3147 3539 3268 
C 3539 3873 2925 4453 2003 4453 
L 570 4453 
L 570 32 
L 1094 32 
L 1094 2048 
L 2035 2048 
L 3168 32 
L 3706 32 
L 2522 2109 
z
M 1094 2437 
L 1094 4096 
L 1933 4096 
C 2746 4096 3034 3637 3034 3267 
C 3034 2922 2778 2437 1933 2437 
L 1094 2437 
z
" transform="scale(0.015625)"/>
       <path id="CMSS17-65" d="M 2502 1377 
C 2502 1590 2490 2003 2285 2345 
C 2061 2713 1696 2816 1421 2816 
C 755 2816 192 2188 192 1375 
C 192 582 774 -64 1510 -64 
C 1798 -64 2150 19 2470 248 
C 2470 274 2458 414 2451 420 
C 2451 433 2432 630 2432 656 
C 2125 407 1773 325 1517 325 
C 1107 325 666 667 646 1377 
L 2502 1377 
z
M 698 1728 
C 781 2084 1062 2421 1421 2421 
C 1517 2421 1965 2421 2080 1728 
L 698 1728 
z
" transform="scale(0.015625)"/>
       <path id="CMSS17-79" d="M 2675 2752 
L 2176 2752 
C 1632 1294 1446 702 1434 383 
L 1427 383 
C 1408 696 1126 1460 902 2007 
L 602 2752 
L 83 2752 
L 1216 13 
C 1146 -178 1043 -465 1011 -529 
C 870 -885 774 -885 672 -885 
C 646 -885 442 -885 211 -809 
L 250 -1229 
C 410 -1261 570 -1280 685 -1280 
C 845 -1280 1165 -1280 1459 -497 
L 2675 2752 
z
" transform="scale(0.015625)"/>
       <path id="CMSS17-6e" d="M 2618 1877 
C 2618 2283 2522 2816 1798 2816 
C 1389 2816 1120 2606 941 2389 
L 941 2758 
L 474 2758 
L 474 0 
L 960 0 
L 960 1559 
C 960 1964 1114 2428 1549 2428 
C 2112 2428 2131 2048 2131 1829 
L 2131 0 
L 2618 0 
L 2618 1877 
z
" transform="scale(0.015625)"/>
       <path id="CMSS17-6f" d="M 2829 1356 
C 2829 2176 2221 2816 1504 2816 
C 768 2816 173 2157 173 1356 
C 173 544 787 -64 1498 -64 
C 2227 -64 2829 563 2829 1356 
z
M 1504 337 
C 1050 337 659 709 659 1408 
C 659 2151 1114 2427 1498 2427 
C 1914 2427 2342 2126 2342 1408 
C 2342 683 1926 337 1504 337 
z
" transform="scale(0.015625)"/>
       <path id="CMSS17-6c" d="M 947 4416 
L 474 4416 
L 474 0 
L 947 0 
L 947 4416 
z
" transform="scale(0.015625)"/>
       <path id="CMSS17-64" d="M 2611 4416 
L 2138 4416 
L 2138 2438 
C 1939 2603 1613 2756 1254 2756 
C 672 2756 211 2131 211 1347 
C 211 562 666 -64 1235 -64 
C 1677 -64 1971 172 2125 306 
L 2125 -13 
L 2611 -13 
L 2611 4416 
z
M 2125 836 
C 2125 747 2125 653 1926 482 
C 1798 375 1645 325 1498 325 
C 1152 325 698 576 698 1340 
C 698 2134 1210 2368 1562 2368 
C 1798 2368 1990 2254 2125 2065 
L 2125 836 
z
" transform="scale(0.015625)"/>
       <path id="CMSS17-73" d="M 2061 2627 
C 1683 2807 1389 2807 1197 2807 
C 742 2807 198 2648 198 2003 
C 198 1359 902 1218 1094 1179 
C 1389 1122 1715 1058 1715 740 
C 1715 337 1254 337 1171 337 
C 915 337 563 407 243 638 
L 166 210 
C 531 0 883 -64 1178 -64 
C 1965 -64 2163 416 2163 781 
C 2163 1094 1984 1305 1862 1401 
C 1651 1568 1574 1587 1050 1696 
C 960 1709 646 1779 646 2066 
C 646 2432 1050 2432 1139 2432 
C 1555 2432 1811 2303 1984 2208 
L 2061 2627 
z
" transform="scale(0.015625)"/>
       <path id="CMSS17-75" d="M 2618 2739 
L 2131 2739 
L 2131 972 
C 2131 498 1786 306 1421 306 
C 998 306 960 447 960 709 
L 960 2739 
L 474 2739 
L 474 678 
C 474 179 646 -64 1088 -64 
C 1306 -64 1798 -13 2144 306 
L 2144 0 
L 2618 0 
L 2618 2739 
z
" transform="scale(0.015625)"/>
       <path id="CMSS17-6d" d="M 4288 1877 
C 4288 2308 4179 2816 3462 2816 
C 2982 2816 2694 2516 2566 2331 
C 2451 2670 2182 2816 1798 2816 
C 1363 2816 1088 2568 941 2389 
L 941 2758 
L 474 2758 
L 474 0 
L 960 0 
L 960 1559 
C 960 1939 1101 2428 1555 2428 
C 2138 2428 2138 2016 2138 1829 
L 2138 0 
L 2624 0 
L 2624 1559 
C 2624 1939 2765 2428 3219 2428 
C 3802 2428 3802 2016 3802 1829 
L 3802 0 
L 4288 0 
L 4288 1877 
z
" transform="scale(0.015625)"/>
       <path id="CMSS17-62" d="M 954 4416 
L 480 4416 
L 480 -13 
L 966 -13 
L 966 274 
C 1210 38 1504 -64 1766 -64 
C 2381 -64 2880 549 2880 1352 
C 2880 2086 2496 2756 1926 2756 
C 1523 2756 1165 2591 954 2419 
L 954 4416 
z
M 966 2046 
C 1107 2222 1306 2368 1587 2368 
C 1965 2368 2394 2097 2394 1352 
C 2394 558 1882 325 1530 325 
C 1402 325 1267 356 1139 464 
C 966 615 966 709 966 797 
L 966 2046 
z
" transform="scale(0.015625)"/>
       <path id="CMSS17-72" d="M 954 1363 
C 954 1965 1395 2368 1958 2368 
L 1958 2789 
C 1549 2789 1165 2585 934 2253 
L 934 2758 
L 480 2758 
L 480 0 
L 954 0 
L 954 1363 
z
" transform="scale(0.015625)"/>
       <path id="CMSS17-2c" d="M 1088 6 
L 1088 510 
L 576 510 
L 576 0 
L 736 0 
L 570 -800 
L 826 -800 
L 1088 6 
z
" transform="scale(0.015625)"/>
       <path id="CMSY10-52" d="M 2592 4032 
C 3821 4032 4141 3727 4141 3299 
C 4141 2904 3834 2125 2778 2125 
C 2464 2125 2246 1881 2246 1805 
C 2246 1767 2272 1767 2278 1767 
C 2547 1722 2675 1594 3008 839 
C 3302 167 3469 -128 3846 -128 
C 4621 -128 5357 659 5357 800 
C 5357 845 5306 845 5286 845 
C 5210 845 4960 755 4826 570 
C 4723 423 4582 224 4269 224 
C 3942 224 3744 679 3526 1178 
C 3392 1498 3277 1735 3130 1907 
C 4058 2247 4685 2919 4685 3584 
C 4685 4384 3610 4384 2643 4384 
C 2003 4384 1645 4384 1107 4154 
C 250 3776 134 3245 134 3194 
C 134 3155 160 3143 198 3143 
C 301 3143 448 3234 499 3267 
C 634 3359 653 3398 691 3522 
C 781 3784 960 4013 1766 4013 
C 1734 3625 1677 3033 1459 2102 
C 1286 1388 1050 687 768 6 
C 736 -64 736 -77 736 -83 
C 736 -128 787 -128 800 -128 
C 928 -128 1197 26 1267 147 
C 1280 179 2093 1984 2291 4032 
L 2592 4032 
z
" transform="scale(0.015625)"/>
       <path id="CMMI12-65" d="M 1146 1479 
C 1318 1479 1754 1479 2061 1595 
C 2547 1783 2592 2158 2592 2274 
C 2592 2558 2349 2816 1926 2816 
C 1254 2816 288 2210 288 1073 
C 288 402 672 -64 1254 -64 
C 2125 -64 2675 609 2675 692 
C 2675 730 2637 762 2611 762 
C 2592 762 2586 756 2528 699 
C 2118 159 1510 64 1267 64 
C 902 64 710 350 710 822 
C 710 911 710 1071 806 1479 
L 1146 1479 
z
M 838 1600 
C 1114 2592 1722 2689 1926 2689 
C 2208 2689 2400 2522 2400 2277 
C 2400 1600 1376 1600 1107 1600 
L 838 1600 
z
" transform="scale(0.015625)"/>
       <path id="CMR17-3d" d="M 4115 2017 
C 4211 2017 4307 2017 4307 2125 
C 4307 2240 4198 2240 4090 2240 
L 512 2240 
C 403 2240 294 2240 294 2125 
C 294 2017 390 2017 486 2017 
L 4115 2017 
z
M 4090 896 
C 4198 896 4307 896 4307 1011 
C 4307 1119 4211 1119 4115 1119 
L 486 1119 
C 390 1119 294 1119 294 1011 
C 294 896 403 896 512 896 
L 4090 896 
z
" transform="scale(0.015625)"/>
       <path id="CMMI12-75" d="M 2182 370 
C 2266 13 2573 -64 2726 -64 
C 2931 -64 3085 70 3187 287 
C 3296 517 3379 894 3379 913 
C 3379 945 3354 971 3315 971 
C 3258 971 3251 939 3226 843 
C 3110 402 2995 64 2739 64 
C 2547 64 2547 275 2547 358 
C 2547 505 2566 568 2630 837 
C 2675 1009 2720 1181 2758 1360 
L 3021 2401 
C 3066 2561 3066 2574 3066 2593 
C 3066 2689 2989 2753 2893 2753 
C 2707 2753 2662 2593 2624 2433 
C 2560 2184 2214 811 2170 588 
C 2163 588 1914 64 1446 64 
C 1114 64 1050 351 1050 588 
C 1050 952 1229 1462 1395 1890 
C 1472 2095 1504 2178 1504 2305 
C 1504 2580 1306 2816 998 2816 
C 410 2816 173 1890 173 1839 
C 173 1814 198 1782 243 1782 
C 301 1782 307 1807 333 1896 
C 486 2441 736 2682 979 2682 
C 1043 2682 1146 2682 1146 2478 
C 1146 2312 1075 2127 979 1884 
C 698 1124 666 881 666 690 
C 666 38 1158 -64 1421 -64 
C 1830 -64 2054 217 2182 370 
z
" transform="scale(0.015625)"/>
       <path id="CMMI12-68" d="M 1798 4257 
C 1805 4283 1818 4321 1818 4352 
C 1818 4416 1754 4416 1741 4416 
C 1734 4416 1421 4388 1389 4380 
C 1280 4373 1184 4358 1069 4358 
C 909 4345 864 4339 864 4224 
C 864 4160 915 4160 1005 4160 
C 1318 4160 1325 4103 1325 4040 
C 1325 4002 1312 3951 1306 3932 
L 378 248 
C 352 152 352 140 352 101 
C 352 -38 461 -64 525 -64 
C 634 -64 717 19 749 89 
L 1037 1245 
C 1069 1386 1107 1520 1139 1660 
C 1210 1929 1210 1935 1331 2120 
C 1453 2305 1741 2689 2234 2689 
C 2490 2689 2579 2497 2579 2242 
C 2579 1884 2330 1188 2189 805 
C 2131 651 2099 568 2099 453 
C 2099 166 2298 -64 2605 -64 
C 3200 -64 3424 875 3424 913 
C 3424 945 3398 971 3360 971 
C 3302 971 3296 952 3264 843 
C 3117 332 2880 64 2624 64 
C 2560 64 2458 64 2458 269 
C 2458 436 2534 640 2560 710 
C 2675 1018 2963 1773 2963 2145 
C 2963 2528 2739 2816 2253 2816 
C 1888 2816 1568 2644 1306 2312 
L 1798 4257 
z
" transform="scale(0.015625)"/>
       <path id="CMMI12-3d" d="M 2746 4562 
C 2746 4569 2784 4666 2784 4678 
C 2784 4755 2720 4800 2669 4800 
C 2637 4800 2579 4800 2528 4659 
L 384 -1363 
C 384 -1370 346 -1465 346 -1478 
C 346 -1555 410 -1600 461 -1600 
C 499 -1600 557 -1593 602 -1459 
L 2746 4562 
z
" transform="scale(0.015625)"/>
       <path id="CMMI12-17" d="M 1408 2753 
C 1408 2778 1389 2816 1338 2816 
C 1293 2816 691 2751 595 2751 
C 525 2744 461 2738 461 2623 
C 461 2560 512 2560 602 2560 
C 902 2560 922 2515 922 2445 
C 922 2419 909 2343 902 2318 
L 339 64 
C 339 38 358 0 403 0 
L 538 0 
C 627 0 1600 230 2349 996 
C 3174 1846 3290 2632 3290 2657 
C 3290 2759 3206 2816 3123 2816 
C 2938 2816 2893 2644 2880 2599 
C 2502 1264 1626 473 774 192 
L 1408 2753 
z
" transform="scale(0.015625)"/>
      </defs>
      <use xlink:href="#CMSS17-52" transform="scale(0.996264)"/>
      <use xlink:href="#CMSS17-65" transform="translate(60.416155 0) scale(0.996264)"/>
      <use xlink:href="#CMSS17-79" transform="translate(102.054977 0) scale(0.996264)"/>
      <use xlink:href="#CMSS17-6e" transform="translate(145.055119 0) scale(0.996264)"/>
      <use xlink:href="#CMSS17-6f" transform="translate(193.260062 0) scale(0.996264)"/>
      <use xlink:href="#CMSS17-6c" transform="translate(240.103685 0) scale(0.996264)"/>
      <use xlink:href="#CMSS17-64" transform="translate(262.284408 0) scale(0.996264)"/>
      <use xlink:href="#CMSS17-73" transform="translate(310.489351 0) scale(0.996264)"/>
      <use xlink:href="#CMSS17-6e" transform="translate(377.632006 0) scale(0.996264)"/>
      <use xlink:href="#CMSS17-75" transform="translate(425.836949 0) scale(0.996264)"/>
      <use xlink:href="#CMSS17-6d" transform="translate(474.041892 0) scale(0.996264)"/>
      <use xlink:href="#CMSS17-62" transform="translate(548.271147 0) scale(0.996264)"/>
      <use xlink:href="#CMSS17-65" transform="translate(599.078529 0) scale(0.996264)"/>
      <use xlink:href="#CMSS17-72" transform="translate(640.717351 0) scale(0.996264)"/>
      <use xlink:href="#CMSS17-2c" transform="translate(672.627123 0) scale(0.996264)"/>
      <use xlink:href="#CMSY10-52" transform="translate(729.880441 0) scale(0.996264)"/>
      <use xlink:href="#CMMI12-65" transform="translate(814.314181 -14.943915) scale(0.697382)"/>
      <use xlink:href="#CMR17-3d" transform="translate(874.134578 0) scale(0.996264)"/>
      <use xlink:href="#CMMI12-75" transform="translate(973.523375 0) scale(0.996264)"/>
      <use xlink:href="#CMR17-30" transform="translate(1029.043705 -14.943915) scale(0.697382)"/>
      <use xlink:href="#CMMI12-68" transform="translate(1061.525018 0) scale(0.996264)"/>
      <use xlink:href="#CMR17-30" transform="translate(1117.679643 -14.943915) scale(0.697382)"/>
      <use xlink:href="#CMMI12-3d" transform="translate(1150.160956 0) scale(0.996264)"/>
      <use xlink:href="#CMMI12-17" transform="translate(1198.935875 0) scale(0.996264)"/>
     </g>
    </g>
   </g>
   <g id="matplotlib.axis_2">
    <g id="ytick_1">
     <g id="line2d_26">
      <defs>
       <path id="m7d004b9cfb" d="M 0 0 
L 2.5 0 
" style="stroke: #ffffff; stroke-width: 0.8"/>
      </defs>
      <g>
       <use xlink:href="#m7d004b9cfb" x="51.454599" y="144.496808" style="fill: #ffffff; stroke: #ffffff; stroke-width: 0.8"/>
      </g>
     </g>
     <g id="line2d_27">
      <defs>
       <path id="maa2c62e355" d="M 0 0 
L -2.5 0 
" style="stroke: #ffffff; stroke-width: 0.8"/>
      </defs>
      <g>
       <use xlink:href="#maa2c62e355" x="310.430051" y="144.496808" style="fill: #ffffff; stroke: #ffffff; stroke-width: 0.8"/>
      </g>
     </g>
     <g id="text_3">
      <!-- $\mathdefault{10^{1}}$ -->
      <g style="fill: #ffffff" transform="translate(34.020691 147.956057) scale(0.1 -0.1)">
       <use xlink:href="#CMR17-31" transform="scale(0.996264)"/>
       <use xlink:href="#CMR17-30" transform="translate(45.690477 0) scale(0.996264)"/>
       <use xlink:href="#CMR17-31" transform="translate(91.380954 36.153639) scale(0.697382)"/>
      </g>
     </g>
    </g>
    <g id="ytick_2">
     <g id="line2d_28">
      <defs>
       <path id="m2e03b52cc9" d="M 0 0 
L 2 0 
" style="stroke: #ffffff; stroke-width: 0.6"/>
      </defs>
      <g>
       <use xlink:href="#m2e03b52cc9" x="51.454599" y="162.907534" style="fill: #ffffff; stroke: #ffffff; stroke-width: 0.6"/>
      </g>
     </g>
     <g id="line2d_29">
      <defs>
       <path id="m0a2ef2b228" d="M 0 0 
L -2 0 
" style="stroke: #ffffff; stroke-width: 0.6"/>
      </defs>
      <g>
       <use xlink:href="#m0a2ef2b228" x="310.430051" y="162.907534" style="fill: #ffffff; stroke: #ffffff; stroke-width: 0.6"/>
      </g>
     </g>
    </g>
    <g id="ytick_3">
     <g id="line2d_30">
      <g>
       <use xlink:href="#m2e03b52cc9" x="51.454599" y="153.189704" style="fill: #ffffff; stroke: #ffffff; stroke-width: 0.6"/>
      </g>
     </g>
     <g id="line2d_31">
      <g>
       <use xlink:href="#m0a2ef2b228" x="310.430051" y="153.189704" style="fill: #ffffff; stroke: #ffffff; stroke-width: 0.6"/>
      </g>
     </g>
    </g>
    <g id="ytick_4">
     <g id="line2d_32">
      <g>
       <use xlink:href="#m2e03b52cc9" x="51.454599" y="87.307868" style="fill: #ffffff; stroke: #ffffff; stroke-width: 0.6"/>
      </g>
     </g>
     <g id="line2d_33">
      <g>
       <use xlink:href="#m0a2ef2b228" x="310.430051" y="87.307868" style="fill: #ffffff; stroke: #ffffff; stroke-width: 0.6"/>
      </g>
     </g>
     <g id="text_4">
      <!-- $\mathdefault{2\times10^{1}}$ -->
      <g style="fill: #ffffff" transform="translate(16.96288 90.809196) scale(0.1 -0.1)">
       <defs>
        <path id="CMR17-32" d="M 2669 989 
L 2554 989 
C 2490 536 2438 459 2413 420 
C 2381 369 1920 369 1830 369 
L 602 369 
C 832 619 1280 1072 1824 1597 
C 2214 1967 2669 2402 2669 3035 
C 2669 3790 2067 4224 1395 4224 
C 691 4224 262 3604 262 3030 
C 262 2780 448 2748 525 2748 
C 589 2748 781 2787 781 3010 
C 781 3207 614 3264 525 3264 
C 486 3264 448 3258 422 3245 
C 544 3790 915 4058 1306 4058 
C 1862 4058 2227 3617 2227 3035 
C 2227 2479 1901 2000 1536 1584 
L 262 146 
L 262 0 
L 2515 0 
L 2669 989 
z
" transform="scale(0.015625)"/>
        <path id="CMSY10-2" d="M 2490 1785 
L 1210 3059 
C 1133 3136 1120 3148 1069 3148 
C 1005 3148 941 3091 941 3020 
C 941 2976 954 2963 1024 2892 
L 2304 1606 
L 1024 320 
C 954 249 941 236 941 192 
C 941 121 1005 64 1069 64 
C 1120 64 1133 76 1210 153 
L 2483 1427 
L 3808 102 
C 3821 96 3866 64 3904 64 
C 3981 64 4032 121 4032 192 
C 4032 204 4032 230 4013 262 
C 4006 275 2989 1280 2669 1606 
L 3840 2777 
C 3872 2816 3968 2899 4000 2937 
C 4006 2950 4032 2976 4032 3020 
C 4032 3091 3981 3148 3904 3148 
C 3853 3148 3827 3123 3757 3052 
L 2490 1785 
z
" transform="scale(0.015625)"/>
       </defs>
       <use xlink:href="#CMR17-32" transform="scale(0.996264)"/>
       <use xlink:href="#CMSY10-2" transform="translate(67.829684 0) scale(0.996264)"/>
       <use xlink:href="#CMR17-31" transform="translate(167.456359 0) scale(0.996264)"/>
       <use xlink:href="#CMR17-30" transform="translate(213.146836 0) scale(0.996264)"/>
       <use xlink:href="#CMR17-31" transform="translate(258.837313 36.153639) scale(0.697382)"/>
      </g>
     </g>
    </g>
    <g id="ytick_5">
     <g id="line2d_34">
      <g>
       <use xlink:href="#m2e03b52cc9" x="51.454599" y="53.854483" style="fill: #ffffff; stroke: #ffffff; stroke-width: 0.6"/>
      </g>
     </g>
     <g id="line2d_35">
      <g>
       <use xlink:href="#m0a2ef2b228" x="310.430051" y="53.854483" style="fill: #ffffff; stroke: #ffffff; stroke-width: 0.6"/>
      </g>
     </g>
     <g id="text_5">
      <!-- $\mathdefault{3\times10^{1}}$ -->
      <g style="fill: #ffffff" transform="translate(16.96288 57.355811) scale(0.1 -0.1)">
       <defs>
        <path id="CMR17-33" d="M 1414 2157 
C 1984 2157 2234 1662 2234 1090 
C 2234 320 1824 25 1453 25 
C 1114 25 563 194 390 693 
C 422 680 454 680 486 680 
C 640 680 755 782 755 948 
C 755 1133 614 1216 486 1216 
C 378 1216 211 1165 211 926 
C 211 335 787 -128 1466 -128 
C 2176 -128 2720 430 2720 1085 
C 2720 1707 2208 2157 1600 2227 
C 2086 2328 2554 2756 2554 3329 
C 2554 3820 2048 4179 1472 4179 
C 890 4179 378 3829 378 3329 
C 378 3110 544 3072 627 3072 
C 762 3072 877 3155 877 3321 
C 877 3486 762 3569 627 3569 
C 602 3569 570 3569 544 3557 
C 730 3959 1235 4032 1459 4032 
C 1683 4032 2106 3925 2106 3320 
C 2106 3143 2080 2828 1862 2550 
C 1670 2304 1453 2304 1242 2284 
C 1210 2284 1062 2269 1037 2269 
C 992 2263 966 2257 966 2208 
C 966 2163 973 2157 1101 2157 
L 1414 2157 
z
" transform="scale(0.015625)"/>
       </defs>
       <use xlink:href="#CMR17-33" transform="scale(0.996264)"/>
       <use xlink:href="#CMSY10-2" transform="translate(67.829684 0) scale(0.996264)"/>
       <use xlink:href="#CMR17-31" transform="translate(167.456359 0) scale(0.996264)"/>
       <use xlink:href="#CMR17-30" transform="translate(213.146836 0) scale(0.996264)"/>
       <use xlink:href="#CMR17-31" transform="translate(258.837313 36.153639) scale(0.697382)"/>
      </g>
     </g>
    </g>
    <g id="ytick_6">
     <g id="line2d_36">
      <g>
       <use xlink:href="#m2e03b52cc9" x="51.454599" y="30.118929" style="fill: #ffffff; stroke: #ffffff; stroke-width: 0.6"/>
      </g>
     </g>
     <g id="line2d_37">
      <g>
       <use xlink:href="#m0a2ef2b228" x="310.430051" y="30.118929" style="fill: #ffffff; stroke: #ffffff; stroke-width: 0.6"/>
      </g>
     </g>
     <g id="text_6">
      <!-- $\mathdefault{4\times10^{1}}$ -->
      <g style="fill: #ffffff" transform="translate(16.96288 33.620257) scale(0.1 -0.1)">
       <defs>
        <path id="CMR17-34" d="M 2150 4122 
C 2150 4256 2144 4256 2029 4256 
L 128 1254 
L 128 1088 
L 1779 1088 
L 1779 457 
C 1779 224 1766 160 1318 160 
L 1197 160 
L 1197 0 
C 1402 0 1747 0 1965 0 
C 2182 0 2528 0 2733 0 
L 2733 160 
L 2611 160 
C 2163 160 2150 224 2150 457 
L 2150 1088 
L 2803 1088 
L 2803 1254 
L 2150 1254 
L 2150 4122 
z
M 1798 3703 
L 1798 1254 
L 256 1254 
L 1798 3703 
z
" transform="scale(0.015625)"/>
       </defs>
       <use xlink:href="#CMR17-34" transform="scale(0.996264)"/>
       <use xlink:href="#CMSY10-2" transform="translate(67.829684 0) scale(0.996264)"/>
       <use xlink:href="#CMR17-31" transform="translate(167.456359 0) scale(0.996264)"/>
       <use xlink:href="#CMR17-30" transform="translate(213.146836 0) scale(0.996264)"/>
       <use xlink:href="#CMR17-31" transform="translate(258.837313 36.153639) scale(0.697382)"/>
      </g>
     </g>
    </g>
    <g id="ytick_7">
     <g id="line2d_38">
      <g>
       <use xlink:href="#m2e03b52cc9" x="51.454599" y="11.708203" style="fill: #ffffff; stroke: #ffffff; stroke-width: 0.6"/>
      </g>
     </g>
     <g id="line2d_39">
      <g>
       <use xlink:href="#m0a2ef2b228" x="310.430051" y="11.708203" style="fill: #ffffff; stroke: #ffffff; stroke-width: 0.6"/>
      </g>
     </g>
    </g>
    <g id="text_7">
     <!-- Dimensionless duration, $\tau = t_{\rm end}/t_{0}$ -->
     <g style="fill: #ffffff" transform="translate(10.47222 158.173715) rotate(-90) scale(0.1 -0.1)">
      <defs>
       <path id="CMSS17-44" d="M 570 4416 
L 570 0 
L 2144 0 
C 3194 0 4000 980 4000 2170 
C 4000 3398 3194 4416 2144 4416 
L 570 4416 
z
M 1094 357 
L 1094 4059 
L 2003 4059 
C 2861 4059 3475 3277 3475 2170 
C 3475 1107 2867 357 2003 357 
L 1094 357 
z
" transform="scale(0.015625)"/>
       <path id="CMSS17-69" d="M 979 4183 
L 442 4183 
L 442 3648 
L 979 3648 
L 979 4183 
z
M 947 2739 
L 474 2739 
L 474 0 
L 947 0 
L 947 2739 
z
" transform="scale(0.015625)"/>
       <path id="CMSS17-61" d="M 2406 1791 
C 2406 2392 1978 2808 1402 2808 
C 1120 2808 813 2757 461 2553 
L 499 2135 
C 659 2248 934 2432 1395 2432 
C 1722 2432 1920 2180 1920 1782 
L 1920 1536 
C 896 1536 256 1238 256 726 
C 256 461 416 -64 947 -64 
C 1043 -64 1562 -64 1933 217 
L 1933 -19 
L 2406 -19 
L 2406 1791 
z
M 1920 816 
C 1920 701 1920 548 1728 434 
C 1562 325 1350 325 1261 325 
C 941 325 723 511 723 744 
C 723 1211 1722 1211 1920 1211 
L 1920 816 
z
" transform="scale(0.015625)"/>
       <path id="CMSS17-74" d="M 1069 2368 
L 1901 2368 
L 1901 2737 
L 1069 2737 
L 1069 3520 
L 614 3520 
L 614 2737 
L 109 2737 
L 109 2368 
L 602 2368 
L 602 749 
C 602 384 685 -64 1107 -64 
C 1427 -64 1722 25 2003 172 
L 1901 548 
C 1747 414 1562 337 1363 337 
C 1082 337 1069 696 1069 856 
L 1069 2368 
z
" transform="scale(0.015625)"/>
       <path id="CMMI12-1c" d="M 1837 2408 
L 2899 2408 
C 2982 2408 3194 2408 3194 2612 
C 3194 2752 3072 2752 2957 2752 
L 1197 2752 
C 1050 2752 832 2752 538 2440 
C 371 2255 166 1917 166 1879 
C 166 1841 198 1828 237 1828 
C 282 1828 288 1847 320 1885 
C 653 2408 986 2408 1146 2408 
L 1677 2408 
L 1011 223 
C 979 127 979 114 979 95 
C 979 25 1024 -64 1152 -64 
C 1350 -64 1382 108 1402 203 
L 1837 2408 
z
" transform="scale(0.015625)"/>
       <path id="CMMI12-74" d="M 1286 2566 
L 1875 2566 
C 1997 2566 2061 2566 2061 2681 
C 2061 2752 2022 2752 1894 2752 
L 1331 2752 
L 1568 3692 
C 1594 3781 1594 3794 1594 3840 
C 1594 3943 1510 4000 1427 4000 
C 1376 4000 1229 3981 1178 3775 
L 928 2752 
L 326 2752 
C 198 2752 141 2752 141 2630 
C 141 2566 186 2566 307 2566 
L 877 2566 
L 454 881 
C 403 658 384 594 384 511 
C 384 211 595 -64 954 -64 
C 1600 -64 1946 868 1946 912 
C 1946 951 1920 970 1882 970 
C 1869 970 1843 970 1830 944 
C 1824 938 1818 931 1773 829 
C 1638 511 1344 64 973 64 
C 781 64 768 224 768 364 
C 768 370 768 492 787 568 
L 1286 2566 
z
" transform="scale(0.015625)"/>
       <path id="CMR17-65" d="M 2438 1472 
C 2464 1498 2464 1511 2464 1576 
C 2464 2238 2118 2816 1389 2816 
C 710 2816 173 2169 173 1383 
C 173 551 781 -64 1459 -64 
C 2176 -64 2458 607 2458 740 
C 2458 784 2419 784 2406 784 
C 2362 784 2355 771 2330 696 
C 2189 265 1837 51 1504 51 
C 1229 51 954 203 781 480 
C 582 803 582 1176 582 1472 
L 2438 1472 
z
M 589 1568 
C 634 2505 1126 2714 1382 2714 
C 1818 2714 2112 2297 2118 1568 
L 589 1568 
z
" transform="scale(0.015625)"/>
       <path id="CMR17-6e" d="M 2656 1933 
C 2656 2259 2592 2790 1837 2790 
C 1331 2790 1069 2400 973 2144 
L 966 2144 
L 966 2790 
L 211 2720 
L 211 2554 
C 589 2554 646 2515 646 2208 
L 646 428 
C 646 184 621 153 211 153 
L 211 -13 
C 365 0 646 0 813 0 
C 979 0 1267 0 1421 -13 
L 1421 153 
C 1011 153 986 178 986 428 
L 986 1658 
C 986 2247 1344 2688 1792 2688 
C 2266 2688 2317 2266 2317 1958 
L 2317 428 
C 2317 184 2291 153 1882 153 
L 1882 -13 
C 2035 0 2317 0 2483 0 
C 2650 0 2938 0 3091 -13 
L 3091 153 
C 2682 153 2656 178 2656 428 
L 2656 1933 
z
" transform="scale(0.015625)"/>
       <path id="CMR17-64" d="M 1869 4326 
L 1869 4160 
C 2246 4160 2304 4122 2304 3820 
L 2304 2345 
C 2278 2377 2016 2790 1498 2790 
C 845 2790 211 2208 211 1364 
C 211 525 806 -64 1434 -64 
C 1978 -64 2259 337 2291 380 
L 2291 -63 
L 3066 -63 
L 3066 128 
C 2688 128 2630 166 2630 473 
L 2630 4396 
L 1869 4326 
z
M 2291 755 
C 2291 563 2176 390 2029 262 
C 1811 70 1594 38 1472 38 
C 1286 38 621 134 621 1356 
C 621 2612 1363 2688 1530 2688 
C 1824 2688 2061 2522 2208 2291 
C 2291 2157 2291 2138 2291 2023 
L 2291 755 
z
" transform="scale(0.015625)"/>
      </defs>
      <use xlink:href="#CMSS17-44" transform="scale(0.996264)"/>
      <use xlink:href="#CMSS17-69" transform="translate(67.542842 0) scale(0.996264)"/>
      <use xlink:href="#CMSS17-6d" transform="translate(89.723565 0) scale(0.996264)"/>
      <use xlink:href="#CMSS17-65" transform="translate(163.952819 0) scale(0.996264)"/>
      <use xlink:href="#CMSS17-6e" transform="translate(205.591641 0) scale(0.996264)"/>
      <use xlink:href="#CMSS17-73" transform="translate(253.796584 0) scale(0.996264)"/>
      <use xlink:href="#CMSS17-69" transform="translate(289.710126 0) scale(0.996264)"/>
      <use xlink:href="#CMSS17-6f" transform="translate(311.890849 0) scale(0.996264)"/>
      <use xlink:href="#CMSS17-6e" transform="translate(358.734473 0) scale(0.996264)"/>
      <use xlink:href="#CMSS17-6c" transform="translate(406.939416 0) scale(0.996264)"/>
      <use xlink:href="#CMSS17-65" transform="translate(429.120139 0) scale(0.996264)"/>
      <use xlink:href="#CMSS17-73" transform="translate(470.758961 0) scale(0.996264)"/>
      <use xlink:href="#CMSS17-73" transform="translate(506.672503 0) scale(0.996264)"/>
      <use xlink:href="#CMSS17-64" transform="translate(573.815158 0) scale(0.996264)"/>
      <use xlink:href="#CMSS17-75" transform="translate(622.020101 0) scale(0.996264)"/>
      <use xlink:href="#CMSS17-72" transform="translate(670.225044 0) scale(0.996264)"/>
      <use xlink:href="#CMSS17-61" transform="translate(702.134817 0) scale(0.996264)"/>
      <use xlink:href="#CMSS17-74" transform="translate(747.056737 0) scale(0.996264)"/>
      <use xlink:href="#CMSS17-69" transform="translate(780.888304 0) scale(0.996264)"/>
      <use xlink:href="#CMSS17-6f" transform="translate(803.069027 0) scale(0.996264)"/>
      <use xlink:href="#CMSS17-6e" transform="translate(849.912651 0) scale(0.996264)"/>
      <use xlink:href="#CMSS17-2c" transform="translate(898.117594 0) scale(0.996264)"/>
      <use xlink:href="#CMMI12-1c" transform="translate(955.370911 0) scale(0.996264)"/>
      <use xlink:href="#CMR17-3d" transform="translate(1036.536085 0) scale(0.996264)"/>
      <use xlink:href="#CMMI12-74" transform="translate(1135.924883 0) scale(0.996264)"/>
      <use xlink:href="#CMR17-65" transform="translate(1171.151213 -14.943915) scale(0.697382)"/>
      <use xlink:href="#CMR17-6e" transform="translate(1199.491044 -14.943915) scale(0.697382)"/>
      <use xlink:href="#CMR17-64" transform="translate(1235.117653 -14.943915) scale(0.697382)"/>
      <use xlink:href="#CMMI12-3d" transform="translate(1271.242393 0) scale(0.996264)"/>
      <use xlink:href="#CMMI12-74" transform="translate(1320.017312 0) scale(0.996264)"/>
      <use xlink:href="#CMR17-30" transform="translate(1355.243642 -14.943915) scale(0.697382)"/>
     </g>
    </g>
   </g>
   <g id="LineCollection_1">
    <path d="M 116.015936 26.062371 
L 136.50749 26.062371 
" clip-path="url(#p3630d1956a)" style="fill: none; stroke: #c85200; stroke-width: 1.5"/>
    <path d="M 187.894039 56.585538 
L 207.994275 56.585538 
" clip-path="url(#p3630d1956a)" style="fill: none; stroke: #c85200; stroke-width: 1.5"/>
    <path d="M 156.034 57.957727 
L 176.188432 57.957727 
" clip-path="url(#p3630d1956a)" style="fill: none; stroke: #c85200; stroke-width: 1.5"/>
    <path d="M 138.816518 54.180848 
L 159.050445 54.180848 
" clip-path="url(#p3630d1956a)" style="fill: none; stroke: #c85200; stroke-width: 1.5"/>
    <path d="M 71.355168 55.857041 
L 94.201014 55.857041 
" clip-path="url(#p3630d1956a)" style="fill: none; stroke: #c85200; stroke-width: 1.5"/>
    <path d="M 222.804437 55.874065 
L 242.889155 55.874065 
" clip-path="url(#p3630d1956a)" style="fill: none; stroke: #c85200; stroke-width: 1.5"/>
    <path d="M 121.370452 56.380356 
L 141.776661 56.380356 
" clip-path="url(#p3630d1956a)" style="fill: none; stroke: #c85200; stroke-width: 1.5"/>
    <path d="M 204.399261 53.754417 
L 224.489625 53.754417 
" clip-path="url(#p3630d1956a)" style="fill: none; stroke: #c85200; stroke-width: 1.5"/>
    <path d="M 132.557141 64.253171 
L 152.838389 64.253171 
" clip-path="url(#p3630d1956a)" style="fill: none; stroke: #c85200; stroke-width: 1.5"/>
    <path d="M 70.214056 56.116256 
L 93.190415 56.116256 
" clip-path="url(#p3630d1956a)" style="fill: none; stroke: #c85200; stroke-width: 1.5"/>
    <path d="M 205.334017 60.716576 
L 225.42399 60.716576 
" clip-path="url(#p3630d1956a)" style="fill: none; stroke: #c85200; stroke-width: 1.5"/>
    <path d="M 134.644901 53.490351 
L 154.908899 53.490351 
" clip-path="url(#p3630d1956a)" style="fill: none; stroke: #c85200; stroke-width: 1.5"/>
    <path d="M 44.635023 46.817799 
L 72.278203 46.817799 
" clip-path="url(#p3630d1956a)" style="fill: none; stroke: #c85200; stroke-width: 1.5"/>
    <path d="M 34.977788 41.898849 
L 65.44965 41.898849 
" clip-path="url(#p3630d1956a)" style="fill: none; stroke: #c85200; stroke-width: 1.5"/>
    <path d="M 95.59235 53.012864 
L 116.670623 53.012864 
" clip-path="url(#p3630d1956a)" style="fill: none; stroke: #c85200; stroke-width: 1.5"/>
   </g>
   <g id="LineCollection_2">
    <path d="M 126.877277 39.954343 
L 126.877277 14.175841 
" clip-path="url(#p3630d1956a)" style="fill: none; stroke: #c85200; stroke-width: 1.5"/>
    <path d="M 198.536489 70.30778 
L 198.536489 44.823414 
" clip-path="url(#p3630d1956a)" style="fill: none; stroke: #c85200; stroke-width: 1.5"/>
    <path d="M 166.706739 71.703296 
L 166.706739 46.178478 
" clip-path="url(#p3630d1956a)" style="fill: none; stroke: #c85200; stroke-width: 1.5"/>
    <path d="M 149.533701 67.960789 
L 149.533701 42.376383 
" clip-path="url(#p3630d1956a)" style="fill: none; stroke: #c85200; stroke-width: 1.5"/>
    <path d="M 83.542779 70.804651 
L 83.542779 43.206613 
" clip-path="url(#p3630d1956a)" style="fill: none; stroke: #c85200; stroke-width: 1.5"/>
    <path d="M 233.438216 69.589675 
L 233.438216 44.116811 
" clip-path="url(#p3630d1956a)" style="fill: none; stroke: #c85200; stroke-width: 1.5"/>
    <path d="M 132.184016 70.235122 
L 132.184016 44.521059 
" clip-path="url(#p3630d1956a)" style="fill: none; stroke: #c85200; stroke-width: 1.5"/>
    <path d="M 215.036194 67.472432 
L 215.036194 41.995396 
" clip-path="url(#p3630d1956a)" style="fill: none; stroke: #c85200; stroke-width: 1.5"/>
    <path d="M 143.300788 78.053623 
L 143.300788 52.433666 
" clip-path="url(#p3630d1956a)" style="fill: none; stroke: #c85200; stroke-width: 1.5"/>
    <path d="M 82.475659 71.123911 
L 82.475659 43.422882 
" clip-path="url(#p3630d1956a)" style="fill: none; stroke: #c85200; stroke-width: 1.5"/>
    <path d="M 215.970732 74.434425 
L 215.970732 48.957678 
" clip-path="url(#p3630d1956a)" style="fill: none; stroke: #c85200; stroke-width: 1.5"/>
    <path d="M 145.3789 67.283323 
L 145.3789 41.676331 
" clip-path="url(#p3630d1956a)" style="fill: none; stroke: #c85200; stroke-width: 1.5"/>
    <path d="M 59.574621 64.063353 
L 59.574621 32.561165 
" clip-path="url(#p3630d1956a)" style="fill: none; stroke: #c85200; stroke-width: 1.5"/>
    <path d="M 51.570969 60.576256 
L 51.570969 26.678881 
" clip-path="url(#p3630d1956a)" style="fill: none; stroke: #c85200; stroke-width: 1.5"/>
    <path d="M 106.782713 67.162787 
L 106.782713 40.938112 
" clip-path="url(#p3630d1956a)" style="fill: none; stroke: #c85200; stroke-width: 1.5"/>
   </g>
   <g id="LineCollection_3">
    <path d="M 101.755709 57.795559 
L 123.261231 57.795559 
" clip-path="url(#p3630d1956a)" style="fill: none; stroke: #ff800e; stroke-width: 1.5"/>
    <path d="M 151.45622 47.272073 
L 171.629334 47.272073 
" clip-path="url(#p3630d1956a)" style="fill: none; stroke: #ff800e; stroke-width: 1.5"/>
    <path d="M 175.763544 46.943375 
L 195.87368 46.943375 
" clip-path="url(#p3630d1956a)" style="fill: none; stroke: #ff800e; stroke-width: 1.5"/>
    <path d="M 69.659026 72.913958 
L 92.947099 72.913958 
" clip-path="url(#p3630d1956a)" style="fill: none; stroke: #ff800e; stroke-width: 1.5"/>
    <path d="M 119.125932 61.080634 
L 139.594693 61.080634 
" clip-path="url(#p3630d1956a)" style="fill: none; stroke: #ff800e; stroke-width: 1.5"/>
    <path d="M 221.486159 54.037213 
L 241.564895 54.037213 
" clip-path="url(#p3630d1956a)" style="fill: none; stroke: #ff800e; stroke-width: 1.5"/>
    <path d="M 132.805402 48.64798 
L 153.098243 48.64798 
" clip-path="url(#p3630d1956a)" style="fill: none; stroke: #ff800e; stroke-width: 1.5"/>
    <path d="M 119.709153 54.398005 
L 140.168098 54.398005 
" clip-path="url(#p3630d1956a)" style="fill: none; stroke: #ff800e; stroke-width: 1.5"/>
    <path d="M 211.85402 56.530479 
L 231.935733 56.530479 
" clip-path="url(#p3630d1956a)" style="fill: none; stroke: #ff800e; stroke-width: 1.5"/>
    <path d="M 52.889541 68.444794 
L 79.039375 68.444794 
" clip-path="url(#p3630d1956a)" style="fill: none; stroke: #ff800e; stroke-width: 1.5"/>
    <path d="M 31.856348 80.883534 
L 64.097866 80.883534 
" clip-path="url(#p3630d1956a)" style="fill: none; stroke: #ff800e; stroke-width: 1.5"/>
    <path d="M 234.312861 53.95436 
L 254.388903 53.95436 
" clip-path="url(#p3630d1956a)" style="fill: none; stroke: #ff800e; stroke-width: 1.5"/>
    <path d="M 84.438194 64.374081 
L 106.266324 64.374081 
" clip-path="url(#p3630d1956a)" style="fill: none; stroke: #ff800e; stroke-width: 1.5"/>
    <path d="M 175.676849 64.564898 
L 195.787105 64.564898 
" clip-path="url(#p3630d1956a)" style="fill: none; stroke: #ff800e; stroke-width: 1.5"/>
    <path d="M 32.326523 78.953677 
L 64.397321 78.953677 
" clip-path="url(#p3630d1956a)" style="fill: none; stroke: #ff800e; stroke-width: 1.5"/>
    <path d="M 50.827799 88.420042 
L 77.441418 88.420042 
" clip-path="url(#p3630d1956a)" style="fill: none; stroke: #ff800e; stroke-width: 1.5"/>
    <path d="M 68.859727 74.90509 
L 92.251387 74.90509 
" clip-path="url(#p3630d1956a)" style="fill: none; stroke: #ff800e; stroke-width: 1.5"/>
   </g>
   <g id="LineCollection_4">
    <path d="M 113.186295 72.138135 
L 113.186295 45.580893 
" clip-path="url(#p3630d1956a)" style="fill: none; stroke: #ff800e; stroke-width: 1.5"/>
    <path d="M 162.139402 61.027637 
L 162.139402 35.48549 
" clip-path="url(#p3630d1956a)" style="fill: none; stroke: #ff800e; stroke-width: 1.5"/>
    <path d="M 186.411526 60.672127 
L 186.411526 35.176471 
" clip-path="url(#p3630d1956a)" style="fill: none; stroke: #ff800e; stroke-width: 1.5"/>
    <path d="M 82.097548 88.064227 
L 82.097548 60.118792 
" clip-path="url(#p3630d1956a)" style="fill: none; stroke: #ff800e; stroke-width: 1.5"/>
    <path d="M 129.974511 74.963874 
L 129.974511 49.200494 
" clip-path="url(#p3630d1956a)" style="fill: none; stroke: #ff800e; stroke-width: 1.5"/>
    <path d="M 232.116595 67.752943 
L 232.116595 42.279871 
" clip-path="url(#p3630d1956a)" style="fill: none; stroke: #ff800e; stroke-width: 1.5"/>
    <path d="M 143.555534 62.455042 
L 143.555534 36.823631 
" clip-path="url(#p3630d1956a)" style="fill: none; stroke: #ff800e; stroke-width: 1.5"/>
    <path d="M 130.552236 68.276962 
L 130.552236 42.520999 
" clip-path="url(#p3630d1956a)" style="fill: none; stroke: #ff800e; stroke-width: 1.5"/>
    <path d="M 222.48612 70.2474 
L 222.48612 44.772262 
" clip-path="url(#p3630d1956a)" style="fill: none; stroke: #ff800e; stroke-width: 1.5"/>
    <path d="M 66.965393 84.953397 
L 66.965393 54.695026 
" clip-path="url(#p3630d1956a)" style="fill: none; stroke: #ff800e; stroke-width: 1.5"/>
    <path d="M 49.495621 100.477128 
L 49.495621 65.061615 
" clip-path="url(#p3630d1956a)" style="fill: none; stroke: #ff800e; stroke-width: 1.5"/>
    <path d="M 244.941792 67.669033 
L 244.941792 42.197794 
" clip-path="url(#p3630d1956a)" style="fill: none; stroke: #ff800e; stroke-width: 1.5"/>
    <path d="M 96.050516 78.858441 
L 96.050516 52.056805 
" clip-path="url(#p3630d1956a)" style="fill: none; stroke: #ff800e; stroke-width: 1.5"/>
    <path d="M 186.324898 78.293707 
L 186.324898 52.797953 
" clip-path="url(#p3630d1956a)" style="fill: none; stroke: #ff800e; stroke-width: 1.5"/>
    <path d="M 49.864491 98.457695 
L 49.864491 63.190124 
" clip-path="url(#p3630d1956a)" style="fill: none; stroke: #ff800e; stroke-width: 1.5"/>
    <path d="M 65.171217 105.154811 
L 65.171217 74.513905 
" clip-path="url(#p3630d1956a)" style="fill: none; stroke: #ff800e; stroke-width: 1.5"/>
    <path d="M 81.357104 90.103402 
L 81.357104 62.075702 
" clip-path="url(#p3630d1956a)" style="fill: none; stroke: #ff800e; stroke-width: 1.5"/>
   </g>
   <g id="LineCollection_5">
    <path d="M 151.279462 85.659541 
L 171.536299 85.659541 
" clip-path="url(#p3630d1956a)" style="fill: none; stroke: #3d4389; stroke-width: 1.5"/>
    <path d="M 107.210951 85.955946 
L 128.455388 85.955946 
" clip-path="url(#p3630d1956a)" style="fill: none; stroke: #3d4389; stroke-width: 1.5"/>
    <path d="M 189.181256 77.512672 
L 209.295304 77.512672 
" clip-path="url(#p3630d1956a)" style="fill: none; stroke: #3d4389; stroke-width: 1.5"/>
    <path d="M 225.811109 46.529908 
L 245.894287 46.529908 
" clip-path="url(#p3630d1956a)" style="fill: none; stroke: #3d4389; stroke-width: 1.5"/>
    <path d="M 211.116286 54.99783 
L 231.207201 54.99783 
" clip-path="url(#p3630d1956a)" style="fill: none; stroke: #3d4389; stroke-width: 1.5"/>
    <path d="M 150.492941 59.464342 
L 170.755815 59.464342 
" clip-path="url(#p3630d1956a)" style="fill: none; stroke: #3d4389; stroke-width: 1.5"/>
    <path d="M 93.26901 107.571363 
L 115.435258 107.571363 
" clip-path="url(#p3630d1956a)" style="fill: none; stroke: #3d4389; stroke-width: 1.5"/>
    <path d="M 200.46016 63.718667 
L 220.559934 63.718667 
" clip-path="url(#p3630d1956a)" style="fill: none; stroke: #3d4389; stroke-width: 1.5"/>
    <path d="M 166.666245 70.2321 
L 186.837894 70.2321 
" clip-path="url(#p3630d1956a)" style="fill: none; stroke: #3d4389; stroke-width: 1.5"/>
    <path d="M 150.492941 87.883685 
L 170.755815 87.883685 
" clip-path="url(#p3630d1956a)" style="fill: none; stroke: #3d4389; stroke-width: 1.5"/>
    <path d="M 93.26901 97.727782 
L 115.435258 97.727782 
" clip-path="url(#p3630d1956a)" style="fill: none; stroke: #3d4389; stroke-width: 1.5"/>
    <path d="M 80.612829 107.676056 
L 104.16296 107.676056 
" clip-path="url(#p3630d1956a)" style="fill: none; stroke: #3d4389; stroke-width: 1.5"/>
    <path d="M 62.414759 137.363391 
L 89.316719 137.363391 
" clip-path="url(#p3630d1956a)" style="fill: none; stroke: #3d4389; stroke-width: 1.5"/>
    <path d="M 14.019138 111.816595 
L 60.794553 111.816595 
" clip-path="url(#p3630d1956a)" style="fill: none; stroke: #3d4389; stroke-width: 1.5"/>
    <path d="M 238.017205 51.000087 
L 258.096359 51.000087 
" clip-path="url(#p3630d1956a)" style="fill: none; stroke: #3d4389; stroke-width: 1.5"/>
    <path d="M 211.116286 59.732422 
L 231.207201 59.732422 
" clip-path="url(#p3630d1956a)" style="fill: none; stroke: #3d4389; stroke-width: 1.5"/>
    <path d="M 211.116286 47.423138 
L 231.207201 47.423138 
" clip-path="url(#p3630d1956a)" style="fill: none; stroke: #3d4389; stroke-width: 1.5"/>
    <path d="M 134.748922 95.547975 
L 155.187487 95.547975 
" clip-path="url(#p3630d1956a)" style="fill: none; stroke: #3d4389; stroke-width: 1.5"/>
    <path d="M 62.414759 110.720122 
L 89.316719 110.720122 
" clip-path="url(#p3630d1956a)" style="fill: none; stroke: #3d4389; stroke-width: 1.5"/>
    <path d="M 280.7264 54.074623 
L 300.79922 54.074623 
" clip-path="url(#p3630d1956a)" style="fill: none; stroke: #3d4389; stroke-width: 1.5"/>
   </g>
   <g id="LineCollection_6">
    <path d="M 162.009456 99.445713 
L 162.009456 73.850506 
" clip-path="url(#p3630d1956a)" style="fill: none; stroke: #3d4389; stroke-width: 1.5"/>
    <path d="M 118.494678 100.165308 
L 118.494678 73.837966 
" clip-path="url(#p3630d1956a)" style="fill: none; stroke: #3d4389; stroke-width: 1.5"/>
    <path d="M 199.831425 91.240882 
L 199.831425 65.746166 
" clip-path="url(#p3630d1956a)" style="fill: none; stroke: #3d4389; stroke-width: 1.5"/>
    <path d="M 236.444027 60.246543 
L 236.444027 34.7719 
" clip-path="url(#p3630d1956a)" style="fill: none; stroke: #3d4389; stroke-width: 1.5"/>
    <path d="M 221.753527 68.717245 
L 221.753527 43.237781 
" clip-path="url(#p3630d1956a)" style="fill: none; stroke: #3d4389; stroke-width: 1.5"/>
    <path d="M 161.226312 73.253016 
L 161.226312 47.653473 
" clip-path="url(#p3630d1956a)" style="fill: none; stroke: #3d4389; stroke-width: 1.5"/>
    <path d="M 105.07213 122.188825 
L 105.07213 95.158035 
" clip-path="url(#p3630d1956a)" style="fill: none; stroke: #3d4389; stroke-width: 1.5"/>
    <path d="M 211.102351 77.44139 
L 211.102351 51.956189 
" clip-path="url(#p3630d1956a)" style="fill: none; stroke: #3d4389; stroke-width: 1.5"/>
    <path d="M 177.348608 83.983297 
L 177.348608 58.448722 
" clip-path="url(#p3630d1956a)" style="fill: none; stroke: #3d4389; stroke-width: 1.5"/>
    <path d="M 161.226312 101.672359 
L 161.226312 76.072816 
" clip-path="url(#p3630d1956a)" style="fill: none; stroke: #3d4389; stroke-width: 1.5"/>
    <path d="M 105.07213 112.345245 
L 105.07213 85.314454 
" clip-path="url(#p3630d1956a)" style="fill: none; stroke: #3d4389; stroke-width: 1.5"/>
    <path d="M 93.200304 122.923178 
L 93.200304 94.811933 
" clip-path="url(#p3630d1956a)" style="fill: none; stroke: #3d4389; stroke-width: 1.5"/>
    <path d="M 76.924839 154.205749 
L 76.924839 123.383123 
" clip-path="url(#p3630d1956a)" style="fill: none; stroke: #3d4389; stroke-width: 1.5"/>
    <path d="M 40.582319 139.497342 
L 40.582319 91.126241 
" clip-path="url(#p3630d1956a)" style="fill: none; stroke: #3d4389; stroke-width: 1.5"/>
    <path d="M 248.647875 64.715346 
L 248.647875 39.243091 
" clip-path="url(#p3630d1956a)" style="fill: none; stroke: #3d4389; stroke-width: 1.5"/>
    <path d="M 221.753527 73.451837 
L 221.753527 47.972373 
" clip-path="url(#p3630d1956a)" style="fill: none; stroke: #3d4389; stroke-width: 1.5"/>
    <path d="M 221.753527 61.142553 
L 221.753527 35.663089 
" clip-path="url(#p3630d1956a)" style="fill: none; stroke: #3d4389; stroke-width: 1.5"/>
    <path d="M 145.580596 109.410264 
L 145.580596 83.68317 
" clip-path="url(#p3630d1956a)" style="fill: none; stroke: #3d4389; stroke-width: 1.5"/>
    <path d="M 76.924839 127.56248 
L 76.924839 96.739853 
" clip-path="url(#p3630d1956a)" style="fill: none; stroke: #3d4389; stroke-width: 1.5"/>
    <path d="M 291.353531 67.787898 
L 291.353531 42.319083 
" clip-path="url(#p3630d1956a)" style="fill: none; stroke: #3d4389; stroke-width: 1.5"/>
   </g>
   <g id="LineCollection_7">
    <path d="M 119.773313 88.775459 
L 140.231204 88.775459 
" clip-path="url(#p3630d1956a)" style="fill: none; stroke: #ababab; stroke-width: 1.5"/>
    <path d="M 151.425151 86.332074 
L 171.598395 86.332074 
" clip-path="url(#p3630d1956a)" style="fill: none; stroke: #ababab; stroke-width: 1.5"/>
    <path d="M 175.831298 59.062468 
L 195.941338 59.062468 
" clip-path="url(#p3630d1956a)" style="fill: none; stroke: #ababab; stroke-width: 1.5"/>
    <path d="M 132.860316 80.324721 
L 153.152684 80.324721 
" clip-path="url(#p3630d1956a)" style="fill: none; stroke: #ababab; stroke-width: 1.5"/>
   </g>
   <g id="LineCollection_8">
    <path d="M 130.615807 102.653948 
L 130.615807 76.898795 
" clip-path="url(#p3630d1956a)" style="fill: none; stroke: #ababab; stroke-width: 1.5"/>
    <path d="M 162.108405 100.087694 
L 162.108405 74.54545 
" clip-path="url(#p3630d1956a)" style="fill: none; stroke: #ababab; stroke-width: 1.5"/>
    <path d="M 186.479226 72.791177 
L 186.479226 47.295596 
" clip-path="url(#p3630d1956a)" style="fill: none; stroke: #ababab; stroke-width: 1.5"/>
    <path d="M 143.610183 94.131549 
L 143.610183 68.500543 
" clip-path="url(#p3630d1956a)" style="fill: none; stroke: #ababab; stroke-width: 1.5"/>
   </g>
   <g id="LineCollection_9">
    <path d="M 151.767907 125.010592 
L 171.939754 125.010592 
" clip-path="url(#p3630d1956a)" style="fill: none; stroke: #ffbc79; stroke-width: 1.5"/>
    <path d="M 133.136833 124.30959 
L 153.426647 124.30959 
" clip-path="url(#p3630d1956a)" style="fill: none; stroke: #ffbc79; stroke-width: 1.5"/>
    <path d="M 175.956799 95.542004 
L 196.066662 95.542004 
" clip-path="url(#p3630d1956a)" style="fill: none; stroke: #ffbc79; stroke-width: 1.5"/>
    <path d="M 196.308515 137.884478 
L 216.397914 137.884478 
" clip-path="url(#p3630d1956a)" style="fill: none; stroke: #ffbc79; stroke-width: 1.5"/>
    <path d="M 165.233451 106.371467 
L 185.363269 106.371467 
" clip-path="url(#p3630d1956a)" style="fill: none; stroke: #ffbc79; stroke-width: 1.5"/>
    <path d="M 151.783336 115.369912 
L 171.95512 115.369912 
" clip-path="url(#p3630d1956a)" style="fill: none; stroke: #ffbc79; stroke-width: 1.5"/>
   </g>
   <g id="LineCollection_10">
    <path d="M 162.450381 138.765599 
L 162.450381 113.224418 
" clip-path="url(#p3630d1956a)" style="fill: none; stroke: #ffbc79; stroke-width: 1.5"/>
    <path d="M 143.885271 138.115302 
L 143.885271 112.48623 
" clip-path="url(#p3630d1956a)" style="fill: none; stroke: #ffbc79; stroke-width: 1.5"/>
    <path d="M 186.604628 109.270633 
L 186.604628 83.775191 
" clip-path="url(#p3630d1956a)" style="fill: none; stroke: #ffbc79; stroke-width: 1.5"/>
    <path d="M 206.94491 151.604541 
L 206.94491 126.123954 
" clip-path="url(#p3630d1956a)" style="fill: none; stroke: #ffbc79; stroke-width: 1.5"/>
    <path d="M 175.892433 120.108547 
L 175.892433 94.598449 
" clip-path="url(#p3630d1956a)" style="fill: none; stroke: #ffbc79; stroke-width: 1.5"/>
    <path d="M 162.465774 129.124892 
L 162.465774 103.583758 
" clip-path="url(#p3630d1956a)" style="fill: none; stroke: #ffbc79; stroke-width: 1.5"/>
   </g>
   <g id="LineCollection_11">
    <path d="M 211.116286 112.186769 
L 231.207201 112.186769 
" clip-path="url(#p3630d1956a)" style="fill: none; stroke: #9467bd; stroke-width: 1.5"/>
   </g>
   <g id="LineCollection_12">
    <path d="M 221.753527 125.906185 
L 221.753527 100.42672 
" clip-path="url(#p3630d1956a)" style="fill: none; stroke: #9467bd; stroke-width: 1.5"/>
   </g>
   <g id="line2d_40">
    <defs>
     <path id="m77dcd6ebbc" d="M 0 1.5 
C 0.397805 1.5 0.77937 1.341951 1.06066 1.06066 
C 1.341951 0.77937 1.5 0.397805 1.5 0 
C 1.5 -0.397805 1.341951 -0.77937 1.06066 -1.06066 
C 0.77937 -1.341951 0.397805 -1.5 0 -1.5 
C -0.397805 -1.5 -0.77937 -1.341951 -1.06066 -1.06066 
C -1.341951 -0.77937 -1.5 -0.397805 -1.5 0 
C -1.5 0.397805 -1.341951 0.77937 -1.06066 1.06066 
C -0.77937 1.341951 -0.397805 1.5 0 1.5 
z
" style="stroke: #c85200"/>
    </defs>
    <g clip-path="url(#p3630d1956a)">
     <use xlink:href="#m77dcd6ebbc" x="126.877277" y="26.062371" style="fill: #c85200; stroke: #c85200"/>
     <use xlink:href="#m77dcd6ebbc" x="198.536489" y="56.585538" style="fill: #c85200; stroke: #c85200"/>
     <use xlink:href="#m77dcd6ebbc" x="166.706739" y="57.957727" style="fill: #c85200; stroke: #c85200"/>
     <use xlink:href="#m77dcd6ebbc" x="149.533701" y="54.180848" style="fill: #c85200; stroke: #c85200"/>
     <use xlink:href="#m77dcd6ebbc" x="83.542779" y="55.857041" style="fill: #c85200; stroke: #c85200"/>
     <use xlink:href="#m77dcd6ebbc" x="233.438216" y="55.874065" style="fill: #c85200; stroke: #c85200"/>
     <use xlink:href="#m77dcd6ebbc" x="132.184016" y="56.380356" style="fill: #c85200; stroke: #c85200"/>
     <use xlink:href="#m77dcd6ebbc" x="215.036194" y="53.754417" style="fill: #c85200; stroke: #c85200"/>
     <use xlink:href="#m77dcd6ebbc" x="143.300788" y="64.253171" style="fill: #c85200; stroke: #c85200"/>
     <use xlink:href="#m77dcd6ebbc" x="82.475659" y="56.116256" style="fill: #c85200; stroke: #c85200"/>
     <use xlink:href="#m77dcd6ebbc" x="215.970732" y="60.716576" style="fill: #c85200; stroke: #c85200"/>
     <use xlink:href="#m77dcd6ebbc" x="145.3789" y="53.490351" style="fill: #c85200; stroke: #c85200"/>
     <use xlink:href="#m77dcd6ebbc" x="59.574621" y="46.817799" style="fill: #c85200; stroke: #c85200"/>
     <use xlink:href="#m77dcd6ebbc" x="51.570969" y="41.898849" style="fill: #c85200; stroke: #c85200"/>
     <use xlink:href="#m77dcd6ebbc" x="106.782713" y="53.012864" style="fill: #c85200; stroke: #c85200"/>
    </g>
   </g>
   <g id="line2d_41">
    <defs>
     <path id="m6f4a7f6a6f" d="M 0 1.5 
C 0.397805 1.5 0.77937 1.341951 1.06066 1.06066 
C 1.341951 0.77937 1.5 0.397805 1.5 0 
C 1.5 -0.397805 1.341951 -0.77937 1.06066 -1.06066 
C 0.77937 -1.341951 0.397805 -1.5 0 -1.5 
C -0.397805 -1.5 -0.77937 -1.341951 -1.06066 -1.06066 
C -1.341951 -0.77937 -1.5 -0.397805 -1.5 0 
C -1.5 0.397805 -1.341951 0.77937 -1.06066 1.06066 
C -0.77937 1.341951 -0.397805 1.5 0 1.5 
z
" style="stroke: #ff800e"/>
    </defs>
    <g clip-path="url(#p3630d1956a)">
     <use xlink:href="#m6f4a7f6a6f" x="113.186295" y="57.795559" style="fill: #ff800e; stroke: #ff800e"/>
     <use xlink:href="#m6f4a7f6a6f" x="162.139402" y="47.272073" style="fill: #ff800e; stroke: #ff800e"/>
     <use xlink:href="#m6f4a7f6a6f" x="186.411526" y="46.943375" style="fill: #ff800e; stroke: #ff800e"/>
     <use xlink:href="#m6f4a7f6a6f" x="82.097548" y="72.913958" style="fill: #ff800e; stroke: #ff800e"/>
     <use xlink:href="#m6f4a7f6a6f" x="129.974511" y="61.080634" style="fill: #ff800e; stroke: #ff800e"/>
     <use xlink:href="#m6f4a7f6a6f" x="232.116595" y="54.037213" style="fill: #ff800e; stroke: #ff800e"/>
     <use xlink:href="#m6f4a7f6a6f" x="143.555534" y="48.64798" style="fill: #ff800e; stroke: #ff800e"/>
     <use xlink:href="#m6f4a7f6a6f" x="130.552236" y="54.398005" style="fill: #ff800e; stroke: #ff800e"/>
     <use xlink:href="#m6f4a7f6a6f" x="222.48612" y="56.530479" style="fill: #ff800e; stroke: #ff800e"/>
     <use xlink:href="#m6f4a7f6a6f" x="66.965393" y="68.444794" style="fill: #ff800e; stroke: #ff800e"/>
     <use xlink:href="#m6f4a7f6a6f" x="49.495621" y="80.883534" style="fill: #ff800e; stroke: #ff800e"/>
     <use xlink:href="#m6f4a7f6a6f" x="244.941792" y="53.95436" style="fill: #ff800e; stroke: #ff800e"/>
     <use xlink:href="#m6f4a7f6a6f" x="96.050516" y="64.374081" style="fill: #ff800e; stroke: #ff800e"/>
     <use xlink:href="#m6f4a7f6a6f" x="186.324898" y="64.564898" style="fill: #ff800e; stroke: #ff800e"/>
     <use xlink:href="#m6f4a7f6a6f" x="49.864491" y="78.953677" style="fill: #ff800e; stroke: #ff800e"/>
     <use xlink:href="#m6f4a7f6a6f" x="65.171217" y="88.420042" style="fill: #ff800e; stroke: #ff800e"/>
     <use xlink:href="#m6f4a7f6a6f" x="81.357104" y="74.90509" style="fill: #ff800e; stroke: #ff800e"/>
    </g>
   </g>
   <g id="line2d_42">
    <defs>
     <path id="m807804a870" d="M 0 1.5 
C 0.397805 1.5 0.77937 1.341951 1.06066 1.06066 
C 1.341951 0.77937 1.5 0.397805 1.5 0 
C 1.5 -0.397805 1.341951 -0.77937 1.06066 -1.06066 
C 0.77937 -1.341951 0.397805 -1.5 0 -1.5 
C -0.397805 -1.5 -0.77937 -1.341951 -1.06066 -1.06066 
C -1.341951 -0.77937 -1.5 -0.397805 -1.5 0 
C -1.5 0.397805 -1.341951 0.77937 -1.06066 1.06066 
C -0.77937 1.341951 -0.397805 1.5 0 1.5 
z
" style="stroke: #3d4389"/>
    </defs>
    <g clip-path="url(#p3630d1956a)">
     <use xlink:href="#m807804a870" x="162.009456" y="85.659541" style="fill: #3d4389; stroke: #3d4389"/>
     <use xlink:href="#m807804a870" x="118.494678" y="85.955946" style="fill: #3d4389; stroke: #3d4389"/>
     <use xlink:href="#m807804a870" x="199.831425" y="77.512672" style="fill: #3d4389; stroke: #3d4389"/>
     <use xlink:href="#m807804a870" x="236.444027" y="46.529908" style="fill: #3d4389; stroke: #3d4389"/>
     <use xlink:href="#m807804a870" x="221.753527" y="54.99783" style="fill: #3d4389; stroke: #3d4389"/>
     <use xlink:href="#m807804a870" x="161.226312" y="59.464342" style="fill: #3d4389; stroke: #3d4389"/>
     <use xlink:href="#m807804a870" x="105.07213" y="107.571363" style="fill: #3d4389; stroke: #3d4389"/>
     <use xlink:href="#m807804a870" x="211.102351" y="63.718667" style="fill: #3d4389; stroke: #3d4389"/>
     <use xlink:href="#m807804a870" x="177.348608" y="70.2321" style="fill: #3d4389; stroke: #3d4389"/>
     <use xlink:href="#m807804a870" x="161.226312" y="87.883685" style="fill: #3d4389; stroke: #3d4389"/>
     <use xlink:href="#m807804a870" x="105.07213" y="97.727782" style="fill: #3d4389; stroke: #3d4389"/>
     <use xlink:href="#m807804a870" x="93.200304" y="107.676056" style="fill: #3d4389; stroke: #3d4389"/>
     <use xlink:href="#m807804a870" x="76.924839" y="137.363391" style="fill: #3d4389; stroke: #3d4389"/>
     <use xlink:href="#m807804a870" x="40.582319" y="111.816595" style="fill: #3d4389; stroke: #3d4389"/>
     <use xlink:href="#m807804a870" x="248.647875" y="51.000087" style="fill: #3d4389; stroke: #3d4389"/>
     <use xlink:href="#m807804a870" x="221.753527" y="59.732422" style="fill: #3d4389; stroke: #3d4389"/>
     <use xlink:href="#m807804a870" x="221.753527" y="47.423138" style="fill: #3d4389; stroke: #3d4389"/>
     <use xlink:href="#m807804a870" x="145.580596" y="95.547975" style="fill: #3d4389; stroke: #3d4389"/>
     <use xlink:href="#m807804a870" x="76.924839" y="110.720122" style="fill: #3d4389; stroke: #3d4389"/>
     <use xlink:href="#m807804a870" x="291.353531" y="54.074623" style="fill: #3d4389; stroke: #3d4389"/>
    </g>
   </g>
   <g id="line2d_43">
    <defs>
     <path id="m5af22ace89" d="M 0 1.5 
C 0.397805 1.5 0.77937 1.341951 1.06066 1.06066 
C 1.341951 0.77937 1.5 0.397805 1.5 0 
C 1.5 -0.397805 1.341951 -0.77937 1.06066 -1.06066 
C 0.77937 -1.341951 0.397805 -1.5 0 -1.5 
C -0.397805 -1.5 -0.77937 -1.341951 -1.06066 -1.06066 
C -1.341951 -0.77937 -1.5 -0.397805 -1.5 0 
C -1.5 0.397805 -1.341951 0.77937 -1.06066 1.06066 
C -0.77937 1.341951 -0.397805 1.5 0 1.5 
z
" style="stroke: #ababab"/>
    </defs>
    <g clip-path="url(#p3630d1956a)">
     <use xlink:href="#m5af22ace89" x="130.615807" y="88.775459" style="fill: #ababab; stroke: #ababab"/>
     <use xlink:href="#m5af22ace89" x="162.108405" y="86.332074" style="fill: #ababab; stroke: #ababab"/>
     <use xlink:href="#m5af22ace89" x="186.479226" y="59.062468" style="fill: #ababab; stroke: #ababab"/>
     <use xlink:href="#m5af22ace89" x="143.610183" y="80.324721" style="fill: #ababab; stroke: #ababab"/>
    </g>
   </g>
   <g id="line2d_44">
    <defs>
     <path id="m21fbd2f491" d="M 0 1.5 
C 0.397805 1.5 0.77937 1.341951 1.06066 1.06066 
C 1.341951 0.77937 1.5 0.397805 1.5 0 
C 1.5 -0.397805 1.341951 -0.77937 1.06066 -1.06066 
C 0.77937 -1.341951 0.397805 -1.5 0 -1.5 
C -0.397805 -1.5 -0.77937 -1.341951 -1.06066 -1.06066 
C -1.341951 -0.77937 -1.5 -0.397805 -1.5 0 
C -1.5 0.397805 -1.341951 0.77937 -1.06066 1.06066 
C -0.77937 1.341951 -0.397805 1.5 0 1.5 
z
" style="stroke: #ffbc79"/>
    </defs>
    <g clip-path="url(#p3630d1956a)">
     <use xlink:href="#m21fbd2f491" x="162.450381" y="125.010592" style="fill: #ffbc79; stroke: #ffbc79"/>
     <use xlink:href="#m21fbd2f491" x="143.885271" y="124.30959" style="fill: #ffbc79; stroke: #ffbc79"/>
     <use xlink:href="#m21fbd2f491" x="186.604628" y="95.542004" style="fill: #ffbc79; stroke: #ffbc79"/>
     <use xlink:href="#m21fbd2f491" x="206.94491" y="137.884478" style="fill: #ffbc79; stroke: #ffbc79"/>
     <use xlink:href="#m21fbd2f491" x="175.892433" y="106.371467" style="fill: #ffbc79; stroke: #ffbc79"/>
     <use xlink:href="#m21fbd2f491" x="162.465774" y="115.369912" style="fill: #ffbc79; stroke: #ffbc79"/>
    </g>
   </g>
   <g id="line2d_45">
    <defs>
     <path id="m726fe1a8b4" d="M 0 1.5 
C 0.397805 1.5 0.77937 1.341951 1.06066 1.06066 
C 1.341951 0.77937 1.5 0.397805 1.5 0 
C 1.5 -0.397805 1.341951 -0.77937 1.06066 -1.06066 
C 0.77937 -1.341951 0.397805 -1.5 0 -1.5 
C -0.397805 -1.5 -0.77937 -1.341951 -1.06066 -1.06066 
C -1.341951 -0.77937 -1.5 -0.397805 -1.5 0 
C -1.5 0.397805 -1.341951 0.77937 -1.06066 1.06066 
C -0.77937 1.341951 -0.397805 1.5 0 1.5 
z
" style="stroke: #9467bd"/>
    </defs>
    <g clip-path="url(#p3630d1956a)">
     <use xlink:href="#m726fe1a8b4" x="221.753527" y="112.186769" style="fill: #9467bd; stroke: #9467bd"/>
    </g>
   </g>
   <g id="patch_3">
    <path d="M 51.454599 162.907534 
L 51.454599 3.844522 
" style="fill: none; stroke: #ffffff; stroke-width: 0.8; stroke-linejoin: miter; stroke-linecap: square"/>
   </g>
   <g id="patch_4">
    <path d="M 310.430051 162.907534 
L 310.430051 3.844522 
" style="fill: none; stroke: #ffffff; stroke-width: 0.8; stroke-linejoin: miter; stroke-linecap: square"/>
   </g>
   <g id="patch_5">
    <path d="M 51.454599 162.907534 
L 310.430051 162.907534 
" style="fill: none; stroke: #ffffff; stroke-width: 0.8; stroke-linejoin: miter; stroke-linecap: square"/>
   </g>
   <g id="patch_6">
    <path d="M 51.454599 3.844522 
L 310.430051 3.844522 
" style="fill: none; stroke: #ffffff; stroke-width: 0.8; stroke-linejoin: miter; stroke-linecap: square"/>
   </g>
   <g id="legend_1">
    <g id="patch_7">
     <path d="M 317.60956 105.430232 
L 397.208865 105.430232 
Q 399.208865 105.430232 399.208865 103.430232 
L 399.208865 5.844522 
Q 399.208865 3.844522 397.208865 3.844522 
L 317.60956 3.844522 
Q 315.60956 3.844522 315.60956 5.844522 
L 315.60956 103.430232 
Q 315.60956 105.430232 317.60956 105.430232 
z
" style="fill: #191919; opacity: 0.8; stroke: #cccccc; stroke-linejoin: miter"/>
    </g>
    <g id="text_8">
     <!-- $v_{\rm s}$ [cm/s] -->
     <g style="fill: #ffffff" transform="translate(338.057457 15.316502) scale(0.1 -0.1)">
      <defs>
       <path id="CMMI12-76" d="M 2925 2389 
C 2925 2791 2720 2816 2669 2816 
C 2515 2816 2374 2663 2374 2535 
C 2374 2459 2419 2414 2445 2389 
C 2509 2331 2675 2159 2675 1827 
C 2675 1558 2291 64 1523 64 
C 1133 64 1056 390 1056 626 
C 1056 945 1203 1392 1376 1852 
C 1478 2114 1504 2178 1504 2305 
C 1504 2574 1312 2816 998 2816 
C 410 2816 173 1890 173 1839 
C 173 1814 198 1782 243 1782 
C 301 1782 307 1807 333 1897 
C 486 2446 736 2689 979 2689 
C 1037 2689 1146 2689 1146 2478 
C 1146 2312 1075 2127 979 1884 
C 672 1067 672 869 672 715 
C 672 575 691 313 890 134 
C 1120 -64 1440 -64 1498 -64 
C 2560 -64 2925 2024 2925 2389 
z
" transform="scale(0.015625)"/>
       <path id="CMR17-73" d="M 1978 2697 
C 1978 2813 1971 2819 1933 2819 
C 1907 2819 1901 2813 1824 2717 
C 1805 2691 1747 2626 1728 2601 
C 1523 2819 1235 2819 1126 2819 
C 416 2819 160 2447 160 2076 
C 160 1498 813 1365 998 1325 
C 1402 1243 1542 1217 1677 1101 
C 1760 1025 1901 884 1901 654 
C 1901 384 1747 38 1158 38 
C 602 38 403 460 288 1021 
C 269 1110 269 1117 218 1117 
C 166 1117 160 1110 160 983 
L 160 63 
C 160 -51 166 -58 205 -58 
C 237 -58 243 -51 275 0 
C 314 57 410 211 448 276 
C 576 103 800 -64 1158 -64 
C 1792 -64 2131 283 2131 784 
C 2131 1112 1958 1285 1875 1362 
C 1683 1561 1459 1606 1190 1657 
C 838 1735 390 1825 390 2217 
C 390 2383 480 2737 1126 2737 
C 1811 2737 1850 2094 1862 1888 
C 1869 1856 1901 1849 1920 1849 
C 1978 1849 1978 1869 1978 1978 
L 1978 2697 
z
" transform="scale(0.015625)"/>
       <path id="CMSS17-5b" d="M 1613 -1600 
L 1613 -1212 
L 1062 -1212 
L 1062 4352 
L 1613 4352 
L 1613 4741 
L 595 4741 
L 595 -1600 
L 1613 -1600 
z
" transform="scale(0.015625)"/>
       <path id="CMSS17-63" d="M 2464 2541 
C 2464 2585 2170 2714 2093 2739 
C 1882 2816 1613 2816 1542 2816 
C 710 2816 211 2093 211 1363 
C 211 595 768 -64 1517 -64 
C 1946 -64 2253 76 2502 242 
L 2464 664 
C 2189 453 1869 337 1523 337 
C 1024 337 698 774 698 1369 
C 698 1831 909 2414 1549 2414 
C 1901 2414 2099 2343 2394 2145 
L 2464 2541 
z
" transform="scale(0.015625)"/>
       <path id="CMSS17-2f" d="M 2637 4545 
C 2669 4627 2669 4640 2669 4653 
C 2669 4729 2611 4768 2560 4768 
C 2483 4768 2458 4717 2432 4640 
L 365 -1377 
C 333 -1460 333 -1473 333 -1486 
C 333 -1562 390 -1600 442 -1600 
C 518 -1600 544 -1549 570 -1473 
L 2637 4545 
z
" transform="scale(0.015625)"/>
       <path id="CMSS17-5d" d="M 1146 4741 
L 128 4741 
L 128 4352 
L 678 4352 
L 678 -1212 
L 128 -1212 
L 128 -1600 
L 1146 -1600 
L 1146 4741 
z
" transform="scale(0.015625)"/>
      </defs>
      <use xlink:href="#CMMI12-76" transform="scale(0.996264)"/>
      <use xlink:href="#CMR17-73" transform="translate(47.160581 -14.943915) scale(0.697382)"/>
      <use xlink:href="#CMSS17-5b" transform="translate(103.948648 0) scale(0.996264)"/>
      <use xlink:href="#CMSS17-63" transform="translate(131.134086 0) scale(0.996264)"/>
      <use xlink:href="#CMSS17-6d" transform="translate(172.772908 0) scale(0.996264)"/>
      <use xlink:href="#CMSS17-2f" transform="translate(247.002163 0) scale(0.996264)"/>
      <use xlink:href="#CMSS17-73" transform="translate(293.845786 0) scale(0.996264)"/>
      <use xlink:href="#CMSS17-5d" transform="translate(329.759328 0) scale(0.996264)"/>
     </g>
    </g>
    <g id="LineCollection_13">
     <path d="M 324.60956 26.307162 
L 334.60956 26.307162 
" style="fill: none; stroke: #c85200; stroke-width: 1.5"/>
    </g>
    <g id="LineCollection_14">
     <path d="M 329.60956 31.307162 
L 329.60956 21.307162 
" style="fill: none; stroke: #c85200; stroke-width: 1.5"/>
    </g>
    <g id="line2d_46"/>
    <g id="line2d_47">
     <g>
      <use xlink:href="#m77dcd6ebbc" x="329.60956" y="26.307162" style="fill: #c85200; stroke: #c85200"/>
     </g>
    </g>
    <g id="text_9">
     <!-- Saline -->
     <g style="fill: #ffffff" transform="translate(347.60956 29.807162) scale(0.1 -0.1)">
      <defs>
       <path id="CMSS17-53" d="M 2797 4169 
C 2515 4334 2208 4480 1690 4480 
C 864 4480 333 3879 333 3266 
C 333 3025 403 2753 653 2475 
C 902 2196 1184 2121 1542 2033 
C 1690 1994 1939 1924 1984 1906 
C 2342 1767 2515 1444 2515 1140 
C 2515 742 2202 318 1645 318 
C 1453 318 890 318 358 819 
L 269 318 
C 794 -64 1363 -128 1651 -128 
C 2438 -128 3002 488 3002 1186 
C 3002 1440 2925 1763 2656 2061 
C 2394 2347 2163 2410 1638 2549 
C 1338 2626 1146 2677 986 2873 
C 877 3013 819 3146 819 3317 
C 819 3673 1126 4060 1690 4060 
C 1971 4060 2336 4002 2707 3660 
L 2797 4169 
z
" transform="scale(0.015625)"/>
      </defs>
      <use xlink:href="#CMSS17-53" transform="scale(0.996264)"/>
      <use xlink:href="#CMSS17-61" transform="translate(52.048516 0) scale(0.996264)"/>
      <use xlink:href="#CMSS17-6c" transform="translate(96.970437 0) scale(0.996264)"/>
      <use xlink:href="#CMSS17-69" transform="translate(119.15116 0) scale(0.996264)"/>
      <use xlink:href="#CMSS17-6e" transform="translate(141.331883 0) scale(0.996264)"/>
      <use xlink:href="#CMSS17-65" transform="translate(189.536826 0) scale(0.996264)"/>
     </g>
    </g>
    <g id="LineCollection_15">
     <path d="M 324.60956 40.24434 
L 334.60956 40.24434 
" style="fill: none; stroke: #ff800e; stroke-width: 1.5"/>
    </g>
    <g id="LineCollection_16">
     <path d="M 329.60956 45.24434 
L 329.60956 35.24434 
" style="fill: none; stroke: #ff800e; stroke-width: 1.5"/>
    </g>
    <g id="line2d_48"/>
    <g id="line2d_49">
     <g>
      <use xlink:href="#m6f4a7f6a6f" x="329.60956" y="40.24434" style="fill: #ff800e; stroke: #ff800e"/>
     </g>
    </g>
    <g id="text_10">
     <!-- $0.32 \pm 0.12$ -->
     <g style="fill: #ffffff" transform="translate(347.60956 43.74434) scale(0.1 -0.1)">
      <defs>
       <path id="CMMI12-3a" d="M 1178 307 
C 1178 492 1024 619 870 619 
C 685 619 557 466 557 313 
C 557 128 710 0 864 0 
C 1050 0 1178 153 1178 307 
z
" transform="scale(0.015625)"/>
       <path id="CMSY10-6" d="M 2618 1984 
L 4397 1984 
C 4506 1984 4621 1984 4621 2112 
C 4621 2240 4506 2240 4397 2240 
L 2618 2240 
L 2618 4018 
C 2618 4121 2618 4256 2490 4256 
C 2362 4256 2362 4140 2362 4038 
L 2362 2240 
L 576 2240 
C 467 2240 352 2240 352 2112 
C 352 1984 467 1984 576 1984 
L 2362 1984 
L 2362 256 
L 576 256 
C 467 256 352 256 352 128 
C 352 0 467 0 576 0 
L 4397 0 
C 4506 0 4621 0 4621 128 
C 4621 256 4506 256 4397 256 
L 2618 256 
L 2618 1984 
z
" transform="scale(0.015625)"/>
      </defs>
      <use xlink:href="#CMR17-30" transform="scale(0.996264)"/>
      <use xlink:href="#CMMI12-3a" transform="translate(45.690477 0) scale(0.996264)"/>
      <use xlink:href="#CMR17-33" transform="translate(72.787654 0) scale(0.996264)"/>
      <use xlink:href="#CMR17-32" transform="translate(118.478131 0) scale(0.996264)"/>
      <use xlink:href="#CMSY10-6" transform="translate(186.307815 0) scale(0.996264)"/>
      <use xlink:href="#CMR17-30" transform="translate(285.93449 0) scale(0.996264)"/>
      <use xlink:href="#CMMI12-3a" transform="translate(331.624967 0) scale(0.996264)"/>
      <use xlink:href="#CMR17-31" transform="translate(358.722144 0) scale(0.996264)"/>
      <use xlink:href="#CMR17-32" transform="translate(404.412621 0) scale(0.996264)"/>
     </g>
    </g>
    <g id="LineCollection_17">
     <path d="M 324.60956 54.181519 
L 334.60956 54.181519 
" style="fill: none; stroke: #3d4389; stroke-width: 1.5"/>
    </g>
    <g id="LineCollection_18">
     <path d="M 329.60956 59.181519 
L 329.60956 49.181519 
" style="fill: none; stroke: #3d4389; stroke-width: 1.5"/>
    </g>
    <g id="line2d_50"/>
    <g id="line2d_51">
     <g>
      <use xlink:href="#m807804a870" x="329.60956" y="54.181519" style="fill: #3d4389; stroke: #3d4389"/>
     </g>
    </g>
    <g id="text_11">
     <!-- $0.74 \pm 0.25$ -->
     <g style="fill: #ffffff" transform="translate(347.60956 57.681519) scale(0.1 -0.1)">
      <defs>
       <path id="CMR17-37" d="M 2886 3941 
L 2886 4081 
L 1382 4081 
C 634 4081 621 4165 595 4288 
L 480 4288 
L 294 3094 
L 410 3094 
C 429 3215 474 3540 550 3661 
C 589 3712 1062 3712 1171 3712 
L 2579 3712 
L 1869 2661 
C 1395 1954 1069 999 1069 165 
C 1069 89 1069 -128 1299 -128 
C 1530 -128 1530 89 1530 171 
L 1530 465 
C 1530 1508 1709 2196 2003 2636 
L 2886 3941 
z
" transform="scale(0.015625)"/>
      </defs>
      <use xlink:href="#CMR17-30" transform="scale(0.996264)"/>
      <use xlink:href="#CMMI12-3a" transform="translate(45.690477 0) scale(0.996264)"/>
      <use xlink:href="#CMR17-37" transform="translate(72.787654 0) scale(0.996264)"/>
      <use xlink:href="#CMR17-34" transform="translate(118.478131 0) scale(0.996264)"/>
      <use xlink:href="#CMSY10-6" transform="translate(186.307815 0) scale(0.996264)"/>
      <use xlink:href="#CMR17-30" transform="translate(285.93449 0) scale(0.996264)"/>
      <use xlink:href="#CMMI12-3a" transform="translate(331.624967 0) scale(0.996264)"/>
      <use xlink:href="#CMR17-32" transform="translate(358.722144 0) scale(0.996264)"/>
      <use xlink:href="#CMR17-35" transform="translate(404.412621 0) scale(0.996264)"/>
     </g>
    </g>
    <g id="LineCollection_19">
     <path d="M 324.60956 68.118697 
L 334.60956 68.118697 
" style="fill: none; stroke: #ababab; stroke-width: 1.5"/>
    </g>
    <g id="LineCollection_20">
     <path d="M 329.60956 73.118697 
L 329.60956 63.118697 
" style="fill: none; stroke: #ababab; stroke-width: 1.5"/>
    </g>
    <g id="line2d_52"/>
    <g id="line2d_53">
     <g>
      <use xlink:href="#m5af22ace89" x="329.60956" y="68.118697" style="fill: #ababab; stroke: #ababab"/>
     </g>
    </g>
    <g id="text_12">
     <!-- $1.1 \pm 0.5$ -->
     <g style="fill: #ffffff" transform="translate(347.60956 71.618697) scale(0.1 -0.1)">
      <use xlink:href="#CMR17-31" transform="scale(0.996264)"/>
      <use xlink:href="#CMMI12-3a" transform="translate(45.690477 0) scale(0.996264)"/>
      <use xlink:href="#CMR17-31" transform="translate(72.787654 0) scale(0.996264)"/>
      <use xlink:href="#CMSY10-6" transform="translate(140.617338 0) scale(0.996264)"/>
      <use xlink:href="#CMR17-30" transform="translate(240.244013 0) scale(0.996264)"/>
      <use xlink:href="#CMMI12-3a" transform="translate(285.93449 0) scale(0.996264)"/>
      <use xlink:href="#CMR17-35" transform="translate(313.031667 0) scale(0.996264)"/>
     </g>
    </g>
    <g id="LineCollection_21">
     <path d="M 324.60956 82.055875 
L 334.60956 82.055875 
" style="fill: none; stroke: #ffbc79; stroke-width: 1.5"/>
    </g>
    <g id="LineCollection_22">
     <path d="M 329.60956 87.055875 
L 329.60956 77.055875 
" style="fill: none; stroke: #ffbc79; stroke-width: 1.5"/>
    </g>
    <g id="line2d_54"/>
    <g id="line2d_55">
     <g>
      <use xlink:href="#m21fbd2f491" x="329.60956" y="82.055875" style="fill: #ffbc79; stroke: #ffbc79"/>
     </g>
    </g>
    <g id="text_13">
     <!-- $1.9 \pm 0.8$ -->
     <g style="fill: #ffffff" transform="translate(347.60956 85.555875) scale(0.1 -0.1)">
      <defs>
       <path id="CMR17-39" d="M 2253 1864 
C 2253 464 1670 31 1190 31 
C 1043 31 685 31 538 294 
C 704 268 826 357 826 518 
C 826 692 685 749 595 749 
C 538 749 365 723 365 506 
C 365 71 742 -128 1203 -128 
C 1939 -128 2688 674 2688 2073 
C 2688 3817 1971 4179 1485 4179 
C 851 4179 243 3628 243 2778 
C 243 1991 762 1408 1414 1408 
C 1952 1408 2189 1903 2253 2112 
L 2253 1864 
z
M 1427 1510 
C 1254 1510 1011 1542 813 1922 
C 678 2169 678 2461 678 2771 
C 678 3146 678 3405 858 3684 
C 947 3817 1114 4032 1485 4032 
C 2240 4032 2240 2885 2240 2632 
C 2240 2182 2035 1510 1427 1510 
z
" transform="scale(0.015625)"/>
       <path id="CMR17-38" d="M 1741 2264 
C 2144 2467 2554 2773 2554 3263 
C 2554 3841 1990 4179 1472 4179 
C 890 4179 378 3759 378 3180 
C 378 3021 416 2747 666 2505 
C 730 2442 998 2251 1171 2130 
C 883 1983 211 1634 211 934 
C 211 279 838 -128 1459 -128 
C 2144 -128 2720 362 2720 1010 
C 2720 1590 2330 1857 2074 2029 
L 1741 2264 
z
M 902 2822 
C 851 2854 595 3051 595 3351 
C 595 3739 998 4032 1459 4032 
C 1965 4032 2336 3676 2336 3262 
C 2336 2669 1670 2331 1638 2331 
C 1632 2331 1626 2331 1574 2370 
L 902 2822 
z
M 2080 1519 
C 2176 1449 2483 1240 2483 851 
C 2483 381 2010 25 1472 25 
C 890 25 448 438 448 940 
C 448 1443 838 1862 1280 2060 
L 2080 1519 
z
" transform="scale(0.015625)"/>
      </defs>
      <use xlink:href="#CMR17-31" transform="scale(0.996264)"/>
      <use xlink:href="#CMMI12-3a" transform="translate(45.690477 0) scale(0.996264)"/>
      <use xlink:href="#CMR17-39" transform="translate(72.787654 0) scale(0.996264)"/>
      <use xlink:href="#CMSY10-6" transform="translate(140.617338 0) scale(0.996264)"/>
      <use xlink:href="#CMR17-30" transform="translate(240.244013 0) scale(0.996264)"/>
      <use xlink:href="#CMMI12-3a" transform="translate(285.93449 0) scale(0.996264)"/>
      <use xlink:href="#CMR17-38" transform="translate(313.031667 0) scale(0.996264)"/>
     </g>
    </g>
    <g id="LineCollection_23">
     <path d="M 324.60956 95.993054 
L 334.60956 95.993054 
" style="fill: none; stroke: #9467bd; stroke-width: 1.5"/>
    </g>
    <g id="LineCollection_24">
     <path d="M 329.60956 100.993054 
L 329.60956 90.993054 
" style="fill: none; stroke: #9467bd; stroke-width: 1.5"/>
    </g>
    <g id="line2d_56"/>
    <g id="line2d_57">
     <g>
      <use xlink:href="#m726fe1a8b4" x="329.60956" y="95.993054" style="fill: #9467bd; stroke: #9467bd"/>
     </g>
    </g>
    <g id="text_14">
     <!-- $3.2 \pm 1.5$ -->
     <g style="fill: #ffffff" transform="translate(347.60956 99.493054) scale(0.1 -0.1)">
      <use xlink:href="#CMR17-33" transform="scale(0.996264)"/>
      <use xlink:href="#CMMI12-3a" transform="translate(45.690477 0) scale(0.996264)"/>
      <use xlink:href="#CMR17-32" transform="translate(72.787654 0) scale(0.996264)"/>
      <use xlink:href="#CMSY10-6" transform="translate(140.617338 0) scale(0.996264)"/>
      <use xlink:href="#CMR17-31" transform="translate(240.244013 0) scale(0.996264)"/>
      <use xlink:href="#CMMI12-3a" transform="translate(285.93449 0) scale(0.996264)"/>
      <use xlink:href="#CMR17-35" transform="translate(313.031667 0) scale(0.996264)"/>
     </g>
    </g>
   </g>
   <g id="legend_2">
    <g id="patch_8">
     <path d="M 317.60956 162.907534 
L 378.338558 162.907534 
Q 380.338558 162.907534 380.338558 160.907534 
L 380.338558 147.970356 
Q 380.338558 145.970356 378.338558 145.970356 
L 317.60956 145.970356 
Q 315.60956 145.970356 315.60956 147.970356 
L 315.60956 160.907534 
Q 315.60956 162.907534 317.60956 162.907534 
z
" style="fill: #191919; opacity: 0.8; stroke: #cccccc; stroke-linejoin: miter"/>
    </g>
    <g id="line2d_58">
     <path d="M 319.60956 153.470356 
L 329.60956 153.470356 
L 339.60956 153.470356 
" style="fill: none; stroke-dasharray: 3.7,1.6; stroke-dashoffset: 0; stroke: #ffffff"/>
    </g>
    <g id="text_15">
     <!-- $\tau = 30$ -->
     <g style="fill: #ffffff" transform="translate(347.60956 156.970356) scale(0.1 -0.1)">
      <use xlink:href="#CMMI12-1c" transform="scale(0.996264)"/>
      <use xlink:href="#CMR17-3d" transform="translate(81.165174 0) scale(0.996264)"/>
      <use xlink:href="#CMR17-33" transform="translate(180.553971 0) scale(0.996264)"/>
      <use xlink:href="#CMR17-30" transform="translate(226.244448 0) scale(0.996264)"/>
     </g>
    </g>
   </g>
  </g>
 </g>
 <defs>
  <clipPath id="p3630d1956a">
   <rect x="51.454599" y="3.844522" width="258.975452" height="159.063012"/>
  </clipPath>
 </defs>
</svg>
