<?xml version="1.0" encoding="utf-8" standalone="no"?>
<!DOCTYPE svg PUBLIC "-//W3C//DTD SVG 1.1//EN"
  "http://www.w3.org/Graphics/SVG/1.1/DTD/svg11.dtd">
<svg xmlns:xlink="http://www.w3.org/1999/xlink" width="421.080404pt" height="192.226091pt" viewBox="0 0 421.080404 192.226091" xmlns="http://www.w3.org/2000/svg" version="1.1">
 <metadata>
  <rdf:RDF xmlns:dc="http://purl.org/dc/elements/1.1/" xmlns:cc="http://creativecommons.org/ns#" xmlns:rdf="http://www.w3.org/1999/02/22-rdf-syntax-ns#">
   <cc:Work>
    <dc:type rdf:resource="http://purl.org/dc/dcmitype/StillImage"/>
    <dc:date>2023-06-27T18:35:01.725231</dc:date>
    <dc:format>image/svg+xml</dc:format>
    <dc:creator>
     <cc:Agent>
      <dc:title>Matplotlib v3.7.1, https://matplotlib.org/</dc:title>
     </cc:Agent>
    </dc:creator>
   </cc:Work>
  </rdf:RDF>
 </metadata>
 <defs>
  <style type="text/css">*{stroke-linejoin: round; stroke-linecap: butt}</style>
 </defs>
 <g id="figure_1">
  <g id="patch_1">
   <path d="M 0 192.226091 
L 421.080404 192.226091 
L 421.080404 0 
L 0 0 
z
" style="fill: #191919"/>
  </g>
  <g id="axes_1">
   <g id="patch_2">
    <path d="M 51.454599 162.907534 
L 310.430051 162.907534 
L 310.430051 3.844522 
L 51.454599 3.844522 
z
" style="fill: #191919"/>
   </g>
   <g id="line2d_1">
    <path d="M 51.454599 53.854483 
L 310.430051 53.854483 
" clip-path="url(#pdf47a8a2e5)" style="fill: none; stroke-dasharray: 3.7,1.6; stroke-dashoffset: 0; stroke: #ffffff"/>
   </g>
   <g id="line2d_2">
    <path d="M 268.070407 162.907534 
L 268.070407 3.844522 
" clip-path="url(#pdf47a8a2e5)" style="fill: none; stroke-dasharray: 1,1.65; stroke-dashoffset: 0; stroke: #ffffff"/>
   </g>
   <g id="line2d_3">
    <path d="M 154.123145 -1 
L 156.494139 1.714466 
L 159.84644 5.552396 
L 163.198742 9.390326 
L 166.551043 13.228256 
L 169.903344 17.066187 
L 173.255646 20.904117 
L 176.607947 24.742047 
L 179.960249 28.579977 
L 183.31255 32.417907 
L 186.664852 36.255838 
L 190.017153 40.093768 
L 193.369455 43.931698 
L 196.721756 47.769628 
L 200.074058 51.607558 
L 203.426359 55.445489 
L 206.778661 59.283419 
L 210.130962 63.121349 
L 213.483264 66.959279 
L 216.835565 70.797209 
L 220.187867 74.63514 
L 223.540168 78.47307 
L 226.89247 82.311 
L 230.244771 86.14893 
L 233.597073 89.98686 
L 236.949374 93.824791 
L 240.301676 97.662721 
L 243.653977 101.500651 
L 247.006278 105.338581 
L 250.35858 109.176511 
L 253.710881 113.014442 
L 257.063183 116.852372 
L 260.415484 120.690302 
L 263.767786 124.528232 
L 267.120087 128.366162 
L 270.472389 132.204093 
L 273.82469 136.042023 
L 277.176992 139.879953 
L 280.529293 143.717883 
L 283.881595 147.555813 
L 287.233896 151.393744 
L 290.586198 155.231674 
L 293.938499 159.069604 
L 297.290801 162.907534 
" clip-path="url(#pdf47a8a2e5)" style="fill: none; stroke-dasharray: 6.4,1.6,1,1.6; stroke-dashoffset: 0; stroke: #ffffff"/>
   </g>
   <g id="patch_3">
    <path d="M -51.692598 162.907534 
L -51.692598 3.844522 
L 150.259515 3.844522 
L 150.259515 162.907534 
z
" clip-path="url(#pdf47a8a2e5)" style="fill: #1f77b4; opacity: 0.2"/>
   </g>
   <g id="patch_4">
    <path d="M 226.413574 162.907534 
L 226.413574 3.844522 
L 268.106431 3.844522 
L 268.106431 162.907534 
z
" clip-path="url(#pdf47a8a2e5)" style="fill: #ff7f0e; opacity: 0.2"/>
   </g>
   <g id="patch_5">
    <path d="M 150.259515 162.907534 
L 150.259515 3.844522 
L 226.413574 3.844522 
L 226.413574 162.907534 
z
" clip-path="url(#pdf47a8a2e5)" style="fill: #2ca02c; opacity: 0.2"/>
   </g>
   <g id="matplotlib.axis_1">
    <g id="xtick_1">
     <g id="line2d_4">
      <defs>
       <path id="m5b5cfa2e42" d="M 0 0 
L 0 -2.5 
" style="stroke: #ffffff; stroke-width: 0.8"/>
      </defs>
      <g>
       <use xlink:href="#m5b5cfa2e42" x="131.351877" y="162.907534" style="fill: #ffffff; stroke: #ffffff; stroke-width: 0.8"/>
      </g>
     </g>
     <g id="line2d_5">
      <defs>
       <path id="mf493e3498e" d="M 0 0 
L 0 2.5 
" style="stroke: #ffffff; stroke-width: 0.8"/>
      </defs>
      <g>
       <use xlink:href="#mf493e3498e" x="131.351877" y="3.844522" style="fill: #ffffff; stroke: #ffffff; stroke-width: 0.8"/>
      </g>
     </g>
     <g id="text_1">
      <!-- $\mathdefault{10^{-2}}$ -->
      <g style="fill: #ffffff" transform="translate(121.271591 173.326033) scale(0.1 -0.1)">
       <defs>
        <path id="CMR17-31" d="M 1702 4058 
C 1702 4192 1696 4192 1606 4192 
C 1357 3916 979 3827 621 3827 
C 602 3827 570 3827 563 3808 
C 557 3795 557 3782 557 3648 
C 755 3648 1088 3686 1344 3839 
L 1344 461 
C 1344 236 1331 160 781 160 
L 589 160 
L 589 0 
C 896 0 1216 0 1523 0 
C 1830 0 2150 0 2458 0 
L 2458 160 
L 2266 160 
C 1715 160 1702 230 1702 458 
L 1702 4058 
z
" transform="scale(0.015625)"/>
        <path id="CMR17-30" d="M 2688 2025 
C 2688 2416 2682 3080 2413 3591 
C 2176 4039 1798 4198 1466 4198 
C 1158 4198 768 4058 525 3597 
C 269 3118 243 2524 243 2025 
C 243 1661 250 1106 448 619 
C 723 -39 1216 -128 1466 -128 
C 1760 -128 2208 -7 2470 600 
C 2662 1042 2688 1559 2688 2025 
z
M 1466 -26 
C 1056 -26 813 325 723 812 
C 653 1188 653 1738 653 2096 
C 653 2588 653 2997 736 3387 
C 858 3929 1216 4096 1466 4096 
C 1728 4096 2067 3923 2189 3400 
C 2272 3036 2278 2607 2278 2096 
C 2278 1680 2278 1169 2202 792 
C 2067 95 1690 -26 1466 -26 
z
" transform="scale(0.015625)"/>
        <path id="CMSY10-0" d="M 4218 1472 
C 4326 1472 4442 1472 4442 1600 
C 4442 1728 4326 1728 4218 1728 
L 755 1728 
C 646 1728 531 1728 531 1600 
C 531 1472 646 1472 755 1472 
L 4218 1472 
z
" transform="scale(0.015625)"/>
        <path id="CMR17-32" d="M 2669 989 
L 2554 989 
C 2490 536 2438 459 2413 420 
C 2381 369 1920 369 1830 369 
L 602 369 
C 832 619 1280 1072 1824 1597 
C 2214 1967 2669 2402 2669 3035 
C 2669 3790 2067 4224 1395 4224 
C 691 4224 262 3604 262 3030 
C 262 2780 448 2748 525 2748 
C 589 2748 781 2787 781 3010 
C 781 3207 614 3264 525 3264 
C 486 3264 448 3258 422 3245 
C 544 3790 915 4058 1306 4058 
C 1862 4058 2227 3617 2227 3035 
C 2227 2479 1901 2000 1536 1584 
L 262 146 
L 262 0 
L 2515 0 
L 2669 989 
z
" transform="scale(0.015625)"/>
       </defs>
       <use xlink:href="#CMR17-31" transform="scale(0.996264)"/>
       <use xlink:href="#CMR17-30" transform="translate(45.690477 0) scale(0.996264)"/>
       <use xlink:href="#CMSY10-0" transform="translate(91.380954 36.153639) scale(0.697382)"/>
       <use xlink:href="#CMR17-32" transform="translate(145.621947 36.153639) scale(0.697382)"/>
      </g>
     </g>
    </g>
    <g id="xtick_2">
     <g id="line2d_6">
      <g>
       <use xlink:href="#m5b5cfa2e42" x="297.290801" y="162.907534" style="fill: #ffffff; stroke: #ffffff; stroke-width: 0.8"/>
      </g>
     </g>
     <g id="line2d_7">
      <g>
       <use xlink:href="#mf493e3498e" x="297.290801" y="3.844522" style="fill: #ffffff; stroke: #ffffff; stroke-width: 0.8"/>
      </g>
     </g>
     <g id="text_2">
      <!-- $\mathdefault{10^{-1}}$ -->
      <g style="fill: #ffffff" transform="translate(287.210514 173.326033) scale(0.1 -0.1)">
       <use xlink:href="#CMR17-31" transform="scale(0.996264)"/>
       <use xlink:href="#CMR17-30" transform="translate(45.690477 0) scale(0.996264)"/>
       <use xlink:href="#CMSY10-0" transform="translate(91.380954 36.153639) scale(0.697382)"/>
       <use xlink:href="#CMR17-31" transform="translate(145.621947 36.153639) scale(0.697382)"/>
      </g>
     </g>
    </g>
    <g id="xtick_3">
     <g id="line2d_8">
      <defs>
       <path id="m1e7fefe335" d="M 0 0 
L 0 -2 
" style="stroke: #ffffff; stroke-width: 0.6"/>
      </defs>
      <g>
       <use xlink:href="#m1e7fefe335" x="65.318141" y="162.907534" style="fill: #ffffff; stroke: #ffffff; stroke-width: 0.6"/>
      </g>
     </g>
     <g id="line2d_9">
      <defs>
       <path id="m737b2305f7" d="M 0 0 
L 0 2 
" style="stroke: #ffffff; stroke-width: 0.6"/>
      </defs>
      <g>
       <use xlink:href="#m737b2305f7" x="65.318141" y="3.844522" style="fill: #ffffff; stroke: #ffffff; stroke-width: 0.6"/>
      </g>
     </g>
    </g>
    <g id="xtick_4">
     <g id="line2d_10">
      <g>
       <use xlink:href="#m1e7fefe335" x="81.399284" y="162.907534" style="fill: #ffffff; stroke: #ffffff; stroke-width: 0.6"/>
      </g>
     </g>
     <g id="line2d_11">
      <g>
       <use xlink:href="#m737b2305f7" x="81.399284" y="3.844522" style="fill: #ffffff; stroke: #ffffff; stroke-width: 0.6"/>
      </g>
     </g>
    </g>
    <g id="xtick_5">
     <g id="line2d_12">
      <g>
       <use xlink:href="#m1e7fefe335" x="94.538535" y="162.907534" style="fill: #ffffff; stroke: #ffffff; stroke-width: 0.6"/>
      </g>
     </g>
     <g id="line2d_13">
      <g>
       <use xlink:href="#m737b2305f7" x="94.538535" y="3.844522" style="fill: #ffffff; stroke: #ffffff; stroke-width: 0.6"/>
      </g>
     </g>
    </g>
    <g id="xtick_6">
     <g id="line2d_14">
      <g>
       <use xlink:href="#m1e7fefe335" x="105.647613" y="162.907534" style="fill: #ffffff; stroke: #ffffff; stroke-width: 0.6"/>
      </g>
     </g>
     <g id="line2d_15">
      <g>
       <use xlink:href="#m737b2305f7" x="105.647613" y="3.844522" style="fill: #ffffff; stroke: #ffffff; stroke-width: 0.6"/>
      </g>
     </g>
    </g>
    <g id="xtick_7">
     <g id="line2d_16">
      <g>
       <use xlink:href="#m1e7fefe335" x="115.270734" y="162.907534" style="fill: #ffffff; stroke: #ffffff; stroke-width: 0.6"/>
      </g>
     </g>
     <g id="line2d_17">
      <g>
       <use xlink:href="#m737b2305f7" x="115.270734" y="3.844522" style="fill: #ffffff; stroke: #ffffff; stroke-width: 0.6"/>
      </g>
     </g>
    </g>
    <g id="xtick_8">
     <g id="line2d_18">
      <g>
       <use xlink:href="#m1e7fefe335" x="123.758929" y="162.907534" style="fill: #ffffff; stroke: #ffffff; stroke-width: 0.6"/>
      </g>
     </g>
     <g id="line2d_19">
      <g>
       <use xlink:href="#m737b2305f7" x="123.758929" y="3.844522" style="fill: #ffffff; stroke: #ffffff; stroke-width: 0.6"/>
      </g>
     </g>
    </g>
    <g id="xtick_9">
     <g id="line2d_20">
      <g>
       <use xlink:href="#m1e7fefe335" x="181.304471" y="162.907534" style="fill: #ffffff; stroke: #ffffff; stroke-width: 0.6"/>
      </g>
     </g>
     <g id="line2d_21">
      <g>
       <use xlink:href="#m737b2305f7" x="181.304471" y="3.844522" style="fill: #ffffff; stroke: #ffffff; stroke-width: 0.6"/>
      </g>
     </g>
    </g>
    <g id="xtick_10">
     <g id="line2d_22">
      <g>
       <use xlink:href="#m1e7fefe335" x="210.524865" y="162.907534" style="fill: #ffffff; stroke: #ffffff; stroke-width: 0.6"/>
      </g>
     </g>
     <g id="line2d_23">
      <g>
       <use xlink:href="#m737b2305f7" x="210.524865" y="3.844522" style="fill: #ffffff; stroke: #ffffff; stroke-width: 0.6"/>
      </g>
     </g>
    </g>
    <g id="xtick_11">
     <g id="line2d_24">
      <g>
       <use xlink:href="#m1e7fefe335" x="231.257064" y="162.907534" style="fill: #ffffff; stroke: #ffffff; stroke-width: 0.6"/>
      </g>
     </g>
     <g id="line2d_25">
      <g>
       <use xlink:href="#m737b2305f7" x="231.257064" y="3.844522" style="fill: #ffffff; stroke: #ffffff; stroke-width: 0.6"/>
      </g>
     </g>
    </g>
    <g id="xtick_12">
     <g id="line2d_26">
      <g>
       <use xlink:href="#m1e7fefe335" x="247.338207" y="162.907534" style="fill: #ffffff; stroke: #ffffff; stroke-width: 0.6"/>
      </g>
     </g>
     <g id="line2d_27">
      <g>
       <use xlink:href="#m737b2305f7" x="247.338207" y="3.844522" style="fill: #ffffff; stroke: #ffffff; stroke-width: 0.6"/>
      </g>
     </g>
    </g>
    <g id="xtick_13">
     <g id="line2d_28">
      <g>
       <use xlink:href="#m1e7fefe335" x="260.477458" y="162.907534" style="fill: #ffffff; stroke: #ffffff; stroke-width: 0.6"/>
      </g>
     </g>
     <g id="line2d_29">
      <g>
       <use xlink:href="#m737b2305f7" x="260.477458" y="3.844522" style="fill: #ffffff; stroke: #ffffff; stroke-width: 0.6"/>
      </g>
     </g>
    </g>
    <g id="xtick_14">
     <g id="line2d_30">
      <g>
       <use xlink:href="#m1e7fefe335" x="271.586536" y="162.907534" style="fill: #ffffff; stroke: #ffffff; stroke-width: 0.6"/>
      </g>
     </g>
     <g id="line2d_31">
      <g>
       <use xlink:href="#m737b2305f7" x="271.586536" y="3.844522" style="fill: #ffffff; stroke: #ffffff; stroke-width: 0.6"/>
      </g>
     </g>
    </g>
    <g id="xtick_15">
     <g id="line2d_32">
      <g>
       <use xlink:href="#m1e7fefe335" x="281.209657" y="162.907534" style="fill: #ffffff; stroke: #ffffff; stroke-width: 0.6"/>
      </g>
     </g>
     <g id="line2d_33">
      <g>
       <use xlink:href="#m737b2305f7" x="281.209657" y="3.844522" style="fill: #ffffff; stroke: #ffffff; stroke-width: 0.6"/>
      </g>
     </g>
    </g>
    <g id="xtick_16">
     <g id="line2d_34">
      <g>
       <use xlink:href="#m1e7fefe335" x="289.697852" y="162.907534" style="fill: #ffffff; stroke: #ffffff; stroke-width: 0.6"/>
      </g>
     </g>
     <g id="line2d_35">
      <g>
       <use xlink:href="#m737b2305f7" x="289.697852" y="3.844522" style="fill: #ffffff; stroke: #ffffff; stroke-width: 0.6"/>
      </g>
     </g>
    </g>
    <g id="text_3">
     <!-- $\mathcal{S}/a = (v_{\rm s}/u_{0})(L_{0}/h_{0}) \sim$ Settling number -->
     <g style="fill: #ffffff" transform="translate(92.664389 186.735191) scale(0.1 -0.1)">
      <defs>
       <path id="CMSY10-53" d="M 736 1421 
C 813 1453 1037 1594 1037 1684 
C 1037 1729 998 1729 960 1729 
C 742 1729 115 1453 115 811 
C 115 348 634 -128 1414 -128 
C 2458 -128 3667 599 3667 1475 
C 3667 2087 3027 2383 2509 2615 
C 2061 2820 1766 3085 1766 3452 
C 1766 3587 1824 3838 2022 4011 
C 2214 4179 2573 4179 2662 4179 
C 2733 4179 3002 4179 3277 4057 
C 3398 4000 3565 3924 3565 3649 
C 3565 3560 3558 3528 3539 3458 
C 3533 3439 3526 3414 3526 3394 
C 3526 3350 3565 3350 3590 3350 
C 3674 3350 3827 3414 3955 3523 
C 4038 3587 4109 3671 4109 3921 
C 4109 4236 3942 4325 3770 4403 
C 3469 4544 3174 4544 3085 4544 
C 2246 4544 1222 3901 1222 3168 
C 1222 2629 1779 2371 2086 2236 
C 2541 2031 3123 1735 3123 1195 
C 3123 764 2810 224 1837 224 
C 1184 224 659 649 659 1086 
C 659 1202 691 1317 736 1421 
z
" transform="scale(0.015625)"/>
       <path id="CMMI12-3d" d="M 2746 4562 
C 2746 4569 2784 4666 2784 4678 
C 2784 4755 2720 4800 2669 4800 
C 2637 4800 2579 4800 2528 4659 
L 384 -1363 
C 384 -1370 346 -1465 346 -1478 
C 346 -1555 410 -1600 461 -1600 
C 499 -1600 557 -1593 602 -1459 
L 2746 4562 
z
" transform="scale(0.015625)"/>
       <path id="CMMI12-61" d="M 1926 760 
C 1894 651 1894 639 1805 517 
C 1664 338 1382 64 1082 64 
C 819 64 672 300 672 677 
C 672 1028 870 1743 992 2012 
C 1210 2459 1510 2689 1760 2689 
C 2182 2689 2266 2165 2266 2114 
C 2266 2108 2246 2024 2240 2012 
L 1926 760 
z
M 2336 2395 
C 2266 2561 2093 2816 1760 2816 
C 1037 2816 256 1884 256 939 
C 256 307 627 -64 1062 -64 
C 1414 -64 1715 211 1894 422 
C 1958 45 2259 -64 2451 -64 
C 2643 -64 2797 51 2912 281 
C 3014 498 3104 888 3104 913 
C 3104 945 3078 971 3040 971 
C 2982 971 2976 939 2950 843 
C 2854 466 2733 64 2470 64 
C 2285 64 2272 230 2272 358 
C 2272 505 2291 575 2349 824 
C 2394 984 2426 1124 2477 1309 
C 2714 2267 2771 2497 2771 2535 
C 2771 2625 2701 2695 2605 2695 
C 2400 2695 2349 2472 2336 2395 
z
" transform="scale(0.015625)"/>
       <path id="CMR17-3d" d="M 4115 2017 
C 4211 2017 4307 2017 4307 2125 
C 4307 2240 4198 2240 4090 2240 
L 512 2240 
C 403 2240 294 2240 294 2125 
C 294 2017 390 2017 486 2017 
L 4115 2017 
z
M 4090 896 
C 4198 896 4307 896 4307 1011 
C 4307 1119 4211 1119 4115 1119 
L 486 1119 
C 390 1119 294 1119 294 1011 
C 294 896 403 896 512 896 
L 4090 896 
z
" transform="scale(0.015625)"/>
       <path id="CMR17-28" d="M 1958 -1561 
C 1958 -1555 1958 -1542 1939 -1523 
C 1645 -1224 858 -407 858 1581 
C 858 3569 1632 4379 1946 4697 
C 1946 4704 1958 4717 1958 4736 
C 1958 4755 1939 4768 1914 4768 
C 1843 4768 1299 4296 986 3594 
C 666 2887 576 2199 576 1588 
C 576 1128 621 351 1005 -471 
C 1312 -1135 1837 -1600 1914 -1600 
C 1946 -1600 1958 -1587 1958 -1561 
z
" transform="scale(0.015625)"/>
       <path id="CMMI12-76" d="M 2925 2389 
C 2925 2791 2720 2816 2669 2816 
C 2515 2816 2374 2663 2374 2535 
C 2374 2459 2419 2414 2445 2389 
C 2509 2331 2675 2159 2675 1827 
C 2675 1558 2291 64 1523 64 
C 1133 64 1056 390 1056 626 
C 1056 945 1203 1392 1376 1852 
C 1478 2114 1504 2178 1504 2305 
C 1504 2574 1312 2816 998 2816 
C 410 2816 173 1890 173 1839 
C 173 1814 198 1782 243 1782 
C 301 1782 307 1807 333 1897 
C 486 2446 736 2689 979 2689 
C 1037 2689 1146 2689 1146 2478 
C 1146 2312 1075 2127 979 1884 
C 672 1067 672 869 672 715 
C 672 575 691 313 890 134 
C 1120 -64 1440 -64 1498 -64 
C 2560 -64 2925 2024 2925 2389 
z
" transform="scale(0.015625)"/>
       <path id="CMR17-73" d="M 1978 2697 
C 1978 2813 1971 2819 1933 2819 
C 1907 2819 1901 2813 1824 2717 
C 1805 2691 1747 2626 1728 2601 
C 1523 2819 1235 2819 1126 2819 
C 416 2819 160 2447 160 2076 
C 160 1498 813 1365 998 1325 
C 1402 1243 1542 1217 1677 1101 
C 1760 1025 1901 884 1901 654 
C 1901 384 1747 38 1158 38 
C 602 38 403 460 288 1021 
C 269 1110 269 1117 218 1117 
C 166 1117 160 1110 160 983 
L 160 63 
C 160 -51 166 -58 205 -58 
C 237 -58 243 -51 275 0 
C 314 57 410 211 448 276 
C 576 103 800 -64 1158 -64 
C 1792 -64 2131 283 2131 784 
C 2131 1112 1958 1285 1875 1362 
C 1683 1561 1459 1606 1190 1657 
C 838 1735 390 1825 390 2217 
C 390 2383 480 2737 1126 2737 
C 1811 2737 1850 2094 1862 1888 
C 1869 1856 1901 1849 1920 1849 
C 1978 1849 1978 1869 1978 1978 
L 1978 2697 
z
" transform="scale(0.015625)"/>
       <path id="CMMI12-75" d="M 2182 370 
C 2266 13 2573 -64 2726 -64 
C 2931 -64 3085 70 3187 287 
C 3296 517 3379 894 3379 913 
C 3379 945 3354 971 3315 971 
C 3258 971 3251 939 3226 843 
C 3110 402 2995 64 2739 64 
C 2547 64 2547 275 2547 358 
C 2547 505 2566 568 2630 837 
C 2675 1009 2720 1181 2758 1360 
L 3021 2401 
C 3066 2561 3066 2574 3066 2593 
C 3066 2689 2989 2753 2893 2753 
C 2707 2753 2662 2593 2624 2433 
C 2560 2184 2214 811 2170 588 
C 2163 588 1914 64 1446 64 
C 1114 64 1050 351 1050 588 
C 1050 952 1229 1462 1395 1890 
C 1472 2095 1504 2178 1504 2305 
C 1504 2580 1306 2816 998 2816 
C 410 2816 173 1890 173 1839 
C 173 1814 198 1782 243 1782 
C 301 1782 307 1807 333 1896 
C 486 2441 736 2682 979 2682 
C 1043 2682 1146 2682 1146 2478 
C 1146 2312 1075 2127 979 1884 
C 698 1124 666 881 666 690 
C 666 38 1158 -64 1421 -64 
C 1830 -64 2054 217 2182 370 
z
" transform="scale(0.015625)"/>
       <path id="CMR17-29" d="M 1683 1581 
C 1683 2040 1638 2817 1254 3639 
C 947 4303 422 4768 346 4768 
C 326 4768 301 4761 301 4729 
C 301 4717 307 4710 314 4697 
C 621 4378 1402 3568 1402 1584 
C 1402 -407 627 -1217 314 -1537 
C 307 -1549 301 -1556 301 -1568 
C 301 -1600 326 -1600 346 -1600 
C 416 -1600 960 -1128 1274 -426 
C 1594 281 1683 969 1683 1581 
z
" transform="scale(0.015625)"/>
       <path id="CMMI12-4c" d="M 2349 3861 
C 2406 4103 2426 4167 2989 4167 
C 3162 4167 3206 4167 3206 4288 
C 3206 4352 3136 4352 3110 4352 
C 2982 4352 2835 4352 2707 4352 
L 1850 4352 
C 1728 4352 1587 4352 1466 4352 
C 1414 4352 1344 4352 1344 4231 
C 1344 4167 1402 4167 1498 4167 
C 1888 4167 1888 4116 1888 4046 
C 1888 4034 1888 3995 1862 3899 
L 998 472 
C 941 249 928 185 480 185 
C 358 185 294 185 294 70 
C 294 0 333 0 461 0 
L 3328 0 
C 3469 0 3475 6 3520 121 
L 4013 1478 
C 4026 1510 4038 1548 4038 1567 
C 4038 1605 4006 1631 3974 1631 
C 3968 1631 3936 1631 3923 1605 
C 3910 1599 3910 1586 3859 1465 
C 3654 905 3366 185 2285 185 
L 1670 185 
C 1581 185 1568 185 1530 192 
C 1459 198 1453 211 1453 262 
C 1453 307 1466 345 1478 401 
L 2349 3861 
z
" transform="scale(0.015625)"/>
       <path id="CMMI12-68" d="M 1798 4257 
C 1805 4283 1818 4321 1818 4352 
C 1818 4416 1754 4416 1741 4416 
C 1734 4416 1421 4388 1389 4380 
C 1280 4373 1184 4358 1069 4358 
C 909 4345 864 4339 864 4224 
C 864 4160 915 4160 1005 4160 
C 1318 4160 1325 4103 1325 4040 
C 1325 4002 1312 3951 1306 3932 
L 378 248 
C 352 152 352 140 352 101 
C 352 -38 461 -64 525 -64 
C 634 -64 717 19 749 89 
L 1037 1245 
C 1069 1386 1107 1520 1139 1660 
C 1210 1929 1210 1935 1331 2120 
C 1453 2305 1741 2689 2234 2689 
C 2490 2689 2579 2497 2579 2242 
C 2579 1884 2330 1188 2189 805 
C 2131 651 2099 568 2099 453 
C 2099 166 2298 -64 2605 -64 
C 3200 -64 3424 875 3424 913 
C 3424 945 3398 971 3360 971 
C 3302 971 3296 952 3264 843 
C 3117 332 2880 64 2624 64 
C 2560 64 2458 64 2458 269 
C 2458 436 2534 640 2560 710 
C 2675 1018 2963 1773 2963 2145 
C 2963 2528 2739 2816 2253 2816 
C 1888 2816 1568 2644 1306 2312 
L 1798 4257 
z
" transform="scale(0.015625)"/>
       <path id="CMSY10-18" d="M 4622 2138 
C 4622 2278 4584 2342 4533 2342 
C 4501 2342 4449 2298 4443 2176 
C 4417 1562 3995 1210 3547 1210 
C 3143 1210 2836 1485 2522 1760 
C 2196 2054 1863 2349 1428 2349 
C 730 2349 352 1645 352 1062 
C 352 858 435 858 442 858 
C 512 858 531 986 531 1005 
C 557 1709 1037 1990 1428 1990 
C 1831 1990 2138 1715 2452 1440 
C 2778 1146 3111 851 3547 851 
C 4245 851 4622 1555 4622 2138 
z
" transform="scale(0.015625)"/>
       <path id="CMSS17-53" d="M 2797 4169 
C 2515 4334 2208 4480 1690 4480 
C 864 4480 333 3879 333 3266 
C 333 3025 403 2753 653 2475 
C 902 2196 1184 2121 1542 2033 
C 1690 1994 1939 1924 1984 1906 
C 2342 1767 2515 1444 2515 1140 
C 2515 742 2202 318 1645 318 
C 1453 318 890 318 358 819 
L 269 318 
C 794 -64 1363 -128 1651 -128 
C 2438 -128 3002 488 3002 1186 
C 3002 1440 2925 1763 2656 2061 
C 2394 2347 2163 2410 1638 2549 
C 1338 2626 1146 2677 986 2873 
C 877 3013 819 3146 819 3317 
C 819 3673 1126 4060 1690 4060 
C 1971 4060 2336 4002 2707 3660 
L 2797 4169 
z
" transform="scale(0.015625)"/>
       <path id="CMSS17-65" d="M 2502 1377 
C 2502 1590 2490 2003 2285 2345 
C 2061 2713 1696 2816 1421 2816 
C 755 2816 192 2188 192 1375 
C 192 582 774 -64 1510 -64 
C 1798 -64 2150 19 2470 248 
C 2470 274 2458 414 2451 420 
C 2451 433 2432 630 2432 656 
C 2125 407 1773 325 1517 325 
C 1107 325 666 667 646 1377 
L 2502 1377 
z
M 698 1728 
C 781 2084 1062 2421 1421 2421 
C 1517 2421 1965 2421 2080 1728 
L 698 1728 
z
" transform="scale(0.015625)"/>
       <path id="CMSS17-74" d="M 1069 2368 
L 1901 2368 
L 1901 2737 
L 1069 2737 
L 1069 3520 
L 614 3520 
L 614 2737 
L 109 2737 
L 109 2368 
L 602 2368 
L 602 749 
C 602 384 685 -64 1107 -64 
C 1427 -64 1722 25 2003 172 
L 1901 548 
C 1747 414 1562 337 1363 337 
C 1082 337 1069 696 1069 856 
L 1069 2368 
z
" transform="scale(0.015625)"/>
       <path id="CMSS17-6c" d="M 947 4416 
L 474 4416 
L 474 0 
L 947 0 
L 947 4416 
z
" transform="scale(0.015625)"/>
       <path id="CMSS17-69" d="M 979 4183 
L 442 4183 
L 442 3648 
L 979 3648 
L 979 4183 
z
M 947 2739 
L 474 2739 
L 474 0 
L 947 0 
L 947 2739 
z
" transform="scale(0.015625)"/>
       <path id="CMSS17-6e" d="M 2618 1877 
C 2618 2283 2522 2816 1798 2816 
C 1389 2816 1120 2606 941 2389 
L 941 2758 
L 474 2758 
L 474 0 
L 960 0 
L 960 1559 
C 960 1964 1114 2428 1549 2428 
C 2112 2428 2131 2048 2131 1829 
L 2131 0 
L 2618 0 
L 2618 1877 
z
" transform="scale(0.015625)"/>
       <path id="CMSS17-67" d="M 2848 2808 
C 2483 2808 2170 2738 1914 2617 
C 1702 2777 1485 2808 1338 2808 
C 781 2808 358 2349 358 1814 
C 358 1468 550 1207 563 1195 
C 448 1035 384 863 384 672 
C 384 448 474 289 544 200 
C 211 -3 166 -314 166 -435 
C 166 -898 749 -1280 1498 -1280 
C 2253 -1280 2835 -898 2835 -428 
C 2835 448 1856 448 1587 448 
L 1069 448 
C 973 448 717 448 717 791 
C 717 921 774 1004 781 1010 
C 877 940 1075 832 1338 832 
C 1869 832 2310 1278 2310 1827 
C 2310 2132 2170 2355 2112 2432 
L 2131 2432 
C 2150 2432 2419 2432 2515 2432 
C 2720 2432 2739 2429 2918 2419 
L 2848 2808 
z
M 1338 1182 
C 1120 1182 813 1315 813 1823 
C 813 2375 1165 2464 1331 2464 
C 1549 2464 1856 2331 1856 1823 
C 1856 1271 1504 1182 1338 1182 
z
M 1581 -10 
C 1734 -10 2381 -10 2381 -442 
C 2381 -714 1984 -929 1504 -929 
C 1018 -929 621 -720 621 -435 
C 621 -403 621 -10 1062 -10 
L 1581 -10 
z
" transform="scale(0.015625)"/>
       <path id="CMSS17-75" d="M 2618 2739 
L 2131 2739 
L 2131 972 
C 2131 498 1786 306 1421 306 
C 998 306 960 447 960 709 
L 960 2739 
L 474 2739 
L 474 678 
C 474 179 646 -64 1088 -64 
C 1306 -64 1798 -13 2144 306 
L 2144 0 
L 2618 0 
L 2618 2739 
z
" transform="scale(0.015625)"/>
       <path id="CMSS17-6d" d="M 4288 1877 
C 4288 2308 4179 2816 3462 2816 
C 2982 2816 2694 2516 2566 2331 
C 2451 2670 2182 2816 1798 2816 
C 1363 2816 1088 2568 941 2389 
L 941 2758 
L 474 2758 
L 474 0 
L 960 0 
L 960 1559 
C 960 1939 1101 2428 1555 2428 
C 2138 2428 2138 2016 2138 1829 
L 2138 0 
L 2624 0 
L 2624 1559 
C 2624 1939 2765 2428 3219 2428 
C 3802 2428 3802 2016 3802 1829 
L 3802 0 
L 4288 0 
L 4288 1877 
z
" transform="scale(0.015625)"/>
       <path id="CMSS17-62" d="M 954 4416 
L 480 4416 
L 480 -13 
L 966 -13 
L 966 274 
C 1210 38 1504 -64 1766 -64 
C 2381 -64 2880 549 2880 1352 
C 2880 2086 2496 2756 1926 2756 
C 1523 2756 1165 2591 954 2419 
L 954 4416 
z
M 966 2046 
C 1107 2222 1306 2368 1587 2368 
C 1965 2368 2394 2097 2394 1352 
C 2394 558 1882 325 1530 325 
C 1402 325 1267 356 1139 464 
C 966 615 966 709 966 797 
L 966 2046 
z
" transform="scale(0.015625)"/>
       <path id="CMSS17-72" d="M 954 1363 
C 954 1965 1395 2368 1958 2368 
L 1958 2789 
C 1549 2789 1165 2585 934 2253 
L 934 2758 
L 480 2758 
L 480 0 
L 954 0 
L 954 1363 
z
" transform="scale(0.015625)"/>
      </defs>
      <use xlink:href="#CMSY10-53" transform="scale(0.996264)"/>
      <use xlink:href="#CMMI12-3d" transform="translate(67.801074 0) scale(0.996264)"/>
      <use xlink:href="#CMMI12-61" transform="translate(116.575993 0) scale(0.996264)"/>
      <use xlink:href="#CMR17-3d" transform="translate(195.457859 0) scale(0.996264)"/>
      <use xlink:href="#CMR17-28" transform="translate(294.846657 0) scale(0.996264)"/>
      <use xlink:href="#CMMI12-76" transform="translate(330.127424 0) scale(0.996264)"/>
      <use xlink:href="#CMR17-73" transform="translate(377.288005 -14.943915) scale(0.697382)"/>
      <use xlink:href="#CMMI12-3d" transform="translate(402.846959 0) scale(0.996264)"/>
      <use xlink:href="#CMMI12-75" transform="translate(451.621878 0) scale(0.996264)"/>
      <use xlink:href="#CMR17-30" transform="translate(507.142208 -14.943915) scale(0.697382)"/>
      <use xlink:href="#CMR17-29" transform="translate(539.623522 0) scale(0.996264)"/>
      <use xlink:href="#CMR17-28" transform="translate(574.90429 0) scale(0.996264)"/>
      <use xlink:href="#CMMI12-4c" transform="translate(610.185057 0) scale(0.996264)"/>
      <use xlink:href="#CMR17-30" transform="translate(676.555933 -14.943915) scale(0.697382)"/>
      <use xlink:href="#CMMI12-3d" transform="translate(709.037247 0) scale(0.996264)"/>
      <use xlink:href="#CMMI12-68" transform="translate(757.812166 0) scale(0.996264)"/>
      <use xlink:href="#CMR17-30" transform="translate(813.96679 -14.943915) scale(0.697382)"/>
      <use xlink:href="#CMR17-29" transform="translate(846.448104 0) scale(0.996264)"/>
      <use xlink:href="#CMSY10-18" transform="translate(909.40288 0) scale(0.996264)"/>
      <use xlink:href="#CMSS17-53" transform="translate(1018.11946 0) scale(0.996264)"/>
      <use xlink:href="#CMSS17-65" transform="translate(1070.167977 0) scale(0.996264)"/>
      <use xlink:href="#CMSS17-74" transform="translate(1111.806799 0) scale(0.996264)"/>
      <use xlink:href="#CMSS17-74" transform="translate(1145.638365 0) scale(0.996264)"/>
      <use xlink:href="#CMSS17-6c" transform="translate(1179.469932 0) scale(0.996264)"/>
      <use xlink:href="#CMSS17-69" transform="translate(1201.650655 0) scale(0.996264)"/>
      <use xlink:href="#CMSS17-6e" transform="translate(1223.831378 0) scale(0.996264)"/>
      <use xlink:href="#CMSS17-67" transform="translate(1272.036321 0) scale(0.996264)"/>
      <use xlink:href="#CMSS17-6e" transform="translate(1350.109058 0) scale(0.996264)"/>
      <use xlink:href="#CMSS17-75" transform="translate(1398.314001 0) scale(0.996264)"/>
      <use xlink:href="#CMSS17-6d" transform="translate(1446.518944 0) scale(0.996264)"/>
      <use xlink:href="#CMSS17-62" transform="translate(1520.748198 0) scale(0.996264)"/>
      <use xlink:href="#CMSS17-65" transform="translate(1571.55558 0) scale(0.996264)"/>
      <use xlink:href="#CMSS17-72" transform="translate(1613.194402 0) scale(0.996264)"/>
     </g>
    </g>
   </g>
   <g id="matplotlib.axis_2">
    <g id="ytick_1">
     <g id="line2d_36">
      <defs>
       <path id="me985f21cba" d="M 0 0 
L 2.5 0 
" style="stroke: #ffffff; stroke-width: 0.8"/>
      </defs>
      <g>
       <use xlink:href="#me985f21cba" x="51.454599" y="144.496808" style="fill: #ffffff; stroke: #ffffff; stroke-width: 0.8"/>
      </g>
     </g>
     <g id="line2d_37">
      <defs>
       <path id="m6079a621f3" d="M 0 0 
L -2.5 0 
" style="stroke: #ffffff; stroke-width: 0.8"/>
      </defs>
      <g>
       <use xlink:href="#m6079a621f3" x="310.430051" y="144.496808" style="fill: #ffffff; stroke: #ffffff; stroke-width: 0.8"/>
      </g>
     </g>
     <g id="text_4">
      <!-- $\mathdefault{10^{1}}$ -->
      <g style="fill: #ffffff" transform="translate(34.020691 147.956057) scale(0.1 -0.1)">
       <use xlink:href="#CMR17-31" transform="scale(0.996264)"/>
       <use xlink:href="#CMR17-30" transform="translate(45.690477 0) scale(0.996264)"/>
       <use xlink:href="#CMR17-31" transform="translate(91.380954 36.153639) scale(0.697382)"/>
      </g>
     </g>
    </g>
    <g id="ytick_2">
     <g id="line2d_38">
      <defs>
       <path id="m60e61b8b64" d="M 0 0 
L 2 0 
" style="stroke: #ffffff; stroke-width: 0.6"/>
      </defs>
      <g>
       <use xlink:href="#m60e61b8b64" x="51.454599" y="162.907534" style="fill: #ffffff; stroke: #ffffff; stroke-width: 0.6"/>
      </g>
     </g>
     <g id="line2d_39">
      <defs>
       <path id="m7911e064c6" d="M 0 0 
L -2 0 
" style="stroke: #ffffff; stroke-width: 0.6"/>
      </defs>
      <g>
       <use xlink:href="#m7911e064c6" x="310.430051" y="162.907534" style="fill: #ffffff; stroke: #ffffff; stroke-width: 0.6"/>
      </g>
     </g>
    </g>
    <g id="ytick_3">
     <g id="line2d_40">
      <g>
       <use xlink:href="#m60e61b8b64" x="51.454599" y="153.189704" style="fill: #ffffff; stroke: #ffffff; stroke-width: 0.6"/>
      </g>
     </g>
     <g id="line2d_41">
      <g>
       <use xlink:href="#m7911e064c6" x="310.430051" y="153.189704" style="fill: #ffffff; stroke: #ffffff; stroke-width: 0.6"/>
      </g>
     </g>
    </g>
    <g id="ytick_4">
     <g id="line2d_42">
      <g>
       <use xlink:href="#m60e61b8b64" x="51.454599" y="87.307868" style="fill: #ffffff; stroke: #ffffff; stroke-width: 0.6"/>
      </g>
     </g>
     <g id="line2d_43">
      <g>
       <use xlink:href="#m7911e064c6" x="310.430051" y="87.307868" style="fill: #ffffff; stroke: #ffffff; stroke-width: 0.6"/>
      </g>
     </g>
     <g id="text_5">
      <!-- $\mathdefault{2\times10^{1}}$ -->
      <g style="fill: #ffffff" transform="translate(16.96288 90.809196) scale(0.1 -0.1)">
       <defs>
        <path id="CMSY10-2" d="M 2490 1785 
L 1210 3059 
C 1133 3136 1120 3148 1069 3148 
C 1005 3148 941 3091 941 3020 
C 941 2976 954 2963 1024 2892 
L 2304 1606 
L 1024 320 
C 954 249 941 236 941 192 
C 941 121 1005 64 1069 64 
C 1120 64 1133 76 1210 153 
L 2483 1427 
L 3808 102 
C 3821 96 3866 64 3904 64 
C 3981 64 4032 121 4032 192 
C 4032 204 4032 230 4013 262 
C 4006 275 2989 1280 2669 1606 
L 3840 2777 
C 3872 2816 3968 2899 4000 2937 
C 4006 2950 4032 2976 4032 3020 
C 4032 3091 3981 3148 3904 3148 
C 3853 3148 3827 3123 3757 3052 
L 2490 1785 
z
" transform="scale(0.015625)"/>
       </defs>
       <use xlink:href="#CMR17-32" transform="scale(0.996264)"/>
       <use xlink:href="#CMSY10-2" transform="translate(67.829684 0) scale(0.996264)"/>
       <use xlink:href="#CMR17-31" transform="translate(167.456359 0) scale(0.996264)"/>
       <use xlink:href="#CMR17-30" transform="translate(213.146836 0) scale(0.996264)"/>
       <use xlink:href="#CMR17-31" transform="translate(258.837313 36.153639) scale(0.697382)"/>
      </g>
     </g>
    </g>
    <g id="ytick_5">
     <g id="line2d_44">
      <g>
       <use xlink:href="#m60e61b8b64" x="51.454599" y="53.854483" style="fill: #ffffff; stroke: #ffffff; stroke-width: 0.6"/>
      </g>
     </g>
     <g id="line2d_45">
      <g>
       <use xlink:href="#m7911e064c6" x="310.430051" y="53.854483" style="fill: #ffffff; stroke: #ffffff; stroke-width: 0.6"/>
      </g>
     </g>
     <g id="text_6">
      <!-- $\mathdefault{3\times10^{1}}$ -->
      <g style="fill: #ffffff" transform="translate(16.96288 57.355811) scale(0.1 -0.1)">
       <defs>
        <path id="CMR17-33" d="M 1414 2157 
C 1984 2157 2234 1662 2234 1090 
C 2234 320 1824 25 1453 25 
C 1114 25 563 194 390 693 
C 422 680 454 680 486 680 
C 640 680 755 782 755 948 
C 755 1133 614 1216 486 1216 
C 378 1216 211 1165 211 926 
C 211 335 787 -128 1466 -128 
C 2176 -128 2720 430 2720 1085 
C 2720 1707 2208 2157 1600 2227 
C 2086 2328 2554 2756 2554 3329 
C 2554 3820 2048 4179 1472 4179 
C 890 4179 378 3829 378 3329 
C 378 3110 544 3072 627 3072 
C 762 3072 877 3155 877 3321 
C 877 3486 762 3569 627 3569 
C 602 3569 570 3569 544 3557 
C 730 3959 1235 4032 1459 4032 
C 1683 4032 2106 3925 2106 3320 
C 2106 3143 2080 2828 1862 2550 
C 1670 2304 1453 2304 1242 2284 
C 1210 2284 1062 2269 1037 2269 
C 992 2263 966 2257 966 2208 
C 966 2163 973 2157 1101 2157 
L 1414 2157 
z
" transform="scale(0.015625)"/>
       </defs>
       <use xlink:href="#CMR17-33" transform="scale(0.996264)"/>
       <use xlink:href="#CMSY10-2" transform="translate(67.829684 0) scale(0.996264)"/>
       <use xlink:href="#CMR17-31" transform="translate(167.456359 0) scale(0.996264)"/>
       <use xlink:href="#CMR17-30" transform="translate(213.146836 0) scale(0.996264)"/>
       <use xlink:href="#CMR17-31" transform="translate(258.837313 36.153639) scale(0.697382)"/>
      </g>
     </g>
    </g>
    <g id="ytick_6">
     <g id="line2d_46">
      <g>
       <use xlink:href="#m60e61b8b64" x="51.454599" y="30.118929" style="fill: #ffffff; stroke: #ffffff; stroke-width: 0.6"/>
      </g>
     </g>
     <g id="line2d_47">
      <g>
       <use xlink:href="#m7911e064c6" x="310.430051" y="30.118929" style="fill: #ffffff; stroke: #ffffff; stroke-width: 0.6"/>
      </g>
     </g>
     <g id="text_7">
      <!-- $\mathdefault{4\times10^{1}}$ -->
      <g style="fill: #ffffff" transform="translate(16.96288 33.620257) scale(0.1 -0.1)">
       <defs>
        <path id="CMR17-34" d="M 2150 4122 
C 2150 4256 2144 4256 2029 4256 
L 128 1254 
L 128 1088 
L 1779 1088 
L 1779 457 
C 1779 224 1766 160 1318 160 
L 1197 160 
L 1197 0 
C 1402 0 1747 0 1965 0 
C 2182 0 2528 0 2733 0 
L 2733 160 
L 2611 160 
C 2163 160 2150 224 2150 457 
L 2150 1088 
L 2803 1088 
L 2803 1254 
L 2150 1254 
L 2150 4122 
z
M 1798 3703 
L 1798 1254 
L 256 1254 
L 1798 3703 
z
" transform="scale(0.015625)"/>
       </defs>
       <use xlink:href="#CMR17-34" transform="scale(0.996264)"/>
       <use xlink:href="#CMSY10-2" transform="translate(67.829684 0) scale(0.996264)"/>
       <use xlink:href="#CMR17-31" transform="translate(167.456359 0) scale(0.996264)"/>
       <use xlink:href="#CMR17-30" transform="translate(213.146836 0) scale(0.996264)"/>
       <use xlink:href="#CMR17-31" transform="translate(258.837313 36.153639) scale(0.697382)"/>
      </g>
     </g>
    </g>
    <g id="ytick_7">
     <g id="line2d_48">
      <g>
       <use xlink:href="#m60e61b8b64" x="51.454599" y="11.708203" style="fill: #ffffff; stroke: #ffffff; stroke-width: 0.6"/>
      </g>
     </g>
     <g id="line2d_49">
      <g>
       <use xlink:href="#m7911e064c6" x="310.430051" y="11.708203" style="fill: #ffffff; stroke: #ffffff; stroke-width: 0.6"/>
      </g>
     </g>
    </g>
    <g id="text_8">
     <!-- Dimensionless duration, $\tau = t_{\rm end}/t_{0}$ -->
     <g style="fill: #ffffff" transform="translate(10.47222 158.173715) rotate(-90) scale(0.1 -0.1)">
      <defs>
       <path id="CMSS17-44" d="M 570 4416 
L 570 0 
L 2144 0 
C 3194 0 4000 980 4000 2170 
C 4000 3398 3194 4416 2144 4416 
L 570 4416 
z
M 1094 357 
L 1094 4059 
L 2003 4059 
C 2861 4059 3475 3277 3475 2170 
C 3475 1107 2867 357 2003 357 
L 1094 357 
z
" transform="scale(0.015625)"/>
       <path id="CMSS17-73" d="M 2061 2627 
C 1683 2807 1389 2807 1197 2807 
C 742 2807 198 2648 198 2003 
C 198 1359 902 1218 1094 1179 
C 1389 1122 1715 1058 1715 740 
C 1715 337 1254 337 1171 337 
C 915 337 563 407 243 638 
L 166 210 
C 531 0 883 -64 1178 -64 
C 1965 -64 2163 416 2163 781 
C 2163 1094 1984 1305 1862 1401 
C 1651 1568 1574 1587 1050 1696 
C 960 1709 646 1779 646 2066 
C 646 2432 1050 2432 1139 2432 
C 1555 2432 1811 2303 1984 2208 
L 2061 2627 
z
" transform="scale(0.015625)"/>
       <path id="CMSS17-6f" d="M 2829 1356 
C 2829 2176 2221 2816 1504 2816 
C 768 2816 173 2157 173 1356 
C 173 544 787 -64 1498 -64 
C 2227 -64 2829 563 2829 1356 
z
M 1504 337 
C 1050 337 659 709 659 1408 
C 659 2151 1114 2427 1498 2427 
C 1914 2427 2342 2126 2342 1408 
C 2342 683 1926 337 1504 337 
z
" transform="scale(0.015625)"/>
       <path id="CMSS17-64" d="M 2611 4416 
L 2138 4416 
L 2138 2438 
C 1939 2603 1613 2756 1254 2756 
C 672 2756 211 2131 211 1347 
C 211 562 666 -64 1235 -64 
C 1677 -64 1971 172 2125 306 
L 2125 -13 
L 2611 -13 
L 2611 4416 
z
M 2125 836 
C 2125 747 2125 653 1926 482 
C 1798 375 1645 325 1498 325 
C 1152 325 698 576 698 1340 
C 698 2134 1210 2368 1562 2368 
C 1798 2368 1990 2254 2125 2065 
L 2125 836 
z
" transform="scale(0.015625)"/>
       <path id="CMSS17-61" d="M 2406 1791 
C 2406 2392 1978 2808 1402 2808 
C 1120 2808 813 2757 461 2553 
L 499 2135 
C 659 2248 934 2432 1395 2432 
C 1722 2432 1920 2180 1920 1782 
L 1920 1536 
C 896 1536 256 1238 256 726 
C 256 461 416 -64 947 -64 
C 1043 -64 1562 -64 1933 217 
L 1933 -19 
L 2406 -19 
L 2406 1791 
z
M 1920 816 
C 1920 701 1920 548 1728 434 
C 1562 325 1350 325 1261 325 
C 941 325 723 511 723 744 
C 723 1211 1722 1211 1920 1211 
L 1920 816 
z
" transform="scale(0.015625)"/>
       <path id="CMSS17-2c" d="M 1088 6 
L 1088 510 
L 576 510 
L 576 0 
L 736 0 
L 570 -800 
L 826 -800 
L 1088 6 
z
" transform="scale(0.015625)"/>
       <path id="CMMI12-1c" d="M 1837 2408 
L 2899 2408 
C 2982 2408 3194 2408 3194 2612 
C 3194 2752 3072 2752 2957 2752 
L 1197 2752 
C 1050 2752 832 2752 538 2440 
C 371 2255 166 1917 166 1879 
C 166 1841 198 1828 237 1828 
C 282 1828 288 1847 320 1885 
C 653 2408 986 2408 1146 2408 
L 1677 2408 
L 1011 223 
C 979 127 979 114 979 95 
C 979 25 1024 -64 1152 -64 
C 1350 -64 1382 108 1402 203 
L 1837 2408 
z
" transform="scale(0.015625)"/>
       <path id="CMMI12-74" d="M 1286 2566 
L 1875 2566 
C 1997 2566 2061 2566 2061 2681 
C 2061 2752 2022 2752 1894 2752 
L 1331 2752 
L 1568 3692 
C 1594 3781 1594 3794 1594 3840 
C 1594 3943 1510 4000 1427 4000 
C 1376 4000 1229 3981 1178 3775 
L 928 2752 
L 326 2752 
C 198 2752 141 2752 141 2630 
C 141 2566 186 2566 307 2566 
L 877 2566 
L 454 881 
C 403 658 384 594 384 511 
C 384 211 595 -64 954 -64 
C 1600 -64 1946 868 1946 912 
C 1946 951 1920 970 1882 970 
C 1869 970 1843 970 1830 944 
C 1824 938 1818 931 1773 829 
C 1638 511 1344 64 973 64 
C 781 64 768 224 768 364 
C 768 370 768 492 787 568 
L 1286 2566 
z
" transform="scale(0.015625)"/>
       <path id="CMR17-65" d="M 2438 1472 
C 2464 1498 2464 1511 2464 1576 
C 2464 2238 2118 2816 1389 2816 
C 710 2816 173 2169 173 1383 
C 173 551 781 -64 1459 -64 
C 2176 -64 2458 607 2458 740 
C 2458 784 2419 784 2406 784 
C 2362 784 2355 771 2330 696 
C 2189 265 1837 51 1504 51 
C 1229 51 954 203 781 480 
C 582 803 582 1176 582 1472 
L 2438 1472 
z
M 589 1568 
C 634 2505 1126 2714 1382 2714 
C 1818 2714 2112 2297 2118 1568 
L 589 1568 
z
" transform="scale(0.015625)"/>
       <path id="CMR17-6e" d="M 2656 1933 
C 2656 2259 2592 2790 1837 2790 
C 1331 2790 1069 2400 973 2144 
L 966 2144 
L 966 2790 
L 211 2720 
L 211 2554 
C 589 2554 646 2515 646 2208 
L 646 428 
C 646 184 621 153 211 153 
L 211 -13 
C 365 0 646 0 813 0 
C 979 0 1267 0 1421 -13 
L 1421 153 
C 1011 153 986 178 986 428 
L 986 1658 
C 986 2247 1344 2688 1792 2688 
C 2266 2688 2317 2266 2317 1958 
L 2317 428 
C 2317 184 2291 153 1882 153 
L 1882 -13 
C 2035 0 2317 0 2483 0 
C 2650 0 2938 0 3091 -13 
L 3091 153 
C 2682 153 2656 178 2656 428 
L 2656 1933 
z
" transform="scale(0.015625)"/>
       <path id="CMR17-64" d="M 1869 4326 
L 1869 4160 
C 2246 4160 2304 4122 2304 3820 
L 2304 2345 
C 2278 2377 2016 2790 1498 2790 
C 845 2790 211 2208 211 1364 
C 211 525 806 -64 1434 -64 
C 1978 -64 2259 337 2291 380 
L 2291 -63 
L 3066 -63 
L 3066 128 
C 2688 128 2630 166 2630 473 
L 2630 4396 
L 1869 4326 
z
M 2291 755 
C 2291 563 2176 390 2029 262 
C 1811 70 1594 38 1472 38 
C 1286 38 621 134 621 1356 
C 621 2612 1363 2688 1530 2688 
C 1824 2688 2061 2522 2208 2291 
C 2291 2157 2291 2138 2291 2023 
L 2291 755 
z
" transform="scale(0.015625)"/>
      </defs>
      <use xlink:href="#CMSS17-44" transform="scale(0.996264)"/>
      <use xlink:href="#CMSS17-69" transform="translate(67.542842 0) scale(0.996264)"/>
      <use xlink:href="#CMSS17-6d" transform="translate(89.723565 0) scale(0.996264)"/>
      <use xlink:href="#CMSS17-65" transform="translate(163.952819 0) scale(0.996264)"/>
      <use xlink:href="#CMSS17-6e" transform="translate(205.591641 0) scale(0.996264)"/>
      <use xlink:href="#CMSS17-73" transform="translate(253.796584 0) scale(0.996264)"/>
      <use xlink:href="#CMSS17-69" transform="translate(289.710126 0) scale(0.996264)"/>
      <use xlink:href="#CMSS17-6f" transform="translate(311.890849 0) scale(0.996264)"/>
      <use xlink:href="#CMSS17-6e" transform="translate(358.734473 0) scale(0.996264)"/>
      <use xlink:href="#CMSS17-6c" transform="translate(406.939416 0) scale(0.996264)"/>
      <use xlink:href="#CMSS17-65" transform="translate(429.120139 0) scale(0.996264)"/>
      <use xlink:href="#CMSS17-73" transform="translate(470.758961 0) scale(0.996264)"/>
      <use xlink:href="#CMSS17-73" transform="translate(506.672503 0) scale(0.996264)"/>
      <use xlink:href="#CMSS17-64" transform="translate(573.815158 0) scale(0.996264)"/>
      <use xlink:href="#CMSS17-75" transform="translate(622.020101 0) scale(0.996264)"/>
      <use xlink:href="#CMSS17-72" transform="translate(670.225044 0) scale(0.996264)"/>
      <use xlink:href="#CMSS17-61" transform="translate(702.134817 0) scale(0.996264)"/>
      <use xlink:href="#CMSS17-74" transform="translate(747.056737 0) scale(0.996264)"/>
      <use xlink:href="#CMSS17-69" transform="translate(780.888304 0) scale(0.996264)"/>
      <use xlink:href="#CMSS17-6f" transform="translate(803.069027 0) scale(0.996264)"/>
      <use xlink:href="#CMSS17-6e" transform="translate(849.912651 0) scale(0.996264)"/>
      <use xlink:href="#CMSS17-2c" transform="translate(898.117594 0) scale(0.996264)"/>
      <use xlink:href="#CMMI12-1c" transform="translate(955.370911 0) scale(0.996264)"/>
      <use xlink:href="#CMR17-3d" transform="translate(1036.536085 0) scale(0.996264)"/>
      <use xlink:href="#CMMI12-74" transform="translate(1135.924883 0) scale(0.996264)"/>
      <use xlink:href="#CMR17-65" transform="translate(1171.151213 -14.943915) scale(0.697382)"/>
      <use xlink:href="#CMR17-6e" transform="translate(1199.491044 -14.943915) scale(0.697382)"/>
      <use xlink:href="#CMR17-64" transform="translate(1235.117653 -14.943915) scale(0.697382)"/>
      <use xlink:href="#CMMI12-3d" transform="translate(1271.242393 0) scale(0.996264)"/>
      <use xlink:href="#CMMI12-74" transform="translate(1320.017312 0) scale(0.996264)"/>
      <use xlink:href="#CMR17-30" transform="translate(1355.243642 -14.943915) scale(0.697382)"/>
     </g>
    </g>
   </g>
   <g id="LineCollection_1">
    <path clip-path="url(#pdf47a8a2e5)" style="fill: none; stroke: #c85200; stroke-width: 1.5"/>
    <path clip-path="url(#pdf47a8a2e5)" style="fill: none; stroke: #c85200; stroke-width: 1.5"/>
    <path clip-path="url(#pdf47a8a2e5)" style="fill: none; stroke: #c85200; stroke-width: 1.5"/>
    <path clip-path="url(#pdf47a8a2e5)" style="fill: none; stroke: #c85200; stroke-width: 1.5"/>
    <path clip-path="url(#pdf47a8a2e5)" style="fill: none; stroke: #c85200; stroke-width: 1.5"/>
    <path clip-path="url(#pdf47a8a2e5)" style="fill: none; stroke: #c85200; stroke-width: 1.5"/>
    <path clip-path="url(#pdf47a8a2e5)" style="fill: none; stroke: #c85200; stroke-width: 1.5"/>
    <path clip-path="url(#pdf47a8a2e5)" style="fill: none; stroke: #c85200; stroke-width: 1.5"/>
    <path clip-path="url(#pdf47a8a2e5)" style="fill: none; stroke: #c85200; stroke-width: 1.5"/>
    <path clip-path="url(#pdf47a8a2e5)" style="fill: none; stroke: #c85200; stroke-width: 1.5"/>
    <path clip-path="url(#pdf47a8a2e5)" style="fill: none; stroke: #c85200; stroke-width: 1.5"/>
    <path clip-path="url(#pdf47a8a2e5)" style="fill: none; stroke: #c85200; stroke-width: 1.5"/>
    <path clip-path="url(#pdf47a8a2e5)" style="fill: none; stroke: #c85200; stroke-width: 1.5"/>
    <path clip-path="url(#pdf47a8a2e5)" style="fill: none; stroke: #c85200; stroke-width: 1.5"/>
    <path clip-path="url(#pdf47a8a2e5)" style="fill: none; stroke: #c85200; stroke-width: 1.5"/>
   </g>
   <g id="LineCollection_2">
    <path clip-path="url(#pdf47a8a2e5)" style="fill: none; stroke: #c85200; stroke-width: 1.5"/>
    <path clip-path="url(#pdf47a8a2e5)" style="fill: none; stroke: #c85200; stroke-width: 1.5"/>
    <path clip-path="url(#pdf47a8a2e5)" style="fill: none; stroke: #c85200; stroke-width: 1.5"/>
    <path clip-path="url(#pdf47a8a2e5)" style="fill: none; stroke: #c85200; stroke-width: 1.5"/>
    <path clip-path="url(#pdf47a8a2e5)" style="fill: none; stroke: #c85200; stroke-width: 1.5"/>
    <path clip-path="url(#pdf47a8a2e5)" style="fill: none; stroke: #c85200; stroke-width: 1.5"/>
    <path clip-path="url(#pdf47a8a2e5)" style="fill: none; stroke: #c85200; stroke-width: 1.5"/>
    <path clip-path="url(#pdf47a8a2e5)" style="fill: none; stroke: #c85200; stroke-width: 1.5"/>
    <path clip-path="url(#pdf47a8a2e5)" style="fill: none; stroke: #c85200; stroke-width: 1.5"/>
    <path clip-path="url(#pdf47a8a2e5)" style="fill: none; stroke: #c85200; stroke-width: 1.5"/>
    <path clip-path="url(#pdf47a8a2e5)" style="fill: none; stroke: #c85200; stroke-width: 1.5"/>
    <path clip-path="url(#pdf47a8a2e5)" style="fill: none; stroke: #c85200; stroke-width: 1.5"/>
    <path clip-path="url(#pdf47a8a2e5)" style="fill: none; stroke: #c85200; stroke-width: 1.5"/>
    <path clip-path="url(#pdf47a8a2e5)" style="fill: none; stroke: #c85200; stroke-width: 1.5"/>
    <path clip-path="url(#pdf47a8a2e5)" style="fill: none; stroke: #c85200; stroke-width: 1.5"/>
   </g>
   <g id="LineCollection_3">
    <path d="M 156.906829 57.795559 
L 185.249831 57.795559 
" clip-path="url(#pdf47a8a2e5)" style="fill: none; stroke: #ff800e; stroke-width: 1.5"/>
    <path d="M 117.776202 47.272073 
L 145.93748 47.272073 
" clip-path="url(#pdf47a8a2e5)" style="fill: none; stroke: #ff800e; stroke-width: 1.5"/>
    <path d="M 99.392563 46.943375 
L 127.545652 46.943375 
" clip-path="url(#pdf47a8a2e5)" style="fill: none; stroke: #ff800e; stroke-width: 1.5"/>
    <path d="M 182.501542 72.913958 
L 211.101921 72.913958 
" clip-path="url(#pdf47a8a2e5)" style="fill: none; stroke: #ff800e; stroke-width: 1.5"/>
    <path d="M 143.299062 61.080634 
L 171.49947 61.080634 
" clip-path="url(#pdf47a8a2e5)" style="fill: none; stroke: #ff800e; stroke-width: 1.5"/>
    <path d="M 67.821302 54.037213 
L 95.970417 54.037213 
" clip-path="url(#pdf47a8a2e5)" style="fill: none; stroke: #ff800e; stroke-width: 1.5"/>
    <path d="M 132.396013 48.64798 
L 160.573047 48.64798 
" clip-path="url(#pdf47a8a2e5)" style="fill: none; stroke: #ff800e; stroke-width: 1.5"/>
    <path d="M 142.832218 54.398005 
L 171.03131 54.398005 
" clip-path="url(#pdf47a8a2e5)" style="fill: none; stroke: #ff800e; stroke-width: 1.5"/>
    <path d="M 74.092987 56.530479 
L 102.242466 56.530479 
" clip-path="url(#pdf47a8a2e5)" style="fill: none; stroke: #ff800e; stroke-width: 1.5"/>
    <path d="M 194.883527 68.444794 
L 223.93451 68.444794 
" clip-path="url(#pdf47a8a2e5)" style="fill: none; stroke: #ff800e; stroke-width: 1.5"/>
    <path d="M 208.891834 80.883534 
L 239.037474 80.883534 
" clip-path="url(#pdf47a8a2e5)" style="fill: none; stroke: #ff800e; stroke-width: 1.5"/>
    <path d="M 59.804264 53.95436 
L 87.953057 53.95436 
" clip-path="url(#pdf47a8a2e5)" style="fill: none; stroke: #ff800e; stroke-width: 1.5"/>
    <path d="M 171.023123 64.374081 
L 199.410703 64.374081 
" clip-path="url(#pdf47a8a2e5)" style="fill: none; stroke: #ff800e; stroke-width: 1.5"/>
    <path d="M 99.456447 64.564898 
L 127.609553 64.564898 
" clip-path="url(#pdf47a8a2e5)" style="fill: none; stroke: #ff800e; stroke-width: 1.5"/>
    <path d="M 208.601536 78.953677 
L 238.714171 78.953677 
" clip-path="url(#pdf47a8a2e5)" style="fill: none; stroke: #ff800e; stroke-width: 1.5"/>
    <path d="M 196.340997 88.420042 
L 225.469028 88.420042 
" clip-path="url(#pdf47a8a2e5)" style="fill: none; stroke: #ff800e; stroke-width: 1.5"/>
    <path d="M 183.109893 74.90509 
L 211.725837 74.90509 
" clip-path="url(#pdf47a8a2e5)" style="fill: none; stroke: #ff800e; stroke-width: 1.5"/>
   </g>
   <g id="LineCollection_4">
    <path d="M 172.46282 64.655581 
L 172.46282 51.462391 
" clip-path="url(#pdf47a8a2e5)" style="fill: none; stroke: #ff800e; stroke-width: 1.5"/>
    <path d="M 133.223745 53.863517 
L 133.223745 41.168485 
" clip-path="url(#pdf47a8a2e5)" style="fill: none; stroke: #ff800e; stroke-width: 1.5"/>
    <path d="M 114.835222 53.522528 
L 114.835222 40.850328 
" clip-path="url(#pdf47a8a2e5)" style="fill: none; stroke: #ff800e; stroke-width: 1.5"/>
    <path d="M 198.211317 80.141832 
L 198.211317 66.268587 
" clip-path="url(#pdf47a8a2e5)" style="fill: none; stroke: #ff800e; stroke-width: 1.5"/>
    <path d="M 158.769947 67.730583 
L 158.769947 54.926919 
" clip-path="url(#pdf47a8a2e5)" style="fill: none; stroke: #ff800e; stroke-width: 1.5"/>
    <path d="M 83.261591 60.610395 
L 83.261591 47.949288 
" clip-path="url(#pdf47a8a2e5)" style="fill: none; stroke: #ff800e; stroke-width: 1.5"/>
    <path d="M 147.852955 55.263029 
L 147.852955 42.524161 
" clip-path="url(#pdf47a8a2e5)" style="fill: none; stroke: #ff800e; stroke-width: 1.5"/>
    <path d="M 158.302319 61.045992 
L 158.302319 48.24597 
" clip-path="url(#pdf47a8a2e5)" style="fill: none; stroke: #ff800e; stroke-width: 1.5"/>
    <path d="M 89.533493 63.104207 
L 89.533493 50.442085 
" clip-path="url(#pdf47a8a2e5)" style="fill: none; stroke: #ff800e; stroke-width: 1.5"/>
    <path d="M 210.863071 76.286883 
L 210.863071 61.283814 
" clip-path="url(#pdf47a8a2e5)" style="fill: none; stroke: #ff800e; stroke-width: 1.5"/>
    <path d="M 225.529549 90.100056 
L 225.529549 72.59389 
" clip-path="url(#pdf47a8a2e5)" style="fill: none; stroke: #ff800e; stroke-width: 1.5"/>
    <path d="M 75.244361 60.527057 
L 75.244361 47.86685 
" clip-path="url(#pdf47a8a2e5)" style="fill: none; stroke: #ff800e; stroke-width: 1.5"/>
    <path d="M 186.605733 71.298818 
L 186.605733 57.985802 
" clip-path="url(#pdf47a8a2e5)" style="fill: none; stroke: #ff800e; stroke-width: 1.5"/>
    <path d="M 114.899116 71.144077 
L 114.899116 58.471829 
" clip-path="url(#pdf47a8a2e5)" style="fill: none; stroke: #ff800e; stroke-width: 1.5"/>
    <path d="M 225.219348 88.130693 
L 225.219348 70.696001 
" clip-path="url(#pdf47a8a2e5)" style="fill: none; stroke: #ff800e; stroke-width: 1.5"/>
    <path d="M 212.366737 96.363862 
L 212.366737 81.174341 
" clip-path="url(#pdf47a8a2e5)" style="fill: none; stroke: #ff800e; stroke-width: 1.5"/>
    <path d="M 198.828975 82.154783 
L 198.828975 68.241282 
" clip-path="url(#pdf47a8a2e5)" style="fill: none; stroke: #ff800e; stroke-width: 1.5"/>
   </g>
   <g id="LineCollection_5">
    <path d="M 181.113886 85.659541 
L 205.477536 85.659541 
" clip-path="url(#pdf47a8a2e5)" style="fill: none; stroke: #3d4389; stroke-width: 1.5"/>
    <path d="M 215.815292 85.955946 
L 240.328074 85.955946 
" clip-path="url(#pdf47a8a2e5)" style="fill: none; stroke: #3d4389; stroke-width: 1.5"/>
    <path d="M 152.90923 77.512672 
L 177.252654 77.512672 
" clip-path="url(#pdf47a8a2e5)" style="fill: none; stroke: #3d4389; stroke-width: 1.5"/>
    <path d="M 128.316963 46.529908 
L 152.656354 46.529908 
" clip-path="url(#pdf47a8a2e5)" style="fill: none; stroke: #3d4389; stroke-width: 1.5"/>
    <path d="M 137.82225 54.99783 
L 162.162609 54.99783 
" clip-path="url(#pdf47a8a2e5)" style="fill: none; stroke: #3d4389; stroke-width: 1.5"/>
    <path d="M 181.721489 59.464342 
L 206.086014 59.464342 
" clip-path="url(#pdf47a8a2e5)" style="fill: none; stroke: #3d4389; stroke-width: 1.5"/>
    <path d="M 226.75897 107.571363 
L 251.417916 107.571363 
" clip-path="url(#pdf47a8a2e5)" style="fill: none; stroke: #3d4389; stroke-width: 1.5"/>
    <path d="M 145.02196 63.718667 
L 169.363472 63.718667 
" clip-path="url(#pdf47a8a2e5)" style="fill: none; stroke: #3d4389; stroke-width: 1.5"/>
    <path d="M 169.387539 70.2321 
L 193.738978 70.2321 
" clip-path="url(#pdf47a8a2e5)" style="fill: none; stroke: #3d4389; stroke-width: 1.5"/>
    <path d="M 181.721489 87.883685 
L 206.086014 87.883685 
" clip-path="url(#pdf47a8a2e5)" style="fill: none; stroke: #3d4389; stroke-width: 1.5"/>
    <path d="M 226.75897 97.727782 
L 251.417916 97.727782 
" clip-path="url(#pdf47a8a2e5)" style="fill: none; stroke: #3d4389; stroke-width: 1.5"/>
    <path d="M 236.453116 107.676056 
L 261.341902 107.676056 
" clip-path="url(#pdf47a8a2e5)" style="fill: none; stroke: #3d4389; stroke-width: 1.5"/>
    <path d="M 249.657685 137.363391 
L 275.1503 137.363391 
" clip-path="url(#pdf47a8a2e5)" style="fill: none; stroke: #3d4389; stroke-width: 1.5"/>
    <path d="M 277.404956 111.816595 
L 307.523995 111.816595 
" clip-path="url(#pdf47a8a2e5)" style="fill: none; stroke: #3d4389; stroke-width: 1.5"/>
    <path d="M 120.802854 51.000087 
L 145.141765 51.000087 
" clip-path="url(#pdf47a8a2e5)" style="fill: none; stroke: #3d4389; stroke-width: 1.5"/>
    <path d="M 137.82225 59.732422 
L 162.162609 59.732422 
" clip-path="url(#pdf47a8a2e5)" style="fill: none; stroke: #3d4389; stroke-width: 1.5"/>
    <path d="M 137.82225 47.423138 
L 162.162609 47.423138 
" clip-path="url(#pdf47a8a2e5)" style="fill: none; stroke: #3d4389; stroke-width: 1.5"/>
    <path d="M 194.013739 95.547975 
L 218.404025 95.547975 
" clip-path="url(#pdf47a8a2e5)" style="fill: none; stroke: #3d4389; stroke-width: 1.5"/>
    <path d="M 249.657685 110.720122 
L 275.1503 110.720122 
" clip-path="url(#pdf47a8a2e5)" style="fill: none; stroke: #3d4389; stroke-width: 1.5"/>
    <path d="M 97.136649 54.074623 
L 121.474869 54.074623 
" clip-path="url(#pdf47a8a2e5)" style="fill: none; stroke: #3d4389; stroke-width: 1.5"/>
   </g>
   <g id="LineCollection_6">
    <path d="M 194.32043 92.265015 
L 194.32043 79.543927 
" clip-path="url(#pdf47a8a2e5)" style="fill: none; stroke: #3d4389; stroke-width: 1.5"/>
    <path d="M 229.108925 92.755109 
L 229.108925 79.674679 
" clip-path="url(#pdf47a8a2e5)" style="fill: none; stroke: #3d4389; stroke-width: 1.5"/>
    <path d="M 166.103968 84.091576 
L 166.103968 71.419838 
" clip-path="url(#pdf47a8a2e5)" style="fill: none; stroke: #3d4389; stroke-width: 1.5"/>
    <path d="M 141.509347 53.103505 
L 141.509347 40.441626 
" clip-path="url(#pdf47a8a2e5)" style="fill: none; stroke: #3d4389; stroke-width: 1.5"/>
    <path d="M 151.015199 61.572701 
L 151.015199 48.908454 
" clip-path="url(#pdf47a8a2e5)" style="fill: none; stroke: #3d4389; stroke-width: 1.5"/>
    <path d="M 194.928544 66.070963 
L 194.928544 53.347745 
" clip-path="url(#pdf47a8a2e5)" style="fill: none; stroke: #3d4389; stroke-width: 1.5"/>
    <path d="M 240.138032 114.556798 
L 240.138032 101.131465 
" clip-path="url(#pdf47a8a2e5)" style="fill: none; stroke: #3d4389; stroke-width: 1.5"/>
    <path d="M 158.215582 70.295055 
L 158.215582 57.627991 
" clip-path="url(#pdf47a8a2e5)" style="fill: none; stroke: #3d4389; stroke-width: 1.5"/>
    <path d="M 182.586955 76.821543 
L 182.586955 64.130229 
" clip-path="url(#pdf47a8a2e5)" style="fill: none; stroke: #3d4389; stroke-width: 1.5"/>
    <path d="M 194.928544 94.490306 
L 194.928544 81.767088 
" clip-path="url(#pdf47a8a2e5)" style="fill: none; stroke: #3d4389; stroke-width: 1.5"/>
    <path d="M 240.138032 104.713218 
L 240.138032 91.287885 
" clip-path="url(#pdf47a8a2e5)" style="fill: none; stroke: #3d4389; stroke-width: 1.5"/>
    <path d="M 249.966658 114.947909 
L 249.966658 100.993531 
" clip-path="url(#pdf47a8a2e5)" style="fill: none; stroke: #3d4389; stroke-width: 1.5"/>
    <path d="M 263.525378 145.355551 
L 263.525378 130.0775 
" clip-path="url(#pdf47a8a2e5)" style="fill: none; stroke: #3d4389; stroke-width: 1.5"/>
    <path d="M 294.02663 124.501515 
L 294.02663 100.824537 
" clip-path="url(#pdf47a8a2e5)" style="fill: none; stroke: #3d4389; stroke-width: 1.5"/>
    <path d="M 133.994958 57.573053 
L 133.994958 44.912347 
" clip-path="url(#pdf47a8a2e5)" style="fill: none; stroke: #3d4389; stroke-width: 1.5"/>
    <path d="M 151.015199 66.307294 
L 151.015199 53.643047 
" clip-path="url(#pdf47a8a2e5)" style="fill: none; stroke: #3d4389; stroke-width: 1.5"/>
    <path d="M 151.015199 53.998009 
L 151.015199 41.333763 
" clip-path="url(#pdf47a8a2e5)" style="fill: none; stroke: #3d4389; stroke-width: 1.5"/>
    <path d="M 207.235832 102.188327 
L 207.235832 89.402479 
" clip-path="url(#pdf47a8a2e5)" style="fill: none; stroke: #3d4389; stroke-width: 1.5"/>
    <path d="M 263.525378 118.712281 
L 263.525378 103.43423 
" clip-path="url(#pdf47a8a2e5)" style="fill: none; stroke: #3d4389; stroke-width: 1.5"/>
    <path d="M 110.32835 60.646679 
L 110.32835 47.987663 
" clip-path="url(#pdf47a8a2e5)" style="fill: none; stroke: #3d4389; stroke-width: 1.5"/>
   </g>
   <g id="LineCollection_7">
    <path d="M 233.702317 88.775459 
L 264.39211 88.775459 
" clip-path="url(#pdf47a8a2e5)" style="fill: none; stroke: #ababab; stroke-width: 1.5"/>
    <path d="M 208.720349 86.332074 
L 239.375226 86.332074 
" clip-path="url(#pdf47a8a2e5)" style="fill: none; stroke: #ababab; stroke-width: 1.5"/>
    <path d="M 190.262462 59.062468 
L 220.909718 59.062468 
" clip-path="url(#pdf47a8a2e5)" style="fill: none; stroke: #ababab; stroke-width: 1.5"/>
    <path d="M 223.273141 80.324721 
L 253.942546 80.324721 
" clip-path="url(#pdf47a8a2e5)" style="fill: none; stroke: #ababab; stroke-width: 1.5"/>
   </g>
   <g id="LineCollection_8">
    <path d="M 250.66869 95.423232 
L 250.66869 82.623607 
" clip-path="url(#pdf47a8a2e5)" style="fill: none; stroke: #ababab; stroke-width: 1.5"/>
    <path d="M 225.665604 92.923544 
L 225.665604 80.228465 
" clip-path="url(#pdf47a8a2e5)" style="fill: none; stroke: #ababab; stroke-width: 1.5"/>
    <path d="M 207.203108 65.641601 
L 207.203108 52.969438 
" clip-path="url(#pdf47a8a2e5)" style="fill: none; stroke: #ababab; stroke-width: 1.5"/>
    <path d="M 240.227182 86.939662 
L 240.227182 74.200994 
" clip-path="url(#pdf47a8a2e5)" style="fill: none; stroke: #ababab; stroke-width: 1.5"/>
   </g>
   <g id="LineCollection_9">
    <path d="M 246.076108 125.010592 
L 276.542001 125.010592 
" clip-path="url(#pdf47a8a2e5)" style="fill: none; stroke: #ffbc79; stroke-width: 1.5"/>
    <path d="M 260.674851 124.30959 
L 291.155206 124.30959 
" clip-path="url(#pdf47a8a2e5)" style="fill: none; stroke: #ffbc79; stroke-width: 1.5"/>
    <path d="M 227.790938 95.542004 
L 258.24932 95.542004 
" clip-path="url(#pdf47a8a2e5)" style="fill: none; stroke: #ffbc79; stroke-width: 1.5"/>
    <path d="M 213.197679 137.884478 
L 243.653624 137.884478 
" clip-path="url(#pdf47a8a2e5)" style="fill: none; stroke: #ffbc79; stroke-width: 1.5"/>
    <path d="M 235.786151 106.371467 
L 266.246938 106.371467 
" clip-path="url(#pdf47a8a2e5)" style="fill: none; stroke: #ffbc79; stroke-width: 1.5"/>
    <path d="M 246.064177 115.369912 
L 276.530062 115.369912 
" clip-path="url(#pdf47a8a2e5)" style="fill: none; stroke: #ffbc79; stroke-width: 1.5"/>
   </g>
   <g id="LineCollection_10">
    <path d="M 262.907131 131.601781 
L 262.907131 118.907224 
" clip-path="url(#pdf47a8a2e5)" style="fill: none; stroke: #ffbc79; stroke-width: 1.5"/>
    <path d="M 277.514611 130.924019 
L 277.514611 118.186301 
" clip-path="url(#pdf47a8a2e5)" style="fill: none; stroke: #ffbc79; stroke-width: 1.5"/>
    <path d="M 244.617423 102.1211 
L 244.617423 89.449006 
" clip-path="url(#pdf47a8a2e5)" style="fill: none; stroke: #ffbc79; stroke-width: 1.5"/>
    <path d="M 230.022692 144.459647 
L 230.022692 131.794849 
" clip-path="url(#pdf47a8a2e5)" style="fill: none; stroke: #ffbc79; stroke-width: 1.5"/>
    <path d="M 252.614089 112.954438 
L 252.614089 100.275146 
" clip-path="url(#pdf47a8a2e5)" style="fill: none; stroke: #ffbc79; stroke-width: 1.5"/>
    <path d="M 262.895195 121.961089 
L 262.895195 109.266555 
" clip-path="url(#pdf47a8a2e5)" style="fill: none; stroke: #ffbc79; stroke-width: 1.5"/>
   </g>
   <g id="LineCollection_11">
    <path d="M 237.166186 112.186769 
L 271.256963 112.186769 
" clip-path="url(#pdf47a8a2e5)" style="fill: none; stroke: #9467bd; stroke-width: 1.5"/>
   </g>
   <g id="LineCollection_12">
    <path d="M 256.208873 118.761641 
L 256.208873 106.097394 
" clip-path="url(#pdf47a8a2e5)" style="fill: none; stroke: #9467bd; stroke-width: 1.5"/>
   </g>
   <g id="line2d_50">
    <defs>
     <path id="m349fcf343d" d="M 0 1.5 
C 0.397805 1.5 0.77937 1.341951 1.06066 1.06066 
C 1.341951 0.77937 1.5 0.397805 1.5 0 
C 1.5 -0.397805 1.341951 -0.77937 1.06066 -1.06066 
C 0.77937 -1.341951 0.397805 -1.5 0 -1.5 
C -0.397805 -1.5 -0.77937 -1.341951 -1.06066 -1.06066 
C -1.341951 -0.77937 -1.5 -0.397805 -1.5 0 
C -1.5 0.397805 -1.341951 0.77937 -1.06066 1.06066 
C -0.77937 1.341951 -0.397805 1.5 0 1.5 
z
" style="stroke: #c85200"/>
    </defs>
    <g clip-path="url(#pdf47a8a2e5)"/>
   </g>
   <g id="line2d_51">
    <defs>
     <path id="mec1628f375" d="M 0 1.5 
C 0.397805 1.5 0.77937 1.341951 1.06066 1.06066 
C 1.341951 0.77937 1.5 0.397805 1.5 0 
C 1.5 -0.397805 1.341951 -0.77937 1.06066 -1.06066 
C 0.77937 -1.341951 0.397805 -1.5 0 -1.5 
C -0.397805 -1.5 -0.77937 -1.341951 -1.06066 -1.06066 
C -1.341951 -0.77937 -1.5 -0.397805 -1.5 0 
C -1.5 0.397805 -1.341951 0.77937 -1.06066 1.06066 
C -0.77937 1.341951 -0.397805 1.5 0 1.5 
z
" style="stroke: #ff800e"/>
    </defs>
    <g clip-path="url(#pdf47a8a2e5)">
     <use xlink:href="#mec1628f375" x="172.46282" y="57.795559" style="fill: #ff800e; stroke: #ff800e"/>
     <use xlink:href="#mec1628f375" x="133.223745" y="47.272073" style="fill: #ff800e; stroke: #ff800e"/>
     <use xlink:href="#mec1628f375" x="114.835222" y="46.943375" style="fill: #ff800e; stroke: #ff800e"/>
     <use xlink:href="#mec1628f375" x="198.211317" y="72.913958" style="fill: #ff800e; stroke: #ff800e"/>
     <use xlink:href="#mec1628f375" x="158.769947" y="61.080634" style="fill: #ff800e; stroke: #ff800e"/>
     <use xlink:href="#mec1628f375" x="83.261591" y="54.037213" style="fill: #ff800e; stroke: #ff800e"/>
     <use xlink:href="#mec1628f375" x="147.852955" y="48.64798" style="fill: #ff800e; stroke: #ff800e"/>
     <use xlink:href="#mec1628f375" x="158.302319" y="54.398005" style="fill: #ff800e; stroke: #ff800e"/>
     <use xlink:href="#mec1628f375" x="89.533493" y="56.530479" style="fill: #ff800e; stroke: #ff800e"/>
     <use xlink:href="#mec1628f375" x="210.863071" y="68.444794" style="fill: #ff800e; stroke: #ff800e"/>
     <use xlink:href="#mec1628f375" x="225.529549" y="80.883534" style="fill: #ff800e; stroke: #ff800e"/>
     <use xlink:href="#mec1628f375" x="75.244361" y="53.95436" style="fill: #ff800e; stroke: #ff800e"/>
     <use xlink:href="#mec1628f375" x="186.605733" y="64.374081" style="fill: #ff800e; stroke: #ff800e"/>
     <use xlink:href="#mec1628f375" x="114.899116" y="64.564898" style="fill: #ff800e; stroke: #ff800e"/>
     <use xlink:href="#mec1628f375" x="225.219348" y="78.953677" style="fill: #ff800e; stroke: #ff800e"/>
     <use xlink:href="#mec1628f375" x="212.366737" y="88.420042" style="fill: #ff800e; stroke: #ff800e"/>
     <use xlink:href="#mec1628f375" x="198.828975" y="74.90509" style="fill: #ff800e; stroke: #ff800e"/>
    </g>
   </g>
   <g id="line2d_52">
    <defs>
     <path id="m756108dbf5" d="M 0 1.5 
C 0.397805 1.5 0.77937 1.341951 1.06066 1.06066 
C 1.341951 0.77937 1.5 0.397805 1.5 0 
C 1.5 -0.397805 1.341951 -0.77937 1.06066 -1.06066 
C 0.77937 -1.341951 0.397805 -1.5 0 -1.5 
C -0.397805 -1.5 -0.77937 -1.341951 -1.06066 -1.06066 
C -1.341951 -0.77937 -1.5 -0.397805 -1.5 0 
C -1.5 0.397805 -1.341951 0.77937 -1.06066 1.06066 
C -0.77937 1.341951 -0.397805 1.5 0 1.5 
z
" style="stroke: #3d4389"/>
    </defs>
    <g clip-path="url(#pdf47a8a2e5)">
     <use xlink:href="#m756108dbf5" x="194.32043" y="85.659541" style="fill: #3d4389; stroke: #3d4389"/>
     <use xlink:href="#m756108dbf5" x="229.108925" y="85.955946" style="fill: #3d4389; stroke: #3d4389"/>
     <use xlink:href="#m756108dbf5" x="166.103968" y="77.512672" style="fill: #3d4389; stroke: #3d4389"/>
     <use xlink:href="#m756108dbf5" x="141.509347" y="46.529908" style="fill: #3d4389; stroke: #3d4389"/>
     <use xlink:href="#m756108dbf5" x="151.015199" y="54.99783" style="fill: #3d4389; stroke: #3d4389"/>
     <use xlink:href="#m756108dbf5" x="194.928544" y="59.464342" style="fill: #3d4389; stroke: #3d4389"/>
     <use xlink:href="#m756108dbf5" x="240.138032" y="107.571363" style="fill: #3d4389; stroke: #3d4389"/>
     <use xlink:href="#m756108dbf5" x="158.215582" y="63.718667" style="fill: #3d4389; stroke: #3d4389"/>
     <use xlink:href="#m756108dbf5" x="182.586955" y="70.2321" style="fill: #3d4389; stroke: #3d4389"/>
     <use xlink:href="#m756108dbf5" x="194.928544" y="87.883685" style="fill: #3d4389; stroke: #3d4389"/>
     <use xlink:href="#m756108dbf5" x="240.138032" y="97.727782" style="fill: #3d4389; stroke: #3d4389"/>
     <use xlink:href="#m756108dbf5" x="249.966658" y="107.676056" style="fill: #3d4389; stroke: #3d4389"/>
     <use xlink:href="#m756108dbf5" x="263.525378" y="137.363391" style="fill: #3d4389; stroke: #3d4389"/>
     <use xlink:href="#m756108dbf5" x="294.02663" y="111.816595" style="fill: #3d4389; stroke: #3d4389"/>
     <use xlink:href="#m756108dbf5" x="133.994958" y="51.000087" style="fill: #3d4389; stroke: #3d4389"/>
     <use xlink:href="#m756108dbf5" x="151.015199" y="59.732422" style="fill: #3d4389; stroke: #3d4389"/>
     <use xlink:href="#m756108dbf5" x="151.015199" y="47.423138" style="fill: #3d4389; stroke: #3d4389"/>
     <use xlink:href="#m756108dbf5" x="207.235832" y="95.547975" style="fill: #3d4389; stroke: #3d4389"/>
     <use xlink:href="#m756108dbf5" x="263.525378" y="110.720122" style="fill: #3d4389; stroke: #3d4389"/>
     <use xlink:href="#m756108dbf5" x="110.32835" y="54.074623" style="fill: #3d4389; stroke: #3d4389"/>
    </g>
   </g>
   <g id="line2d_53">
    <defs>
     <path id="mfa42af21db" d="M 0 1.5 
C 0.397805 1.5 0.77937 1.341951 1.06066 1.06066 
C 1.341951 0.77937 1.5 0.397805 1.5 0 
C 1.5 -0.397805 1.341951 -0.77937 1.06066 -1.06066 
C 0.77937 -1.341951 0.397805 -1.5 0 -1.5 
C -0.397805 -1.5 -0.77937 -1.341951 -1.06066 -1.06066 
C -1.341951 -0.77937 -1.5 -0.397805 -1.5 0 
C -1.5 0.397805 -1.341951 0.77937 -1.06066 1.06066 
C -0.77937 1.341951 -0.397805 1.5 0 1.5 
z
" style="stroke: #ababab"/>
    </defs>
    <g clip-path="url(#pdf47a8a2e5)">
     <use xlink:href="#mfa42af21db" x="250.66869" y="88.775459" style="fill: #ababab; stroke: #ababab"/>
     <use xlink:href="#mfa42af21db" x="225.665604" y="86.332074" style="fill: #ababab; stroke: #ababab"/>
     <use xlink:href="#mfa42af21db" x="207.203108" y="59.062468" style="fill: #ababab; stroke: #ababab"/>
     <use xlink:href="#mfa42af21db" x="240.227182" y="80.324721" style="fill: #ababab; stroke: #ababab"/>
    </g>
   </g>
   <g id="line2d_54">
    <defs>
     <path id="me5252b61b8" d="M 0 1.5 
C 0.397805 1.5 0.77937 1.341951 1.06066 1.06066 
C 1.341951 0.77937 1.5 0.397805 1.5 0 
C 1.5 -0.397805 1.341951 -0.77937 1.06066 -1.06066 
C 0.77937 -1.341951 0.397805 -1.5 0 -1.5 
C -0.397805 -1.5 -0.77937 -1.341951 -1.06066 -1.06066 
C -1.341951 -0.77937 -1.5 -0.397805 -1.5 0 
C -1.5 0.397805 -1.341951 0.77937 -1.06066 1.06066 
C -0.77937 1.341951 -0.397805 1.5 0 1.5 
z
" style="stroke: #ffbc79"/>
    </defs>
    <g clip-path="url(#pdf47a8a2e5)">
     <use xlink:href="#me5252b61b8" x="262.907131" y="125.010592" style="fill: #ffbc79; stroke: #ffbc79"/>
     <use xlink:href="#me5252b61b8" x="277.514611" y="124.30959" style="fill: #ffbc79; stroke: #ffbc79"/>
     <use xlink:href="#me5252b61b8" x="244.617423" y="95.542004" style="fill: #ffbc79; stroke: #ffbc79"/>
     <use xlink:href="#me5252b61b8" x="230.022692" y="137.884478" style="fill: #ffbc79; stroke: #ffbc79"/>
     <use xlink:href="#me5252b61b8" x="252.614089" y="106.371467" style="fill: #ffbc79; stroke: #ffbc79"/>
     <use xlink:href="#me5252b61b8" x="262.895195" y="115.369912" style="fill: #ffbc79; stroke: #ffbc79"/>
    </g>
   </g>
   <g id="line2d_55">
    <defs>
     <path id="m4d1a40bb3b" d="M 0 1.5 
C 0.397805 1.5 0.77937 1.341951 1.06066 1.06066 
C 1.341951 0.77937 1.5 0.397805 1.5 0 
C 1.5 -0.397805 1.341951 -0.77937 1.06066 -1.06066 
C 0.77937 -1.341951 0.397805 -1.5 0 -1.5 
C -0.397805 -1.5 -0.77937 -1.341951 -1.06066 -1.06066 
C -1.341951 -0.77937 -1.5 -0.397805 -1.5 0 
C -1.5 0.397805 -1.341951 0.77937 -1.06066 1.06066 
C -0.77937 1.341951 -0.397805 1.5 0 1.5 
z
" style="stroke: #9467bd"/>
    </defs>
    <g clip-path="url(#pdf47a8a2e5)">
     <use xlink:href="#m4d1a40bb3b" x="256.208873" y="112.186769" style="fill: #9467bd; stroke: #9467bd"/>
    </g>
   </g>
   <g id="patch_6">
    <path d="M 51.454599 162.907534 
L 51.454599 3.844522 
" style="fill: none; stroke: #ffffff; stroke-width: 0.8; stroke-linejoin: miter; stroke-linecap: square"/>
   </g>
   <g id="patch_7">
    <path d="M 310.430051 162.907534 
L 310.430051 3.844522 
" style="fill: none; stroke: #ffffff; stroke-width: 0.8; stroke-linejoin: miter; stroke-linecap: square"/>
   </g>
   <g id="patch_8">
    <path d="M 51.454599 162.907534 
L 310.430051 162.907534 
" style="fill: none; stroke: #ffffff; stroke-width: 0.8; stroke-linejoin: miter; stroke-linecap: square"/>
   </g>
   <g id="patch_9">
    <path d="M 51.454599 3.844522 
L 310.430051 3.844522 
" style="fill: none; stroke: #ffffff; stroke-width: 0.8; stroke-linejoin: miter; stroke-linecap: square"/>
   </g>
   <g id="text_9">
    <!-- no  -->
    <g style="fill: #ffffff" transform="translate(279.649872 35.955256) rotate(-60) scale(0.1 -0.1)">
     <use xlink:href="#CMSS17-6e" transform="scale(0.996264)"/>
     <use xlink:href="#CMSS17-6f" transform="translate(48.204943 0) scale(0.996264)"/>
    </g>
    <!--  constant velocity  -->
    <g style="fill: #ffffff" transform="translate(273.497352 67.090485) rotate(-60) scale(0.1 -0.1)">
     <defs>
      <path id="CMSS17-63" d="M 2464 2541 
C 2464 2585 2170 2714 2093 2739 
C 1882 2816 1613 2816 1542 2816 
C 710 2816 211 2093 211 1363 
C 211 595 768 -64 1517 -64 
C 1946 -64 2253 76 2502 242 
L 2464 664 
C 2189 453 1869 337 1523 337 
C 1024 337 698 774 698 1369 
C 698 1831 909 2414 1549 2414 
C 1901 2414 2099 2343 2394 2145 
L 2464 2541 
z
" transform="scale(0.015625)"/>
      <path id="CMSS17-76" d="M 2675 2752 
L 2176 2752 
L 1747 1556 
C 1613 1165 1421 627 1389 352 
L 1382 352 
C 1370 468 1318 634 1286 749 
C 1248 890 1197 1056 1158 1172 
L 595 2752 
L 83 2752 
L 1094 0 
L 1664 0 
L 2675 2752 
z
" transform="scale(0.015625)"/>
      <path id="CMSS17-79" d="M 2675 2752 
L 2176 2752 
C 1632 1294 1446 702 1434 383 
L 1427 383 
C 1408 696 1126 1460 902 2007 
L 602 2752 
L 83 2752 
L 1216 13 
C 1146 -178 1043 -465 1011 -529 
C 870 -885 774 -885 672 -885 
C 646 -885 442 -885 211 -809 
L 250 -1229 
C 410 -1261 570 -1280 685 -1280 
C 845 -1280 1165 -1280 1459 -497 
L 2675 2752 
z
" transform="scale(0.015625)"/>
     </defs>
     <use xlink:href="#CMSS17-63" transform="scale(0.996264)"/>
     <use xlink:href="#CMSS17-6f" transform="translate(41.638822 0) scale(0.996264)"/>
     <use xlink:href="#CMSS17-6e" transform="translate(88.482446 0) scale(0.996264)"/>
     <use xlink:href="#CMSS17-73" transform="translate(136.687389 0) scale(0.996264)"/>
     <use xlink:href="#CMSS17-74" transform="translate(172.600931 0) scale(0.996264)"/>
     <use xlink:href="#CMSS17-61" transform="translate(206.432497 0) scale(0.996264)"/>
     <use xlink:href="#CMSS17-6e" transform="translate(251.354418 0) scale(0.996264)"/>
     <use xlink:href="#CMSS17-74" transform="translate(299.559361 0) scale(0.996264)"/>
     <use xlink:href="#CMSS17-76" transform="translate(364.620041 0) scale(0.996264)"/>
     <use xlink:href="#CMSS17-65" transform="translate(407.620182 0) scale(0.996264)"/>
     <use xlink:href="#CMSS17-6c" transform="translate(449.259004 0) scale(0.996264)"/>
     <use xlink:href="#CMSS17-6f" transform="translate(471.439727 0) scale(0.996264)"/>
     <use xlink:href="#CMSS17-63" transform="translate(520.88579 0) scale(0.996264)"/>
     <use xlink:href="#CMSS17-69" transform="translate(562.524612 0) scale(0.996264)"/>
     <use xlink:href="#CMSS17-74" transform="translate(584.705335 0) scale(0.996264)"/>
     <use xlink:href="#CMSS17-79" transform="translate(615.934447 0) scale(0.996264)"/>
    </g>
    <!--  regime -->
    <g style="fill: #ffffff" transform="translate(293.03325 53.732071) rotate(-60) scale(0.1 -0.1)">
     <use xlink:href="#CMSS17-72" transform="scale(0.996264)"/>
     <use xlink:href="#CMSS17-65" transform="translate(31.909773 0) scale(0.996264)"/>
     <use xlink:href="#CMSS17-67" transform="translate(73.548595 0) scale(0.996264)"/>
     <use xlink:href="#CMSS17-69" transform="translate(120.392218 0) scale(0.996264)"/>
     <use xlink:href="#CMSS17-6d" transform="translate(142.572941 0) scale(0.996264)"/>
     <use xlink:href="#CMSS17-65" transform="translate(216.802196 0) scale(0.996264)"/>
    </g>
   </g>
   <g id="text_10">
    <!-- negligible settling  -->
    <g style="fill: #ffffff" transform="translate(64.164661 122.848224) scale(0.1 -0.1)">
     <use xlink:href="#CMSS17-6e" transform="scale(0.996264)"/>
     <use xlink:href="#CMSS17-65" transform="translate(48.204943 0) scale(0.996264)"/>
     <use xlink:href="#CMSS17-67" transform="translate(89.843765 0) scale(0.996264)"/>
     <use xlink:href="#CMSS17-6c" transform="translate(136.687389 0) scale(0.996264)"/>
     <use xlink:href="#CMSS17-69" transform="translate(158.868112 0) scale(0.996264)"/>
     <use xlink:href="#CMSS17-67" transform="translate(181.048835 0) scale(0.996264)"/>
     <use xlink:href="#CMSS17-69" transform="translate(227.892458 0) scale(0.996264)"/>
     <use xlink:href="#CMSS17-62" transform="translate(250.073181 0) scale(0.996264)"/>
     <use xlink:href="#CMSS17-6c" transform="translate(298.278125 0) scale(0.996264)"/>
     <use xlink:href="#CMSS17-65" transform="translate(320.458848 0) scale(0.996264)"/>
     <use xlink:href="#CMSS17-73" transform="translate(393.326782 0) scale(0.996264)"/>
     <use xlink:href="#CMSS17-65" transform="translate(429.240324 0) scale(0.996264)"/>
     <use xlink:href="#CMSS17-74" transform="translate(470.879146 0) scale(0.996264)"/>
     <use xlink:href="#CMSS17-74" transform="translate(504.710713 0) scale(0.996264)"/>
     <use xlink:href="#CMSS17-6c" transform="translate(538.54228 0) scale(0.996264)"/>
     <use xlink:href="#CMSS17-69" transform="translate(560.723003 0) scale(0.996264)"/>
     <use xlink:href="#CMSS17-6e" transform="translate(582.903726 0) scale(0.996264)"/>
     <use xlink:href="#CMSS17-67" transform="translate(631.108669 0) scale(0.996264)"/>
    </g>
    <!--  (saline currents limit) -->
    <g style="fill: #ffffff" transform="translate(55.627211 133.751778) scale(0.1 -0.1)">
     <defs>
      <path id="CMSS17-28" d="M 1613 4768 
C 1267 4417 474 3601 474 1588 
C 474 -433 1267 -1243 1613 -1600 
L 2003 -1600 
C 1216 -784 960 357 960 1581 
C 960 2798 1203 3946 2003 4768 
L 1613 4768 
z
" transform="scale(0.015625)"/>
      <path id="CMSS17-29" d="M 723 -1600 
C 1069 -1249 1862 -433 1862 1581 
C 1862 3601 1069 4411 723 4768 
L 333 4768 
C 1120 3952 1376 2811 1376 1588 
C 1376 370 1133 -778 333 -1600 
L 723 -1600 
z
" transform="scale(0.015625)"/>
     </defs>
     <use xlink:href="#CMSS17-28" transform="scale(0.996264)"/>
     <use xlink:href="#CMSS17-73" transform="translate(36.433914 0) scale(0.996264)"/>
     <use xlink:href="#CMSS17-61" transform="translate(72.347456 0) scale(0.996264)"/>
     <use xlink:href="#CMSS17-6c" transform="translate(117.269377 0) scale(0.996264)"/>
     <use xlink:href="#CMSS17-69" transform="translate(139.4501 0) scale(0.996264)"/>
     <use xlink:href="#CMSS17-6e" transform="translate(161.630823 0) scale(0.996264)"/>
     <use xlink:href="#CMSS17-65" transform="translate(209.835766 0) scale(0.996264)"/>
     <use xlink:href="#CMSS17-63" transform="translate(282.703701 0) scale(0.996264)"/>
     <use xlink:href="#CMSS17-75" transform="translate(324.342523 0) scale(0.996264)"/>
     <use xlink:href="#CMSS17-72" transform="translate(372.547466 0) scale(0.996264)"/>
     <use xlink:href="#CMSS17-72" transform="translate(404.457239 0) scale(0.996264)"/>
     <use xlink:href="#CMSS17-65" transform="translate(436.367011 0) scale(0.996264)"/>
     <use xlink:href="#CMSS17-6e" transform="translate(478.005833 0) scale(0.996264)"/>
     <use xlink:href="#CMSS17-74" transform="translate(526.210776 0) scale(0.996264)"/>
     <use xlink:href="#CMSS17-73" transform="translate(560.042343 0) scale(0.996264)"/>
     <use xlink:href="#CMSS17-6c" transform="translate(627.184998 0) scale(0.996264)"/>
     <use xlink:href="#CMSS17-69" transform="translate(649.365721 0) scale(0.996264)"/>
     <use xlink:href="#CMSS17-6d" transform="translate(671.546444 0) scale(0.996264)"/>
     <use xlink:href="#CMSS17-69" transform="translate(745.775698 0) scale(0.996264)"/>
     <use xlink:href="#CMSS17-74" transform="translate(767.956421 0) scale(0.996264)"/>
     <use xlink:href="#CMSS17-29" transform="translate(801.787988 0) scale(0.996264)"/>
    </g>
   </g>
   <g id="text_11">
    <!-- settling  -->
    <g style="fill: #ffffff" transform="translate(234.755676 38.983453) rotate(-45) scale(0.1 -0.1)">
     <use xlink:href="#CMSS17-73" transform="scale(0.996264)"/>
     <use xlink:href="#CMSS17-65" transform="translate(35.913542 0) scale(0.996264)"/>
     <use xlink:href="#CMSS17-74" transform="translate(77.552364 0) scale(0.996264)"/>
     <use xlink:href="#CMSS17-74" transform="translate(111.383931 0) scale(0.996264)"/>
     <use xlink:href="#CMSS17-6c" transform="translate(145.215497 0) scale(0.996264)"/>
     <use xlink:href="#CMSS17-69" transform="translate(167.39622 0) scale(0.996264)"/>
     <use xlink:href="#CMSS17-6e" transform="translate(189.576944 0) scale(0.996264)"/>
     <use xlink:href="#CMSS17-67" transform="translate(237.781887 0) scale(0.996264)"/>
    </g>
    <!--  dominated -->
    <g style="fill: #ffffff" transform="translate(237.328911 50.890883) rotate(-45) scale(0.1 -0.1)">
     <use xlink:href="#CMSS17-64" transform="scale(0.996264)"/>
     <use xlink:href="#CMSS17-6f" transform="translate(48.204943 0) scale(0.996264)"/>
     <use xlink:href="#CMSS17-6d" transform="translate(95.048567 0) scale(0.996264)"/>
     <use xlink:href="#CMSS17-69" transform="translate(169.277821 0) scale(0.996264)"/>
     <use xlink:href="#CMSS17-6e" transform="translate(191.458544 0) scale(0.996264)"/>
     <use xlink:href="#CMSS17-61" transform="translate(239.663487 0) scale(0.996264)"/>
     <use xlink:href="#CMSS17-74" transform="translate(284.585408 0) scale(0.996264)"/>
     <use xlink:href="#CMSS17-65" transform="translate(318.416975 0) scale(0.996264)"/>
     <use xlink:href="#CMSS17-64" transform="translate(360.055797 0) scale(0.996264)"/>
    </g>
   </g>
   <g id="text_12">
    <!-- transition -->
    <g style="fill: #ffffff" transform="translate(161.683576 128.576742) scale(0.1 -0.1)">
     <use xlink:href="#CMSS17-74" transform="scale(0.996264)"/>
     <use xlink:href="#CMSS17-72" transform="translate(33.831567 0) scale(0.996264)"/>
     <use xlink:href="#CMSS17-61" transform="translate(65.741339 0) scale(0.996264)"/>
     <use xlink:href="#CMSS17-6e" transform="translate(110.66326 0) scale(0.996264)"/>
     <use xlink:href="#CMSS17-73" transform="translate(158.868203 0) scale(0.996264)"/>
     <use xlink:href="#CMSS17-69" transform="translate(194.781745 0) scale(0.996264)"/>
     <use xlink:href="#CMSS17-74" transform="translate(216.962468 0) scale(0.996264)"/>
     <use xlink:href="#CMSS17-69" transform="translate(250.794035 0) scale(0.996264)"/>
     <use xlink:href="#CMSS17-6f" transform="translate(272.974758 0) scale(0.996264)"/>
     <use xlink:href="#CMSS17-6e" transform="translate(319.818381 0) scale(0.996264)"/>
    </g>
   </g>
   <g id="legend_1">
    <g id="patch_10">
     <path d="M 317.60956 105.430232 
L 397.208865 105.430232 
Q 399.208865 105.430232 399.208865 103.430232 
L 399.208865 5.844522 
Q 399.208865 3.844522 397.208865 3.844522 
L 317.60956 3.844522 
Q 315.60956 3.844522 315.60956 5.844522 
L 315.60956 103.430232 
Q 315.60956 105.430232 317.60956 105.430232 
z
" style="fill: #191919; opacity: 0.8; stroke: #cccccc; stroke-linejoin: miter"/>
    </g>
    <g id="text_13">
     <!-- $v_{\rm s}$ [cm/s] -->
     <g style="fill: #ffffff" transform="translate(338.057457 15.316502) scale(0.1 -0.1)">
      <defs>
       <path id="CMSS17-5b" d="M 1613 -1600 
L 1613 -1212 
L 1062 -1212 
L 1062 4352 
L 1613 4352 
L 1613 4741 
L 595 4741 
L 595 -1600 
L 1613 -1600 
z
" transform="scale(0.015625)"/>
       <path id="CMSS17-2f" d="M 2637 4545 
C 2669 4627 2669 4640 2669 4653 
C 2669 4729 2611 4768 2560 4768 
C 2483 4768 2458 4717 2432 4640 
L 365 -1377 
C 333 -1460 333 -1473 333 -1486 
C 333 -1562 390 -1600 442 -1600 
C 518 -1600 544 -1549 570 -1473 
L 2637 4545 
z
" transform="scale(0.015625)"/>
       <path id="CMSS17-5d" d="M 1146 4741 
L 128 4741 
L 128 4352 
L 678 4352 
L 678 -1212 
L 128 -1212 
L 128 -1600 
L 1146 -1600 
L 1146 4741 
z
" transform="scale(0.015625)"/>
      </defs>
      <use xlink:href="#CMMI12-76" transform="scale(0.996264)"/>
      <use xlink:href="#CMR17-73" transform="translate(47.160581 -14.943915) scale(0.697382)"/>
      <use xlink:href="#CMSS17-5b" transform="translate(103.948648 0) scale(0.996264)"/>
      <use xlink:href="#CMSS17-63" transform="translate(131.134086 0) scale(0.996264)"/>
      <use xlink:href="#CMSS17-6d" transform="translate(172.772908 0) scale(0.996264)"/>
      <use xlink:href="#CMSS17-2f" transform="translate(247.002163 0) scale(0.996264)"/>
      <use xlink:href="#CMSS17-73" transform="translate(293.845786 0) scale(0.996264)"/>
      <use xlink:href="#CMSS17-5d" transform="translate(329.759328 0) scale(0.996264)"/>
     </g>
    </g>
    <g id="LineCollection_13">
     <path d="M 324.60956 26.307162 
L 334.60956 26.307162 
" style="fill: none; stroke: #c85200; stroke-width: 1.5"/>
    </g>
    <g id="LineCollection_14">
     <path d="M 329.60956 31.307162 
L 329.60956 21.307162 
" style="fill: none; stroke: #c85200; stroke-width: 1.5"/>
    </g>
    <g id="line2d_56"/>
    <g id="line2d_57">
     <g>
      <use xlink:href="#m349fcf343d" x="329.60956" y="26.307162" style="fill: #c85200; stroke: #c85200"/>
     </g>
    </g>
    <g id="text_14">
     <!-- Saline -->
     <g style="fill: #ffffff" transform="translate(347.60956 29.807162) scale(0.1 -0.1)">
      <use xlink:href="#CMSS17-53" transform="scale(0.996264)"/>
      <use xlink:href="#CMSS17-61" transform="translate(52.048516 0) scale(0.996264)"/>
      <use xlink:href="#CMSS17-6c" transform="translate(96.970437 0) scale(0.996264)"/>
      <use xlink:href="#CMSS17-69" transform="translate(119.15116 0) scale(0.996264)"/>
      <use xlink:href="#CMSS17-6e" transform="translate(141.331883 0) scale(0.996264)"/>
      <use xlink:href="#CMSS17-65" transform="translate(189.536826 0) scale(0.996264)"/>
     </g>
    </g>
    <g id="LineCollection_15">
     <path d="M 324.60956 40.24434 
L 334.60956 40.24434 
" style="fill: none; stroke: #ff800e; stroke-width: 1.5"/>
    </g>
    <g id="LineCollection_16">
     <path d="M 329.60956 45.24434 
L 329.60956 35.24434 
" style="fill: none; stroke: #ff800e; stroke-width: 1.5"/>
    </g>
    <g id="line2d_58"/>
    <g id="line2d_59">
     <g>
      <use xlink:href="#mec1628f375" x="329.60956" y="40.24434" style="fill: #ff800e; stroke: #ff800e"/>
     </g>
    </g>
    <g id="text_15">
     <!-- $0.32 \pm 0.12$ -->
     <g style="fill: #ffffff" transform="translate(347.60956 43.74434) scale(0.1 -0.1)">
      <defs>
       <path id="CMMI12-3a" d="M 1178 307 
C 1178 492 1024 619 870 619 
C 685 619 557 466 557 313 
C 557 128 710 0 864 0 
C 1050 0 1178 153 1178 307 
z
" transform="scale(0.015625)"/>
       <path id="CMSY10-6" d="M 2618 1984 
L 4397 1984 
C 4506 1984 4621 1984 4621 2112 
C 4621 2240 4506 2240 4397 2240 
L 2618 2240 
L 2618 4018 
C 2618 4121 2618 4256 2490 4256 
C 2362 4256 2362 4140 2362 4038 
L 2362 2240 
L 576 2240 
C 467 2240 352 2240 352 2112 
C 352 1984 467 1984 576 1984 
L 2362 1984 
L 2362 256 
L 576 256 
C 467 256 352 256 352 128 
C 352 0 467 0 576 0 
L 4397 0 
C 4506 0 4621 0 4621 128 
C 4621 256 4506 256 4397 256 
L 2618 256 
L 2618 1984 
z
" transform="scale(0.015625)"/>
      </defs>
      <use xlink:href="#CMR17-30" transform="scale(0.996264)"/>
      <use xlink:href="#CMMI12-3a" transform="translate(45.690477 0) scale(0.996264)"/>
      <use xlink:href="#CMR17-33" transform="translate(72.787654 0) scale(0.996264)"/>
      <use xlink:href="#CMR17-32" transform="translate(118.478131 0) scale(0.996264)"/>
      <use xlink:href="#CMSY10-6" transform="translate(186.307815 0) scale(0.996264)"/>
      <use xlink:href="#CMR17-30" transform="translate(285.93449 0) scale(0.996264)"/>
      <use xlink:href="#CMMI12-3a" transform="translate(331.624967 0) scale(0.996264)"/>
      <use xlink:href="#CMR17-31" transform="translate(358.722144 0) scale(0.996264)"/>
      <use xlink:href="#CMR17-32" transform="translate(404.412621 0) scale(0.996264)"/>
     </g>
    </g>
    <g id="LineCollection_17">
     <path d="M 324.60956 54.181519 
L 334.60956 54.181519 
" style="fill: none; stroke: #3d4389; stroke-width: 1.5"/>
    </g>
    <g id="LineCollection_18">
     <path d="M 329.60956 59.181519 
L 329.60956 49.181519 
" style="fill: none; stroke: #3d4389; stroke-width: 1.5"/>
    </g>
    <g id="line2d_60"/>
    <g id="line2d_61">
     <g>
      <use xlink:href="#m756108dbf5" x="329.60956" y="54.181519" style="fill: #3d4389; stroke: #3d4389"/>
     </g>
    </g>
    <g id="text_16">
     <!-- $0.74 \pm 0.25$ -->
     <g style="fill: #ffffff" transform="translate(347.60956 57.681519) scale(0.1 -0.1)">
      <defs>
       <path id="CMR17-37" d="M 2886 3941 
L 2886 4081 
L 1382 4081 
C 634 4081 621 4165 595 4288 
L 480 4288 
L 294 3094 
L 410 3094 
C 429 3215 474 3540 550 3661 
C 589 3712 1062 3712 1171 3712 
L 2579 3712 
L 1869 2661 
C 1395 1954 1069 999 1069 165 
C 1069 89 1069 -128 1299 -128 
C 1530 -128 1530 89 1530 171 
L 1530 465 
C 1530 1508 1709 2196 2003 2636 
L 2886 3941 
z
" transform="scale(0.015625)"/>
       <path id="CMR17-35" d="M 730 3692 
C 794 3666 1056 3584 1325 3584 
C 1920 3584 2246 3911 2432 4100 
C 2432 4157 2432 4192 2394 4192 
C 2387 4192 2374 4192 2323 4163 
C 2099 4058 1837 3973 1517 3973 
C 1325 3973 1037 3999 723 4139 
C 653 4171 640 4171 634 4171 
C 602 4171 595 4164 595 4037 
L 595 2203 
C 595 2089 595 2057 659 2057 
C 691 2057 704 2070 736 2114 
C 941 2401 1222 2522 1542 2522 
C 1766 2522 2246 2382 2246 1289 
C 2246 1085 2246 715 2054 421 
C 1894 159 1645 25 1370 25 
C 947 25 518 320 403 814 
C 429 807 480 795 506 795 
C 589 795 749 840 749 1038 
C 749 1210 627 1280 506 1280 
C 358 1280 262 1190 262 1011 
C 262 454 704 -128 1382 -128 
C 2042 -128 2669 440 2669 1264 
C 2669 2030 2170 2624 1549 2624 
C 1222 2624 947 2503 730 2274 
L 730 3692 
z
" transform="scale(0.015625)"/>
      </defs>
      <use xlink:href="#CMR17-30" transform="scale(0.996264)"/>
      <use xlink:href="#CMMI12-3a" transform="translate(45.690477 0) scale(0.996264)"/>
      <use xlink:href="#CMR17-37" transform="translate(72.787654 0) scale(0.996264)"/>
      <use xlink:href="#CMR17-34" transform="translate(118.478131 0) scale(0.996264)"/>
      <use xlink:href="#CMSY10-6" transform="translate(186.307815 0) scale(0.996264)"/>
      <use xlink:href="#CMR17-30" transform="translate(285.93449 0) scale(0.996264)"/>
      <use xlink:href="#CMMI12-3a" transform="translate(331.624967 0) scale(0.996264)"/>
      <use xlink:href="#CMR17-32" transform="translate(358.722144 0) scale(0.996264)"/>
      <use xlink:href="#CMR17-35" transform="translate(404.412621 0) scale(0.996264)"/>
     </g>
    </g>
    <g id="LineCollection_19">
     <path d="M 324.60956 68.118697 
L 334.60956 68.118697 
" style="fill: none; stroke: #ababab; stroke-width: 1.5"/>
    </g>
    <g id="LineCollection_20">
     <path d="M 329.60956 73.118697 
L 329.60956 63.118697 
" style="fill: none; stroke: #ababab; stroke-width: 1.5"/>
    </g>
    <g id="line2d_62"/>
    <g id="line2d_63">
     <g>
      <use xlink:href="#mfa42af21db" x="329.60956" y="68.118697" style="fill: #ababab; stroke: #ababab"/>
     </g>
    </g>
    <g id="text_17">
     <!-- $1.1 \pm 0.5$ -->
     <g style="fill: #ffffff" transform="translate(347.60956 71.618697) scale(0.1 -0.1)">
      <use xlink:href="#CMR17-31" transform="scale(0.996264)"/>
      <use xlink:href="#CMMI12-3a" transform="translate(45.690477 0) scale(0.996264)"/>
      <use xlink:href="#CMR17-31" transform="translate(72.787654 0) scale(0.996264)"/>
      <use xlink:href="#CMSY10-6" transform="translate(140.617338 0) scale(0.996264)"/>
      <use xlink:href="#CMR17-30" transform="translate(240.244013 0) scale(0.996264)"/>
      <use xlink:href="#CMMI12-3a" transform="translate(285.93449 0) scale(0.996264)"/>
      <use xlink:href="#CMR17-35" transform="translate(313.031667 0) scale(0.996264)"/>
     </g>
    </g>
    <g id="LineCollection_21">
     <path d="M 324.60956 82.055875 
L 334.60956 82.055875 
" style="fill: none; stroke: #ffbc79; stroke-width: 1.5"/>
    </g>
    <g id="LineCollection_22">
     <path d="M 329.60956 87.055875 
L 329.60956 77.055875 
" style="fill: none; stroke: #ffbc79; stroke-width: 1.5"/>
    </g>
    <g id="line2d_64"/>
    <g id="line2d_65">
     <g>
      <use xlink:href="#me5252b61b8" x="329.60956" y="82.055875" style="fill: #ffbc79; stroke: #ffbc79"/>
     </g>
    </g>
    <g id="text_18">
     <!-- $1.9 \pm 0.8$ -->
     <g style="fill: #ffffff" transform="translate(347.60956 85.555875) scale(0.1 -0.1)">
      <defs>
       <path id="CMR17-39" d="M 2253 1864 
C 2253 464 1670 31 1190 31 
C 1043 31 685 31 538 294 
C 704 268 826 357 826 518 
C 826 692 685 749 595 749 
C 538 749 365 723 365 506 
C 365 71 742 -128 1203 -128 
C 1939 -128 2688 674 2688 2073 
C 2688 3817 1971 4179 1485 4179 
C 851 4179 243 3628 243 2778 
C 243 1991 762 1408 1414 1408 
C 1952 1408 2189 1903 2253 2112 
L 2253 1864 
z
M 1427 1510 
C 1254 1510 1011 1542 813 1922 
C 678 2169 678 2461 678 2771 
C 678 3146 678 3405 858 3684 
C 947 3817 1114 4032 1485 4032 
C 2240 4032 2240 2885 2240 2632 
C 2240 2182 2035 1510 1427 1510 
z
" transform="scale(0.015625)"/>
       <path id="CMR17-38" d="M 1741 2264 
C 2144 2467 2554 2773 2554 3263 
C 2554 3841 1990 4179 1472 4179 
C 890 4179 378 3759 378 3180 
C 378 3021 416 2747 666 2505 
C 730 2442 998 2251 1171 2130 
C 883 1983 211 1634 211 934 
C 211 279 838 -128 1459 -128 
C 2144 -128 2720 362 2720 1010 
C 2720 1590 2330 1857 2074 2029 
L 1741 2264 
z
M 902 2822 
C 851 2854 595 3051 595 3351 
C 595 3739 998 4032 1459 4032 
C 1965 4032 2336 3676 2336 3262 
C 2336 2669 1670 2331 1638 2331 
C 1632 2331 1626 2331 1574 2370 
L 902 2822 
z
M 2080 1519 
C 2176 1449 2483 1240 2483 851 
C 2483 381 2010 25 1472 25 
C 890 25 448 438 448 940 
C 448 1443 838 1862 1280 2060 
L 2080 1519 
z
" transform="scale(0.015625)"/>
      </defs>
      <use xlink:href="#CMR17-31" transform="scale(0.996264)"/>
      <use xlink:href="#CMMI12-3a" transform="translate(45.690477 0) scale(0.996264)"/>
      <use xlink:href="#CMR17-39" transform="translate(72.787654 0) scale(0.996264)"/>
      <use xlink:href="#CMSY10-6" transform="translate(140.617338 0) scale(0.996264)"/>
      <use xlink:href="#CMR17-30" transform="translate(240.244013 0) scale(0.996264)"/>
      <use xlink:href="#CMMI12-3a" transform="translate(285.93449 0) scale(0.996264)"/>
      <use xlink:href="#CMR17-38" transform="translate(313.031667 0) scale(0.996264)"/>
     </g>
    </g>
    <g id="LineCollection_23">
     <path d="M 324.60956 95.993054 
L 334.60956 95.993054 
" style="fill: none; stroke: #9467bd; stroke-width: 1.5"/>
    </g>
    <g id="LineCollection_24">
     <path d="M 329.60956 100.993054 
L 329.60956 90.993054 
" style="fill: none; stroke: #9467bd; stroke-width: 1.5"/>
    </g>
    <g id="line2d_66"/>
    <g id="line2d_67">
     <g>
      <use xlink:href="#m4d1a40bb3b" x="329.60956" y="95.993054" style="fill: #9467bd; stroke: #9467bd"/>
     </g>
    </g>
    <g id="text_19">
     <!-- $3.2 \pm 1.5$ -->
     <g style="fill: #ffffff" transform="translate(347.60956 99.493054) scale(0.1 -0.1)">
      <use xlink:href="#CMR17-33" transform="scale(0.996264)"/>
      <use xlink:href="#CMMI12-3a" transform="translate(45.690477 0) scale(0.996264)"/>
      <use xlink:href="#CMR17-32" transform="translate(72.787654 0) scale(0.996264)"/>
      <use xlink:href="#CMSY10-6" transform="translate(140.617338 0) scale(0.996264)"/>
      <use xlink:href="#CMR17-31" transform="translate(240.244013 0) scale(0.996264)"/>
      <use xlink:href="#CMMI12-3a" transform="translate(285.93449 0) scale(0.996264)"/>
      <use xlink:href="#CMR17-35" transform="translate(313.031667 0) scale(0.996264)"/>
     </g>
    </g>
   </g>
   <g id="legend_2">
    <g id="patch_11">
     <path d="M 317.60956 162.907534 
L 416.080175 162.907534 
Q 418.080175 162.907534 418.080175 160.907534 
L 418.080175 117.407437 
Q 418.080175 115.407437 416.080175 115.407437 
L 317.60956 115.407437 
Q 315.60956 115.407437 315.60956 117.407437 
L 315.60956 160.907534 
Q 315.60956 162.907534 317.60956 162.907534 
z
" style="fill: #191919; opacity: 0.8; stroke: #cccccc; stroke-linejoin: miter"/>
    </g>
    <g id="line2d_68">
     <path d="M 319.60956 122.907437 
L 329.60956 122.907437 
L 339.60956 122.907437 
" style="fill: none; stroke-dasharray: 3.7,1.6; stroke-dashoffset: 0; stroke: #ffffff"/>
    </g>
    <g id="text_20">
     <!-- $\tau = 30$ -->
     <g style="fill: #ffffff" transform="translate(347.60956 126.407437) scale(0.1 -0.1)">
      <use xlink:href="#CMMI12-1c" transform="scale(0.996264)"/>
      <use xlink:href="#CMR17-3d" transform="translate(81.165174 0) scale(0.996264)"/>
      <use xlink:href="#CMR17-33" transform="translate(180.553971 0) scale(0.996264)"/>
      <use xlink:href="#CMR17-30" transform="translate(226.244448 0) scale(0.996264)"/>
     </g>
    </g>
    <g id="line2d_69">
     <path d="M 319.60956 137.316595 
L 329.60956 137.316595 
L 339.60956 137.316595 
" style="fill: none; stroke-dasharray: 1,1.65; stroke-dashoffset: 0; stroke: #ffffff"/>
    </g>
    <g id="text_21">
     <!-- $S/a = 0.07$ -->
     <g style="fill: #ffffff" transform="translate(347.60956 140.816595) scale(0.1 -0.1)">
      <defs>
       <path id="CMMI12-53" d="M 4064 4423 
C 4064 4480 4019 4480 4006 4480 
C 3981 4480 3974 4474 3898 4378 
C 3859 4333 3597 4001 3590 3995 
C 3379 4410 2957 4480 2688 4480 
C 1875 4480 1139 3743 1139 3025 
C 1139 2549 1427 2269 1741 2161 
C 1811 2135 2189 2033 2381 1989 
C 2707 1900 2790 1875 2925 1735 
C 2950 1703 3078 1557 3078 1258 
C 3078 667 2528 57 1888 57 
C 1363 57 781 280 781 991 
C 781 1112 806 1265 826 1328 
C 826 1348 832 1378 832 1391 
C 832 1417 819 1449 768 1449 
C 710 1449 704 1436 678 1328 
L 352 24 
C 352 18 326 -64 326 -71 
C 326 -128 378 -128 390 -128 
C 416 -128 422 -122 499 -26 
L 794 356 
C 947 126 1280 -128 1875 -128 
C 2701 -128 3456 666 3456 1460 
C 3456 1728 3392 1963 3149 2197 
C 3014 2331 2899 2363 2310 2516 
C 1882 2630 1824 2649 1709 2751 
C 1600 2858 1517 3011 1517 3227 
C 1517 3761 2061 4308 2669 4308 
C 3296 4308 3590 3926 3590 3323 
C 3590 3158 3558 2986 3558 2961 
C 3558 2903 3610 2903 3629 2903 
C 3686 2903 3693 2922 3718 3024 
L 4064 4423 
z
" transform="scale(0.015625)"/>
      </defs>
      <use xlink:href="#CMMI12-53" transform="scale(0.996264)"/>
      <use xlink:href="#CMMI12-3d" transform="translate(60.375004 0) scale(0.996264)"/>
      <use xlink:href="#CMMI12-61" transform="translate(109.149922 0) scale(0.996264)"/>
      <use xlink:href="#CMR17-3d" transform="translate(188.031789 0) scale(0.996264)"/>
      <use xlink:href="#CMR17-30" transform="translate(287.420586 0) scale(0.996264)"/>
      <use xlink:href="#CMMI12-3a" transform="translate(333.111063 0) scale(0.996264)"/>
      <use xlink:href="#CMR17-30" transform="translate(360.20824 0) scale(0.996264)"/>
      <use xlink:href="#CMR17-37" transform="translate(405.898717 0) scale(0.996264)"/>
     </g>
    </g>
    <g id="line2d_70">
     <path d="M 319.60956 152.916874 
L 329.60956 152.916874 
L 339.60956 152.916874 
" style="fill: none; stroke-dasharray: 6.4,1.6,1,1.6; stroke-dashoffset: 0; stroke: #ffffff"/>
    </g>
    <g id="text_22">
     <!-- $\tau = 0.8(\mathcal{S}/a)^{-1}$ -->
     <g style="fill: #ffffff" transform="translate(347.60956 156.416874) scale(0.1 -0.1)">
      <use xlink:href="#CMMI12-1c" transform="scale(0.996264)"/>
      <use xlink:href="#CMR17-3d" transform="translate(81.165174 0) scale(0.996264)"/>
      <use xlink:href="#CMR17-30" transform="translate(180.553971 0) scale(0.996264)"/>
      <use xlink:href="#CMMI12-3a" transform="translate(226.244448 0) scale(0.996264)"/>
      <use xlink:href="#CMR17-38" transform="translate(253.341625 0) scale(0.996264)"/>
      <use xlink:href="#CMR17-28" transform="translate(299.032103 0) scale(0.996264)"/>
      <use xlink:href="#CMSY10-53" transform="translate(334.31287 0) scale(0.996264)"/>
      <use xlink:href="#CMMI12-3d" transform="translate(402.113945 0) scale(0.996264)"/>
      <use xlink:href="#CMMI12-61" transform="translate(450.888863 0) scale(0.996264)"/>
      <use xlink:href="#CMR17-29" transform="translate(502.096721 0) scale(0.996264)"/>
      <use xlink:href="#CMSY10-0" transform="translate(537.377489 36.153639) scale(0.697382)"/>
      <use xlink:href="#CMR17-31" transform="translate(591.618482 36.153639) scale(0.697382)"/>
     </g>
    </g>
   </g>
  </g>
 </g>
 <defs>
  <clipPath id="pdf47a8a2e5">
   <rect x="51.454599" y="3.844522" width="258.975452" height="159.063012"/>
  </clipPath>
 </defs>
</svg>
