<?xml version="1.0" encoding="utf-8" standalone="no"?>
<!DOCTYPE svg PUBLIC "-//W3C//DTD SVG 1.1//EN"
  "http://www.w3.org/Graphics/SVG/1.1/DTD/svg11.dtd">
<svg xmlns:xlink="http://www.w3.org/1999/xlink" width="421.080404pt" height="186.025249pt" viewBox="0 0 421.080404 186.025249" xmlns="http://www.w3.org/2000/svg" version="1.1">
 <metadata>
  <rdf:RDF xmlns:dc="http://purl.org/dc/elements/1.1/" xmlns:cc="http://creativecommons.org/ns#" xmlns:rdf="http://www.w3.org/1999/02/22-rdf-syntax-ns#">
   <cc:Work>
    <dc:type rdf:resource="http://purl.org/dc/dcmitype/StillImage"/>
    <dc:date>2023-06-22T18:02:17.526782</dc:date>
    <dc:format>image/svg+xml</dc:format>
    <dc:creator>
     <cc:Agent>
      <dc:title>Matplotlib v3.7.1, https://matplotlib.org/</dc:title>
     </cc:Agent>
    </dc:creator>
   </cc:Work>
  </rdf:RDF>
 </metadata>
 <defs>
  <style type="text/css">*{stroke-linejoin: round; stroke-linecap: butt}</style>
 </defs>
 <g id="figure_1">
  <g id="patch_1">
   <path d="M 0 186.025249 
L 421.080404 186.025249 
L 421.080404 0 
L 0 0 
z
" style="fill: #191919"/>
  </g>
  <g id="axes_1">
   <g id="patch_2">
    <path d="M 34.396788 156.706693 
L 320.621149 156.706693 
L 320.621149 3.00024 
L 34.396788 3.00024 
z
" style="fill: #191919"/>
   </g>
   <g id="line2d_1">
    <path d="M -1 158.022313 
L -0.370059 157.72466 
L 4.689045 155.334184 
L 9.74815 152.943708 
L 14.807255 150.553231 
L 19.86636 148.162755 
L 24.925465 145.772279 
L 29.98457 143.381802 
L 35.043675 140.991326 
L 40.102779 138.60085 
L 45.161884 136.210373 
L 50.220989 133.819897 
L 55.280094 131.42942 
L 60.339199 129.038944 
L 65.398304 126.648468 
L 70.457409 124.257991 
L 75.516514 121.867515 
L 80.575618 119.477039 
L 85.634723 117.086562 
L 90.693828 114.696086 
L 95.752933 112.30561 
L 100.812038 109.915133 
L 105.871143 107.524657 
L 110.930248 105.134181 
L 115.989352 102.743704 
L 121.048457 100.353228 
L 126.107562 97.962752 
L 131.166667 95.572275 
L 136.225772 93.181799 
L 141.284877 90.791323 
L 146.343982 88.400846 
L 151.403087 86.01037 
L 156.462191 83.619894 
L 161.521296 81.229417 
L 166.580401 78.838941 
L 171.639506 76.448464 
L 176.698611 74.057988 
L 181.757716 71.667512 
L 186.816821 69.277035 
L 191.875925 66.886559 
L 196.93503 64.496083 
L 201.994135 62.105606 
L 207.05324 59.71513 
L 212.112345 57.324654 
L 217.17145 54.934177 
L 222.230555 52.543701 
L 227.28966 50.153225 
L 232.348764 47.762748 
L 237.407869 45.372272 
L 242.466974 42.981796 
L 247.526079 40.591319 
L 252.585184 38.200843 
L 257.644289 35.810367 
L 262.703394 33.41989 
L 267.762498 31.029414 
L 272.821603 28.638937 
L 277.880708 26.248461 
L 282.939813 23.857985 
L 287.998918 21.467508 
L 293.058023 19.077032 
L 298.117128 16.686556 
L 303.176233 14.296079 
L 308.235337 11.905603 
L 313.294442 9.515127 
L 318.353547 7.12465 
L 323.412652 4.734174 
L 328.471757 2.343698 
L 333.530862 -0.046779 
L 335.54822 -1 
" clip-path="url(#p4ccf109e6a)" style="fill: none; stroke-dasharray: 3.7,1.6; stroke-dashoffset: 0; stroke: #ffffff"/>
   </g>
   <g id="matplotlib.axis_1">
    <g id="xtick_1">
     <g id="line2d_2">
      <defs>
       <path id="m1412068883" d="M 0 0 
L 0 -2.5 
" style="stroke: #ffffff; stroke-width: 0.8"/>
      </defs>
      <g>
       <use xlink:href="#m1412068883" x="55.500055" y="156.706693" style="fill: #ffffff; stroke: #ffffff; stroke-width: 0.8"/>
      </g>
     </g>
     <g id="line2d_3">
      <defs>
       <path id="mc45413f4eb" d="M 0 0 
L 0 2.5 
" style="stroke: #ffffff; stroke-width: 0.8"/>
      </defs>
      <g>
       <use xlink:href="#mc45413f4eb" x="55.500055" y="3.00024" style="fill: #ffffff; stroke: #ffffff; stroke-width: 0.8"/>
      </g>
     </g>
     <g id="text_1">
      <!-- $\mathdefault{10^{-1}}$ -->
      <g style="fill: #ffffff" transform="translate(45.419768 167.125191) scale(0.1 -0.1)">
       <defs>
        <path id="CMR17-31" d="M 1702 4058 
C 1702 4192 1696 4192 1606 4192 
C 1357 3916 979 3827 621 3827 
C 602 3827 570 3827 563 3808 
C 557 3795 557 3782 557 3648 
C 755 3648 1088 3686 1344 3839 
L 1344 461 
C 1344 236 1331 160 781 160 
L 589 160 
L 589 0 
C 896 0 1216 0 1523 0 
C 1830 0 2150 0 2458 0 
L 2458 160 
L 2266 160 
C 1715 160 1702 230 1702 458 
L 1702 4058 
z
" transform="scale(0.015625)"/>
        <path id="CMR17-30" d="M 2688 2025 
C 2688 2416 2682 3080 2413 3591 
C 2176 4039 1798 4198 1466 4198 
C 1158 4198 768 4058 525 3597 
C 269 3118 243 2524 243 2025 
C 243 1661 250 1106 448 619 
C 723 -39 1216 -128 1466 -128 
C 1760 -128 2208 -7 2470 600 
C 2662 1042 2688 1559 2688 2025 
z
M 1466 -26 
C 1056 -26 813 325 723 812 
C 653 1188 653 1738 653 2096 
C 653 2588 653 2997 736 3387 
C 858 3929 1216 4096 1466 4096 
C 1728 4096 2067 3923 2189 3400 
C 2272 3036 2278 2607 2278 2096 
C 2278 1680 2278 1169 2202 792 
C 2067 95 1690 -26 1466 -26 
z
" transform="scale(0.015625)"/>
        <path id="CMSY10-0" d="M 4218 1472 
C 4326 1472 4442 1472 4442 1600 
C 4442 1728 4326 1728 4218 1728 
L 755 1728 
C 646 1728 531 1728 531 1600 
C 531 1472 646 1472 755 1472 
L 4218 1472 
z
" transform="scale(0.015625)"/>
       </defs>
       <use xlink:href="#CMR17-31" transform="scale(0.996264)"/>
       <use xlink:href="#CMR17-30" transform="translate(45.690477 0) scale(0.996264)"/>
       <use xlink:href="#CMSY10-0" transform="translate(91.380954 36.153639) scale(0.697382)"/>
       <use xlink:href="#CMR17-31" transform="translate(145.621947 36.153639) scale(0.697382)"/>
      </g>
     </g>
    </g>
    <g id="xtick_2">
     <g id="line2d_4">
      <g>
       <use xlink:href="#m1412068883" x="273.261525" y="156.706693" style="fill: #ffffff; stroke: #ffffff; stroke-width: 0.8"/>
      </g>
     </g>
     <g id="line2d_5">
      <g>
       <use xlink:href="#mc45413f4eb" x="273.261525" y="3.00024" style="fill: #ffffff; stroke: #ffffff; stroke-width: 0.8"/>
      </g>
     </g>
     <g id="text_2">
      <!-- $\mathdefault{10^{0}}$ -->
      <g style="fill: #ffffff" transform="translate(266.294571 167.125191) scale(0.1 -0.1)">
       <use xlink:href="#CMR17-31" transform="scale(0.996264)"/>
       <use xlink:href="#CMR17-30" transform="translate(45.690477 0) scale(0.996264)"/>
       <use xlink:href="#CMR17-30" transform="translate(91.380954 36.153639) scale(0.697382)"/>
      </g>
     </g>
    </g>
    <g id="xtick_3">
     <g id="line2d_6">
      <defs>
       <path id="m9dec4fa182" d="M 0 0 
L 0 -2 
" style="stroke: #ffffff; stroke-width: 0.6"/>
      </defs>
      <g>
       <use xlink:href="#m9dec4fa182" x="34.396788" y="156.706693" style="fill: #ffffff; stroke: #ffffff; stroke-width: 0.6"/>
      </g>
     </g>
     <g id="line2d_7">
      <defs>
       <path id="mde8dbd0f25" d="M 0 0 
L 0 2 
" style="stroke: #ffffff; stroke-width: 0.6"/>
      </defs>
      <g>
       <use xlink:href="#mde8dbd0f25" x="34.396788" y="3.00024" style="fill: #ffffff; stroke: #ffffff; stroke-width: 0.6"/>
      </g>
     </g>
    </g>
    <g id="xtick_4">
     <g id="line2d_8">
      <g>
       <use xlink:href="#m9dec4fa182" x="45.535837" y="156.706693" style="fill: #ffffff; stroke: #ffffff; stroke-width: 0.6"/>
      </g>
     </g>
     <g id="line2d_9">
      <g>
       <use xlink:href="#mde8dbd0f25" x="45.535837" y="3.00024" style="fill: #ffffff; stroke: #ffffff; stroke-width: 0.6"/>
      </g>
     </g>
    </g>
    <g id="xtick_5">
     <g id="line2d_10">
      <g>
       <use xlink:href="#m9dec4fa182" x="121.05279" y="156.706693" style="fill: #ffffff; stroke: #ffffff; stroke-width: 0.6"/>
      </g>
     </g>
     <g id="line2d_11">
      <g>
       <use xlink:href="#mde8dbd0f25" x="121.05279" y="3.00024" style="fill: #ffffff; stroke: #ffffff; stroke-width: 0.6"/>
      </g>
     </g>
    </g>
    <g id="xtick_6">
     <g id="line2d_12">
      <g>
       <use xlink:href="#m9dec4fa182" x="159.398681" y="156.706693" style="fill: #ffffff; stroke: #ffffff; stroke-width: 0.6"/>
      </g>
     </g>
     <g id="line2d_13">
      <g>
       <use xlink:href="#mde8dbd0f25" x="159.398681" y="3.00024" style="fill: #ffffff; stroke: #ffffff; stroke-width: 0.6"/>
      </g>
     </g>
    </g>
    <g id="xtick_7">
     <g id="line2d_14">
      <g>
       <use xlink:href="#m9dec4fa182" x="186.605524" y="156.706693" style="fill: #ffffff; stroke: #ffffff; stroke-width: 0.6"/>
      </g>
     </g>
     <g id="line2d_15">
      <g>
       <use xlink:href="#mde8dbd0f25" x="186.605524" y="3.00024" style="fill: #ffffff; stroke: #ffffff; stroke-width: 0.6"/>
      </g>
     </g>
    </g>
    <g id="xtick_8">
     <g id="line2d_16">
      <g>
       <use xlink:href="#m9dec4fa182" x="207.708791" y="156.706693" style="fill: #ffffff; stroke: #ffffff; stroke-width: 0.6"/>
      </g>
     </g>
     <g id="line2d_17">
      <g>
       <use xlink:href="#mde8dbd0f25" x="207.708791" y="3.00024" style="fill: #ffffff; stroke: #ffffff; stroke-width: 0.6"/>
      </g>
     </g>
    </g>
    <g id="xtick_9">
     <g id="line2d_18">
      <g>
       <use xlink:href="#m9dec4fa182" x="224.951416" y="156.706693" style="fill: #ffffff; stroke: #ffffff; stroke-width: 0.6"/>
      </g>
     </g>
     <g id="line2d_19">
      <g>
       <use xlink:href="#mde8dbd0f25" x="224.951416" y="3.00024" style="fill: #ffffff; stroke: #ffffff; stroke-width: 0.6"/>
      </g>
     </g>
    </g>
    <g id="xtick_10">
     <g id="line2d_20">
      <g>
       <use xlink:href="#m9dec4fa182" x="239.529847" y="156.706693" style="fill: #ffffff; stroke: #ffffff; stroke-width: 0.6"/>
      </g>
     </g>
     <g id="line2d_21">
      <g>
       <use xlink:href="#mde8dbd0f25" x="239.529847" y="3.00024" style="fill: #ffffff; stroke: #ffffff; stroke-width: 0.6"/>
      </g>
     </g>
    </g>
    <g id="xtick_11">
     <g id="line2d_22">
      <g>
       <use xlink:href="#m9dec4fa182" x="252.158259" y="156.706693" style="fill: #ffffff; stroke: #ffffff; stroke-width: 0.6"/>
      </g>
     </g>
     <g id="line2d_23">
      <g>
       <use xlink:href="#mde8dbd0f25" x="252.158259" y="3.00024" style="fill: #ffffff; stroke: #ffffff; stroke-width: 0.6"/>
      </g>
     </g>
    </g>
    <g id="xtick_12">
     <g id="line2d_24">
      <g>
       <use xlink:href="#m9dec4fa182" x="263.297307" y="156.706693" style="fill: #ffffff; stroke: #ffffff; stroke-width: 0.6"/>
      </g>
     </g>
     <g id="line2d_25">
      <g>
       <use xlink:href="#mde8dbd0f25" x="263.297307" y="3.00024" style="fill: #ffffff; stroke: #ffffff; stroke-width: 0.6"/>
      </g>
     </g>
    </g>
    <g id="text_3">
     <!-- Time scale, $t_{0} = L_{0}/u_{0}$ [s] -->
     <g style="fill: #ffffff" transform="translate(121.806955 180.534349) scale(0.1 -0.1)">
      <defs>
       <path id="CMSS17-54" d="M 2317 3968 
L 2848 3968 
C 2925 3968 3002 3968 3078 3968 
L 3878 3968 
L 3878 4376 
L 218 4376 
L 218 3968 
L 1018 3968 
C 1094 3968 1171 3968 1248 3968 
L 1779 3968 
L 1779 -32 
L 2317 -32 
L 2317 3968 
z
" transform="scale(0.015625)"/>
       <path id="CMSS17-69" d="M 979 4183 
L 442 4183 
L 442 3648 
L 979 3648 
L 979 4183 
z
M 947 2739 
L 474 2739 
L 474 0 
L 947 0 
L 947 2739 
z
" transform="scale(0.015625)"/>
       <path id="CMSS17-6d" d="M 4288 1877 
C 4288 2308 4179 2816 3462 2816 
C 2982 2816 2694 2516 2566 2331 
C 2451 2670 2182 2816 1798 2816 
C 1363 2816 1088 2568 941 2389 
L 941 2758 
L 474 2758 
L 474 0 
L 960 0 
L 960 1559 
C 960 1939 1101 2428 1555 2428 
C 2138 2428 2138 2016 2138 1829 
L 2138 0 
L 2624 0 
L 2624 1559 
C 2624 1939 2765 2428 3219 2428 
C 3802 2428 3802 2016 3802 1829 
L 3802 0 
L 4288 0 
L 4288 1877 
z
" transform="scale(0.015625)"/>
       <path id="CMSS17-65" d="M 2502 1377 
C 2502 1590 2490 2003 2285 2345 
C 2061 2713 1696 2816 1421 2816 
C 755 2816 192 2188 192 1375 
C 192 582 774 -64 1510 -64 
C 1798 -64 2150 19 2470 248 
C 2470 274 2458 414 2451 420 
C 2451 433 2432 630 2432 656 
C 2125 407 1773 325 1517 325 
C 1107 325 666 667 646 1377 
L 2502 1377 
z
M 698 1728 
C 781 2084 1062 2421 1421 2421 
C 1517 2421 1965 2421 2080 1728 
L 698 1728 
z
" transform="scale(0.015625)"/>
       <path id="CMSS17-73" d="M 2061 2627 
C 1683 2807 1389 2807 1197 2807 
C 742 2807 198 2648 198 2003 
C 198 1359 902 1218 1094 1179 
C 1389 1122 1715 1058 1715 740 
C 1715 337 1254 337 1171 337 
C 915 337 563 407 243 638 
L 166 210 
C 531 0 883 -64 1178 -64 
C 1965 -64 2163 416 2163 781 
C 2163 1094 1984 1305 1862 1401 
C 1651 1568 1574 1587 1050 1696 
C 960 1709 646 1779 646 2066 
C 646 2432 1050 2432 1139 2432 
C 1555 2432 1811 2303 1984 2208 
L 2061 2627 
z
" transform="scale(0.015625)"/>
       <path id="CMSS17-63" d="M 2464 2541 
C 2464 2585 2170 2714 2093 2739 
C 1882 2816 1613 2816 1542 2816 
C 710 2816 211 2093 211 1363 
C 211 595 768 -64 1517 -64 
C 1946 -64 2253 76 2502 242 
L 2464 664 
C 2189 453 1869 337 1523 337 
C 1024 337 698 774 698 1369 
C 698 1831 909 2414 1549 2414 
C 1901 2414 2099 2343 2394 2145 
L 2464 2541 
z
" transform="scale(0.015625)"/>
       <path id="CMSS17-61" d="M 2406 1791 
C 2406 2392 1978 2808 1402 2808 
C 1120 2808 813 2757 461 2553 
L 499 2135 
C 659 2248 934 2432 1395 2432 
C 1722 2432 1920 2180 1920 1782 
L 1920 1536 
C 896 1536 256 1238 256 726 
C 256 461 416 -64 947 -64 
C 1043 -64 1562 -64 1933 217 
L 1933 -19 
L 2406 -19 
L 2406 1791 
z
M 1920 816 
C 1920 701 1920 548 1728 434 
C 1562 325 1350 325 1261 325 
C 941 325 723 511 723 744 
C 723 1211 1722 1211 1920 1211 
L 1920 816 
z
" transform="scale(0.015625)"/>
       <path id="CMSS17-6c" d="M 947 4416 
L 474 4416 
L 474 0 
L 947 0 
L 947 4416 
z
" transform="scale(0.015625)"/>
       <path id="CMSS17-2c" d="M 1088 6 
L 1088 510 
L 576 510 
L 576 0 
L 736 0 
L 570 -800 
L 826 -800 
L 1088 6 
z
" transform="scale(0.015625)"/>
       <path id="CMMI12-74" d="M 1286 2566 
L 1875 2566 
C 1997 2566 2061 2566 2061 2681 
C 2061 2752 2022 2752 1894 2752 
L 1331 2752 
L 1568 3692 
C 1594 3781 1594 3794 1594 3840 
C 1594 3943 1510 4000 1427 4000 
C 1376 4000 1229 3981 1178 3775 
L 928 2752 
L 326 2752 
C 198 2752 141 2752 141 2630 
C 141 2566 186 2566 307 2566 
L 877 2566 
L 454 881 
C 403 658 384 594 384 511 
C 384 211 595 -64 954 -64 
C 1600 -64 1946 868 1946 912 
C 1946 951 1920 970 1882 970 
C 1869 970 1843 970 1830 944 
C 1824 938 1818 931 1773 829 
C 1638 511 1344 64 973 64 
C 781 64 768 224 768 364 
C 768 370 768 492 787 568 
L 1286 2566 
z
" transform="scale(0.015625)"/>
       <path id="CMR17-3d" d="M 4115 2017 
C 4211 2017 4307 2017 4307 2125 
C 4307 2240 4198 2240 4090 2240 
L 512 2240 
C 403 2240 294 2240 294 2125 
C 294 2017 390 2017 486 2017 
L 4115 2017 
z
M 4090 896 
C 4198 896 4307 896 4307 1011 
C 4307 1119 4211 1119 4115 1119 
L 486 1119 
C 390 1119 294 1119 294 1011 
C 294 896 403 896 512 896 
L 4090 896 
z
" transform="scale(0.015625)"/>
       <path id="CMMI12-4c" d="M 2349 3861 
C 2406 4103 2426 4167 2989 4167 
C 3162 4167 3206 4167 3206 4288 
C 3206 4352 3136 4352 3110 4352 
C 2982 4352 2835 4352 2707 4352 
L 1850 4352 
C 1728 4352 1587 4352 1466 4352 
C 1414 4352 1344 4352 1344 4231 
C 1344 4167 1402 4167 1498 4167 
C 1888 4167 1888 4116 1888 4046 
C 1888 4034 1888 3995 1862 3899 
L 998 472 
C 941 249 928 185 480 185 
C 358 185 294 185 294 70 
C 294 0 333 0 461 0 
L 3328 0 
C 3469 0 3475 6 3520 121 
L 4013 1478 
C 4026 1510 4038 1548 4038 1567 
C 4038 1605 4006 1631 3974 1631 
C 3968 1631 3936 1631 3923 1605 
C 3910 1599 3910 1586 3859 1465 
C 3654 905 3366 185 2285 185 
L 1670 185 
C 1581 185 1568 185 1530 192 
C 1459 198 1453 211 1453 262 
C 1453 307 1466 345 1478 401 
L 2349 3861 
z
" transform="scale(0.015625)"/>
       <path id="CMMI12-3d" d="M 2746 4562 
C 2746 4569 2784 4666 2784 4678 
C 2784 4755 2720 4800 2669 4800 
C 2637 4800 2579 4800 2528 4659 
L 384 -1363 
C 384 -1370 346 -1465 346 -1478 
C 346 -1555 410 -1600 461 -1600 
C 499 -1600 557 -1593 602 -1459 
L 2746 4562 
z
" transform="scale(0.015625)"/>
       <path id="CMMI12-75" d="M 2182 370 
C 2266 13 2573 -64 2726 -64 
C 2931 -64 3085 70 3187 287 
C 3296 517 3379 894 3379 913 
C 3379 945 3354 971 3315 971 
C 3258 971 3251 939 3226 843 
C 3110 402 2995 64 2739 64 
C 2547 64 2547 275 2547 358 
C 2547 505 2566 568 2630 837 
C 2675 1009 2720 1181 2758 1360 
L 3021 2401 
C 3066 2561 3066 2574 3066 2593 
C 3066 2689 2989 2753 2893 2753 
C 2707 2753 2662 2593 2624 2433 
C 2560 2184 2214 811 2170 588 
C 2163 588 1914 64 1446 64 
C 1114 64 1050 351 1050 588 
C 1050 952 1229 1462 1395 1890 
C 1472 2095 1504 2178 1504 2305 
C 1504 2580 1306 2816 998 2816 
C 410 2816 173 1890 173 1839 
C 173 1814 198 1782 243 1782 
C 301 1782 307 1807 333 1896 
C 486 2441 736 2682 979 2682 
C 1043 2682 1146 2682 1146 2478 
C 1146 2312 1075 2127 979 1884 
C 698 1124 666 881 666 690 
C 666 38 1158 -64 1421 -64 
C 1830 -64 2054 217 2182 370 
z
" transform="scale(0.015625)"/>
       <path id="CMSS17-5b" d="M 1613 -1600 
L 1613 -1212 
L 1062 -1212 
L 1062 4352 
L 1613 4352 
L 1613 4741 
L 595 4741 
L 595 -1600 
L 1613 -1600 
z
" transform="scale(0.015625)"/>
       <path id="CMSS17-5d" d="M 1146 4741 
L 128 4741 
L 128 4352 
L 678 4352 
L 678 -1212 
L 128 -1212 
L 128 -1600 
L 1146 -1600 
L 1146 4741 
z
" transform="scale(0.015625)"/>
      </defs>
      <use xlink:href="#CMSS17-54" transform="scale(0.996264)"/>
      <use xlink:href="#CMSS17-69" transform="translate(63.819454 0) scale(0.996264)"/>
      <use xlink:href="#CMSS17-6d" transform="translate(86.000177 0) scale(0.996264)"/>
      <use xlink:href="#CMSS17-65" transform="translate(160.229431 0) scale(0.996264)"/>
      <use xlink:href="#CMSS17-73" transform="translate(233.097366 0) scale(0.996264)"/>
      <use xlink:href="#CMSS17-63" transform="translate(269.010908 0) scale(0.996264)"/>
      <use xlink:href="#CMSS17-61" transform="translate(310.64973 0) scale(0.996264)"/>
      <use xlink:href="#CMSS17-6c" transform="translate(355.571651 0) scale(0.996264)"/>
      <use xlink:href="#CMSS17-65" transform="translate(377.752374 0) scale(0.996264)"/>
      <use xlink:href="#CMSS17-2c" transform="translate(419.391196 0) scale(0.996264)"/>
      <use xlink:href="#CMMI12-74" transform="translate(476.644514 0) scale(0.996264)"/>
      <use xlink:href="#CMR17-30" transform="translate(511.870844 -14.943915) scale(0.697382)"/>
      <use xlink:href="#CMR17-3d" transform="translate(572.026167 0) scale(0.996264)"/>
      <use xlink:href="#CMMI12-4c" transform="translate(671.414964 0) scale(0.996264)"/>
      <use xlink:href="#CMR17-30" transform="translate(737.785839 -14.943915) scale(0.697382)"/>
      <use xlink:href="#CMMI12-3d" transform="translate(770.267153 0) scale(0.996264)"/>
      <use xlink:href="#CMMI12-75" transform="translate(819.042072 0) scale(0.996264)"/>
      <use xlink:href="#CMR17-30" transform="translate(874.562401 -14.943915) scale(0.697382)"/>
      <use xlink:href="#CMSS17-5b" transform="translate(938.272828 0) scale(0.996264)"/>
      <use xlink:href="#CMSS17-73" transform="translate(965.458267 0) scale(0.996264)"/>
      <use xlink:href="#CMSS17-5d" transform="translate(1001.371809 0) scale(0.996264)"/>
     </g>
    </g>
   </g>
   <g id="matplotlib.axis_2">
    <g id="ytick_1">
     <g id="line2d_26">
      <defs>
       <path id="m2e24fff2f2" d="M 0 0 
L 2.5 0 
" style="stroke: #ffffff; stroke-width: 0.8"/>
      </defs>
      <g>
       <use xlink:href="#m2e24fff2f2" x="34.396788" y="77.524183" style="fill: #ffffff; stroke: #ffffff; stroke-width: 0.8"/>
      </g>
     </g>
     <g id="line2d_27">
      <defs>
       <path id="m693dd9ccdb" d="M 0 0 
L -2.5 0 
" style="stroke: #ffffff; stroke-width: 0.8"/>
      </defs>
      <g>
       <use xlink:href="#m693dd9ccdb" x="320.621149" y="77.524183" style="fill: #ffffff; stroke: #ffffff; stroke-width: 0.8"/>
      </g>
     </g>
     <g id="text_4">
      <!-- $\mathdefault{10^{1}}$ -->
      <g style="fill: #ffffff" transform="translate(16.96288 80.983432) scale(0.1 -0.1)">
       <use xlink:href="#CMR17-31" transform="scale(0.996264)"/>
       <use xlink:href="#CMR17-30" transform="translate(45.690477 0) scale(0.996264)"/>
       <use xlink:href="#CMR17-31" transform="translate(91.380954 36.153639) scale(0.697382)"/>
      </g>
     </g>
    </g>
    <g id="ytick_2">
     <g id="line2d_28">
      <defs>
       <path id="m6a3edbd030" d="M 0 0 
L 2 0 
" style="stroke: #ffffff; stroke-width: 0.6"/>
      </defs>
      <g>
       <use xlink:href="#m6a3edbd030" x="34.396788" y="149.444294" style="fill: #ffffff; stroke: #ffffff; stroke-width: 0.6"/>
      </g>
     </g>
     <g id="line2d_29">
      <defs>
       <path id="m86d5603175" d="M 0 0 
L -2 0 
" style="stroke: #ffffff; stroke-width: 0.6"/>
      </defs>
      <g>
       <use xlink:href="#m86d5603175" x="320.621149" y="149.444294" style="fill: #ffffff; stroke: #ffffff; stroke-width: 0.6"/>
      </g>
     </g>
    </g>
    <g id="ytick_3">
     <g id="line2d_30">
      <g>
       <use xlink:href="#m6a3edbd030" x="34.396788" y="131.325487" style="fill: #ffffff; stroke: #ffffff; stroke-width: 0.6"/>
      </g>
     </g>
     <g id="line2d_31">
      <g>
       <use xlink:href="#m86d5603175" x="320.621149" y="131.325487" style="fill: #ffffff; stroke: #ffffff; stroke-width: 0.6"/>
      </g>
     </g>
    </g>
    <g id="ytick_4">
     <g id="line2d_32">
      <g>
       <use xlink:href="#m6a3edbd030" x="34.396788" y="118.469988" style="fill: #ffffff; stroke: #ffffff; stroke-width: 0.6"/>
      </g>
     </g>
     <g id="line2d_33">
      <g>
       <use xlink:href="#m86d5603175" x="320.621149" y="118.469988" style="fill: #ffffff; stroke: #ffffff; stroke-width: 0.6"/>
      </g>
     </g>
    </g>
    <g id="ytick_5">
     <g id="line2d_34">
      <g>
       <use xlink:href="#m6a3edbd030" x="34.396788" y="108.498489" style="fill: #ffffff; stroke: #ffffff; stroke-width: 0.6"/>
      </g>
     </g>
     <g id="line2d_35">
      <g>
       <use xlink:href="#m86d5603175" x="320.621149" y="108.498489" style="fill: #ffffff; stroke: #ffffff; stroke-width: 0.6"/>
      </g>
     </g>
    </g>
    <g id="ytick_6">
     <g id="line2d_36">
      <g>
       <use xlink:href="#m6a3edbd030" x="34.396788" y="100.351181" style="fill: #ffffff; stroke: #ffffff; stroke-width: 0.6"/>
      </g>
     </g>
     <g id="line2d_37">
      <g>
       <use xlink:href="#m86d5603175" x="320.621149" y="100.351181" style="fill: #ffffff; stroke: #ffffff; stroke-width: 0.6"/>
      </g>
     </g>
    </g>
    <g id="ytick_7">
     <g id="line2d_38">
      <g>
       <use xlink:href="#m6a3edbd030" x="34.396788" y="93.46273" style="fill: #ffffff; stroke: #ffffff; stroke-width: 0.6"/>
      </g>
     </g>
     <g id="line2d_39">
      <g>
       <use xlink:href="#m86d5603175" x="320.621149" y="93.46273" style="fill: #ffffff; stroke: #ffffff; stroke-width: 0.6"/>
      </g>
     </g>
    </g>
    <g id="ytick_8">
     <g id="line2d_40">
      <g>
       <use xlink:href="#m6a3edbd030" x="34.396788" y="87.495682" style="fill: #ffffff; stroke: #ffffff; stroke-width: 0.6"/>
      </g>
     </g>
     <g id="line2d_41">
      <g>
       <use xlink:href="#m86d5603175" x="320.621149" y="87.495682" style="fill: #ffffff; stroke: #ffffff; stroke-width: 0.6"/>
      </g>
     </g>
    </g>
    <g id="ytick_9">
     <g id="line2d_42">
      <g>
       <use xlink:href="#m6a3edbd030" x="34.396788" y="82.232374" style="fill: #ffffff; stroke: #ffffff; stroke-width: 0.6"/>
      </g>
     </g>
     <g id="line2d_43">
      <g>
       <use xlink:href="#m86d5603175" x="320.621149" y="82.232374" style="fill: #ffffff; stroke: #ffffff; stroke-width: 0.6"/>
      </g>
     </g>
    </g>
    <g id="ytick_10">
     <g id="line2d_44">
      <g>
       <use xlink:href="#m6a3edbd030" x="34.396788" y="46.549877" style="fill: #ffffff; stroke: #ffffff; stroke-width: 0.6"/>
      </g>
     </g>
     <g id="line2d_45">
      <g>
       <use xlink:href="#m86d5603175" x="320.621149" y="46.549877" style="fill: #ffffff; stroke: #ffffff; stroke-width: 0.6"/>
      </g>
     </g>
    </g>
    <g id="ytick_11">
     <g id="line2d_46">
      <g>
       <use xlink:href="#m6a3edbd030" x="34.396788" y="28.43107" style="fill: #ffffff; stroke: #ffffff; stroke-width: 0.6"/>
      </g>
     </g>
     <g id="line2d_47">
      <g>
       <use xlink:href="#m86d5603175" x="320.621149" y="28.43107" style="fill: #ffffff; stroke: #ffffff; stroke-width: 0.6"/>
      </g>
     </g>
    </g>
    <g id="ytick_12">
     <g id="line2d_48">
      <g>
       <use xlink:href="#m6a3edbd030" x="34.396788" y="15.575572" style="fill: #ffffff; stroke: #ffffff; stroke-width: 0.6"/>
      </g>
     </g>
     <g id="line2d_49">
      <g>
       <use xlink:href="#m86d5603175" x="320.621149" y="15.575572" style="fill: #ffffff; stroke: #ffffff; stroke-width: 0.6"/>
      </g>
     </g>
    </g>
    <g id="ytick_13">
     <g id="line2d_50">
      <g>
       <use xlink:href="#m6a3edbd030" x="34.396788" y="5.604072" style="fill: #ffffff; stroke: #ffffff; stroke-width: 0.6"/>
      </g>
     </g>
     <g id="line2d_51">
      <g>
       <use xlink:href="#m86d5603175" x="320.621149" y="5.604072" style="fill: #ffffff; stroke: #ffffff; stroke-width: 0.6"/>
      </g>
     </g>
    </g>
    <g id="text_5">
     <!-- End time, $t_{\rm end}$ [s] -->
     <g style="fill: #ffffff" transform="translate(10.47222 116.507715) rotate(-90) scale(0.1 -0.1)">
      <defs>
       <path id="CMSS17-45" d="M 1958 433 
C 1446 433 1216 433 1101 433 
L 1101 2107 
L 3085 2107 
L 3085 2496 
L 1101 2496 
L 1101 4009 
L 1926 4009 
C 2003 4009 2080 4009 2157 4009 
L 3251 4009 
L 3251 4416 
L 563 4416 
L 563 0 
L 3334 0 
L 3334 433 
L 1958 433 
z
" transform="scale(0.015625)"/>
       <path id="CMSS17-6e" d="M 2618 1877 
C 2618 2283 2522 2816 1798 2816 
C 1389 2816 1120 2606 941 2389 
L 941 2758 
L 474 2758 
L 474 0 
L 960 0 
L 960 1559 
C 960 1964 1114 2428 1549 2428 
C 2112 2428 2131 2048 2131 1829 
L 2131 0 
L 2618 0 
L 2618 1877 
z
" transform="scale(0.015625)"/>
       <path id="CMSS17-64" d="M 2611 4416 
L 2138 4416 
L 2138 2438 
C 1939 2603 1613 2756 1254 2756 
C 672 2756 211 2131 211 1347 
C 211 562 666 -64 1235 -64 
C 1677 -64 1971 172 2125 306 
L 2125 -13 
L 2611 -13 
L 2611 4416 
z
M 2125 836 
C 2125 747 2125 653 1926 482 
C 1798 375 1645 325 1498 325 
C 1152 325 698 576 698 1340 
C 698 2134 1210 2368 1562 2368 
C 1798 2368 1990 2254 2125 2065 
L 2125 836 
z
" transform="scale(0.015625)"/>
       <path id="CMSS17-74" d="M 1069 2368 
L 1901 2368 
L 1901 2737 
L 1069 2737 
L 1069 3520 
L 614 3520 
L 614 2737 
L 109 2737 
L 109 2368 
L 602 2368 
L 602 749 
C 602 384 685 -64 1107 -64 
C 1427 -64 1722 25 2003 172 
L 1901 548 
C 1747 414 1562 337 1363 337 
C 1082 337 1069 696 1069 856 
L 1069 2368 
z
" transform="scale(0.015625)"/>
       <path id="CMR17-65" d="M 2438 1472 
C 2464 1498 2464 1511 2464 1576 
C 2464 2238 2118 2816 1389 2816 
C 710 2816 173 2169 173 1383 
C 173 551 781 -64 1459 -64 
C 2176 -64 2458 607 2458 740 
C 2458 784 2419 784 2406 784 
C 2362 784 2355 771 2330 696 
C 2189 265 1837 51 1504 51 
C 1229 51 954 203 781 480 
C 582 803 582 1176 582 1472 
L 2438 1472 
z
M 589 1568 
C 634 2505 1126 2714 1382 2714 
C 1818 2714 2112 2297 2118 1568 
L 589 1568 
z
" transform="scale(0.015625)"/>
       <path id="CMR17-6e" d="M 2656 1933 
C 2656 2259 2592 2790 1837 2790 
C 1331 2790 1069 2400 973 2144 
L 966 2144 
L 966 2790 
L 211 2720 
L 211 2554 
C 589 2554 646 2515 646 2208 
L 646 428 
C 646 184 621 153 211 153 
L 211 -13 
C 365 0 646 0 813 0 
C 979 0 1267 0 1421 -13 
L 1421 153 
C 1011 153 986 178 986 428 
L 986 1658 
C 986 2247 1344 2688 1792 2688 
C 2266 2688 2317 2266 2317 1958 
L 2317 428 
C 2317 184 2291 153 1882 153 
L 1882 -13 
C 2035 0 2317 0 2483 0 
C 2650 0 2938 0 3091 -13 
L 3091 153 
C 2682 153 2656 178 2656 428 
L 2656 1933 
z
" transform="scale(0.015625)"/>
       <path id="CMR17-64" d="M 1869 4326 
L 1869 4160 
C 2246 4160 2304 4122 2304 3820 
L 2304 2345 
C 2278 2377 2016 2790 1498 2790 
C 845 2790 211 2208 211 1364 
C 211 525 806 -64 1434 -64 
C 1978 -64 2259 337 2291 380 
L 2291 -63 
L 3066 -63 
L 3066 128 
C 2688 128 2630 166 2630 473 
L 2630 4396 
L 1869 4326 
z
M 2291 755 
C 2291 563 2176 390 2029 262 
C 1811 70 1594 38 1472 38 
C 1286 38 621 134 621 1356 
C 621 2612 1363 2688 1530 2688 
C 1824 2688 2061 2522 2208 2291 
C 2291 2157 2291 2138 2291 2023 
L 2291 755 
z
" transform="scale(0.015625)"/>
      </defs>
      <use xlink:href="#CMSS17-45" transform="scale(0.996264)"/>
      <use xlink:href="#CMSS17-6e" transform="translate(55.892013 0) scale(0.996264)"/>
      <use xlink:href="#CMSS17-64" transform="translate(104.096956 0) scale(0.996264)"/>
      <use xlink:href="#CMSS17-74" transform="translate(183.531012 0) scale(0.996264)"/>
      <use xlink:href="#CMSS17-69" transform="translate(217.362579 0) scale(0.996264)"/>
      <use xlink:href="#CMSS17-6d" transform="translate(239.543302 0) scale(0.996264)"/>
      <use xlink:href="#CMSS17-65" transform="translate(313.772556 0) scale(0.996264)"/>
      <use xlink:href="#CMSS17-2c" transform="translate(355.411378 0) scale(0.996264)"/>
      <use xlink:href="#CMMI12-74" transform="translate(412.664696 0) scale(0.996264)"/>
      <use xlink:href="#CMR17-65" transform="translate(447.891026 -14.943915) scale(0.697382)"/>
      <use xlink:href="#CMR17-6e" transform="translate(476.230858 -14.943915) scale(0.697382)"/>
      <use xlink:href="#CMR17-64" transform="translate(511.857466 -14.943915) scale(0.697382)"/>
      <use xlink:href="#CMSS17-5b" transform="translate(579.211319 0) scale(0.996264)"/>
      <use xlink:href="#CMSS17-73" transform="translate(606.396758 0) scale(0.996264)"/>
      <use xlink:href="#CMSS17-5d" transform="translate(642.3103 0) scale(0.996264)"/>
     </g>
    </g>
   </g>
   <g id="LineCollection_1">
    <path d="M 198.599919 46.883608 
L 205.962182 46.883608 
" clip-path="url(#p4ccf109e6a)" style="fill: none; stroke: #c85200; stroke-width: 1.5"/>
    <path d="M 126.844547 97.674461 
L 132.759301 97.674461 
" clip-path="url(#p4ccf109e6a)" style="fill: none; stroke: #c85200; stroke-width: 1.5"/>
    <path d="M 157.785296 83.744633 
L 163.918356 83.744633 
" clip-path="url(#p4ccf109e6a)" style="fill: none; stroke: #c85200; stroke-width: 1.5"/>
    <path d="M 175.222414 73.384464 
L 181.66416 73.384464 
" clip-path="url(#p4ccf109e6a)" style="fill: none; stroke: #c85200; stroke-width: 1.5"/>
    <path d="M 242.328786 40.868748 
L 255.669847 40.868748 
" clip-path="url(#p4ccf109e6a)" style="fill: none; stroke: #c85200; stroke-width: 1.5"/>
    <path d="M 95.889064 111.931351 
L 101.740329 111.931351 
" clip-path="url(#p4ccf109e6a)" style="fill: none; stroke: #c85200; stroke-width: 1.5"/>
    <path d="M 193.111243 65.96957 
L 200.180448 65.96957 
" clip-path="url(#p4ccf109e6a)" style="fill: none; stroke: #c85200; stroke-width: 1.5"/>
    <path d="M 111.773294 103.272238 
L 117.647668 103.272238 
" clip-path="url(#p4ccf109e6a)" style="fill: none; stroke: #c85200; stroke-width: 1.5"/>
    <path d="M 181.62966 75.768866 
L 188.249053 75.768866 
" clip-path="url(#p4ccf109e6a)" style="fill: none; stroke: #c85200; stroke-width: 1.5"/>
    <path d="M 243.352175 40.457429 
L 256.962548 40.457429 
" clip-path="url(#p4ccf109e6a)" style="fill: none; stroke: #c85200; stroke-width: 1.5"/>
    <path d="M 110.942471 107.436 
L 116.815245 107.436 
" clip-path="url(#p4ccf109e6a)" style="fill: none; stroke: #c85200; stroke-width: 1.5"/>
    <path d="M 179.490107 70.966247 
L 186.045242 70.966247 
" clip-path="url(#p4ccf109e6a)" style="fill: none; stroke: #c85200; stroke-width: 1.5"/>
    <path d="M 264.067207 23.537358 
L 285.792956 23.537358 
" clip-path="url(#p4ccf109e6a)" style="fill: none; stroke: #c85200; stroke-width: 1.5"/>
    <path d="M 270.533262 16.704254 
L 296.44806 16.704254 
" clip-path="url(#p4ccf109e6a)" style="fill: none; stroke: #c85200; stroke-width: 1.5"/>
    <path d="M 219.252692 51.280219 
L 228.405597 51.280219 
" clip-path="url(#p4ccf109e6a)" style="fill: none; stroke: #c85200; stroke-width: 1.5"/>
   </g>
   <g id="LineCollection_2">
    <path d="M 202.352674 54.146006 
L 202.352674 40.638139 
" clip-path="url(#p4ccf109e6a)" style="fill: none; stroke: #c85200; stroke-width: 1.5"/>
    <path d="M 129.848156 104.936859 
L 129.848156 91.428992 
" clip-path="url(#p4ccf109e6a)" style="fill: none; stroke: #c85200; stroke-width: 1.5"/>
    <path d="M 160.901534 91.007032 
L 160.901534 77.499164 
" clip-path="url(#p4ccf109e6a)" style="fill: none; stroke: #c85200; stroke-width: 1.5"/>
    <path d="M 178.498123 80.646863 
L 178.498123 67.138996 
" clip-path="url(#p4ccf109e6a)" style="fill: none; stroke: #c85200; stroke-width: 1.5"/>
    <path d="M 249.234369 48.131146 
L 249.234369 34.623279 
" clip-path="url(#p4ccf109e6a)" style="fill: none; stroke: #c85200; stroke-width: 1.5"/>
    <path d="M 98.859942 119.193749 
L 98.859942 105.685882 
" clip-path="url(#p4ccf109e6a)" style="fill: none; stroke: #c85200; stroke-width: 1.5"/>
    <path d="M 196.711882 73.231968 
L 196.711882 59.724101 
" clip-path="url(#p4ccf109e6a)" style="fill: none; stroke: #c85200; stroke-width: 1.5"/>
    <path d="M 114.756085 110.534636 
L 114.756085 97.026769 
" clip-path="url(#p4ccf109e6a)" style="fill: none; stroke: #c85200; stroke-width: 1.5"/>
    <path d="M 184.997258 83.031265 
L 184.997258 69.523398 
" clip-path="url(#p4ccf109e6a)" style="fill: none; stroke: #c85200; stroke-width: 1.5"/>
    <path d="M 250.401992 47.719828 
L 250.401992 34.21196 
" clip-path="url(#p4ccf109e6a)" style="fill: none; stroke: #c85200; stroke-width: 1.5"/>
    <path d="M 113.924436 114.698398 
L 113.924436 101.190531 
" clip-path="url(#p4ccf109e6a)" style="fill: none; stroke: #c85200; stroke-width: 1.5"/>
    <path d="M 182.824458 78.228645 
L 182.824458 64.720778 
" clip-path="url(#p4ccf109e6a)" style="fill: none; stroke: #c85200; stroke-width: 1.5"/>
    <path d="M 275.552585 30.799757 
L 275.552585 17.29189 
" clip-path="url(#p4ccf109e6a)" style="fill: none; stroke: #c85200; stroke-width: 1.5"/>
    <path d="M 284.375545 23.966652 
L 284.375545 10.458785 
" clip-path="url(#p4ccf109e6a)" style="fill: none; stroke: #c85200; stroke-width: 1.5"/>
    <path d="M 223.93983 58.542618 
L 223.93983 45.03475 
" clip-path="url(#p4ccf109e6a)" style="fill: none; stroke: #c85200; stroke-width: 1.5"/>
   </g>
   <g id="LineCollection_3">
    <path d="M 211.734454 57.137398 
L 222.037279 57.137398 
" clip-path="url(#p4ccf109e6a)" style="fill: none; stroke: #ff800e; stroke-width: 1.5"/>
    <path d="M 162.369336 75.768866 
L 168.59367 75.768866 
" clip-path="url(#p4ccf109e6a)" style="fill: none; stroke: #ff800e; stroke-width: 1.5"/>
    <path d="M 138.366032 86.993085 
L 144.342487 86.993085 
" clip-path="url(#p4ccf109e6a)" style="fill: none; stroke: #ff800e; stroke-width: 1.5"/>
    <path d="M 243.431883 49.359754 
L 257.664763 49.359754 
" clip-path="url(#p4ccf109e6a)" style="fill: none; stroke: #ff800e; stroke-width: 1.5"/>
    <path d="M 195.339402 67.407234 
L 202.633884 67.407234 
" clip-path="url(#p4ccf109e6a)" style="fill: none; stroke: #ff800e; stroke-width: 1.5"/>
    <path d="M 96.995947 110.413193 
L 102.848365 110.413193 
" clip-path="url(#p4ccf109e6a)" style="fill: none; stroke: #ff800e; stroke-width: 1.5"/>
    <path d="M 181.333872 67.442884 
L 188.009542 67.442884 
" clip-path="url(#p4ccf109e6a)" style="fill: none; stroke: #ff800e; stroke-width: 1.5"/>
    <path d="M 194.743108 64.077796 
L 202.004128 64.077796 
" clip-path="url(#p4ccf109e6a)" style="fill: none; stroke: #ff800e; stroke-width: 1.5"/>
    <path d="M 105.220656 107.874536 
L 111.084522 107.874536 
" clip-path="url(#p4ccf109e6a)" style="fill: none; stroke: #ff800e; stroke-width: 1.5"/>
    <path d="M 257.253887 39.09417 
L 276.596248 39.09417 
" clip-path="url(#p4ccf109e6a)" style="fill: none; stroke: #ff800e; stroke-width: 1.5"/>
    <path d="M 271.412949 36.736858 
L 299.796381 36.736858 
" clip-path="url(#p4ccf109e6a)" style="fill: none; stroke: #ff800e; stroke-width: 1.5"/>
    <path d="M 86.48019 115.339594 
L 92.322433 115.339594 
" clip-path="url(#p4ccf109e6a)" style="fill: none; stroke: #ff800e; stroke-width: 1.5"/>
    <path d="M 229.883602 51.930762 
L 240.963702 51.930762 
" clip-path="url(#p4ccf109e6a)" style="fill: none; stroke: #ff800e; stroke-width: 1.5"/>
    <path d="M 138.449606 96.497522 
L 144.426594 96.497522 
" clip-path="url(#p4ccf109e6a)" style="fill: none; stroke: #ff800e; stroke-width: 1.5"/>
    <path d="M 271.141158 35.883969 
L 299.28897 35.883969 
" clip-path="url(#p4ccf109e6a)" style="fill: none; stroke: #ff800e; stroke-width: 1.5"/>
    <path d="M 258.811706 48.980651 
L 278.90676 48.980651 
" clip-path="url(#p4ccf109e6a)" style="fill: none; stroke: #ff800e; stroke-width: 1.5"/>
    <path d="M 244.132355 50.055184 
L 258.569913 50.055184 
" clip-path="url(#p4ccf109e6a)" style="fill: none; stroke: #ff800e; stroke-width: 1.5"/>
   </g>
   <g id="LineCollection_4">
    <path d="M 217.026097 64.399796 
L 217.026097 50.891929 
" clip-path="url(#p4ccf109e6a)" style="fill: none; stroke: #ff800e; stroke-width: 1.5"/>
    <path d="M 165.532701 83.031265 
L 165.532701 69.523398 
" clip-path="url(#p4ccf109e6a)" style="fill: none; stroke: #ff800e; stroke-width: 1.5"/>
    <path d="M 141.401461 94.255484 
L 141.401461 80.747616 
" clip-path="url(#p4ccf109e6a)" style="fill: none; stroke: #ff800e; stroke-width: 1.5"/>
    <path d="M 250.815821 56.622153 
L 250.815821 43.114285 
" clip-path="url(#p4ccf109e6a)" style="fill: none; stroke: #ff800e; stroke-width: 1.5"/>
    <path d="M 199.056954 74.669633 
L 199.056954 61.161765 
" clip-path="url(#p4ccf109e6a)" style="fill: none; stroke: #ff800e; stroke-width: 1.5"/>
    <path d="M 99.96742 117.675591 
L 99.96742 104.167724 
" clip-path="url(#p4ccf109e6a)" style="fill: none; stroke: #ff800e; stroke-width: 1.5"/>
    <path d="M 184.730597 74.705282 
L 184.730597 61.197415 
" clip-path="url(#p4ccf109e6a)" style="fill: none; stroke: #ff800e; stroke-width: 1.5"/>
    <path d="M 198.443286 71.340194 
L 198.443286 57.832327 
" clip-path="url(#p4ccf109e6a)" style="fill: none; stroke: #ff800e; stroke-width: 1.5"/>
    <path d="M 108.19803 115.136934 
L 108.19803 101.629067 
" clip-path="url(#p4ccf109e6a)" style="fill: none; stroke: #ff800e; stroke-width: 1.5"/>
    <path d="M 267.418705 46.356569 
L 267.418705 32.848701 
" clip-path="url(#p4ccf109e6a)" style="fill: none; stroke: #ff800e; stroke-width: 1.5"/>
    <path d="M 286.665508 43.999257 
L 286.665508 30.49139 
" clip-path="url(#p4ccf109e6a)" style="fill: none; stroke: #ff800e; stroke-width: 1.5"/>
    <path d="M 89.446417 122.601993 
L 89.446417 109.094126 
" clip-path="url(#p4ccf109e6a)" style="fill: none; stroke: #ff800e; stroke-width: 1.5"/>
    <path d="M 235.585827 59.19316 
L 235.585827 45.685293 
" clip-path="url(#p4ccf109e6a)" style="fill: none; stroke: #ff800e; stroke-width: 1.5"/>
    <path d="M 141.48531 103.75992 
L 141.48531 90.252053 
" clip-path="url(#p4ccf109e6a)" style="fill: none; stroke: #ff800e; stroke-width: 1.5"/>
    <path d="M 286.258432 43.146368 
L 286.258432 29.6385 
" clip-path="url(#p4ccf109e6a)" style="fill: none; stroke: #ff800e; stroke-width: 1.5"/>
    <path d="M 269.391964 56.24305 
L 269.391964 42.735182 
" clip-path="url(#p4ccf109e6a)" style="fill: none; stroke: #ff800e; stroke-width: 1.5"/>
    <path d="M 251.626374 57.317583 
L 251.626374 43.809715 
" clip-path="url(#p4ccf109e6a)" style="fill: none; stroke: #ff800e; stroke-width: 1.5"/>
   </g>
   <g id="LineCollection_5">
    <path d="M 162.361142 96.497522 
L 168.857347 96.497522 
" clip-path="url(#p4ccf109e6a)" style="fill: none; stroke: #3d4389; stroke-width: 1.5"/>
    <path d="M 206.437574 75.086617 
L 215.958723 75.086617 
" clip-path="url(#p4ccf109e6a)" style="fill: none; stroke: #3d4389; stroke-width: 1.5"/>
    <path d="M 125.603788 109.581363 
L 131.575128 109.581363 
" clip-path="url(#p4ccf109e6a)" style="fill: none; stroke: #3d4389; stroke-width: 1.5"/>
    <path d="M 93.385122 108.051163 
L 99.246251 108.051163 
" clip-path="url(#p4ccf109e6a)" style="fill: none; stroke: #3d4389; stroke-width: 1.5"/>
    <path d="M 105.845902 106.743172 
L 111.733682 106.743172 
" clip-path="url(#p4ccf109e6a)" style="fill: none; stroke: #3d4389; stroke-width: 1.5"/>
    <path d="M 163.147923 81.932771 
L 169.665873 81.932771 
" clip-path="url(#p4ccf109e6a)" style="fill: none; stroke: #3d4389; stroke-width: 1.5"/>
    <path d="M 219.724368 79.954957 
L 231.492575 79.954957 
" clip-path="url(#p4ccf109e6a)" style="fill: none; stroke: #3d4389; stroke-width: 1.5"/>
    <path d="M 115.278683 107.001725 
L 121.198026 107.001725 
" clip-path="url(#p4ccf109e6a)" style="fill: none; stroke: #3d4389; stroke-width: 1.5"/>
    <path d="M 147.124334 95.417434 
L 153.308943 95.417434 
" clip-path="url(#p4ccf109e6a)" style="fill: none; stroke: #3d4389; stroke-width: 1.5"/>
    <path d="M 163.147923 97.325073 
L 169.665873 97.325073 
" clip-path="url(#p4ccf109e6a)" style="fill: none; stroke: #3d4389; stroke-width: 1.5"/>
    <path d="M 219.724368 74.62354 
L 231.492575 74.62354 
" clip-path="url(#p4ccf109e6a)" style="fill: none; stroke: #3d4389; stroke-width: 1.5"/>
    <path d="M 231.084825 73.917184 
L 245.727921 73.917184 
" clip-path="url(#p4ccf109e6a)" style="fill: none; stroke: #3d4389; stroke-width: 1.5"/>
    <path d="M 245.708071 81.588838 
L 266.15417 81.588838 
" clip-path="url(#p4ccf109e6a)" style="fill: none; stroke: #3d4389; stroke-width: 1.5"/>
    <path d="M 270.261701 48.839313 
L 317.032397 48.839313 
" clip-path="url(#p4ccf109e6a)" style="fill: none; stroke: #3d4389; stroke-width: 1.5"/>
    <path d="M 83.530823 115.13175 
L 89.37871 115.13175 
" clip-path="url(#p4ccf109e6a)" style="fill: none; stroke: #3d4389; stroke-width: 1.5"/>
    <path d="M 105.845902 109.307492 
L 111.733682 109.307492 
" clip-path="url(#p4ccf109e6a)" style="fill: none; stroke: #3d4389; stroke-width: 1.5"/>
    <path d="M 105.845902 102.640616 
L 111.733682 102.640616 
" clip-path="url(#p4ccf109e6a)" style="fill: none; stroke: #3d4389; stroke-width: 1.5"/>
    <path d="M 178.982026 93.844727 
L 186.111404 93.844727 
" clip-path="url(#p4ccf109e6a)" style="fill: none; stroke: #3d4389; stroke-width: 1.5"/>
    <path d="M 245.708071 67.158482 
L 266.15417 67.158482 
" clip-path="url(#p4ccf109e6a)" style="fill: none; stroke: #3d4389; stroke-width: 1.5"/>
    <path d="M 52.48302 131.472009 
L 58.311775 131.472009 
" clip-path="url(#p4ccf109e6a)" style="fill: none; stroke: #3d4389; stroke-width: 1.5"/>
   </g>
   <g id="LineCollection_6">
    <path d="M 165.665012 103.75992 
L 165.665012 90.252053 
" clip-path="url(#p4ccf109e6a)" style="fill: none; stroke: #3d4389; stroke-width: 1.5"/>
    <path d="M 211.317916 82.349015 
L 211.317916 68.841148 
" clip-path="url(#p4ccf109e6a)" style="fill: none; stroke: #3d4389; stroke-width: 1.5"/>
    <path d="M 128.636579 116.843761 
L 128.636579 103.335894 
" clip-path="url(#p4ccf109e6a)" style="fill: none; stroke: #3d4389; stroke-width: 1.5"/>
    <path d="M 96.361084 115.313561 
L 96.361084 101.805694 
" clip-path="url(#p4ccf109e6a)" style="fill: none; stroke: #3d4389; stroke-width: 1.5"/>
    <path d="M 108.835603 114.005571 
L 108.835603 100.497703 
" clip-path="url(#p4ccf109e6a)" style="fill: none; stroke: #3d4389; stroke-width: 1.5"/>
    <path d="M 166.463039 89.195169 
L 166.463039 75.687302 
" clip-path="url(#p4ccf109e6a)" style="fill: none; stroke: #3d4389; stroke-width: 1.5"/>
    <path d="M 225.791401 87.217356 
L 225.791401 73.709488 
" clip-path="url(#p4ccf109e6a)" style="fill: none; stroke: #3d4389; stroke-width: 1.5"/>
    <path d="M 118.284658 114.264124 
L 118.284658 100.756257 
" clip-path="url(#p4ccf109e6a)" style="fill: none; stroke: #3d4389; stroke-width: 1.5"/>
    <path d="M 150.267186 102.679832 
L 150.267186 89.171965 
" clip-path="url(#p4ccf109e6a)" style="fill: none; stroke: #3d4389; stroke-width: 1.5"/>
    <path d="M 166.463039 104.587471 
L 166.463039 91.079604 
" clip-path="url(#p4ccf109e6a)" style="fill: none; stroke: #3d4389; stroke-width: 1.5"/>
    <path d="M 225.791401 81.885939 
L 225.791401 68.378072 
" clip-path="url(#p4ccf109e6a)" style="fill: none; stroke: #3d4389; stroke-width: 1.5"/>
    <path d="M 238.689497 81.179583 
L 238.689497 67.671715 
" clip-path="url(#p4ccf109e6a)" style="fill: none; stroke: #3d4389; stroke-width: 1.5"/>
    <path d="M 256.48259 88.851237 
L 256.48259 75.343369 
" clip-path="url(#p4ccf109e6a)" style="fill: none; stroke: #3d4389; stroke-width: 1.5"/>
    <path d="M 296.50935 56.101711 
L 296.50935 42.593844 
" clip-path="url(#p4ccf109e6a)" style="fill: none; stroke: #3d4389; stroke-width: 1.5"/>
    <path d="M 86.49996 122.394149 
L 86.49996 108.886281 
" clip-path="url(#p4ccf109e6a)" style="fill: none; stroke: #3d4389; stroke-width: 1.5"/>
    <path d="M 108.835603 116.56989 
L 108.835603 103.062023 
" clip-path="url(#p4ccf109e6a)" style="fill: none; stroke: #3d4389; stroke-width: 1.5"/>
    <path d="M 108.835603 109.903015 
L 108.835603 96.395147 
" clip-path="url(#p4ccf109e6a)" style="fill: none; stroke: #3d4389; stroke-width: 1.5"/>
    <path d="M 182.61388 101.107125 
L 182.61388 87.599258 
" clip-path="url(#p4ccf109e6a)" style="fill: none; stroke: #3d4389; stroke-width: 1.5"/>
    <path d="M 256.48259 74.42088 
L 256.48259 60.913013 
" clip-path="url(#p4ccf109e6a)" style="fill: none; stroke: #3d4389; stroke-width: 1.5"/>
    <path d="M 55.442296 138.734408 
L 55.442296 125.22654 
" clip-path="url(#p4ccf109e6a)" style="fill: none; stroke: #3d4389; stroke-width: 1.5"/>
   </g>
   <g id="LineCollection_7">
    <path d="M 194.677505 82.728988 
L 201.934863 82.728988 
" clip-path="url(#p4ccf109e6a)" style="fill: none; stroke: #ababab; stroke-width: 1.5"/>
    <path d="M 162.400635 96.909382 
L 168.625471 96.909382 
" clip-path="url(#p4ccf109e6a)" style="fill: none; stroke: #ababab; stroke-width: 1.5"/>
    <path d="M 138.300728 93.587907 
L 144.276773 93.587907 
" clip-path="url(#p4ccf109e6a)" style="fill: none; stroke: #ababab; stroke-width: 1.5"/>
    <path d="M 181.277704 84.626461 
L 187.951391 84.626461 
" clip-path="url(#p4ccf109e6a)" style="fill: none; stroke: #ababab; stroke-width: 1.5"/>
   </g>
   <g id="LineCollection_8">
    <path d="M 198.375782 89.991386 
L 198.375782 76.483519 
" clip-path="url(#p4ccf109e6a)" style="fill: none; stroke: #ababab; stroke-width: 1.5"/>
    <path d="M 165.564259 104.17178 
L 165.564259 90.663913 
" clip-path="url(#p4ccf109e6a)" style="fill: none; stroke: #ababab; stroke-width: 1.5"/>
    <path d="M 141.335946 100.850306 
L 141.335946 87.342438 
" clip-path="url(#p4ccf109e6a)" style="fill: none; stroke: #ababab; stroke-width: 1.5"/>
    <path d="M 184.673403 91.88886 
L 184.673403 78.380992 
" clip-path="url(#p4ccf109e6a)" style="fill: none; stroke: #ababab; stroke-width: 1.5"/>
   </g>
   <g id="LineCollection_9">
    <path d="M 162.055427 118.022662 
L 168.274707 118.022662 
" clip-path="url(#p4ccf109e6a)" style="fill: none; stroke: #ffbc79; stroke-width: 1.5"/>
    <path d="M 180.994769 108.58527 
L 187.658981 108.58527 
" clip-path="url(#p4ccf109e6a)" style="fill: none; stroke: #ffbc79; stroke-width: 1.5"/>
    <path d="M 138.179791 113.403047 
L 144.155079 113.403047 
" clip-path="url(#p4ccf109e6a)" style="fill: none; stroke: #ffbc79; stroke-width: 1.5"/>
    <path d="M 119.069078 145.38612 
L 124.963042 145.38612 
" clip-path="url(#p4ccf109e6a)" style="fill: none; stroke: #ffbc79; stroke-width: 1.5"/>
    <path d="M 148.632945 114.309907 
L 154.687439 114.309907 
" clip-path="url(#p4ccf109e6a)" style="fill: none; stroke: #ffbc79; stroke-width: 1.5"/>
    <path d="M 162.039891 112.80854 
L 168.258925 112.80854 
" clip-path="url(#p4ccf109e6a)" style="fill: none; stroke: #ffbc79; stroke-width: 1.5"/>
   </g>
   <g id="LineCollection_10">
    <path d="M 165.216182 125.28506 
L 165.216182 111.777193 
" clip-path="url(#p4ccf109e6a)" style="fill: none; stroke: #ffbc79; stroke-width: 1.5"/>
    <path d="M 184.385563 115.847669 
L 184.385563 102.339801 
" clip-path="url(#p4ccf109e6a)" style="fill: none; stroke: #ffbc79; stroke-width: 1.5"/>
    <path d="M 141.214619 120.665446 
L 141.214619 107.157578 
" clip-path="url(#p4ccf109e6a)" style="fill: none; stroke: #ffbc79; stroke-width: 1.5"/>
    <path d="M 122.061968 152.648519 
L 122.061968 139.140651 
" clip-path="url(#p4ccf109e6a)" style="fill: none; stroke: #ffbc79; stroke-width: 1.5"/>
    <path d="M 151.708634 121.572305 
L 151.708634 108.064438 
" clip-path="url(#p4ccf109e6a)" style="fill: none; stroke: #ffbc79; stroke-width: 1.5"/>
    <path d="M 165.200519 120.070938 
L 165.200519 106.563071 
" clip-path="url(#p4ccf109e6a)" style="fill: none; stroke: #ffbc79; stroke-width: 1.5"/>
   </g>
   <g id="LineCollection_11">
    <path d="M 105.845902 137.717478 
L 111.733682 137.717478 
" clip-path="url(#p4ccf109e6a)" style="fill: none; stroke: #9467bd; stroke-width: 1.5"/>
   </g>
   <g id="LineCollection_12">
    <path d="M 108.835603 144.979877 
L 108.835603 131.472009 
" clip-path="url(#p4ccf109e6a)" style="fill: none; stroke: #9467bd; stroke-width: 1.5"/>
   </g>
   <g id="line2d_52">
    <defs>
     <path id="m35d0fa9a59" d="M 0 1.5 
C 0.397805 1.5 0.77937 1.341951 1.06066 1.06066 
C 1.341951 0.77937 1.5 0.397805 1.5 0 
C 1.5 -0.397805 1.341951 -0.77937 1.06066 -1.06066 
C 0.77937 -1.341951 0.397805 -1.5 0 -1.5 
C -0.397805 -1.5 -0.77937 -1.341951 -1.06066 -1.06066 
C -1.341951 -0.77937 -1.5 -0.397805 -1.5 0 
C -1.5 0.397805 -1.341951 0.77937 -1.06066 1.06066 
C -0.77937 1.341951 -0.397805 1.5 0 1.5 
z
" style="stroke: #c85200"/>
    </defs>
    <g clip-path="url(#p4ccf109e6a)">
     <use xlink:href="#m35d0fa9a59" x="202.352674" y="46.883608" style="fill: #c85200; stroke: #c85200"/>
     <use xlink:href="#m35d0fa9a59" x="129.848156" y="97.674461" style="fill: #c85200; stroke: #c85200"/>
     <use xlink:href="#m35d0fa9a59" x="160.901534" y="83.744633" style="fill: #c85200; stroke: #c85200"/>
     <use xlink:href="#m35d0fa9a59" x="178.498123" y="73.384464" style="fill: #c85200; stroke: #c85200"/>
     <use xlink:href="#m35d0fa9a59" x="249.234369" y="40.868748" style="fill: #c85200; stroke: #c85200"/>
     <use xlink:href="#m35d0fa9a59" x="98.859942" y="111.931351" style="fill: #c85200; stroke: #c85200"/>
     <use xlink:href="#m35d0fa9a59" x="196.711882" y="65.96957" style="fill: #c85200; stroke: #c85200"/>
     <use xlink:href="#m35d0fa9a59" x="114.756085" y="103.272238" style="fill: #c85200; stroke: #c85200"/>
     <use xlink:href="#m35d0fa9a59" x="184.997258" y="75.768866" style="fill: #c85200; stroke: #c85200"/>
     <use xlink:href="#m35d0fa9a59" x="250.401992" y="40.457429" style="fill: #c85200; stroke: #c85200"/>
     <use xlink:href="#m35d0fa9a59" x="113.924436" y="107.436" style="fill: #c85200; stroke: #c85200"/>
     <use xlink:href="#m35d0fa9a59" x="182.824458" y="70.966247" style="fill: #c85200; stroke: #c85200"/>
     <use xlink:href="#m35d0fa9a59" x="275.552585" y="23.537358" style="fill: #c85200; stroke: #c85200"/>
     <use xlink:href="#m35d0fa9a59" x="284.375545" y="16.704254" style="fill: #c85200; stroke: #c85200"/>
     <use xlink:href="#m35d0fa9a59" x="223.93983" y="51.280219" style="fill: #c85200; stroke: #c85200"/>
    </g>
   </g>
   <g id="line2d_53">
    <defs>
     <path id="ma0c2118ed7" d="M 0 1.5 
C 0.397805 1.5 0.77937 1.341951 1.06066 1.06066 
C 1.341951 0.77937 1.5 0.397805 1.5 0 
C 1.5 -0.397805 1.341951 -0.77937 1.06066 -1.06066 
C 0.77937 -1.341951 0.397805 -1.5 0 -1.5 
C -0.397805 -1.5 -0.77937 -1.341951 -1.06066 -1.06066 
C -1.341951 -0.77937 -1.5 -0.397805 -1.5 0 
C -1.5 0.397805 -1.341951 0.77937 -1.06066 1.06066 
C -0.77937 1.341951 -0.397805 1.5 0 1.5 
z
" style="stroke: #ff800e"/>
    </defs>
    <g clip-path="url(#p4ccf109e6a)">
     <use xlink:href="#ma0c2118ed7" x="217.026097" y="57.137398" style="fill: #ff800e; stroke: #ff800e"/>
     <use xlink:href="#ma0c2118ed7" x="165.532701" y="75.768866" style="fill: #ff800e; stroke: #ff800e"/>
     <use xlink:href="#ma0c2118ed7" x="141.401461" y="86.993085" style="fill: #ff800e; stroke: #ff800e"/>
     <use xlink:href="#ma0c2118ed7" x="250.815821" y="49.359754" style="fill: #ff800e; stroke: #ff800e"/>
     <use xlink:href="#ma0c2118ed7" x="199.056954" y="67.407234" style="fill: #ff800e; stroke: #ff800e"/>
     <use xlink:href="#ma0c2118ed7" x="99.96742" y="110.413193" style="fill: #ff800e; stroke: #ff800e"/>
     <use xlink:href="#ma0c2118ed7" x="184.730597" y="67.442884" style="fill: #ff800e; stroke: #ff800e"/>
     <use xlink:href="#ma0c2118ed7" x="198.443286" y="64.077796" style="fill: #ff800e; stroke: #ff800e"/>
     <use xlink:href="#ma0c2118ed7" x="108.19803" y="107.874536" style="fill: #ff800e; stroke: #ff800e"/>
     <use xlink:href="#ma0c2118ed7" x="267.418705" y="39.09417" style="fill: #ff800e; stroke: #ff800e"/>
     <use xlink:href="#ma0c2118ed7" x="286.665508" y="36.736858" style="fill: #ff800e; stroke: #ff800e"/>
     <use xlink:href="#ma0c2118ed7" x="89.446417" y="115.339594" style="fill: #ff800e; stroke: #ff800e"/>
     <use xlink:href="#ma0c2118ed7" x="235.585827" y="51.930762" style="fill: #ff800e; stroke: #ff800e"/>
     <use xlink:href="#ma0c2118ed7" x="141.48531" y="96.497522" style="fill: #ff800e; stroke: #ff800e"/>
     <use xlink:href="#ma0c2118ed7" x="286.258432" y="35.883969" style="fill: #ff800e; stroke: #ff800e"/>
     <use xlink:href="#ma0c2118ed7" x="269.391964" y="48.980651" style="fill: #ff800e; stroke: #ff800e"/>
     <use xlink:href="#ma0c2118ed7" x="251.626374" y="50.055184" style="fill: #ff800e; stroke: #ff800e"/>
    </g>
   </g>
   <g id="line2d_54">
    <defs>
     <path id="m8b3ce8cb56" d="M 0 1.5 
C 0.397805 1.5 0.77937 1.341951 1.06066 1.06066 
C 1.341951 0.77937 1.5 0.397805 1.5 0 
C 1.5 -0.397805 1.341951 -0.77937 1.06066 -1.06066 
C 0.77937 -1.341951 0.397805 -1.5 0 -1.5 
C -0.397805 -1.5 -0.77937 -1.341951 -1.06066 -1.06066 
C -1.341951 -0.77937 -1.5 -0.397805 -1.5 0 
C -1.5 0.397805 -1.341951 0.77937 -1.06066 1.06066 
C -0.77937 1.341951 -0.397805 1.5 0 1.5 
z
" style="stroke: #3d4389"/>
    </defs>
    <g clip-path="url(#p4ccf109e6a)">
     <use xlink:href="#m8b3ce8cb56" x="165.665012" y="96.497522" style="fill: #3d4389; stroke: #3d4389"/>
     <use xlink:href="#m8b3ce8cb56" x="211.317916" y="75.086617" style="fill: #3d4389; stroke: #3d4389"/>
     <use xlink:href="#m8b3ce8cb56" x="128.636579" y="109.581363" style="fill: #3d4389; stroke: #3d4389"/>
     <use xlink:href="#m8b3ce8cb56" x="96.361084" y="108.051163" style="fill: #3d4389; stroke: #3d4389"/>
     <use xlink:href="#m8b3ce8cb56" x="108.835603" y="106.743172" style="fill: #3d4389; stroke: #3d4389"/>
     <use xlink:href="#m8b3ce8cb56" x="166.463039" y="81.932771" style="fill: #3d4389; stroke: #3d4389"/>
     <use xlink:href="#m8b3ce8cb56" x="225.791401" y="79.954957" style="fill: #3d4389; stroke: #3d4389"/>
     <use xlink:href="#m8b3ce8cb56" x="118.284658" y="107.001725" style="fill: #3d4389; stroke: #3d4389"/>
     <use xlink:href="#m8b3ce8cb56" x="150.267186" y="95.417434" style="fill: #3d4389; stroke: #3d4389"/>
     <use xlink:href="#m8b3ce8cb56" x="166.463039" y="97.325073" style="fill: #3d4389; stroke: #3d4389"/>
     <use xlink:href="#m8b3ce8cb56" x="225.791401" y="74.62354" style="fill: #3d4389; stroke: #3d4389"/>
     <use xlink:href="#m8b3ce8cb56" x="238.689497" y="73.917184" style="fill: #3d4389; stroke: #3d4389"/>
     <use xlink:href="#m8b3ce8cb56" x="256.48259" y="81.588838" style="fill: #3d4389; stroke: #3d4389"/>
     <use xlink:href="#m8b3ce8cb56" x="296.50935" y="48.839313" style="fill: #3d4389; stroke: #3d4389"/>
     <use xlink:href="#m8b3ce8cb56" x="86.49996" y="115.13175" style="fill: #3d4389; stroke: #3d4389"/>
     <use xlink:href="#m8b3ce8cb56" x="108.835603" y="109.307492" style="fill: #3d4389; stroke: #3d4389"/>
     <use xlink:href="#m8b3ce8cb56" x="108.835603" y="102.640616" style="fill: #3d4389; stroke: #3d4389"/>
     <use xlink:href="#m8b3ce8cb56" x="182.61388" y="93.844727" style="fill: #3d4389; stroke: #3d4389"/>
     <use xlink:href="#m8b3ce8cb56" x="256.48259" y="67.158482" style="fill: #3d4389; stroke: #3d4389"/>
     <use xlink:href="#m8b3ce8cb56" x="55.442296" y="131.472009" style="fill: #3d4389; stroke: #3d4389"/>
    </g>
   </g>
   <g id="line2d_55">
    <defs>
     <path id="madcef37d98" d="M 0 1.5 
C 0.397805 1.5 0.77937 1.341951 1.06066 1.06066 
C 1.341951 0.77937 1.5 0.397805 1.5 0 
C 1.5 -0.397805 1.341951 -0.77937 1.06066 -1.06066 
C 0.77937 -1.341951 0.397805 -1.5 0 -1.5 
C -0.397805 -1.5 -0.77937 -1.341951 -1.06066 -1.06066 
C -1.341951 -0.77937 -1.5 -0.397805 -1.5 0 
C -1.5 0.397805 -1.341951 0.77937 -1.06066 1.06066 
C -0.77937 1.341951 -0.397805 1.5 0 1.5 
z
" style="stroke: #ababab"/>
    </defs>
    <g clip-path="url(#p4ccf109e6a)">
     <use xlink:href="#madcef37d98" x="198.375782" y="82.728988" style="fill: #ababab; stroke: #ababab"/>
     <use xlink:href="#madcef37d98" x="165.564259" y="96.909382" style="fill: #ababab; stroke: #ababab"/>
     <use xlink:href="#madcef37d98" x="141.335946" y="93.587907" style="fill: #ababab; stroke: #ababab"/>
     <use xlink:href="#madcef37d98" x="184.673403" y="84.626461" style="fill: #ababab; stroke: #ababab"/>
    </g>
   </g>
   <g id="line2d_56">
    <defs>
     <path id="m8eb9f390bc" d="M 0 1.5 
C 0.397805 1.5 0.77937 1.341951 1.06066 1.06066 
C 1.341951 0.77937 1.5 0.397805 1.5 0 
C 1.5 -0.397805 1.341951 -0.77937 1.06066 -1.06066 
C 0.77937 -1.341951 0.397805 -1.5 0 -1.5 
C -0.397805 -1.5 -0.77937 -1.341951 -1.06066 -1.06066 
C -1.341951 -0.77937 -1.5 -0.397805 -1.5 0 
C -1.5 0.397805 -1.341951 0.77937 -1.06066 1.06066 
C -0.77937 1.341951 -0.397805 1.5 0 1.5 
z
" style="stroke: #ffbc79"/>
    </defs>
    <g clip-path="url(#p4ccf109e6a)">
     <use xlink:href="#m8eb9f390bc" x="165.216182" y="118.022662" style="fill: #ffbc79; stroke: #ffbc79"/>
     <use xlink:href="#m8eb9f390bc" x="184.385563" y="108.58527" style="fill: #ffbc79; stroke: #ffbc79"/>
     <use xlink:href="#m8eb9f390bc" x="141.214619" y="113.403047" style="fill: #ffbc79; stroke: #ffbc79"/>
     <use xlink:href="#m8eb9f390bc" x="122.061968" y="145.38612" style="fill: #ffbc79; stroke: #ffbc79"/>
     <use xlink:href="#m8eb9f390bc" x="151.708634" y="114.309907" style="fill: #ffbc79; stroke: #ffbc79"/>
     <use xlink:href="#m8eb9f390bc" x="165.200519" y="112.80854" style="fill: #ffbc79; stroke: #ffbc79"/>
    </g>
   </g>
   <g id="line2d_57">
    <defs>
     <path id="m3532f17428" d="M 0 1.5 
C 0.397805 1.5 0.77937 1.341951 1.06066 1.06066 
C 1.341951 0.77937 1.5 0.397805 1.5 0 
C 1.5 -0.397805 1.341951 -0.77937 1.06066 -1.06066 
C 0.77937 -1.341951 0.397805 -1.5 0 -1.5 
C -0.397805 -1.5 -0.77937 -1.341951 -1.06066 -1.06066 
C -1.341951 -0.77937 -1.5 -0.397805 -1.5 0 
C -1.5 0.397805 -1.341951 0.77937 -1.06066 1.06066 
C -0.77937 1.341951 -0.397805 1.5 0 1.5 
z
" style="stroke: #9467bd"/>
    </defs>
    <g clip-path="url(#p4ccf109e6a)">
     <use xlink:href="#m3532f17428" x="108.835603" y="137.717478" style="fill: #9467bd; stroke: #9467bd"/>
    </g>
   </g>
   <g id="patch_3">
    <path d="M 34.396788 156.706693 
L 34.396788 3.00024 
" style="fill: none; stroke: #ffffff; stroke-width: 0.8; stroke-linejoin: miter; stroke-linecap: square"/>
   </g>
   <g id="patch_4">
    <path d="M 320.621149 156.706693 
L 320.621149 3.00024 
" style="fill: none; stroke: #ffffff; stroke-width: 0.8; stroke-linejoin: miter; stroke-linecap: square"/>
   </g>
   <g id="patch_5">
    <path d="M 34.396788 156.706693 
L 320.621149 156.706693 
" style="fill: none; stroke: #ffffff; stroke-width: 0.8; stroke-linejoin: miter; stroke-linecap: square"/>
   </g>
   <g id="patch_6">
    <path d="M 34.396788 3.00024 
L 320.621149 3.00024 
" style="fill: none; stroke: #ffffff; stroke-width: 0.8; stroke-linejoin: miter; stroke-linecap: square"/>
   </g>
   <g id="legend_1">
    <g id="patch_7">
     <path d="M 336.932367 104.58595 
L 416.531671 104.58595 
Q 418.531671 104.58595 418.531671 102.58595 
L 418.531671 5.00024 
Q 418.531671 3.00024 416.531671 3.00024 
L 336.932367 3.00024 
Q 334.932367 3.00024 334.932367 5.00024 
L 334.932367 102.58595 
Q 334.932367 104.58595 336.932367 104.58595 
z
" style="fill: #191919; opacity: 0.8; stroke: #cccccc; stroke-linejoin: miter"/>
    </g>
    <g id="text_6">
     <!-- $v_{\rm s}$ [cm/s] -->
     <g style="fill: #ffffff" transform="translate(357.380264 14.47222) scale(0.1 -0.1)">
      <defs>
       <path id="CMMI12-76" d="M 2925 2389 
C 2925 2791 2720 2816 2669 2816 
C 2515 2816 2374 2663 2374 2535 
C 2374 2459 2419 2414 2445 2389 
C 2509 2331 2675 2159 2675 1827 
C 2675 1558 2291 64 1523 64 
C 1133 64 1056 390 1056 626 
C 1056 945 1203 1392 1376 1852 
C 1478 2114 1504 2178 1504 2305 
C 1504 2574 1312 2816 998 2816 
C 410 2816 173 1890 173 1839 
C 173 1814 198 1782 243 1782 
C 301 1782 307 1807 333 1897 
C 486 2446 736 2689 979 2689 
C 1037 2689 1146 2689 1146 2478 
C 1146 2312 1075 2127 979 1884 
C 672 1067 672 869 672 715 
C 672 575 691 313 890 134 
C 1120 -64 1440 -64 1498 -64 
C 2560 -64 2925 2024 2925 2389 
z
" transform="scale(0.015625)"/>
       <path id="CMR17-73" d="M 1978 2697 
C 1978 2813 1971 2819 1933 2819 
C 1907 2819 1901 2813 1824 2717 
C 1805 2691 1747 2626 1728 2601 
C 1523 2819 1235 2819 1126 2819 
C 416 2819 160 2447 160 2076 
C 160 1498 813 1365 998 1325 
C 1402 1243 1542 1217 1677 1101 
C 1760 1025 1901 884 1901 654 
C 1901 384 1747 38 1158 38 
C 602 38 403 460 288 1021 
C 269 1110 269 1117 218 1117 
C 166 1117 160 1110 160 983 
L 160 63 
C 160 -51 166 -58 205 -58 
C 237 -58 243 -51 275 0 
C 314 57 410 211 448 276 
C 576 103 800 -64 1158 -64 
C 1792 -64 2131 283 2131 784 
C 2131 1112 1958 1285 1875 1362 
C 1683 1561 1459 1606 1190 1657 
C 838 1735 390 1825 390 2217 
C 390 2383 480 2737 1126 2737 
C 1811 2737 1850 2094 1862 1888 
C 1869 1856 1901 1849 1920 1849 
C 1978 1849 1978 1869 1978 1978 
L 1978 2697 
z
" transform="scale(0.015625)"/>
       <path id="CMSS17-2f" d="M 2637 4545 
C 2669 4627 2669 4640 2669 4653 
C 2669 4729 2611 4768 2560 4768 
C 2483 4768 2458 4717 2432 4640 
L 365 -1377 
C 333 -1460 333 -1473 333 -1486 
C 333 -1562 390 -1600 442 -1600 
C 518 -1600 544 -1549 570 -1473 
L 2637 4545 
z
" transform="scale(0.015625)"/>
      </defs>
      <use xlink:href="#CMMI12-76" transform="scale(0.996264)"/>
      <use xlink:href="#CMR17-73" transform="translate(47.160581 -14.943915) scale(0.697382)"/>
      <use xlink:href="#CMSS17-5b" transform="translate(103.948648 0) scale(0.996264)"/>
      <use xlink:href="#CMSS17-63" transform="translate(131.134086 0) scale(0.996264)"/>
      <use xlink:href="#CMSS17-6d" transform="translate(172.772908 0) scale(0.996264)"/>
      <use xlink:href="#CMSS17-2f" transform="translate(247.002163 0) scale(0.996264)"/>
      <use xlink:href="#CMSS17-73" transform="translate(293.845786 0) scale(0.996264)"/>
      <use xlink:href="#CMSS17-5d" transform="translate(329.759328 0) scale(0.996264)"/>
     </g>
    </g>
    <g id="LineCollection_13">
     <path d="M 343.932367 25.46288 
L 353.932367 25.46288 
" style="fill: none; stroke: #c85200; stroke-width: 1.5"/>
    </g>
    <g id="LineCollection_14">
     <path d="M 348.932367 30.46288 
L 348.932367 20.46288 
" style="fill: none; stroke: #c85200; stroke-width: 1.5"/>
    </g>
    <g id="line2d_58"/>
    <g id="line2d_59">
     <g>
      <use xlink:href="#m35d0fa9a59" x="348.932367" y="25.46288" style="fill: #c85200; stroke: #c85200"/>
     </g>
    </g>
    <g id="text_7">
     <!-- Saline -->
     <g style="fill: #ffffff" transform="translate(366.932367 28.96288) scale(0.1 -0.1)">
      <defs>
       <path id="CMSS17-53" d="M 2797 4169 
C 2515 4334 2208 4480 1690 4480 
C 864 4480 333 3879 333 3266 
C 333 3025 403 2753 653 2475 
C 902 2196 1184 2121 1542 2033 
C 1690 1994 1939 1924 1984 1906 
C 2342 1767 2515 1444 2515 1140 
C 2515 742 2202 318 1645 318 
C 1453 318 890 318 358 819 
L 269 318 
C 794 -64 1363 -128 1651 -128 
C 2438 -128 3002 488 3002 1186 
C 3002 1440 2925 1763 2656 2061 
C 2394 2347 2163 2410 1638 2549 
C 1338 2626 1146 2677 986 2873 
C 877 3013 819 3146 819 3317 
C 819 3673 1126 4060 1690 4060 
C 1971 4060 2336 4002 2707 3660 
L 2797 4169 
z
" transform="scale(0.015625)"/>
      </defs>
      <use xlink:href="#CMSS17-53" transform="scale(0.996264)"/>
      <use xlink:href="#CMSS17-61" transform="translate(52.048516 0) scale(0.996264)"/>
      <use xlink:href="#CMSS17-6c" transform="translate(96.970437 0) scale(0.996264)"/>
      <use xlink:href="#CMSS17-69" transform="translate(119.15116 0) scale(0.996264)"/>
      <use xlink:href="#CMSS17-6e" transform="translate(141.331883 0) scale(0.996264)"/>
      <use xlink:href="#CMSS17-65" transform="translate(189.536826 0) scale(0.996264)"/>
     </g>
    </g>
    <g id="LineCollection_15">
     <path d="M 343.932367 39.400058 
L 353.932367 39.400058 
" style="fill: none; stroke: #ff800e; stroke-width: 1.5"/>
    </g>
    <g id="LineCollection_16">
     <path d="M 348.932367 44.400058 
L 348.932367 34.400058 
" style="fill: none; stroke: #ff800e; stroke-width: 1.5"/>
    </g>
    <g id="line2d_60"/>
    <g id="line2d_61">
     <g>
      <use xlink:href="#ma0c2118ed7" x="348.932367" y="39.400058" style="fill: #ff800e; stroke: #ff800e"/>
     </g>
    </g>
    <g id="text_8">
     <!-- $0.32 \pm 0.12$ -->
     <g style="fill: #ffffff" transform="translate(366.932367 42.900058) scale(0.1 -0.1)">
      <defs>
       <path id="CMMI12-3a" d="M 1178 307 
C 1178 492 1024 619 870 619 
C 685 619 557 466 557 313 
C 557 128 710 0 864 0 
C 1050 0 1178 153 1178 307 
z
" transform="scale(0.015625)"/>
       <path id="CMR17-33" d="M 1414 2157 
C 1984 2157 2234 1662 2234 1090 
C 2234 320 1824 25 1453 25 
C 1114 25 563 194 390 693 
C 422 680 454 680 486 680 
C 640 680 755 782 755 948 
C 755 1133 614 1216 486 1216 
C 378 1216 211 1165 211 926 
C 211 335 787 -128 1466 -128 
C 2176 -128 2720 430 2720 1085 
C 2720 1707 2208 2157 1600 2227 
C 2086 2328 2554 2756 2554 3329 
C 2554 3820 2048 4179 1472 4179 
C 890 4179 378 3829 378 3329 
C 378 3110 544 3072 627 3072 
C 762 3072 877 3155 877 3321 
C 877 3486 762 3569 627 3569 
C 602 3569 570 3569 544 3557 
C 730 3959 1235 4032 1459 4032 
C 1683 4032 2106 3925 2106 3320 
C 2106 3143 2080 2828 1862 2550 
C 1670 2304 1453 2304 1242 2284 
C 1210 2284 1062 2269 1037 2269 
C 992 2263 966 2257 966 2208 
C 966 2163 973 2157 1101 2157 
L 1414 2157 
z
" transform="scale(0.015625)"/>
       <path id="CMR17-32" d="M 2669 989 
L 2554 989 
C 2490 536 2438 459 2413 420 
C 2381 369 1920 369 1830 369 
L 602 369 
C 832 619 1280 1072 1824 1597 
C 2214 1967 2669 2402 2669 3035 
C 2669 3790 2067 4224 1395 4224 
C 691 4224 262 3604 262 3030 
C 262 2780 448 2748 525 2748 
C 589 2748 781 2787 781 3010 
C 781 3207 614 3264 525 3264 
C 486 3264 448 3258 422 3245 
C 544 3790 915 4058 1306 4058 
C 1862 4058 2227 3617 2227 3035 
C 2227 2479 1901 2000 1536 1584 
L 262 146 
L 262 0 
L 2515 0 
L 2669 989 
z
" transform="scale(0.015625)"/>
       <path id="CMSY10-6" d="M 2618 1984 
L 4397 1984 
C 4506 1984 4621 1984 4621 2112 
C 4621 2240 4506 2240 4397 2240 
L 2618 2240 
L 2618 4018 
C 2618 4121 2618 4256 2490 4256 
C 2362 4256 2362 4140 2362 4038 
L 2362 2240 
L 576 2240 
C 467 2240 352 2240 352 2112 
C 352 1984 467 1984 576 1984 
L 2362 1984 
L 2362 256 
L 576 256 
C 467 256 352 256 352 128 
C 352 0 467 0 576 0 
L 4397 0 
C 4506 0 4621 0 4621 128 
C 4621 256 4506 256 4397 256 
L 2618 256 
L 2618 1984 
z
" transform="scale(0.015625)"/>
      </defs>
      <use xlink:href="#CMR17-30" transform="scale(0.996264)"/>
      <use xlink:href="#CMMI12-3a" transform="translate(45.690477 0) scale(0.996264)"/>
      <use xlink:href="#CMR17-33" transform="translate(72.787654 0) scale(0.996264)"/>
      <use xlink:href="#CMR17-32" transform="translate(118.478131 0) scale(0.996264)"/>
      <use xlink:href="#CMSY10-6" transform="translate(186.307815 0) scale(0.996264)"/>
      <use xlink:href="#CMR17-30" transform="translate(285.93449 0) scale(0.996264)"/>
      <use xlink:href="#CMMI12-3a" transform="translate(331.624967 0) scale(0.996264)"/>
      <use xlink:href="#CMR17-31" transform="translate(358.722144 0) scale(0.996264)"/>
      <use xlink:href="#CMR17-32" transform="translate(404.412621 0) scale(0.996264)"/>
     </g>
    </g>
    <g id="LineCollection_17">
     <path d="M 343.932367 53.337237 
L 353.932367 53.337237 
" style="fill: none; stroke: #3d4389; stroke-width: 1.5"/>
    </g>
    <g id="LineCollection_18">
     <path d="M 348.932367 58.337237 
L 348.932367 48.337237 
" style="fill: none; stroke: #3d4389; stroke-width: 1.5"/>
    </g>
    <g id="line2d_62"/>
    <g id="line2d_63">
     <g>
      <use xlink:href="#m8b3ce8cb56" x="348.932367" y="53.337237" style="fill: #3d4389; stroke: #3d4389"/>
     </g>
    </g>
    <g id="text_9">
     <!-- $0.74 \pm 0.25$ -->
     <g style="fill: #ffffff" transform="translate(366.932367 56.837237) scale(0.1 -0.1)">
      <defs>
       <path id="CMR17-37" d="M 2886 3941 
L 2886 4081 
L 1382 4081 
C 634 4081 621 4165 595 4288 
L 480 4288 
L 294 3094 
L 410 3094 
C 429 3215 474 3540 550 3661 
C 589 3712 1062 3712 1171 3712 
L 2579 3712 
L 1869 2661 
C 1395 1954 1069 999 1069 165 
C 1069 89 1069 -128 1299 -128 
C 1530 -128 1530 89 1530 171 
L 1530 465 
C 1530 1508 1709 2196 2003 2636 
L 2886 3941 
z
" transform="scale(0.015625)"/>
       <path id="CMR17-34" d="M 2150 4122 
C 2150 4256 2144 4256 2029 4256 
L 128 1254 
L 128 1088 
L 1779 1088 
L 1779 457 
C 1779 224 1766 160 1318 160 
L 1197 160 
L 1197 0 
C 1402 0 1747 0 1965 0 
C 2182 0 2528 0 2733 0 
L 2733 160 
L 2611 160 
C 2163 160 2150 224 2150 457 
L 2150 1088 
L 2803 1088 
L 2803 1254 
L 2150 1254 
L 2150 4122 
z
M 1798 3703 
L 1798 1254 
L 256 1254 
L 1798 3703 
z
" transform="scale(0.015625)"/>
       <path id="CMR17-35" d="M 730 3692 
C 794 3666 1056 3584 1325 3584 
C 1920 3584 2246 3911 2432 4100 
C 2432 4157 2432 4192 2394 4192 
C 2387 4192 2374 4192 2323 4163 
C 2099 4058 1837 3973 1517 3973 
C 1325 3973 1037 3999 723 4139 
C 653 4171 640 4171 634 4171 
C 602 4171 595 4164 595 4037 
L 595 2203 
C 595 2089 595 2057 659 2057 
C 691 2057 704 2070 736 2114 
C 941 2401 1222 2522 1542 2522 
C 1766 2522 2246 2382 2246 1289 
C 2246 1085 2246 715 2054 421 
C 1894 159 1645 25 1370 25 
C 947 25 518 320 403 814 
C 429 807 480 795 506 795 
C 589 795 749 840 749 1038 
C 749 1210 627 1280 506 1280 
C 358 1280 262 1190 262 1011 
C 262 454 704 -128 1382 -128 
C 2042 -128 2669 440 2669 1264 
C 2669 2030 2170 2624 1549 2624 
C 1222 2624 947 2503 730 2274 
L 730 3692 
z
" transform="scale(0.015625)"/>
      </defs>
      <use xlink:href="#CMR17-30" transform="scale(0.996264)"/>
      <use xlink:href="#CMMI12-3a" transform="translate(45.690477 0) scale(0.996264)"/>
      <use xlink:href="#CMR17-37" transform="translate(72.787654 0) scale(0.996264)"/>
      <use xlink:href="#CMR17-34" transform="translate(118.478131 0) scale(0.996264)"/>
      <use xlink:href="#CMSY10-6" transform="translate(186.307815 0) scale(0.996264)"/>
      <use xlink:href="#CMR17-30" transform="translate(285.93449 0) scale(0.996264)"/>
      <use xlink:href="#CMMI12-3a" transform="translate(331.624967 0) scale(0.996264)"/>
      <use xlink:href="#CMR17-32" transform="translate(358.722144 0) scale(0.996264)"/>
      <use xlink:href="#CMR17-35" transform="translate(404.412621 0) scale(0.996264)"/>
     </g>
    </g>
    <g id="LineCollection_19">
     <path d="M 343.932367 67.274415 
L 353.932367 67.274415 
" style="fill: none; stroke: #ababab; stroke-width: 1.5"/>
    </g>
    <g id="LineCollection_20">
     <path d="M 348.932367 72.274415 
L 348.932367 62.274415 
" style="fill: none; stroke: #ababab; stroke-width: 1.5"/>
    </g>
    <g id="line2d_64"/>
    <g id="line2d_65">
     <g>
      <use xlink:href="#madcef37d98" x="348.932367" y="67.274415" style="fill: #ababab; stroke: #ababab"/>
     </g>
    </g>
    <g id="text_10">
     <!-- $1.1 \pm 0.5$ -->
     <g style="fill: #ffffff" transform="translate(366.932367 70.774415) scale(0.1 -0.1)">
      <use xlink:href="#CMR17-31" transform="scale(0.996264)"/>
      <use xlink:href="#CMMI12-3a" transform="translate(45.690477 0) scale(0.996264)"/>
      <use xlink:href="#CMR17-31" transform="translate(72.787654 0) scale(0.996264)"/>
      <use xlink:href="#CMSY10-6" transform="translate(140.617338 0) scale(0.996264)"/>
      <use xlink:href="#CMR17-30" transform="translate(240.244013 0) scale(0.996264)"/>
      <use xlink:href="#CMMI12-3a" transform="translate(285.93449 0) scale(0.996264)"/>
      <use xlink:href="#CMR17-35" transform="translate(313.031667 0) scale(0.996264)"/>
     </g>
    </g>
    <g id="LineCollection_21">
     <path d="M 343.932367 81.211593 
L 353.932367 81.211593 
" style="fill: none; stroke: #ffbc79; stroke-width: 1.5"/>
    </g>
    <g id="LineCollection_22">
     <path d="M 348.932367 86.211593 
L 348.932367 76.211593 
" style="fill: none; stroke: #ffbc79; stroke-width: 1.5"/>
    </g>
    <g id="line2d_66"/>
    <g id="line2d_67">
     <g>
      <use xlink:href="#m8eb9f390bc" x="348.932367" y="81.211593" style="fill: #ffbc79; stroke: #ffbc79"/>
     </g>
    </g>
    <g id="text_11">
     <!-- $1.9 \pm 0.8$ -->
     <g style="fill: #ffffff" transform="translate(366.932367 84.711593) scale(0.1 -0.1)">
      <defs>
       <path id="CMR17-39" d="M 2253 1864 
C 2253 464 1670 31 1190 31 
C 1043 31 685 31 538 294 
C 704 268 826 357 826 518 
C 826 692 685 749 595 749 
C 538 749 365 723 365 506 
C 365 71 742 -128 1203 -128 
C 1939 -128 2688 674 2688 2073 
C 2688 3817 1971 4179 1485 4179 
C 851 4179 243 3628 243 2778 
C 243 1991 762 1408 1414 1408 
C 1952 1408 2189 1903 2253 2112 
L 2253 1864 
z
M 1427 1510 
C 1254 1510 1011 1542 813 1922 
C 678 2169 678 2461 678 2771 
C 678 3146 678 3405 858 3684 
C 947 3817 1114 4032 1485 4032 
C 2240 4032 2240 2885 2240 2632 
C 2240 2182 2035 1510 1427 1510 
z
" transform="scale(0.015625)"/>
       <path id="CMR17-38" d="M 1741 2264 
C 2144 2467 2554 2773 2554 3263 
C 2554 3841 1990 4179 1472 4179 
C 890 4179 378 3759 378 3180 
C 378 3021 416 2747 666 2505 
C 730 2442 998 2251 1171 2130 
C 883 1983 211 1634 211 934 
C 211 279 838 -128 1459 -128 
C 2144 -128 2720 362 2720 1010 
C 2720 1590 2330 1857 2074 2029 
L 1741 2264 
z
M 902 2822 
C 851 2854 595 3051 595 3351 
C 595 3739 998 4032 1459 4032 
C 1965 4032 2336 3676 2336 3262 
C 2336 2669 1670 2331 1638 2331 
C 1632 2331 1626 2331 1574 2370 
L 902 2822 
z
M 2080 1519 
C 2176 1449 2483 1240 2483 851 
C 2483 381 2010 25 1472 25 
C 890 25 448 438 448 940 
C 448 1443 838 1862 1280 2060 
L 2080 1519 
z
" transform="scale(0.015625)"/>
      </defs>
      <use xlink:href="#CMR17-31" transform="scale(0.996264)"/>
      <use xlink:href="#CMMI12-3a" transform="translate(45.690477 0) scale(0.996264)"/>
      <use xlink:href="#CMR17-39" transform="translate(72.787654 0) scale(0.996264)"/>
      <use xlink:href="#CMSY10-6" transform="translate(140.617338 0) scale(0.996264)"/>
      <use xlink:href="#CMR17-30" transform="translate(240.244013 0) scale(0.996264)"/>
      <use xlink:href="#CMMI12-3a" transform="translate(285.93449 0) scale(0.996264)"/>
      <use xlink:href="#CMR17-38" transform="translate(313.031667 0) scale(0.996264)"/>
     </g>
    </g>
    <g id="LineCollection_23">
     <path d="M 343.932367 95.148772 
L 353.932367 95.148772 
" style="fill: none; stroke: #9467bd; stroke-width: 1.5"/>
    </g>
    <g id="LineCollection_24">
     <path d="M 348.932367 100.148772 
L 348.932367 90.148772 
" style="fill: none; stroke: #9467bd; stroke-width: 1.5"/>
    </g>
    <g id="line2d_68"/>
    <g id="line2d_69">
     <g>
      <use xlink:href="#m3532f17428" x="348.932367" y="95.148772" style="fill: #9467bd; stroke: #9467bd"/>
     </g>
    </g>
    <g id="text_12">
     <!-- $3.2 \pm 1.5$ -->
     <g style="fill: #ffffff" transform="translate(366.932367 98.648772) scale(0.1 -0.1)">
      <use xlink:href="#CMR17-33" transform="scale(0.996264)"/>
      <use xlink:href="#CMMI12-3a" transform="translate(45.690477 0) scale(0.996264)"/>
      <use xlink:href="#CMR17-32" transform="translate(72.787654 0) scale(0.996264)"/>
      <use xlink:href="#CMSY10-6" transform="translate(140.617338 0) scale(0.996264)"/>
      <use xlink:href="#CMR17-31" transform="translate(240.244013 0) scale(0.996264)"/>
      <use xlink:href="#CMMI12-3a" transform="translate(285.93449 0) scale(0.996264)"/>
      <use xlink:href="#CMR17-35" transform="translate(313.031667 0) scale(0.996264)"/>
     </g>
    </g>
   </g>
   <g id="legend_2">
    <g id="patch_8">
     <path d="M 336.932367 156.706693 
L 416.185724 156.706693 
Q 418.185724 156.706693 418.185724 154.706693 
L 418.185724 141.769514 
Q 418.185724 139.769514 416.185724 139.769514 
L 336.932367 139.769514 
Q 334.932367 139.769514 334.932367 141.769514 
L 334.932367 154.706693 
Q 334.932367 156.706693 336.932367 156.706693 
z
" style="fill: #191919; opacity: 0.8; stroke: #cccccc; stroke-linejoin: miter"/>
    </g>
    <g id="line2d_70">
     <path d="M 338.932367 147.269514 
L 348.932367 147.269514 
L 358.932367 147.269514 
" style="fill: none; stroke-dasharray: 3.7,1.6; stroke-dashoffset: 0; stroke: #ffffff"/>
    </g>
    <g id="text_13">
     <!-- $t_{\rm end} = 30t_{0}$ -->
     <g style="fill: #ffffff" transform="translate(366.932367 150.769514) scale(0.1 -0.1)">
      <use xlink:href="#CMMI12-74" transform="scale(0.996264)"/>
      <use xlink:href="#CMR17-65" transform="translate(35.22633 -14.943915) scale(0.697382)"/>
      <use xlink:href="#CMR17-6e" transform="translate(63.566162 -14.943915) scale(0.697382)"/>
      <use xlink:href="#CMR17-64" transform="translate(99.19277 -14.943915) scale(0.697382)"/>
      <use xlink:href="#CMR17-3d" transform="translate(162.991519 0) scale(0.996264)"/>
      <use xlink:href="#CMR17-33" transform="translate(262.380316 0) scale(0.996264)"/>
      <use xlink:href="#CMR17-30" transform="translate(308.070793 0) scale(0.996264)"/>
      <use xlink:href="#CMMI12-74" transform="translate(353.761271 0) scale(0.996264)"/>
      <use xlink:href="#CMR17-30" transform="translate(388.987601 -14.943915) scale(0.697382)"/>
     </g>
    </g>
   </g>
  </g>
 </g>
 <defs>
  <clipPath id="p4ccf109e6a">
   <rect x="34.396788" y="3.00024" width="286.224361" height="153.706453"/>
  </clipPath>
 </defs>
</svg>
