<?xml version="1.0" encoding="utf-8" standalone="no"?>
<!DOCTYPE svg PUBLIC "-//W3C//DTD SVG 1.1//EN"
  "http://www.w3.org/Graphics/SVG/1.1/DTD/svg11.dtd">
<svg xmlns:xlink="http://www.w3.org/1999/xlink" width="357.918343pt" height="192.226091pt" viewBox="0 0 357.918343 192.226091" xmlns="http://www.w3.org/2000/svg" version="1.1">
 <metadata>
  <rdf:RDF xmlns:dc="http://purl.org/dc/elements/1.1/" xmlns:cc="http://creativecommons.org/ns#" xmlns:rdf="http://www.w3.org/1999/02/22-rdf-syntax-ns#">
   <cc:Work>
    <dc:type rdf:resource="http://purl.org/dc/dcmitype/StillImage"/>
    <dc:date>2023-06-21T18:01:23.527509</dc:date>
    <dc:format>image/svg+xml</dc:format>
    <dc:creator>
     <cc:Agent>
      <dc:title>Matplotlib v3.7.1, https://matplotlib.org/</dc:title>
     </cc:Agent>
    </dc:creator>
   </cc:Work>
  </rdf:RDF>
 </metadata>
 <defs>
  <style type="text/css">*{stroke-linejoin: round; stroke-linecap: butt}</style>
 </defs>
 <g id="figure_1">
  <g id="patch_1">
   <path d="M 0 192.226091 
L 357.918343 192.226091 
L 357.918343 0 
L 0 0 
z
" style="fill: #191919"/>
  </g>
  <g id="axes_1">
   <g id="patch_2">
    <path d="M 33.552694 162.907534 
L 349.936768 162.907534 
L 349.936768 3.00024 
L 33.552694 3.00024 
z
" style="fill: #191919"/>
   </g>
   <g id="PathCollection_1">
    <defs>
     <path id="C0_0_31392f3be4" d="M -0 4.242641 
L 2.545584 -0 
L 0 -4.242641 
L -2.545584 -0 
z
"/>
    </defs>
    <g clip-path="url(#p35607fb32d)">
     <use xlink:href="#C0_0_31392f3be4" x="38.420141" y="100.745319" style="fill: #ff7f0e"/>
    </g>
    <g clip-path="url(#p35607fb32d)">
     <use xlink:href="#C0_0_31392f3be4" x="38.420141" y="84.575957" style="fill: #ff7f0e"/>
    </g>
    <g clip-path="url(#p35607fb32d)">
     <use xlink:href="#C0_0_31392f3be4" x="38.420141" y="81.342084" style="fill: #ff7f0e"/>
    </g>
    <g clip-path="url(#p35607fb32d)">
     <use xlink:href="#C0_0_31392f3be4" x="38.420141" y="75.798303" style="fill: #ff7f0e"/>
    </g>
    <g clip-path="url(#p35607fb32d)">
     <use xlink:href="#C0_0_31392f3be4" x="135.384309" y="77.184248" style="fill: #ff7f0e"/>
    </g>
    <g clip-path="url(#p35607fb32d)">
     <use xlink:href="#C0_0_31392f3be4" x="135.12779" y="73.488394" style="fill: #ff7f0e"/>
    </g>
    <g clip-path="url(#p35607fb32d)">
     <use xlink:href="#C0_0_31392f3be4" x="165.397027" y="44.537535" style="fill: #ff7f0e"/>
    </g>
    <g clip-path="url(#p35607fb32d)">
     <use xlink:href="#C0_0_31392f3be4" x="165.397027" y="40.379699" style="fill: #ff7f0e"/>
    </g>
    <g clip-path="url(#p35607fb32d)">
     <use xlink:href="#C0_0_31392f3be4" x="165.397027" y="63.94077" style="fill: #ff7f0e"/>
    </g>
    <g clip-path="url(#p35607fb32d)">
     <use xlink:href="#C0_0_31392f3be4" x="165.397027" y="70.408515" style="fill: #ff7f0e"/>
    </g>
    <g clip-path="url(#p35607fb32d)">
     <use xlink:href="#C0_0_31392f3be4" x="232.861514" y="92.429647" style="fill: #ff7f0e"/>
    </g>
    <g clip-path="url(#p35607fb32d)">
     <use xlink:href="#C0_0_31392f3be4" x="232.604995" y="81.034096" style="fill: #ff7f0e"/>
    </g>
    <g clip-path="url(#p35607fb32d)">
     <use xlink:href="#C0_0_31392f3be4" x="232.604995" y="54.085159" style="fill: #ff7f0e"/>
    </g>
    <g clip-path="url(#p35607fb32d)">
     <use xlink:href="#C0_0_31392f3be4" x="232.604995" y="78.262205" style="fill: #ff7f0e"/>
    </g>
    <g clip-path="url(#p35607fb32d)">
     <use xlink:href="#C0_0_31392f3be4" x="213.109554" y="81.034096" style="fill: #ff7f0e"/>
    </g>
    <g clip-path="url(#p35607fb32d)">
     <use xlink:href="#C0_0_31392f3be4" x="213.109554" y="77.030254" style="fill: #ff7f0e"/>
    </g>
    <g clip-path="url(#p35607fb32d)">
     <use xlink:href="#C0_0_31392f3be4" x="290.834799" y="58.550983" style="fill: #ff7f0e"/>
    </g>
    <g clip-path="url(#p35607fb32d)">
     <use xlink:href="#C0_0_31392f3be4" x="290.834799" y="71.948454" style="fill: #ff7f0e"/>
    </g>
    <g clip-path="url(#p35607fb32d)">
     <use xlink:href="#C0_0_31392f3be4" x="291.091318" y="39.763724" style="fill: #ff7f0e"/>
    </g>
    <g clip-path="url(#p35607fb32d)">
     <use xlink:href="#C0_0_31392f3be4" x="246.2005" y="10.504877" style="fill: #ff7f0e"/>
    </g>
    <g clip-path="url(#p35607fb32d)">
     <use xlink:href="#C0_0_31392f3be4" x="369.329601" y="61.014886" style="fill: #ff7f0e"/>
    </g>
    <g clip-path="url(#p35607fb32d)">
     <use xlink:href="#C0_0_31392f3be4" x="334.699542" y="52.083238" style="fill: #ff7f0e"/>
    </g>
    <g clip-path="url(#p35607fb32d)">
     <use xlink:href="#C0_0_31392f3be4" x="334.699542" y="45.153511" style="fill: #ff7f0e"/>
    </g>
    <g clip-path="url(#p35607fb32d)">
     <use xlink:href="#C0_0_31392f3be4" x="334.699542" y="28.368173" style="fill: #ff7f0e"/>
    </g>
    <g clip-path="url(#p35607fb32d)">
     <use xlink:href="#C0_0_31392f3be4" x="369.329601" y="28.060185" style="fill: #ff7f0e"/>
    </g>
    <g clip-path="url(#p35607fb32d)">
     <use xlink:href="#C0_0_31392f3be4" x="369.329601" y="25.134301" style="fill: #ff7f0e"/>
    </g>
    <g clip-path="url(#p35607fb32d)">
     <use xlink:href="#C0_0_31392f3be4" x="369.073082" y="16.356647" style="fill: #ff7f0e"/>
    </g>
   </g>
   <g id="PathCollection_2">
    <path d="M 38.184247 66.305514 
L 35.184247 72.305514 
L 41.184247 72.305514 
z
" clip-path="url(#p35607fb32d)" style="fill: #2ca02c"/>
    <path d="M 77.185809 61.971233 
L 74.185809 67.971233 
L 80.185809 67.971233 
z
" clip-path="url(#p35607fb32d)" style="fill: #2ca02c"/>
    <path d="M 135.401248 55.977015 
L 132.401248 61.977015 
L 138.401248 61.977015 
z
" clip-path="url(#p35607fb32d)" style="fill: #2ca02c"/>
    <path d="M 174.408455 52.288265 
L 171.408455 58.288265 
L 177.408455 58.288265 
z
" clip-path="url(#p35607fb32d)" style="fill: #2ca02c"/>
    <path d="M 232.647282 48.968391 
L 229.647282 54.968391 
L 235.647282 54.968391 
z
" clip-path="url(#p35607fb32d)" style="fill: #2ca02c"/>
    <path d="M 427.751464 38.317126 
L 424.751464 44.317126 
L 430.751464 44.317126 
z
" clip-path="url(#p35607fb32d)" style="fill: #2ca02c"/>
    <path d="M 622.310872 32.000143 
L 619.310872 38.000143 
L 625.310872 38.000143 
z
" clip-path="url(#p35607fb32d)" style="fill: #2ca02c"/>
    <path d="M 719.023826 30.662971 
L 716.023826 36.662971 
L 722.023826 36.662971 
z
" clip-path="url(#p35607fb32d)" style="fill: #2ca02c"/>
    <path d="M 816.907782 29.97133 
L 813.907782 35.97133 
L 819.907782 35.97133 
z
" clip-path="url(#p35607fb32d)" style="fill: #2ca02c"/>
    <path d="M 1011.531305 30.985736 
L 1008.531305 36.985736 
L 1014.531305 36.985736 
z
" clip-path="url(#p35607fb32d)" style="fill: #2ca02c"/>
    <path d="M 1206.17499 34.305611 
L 1203.17499 40.305611 
L 1209.17499 40.305611 
z
" clip-path="url(#p35607fb32d)" style="fill: #2ca02c"/>
    <path d="M 1400.845288 40.668704 
L 1397.845288 46.668704 
L 1403.845288 46.668704 
z
" clip-path="url(#p35607fb32d)" style="fill: #2ca02c"/>
   </g>
   <g id="matplotlib.axis_1">
    <g id="xtick_1">
     <g id="line2d_1">
      <defs>
       <path id="m7441400540" d="M 0 0 
L 0 -2.5 
" style="stroke: #ffffff; stroke-width: 0.8"/>
      </defs>
      <g>
       <use xlink:href="#m7441400540" x="38.420141" y="162.907534" style="fill: #ffffff; stroke: #ffffff; stroke-width: 0.8"/>
      </g>
     </g>
     <g id="line2d_2">
      <defs>
       <path id="m0687b4d68c" d="M 0 0 
L 0 2.5 
" style="stroke: #ffffff; stroke-width: 0.8"/>
      </defs>
      <g>
       <use xlink:href="#m0687b4d68c" x="38.420141" y="3.00024" style="fill: #ffffff; stroke: #ffffff; stroke-width: 0.8"/>
      </g>
     </g>
     <g id="text_1">
      <!-- $\mathdefault{0}$ -->
      <g style="fill: #ffffff" transform="translate(35.929474 173.326033) scale(0.1 -0.1)">
       <defs>
        <path id="CMR17-30" d="M 2688 2025 
C 2688 2416 2682 3080 2413 3591 
C 2176 4039 1798 4198 1466 4198 
C 1158 4198 768 4058 525 3597 
C 269 3118 243 2524 243 2025 
C 243 1661 250 1106 448 619 
C 723 -39 1216 -128 1466 -128 
C 1760 -128 2208 -7 2470 600 
C 2662 1042 2688 1559 2688 2025 
z
M 1466 -26 
C 1056 -26 813 325 723 812 
C 653 1188 653 1738 653 2096 
C 653 2588 653 2997 736 3387 
C 858 3929 1216 4096 1466 4096 
C 1728 4096 2067 3923 2189 3400 
C 2272 3036 2278 2607 2278 2096 
C 2278 1680 2278 1169 2202 792 
C 2067 95 1690 -26 1466 -26 
z
" transform="scale(0.015625)"/>
       </defs>
       <use xlink:href="#CMR17-30" transform="scale(0.996264)"/>
      </g>
     </g>
    </g>
    <g id="xtick_2">
     <g id="line2d_3">
      <g>
       <use xlink:href="#m7441400540" x="77.35972" y="162.907534" style="fill: #ffffff; stroke: #ffffff; stroke-width: 0.8"/>
      </g>
     </g>
     <g id="line2d_4">
      <g>
       <use xlink:href="#m0687b4d68c" x="77.35972" y="3.00024" style="fill: #ffffff; stroke: #ffffff; stroke-width: 0.8"/>
      </g>
     </g>
     <g id="text_2">
      <!-- $\mathdefault{2}$ -->
      <g style="fill: #ffffff" transform="translate(74.869052 173.326033) scale(0.1 -0.1)">
       <defs>
        <path id="CMR17-32" d="M 2669 989 
L 2554 989 
C 2490 536 2438 459 2413 420 
C 2381 369 1920 369 1830 369 
L 602 369 
C 832 619 1280 1072 1824 1597 
C 2214 1967 2669 2402 2669 3035 
C 2669 3790 2067 4224 1395 4224 
C 691 4224 262 3604 262 3030 
C 262 2780 448 2748 525 2748 
C 589 2748 781 2787 781 3010 
C 781 3207 614 3264 525 3264 
C 486 3264 448 3258 422 3245 
C 544 3790 915 4058 1306 4058 
C 1862 4058 2227 3617 2227 3035 
C 2227 2479 1901 2000 1536 1584 
L 262 146 
L 262 0 
L 2515 0 
L 2669 989 
z
" transform="scale(0.015625)"/>
       </defs>
       <use xlink:href="#CMR17-32" transform="scale(0.996264)"/>
      </g>
     </g>
    </g>
    <g id="xtick_3">
     <g id="line2d_5">
      <g>
       <use xlink:href="#m7441400540" x="116.299298" y="162.907534" style="fill: #ffffff; stroke: #ffffff; stroke-width: 0.8"/>
      </g>
     </g>
     <g id="line2d_6">
      <g>
       <use xlink:href="#m0687b4d68c" x="116.299298" y="3.00024" style="fill: #ffffff; stroke: #ffffff; stroke-width: 0.8"/>
      </g>
     </g>
     <g id="text_3">
      <!-- $\mathdefault{4}$ -->
      <g style="fill: #ffffff" transform="translate(113.80863 173.326033) scale(0.1 -0.1)">
       <defs>
        <path id="CMR17-34" d="M 2150 4122 
C 2150 4256 2144 4256 2029 4256 
L 128 1254 
L 128 1088 
L 1779 1088 
L 1779 457 
C 1779 224 1766 160 1318 160 
L 1197 160 
L 1197 0 
C 1402 0 1747 0 1965 0 
C 2182 0 2528 0 2733 0 
L 2733 160 
L 2611 160 
C 2163 160 2150 224 2150 457 
L 2150 1088 
L 2803 1088 
L 2803 1254 
L 2150 1254 
L 2150 4122 
z
M 1798 3703 
L 1798 1254 
L 256 1254 
L 1798 3703 
z
" transform="scale(0.015625)"/>
       </defs>
       <use xlink:href="#CMR17-34" transform="scale(0.996264)"/>
      </g>
     </g>
    </g>
    <g id="xtick_4">
     <g id="line2d_7">
      <g>
       <use xlink:href="#m7441400540" x="155.238876" y="162.907534" style="fill: #ffffff; stroke: #ffffff; stroke-width: 0.8"/>
      </g>
     </g>
     <g id="line2d_8">
      <g>
       <use xlink:href="#m0687b4d68c" x="155.238876" y="3.00024" style="fill: #ffffff; stroke: #ffffff; stroke-width: 0.8"/>
      </g>
     </g>
     <g id="text_4">
      <!-- $\mathdefault{6}$ -->
      <g style="fill: #ffffff" transform="translate(152.748209 173.326033) scale(0.1 -0.1)">
       <defs>
        <path id="CMR17-36" d="M 678 2176 
C 678 3690 1395 4032 1811 4032 
C 1946 4032 2272 4009 2400 3776 
C 2298 3776 2106 3776 2106 3553 
C 2106 3381 2246 3323 2336 3323 
C 2394 3323 2566 3348 2566 3560 
C 2566 3954 2246 4179 1805 4179 
C 1043 4179 243 3390 243 1984 
C 243 253 966 -128 1478 -128 
C 2099 -128 2688 427 2688 1283 
C 2688 2081 2170 2662 1517 2662 
C 1126 2662 838 2407 678 1960 
L 678 2176 
z
M 1478 25 
C 691 25 691 1200 691 1436 
C 691 1896 909 2560 1504 2560 
C 1613 2560 1926 2560 2138 2120 
C 2253 1870 2253 1609 2253 1289 
C 2253 944 2253 690 2118 434 
C 1978 171 1773 25 1478 25 
z
" transform="scale(0.015625)"/>
       </defs>
       <use xlink:href="#CMR17-36" transform="scale(0.996264)"/>
      </g>
     </g>
    </g>
    <g id="xtick_5">
     <g id="line2d_9">
      <g>
       <use xlink:href="#m7441400540" x="194.178455" y="162.907534" style="fill: #ffffff; stroke: #ffffff; stroke-width: 0.8"/>
      </g>
     </g>
     <g id="line2d_10">
      <g>
       <use xlink:href="#m0687b4d68c" x="194.178455" y="3.00024" style="fill: #ffffff; stroke: #ffffff; stroke-width: 0.8"/>
      </g>
     </g>
     <g id="text_5">
      <!-- $\mathdefault{8}$ -->
      <g style="fill: #ffffff" transform="translate(191.687787 173.326033) scale(0.1 -0.1)">
       <defs>
        <path id="CMR17-38" d="M 1741 2264 
C 2144 2467 2554 2773 2554 3263 
C 2554 3841 1990 4179 1472 4179 
C 890 4179 378 3759 378 3180 
C 378 3021 416 2747 666 2505 
C 730 2442 998 2251 1171 2130 
C 883 1983 211 1634 211 934 
C 211 279 838 -128 1459 -128 
C 2144 -128 2720 362 2720 1010 
C 2720 1590 2330 1857 2074 2029 
L 1741 2264 
z
M 902 2822 
C 851 2854 595 3051 595 3351 
C 595 3739 998 4032 1459 4032 
C 1965 4032 2336 3676 2336 3262 
C 2336 2669 1670 2331 1638 2331 
C 1632 2331 1626 2331 1574 2370 
L 902 2822 
z
M 2080 1519 
C 2176 1449 2483 1240 2483 851 
C 2483 381 2010 25 1472 25 
C 890 25 448 438 448 940 
C 448 1443 838 1862 1280 2060 
L 2080 1519 
z
" transform="scale(0.015625)"/>
       </defs>
       <use xlink:href="#CMR17-38" transform="scale(0.996264)"/>
      </g>
     </g>
    </g>
    <g id="xtick_6">
     <g id="line2d_11">
      <g>
       <use xlink:href="#m7441400540" x="233.118033" y="162.907534" style="fill: #ffffff; stroke: #ffffff; stroke-width: 0.8"/>
      </g>
     </g>
     <g id="line2d_12">
      <g>
       <use xlink:href="#m0687b4d68c" x="233.118033" y="3.00024" style="fill: #ffffff; stroke: #ffffff; stroke-width: 0.8"/>
      </g>
     </g>
     <g id="text_6">
      <!-- $\mathdefault{10}$ -->
      <g style="fill: #ffffff" transform="translate(228.136698 173.326033) scale(0.1 -0.1)">
       <defs>
        <path id="CMR17-31" d="M 1702 4058 
C 1702 4192 1696 4192 1606 4192 
C 1357 3916 979 3827 621 3827 
C 602 3827 570 3827 563 3808 
C 557 3795 557 3782 557 3648 
C 755 3648 1088 3686 1344 3839 
L 1344 461 
C 1344 236 1331 160 781 160 
L 589 160 
L 589 0 
C 896 0 1216 0 1523 0 
C 1830 0 2150 0 2458 0 
L 2458 160 
L 2266 160 
C 1715 160 1702 230 1702 458 
L 1702 4058 
z
" transform="scale(0.015625)"/>
       </defs>
       <use xlink:href="#CMR17-31" transform="scale(0.996264)"/>
       <use xlink:href="#CMR17-30" transform="translate(45.690477 0) scale(0.996264)"/>
      </g>
     </g>
    </g>
    <g id="xtick_7">
     <g id="line2d_13">
      <g>
       <use xlink:href="#m7441400540" x="272.057611" y="162.907534" style="fill: #ffffff; stroke: #ffffff; stroke-width: 0.8"/>
      </g>
     </g>
     <g id="line2d_14">
      <g>
       <use xlink:href="#m0687b4d68c" x="272.057611" y="3.00024" style="fill: #ffffff; stroke: #ffffff; stroke-width: 0.8"/>
      </g>
     </g>
     <g id="text_7">
      <!-- $\mathdefault{12}$ -->
      <g style="fill: #ffffff" transform="translate(267.076276 173.326033) scale(0.1 -0.1)">
       <use xlink:href="#CMR17-31" transform="scale(0.996264)"/>
       <use xlink:href="#CMR17-32" transform="translate(45.690477 0) scale(0.996264)"/>
      </g>
     </g>
    </g>
    <g id="xtick_8">
     <g id="line2d_15">
      <g>
       <use xlink:href="#m7441400540" x="310.99719" y="162.907534" style="fill: #ffffff; stroke: #ffffff; stroke-width: 0.8"/>
      </g>
     </g>
     <g id="line2d_16">
      <g>
       <use xlink:href="#m0687b4d68c" x="310.99719" y="3.00024" style="fill: #ffffff; stroke: #ffffff; stroke-width: 0.8"/>
      </g>
     </g>
     <g id="text_8">
      <!-- $\mathdefault{14}$ -->
      <g style="fill: #ffffff" transform="translate(306.015854 173.326033) scale(0.1 -0.1)">
       <use xlink:href="#CMR17-31" transform="scale(0.996264)"/>
       <use xlink:href="#CMR17-34" transform="translate(45.690477 0) scale(0.996264)"/>
      </g>
     </g>
    </g>
    <g id="xtick_9">
     <g id="line2d_17">
      <g>
       <use xlink:href="#m7441400540" x="349.936768" y="162.907534" style="fill: #ffffff; stroke: #ffffff; stroke-width: 0.8"/>
      </g>
     </g>
     <g id="line2d_18">
      <g>
       <use xlink:href="#m0687b4d68c" x="349.936768" y="3.00024" style="fill: #ffffff; stroke: #ffffff; stroke-width: 0.8"/>
      </g>
     </g>
     <g id="text_9">
      <!-- $\mathdefault{16}$ -->
      <g style="fill: #ffffff" transform="translate(344.955433 173.326033) scale(0.1 -0.1)">
       <use xlink:href="#CMR17-31" transform="scale(0.996264)"/>
       <use xlink:href="#CMR17-36" transform="translate(45.690477 0) scale(0.996264)"/>
      </g>
     </g>
    </g>
    <g id="text_10">
     <!-- Bottom slope, $\theta ~(^\circ)$ -->
     <g style="fill: #ffffff" transform="translate(150.365122 186.735191) scale(0.1 -0.1)">
      <defs>
       <path id="CMSS17-42" d="M 570 4416 
L 570 0 
L 2163 0 
C 3034 0 3667 574 3667 1200 
C 3667 1685 3251 2176 2502 2317 
C 3334 2558 3501 3040 3501 3313 
C 3501 3883 2874 4416 1997 4416 
L 570 4416 
z
M 1088 2496 
L 1088 4059 
L 1824 4059 
C 2483 4059 3002 3724 3002 3306 
C 3002 2926 2592 2496 1766 2496 
L 1088 2496 
z
M 1088 357 
L 1088 2107 
L 1939 2107 
C 2630 2107 3162 1679 3162 1206 
C 3162 772 2694 357 1984 357 
L 1088 357 
z
" transform="scale(0.015625)"/>
       <path id="CMSS17-6f" d="M 2829 1356 
C 2829 2176 2221 2816 1504 2816 
C 768 2816 173 2157 173 1356 
C 173 544 787 -64 1498 -64 
C 2227 -64 2829 563 2829 1356 
z
M 1504 337 
C 1050 337 659 709 659 1408 
C 659 2151 1114 2427 1498 2427 
C 1914 2427 2342 2126 2342 1408 
C 2342 683 1926 337 1504 337 
z
" transform="scale(0.015625)"/>
       <path id="CMSS17-74" d="M 1069 2368 
L 1901 2368 
L 1901 2737 
L 1069 2737 
L 1069 3520 
L 614 3520 
L 614 2737 
L 109 2737 
L 109 2368 
L 602 2368 
L 602 749 
C 602 384 685 -64 1107 -64 
C 1427 -64 1722 25 2003 172 
L 1901 548 
C 1747 414 1562 337 1363 337 
C 1082 337 1069 696 1069 856 
L 1069 2368 
z
" transform="scale(0.015625)"/>
       <path id="CMSS17-6d" d="M 4288 1877 
C 4288 2308 4179 2816 3462 2816 
C 2982 2816 2694 2516 2566 2331 
C 2451 2670 2182 2816 1798 2816 
C 1363 2816 1088 2568 941 2389 
L 941 2758 
L 474 2758 
L 474 0 
L 960 0 
L 960 1559 
C 960 1939 1101 2428 1555 2428 
C 2138 2428 2138 2016 2138 1829 
L 2138 0 
L 2624 0 
L 2624 1559 
C 2624 1939 2765 2428 3219 2428 
C 3802 2428 3802 2016 3802 1829 
L 3802 0 
L 4288 0 
L 4288 1877 
z
" transform="scale(0.015625)"/>
       <path id="CMSS17-73" d="M 2061 2627 
C 1683 2807 1389 2807 1197 2807 
C 742 2807 198 2648 198 2003 
C 198 1359 902 1218 1094 1179 
C 1389 1122 1715 1058 1715 740 
C 1715 337 1254 337 1171 337 
C 915 337 563 407 243 638 
L 166 210 
C 531 0 883 -64 1178 -64 
C 1965 -64 2163 416 2163 781 
C 2163 1094 1984 1305 1862 1401 
C 1651 1568 1574 1587 1050 1696 
C 960 1709 646 1779 646 2066 
C 646 2432 1050 2432 1139 2432 
C 1555 2432 1811 2303 1984 2208 
L 2061 2627 
z
" transform="scale(0.015625)"/>
       <path id="CMSS17-6c" d="M 947 4416 
L 474 4416 
L 474 0 
L 947 0 
L 947 4416 
z
" transform="scale(0.015625)"/>
       <path id="CMSS17-70" d="M 966 333 
C 1178 129 1466 -5 1773 -5 
C 2368 -5 2880 603 2880 1412 
C 2880 2159 2496 2816 1946 2816 
C 1626 2816 1242 2702 954 2472 
L 954 2765 
L 480 2765 
L 480 -1216 
L 966 -1216 
L 966 333 
z
M 966 2100 
C 1018 2176 1235 2415 1587 2415 
C 2035 2415 2394 1960 2394 1412 
C 2394 787 1958 384 1530 384 
C 1402 384 1267 415 1139 523 
C 966 674 966 768 966 857 
L 966 2100 
z
" transform="scale(0.015625)"/>
       <path id="CMSS17-65" d="M 2502 1377 
C 2502 1590 2490 2003 2285 2345 
C 2061 2713 1696 2816 1421 2816 
C 755 2816 192 2188 192 1375 
C 192 582 774 -64 1510 -64 
C 1798 -64 2150 19 2470 248 
C 2470 274 2458 414 2451 420 
C 2451 433 2432 630 2432 656 
C 2125 407 1773 325 1517 325 
C 1107 325 666 667 646 1377 
L 2502 1377 
z
M 698 1728 
C 781 2084 1062 2421 1421 2421 
C 1517 2421 1965 2421 2080 1728 
L 698 1728 
z
" transform="scale(0.015625)"/>
       <path id="CMSS17-2c" d="M 1088 6 
L 1088 510 
L 576 510 
L 576 0 
L 736 0 
L 570 -800 
L 826 -800 
L 1088 6 
z
" transform="scale(0.015625)"/>
       <path id="CMMI12-12" d="M 2835 3200 
C 2835 3850 2630 4480 2106 4480 
C 1210 4480 256 2615 256 1216 
C 256 923 320 -64 992 -64 
C 1862 -64 2835 1756 2835 3200 
z
M 896 2304 
C 992 2679 1126 3214 1382 3665 
C 1594 4047 1818 4352 2099 4352 
C 2310 4352 2451 4174 2451 3564 
C 2451 3334 2432 3017 2246 2304 
L 896 2304 
z
M 2202 2113 
C 2042 1490 1907 1088 1677 687 
C 1491 363 1267 64 998 64 
C 800 64 640 217 640 846 
C 640 1260 742 1693 845 2113 
L 2202 2113 
z
" transform="scale(0.015625)"/>
       <path id="CMR17-28" d="M 1958 -1561 
C 1958 -1555 1958 -1542 1939 -1523 
C 1645 -1224 858 -407 858 1581 
C 858 3569 1632 4379 1946 4697 
C 1946 4704 1958 4717 1958 4736 
C 1958 4755 1939 4768 1914 4768 
C 1843 4768 1299 4296 986 3594 
C 666 2887 576 2199 576 1588 
C 576 1128 621 351 1005 -471 
C 1312 -1135 1837 -1600 1914 -1600 
C 1946 -1600 1958 -1587 1958 -1561 
z
" transform="scale(0.015625)"/>
       <path id="CMSY10-e" d="M 2842 1600 
C 2842 2277 2272 2828 1600 2828 
C 909 2828 352 2264 352 1600 
C 352 930 909 372 1600 372 
C 2272 372 2842 923 2842 1600 
z
M 1600 628 
C 1043 628 608 1070 608 1600 
C 608 2130 1050 2572 1600 2572 
C 2131 2572 2586 2142 2586 1600 
C 2586 1058 2131 628 1600 628 
z
" transform="scale(0.015625)"/>
       <path id="CMR17-29" d="M 1683 1581 
C 1683 2040 1638 2817 1254 3639 
C 947 4303 422 4768 346 4768 
C 326 4768 301 4761 301 4729 
C 301 4717 307 4710 314 4697 
C 621 4378 1402 3568 1402 1584 
C 1402 -407 627 -1217 314 -1537 
C 307 -1549 301 -1556 301 -1568 
C 301 -1600 326 -1600 346 -1600 
C 416 -1600 960 -1128 1274 -426 
C 1594 281 1683 969 1683 1581 
z
" transform="scale(0.015625)"/>
      </defs>
      <use xlink:href="#CMSS17-42" transform="scale(0.996264)"/>
      <use xlink:href="#CMSS17-6f" transform="translate(62.33804 0) scale(0.996264)"/>
      <use xlink:href="#CMSS17-74" transform="translate(109.181664 0) scale(0.996264)"/>
      <use xlink:href="#CMSS17-74" transform="translate(143.01323 0) scale(0.996264)"/>
      <use xlink:href="#CMSS17-6f" transform="translate(176.844797 0) scale(0.996264)"/>
      <use xlink:href="#CMSS17-6d" transform="translate(223.688421 0) scale(0.996264)"/>
      <use xlink:href="#CMSS17-73" transform="translate(329.146788 0) scale(0.996264)"/>
      <use xlink:href="#CMSS17-6c" transform="translate(365.06033 0) scale(0.996264)"/>
      <use xlink:href="#CMSS17-6f" transform="translate(387.241053 0) scale(0.996264)"/>
      <use xlink:href="#CMSS17-70" transform="translate(434.084676 0) scale(0.996264)"/>
      <use xlink:href="#CMSS17-65" transform="translate(484.892058 0) scale(0.996264)"/>
      <use xlink:href="#CMSS17-2c" transform="translate(526.53088 0) scale(0.996264)"/>
      <use xlink:href="#CMMI12-12" transform="translate(583.784198 0) scale(0.996264)"/>
      <use xlink:href="#CMR17-28" transform="translate(663.182818 0) scale(0.996264)"/>
      <use xlink:href="#CMSY10-e" transform="translate(698.463586 36.153639) scale(0.697382)"/>
      <use xlink:href="#CMR17-29" transform="translate(733.830928 0) scale(0.996264)"/>
     </g>
    </g>
   </g>
   <g id="matplotlib.axis_2">
    <g id="ytick_1">
     <g id="line2d_19">
      <defs>
       <path id="m4ce3d0be54" d="M 0 0 
L 2.5 0 
" style="stroke: #ffffff; stroke-width: 0.8"/>
      </defs>
      <g>
       <use xlink:href="#m4ce3d0be54" x="33.552694" y="162.907534" style="fill: #ffffff; stroke: #ffffff; stroke-width: 0.8"/>
      </g>
     </g>
     <g id="line2d_20">
      <defs>
       <path id="m060a5d58be" d="M 0 0 
L -2.5 0 
" style="stroke: #ffffff; stroke-width: 0.8"/>
      </defs>
      <g>
       <use xlink:href="#m060a5d58be" x="349.936768" y="162.907534" style="fill: #ffffff; stroke: #ffffff; stroke-width: 0.8"/>
      </g>
     </g>
     <g id="text_11">
      <!-- $\mathdefault{0.2}$ -->
      <g style="fill: #ffffff" transform="translate(17.322615 166.366783) scale(0.1 -0.1)">
       <defs>
        <path id="CMMI12-3a" d="M 1178 307 
C 1178 492 1024 619 870 619 
C 685 619 557 466 557 313 
C 557 128 710 0 864 0 
C 1050 0 1178 153 1178 307 
z
" transform="scale(0.015625)"/>
       </defs>
       <use xlink:href="#CMR17-30" transform="scale(0.996264)"/>
       <use xlink:href="#CMMI12-3a" transform="translate(45.690477 0) scale(0.996264)"/>
       <use xlink:href="#CMR17-32" transform="translate(72.787654 0) scale(0.996264)"/>
      </g>
     </g>
    </g>
    <g id="ytick_2">
     <g id="line2d_21">
      <g>
       <use xlink:href="#m4ce3d0be54" x="33.552694" y="129.593515" style="fill: #ffffff; stroke: #ffffff; stroke-width: 0.8"/>
      </g>
     </g>
     <g id="line2d_22">
      <g>
       <use xlink:href="#m060a5d58be" x="349.936768" y="129.593515" style="fill: #ffffff; stroke: #ffffff; stroke-width: 0.8"/>
      </g>
     </g>
     <g id="text_12">
      <!-- $\mathdefault{0.3}$ -->
      <g style="fill: #ffffff" transform="translate(17.322615 133.052764) scale(0.1 -0.1)">
       <defs>
        <path id="CMR17-33" d="M 1414 2157 
C 1984 2157 2234 1662 2234 1090 
C 2234 320 1824 25 1453 25 
C 1114 25 563 194 390 693 
C 422 680 454 680 486 680 
C 640 680 755 782 755 948 
C 755 1133 614 1216 486 1216 
C 378 1216 211 1165 211 926 
C 211 335 787 -128 1466 -128 
C 2176 -128 2720 430 2720 1085 
C 2720 1707 2208 2157 1600 2227 
C 2086 2328 2554 2756 2554 3329 
C 2554 3820 2048 4179 1472 4179 
C 890 4179 378 3829 378 3329 
C 378 3110 544 3072 627 3072 
C 762 3072 877 3155 877 3321 
C 877 3486 762 3569 627 3569 
C 602 3569 570 3569 544 3557 
C 730 3959 1235 4032 1459 4032 
C 1683 4032 2106 3925 2106 3320 
C 2106 3143 2080 2828 1862 2550 
C 1670 2304 1453 2304 1242 2284 
C 1210 2284 1062 2269 1037 2269 
C 992 2263 966 2257 966 2208 
C 966 2163 973 2157 1101 2157 
L 1414 2157 
z
" transform="scale(0.015625)"/>
       </defs>
       <use xlink:href="#CMR17-30" transform="scale(0.996264)"/>
       <use xlink:href="#CMMI12-3a" transform="translate(45.690477 0) scale(0.996264)"/>
       <use xlink:href="#CMR17-33" transform="translate(72.787654 0) scale(0.996264)"/>
      </g>
     </g>
    </g>
    <g id="ytick_3">
     <g id="line2d_23">
      <g>
       <use xlink:href="#m4ce3d0be54" x="33.552694" y="96.279495" style="fill: #ffffff; stroke: #ffffff; stroke-width: 0.8"/>
      </g>
     </g>
     <g id="line2d_24">
      <g>
       <use xlink:href="#m060a5d58be" x="349.936768" y="96.279495" style="fill: #ffffff; stroke: #ffffff; stroke-width: 0.8"/>
      </g>
     </g>
     <g id="text_13">
      <!-- $\mathdefault{0.4}$ -->
      <g style="fill: #ffffff" transform="translate(17.322615 99.738744) scale(0.1 -0.1)">
       <use xlink:href="#CMR17-30" transform="scale(0.996264)"/>
       <use xlink:href="#CMMI12-3a" transform="translate(45.690477 0) scale(0.996264)"/>
       <use xlink:href="#CMR17-34" transform="translate(72.787654 0) scale(0.996264)"/>
      </g>
     </g>
    </g>
    <g id="ytick_4">
     <g id="line2d_25">
      <g>
       <use xlink:href="#m4ce3d0be54" x="33.552694" y="62.965475" style="fill: #ffffff; stroke: #ffffff; stroke-width: 0.8"/>
      </g>
     </g>
     <g id="line2d_26">
      <g>
       <use xlink:href="#m060a5d58be" x="349.936768" y="62.965475" style="fill: #ffffff; stroke: #ffffff; stroke-width: 0.8"/>
      </g>
     </g>
     <g id="text_14">
      <!-- $\mathdefault{0.5}$ -->
      <g style="fill: #ffffff" transform="translate(17.322615 66.424725) scale(0.1 -0.1)">
       <defs>
        <path id="CMR17-35" d="M 730 3692 
C 794 3666 1056 3584 1325 3584 
C 1920 3584 2246 3911 2432 4100 
C 2432 4157 2432 4192 2394 4192 
C 2387 4192 2374 4192 2323 4163 
C 2099 4058 1837 3973 1517 3973 
C 1325 3973 1037 3999 723 4139 
C 653 4171 640 4171 634 4171 
C 602 4171 595 4164 595 4037 
L 595 2203 
C 595 2089 595 2057 659 2057 
C 691 2057 704 2070 736 2114 
C 941 2401 1222 2522 1542 2522 
C 1766 2522 2246 2382 2246 1289 
C 2246 1085 2246 715 2054 421 
C 1894 159 1645 25 1370 25 
C 947 25 518 320 403 814 
C 429 807 480 795 506 795 
C 589 795 749 840 749 1038 
C 749 1210 627 1280 506 1280 
C 358 1280 262 1190 262 1011 
C 262 454 704 -128 1382 -128 
C 2042 -128 2669 440 2669 1264 
C 2669 2030 2170 2624 1549 2624 
C 1222 2624 947 2503 730 2274 
L 730 3692 
z
" transform="scale(0.015625)"/>
       </defs>
       <use xlink:href="#CMR17-30" transform="scale(0.996264)"/>
       <use xlink:href="#CMMI12-3a" transform="translate(45.690477 0) scale(0.996264)"/>
       <use xlink:href="#CMR17-35" transform="translate(72.787654 0) scale(0.996264)"/>
      </g>
     </g>
    </g>
    <g id="ytick_5">
     <g id="line2d_27">
      <g>
       <use xlink:href="#m4ce3d0be54" x="33.552694" y="29.651456" style="fill: #ffffff; stroke: #ffffff; stroke-width: 0.8"/>
      </g>
     </g>
     <g id="line2d_28">
      <g>
       <use xlink:href="#m060a5d58be" x="349.936768" y="29.651456" style="fill: #ffffff; stroke: #ffffff; stroke-width: 0.8"/>
      </g>
     </g>
     <g id="text_15">
      <!-- $\mathdefault{0.6}$ -->
      <g style="fill: #ffffff" transform="translate(17.322615 33.110705) scale(0.1 -0.1)">
       <use xlink:href="#CMR17-30" transform="scale(0.996264)"/>
       <use xlink:href="#CMMI12-3a" transform="translate(45.690477 0) scale(0.996264)"/>
       <use xlink:href="#CMR17-36" transform="translate(72.787654 0) scale(0.996264)"/>
      </g>
     </g>
    </g>
    <g id="text_16">
     <!-- $\langle\mathcal{F}_{r} = u_{\rm c}/u_{0}\rangle_{\mathcal{R}_{e}, \, \mathcal{S}}$ -->
     <g style="fill: #ffffff" transform="translate(10.47222 121.372804) rotate(-90) scale(0.1 -0.1)">
      <defs>
       <path id="CMSY10-68" d="M 2099 4557 
C 2131 4627 2131 4640 2131 4672 
C 2131 4742 2074 4800 2003 4800 
C 1946 4800 1901 4768 1856 4653 
L 736 1715 
C 723 1677 704 1638 704 1600 
C 704 1581 704 1568 736 1491 
L 1856 -1446 
C 1882 -1517 1914 -1600 2003 -1600 
C 2074 -1600 2131 -1542 2131 -1472 
C 2131 -1453 2131 -1440 2099 -1370 
L 966 1600 
L 2099 4557 
z
" transform="scale(0.015625)"/>
       <path id="CMSY10-46" d="M 5312 4141 
C 5312 4435 4819 4391 4621 4391 
L 2208 4391 
C 1888 4391 1318 4205 1216 3859 
C 1229 3820 1242 3814 1280 3814 
C 1421 3814 1613 3933 1702 4032 
C 1901 4032 2093 4032 2291 4032 
L 2688 4032 
C 2688 4032 2662 3916 2662 3910 
C 2413 2741 2035 1751 1754 1125 
C 1715 1041 1370 243 1280 167 
C 998 167 787 319 672 568 
C 653 606 653 632 608 632 
C 461 632 109 428 109 320 
C 109 307 115 295 122 282 
C 237 -19 525 -192 838 -192 
C 1165 -192 1542 44 1747 280 
C 1958 523 2381 1569 2547 1952 
L 3782 1952 
C 3776 1945 3770 1939 3770 1932 
C 3770 1907 3808 1888 3834 1888 
C 3974 1888 4339 2067 4339 2266 
C 4339 2310 4294 2304 4218 2304 
L 2682 2304 
C 2848 2880 3066 3443 3181 4032 
L 4026 4032 
C 4186 4032 4634 4064 4749 3929 
C 4762 3888 4742 3821 4762 3788 
C 4774 3775 4794 3775 4813 3775 
C 4966 3775 5312 3967 5312 4141 
z
" transform="scale(0.015625)"/>
       <path id="CMMI12-72" d="M 2490 2612 
C 2291 2574 2189 2433 2189 2293 
C 2189 2139 2310 2088 2400 2088 
C 2579 2088 2726 2242 2726 2433 
C 2726 2638 2528 2816 2208 2816 
C 1952 2816 1658 2701 1389 2312 
C 1344 2650 1088 2816 832 2816 
C 582 2816 454 2625 378 2484 
C 269 2254 173 1871 173 1839 
C 173 1814 198 1782 243 1782 
C 294 1782 301 1788 339 1935 
C 435 2318 557 2689 813 2689 
C 966 2689 1011 2580 1011 2395 
C 1011 2254 947 2005 902 1807 
L 723 1118 
C 698 996 627 709 595 594 
C 550 428 480 128 480 96 
C 480 6 550 -64 646 -64 
C 717 -64 838 -19 877 109 
C 896 160 1133 1124 1171 1271 
C 1203 1411 1242 1546 1274 1686 
C 1299 1775 1325 1878 1344 1961 
C 1363 2018 1536 2331 1696 2472 
C 1773 2542 1939 2689 2202 2689 
C 2304 2689 2406 2670 2490 2612 
z
" transform="scale(0.015625)"/>
       <path id="CMR17-3d" d="M 4115 2017 
C 4211 2017 4307 2017 4307 2125 
C 4307 2240 4198 2240 4090 2240 
L 512 2240 
C 403 2240 294 2240 294 2125 
C 294 2017 390 2017 486 2017 
L 4115 2017 
z
M 4090 896 
C 4198 896 4307 896 4307 1011 
C 4307 1119 4211 1119 4115 1119 
L 486 1119 
C 390 1119 294 1119 294 1011 
C 294 896 403 896 512 896 
L 4090 896 
z
" transform="scale(0.015625)"/>
       <path id="CMMI12-75" d="M 2182 370 
C 2266 13 2573 -64 2726 -64 
C 2931 -64 3085 70 3187 287 
C 3296 517 3379 894 3379 913 
C 3379 945 3354 971 3315 971 
C 3258 971 3251 939 3226 843 
C 3110 402 2995 64 2739 64 
C 2547 64 2547 275 2547 358 
C 2547 505 2566 568 2630 837 
C 2675 1009 2720 1181 2758 1360 
L 3021 2401 
C 3066 2561 3066 2574 3066 2593 
C 3066 2689 2989 2753 2893 2753 
C 2707 2753 2662 2593 2624 2433 
C 2560 2184 2214 811 2170 588 
C 2163 588 1914 64 1446 64 
C 1114 64 1050 351 1050 588 
C 1050 952 1229 1462 1395 1890 
C 1472 2095 1504 2178 1504 2305 
C 1504 2580 1306 2816 998 2816 
C 410 2816 173 1890 173 1839 
C 173 1814 198 1782 243 1782 
C 301 1782 307 1807 333 1896 
C 486 2441 736 2682 979 2682 
C 1043 2682 1146 2682 1146 2478 
C 1146 2312 1075 2127 979 1884 
C 698 1124 666 881 666 690 
C 666 38 1158 -64 1421 -64 
C 1830 -64 2054 217 2182 370 
z
" transform="scale(0.015625)"/>
       <path id="CMR17-63" d="M 2234 2240 
C 2112 2240 1933 2240 1933 2017 
C 1933 1838 2080 1787 2163 1787 
C 2208 1787 2394 1807 2394 2024 
C 2394 2467 1958 2803 1466 2803 
C 787 2803 211 2178 211 1363 
C 211 516 813 -64 1466 -64 
C 2259 -64 2458 677 2458 748 
C 2458 774 2451 793 2406 793 
C 2362 793 2355 787 2330 703 
C 2163 180 1798 51 1523 51 
C 1114 51 621 427 621 1369 
C 621 2338 1094 2688 1472 2688 
C 1722 2688 2093 2573 2234 2240 
z
" transform="scale(0.015625)"/>
       <path id="CMMI12-3d" d="M 2746 4562 
C 2746 4569 2784 4666 2784 4678 
C 2784 4755 2720 4800 2669 4800 
C 2637 4800 2579 4800 2528 4659 
L 384 -1363 
C 384 -1370 346 -1465 346 -1478 
C 346 -1555 410 -1600 461 -1600 
C 499 -1600 557 -1593 602 -1459 
L 2746 4562 
z
" transform="scale(0.015625)"/>
       <path id="CMSY10-69" d="M 1747 1491 
C 1779 1568 1779 1581 1779 1600 
C 1779 1619 1779 1632 1747 1709 
L 627 4653 
C 589 4762 550 4800 480 4800 
C 410 4800 352 4742 352 4672 
C 352 4653 352 4640 384 4570 
L 1517 1600 
L 384 -1357 
C 352 -1427 352 -1440 352 -1472 
C 352 -1542 410 -1600 480 -1600 
C 563 -1600 589 -1536 614 -1472 
L 1747 1491 
z
" transform="scale(0.015625)"/>
       <path id="CMSY10-52" d="M 2592 4032 
C 3821 4032 4141 3727 4141 3299 
C 4141 2904 3834 2125 2778 2125 
C 2464 2125 2246 1881 2246 1805 
C 2246 1767 2272 1767 2278 1767 
C 2547 1722 2675 1594 3008 839 
C 3302 167 3469 -128 3846 -128 
C 4621 -128 5357 659 5357 800 
C 5357 845 5306 845 5286 845 
C 5210 845 4960 755 4826 570 
C 4723 423 4582 224 4269 224 
C 3942 224 3744 679 3526 1178 
C 3392 1498 3277 1735 3130 1907 
C 4058 2247 4685 2919 4685 3584 
C 4685 4384 3610 4384 2643 4384 
C 2003 4384 1645 4384 1107 4154 
C 250 3776 134 3245 134 3194 
C 134 3155 160 3143 198 3143 
C 301 3143 448 3234 499 3267 
C 634 3359 653 3398 691 3522 
C 781 3784 960 4013 1766 4013 
C 1734 3625 1677 3033 1459 2102 
C 1286 1388 1050 687 768 6 
C 736 -64 736 -77 736 -83 
C 736 -128 787 -128 800 -128 
C 928 -128 1197 26 1267 147 
C 1280 179 2093 1984 2291 4032 
L 2592 4032 
z
" transform="scale(0.015625)"/>
       <path id="CMMI12-65" d="M 1146 1479 
C 1318 1479 1754 1479 2061 1595 
C 2547 1783 2592 2158 2592 2274 
C 2592 2558 2349 2816 1926 2816 
C 1254 2816 288 2210 288 1073 
C 288 402 672 -64 1254 -64 
C 2125 -64 2675 609 2675 692 
C 2675 730 2637 762 2611 762 
C 2592 762 2586 756 2528 699 
C 2118 159 1510 64 1267 64 
C 902 64 710 350 710 822 
C 710 911 710 1071 806 1479 
L 1146 1479 
z
M 838 1600 
C 1114 2592 1722 2689 1926 2689 
C 2208 2689 2400 2522 2400 2277 
C 2400 1600 1376 1600 1107 1600 
L 838 1600 
z
" transform="scale(0.015625)"/>
       <path id="CMMI12-3b" d="M 1248 -31 
C 1248 343 1126 619 864 619 
C 659 619 557 453 557 313 
C 557 172 653 0 870 0 
C 954 0 1024 26 1082 83 
C 1094 96 1101 96 1107 96 
C 1120 96 1120 5 1120 -27 
C 1120 -240 1082 -659 710 -1080 
C 640 -1157 640 -1170 640 -1183 
C 640 -1216 672 -1248 704 -1248 
C 755 -1248 1248 -771 1248 -31 
z
" transform="scale(0.015625)"/>
       <path id="CMSY10-53" d="M 736 1421 
C 813 1453 1037 1594 1037 1684 
C 1037 1729 998 1729 960 1729 
C 742 1729 115 1453 115 811 
C 115 348 634 -128 1414 -128 
C 2458 -128 3667 599 3667 1475 
C 3667 2087 3027 2383 2509 2615 
C 2061 2820 1766 3085 1766 3452 
C 1766 3587 1824 3838 2022 4011 
C 2214 4179 2573 4179 2662 4179 
C 2733 4179 3002 4179 3277 4057 
C 3398 4000 3565 3924 3565 3649 
C 3565 3560 3558 3528 3539 3458 
C 3533 3439 3526 3414 3526 3394 
C 3526 3350 3565 3350 3590 3350 
C 3674 3350 3827 3414 3955 3523 
C 4038 3587 4109 3671 4109 3921 
C 4109 4236 3942 4325 3770 4403 
C 3469 4544 3174 4544 3085 4544 
C 2246 4544 1222 3901 1222 3168 
C 1222 2629 1779 2371 2086 2236 
C 2541 2031 3123 1735 3123 1195 
C 3123 764 2810 224 1837 224 
C 1184 224 659 649 659 1086 
C 659 1202 691 1317 736 1421 
z
" transform="scale(0.015625)"/>
      </defs>
      <use xlink:href="#CMSY10-68" transform="scale(0.996264)"/>
      <use xlink:href="#CMSY10-46" transform="translate(38.743734 0) scale(0.996264)"/>
      <use xlink:href="#CMMI12-72" transform="translate(110.350012 -14.943915) scale(0.697382)"/>
      <use xlink:href="#CMR17-3d" transform="translate(171.191421 0) scale(0.996264)"/>
      <use xlink:href="#CMMI12-75" transform="translate(270.580219 0) scale(0.996264)"/>
      <use xlink:href="#CMR17-63" transform="translate(326.100548 -14.943915) scale(0.697382)"/>
      <use xlink:href="#CMMI12-3d" transform="translate(354.938512 0) scale(0.996264)"/>
      <use xlink:href="#CMMI12-75" transform="translate(403.713431 0) scale(0.996264)"/>
      <use xlink:href="#CMR17-30" transform="translate(459.23376 -14.943915) scale(0.697382)"/>
      <use xlink:href="#CMSY10-69" transform="translate(491.715074 0) scale(0.996264)"/>
      <use xlink:href="#CMSY10-52" transform="translate(530.458808 -14.943915) scale(0.697382)"/>
      <use xlink:href="#CMMI12-65" transform="translate(589.562167 -25.404611) scale(0.498132)"/>
      <use xlink:href="#CMMI12-3b" transform="translate(612.666292 -14.943915) scale(0.697382)"/>
      <use xlink:href="#CMSY10-53" transform="translate(643.257249 -14.943915) scale(0.697382)"/>
     </g>
    </g>
   </g>
   <g id="LineCollection_1">
    <path d="M 34.526184 118.577637 
L 42.314099 118.577637 
" clip-path="url(#p35607fb32d)" style="fill: none; stroke: #1f77b4; stroke-width: 1.5"/>
    <path d="M 51.854296 109.646827 
L 59.642212 109.646827 
" clip-path="url(#p35607fb32d)" style="fill: none; stroke: #1f77b4; stroke-width: 1.5"/>
    <path d="M 89.625687 100.817852 
L 97.413603 100.817852 
" clip-path="url(#p35607fb32d)" style="fill: none; stroke: #1f77b4; stroke-width: 1.5"/>
    <path d="M 131.485734 96.107124 
L 139.273649 96.107124 
" clip-path="url(#p35607fb32d)" style="fill: none; stroke: #1f77b4; stroke-width: 1.5"/>
    <path d="M 175.487457 84.897475 
L 183.275373 84.897475 
" clip-path="url(#p35607fb32d)" style="fill: none; stroke: #1f77b4; stroke-width: 1.5"/>
   </g>
   <g id="LineCollection_2">
    <path d="M 38.420141 123.47016 
L 38.420141 113.685114 
" clip-path="url(#p35607fb32d)" style="fill: none; stroke: #1f77b4; stroke-width: 1.5"/>
    <path d="M 55.748254 113.867244 
L 55.748254 105.42641 
" clip-path="url(#p35607fb32d)" style="fill: none; stroke: #1f77b4; stroke-width: 1.5"/>
    <path d="M 93.519645 104.782187 
L 93.519645 96.853517 
" clip-path="url(#p35607fb32d)" style="fill: none; stroke: #1f77b4; stroke-width: 1.5"/>
    <path d="M 135.379691 100.977053 
L 135.379691 91.237195 
" clip-path="url(#p35607fb32d)" style="fill: none; stroke: #1f77b4; stroke-width: 1.5"/>
    <path d="M 179.381415 90.073169 
L 179.381415 79.721782 
" clip-path="url(#p35607fb32d)" style="fill: none; stroke: #1f77b4; stroke-width: 1.5"/>
   </g>
   <g id="line2d_29">
    <defs>
     <path id="m370aff6f8b" d="M 0 1.5 
C 0.397805 1.5 0.77937 1.341951 1.06066 1.06066 
C 1.341951 0.77937 1.5 0.397805 1.5 0 
C 1.5 -0.397805 1.341951 -0.77937 1.06066 -1.06066 
C 0.77937 -1.341951 0.397805 -1.5 0 -1.5 
C -0.397805 -1.5 -0.77937 -1.341951 -1.06066 -1.06066 
C -1.341951 -0.77937 -1.5 -0.397805 -1.5 0 
C -1.5 0.397805 -1.341951 0.77937 -1.06066 1.06066 
C -0.77937 1.341951 -0.397805 1.5 0 1.5 
z
" style="stroke: #1f77b4"/>
    </defs>
    <g clip-path="url(#p35607fb32d)">
     <use xlink:href="#m370aff6f8b" x="38.420141" y="118.577637" style="fill: #1f77b4; stroke: #1f77b4"/>
     <use xlink:href="#m370aff6f8b" x="55.748254" y="109.646827" style="fill: #1f77b4; stroke: #1f77b4"/>
     <use xlink:href="#m370aff6f8b" x="93.519645" y="100.817852" style="fill: #1f77b4; stroke: #1f77b4"/>
     <use xlink:href="#m370aff6f8b" x="135.379691" y="96.107124" style="fill: #1f77b4; stroke: #1f77b4"/>
     <use xlink:href="#m370aff6f8b" x="179.381415" y="84.897475" style="fill: #1f77b4; stroke: #1f77b4"/>
    </g>
   </g>
   <g id="patch_3">
    <path d="M 33.552694 162.907534 
L 33.552694 3.00024 
" style="fill: none; stroke: #ffffff; stroke-width: 0.8; stroke-linejoin: miter; stroke-linecap: square"/>
   </g>
   <g id="patch_4">
    <path d="M 349.936768 162.907534 
L 349.936768 3.00024 
" style="fill: none; stroke: #ffffff; stroke-width: 0.8; stroke-linejoin: miter; stroke-linecap: square"/>
   </g>
   <g id="patch_5">
    <path d="M 33.552694 162.907534 
L 349.936768 162.907534 
" style="fill: none; stroke: #ffffff; stroke-width: 0.8; stroke-linejoin: miter; stroke-linecap: square"/>
   </g>
   <g id="patch_6">
    <path d="M 33.552694 3.00024 
L 349.936768 3.00024 
" style="fill: none; stroke: #ffffff; stroke-width: 0.8; stroke-linejoin: miter; stroke-linecap: square"/>
   </g>
   <g id="legend_1">
    <g id="patch_7">
     <path d="M 202.537418 157.907534 
L 342.936768 157.907534 
Q 344.936768 157.907534 344.936768 155.907534 
L 344.936768 115.095999 
Q 344.936768 113.095999 342.936768 113.095999 
L 202.537418 113.095999 
Q 200.537418 113.095999 200.537418 115.095999 
L 200.537418 155.907534 
Q 200.537418 157.907534 202.537418 157.907534 
z
" style="fill: #191919; opacity: 0.8; stroke: #cccccc; stroke-linejoin: miter"/>
    </g>
    <g id="PathCollection_3">
     <path d="M 214.537418 125.71364 
L 217.083003 121.470999 
L 214.537418 117.228359 
L 211.991834 121.470999 
z
" style="fill: #ff7f0e"/>
    </g>
    <g id="text_17">
     <!-- Maxworthy \&amp; Nokes 2007 -->
     <g style="fill: #ffffff" transform="translate(232.537418 124.095999) scale(0.1 -0.1)">
      <defs>
       <path id="CMSS17-4d" d="M 3194 2371 
L 2886 1473 
C 2835 1307 2662 791 2624 587 
L 2618 587 
C 2598 715 2560 849 2458 1174 
C 2400 1365 2336 1562 2272 1741 
L 1325 4416 
L 576 4416 
L 576 0 
L 1075 0 
L 1075 3900 
L 1082 3900 
C 1082 3894 1139 3613 1530 2499 
L 2374 96 
L 2848 96 
L 3610 2231 
C 3661 2378 3821 2843 3891 3066 
C 3955 3257 4115 3728 4154 3913 
L 4160 3913 
L 4160 0 
L 4666 0 
L 4666 4416 
L 3923 4416 
L 3194 2371 
z
" transform="scale(0.015625)"/>
       <path id="CMSS17-61" d="M 2406 1791 
C 2406 2392 1978 2808 1402 2808 
C 1120 2808 813 2757 461 2553 
L 499 2135 
C 659 2248 934 2432 1395 2432 
C 1722 2432 1920 2180 1920 1782 
L 1920 1536 
C 896 1536 256 1238 256 726 
C 256 461 416 -64 947 -64 
C 1043 -64 1562 -64 1933 217 
L 1933 -19 
L 2406 -19 
L 2406 1791 
z
M 1920 816 
C 1920 701 1920 548 1728 434 
C 1562 325 1350 325 1261 325 
C 941 325 723 511 723 744 
C 723 1211 1722 1211 1920 1211 
L 1920 816 
z
" transform="scale(0.015625)"/>
       <path id="CMSS17-78" d="M 1587 1414 
L 2656 2739 
L 2099 2739 
L 1363 1777 
L 602 2739 
L 32 2739 
L 1139 1414 
L 0 0 
L 563 0 
L 1363 1121 
L 2195 0 
L 2758 0 
L 1587 1414 
z
" transform="scale(0.015625)"/>
       <path id="CMSS17-77" d="M 4013 2752 
L 3526 2752 
L 3187 1601 
C 3117 1358 2918 685 2893 371 
L 2886 371 
C 2874 564 2765 1024 2586 1633 
L 2259 2752 
L 1818 2752 
L 1498 1658 
C 1338 1101 1216 627 1203 371 
L 1197 371 
C 1171 749 909 1633 870 1773 
L 582 2752 
L 83 2752 
L 915 0 
L 1402 0 
C 1734 1096 1990 1943 2010 2370 
C 2022 2160 2131 1707 2195 1484 
L 2618 0 
L 3181 0 
L 4013 2752 
z
" transform="scale(0.015625)"/>
       <path id="CMSS17-72" d="M 954 1363 
C 954 1965 1395 2368 1958 2368 
L 1958 2789 
C 1549 2789 1165 2585 934 2253 
L 934 2758 
L 480 2758 
L 480 0 
L 954 0 
L 954 1363 
z
" transform="scale(0.015625)"/>
       <path id="CMSS17-68" d="M 2618 1891 
C 2618 2292 2522 2820 1798 2820 
C 1395 2820 1133 2623 947 2407 
L 947 4448 
L 474 4448 
L 474 32 
L 960 32 
L 960 1573 
C 960 1973 1114 2432 1549 2432 
C 2112 2432 2131 2056 2131 1839 
L 2131 32 
L 2618 32 
L 2618 1891 
z
" transform="scale(0.015625)"/>
       <path id="CMSS17-79" d="M 2675 2752 
L 2176 2752 
C 1632 1294 1446 702 1434 383 
L 1427 383 
C 1408 696 1126 1460 902 2007 
L 602 2752 
L 83 2752 
L 1216 13 
C 1146 -178 1043 -465 1011 -529 
C 870 -885 774 -885 672 -885 
C 646 -885 442 -885 211 -809 
L 250 -1229 
C 410 -1261 570 -1280 685 -1280 
C 845 -1280 1165 -1280 1459 -497 
L 2675 2752 
z
" transform="scale(0.015625)"/>
       <path id="CMSS17-26" d="M 3610 2483 
C 3290 1341 2720 865 2630 788 
C 2509 922 2035 1473 1696 2147 
C 1702 2153 2048 2464 2240 2699 
C 2451 2947 2637 3214 2637 3512 
C 2637 3988 2317 4484 1818 4484 
C 1267 4484 960 3894 960 3245 
C 960 2864 1037 2533 1158 2178 
C 1069 2101 749 1809 608 1670 
C 512 1581 250 1340 250 907 
C 250 367 698 -128 1357 -128 
C 1798 -128 2227 19 2554 229 
C 2918 -58 3245 -128 3520 -128 
C 3610 -128 3878 -128 4218 -32 
L 4218 388 
C 3898 286 3629 286 3533 286 
C 3398 286 3219 299 2925 508 
C 2963 540 3686 1156 4006 2369 
L 3610 2483 
z
M 1542 2535 
C 1421 2885 1382 3242 1382 3458 
C 1382 3943 1632 4096 1811 4096 
C 2144 4096 2170 3611 2170 3516 
C 2170 3146 1811 2796 1542 2535 
z
M 1325 1808 
C 1472 1508 1811 992 2240 515 
C 1971 372 1670 286 1363 286 
C 922 286 736 667 736 948 
C 736 1253 896 1413 960 1470 
C 1075 1591 1197 1699 1325 1808 
z
" transform="scale(0.015625)"/>
       <path id="CMSS17-4e" d="M 1466 4180 
L 1350 4416 
L 563 4416 
L 563 0 
L 1062 0 
L 1062 3926 
L 1069 3932 
C 1114 3817 1139 3760 1402 3194 
L 2771 236 
L 2886 0 
L 3674 0 
L 3674 4416 
L 3174 4416 
L 3174 490 
L 3168 483 
C 3123 598 3098 655 2835 1221 
L 1466 4180 
z
" transform="scale(0.015625)"/>
       <path id="CMSS17-6b" d="M 1696 1688 
L 2688 2739 
L 2074 2739 
L 954 1554 
L 954 4416 
L 480 4416 
L 480 0 
L 947 0 
L 947 892 
L 1376 1344 
L 2278 0 
L 2822 0 
L 1696 1688 
z
" transform="scale(0.015625)"/>
       <path id="CMSS17-32" d="M 1651 1357 
C 1830 1541 2099 1764 2285 1987 
C 2464 2204 2701 2511 2701 2957 
C 2701 3657 2227 4288 1421 4288 
C 787 4288 422 3893 250 3274 
L 499 2929 
C 640 3510 838 3880 1338 3880 
C 1888 3880 2195 3433 2195 2942 
C 2195 2355 1747 1901 1408 1563 
C 1030 1187 659 804 301 408 
L 301 0 
L 2701 0 
L 2701 433 
L 1613 433 
C 1536 433 1459 433 1382 433 
L 742 433 
L 742 439 
L 1651 1357 
z
" transform="scale(0.015625)"/>
       <path id="CMSS17-30" d="M 2758 2044 
C 2758 2405 2752 3077 2490 3596 
C 2227 4096 1805 4229 1504 4229 
C 1069 4229 698 3975 506 3570 
C 301 3146 243 2709 243 2044 
C 243 1589 262 1031 493 543 
C 755 5 1197 -128 1498 -128 
C 1894 -128 2278 81 2496 518 
C 2720 974 2758 1474 2758 2044 
z
M 1498 261 
C 1011 261 864 811 819 995 
C 742 1310 730 1614 730 2114 
C 730 2506 730 2948 851 3297 
C 998 3701 1254 3840 1498 3840 
C 1971 3840 2125 3372 2176 3208 
C 2272 2873 2272 2481 2272 2114 
C 2272 1526 2272 261 1498 261 
z
" transform="scale(0.015625)"/>
       <path id="CMSS17-37" d="M 1389 3776 
C 1466 3776 1542 3776 1619 3776 
L 2355 3776 
C 1440 2711 915 1365 915 -32 
L 1427 -32 
C 1427 1323 1875 2696 2752 3795 
L 2752 4209 
L 250 4209 
L 250 3776 
L 1389 3776 
z
" transform="scale(0.015625)"/>
      </defs>
      <use xlink:href="#CMSS17-4d" transform="scale(0.996264)"/>
      <use xlink:href="#CMSS17-61" transform="translate(81.67603 0) scale(0.996264)"/>
      <use xlink:href="#CMSS17-78" transform="translate(126.597951 0) scale(0.996264)"/>
      <use xlink:href="#CMSS17-77" transform="translate(169.598092 0) scale(0.996264)"/>
      <use xlink:href="#CMSS17-6f" transform="translate(230.815183 0) scale(0.996264)"/>
      <use xlink:href="#CMSS17-72" transform="translate(275.056353 0) scale(0.996264)"/>
      <use xlink:href="#CMSS17-74" transform="translate(306.966126 0) scale(0.996264)"/>
      <use xlink:href="#CMSS17-68" transform="translate(340.797692 0) scale(0.996264)"/>
      <use xlink:href="#CMSS17-79" transform="translate(389.002635 0) scale(0.996264)"/>
      <use xlink:href="#CMSS17-26" transform="translate(463.23189 0) scale(0.996264)"/>
      <use xlink:href="#CMSS17-4e" transform="translate(565.407143 0) scale(0.996264)"/>
      <use xlink:href="#CMSS17-6f" transform="translate(631.468662 0) scale(0.996264)"/>
      <use xlink:href="#CMSS17-6b" transform="translate(678.312286 0) scale(0.996264)"/>
      <use xlink:href="#CMSS17-65" transform="translate(721.312321 0) scale(0.996264)"/>
      <use xlink:href="#CMSS17-73" transform="translate(762.951143 0) scale(0.996264)"/>
      <use xlink:href="#CMSS17-32" transform="translate(830.093798 0) scale(0.996264)"/>
      <use xlink:href="#CMSS17-30" transform="translate(876.937422 0) scale(0.996264)"/>
      <use xlink:href="#CMSS17-30" transform="translate(923.781045 0) scale(0.996264)"/>
      <use xlink:href="#CMSS17-37" transform="translate(970.624669 0) scale(0.996264)"/>
     </g>
    </g>
    <g id="PathCollection_4">
     <path d="M 214.537418 132.408178 
L 211.537418 138.408178 
L 217.537418 138.408178 
z
" style="fill: #2ca02c"/>
    </g>
    <g id="text_18">
     <!-- Birman et al. 2007 -->
     <g style="fill: #ffffff" transform="translate(232.537418 138.033178) scale(0.1 -0.1)">
      <defs>
       <path id="CMSS17-69" d="M 979 4183 
L 442 4183 
L 442 3648 
L 979 3648 
L 979 4183 
z
M 947 2739 
L 474 2739 
L 474 0 
L 947 0 
L 947 2739 
z
" transform="scale(0.015625)"/>
       <path id="CMSS17-6e" d="M 2618 1877 
C 2618 2283 2522 2816 1798 2816 
C 1389 2816 1120 2606 941 2389 
L 941 2758 
L 474 2758 
L 474 0 
L 960 0 
L 960 1559 
C 960 1964 1114 2428 1549 2428 
C 2112 2428 2131 2048 2131 1829 
L 2131 0 
L 2618 0 
L 2618 1877 
z
" transform="scale(0.015625)"/>
       <path id="CMSS17-2e" d="M 1088 510 
L 576 510 
L 576 0 
L 1088 0 
L 1088 510 
z
" transform="scale(0.015625)"/>
      </defs>
      <use xlink:href="#CMSS17-42" transform="scale(0.996264)"/>
      <use xlink:href="#CMSS17-69" transform="translate(62.33804 0) scale(0.996264)"/>
      <use xlink:href="#CMSS17-72" transform="translate(84.518763 0) scale(0.996264)"/>
      <use xlink:href="#CMSS17-6d" transform="translate(116.428536 0) scale(0.996264)"/>
      <use xlink:href="#CMSS17-61" transform="translate(190.65779 0) scale(0.996264)"/>
      <use xlink:href="#CMSS17-6e" transform="translate(235.579711 0) scale(0.996264)"/>
      <use xlink:href="#CMSS17-65" transform="translate(315.013767 0) scale(0.996264)"/>
      <use xlink:href="#CMSS17-74" transform="translate(356.652589 0) scale(0.996264)"/>
      <use xlink:href="#CMSS17-61" transform="translate(421.713268 0) scale(0.996264)"/>
      <use xlink:href="#CMSS17-6c" transform="translate(466.635189 0) scale(0.996264)"/>
      <use xlink:href="#CMSS17-2e" transform="translate(488.815912 0) scale(0.996264)"/>
      <use xlink:href="#CMSS17-32" transform="translate(556.478924 0) scale(0.996264)"/>
      <use xlink:href="#CMSS17-30" transform="translate(603.322547 0) scale(0.996264)"/>
      <use xlink:href="#CMSS17-30" transform="translate(650.166171 0) scale(0.996264)"/>
      <use xlink:href="#CMSS17-37" transform="translate(697.009794 0) scale(0.996264)"/>
     </g>
    </g>
    <g id="LineCollection_3">
     <path d="M 209.537418 148.470356 
L 219.537418 148.470356 
" style="fill: none; stroke: #1f77b4; stroke-width: 1.5"/>
    </g>
    <g id="LineCollection_4">
     <path d="M 214.537418 153.470356 
L 214.537418 143.470356 
" style="fill: none; stroke: #1f77b4; stroke-width: 1.5"/>
    </g>
    <g id="line2d_30"/>
    <g id="line2d_31">
     <g>
      <use xlink:href="#m370aff6f8b" x="214.537418" y="148.470356" style="fill: #1f77b4; stroke: #1f77b4"/>
     </g>
    </g>
    <g id="text_19">
     <!-- This study -->
     <g style="fill: #ffffff" transform="translate(232.537418 151.970356) scale(0.1 -0.1)">
      <defs>
       <path id="CMSS17-54" d="M 2317 3968 
L 2848 3968 
C 2925 3968 3002 3968 3078 3968 
L 3878 3968 
L 3878 4376 
L 218 4376 
L 218 3968 
L 1018 3968 
C 1094 3968 1171 3968 1248 3968 
L 1779 3968 
L 1779 -32 
L 2317 -32 
L 2317 3968 
z
" transform="scale(0.015625)"/>
       <path id="CMSS17-75" d="M 2618 2739 
L 2131 2739 
L 2131 972 
C 2131 498 1786 306 1421 306 
C 998 306 960 447 960 709 
L 960 2739 
L 474 2739 
L 474 678 
C 474 179 646 -64 1088 -64 
C 1306 -64 1798 -13 2144 306 
L 2144 0 
L 2618 0 
L 2618 2739 
z
" transform="scale(0.015625)"/>
       <path id="CMSS17-64" d="M 2611 4416 
L 2138 4416 
L 2138 2438 
C 1939 2603 1613 2756 1254 2756 
C 672 2756 211 2131 211 1347 
C 211 562 666 -64 1235 -64 
C 1677 -64 1971 172 2125 306 
L 2125 -13 
L 2611 -13 
L 2611 4416 
z
M 2125 836 
C 2125 747 2125 653 1926 482 
C 1798 375 1645 325 1498 325 
C 1152 325 698 576 698 1340 
C 698 2134 1210 2368 1562 2368 
C 1798 2368 1990 2254 2125 2065 
L 2125 836 
z
" transform="scale(0.015625)"/>
      </defs>
      <use xlink:href="#CMSS17-54" transform="scale(0.996264)"/>
      <use xlink:href="#CMSS17-68" transform="translate(63.819454 0) scale(0.996264)"/>
      <use xlink:href="#CMSS17-69" transform="translate(112.024397 0) scale(0.996264)"/>
      <use xlink:href="#CMSS17-73" transform="translate(134.20512 0) scale(0.996264)"/>
      <use xlink:href="#CMSS17-73" transform="translate(201.347775 0) scale(0.996264)"/>
      <use xlink:href="#CMSS17-74" transform="translate(237.261317 0) scale(0.996264)"/>
      <use xlink:href="#CMSS17-75" transform="translate(271.092883 0) scale(0.996264)"/>
      <use xlink:href="#CMSS17-64" transform="translate(319.297827 0) scale(0.996264)"/>
      <use xlink:href="#CMSS17-79" transform="translate(367.50277 0) scale(0.996264)"/>
     </g>
    </g>
   </g>
  </g>
 </g>
 <defs>
  <clipPath id="p35607fb32d">
   <rect x="33.552694" y="3.00024" width="316.384074" height="159.907294"/>
  </clipPath>
 </defs>
</svg>
