<?xml version="1.0" encoding="utf-8" standalone="no"?>
<!DOCTYPE svg PUBLIC "-//W3C//DTD SVG 1.1//EN"
  "http://www.w3.org/Graphics/SVG/1.1/DTD/svg11.dtd">
<svg xmlns:xlink="http://www.w3.org/1999/xlink" width="210.540202pt" height="165.355777pt" viewBox="0 0 210.540202 165.355777" xmlns="http://www.w3.org/2000/svg" version="1.1">
 <metadata>
  <rdf:RDF xmlns:dc="http://purl.org/dc/elements/1.1/" xmlns:cc="http://creativecommons.org/ns#" xmlns:rdf="http://www.w3.org/1999/02/22-rdf-syntax-ns#">
   <cc:Work>
    <dc:type rdf:resource="http://purl.org/dc/dcmitype/StillImage"/>
    <dc:date>2023-06-22T17:45:45.730882</dc:date>
    <dc:format>image/svg+xml</dc:format>
    <dc:creator>
     <cc:Agent>
      <dc:title>Matplotlib v3.7.1, https://matplotlib.org/</dc:title>
     </cc:Agent>
    </dc:creator>
   </cc:Work>
  </rdf:RDF>
 </metadata>
 <defs>
  <style type="text/css">*{stroke-linejoin: round; stroke-linecap: butt}</style>
 </defs>
 <g id="figure_1">
  <g id="patch_1">
   <path d="M 0 165.355777 
L 210.540202 165.355777 
L 210.540202 0 
L 0 0 
z
" style="fill: #191919"/>
  </g>
  <g id="axes_1">
   <g id="patch_2">
    <path d="M 35.406886 136.03722 
L 203.667524 136.03722 
L 203.667524 3.00024 
L 35.406886 3.00024 
z
" style="fill: #191919"/>
   </g>
   <g id="line2d_1">
    <path d="M 40.421732 127.698419 
L 41.341121 126.716402 
L 42.176929 125.930558 
L 45.102256 122.914189 
L 45.687321 122.502698 
L 46.355967 122.007076 
L 47.191775 121.379227 
L 47.609679 121.15478 
L 48.696229 120.652381 
L 49.030552 120.478088 
L 49.448456 120.123007 
L 50.869329 118.851291 
L 51.370814 118.417673 
L 52.624526 117.336844 
L 53.711076 116.309648 
L 54.546883 115.612583 
L 55.048368 115.16786 
L 56.051337 114.198239 
L 57.137887 113.310252 
L 58.057276 112.4433 
L 59.478149 111.123919 
L 61.901992 109.449226 
L 62.82138 108.95089 
L 65.245223 107.399216 
L 68.337711 105.070496 
L 68.839196 104.739332 
L 69.2571 104.476624 
L 70.928715 103.572397 
L 71.4302 103.418783 
L 72.433169 102.943179 
L 74.439108 101.866974 
L 75.442077 101.272804 
L 76.528627 100.676849 
L 77.113693 100.361586 
L 79.036051 99.575275 
L 81.12557 99.219183 
L 81.961378 99.168229 
L 82.880766 99.060138 
L 83.549412 98.914452 
L 84.635963 98.588482 
L 85.47177 98.363694 
L 85.806093 98.240086 
L 86.307578 98.139675 
L 86.47474 98.135391 
L 86.641901 98.128985 
L 86.976224 97.912349 
L 87.143386 98.1105 
L 88.480678 97.706855 
L 88.731421 97.625826 
L 89.316486 97.361523 
L 92.99404 96.436923 
L 93.913429 96.216728 
L 98.176048 95.485971 
L 98.42679 95.496284 
L 99.596921 95.471925 
L 100.098406 95.443918 
L 102.104345 95.295881 
L 102.355087 95.267699 
L 102.772991 95.167352 
L 102.940152 95.140672 
L 103.358056 95.031393 
L 103.692379 94.98534 
L 103.943122 94.928079 
L 104.611768 94.804806 
L 104.946091 94.719757 
L 105.029672 94.618827 
L 105.196833 94.697052 
L 105.363995 94.590919 
L 105.865479 94.56348 
L 105.94906 94.339562 
L 106.032641 94.479048 
L 106.199803 94.34463 
L 106.868449 94.242594 
L 107.202772 94.104108 
L 107.453514 94.121873 
L 108.03858 93.899609 
L 108.289322 93.935132 
L 108.540064 93.888262 
L 108.790807 93.906043 
L 109.041549 93.800433 
L 109.292291 93.748237 
L 109.626614 93.644478 
L 109.877357 93.696692 
L 110.044518 93.685406 
L 110.128099 94.140619 
L 110.21168 94.09648 
L 110.295261 94.098996 
L 110.378841 93.680969 
L 110.629584 94.085115 
L 110.880326 93.74308 
L 111.047488 93.908352 
L 111.29823 93.820595 
L 112.050457 93.85112 
L 112.217618 93.888822 
L 112.468361 93.997262 
L 112.468361 93.997262 
" clip-path="url(#p5e84da8ba4)" style="fill: none; stroke: #9467bd; stroke-width: 1.5; stroke-linecap: square"/>
   </g>
   <g id="line2d_2">
    <path d="M 43.931824 130.639739 
L 45.101955 127.729317 
L 46.606409 125.119824 
L 47.77654 123.337158 
L 50.869028 117.59221 
L 52.624225 114.287618 
L 57.806233 105.27131 
L 61.567368 99.525617 
L 64.827018 95.232353 
L 66.247891 93.825001 
L 68.420991 91.098961 
L 76.026842 79.780408 
L 79.202911 75.516739 
L 81.20885 73.292347 
L 83.465531 71.006474 
L 86.6416 68.075816 
L 89.399766 65.577897 
L 92.575835 62.719272 
L 97.507101 58.69694 
L 101.68614 56.186299 
L 103.023432 55.569165 
L 106.03234 53.891265 
L 110.37854 51.690078 
L 110.545702 51.683473 
L 113.303868 50.345701 
L 113.387448 50.346068 
L 113.55461 50.267953 
L 113.972514 50.058623 
L 114.139675 50.125294 
L 114.223256 49.914317 
L 114.306837 50.078539 
L 114.390418 50.024892 
L 114.724741 49.92497 
L 115.142645 49.739638 
L 120.07391 47.821183 
L 123.667884 46.18761 
L 126.760372 44.544119 
L 130.020023 42.778962 
L 131.190153 42.490001 
L 131.440896 42.457329 
L 132.025961 42.281186 
L 132.276704 42.240811 
L 132.778188 42.064574 
L 133.613996 41.795545 
L 134.366223 41.522986 
L 137.29155 41.078654 
L 137.375131 41.03796 
L 137.542292 41.144467 
L 137.876616 41.035355 
L 138.127358 41.052341 
L 139.297489 40.72259 
L 139.548231 40.816695 
L 139.631812 40.597552 
L 139.715393 40.687237 
L 140.049716 40.623488 
L 140.300458 40.545058 
L 140.718362 40.509888 
L 142.891462 40.010947 
L 142.975043 40.170587 
L 143.058624 40.011839 
L 143.142204 40.090916 
L 143.225785 40.003439 
L 143.392947 40.300716 
L 143.643689 40.195854 
L 143.72727 40.160875 
L 143.810851 39.833622 
L 143.894431 40.14184 
L 143.978012 40.107165 
L 144.479497 39.936049 
L 144.646658 40.00027 
L 144.81382 39.836494 
L 145.064562 39.821143 
L 145.816789 38.359566 
L 146.318274 37.945152 
L 146.736178 37.86166 
L 147.237662 37.97723 
L 148.992859 38.621057 
L 149.076439 38.598007 
L 149.076439 38.598007 
" clip-path="url(#p5e84da8ba4)" style="fill: none; stroke: #ffbc79; stroke-width: 1.5; stroke-linecap: square"/>
   </g>
   <g id="line2d_3">
    <path d="M 38.415794 130.010236 
L 38.666536 129.826148 
L 39.920248 127.946411 
L 40.839636 126.747076 
L 42.093348 124.724543 
L 44.851513 120.997236 
L 45.854483 119.595663 
L 48.361906 116.635297 
L 51.287233 112.590367 
L 52.791687 110.557747 
L 55.21553 107.39288 
L 58.224438 104.023102 
L 58.642341 103.639405 
L 64.492996 97.354833 
L 68.003388 93.149818 
L 71.764523 88.563586 
L 74.606269 85.287174 
L 83.29867 75.625056 
L 83.800155 74.989499 
L 83.967316 74.132098 
L 84.635963 73.868939 
L 87.812032 69.853066 
L 90.235874 67.043609 
L 91.991071 65.288417 
L 92.743298 64.581894 
L 94.665656 62.506721 
L 96.922336 60.090765 
L 99.262598 57.689469 
L 104.946091 52.390428 
L 110.378841 48.453965 
L 113.47133 46.365594 
L 119.154823 42.312946 
L 123.835346 38.975427 
L 127.930804 36.504244 
L 129.100935 35.819393 
L 133.697878 33.060373 
L 135.369493 32.026067 
L 140.300759 29.221536 
L 143.811151 27.563766 
L 148.408094 25.578309 
L 153.840844 23.114512 
L 154.760233 22.719277 
L 156.431849 21.99522 
L 167.882415 17.807217 
L 175.153942 15.434985 
L 176.491235 15.030049 
L 177.661365 14.655916 
L 180.168789 13.874614 
L 189.362674 10.856486 
L 190.03132 10.603752 
L 193.374551 9.617498 
L 193.792455 9.531142 
L 195.213328 9.200315 
L 195.798394 9.078311 
L 195.798394 9.078311 
" clip-path="url(#p5e84da8ba4)" style="fill: none; stroke: #ababab; stroke-width: 1.5; stroke-linecap: square"/>
   </g>
   <g id="line2d_4">
    <path d="M 39.669505 127.073669 
L 41.006798 125.722939 
L 43.179898 123.678132 
L 44.182867 122.696751 
L 46.272387 120.04534 
L 48.361906 117.43957 
L 59.896053 104.032041 
L 62.82138 101.249935 
L 64.325834 99.847739 
L 65.495965 98.462945 
L 68.003388 94.906864 
L 72.51675 87.310874 
L 75.859981 81.961215 
L 80.874828 74.590683 
L 85.38819 68.375514 
L 92.910459 57.511877 
L 94.832817 54.999694 
L 96.755175 52.808699 
L 103.692379 44.91864 
L 112.134038 35.252127 
L 114.390719 33.152582 
L 116.981723 30.849115 
L 120.408534 27.496155 
L 122.915958 25.258014 
L 135.202332 14.860661 
L 140.300759 11.055808 
L 140.300759 11.055808 
" clip-path="url(#p5e84da8ba4)" style="fill: none; stroke: #3d4389; stroke-width: 1.5; stroke-linecap: square"/>
   </g>
   <g id="line2d_5">
    <path d="M 40.17099 127.400454 
L 42.260509 124.640807 
L 44.182867 122.745673 
L 48.111164 119.364755 
L 52.457364 113.581426 
L 55.466272 109.858796 
L 63.490026 99.75759 
L 66.08103 97.256214 
L 68.17055 95.125961 
L 70.510811 92.409274 
L 72.182427 90.061732 
L 77.197274 82.421422 
L 80.122601 77.61189 
L 81.961378 74.907642 
L 87.226967 67.120239 
L 90.82094 61.126742 
L 96.504433 51.392264 
L 99.931244 46.243404 
L 102.856572 42.059337 
L 105.280414 38.75007 
L 113.805653 26.831995 
L 124.086088 13.738094 
L 126.259189 11.058028 
L 126.259189 11.058028 
" clip-path="url(#p5e84da8ba4)" style="fill: none; stroke: #ff800e; stroke-width: 1.5; stroke-linecap: square"/>
   </g>
   <g id="matplotlib.axis_1">
    <g id="xtick_1">
     <g id="line2d_6">
      <defs>
       <path id="m90d497e302" d="M 0 0 
L 0 -2.5 
" style="stroke: #ffffff; stroke-width: 0.8"/>
      </defs>
      <g>
       <use xlink:href="#m90d497e302" x="35.406886" y="136.03722" style="fill: #ffffff; stroke: #ffffff; stroke-width: 0.8"/>
      </g>
     </g>
     <g id="line2d_7">
      <defs>
       <path id="ma7173111ed" d="M 0 0 
L 0 2.5 
" style="stroke: #ffffff; stroke-width: 0.8"/>
      </defs>
      <g>
       <use xlink:href="#ma7173111ed" x="35.406886" y="3.00024" style="fill: #ffffff; stroke: #ffffff; stroke-width: 0.8"/>
      </g>
     </g>
     <g id="text_1">
      <!-- $\mathdefault{0}$ -->
      <g style="fill: #ffffff" transform="translate(32.916218 146.455719) scale(0.1 -0.1)">
       <defs>
        <path id="CMR17-30" d="M 2688 2025 
C 2688 2416 2682 3080 2413 3591 
C 2176 4039 1798 4198 1466 4198 
C 1158 4198 768 4058 525 3597 
C 269 3118 243 2524 243 2025 
C 243 1661 250 1106 448 619 
C 723 -39 1216 -128 1466 -128 
C 1760 -128 2208 -7 2470 600 
C 2662 1042 2688 1559 2688 2025 
z
M 1466 -26 
C 1056 -26 813 325 723 812 
C 653 1188 653 1738 653 2096 
C 653 2588 653 2997 736 3387 
C 858 3929 1216 4096 1466 4096 
C 1728 4096 2067 3923 2189 3400 
C 2272 3036 2278 2607 2278 2096 
C 2278 1680 2278 1169 2202 792 
C 2067 95 1690 -26 1466 -26 
z
" transform="scale(0.015625)"/>
       </defs>
       <use xlink:href="#CMR17-30" transform="scale(0.996264)"/>
      </g>
     </g>
    </g>
    <g id="xtick_2">
     <g id="line2d_8">
      <g>
       <use xlink:href="#m90d497e302" x="77.194766" y="136.03722" style="fill: #ffffff; stroke: #ffffff; stroke-width: 0.8"/>
      </g>
     </g>
     <g id="line2d_9">
      <g>
       <use xlink:href="#ma7173111ed" x="77.194766" y="3.00024" style="fill: #ffffff; stroke: #ffffff; stroke-width: 0.8"/>
      </g>
     </g>
     <g id="text_2">
      <!-- $\mathdefault{5}$ -->
      <g style="fill: #ffffff" transform="translate(74.704098 146.455719) scale(0.1 -0.1)">
       <defs>
        <path id="CMR17-35" d="M 730 3692 
C 794 3666 1056 3584 1325 3584 
C 1920 3584 2246 3911 2432 4100 
C 2432 4157 2432 4192 2394 4192 
C 2387 4192 2374 4192 2323 4163 
C 2099 4058 1837 3973 1517 3973 
C 1325 3973 1037 3999 723 4139 
C 653 4171 640 4171 634 4171 
C 602 4171 595 4164 595 4037 
L 595 2203 
C 595 2089 595 2057 659 2057 
C 691 2057 704 2070 736 2114 
C 941 2401 1222 2522 1542 2522 
C 1766 2522 2246 2382 2246 1289 
C 2246 1085 2246 715 2054 421 
C 1894 159 1645 25 1370 25 
C 947 25 518 320 403 814 
C 429 807 480 795 506 795 
C 589 795 749 840 749 1038 
C 749 1210 627 1280 506 1280 
C 358 1280 262 1190 262 1011 
C 262 454 704 -128 1382 -128 
C 2042 -128 2669 440 2669 1264 
C 2669 2030 2170 2624 1549 2624 
C 1222 2624 947 2503 730 2274 
L 730 3692 
z
" transform="scale(0.015625)"/>
       </defs>
       <use xlink:href="#CMR17-35" transform="scale(0.996264)"/>
      </g>
     </g>
    </g>
    <g id="xtick_3">
     <g id="line2d_10">
      <g>
       <use xlink:href="#m90d497e302" x="118.982646" y="136.03722" style="fill: #ffffff; stroke: #ffffff; stroke-width: 0.8"/>
      </g>
     </g>
     <g id="line2d_11">
      <g>
       <use xlink:href="#ma7173111ed" x="118.982646" y="3.00024" style="fill: #ffffff; stroke: #ffffff; stroke-width: 0.8"/>
      </g>
     </g>
     <g id="text_3">
      <!-- $\mathdefault{10}$ -->
      <g style="fill: #ffffff" transform="translate(114.001311 146.455719) scale(0.1 -0.1)">
       <defs>
        <path id="CMR17-31" d="M 1702 4058 
C 1702 4192 1696 4192 1606 4192 
C 1357 3916 979 3827 621 3827 
C 602 3827 570 3827 563 3808 
C 557 3795 557 3782 557 3648 
C 755 3648 1088 3686 1344 3839 
L 1344 461 
C 1344 236 1331 160 781 160 
L 589 160 
L 589 0 
C 896 0 1216 0 1523 0 
C 1830 0 2150 0 2458 0 
L 2458 160 
L 2266 160 
C 1715 160 1702 230 1702 458 
L 1702 4058 
z
" transform="scale(0.015625)"/>
       </defs>
       <use xlink:href="#CMR17-31" transform="scale(0.996264)"/>
       <use xlink:href="#CMR17-30" transform="translate(45.690477 0) scale(0.996264)"/>
      </g>
     </g>
    </g>
    <g id="xtick_4">
     <g id="line2d_12">
      <g>
       <use xlink:href="#m90d497e302" x="160.770527" y="136.03722" style="fill: #ffffff; stroke: #ffffff; stroke-width: 0.8"/>
      </g>
     </g>
     <g id="line2d_13">
      <g>
       <use xlink:href="#ma7173111ed" x="160.770527" y="3.00024" style="fill: #ffffff; stroke: #ffffff; stroke-width: 0.8"/>
      </g>
     </g>
     <g id="text_4">
      <!-- $\mathdefault{15}$ -->
      <g style="fill: #ffffff" transform="translate(155.789191 146.455719) scale(0.1 -0.1)">
       <use xlink:href="#CMR17-31" transform="scale(0.996264)"/>
       <use xlink:href="#CMR17-35" transform="translate(45.690477 0) scale(0.996264)"/>
      </g>
     </g>
    </g>
    <g id="xtick_5">
     <g id="line2d_14">
      <g>
       <use xlink:href="#m90d497e302" x="202.558407" y="136.03722" style="fill: #ffffff; stroke: #ffffff; stroke-width: 0.8"/>
      </g>
     </g>
     <g id="line2d_15">
      <g>
       <use xlink:href="#ma7173111ed" x="202.558407" y="3.00024" style="fill: #ffffff; stroke: #ffffff; stroke-width: 0.8"/>
      </g>
     </g>
     <g id="text_5">
      <!-- $\mathdefault{20}$ -->
      <g style="fill: #ffffff" transform="translate(197.577072 146.455719) scale(0.1 -0.1)">
       <defs>
        <path id="CMR17-32" d="M 2669 989 
L 2554 989 
C 2490 536 2438 459 2413 420 
C 2381 369 1920 369 1830 369 
L 602 369 
C 832 619 1280 1072 1824 1597 
C 2214 1967 2669 2402 2669 3035 
C 2669 3790 2067 4224 1395 4224 
C 691 4224 262 3604 262 3030 
C 262 2780 448 2748 525 2748 
C 589 2748 781 2787 781 3010 
C 781 3207 614 3264 525 3264 
C 486 3264 448 3258 422 3245 
C 544 3790 915 4058 1306 4058 
C 1862 4058 2227 3617 2227 3035 
C 2227 2479 1901 2000 1536 1584 
L 262 146 
L 262 0 
L 2515 0 
L 2669 989 
z
" transform="scale(0.015625)"/>
       </defs>
       <use xlink:href="#CMR17-32" transform="scale(0.996264)"/>
       <use xlink:href="#CMR17-30" transform="translate(45.690477 0) scale(0.996264)"/>
      </g>
     </g>
    </g>
    <g id="text_6">
     <!-- Time, $t~\textrm{[s]}$ -->
     <g style="fill: #ffffff" transform="translate(97.55019 159.864877) scale(0.1 -0.1)">
      <defs>
       <path id="CMSS17-54" d="M 2317 3968 
L 2848 3968 
C 2925 3968 3002 3968 3078 3968 
L 3878 3968 
L 3878 4376 
L 218 4376 
L 218 3968 
L 1018 3968 
C 1094 3968 1171 3968 1248 3968 
L 1779 3968 
L 1779 -32 
L 2317 -32 
L 2317 3968 
z
" transform="scale(0.015625)"/>
       <path id="CMSS17-69" d="M 979 4183 
L 442 4183 
L 442 3648 
L 979 3648 
L 979 4183 
z
M 947 2739 
L 474 2739 
L 474 0 
L 947 0 
L 947 2739 
z
" transform="scale(0.015625)"/>
       <path id="CMSS17-6d" d="M 4288 1877 
C 4288 2308 4179 2816 3462 2816 
C 2982 2816 2694 2516 2566 2331 
C 2451 2670 2182 2816 1798 2816 
C 1363 2816 1088 2568 941 2389 
L 941 2758 
L 474 2758 
L 474 0 
L 960 0 
L 960 1559 
C 960 1939 1101 2428 1555 2428 
C 2138 2428 2138 2016 2138 1829 
L 2138 0 
L 2624 0 
L 2624 1559 
C 2624 1939 2765 2428 3219 2428 
C 3802 2428 3802 2016 3802 1829 
L 3802 0 
L 4288 0 
L 4288 1877 
z
" transform="scale(0.015625)"/>
       <path id="CMSS17-65" d="M 2502 1377 
C 2502 1590 2490 2003 2285 2345 
C 2061 2713 1696 2816 1421 2816 
C 755 2816 192 2188 192 1375 
C 192 582 774 -64 1510 -64 
C 1798 -64 2150 19 2470 248 
C 2470 274 2458 414 2451 420 
C 2451 433 2432 630 2432 656 
C 2125 407 1773 325 1517 325 
C 1107 325 666 667 646 1377 
L 2502 1377 
z
M 698 1728 
C 781 2084 1062 2421 1421 2421 
C 1517 2421 1965 2421 2080 1728 
L 698 1728 
z
" transform="scale(0.015625)"/>
       <path id="CMSS17-2c" d="M 1088 6 
L 1088 510 
L 576 510 
L 576 0 
L 736 0 
L 570 -800 
L 826 -800 
L 1088 6 
z
" transform="scale(0.015625)"/>
       <path id="CMMI12-74" d="M 1286 2566 
L 1875 2566 
C 1997 2566 2061 2566 2061 2681 
C 2061 2752 2022 2752 1894 2752 
L 1331 2752 
L 1568 3692 
C 1594 3781 1594 3794 1594 3840 
C 1594 3943 1510 4000 1427 4000 
C 1376 4000 1229 3981 1178 3775 
L 928 2752 
L 326 2752 
C 198 2752 141 2752 141 2630 
C 141 2566 186 2566 307 2566 
L 877 2566 
L 454 881 
C 403 658 384 594 384 511 
C 384 211 595 -64 954 -64 
C 1600 -64 1946 868 1946 912 
C 1946 951 1920 970 1882 970 
C 1869 970 1843 970 1830 944 
C 1824 938 1818 931 1773 829 
C 1638 511 1344 64 973 64 
C 781 64 768 224 768 364 
C 768 370 768 492 787 568 
L 1286 2566 
z
" transform="scale(0.015625)"/>
       <path id="CMR17-5b" d="M 1504 -1600 
L 1504 -1377 
L 902 -1377 
L 902 4544 
L 1504 4544 
L 1504 4767 
L 678 4767 
L 678 -1600 
L 1504 -1600 
z
" transform="scale(0.015625)"/>
       <path id="CMR17-73" d="M 1978 2697 
C 1978 2813 1971 2819 1933 2819 
C 1907 2819 1901 2813 1824 2717 
C 1805 2691 1747 2626 1728 2601 
C 1523 2819 1235 2819 1126 2819 
C 416 2819 160 2447 160 2076 
C 160 1498 813 1365 998 1325 
C 1402 1243 1542 1217 1677 1101 
C 1760 1025 1901 884 1901 654 
C 1901 384 1747 38 1158 38 
C 602 38 403 460 288 1021 
C 269 1110 269 1117 218 1117 
C 166 1117 160 1110 160 983 
L 160 63 
C 160 -51 166 -58 205 -58 
C 237 -58 243 -51 275 0 
C 314 57 410 211 448 276 
C 576 103 800 -64 1158 -64 
C 1792 -64 2131 283 2131 784 
C 2131 1112 1958 1285 1875 1362 
C 1683 1561 1459 1606 1190 1657 
C 838 1735 390 1825 390 2217 
C 390 2383 480 2737 1126 2737 
C 1811 2737 1850 2094 1862 1888 
C 1869 1856 1901 1849 1920 1849 
C 1978 1849 1978 1869 1978 1978 
L 1978 2697 
z
" transform="scale(0.015625)"/>
       <path id="CMR17-5d" d="M 915 4767 
L 90 4767 
L 90 4544 
L 691 4544 
L 691 -1377 
L 90 -1377 
L 90 -1600 
L 915 -1600 
L 915 4767 
z
" transform="scale(0.015625)"/>
      </defs>
      <use xlink:href="#CMSS17-54" transform="scale(0.996264)"/>
      <use xlink:href="#CMSS17-69" transform="translate(63.819454 0) scale(0.996264)"/>
      <use xlink:href="#CMSS17-6d" transform="translate(86.000177 0) scale(0.996264)"/>
      <use xlink:href="#CMSS17-65" transform="translate(160.229431 0) scale(0.996264)"/>
      <use xlink:href="#CMSS17-2c" transform="translate(201.868253 0) scale(0.996264)"/>
      <use xlink:href="#CMMI12-74" transform="translate(259.121571 0) scale(0.996264)"/>
      <use xlink:href="#CMR17-5b" transform="translate(325.577014 0) scale(0.996264)"/>
      <use xlink:href="#CMR17-73" transform="translate(350.448073 0) scale(0.996264)"/>
      <use xlink:href="#CMR17-5d" transform="translate(386.24941 0) scale(0.996264)"/>
     </g>
    </g>
   </g>
   <g id="matplotlib.axis_2">
    <g id="ytick_1">
     <g id="line2d_16">
      <defs>
       <path id="m88d804ee68" d="M 0 0 
L 2.5 0 
" style="stroke: #ffffff; stroke-width: 0.8"/>
      </defs>
      <g>
       <use xlink:href="#m88d804ee68" x="35.406886" y="136.03722" style="fill: #ffffff; stroke: #ffffff; stroke-width: 0.8"/>
      </g>
     </g>
     <g id="line2d_17">
      <defs>
       <path id="ma1bcd17b7d" d="M 0 0 
L -2.5 0 
" style="stroke: #ffffff; stroke-width: 0.8"/>
      </defs>
      <g>
       <use xlink:href="#ma1bcd17b7d" x="203.667524" y="136.03722" style="fill: #ffffff; stroke: #ffffff; stroke-width: 0.8"/>
      </g>
     </g>
     <g id="text_7">
      <!-- $\mathdefault{0}$ -->
      <g style="fill: #ffffff" transform="translate(26.925551 139.49647) scale(0.1 -0.1)">
       <use xlink:href="#CMR17-30" transform="scale(0.996264)"/>
      </g>
     </g>
    </g>
    <g id="ytick_2">
     <g id="line2d_18">
      <g>
       <use xlink:href="#m88d804ee68" x="35.406886" y="113.775031" style="fill: #ffffff; stroke: #ffffff; stroke-width: 0.8"/>
      </g>
     </g>
     <g id="line2d_19">
      <g>
       <use xlink:href="#ma1bcd17b7d" x="203.667524" y="113.775031" style="fill: #ffffff; stroke: #ffffff; stroke-width: 0.8"/>
      </g>
     </g>
     <g id="text_8">
      <!-- $\mathdefault{25}$ -->
      <g style="fill: #ffffff" transform="translate(21.944215 117.23428) scale(0.1 -0.1)">
       <use xlink:href="#CMR17-32" transform="scale(0.996264)"/>
       <use xlink:href="#CMR17-35" transform="translate(45.690477 0) scale(0.996264)"/>
      </g>
     </g>
    </g>
    <g id="ytick_3">
     <g id="line2d_20">
      <g>
       <use xlink:href="#m88d804ee68" x="35.406886" y="91.512841" style="fill: #ffffff; stroke: #ffffff; stroke-width: 0.8"/>
      </g>
     </g>
     <g id="line2d_21">
      <g>
       <use xlink:href="#ma1bcd17b7d" x="203.667524" y="91.512841" style="fill: #ffffff; stroke: #ffffff; stroke-width: 0.8"/>
      </g>
     </g>
     <g id="text_9">
      <!-- $\mathdefault{50}$ -->
      <g style="fill: #ffffff" transform="translate(21.944215 94.97209) scale(0.1 -0.1)">
       <use xlink:href="#CMR17-35" transform="scale(0.996264)"/>
       <use xlink:href="#CMR17-30" transform="translate(45.690477 0) scale(0.996264)"/>
      </g>
     </g>
    </g>
    <g id="ytick_4">
     <g id="line2d_22">
      <g>
       <use xlink:href="#m88d804ee68" x="35.406886" y="69.250651" style="fill: #ffffff; stroke: #ffffff; stroke-width: 0.8"/>
      </g>
     </g>
     <g id="line2d_23">
      <g>
       <use xlink:href="#ma1bcd17b7d" x="203.667524" y="69.250651" style="fill: #ffffff; stroke: #ffffff; stroke-width: 0.8"/>
      </g>
     </g>
     <g id="text_10">
      <!-- $\mathdefault{75}$ -->
      <g style="fill: #ffffff" transform="translate(21.944215 72.7099) scale(0.1 -0.1)">
       <defs>
        <path id="CMR17-37" d="M 2886 3941 
L 2886 4081 
L 1382 4081 
C 634 4081 621 4165 595 4288 
L 480 4288 
L 294 3094 
L 410 3094 
C 429 3215 474 3540 550 3661 
C 589 3712 1062 3712 1171 3712 
L 2579 3712 
L 1869 2661 
C 1395 1954 1069 999 1069 165 
C 1069 89 1069 -128 1299 -128 
C 1530 -128 1530 89 1530 171 
L 1530 465 
C 1530 1508 1709 2196 2003 2636 
L 2886 3941 
z
" transform="scale(0.015625)"/>
       </defs>
       <use xlink:href="#CMR17-37" transform="scale(0.996264)"/>
       <use xlink:href="#CMR17-35" transform="translate(45.690477 0) scale(0.996264)"/>
      </g>
     </g>
    </g>
    <g id="ytick_5">
     <g id="line2d_24">
      <g>
       <use xlink:href="#m88d804ee68" x="35.406886" y="46.988461" style="fill: #ffffff; stroke: #ffffff; stroke-width: 0.8"/>
      </g>
     </g>
     <g id="line2d_25">
      <g>
       <use xlink:href="#ma1bcd17b7d" x="203.667524" y="46.988461" style="fill: #ffffff; stroke: #ffffff; stroke-width: 0.8"/>
      </g>
     </g>
     <g id="text_11">
      <!-- $\mathdefault{100}$ -->
      <g style="fill: #ffffff" transform="translate(16.96288 50.447711) scale(0.1 -0.1)">
       <use xlink:href="#CMR17-31" transform="scale(0.996264)"/>
       <use xlink:href="#CMR17-30" transform="translate(45.690477 0) scale(0.996264)"/>
       <use xlink:href="#CMR17-30" transform="translate(91.380954 0) scale(0.996264)"/>
      </g>
     </g>
    </g>
    <g id="ytick_6">
     <g id="line2d_26">
      <g>
       <use xlink:href="#m88d804ee68" x="35.406886" y="24.726272" style="fill: #ffffff; stroke: #ffffff; stroke-width: 0.8"/>
      </g>
     </g>
     <g id="line2d_27">
      <g>
       <use xlink:href="#ma1bcd17b7d" x="203.667524" y="24.726272" style="fill: #ffffff; stroke: #ffffff; stroke-width: 0.8"/>
      </g>
     </g>
     <g id="text_12">
      <!-- $\mathdefault{125}$ -->
      <g style="fill: #ffffff" transform="translate(16.96288 28.185521) scale(0.1 -0.1)">
       <use xlink:href="#CMR17-31" transform="scale(0.996264)"/>
       <use xlink:href="#CMR17-32" transform="translate(45.690477 0) scale(0.996264)"/>
       <use xlink:href="#CMR17-35" transform="translate(91.380954 0) scale(0.996264)"/>
      </g>
     </g>
    </g>
    <g id="text_13">
     <!-- Nose position, $x~\textrm{[cm]}$ -->
     <g style="fill: #ffffff" transform="translate(10.47222 114.361047) rotate(-90) scale(0.1 -0.1)">
      <defs>
       <path id="CMSS17-4e" d="M 1466 4180 
L 1350 4416 
L 563 4416 
L 563 0 
L 1062 0 
L 1062 3926 
L 1069 3932 
C 1114 3817 1139 3760 1402 3194 
L 2771 236 
L 2886 0 
L 3674 0 
L 3674 4416 
L 3174 4416 
L 3174 490 
L 3168 483 
C 3123 598 3098 655 2835 1221 
L 1466 4180 
z
" transform="scale(0.015625)"/>
       <path id="CMSS17-6f" d="M 2829 1356 
C 2829 2176 2221 2816 1504 2816 
C 768 2816 173 2157 173 1356 
C 173 544 787 -64 1498 -64 
C 2227 -64 2829 563 2829 1356 
z
M 1504 337 
C 1050 337 659 709 659 1408 
C 659 2151 1114 2427 1498 2427 
C 1914 2427 2342 2126 2342 1408 
C 2342 683 1926 337 1504 337 
z
" transform="scale(0.015625)"/>
       <path id="CMSS17-73" d="M 2061 2627 
C 1683 2807 1389 2807 1197 2807 
C 742 2807 198 2648 198 2003 
C 198 1359 902 1218 1094 1179 
C 1389 1122 1715 1058 1715 740 
C 1715 337 1254 337 1171 337 
C 915 337 563 407 243 638 
L 166 210 
C 531 0 883 -64 1178 -64 
C 1965 -64 2163 416 2163 781 
C 2163 1094 1984 1305 1862 1401 
C 1651 1568 1574 1587 1050 1696 
C 960 1709 646 1779 646 2066 
C 646 2432 1050 2432 1139 2432 
C 1555 2432 1811 2303 1984 2208 
L 2061 2627 
z
" transform="scale(0.015625)"/>
       <path id="CMSS17-70" d="M 966 333 
C 1178 129 1466 -5 1773 -5 
C 2368 -5 2880 603 2880 1412 
C 2880 2159 2496 2816 1946 2816 
C 1626 2816 1242 2702 954 2472 
L 954 2765 
L 480 2765 
L 480 -1216 
L 966 -1216 
L 966 333 
z
M 966 2100 
C 1018 2176 1235 2415 1587 2415 
C 2035 2415 2394 1960 2394 1412 
C 2394 787 1958 384 1530 384 
C 1402 384 1267 415 1139 523 
C 966 674 966 768 966 857 
L 966 2100 
z
" transform="scale(0.015625)"/>
       <path id="CMSS17-74" d="M 1069 2368 
L 1901 2368 
L 1901 2737 
L 1069 2737 
L 1069 3520 
L 614 3520 
L 614 2737 
L 109 2737 
L 109 2368 
L 602 2368 
L 602 749 
C 602 384 685 -64 1107 -64 
C 1427 -64 1722 25 2003 172 
L 1901 548 
C 1747 414 1562 337 1363 337 
C 1082 337 1069 696 1069 856 
L 1069 2368 
z
" transform="scale(0.015625)"/>
       <path id="CMSS17-6e" d="M 2618 1877 
C 2618 2283 2522 2816 1798 2816 
C 1389 2816 1120 2606 941 2389 
L 941 2758 
L 474 2758 
L 474 0 
L 960 0 
L 960 1559 
C 960 1964 1114 2428 1549 2428 
C 2112 2428 2131 2048 2131 1829 
L 2131 0 
L 2618 0 
L 2618 1877 
z
" transform="scale(0.015625)"/>
       <path id="CMMI12-78" d="M 3034 2606 
C 2829 2567 2752 2414 2752 2293 
C 2752 2139 2874 2088 2963 2088 
C 3155 2088 3290 2254 3290 2427 
C 3290 2695 2982 2816 2714 2816 
C 2323 2816 2106 2433 2048 2312 
C 1901 2816 1504 2816 1389 2816 
C 736 2816 390 1980 390 1839 
C 390 1814 416 1782 461 1782 
C 512 1782 525 1820 538 1846 
C 755 2555 1184 2689 1370 2689 
C 1658 2689 1715 2420 1715 2267 
C 1715 2127 1677 1980 1600 1673 
L 1382 798 
C 1286 415 1101 64 762 64 
C 730 64 570 64 435 147 
C 666 192 717 383 717 460 
C 717 588 621 664 499 664 
C 346 664 179 530 179 326 
C 179 57 480 -64 755 -64 
C 1062 -64 1280 179 1414 441 
C 1517 64 1837 -64 2074 -64 
C 2726 -64 3072 773 3072 913 
C 3072 945 3046 971 3008 971 
C 2950 971 2944 939 2925 888 
C 2752 326 2381 64 2093 64 
C 1869 64 1747 230 1747 492 
C 1747 632 1773 734 1875 1156 
L 2099 2024 
C 2195 2408 2413 2689 2707 2689 
C 2720 2689 2899 2689 3034 2606 
z
" transform="scale(0.015625)"/>
       <path id="CMR17-63" d="M 2234 2240 
C 2112 2240 1933 2240 1933 2017 
C 1933 1838 2080 1787 2163 1787 
C 2208 1787 2394 1807 2394 2024 
C 2394 2467 1958 2803 1466 2803 
C 787 2803 211 2178 211 1363 
C 211 516 813 -64 1466 -64 
C 2259 -64 2458 677 2458 748 
C 2458 774 2451 793 2406 793 
C 2362 793 2355 787 2330 703 
C 2163 180 1798 51 1523 51 
C 1114 51 621 427 621 1369 
C 621 2338 1094 2688 1472 2688 
C 1722 2688 2093 2573 2234 2240 
z
" transform="scale(0.015625)"/>
       <path id="CMR17-6d" d="M 4326 1933 
C 4326 2252 4269 2790 3507 2790 
C 3072 2790 2771 2496 2656 2151 
L 2650 2151 
C 2573 2676 2195 2790 1837 2790 
C 1331 2790 1069 2400 973 2144 
L 966 2144 
L 966 2790 
L 211 2720 
L 211 2554 
C 589 2554 646 2515 646 2208 
L 646 428 
C 646 184 621 153 211 153 
L 211 -13 
C 365 0 646 0 813 0 
C 979 0 1267 0 1421 -13 
L 1421 153 
C 1011 153 986 178 986 428 
L 986 1658 
C 986 2247 1344 2688 1792 2688 
C 2266 2688 2317 2266 2317 1958 
L 2317 428 
C 2317 184 2291 153 1882 153 
L 1882 -13 
C 2035 0 2317 0 2483 0 
C 2650 0 2938 0 3091 -13 
L 3091 153 
C 2682 153 2656 178 2656 428 
L 2656 1658 
C 2656 2247 3014 2688 3462 2688 
C 3936 2688 3987 2266 3987 1958 
L 3987 428 
C 3987 184 3962 153 3552 153 
L 3552 -13 
C 3706 0 3987 0 4154 0 
C 4320 0 4608 0 4762 -13 
L 4762 153 
C 4352 153 4326 178 4326 428 
L 4326 1933 
z
" transform="scale(0.015625)"/>
      </defs>
      <use xlink:href="#CMSS17-4e" transform="scale(0.996264)"/>
      <use xlink:href="#CMSS17-6f" transform="translate(66.061519 0) scale(0.996264)"/>
      <use xlink:href="#CMSS17-73" transform="translate(112.905143 0) scale(0.996264)"/>
      <use xlink:href="#CMSS17-65" transform="translate(148.818685 0) scale(0.996264)"/>
      <use xlink:href="#CMSS17-70" transform="translate(221.68662 0) scale(0.996264)"/>
      <use xlink:href="#CMSS17-6f" transform="translate(272.494001 0) scale(0.996264)"/>
      <use xlink:href="#CMSS17-73" transform="translate(319.337625 0) scale(0.996264)"/>
      <use xlink:href="#CMSS17-69" transform="translate(355.251167 0) scale(0.996264)"/>
      <use xlink:href="#CMSS17-74" transform="translate(377.43189 0) scale(0.996264)"/>
      <use xlink:href="#CMSS17-69" transform="translate(411.263457 0) scale(0.996264)"/>
      <use xlink:href="#CMSS17-6f" transform="translate(433.44418 0) scale(0.996264)"/>
      <use xlink:href="#CMSS17-6e" transform="translate(480.287803 0) scale(0.996264)"/>
      <use xlink:href="#CMSS17-2c" transform="translate(528.492746 0) scale(0.996264)"/>
      <use xlink:href="#CMMI12-78" transform="translate(585.746064 0) scale(0.996264)"/>
      <use xlink:href="#CMR17-5b" transform="translate(672.409236 0) scale(0.996264)"/>
      <use xlink:href="#CMR17-63" transform="translate(697.280295 0) scale(0.996264)"/>
      <use xlink:href="#CMR17-6d" transform="translate(737.765955 0) scale(0.996264)"/>
      <use xlink:href="#CMR17-5d" transform="translate(814.685545 0) scale(0.996264)"/>
     </g>
    </g>
   </g>
   <g id="patch_3">
    <path d="M 35.406886 136.03722 
L 35.406886 3.00024 
" style="fill: none; stroke: #ffffff; stroke-width: 0.8; stroke-linejoin: miter; stroke-linecap: square"/>
   </g>
   <g id="patch_4">
    <path d="M 203.667524 136.03722 
L 203.667524 3.00024 
" style="fill: none; stroke: #ffffff; stroke-width: 0.8; stroke-linejoin: miter; stroke-linecap: square"/>
   </g>
   <g id="patch_5">
    <path d="M 35.406886 136.03722 
L 203.667524 136.03722 
" style="fill: none; stroke: #ffffff; stroke-width: 0.8; stroke-linejoin: miter; stroke-linecap: square"/>
   </g>
   <g id="patch_6">
    <path d="M 35.406886 3.00024 
L 203.667524 3.00024 
" style="fill: none; stroke: #ffffff; stroke-width: 0.8; stroke-linejoin: miter; stroke-linecap: square"/>
   </g>
   <g id="legend_1">
    <g id="patch_7">
     <path d="M 146.956109 131.03722 
L 196.667524 131.03722 
Q 198.667524 131.03722 198.667524 129.03722 
L 198.667524 46.495652 
Q 198.667524 44.495652 196.667524 44.495652 
L 146.956109 44.495652 
Q 144.956109 44.495652 144.956109 46.495652 
L 144.956109 129.03722 
Q 144.956109 131.03722 146.956109 131.03722 
z
" style="fill: #191919; opacity: 0.8; stroke: #cccccc; stroke-linejoin: miter"/>
    </g>
    <g id="text_14">
     <!-- $S$ -->
     <g style="fill: #ffffff" transform="translate(168.7573 55.41415) scale(0.1 -0.1)">
      <defs>
       <path id="CMMI12-53" d="M 4064 4423 
C 4064 4480 4019 4480 4006 4480 
C 3981 4480 3974 4474 3898 4378 
C 3859 4333 3597 4001 3590 3995 
C 3379 4410 2957 4480 2688 4480 
C 1875 4480 1139 3743 1139 3025 
C 1139 2549 1427 2269 1741 2161 
C 1811 2135 2189 2033 2381 1989 
C 2707 1900 2790 1875 2925 1735 
C 2950 1703 3078 1557 3078 1258 
C 3078 667 2528 57 1888 57 
C 1363 57 781 280 781 991 
C 781 1112 806 1265 826 1328 
C 826 1348 832 1378 832 1391 
C 832 1417 819 1449 768 1449 
C 710 1449 704 1436 678 1328 
L 352 24 
C 352 18 326 -64 326 -71 
C 326 -128 378 -128 390 -128 
C 416 -128 422 -122 499 -26 
L 794 356 
C 947 126 1280 -128 1875 -128 
C 2701 -128 3456 666 3456 1460 
C 3456 1728 3392 1963 3149 2197 
C 3014 2331 2899 2363 2310 2516 
C 1882 2630 1824 2649 1709 2751 
C 1600 2858 1517 3011 1517 3227 
C 1517 3761 2061 4308 2669 4308 
C 3296 4308 3590 3926 3590 3323 
C 3590 3158 3558 2986 3558 2961 
C 3558 2903 3610 2903 3629 2903 
C 3686 2903 3693 2922 3718 3024 
L 4064 4423 
z
" transform="scale(0.015625)"/>
      </defs>
      <use xlink:href="#CMMI12-53" transform="scale(0.996264)"/>
     </g>
    </g>
    <g id="line2d_28">
     <path d="M 148.956109 65.851329 
L 158.956109 65.851329 
L 168.956109 65.851329 
" style="fill: none; stroke: #ff800e; stroke-width: 1.5; stroke-linecap: square"/>
    </g>
    <g id="text_15">
     <!-- $0.01$ -->
     <g style="fill: #ffffff" transform="translate(176.956109 69.351329) scale(0.1 -0.1)">
      <defs>
       <path id="CMMI12-3a" d="M 1178 307 
C 1178 492 1024 619 870 619 
C 685 619 557 466 557 313 
C 557 128 710 0 864 0 
C 1050 0 1178 153 1178 307 
z
" transform="scale(0.015625)"/>
      </defs>
      <use xlink:href="#CMR17-30" transform="scale(0.996264)"/>
      <use xlink:href="#CMMI12-3a" transform="translate(45.690477 0) scale(0.996264)"/>
      <use xlink:href="#CMR17-30" transform="translate(72.787654 0) scale(0.996264)"/>
      <use xlink:href="#CMR17-31" transform="translate(118.478131 0) scale(0.996264)"/>
     </g>
    </g>
    <g id="line2d_29">
     <path d="M 148.956109 79.788507 
L 158.956109 79.788507 
L 168.956109 79.788507 
" style="fill: none; stroke: #3d4389; stroke-width: 1.5; stroke-linecap: square"/>
    </g>
    <g id="text_16">
     <!-- $0.02$ -->
     <g style="fill: #ffffff" transform="translate(176.956109 83.288507) scale(0.1 -0.1)">
      <use xlink:href="#CMR17-30" transform="scale(0.996264)"/>
      <use xlink:href="#CMMI12-3a" transform="translate(45.690477 0) scale(0.996264)"/>
      <use xlink:href="#CMR17-30" transform="translate(72.787654 0) scale(0.996264)"/>
      <use xlink:href="#CMR17-32" transform="translate(118.478131 0) scale(0.996264)"/>
     </g>
    </g>
    <g id="line2d_30">
     <path d="M 148.956109 93.725685 
L 158.956109 93.725685 
L 168.956109 93.725685 
" style="fill: none; stroke: #ababab; stroke-width: 1.5; stroke-linecap: square"/>
    </g>
    <g id="text_17">
     <!-- $0.04$ -->
     <g style="fill: #ffffff" transform="translate(176.956109 97.225685) scale(0.1 -0.1)">
      <defs>
       <path id="CMR17-34" d="M 2150 4122 
C 2150 4256 2144 4256 2029 4256 
L 128 1254 
L 128 1088 
L 1779 1088 
L 1779 457 
C 1779 224 1766 160 1318 160 
L 1197 160 
L 1197 0 
C 1402 0 1747 0 1965 0 
C 2182 0 2528 0 2733 0 
L 2733 160 
L 2611 160 
C 2163 160 2150 224 2150 457 
L 2150 1088 
L 2803 1088 
L 2803 1254 
L 2150 1254 
L 2150 4122 
z
M 1798 3703 
L 1798 1254 
L 256 1254 
L 1798 3703 
z
" transform="scale(0.015625)"/>
      </defs>
      <use xlink:href="#CMR17-30" transform="scale(0.996264)"/>
      <use xlink:href="#CMMI12-3a" transform="translate(45.690477 0) scale(0.996264)"/>
      <use xlink:href="#CMR17-30" transform="translate(72.787654 0) scale(0.996264)"/>
      <use xlink:href="#CMR17-34" transform="translate(118.478131 0) scale(0.996264)"/>
     </g>
    </g>
    <g id="line2d_31">
     <path d="M 148.956109 107.662864 
L 158.956109 107.662864 
L 168.956109 107.662864 
" style="fill: none; stroke: #ffbc79; stroke-width: 1.5; stroke-linecap: square"/>
    </g>
    <g id="text_18">
     <!-- $0.05$ -->
     <g style="fill: #ffffff" transform="translate(176.956109 111.162864) scale(0.1 -0.1)">
      <use xlink:href="#CMR17-30" transform="scale(0.996264)"/>
      <use xlink:href="#CMMI12-3a" transform="translate(45.690477 0) scale(0.996264)"/>
      <use xlink:href="#CMR17-30" transform="translate(72.787654 0) scale(0.996264)"/>
      <use xlink:href="#CMR17-35" transform="translate(118.478131 0) scale(0.996264)"/>
     </g>
    </g>
    <g id="line2d_32">
     <path d="M 148.956109 121.600042 
L 158.956109 121.600042 
L 168.956109 121.600042 
" style="fill: none; stroke: #9467bd; stroke-width: 1.5; stroke-linecap: square"/>
    </g>
    <g id="text_19">
     <!-- $0.10$ -->
     <g style="fill: #ffffff" transform="translate(176.956109 125.100042) scale(0.1 -0.1)">
      <use xlink:href="#CMR17-30" transform="scale(0.996264)"/>
      <use xlink:href="#CMMI12-3a" transform="translate(45.690477 0) scale(0.996264)"/>
      <use xlink:href="#CMR17-31" transform="translate(72.787654 0) scale(0.996264)"/>
      <use xlink:href="#CMR17-30" transform="translate(118.478131 0) scale(0.996264)"/>
     </g>
    </g>
   </g>
  </g>
 </g>
 <defs>
  <clipPath id="p5e84da8ba4">
   <rect x="35.406886" y="3.00024" width="168.260638" height="133.03698"/>
  </clipPath>
 </defs>
</svg>
