<?xml version="1.0" encoding="UTF-8" standalone="no"?>
<svg
   width="342.61322pt"
   height="112.6474pt"
   viewBox="0 0 342.61322 112.6474"
   version="1.2"
   id="svg358"
   sodipodi:docname="sketch_entrainment_wilson2017.svg"
   inkscape:version="1.2.2 (1:1.2.2+202305151914+b0a8486541)"
   xmlns:inkscape="http://www.inkscape.org/namespaces/inkscape"
   xmlns:sodipodi="http://sodipodi.sourceforge.net/DTD/sodipodi-0.dtd"
   xmlns="http://www.w3.org/2000/svg"
   xmlns:svg="http://www.w3.org/2000/svg">
  <sodipodi:namedview
     id="namedview360"
     pagecolor="#ffffff"
     bordercolor="#666666"
     borderopacity="1.0"
     inkscape:showpageshadow="2"
     inkscape:pageopacity="0.0"
     inkscape:pagecheckerboard="0"
     inkscape:deskcolor="#d1d1d1"
     inkscape:document-units="pt"
     showgrid="false"
     inkscape:zoom="1.6718488"
     inkscape:cx="215.03141"
     inkscape:cy="76.262877"
     inkscape:window-width="1920"
     inkscape:window-height="1016"
     inkscape:window-x="0"
     inkscape:window-y="0"
     inkscape:window-maximized="1"
     inkscape:current-layer="svg358" />
  <defs
     id="defs11">
    <clipPath
       id="clip1">
      <path
         d="M 13,1 H 336.86328 V 105 H 13 Z m 0,0"
         id="path2" />
    </clipPath>
    <clipPath
       id="clip2">
      <path
         d="m 26,75 h 32 v 30.87109 H 26 Z m 0,0"
         id="path5" />
    </clipPath>
    <clipPath
       id="clip3">
      <path
         d="m 312,44 h 24.86328 v 61.87109 H 312 Z m 0,0"
         id="path8" />
    </clipPath>
  </defs>
  <rect
     style="fill:#ffffff;stroke:#ffffff;stroke-width:2.30891"
     id="rect465"
     width="340.30432"
     height="110.33849"
     x="1.1544549"
     y="1.1544549" />
  <g
     id="surface3144"
     transform="translate(2.8748071,3.3882921)">
    <path
       style="fill:#e8e8e8;fill-opacity:1;fill-rule:nonzero;stroke:none"
       d="m 54.988281,64.6875 c -2.011719,0.125 -3.652343,0.496094 -5.398437,1.542969 -0.859375,0.515625 -1.707032,1.3125 -2.4375,2.015625 -1.523438,1.449218 0.515625,-0.121094 0.355468,-0.140625 1.082032,0.289062 2.15625,0.582031 3.238282,0.875 0.589844,0.289062 0.433594,0.9375 0.355468,-0.101563 -0.08984,-1.1875 0.144532,-1.742187 0.695313,-2.808594 1.492187,-2.894531 4.074219,-5.199218 6.457031,-7.351562 4.980469,-4.496094 10.867188,-7.917969 17.097656,-10.355469 6.578126,-2.570312 13.5,-4.070312 20.222657,-6.175781 6.195311,-1.945312 13.285161,-4.835938 19.906251,-3.808594 V 26.015625 c -5.13672,1.585937 -9.60938,4.550781 -11.77734,9.640625 -1.86719,4.382812 -3.19532,12.023438 1.04687,15.652344 2.26172,1.933594 4.46484,2.738281 7.44922,2.820312 2.62891,0.07422 4.52344,-1.613281 6.91016,-1.839844 3.0664,-0.289062 6.125,0.652344 9.28906,0.222657 3.16406,-0.429688 5.78515,-1.796875 8.0664,-4.023438 4.44922,-4.339843 -0.0508,-12.839843 -6.23828,-10.71875 -0.58203,0.179688 -1.15234,0.394531 -1.70703,0.640625 -2.6875,1.113282 -4.71094,3.0625 -4.71094,6.183594 0,3.402344 2.91797,6.539062 6.41407,6.414062 4.5664,-0.164062 8.40234,-2.472656 12.02343,-5.066406 1.66016,-1.191406 3.25391,-2.476562 4.89453,-3.695312 0.59375,-0.4375 1.21485,-0.789063 1.85157,-1.15625 0.54297,-0.316406 1.09765,-0.609375 1.66015,-0.882813 1.73047,-0.394531 0.61719,-1.265625 -3.33593,-2.613281 V 34.1875 c 0.87109,-2.820312 3.76562,-3.191406 0.94921,-2.605469 -0.73828,0.15625 -1.48437,0.246094 -2.22265,0.417969 -3.20313,0.738281 -5.90235,2.792969 -7.83985,5.371094 -3.67187,4.882812 -3.30859,11.453125 -0.46093,16.605468 3.01562,5.453126 9.48047,7.355469 15.21093,8.203126 6.50782,0.957031 14.29688,1.257812 18.07032,-5.160157 2.40234,-4.085937 -0.63672,-9.816406 -5.53516,-9.644531 -1.15625,0.03906 -2.28125,0.214844 -3.41406,0.441406 1.64453,3.90625 3.29297,7.8125 4.9375,11.71875 3.65234,-1.597656 6.45703,-2.648437 8.71484,-6.148437 1.55469,-2.40625 0.96875,-5.800781 -1.0039,-7.769531 l -0.64063,-0.640626 c -0.43359,3.355469 -0.86328,6.714844 -1.29687,10.070313 2.49218,-1.59375 5.33984,-2.457031 7.69531,-4.273437 2.76172,-2.132813 4.23828,-5.46875 2.30078,-8.773438 -1.71875,-2.929688 -5.82422,-4.179688 -8.77344,-2.300781 -4.04297,2.574219 -7.67187,6.597656 -8.82422,11.34375 -1.73437,7.15625 4.32032,11.484375 10.69922,11.820312 2.59766,0.140625 5.16406,-0.53125 7.77344,-0.316406 3.69922,0.308594 7.17187,0.08594 10.83203,-0.546875 3.09766,-0.535156 6.08594,-1.332031 9.21094,-1.722656 3.62109,-0.449219 6.55078,-2.5 10.08594,-3.089844 7.14062,-1.183594 5.46484,-13.089844 -1.70313,-12.59375 -3.77734,0.265625 -7.11328,1.417969 -10.68359,2.582031 -5.96094,1.941407 -6.26563,10.554688 0,12.363281 0.99609,0.289063 1.99218,0.519532 3,0.746094 0.35937,0.08594 0.71484,0.171875 1.07031,0.257813 1.60156,0.65625 1.46875,0.257812 -0.39844,-1.199219 0.16797,0.589844 0.004,3.546875 0.87891,5.050781 2.86719,4.9375 9.3789,5.085938 14.4414,5.230469 2.85547,0.08594 6.26172,-0.136719 8.82032,-1.542969 2.39843,-1.316406 4.23828,-3.386719 6.625,-4.699219 2.94531,-1.621093 5.90625,-3.257812 8.90625,-4.785156 2.32812,-1.183594 -4.06641,-4.222656 -2.64844,-2.019531 0.85937,1.335937 2.05859,2.492187 3.16406,3.621094 4.33203,4.40625 9.95703,5.066406 15.83985,5.046875 1.35937,-0.0039 5.45703,-0.488282 6.24218,0.53125 1.56641,2.039062 3.01563,5.167968 5.51953,6.261718 5.94141,2.59375 12.39454,0.789063 18.28125,-1.261718 5.48438,-1.914063 11.26563,0.21875 16.90235,0.105468 V 58.058594 c -4.26953,0.53125 -8.50391,1.558594 -12.82031,1.496094 -4.8086,-0.06641 -9.11719,0.210937 -13.88672,1.085937 -6.03125,1.105469 -6.26172,11.472656 0,12.367187 9.3164,1.324219 17.84765,-1.515624 27.05859,-2.09375 3.16406,-0.199218 6.94922,-0.96875 10.07031,-0.519531 -1.25,-5.507812 -2.15625,-6.964843 -2.72265,-4.382812 -0.35157,1.203125 -0.41016,2.492187 -0.5,3.730469 -0.16797,2.253906 1.03125,4.613281 1.50781,6.761718 1.49219,-2.625 2.98828,-5.253906 4.48047,-7.886718 -6.08594,1.007812 -12.5625,0.164062 -18.67969,-0.144532 -7.02734,-0.359375 -14.08984,-0.1875 -21.125,-0.375 -7.10547,-0.191406 -14.19531,-0.617187 -21.30859,-0.632812 -4.85547,-0.01172 -9.58203,-3.257813 -14.47657,-1.269532 -4.92578,2.003907 -6.71484,8.636719 -1.53125,11.71875 6.51172,3.875 15.98047,0.902344 21.86329,-2.992187 4.97265,-3.289063 3.5664,-9.605469 -1.53125,-11.71875 -4.0586,-1.679687 -8.51954,-0.765625 -12.66797,-2.039063 -3.71094,-1.144531 -7.34766,-3.523437 -11.34766,-3.382812 -5.36328,0.191406 -8.67969,5.839844 -7.3125,10.804688 1.19141,4.328124 4.87109,5.878906 8.43359,7.617187 7.39844,3.617187 13.89844,-7.4375 6.47266,-11.070313 -0.82422,-0.402343 -3.04297,-1.144531 -3.1875,-1.488281 0.28906,1.078125 0.58203,2.15625 0.875,3.238281 -0.67969,0.949219 -1.36328,1.898438 -2.04297,2.847657 -1.07812,0.289062 -2.16015,0.582031 -3.23828,0.875 -1.12109,0.03906 2.21094,0.945312 1.96875,0.851562 1.95703,0.765625 3.97266,1.410157 5.96875,2.070313 4.12891,1.371094 8.75,0.421875 12.66797,2.042968 -0.51172,-3.90625 -1.02344,-7.8125 -1.53125,-11.71875 -1.79688,1.1875 -7.14844,4.046876 -8.91797,2.992188 -0.51172,3.90625 -1.01953,7.8125 -1.53125,11.71875 1.33203,-0.539062 3.63672,0.644531 5.15625,1.050781 2.89453,0.777344 5.83984,0.667969 8.80469,0.683594 7.20312,0.03906 14.39844,0.53125 21.60156,0.703125 6.90625,0.164062 13.8125,0.07031 20.71484,0.441406 6.49219,0.347656 12.8711,0.609375 19.3125,-0.457031 3.56641,-0.589844 5.17579,-4.761719 4.47657,-7.886719 -0.40625,-1.824218 -1.15625,-3.175781 -0.78516,-4.445312 0.64063,-2.191406 0.64453,-4.570313 -0.54297,-6.59375 -2.48437,-4.242188 -7.92187,-4.609375 -12.28906,-4.402344 -4.80859,0.234375 -9.62109,0.570312 -14.38281,1.265625 -5.33203,0.777344 -10.9336,2.492187 -16.3711,1.71875 v 12.367187 c 3.58985,-0.664062 6.82032,-1.035156 10.47657,-0.628906 4.21484,0.472656 8.66406,-0.980468 12.82031,-1.496094 3.46875,-0.429687 6.41406,-2.589843 6.41406,-6.410156 0,-3.445312 -2.91406,-6.480468 -6.41406,-6.414062 -5.00781,0.101562 -9.91406,-1.261719 -14.92578,-0.800782 -5.47657,0.511719 -10.41016,3.835938 -16.01172,3.273438 1.07812,0.292969 2.15625,0.585938 3.23437,0.878906 -1.17187,-0.515625 -1.76953,-1.894531 -2.57422,-2.941406 -1.35937,-1.765625 -2.77343,-3.144531 -4.74218,-4.234375 -4.22266,-2.335937 -9.79297,-1.78125 -14.4375,-1.820313 -3.84766,-0.02734 -4.89063,-2.0625 -6.97266,-4.507812 -3.03125,-3.5625 -8.58594,-2.660156 -12.28516,-0.886719 -3.97265,1.90625 -8.30859,3.957031 -11.89453,6.503907 -1.21875,0.863281 -2.61718,2.675781 -4.07812,3.121093 -1.98047,0.597657 -4.625,0.121094 -6.64844,-0.05078 -0.53516,0.05078 -1.02734,-0.03906 -1.48047,-0.289062 2.91406,0.707031 2.5,6.109374 2.58594,2.789062 0.0547,-2.191406 -0.58594,-4.386719 -1.67578,-6.261719 -2.32813,-4 -7.33594,-4.503906 -11.32813,-5.65625 v 12.363281 c 2.33594,-0.761718 4.80078,-1.949218 7.27344,-2.121093 -0.57031,-4.199219 -1.13672,-8.394531 -1.70703,-12.59375 -3.81641,0.632812 -6.95703,2.621093 -10.85938,3.109375 -3.89843,0.484375 -7.61328,1.828125 -11.55468,2.003906 -3.65625,0.160156 -7.24219,-0.164062 -10.92188,0.07813 -0.50781,0.01563 -1.01172,0.02734 -1.51953,0.03125 4.21094,0.714844 1.05469,5.519531 2.82813,2.722656 0.5039,-0.789062 1.35156,-1.5 2.13281,-1.996093 -2.15625,-3.691407 -4.31641,-7.382813 -6.47266,-11.074219 -2.35937,1.816406 -5.20312,2.679687 -7.69531,4.273437 -3.46484,2.214844 -4.30859,7.058594 -1.29688,10.070313 l 0.64063,0.640625 c -0.33594,-2.585938 -0.66797,-5.179688 -1.00391,-7.769532 -0.19922,0.3125 -3.36328,1.21875 -4.10937,1.546876 -7.03125,3.082031 -1.75391,13.058593 4.9375,11.71875 l 0.008,0.01562 c -1.84375,-3.214843 -3.69141,-6.429687 -5.53516,-9.648437 1.76563,-0.742187 2.00391,-0.984375 0.70704,-0.730469 -0.59375,0.05078 -1.1875,0.07422 -1.78516,0.07031 -1.59375,0.02734 -3.17578,-0.160157 -4.74219,-0.4375 -2.1289,-0.378907 -5.04297,-0.660157 -5.76953,-2.96875 -0.51953,-1.671875 0.6875,-2.0625 2.01172,-2.300781 2.71484,-0.496094 5.62891,-1.148438 7.52734,-3.335938 3.11328,-3.578125 2.17188,-7.996094 -0.91797,-11.183594 -3.20703,-3.3125 -8.09765,-2.605468 -11.88281,-0.933594 -2.80859,1.242188 -5.12109,2.957032 -7.54297,4.808594 -1.83984,1.40625 -5.50781,4.582032 -7.33593,4.648438 0.5664,4.195312 1.13671,8.394531 1.70312,12.59375 0.55859,-0.25 1.12891,-0.460938 1.71094,-0.640625 -2.07813,-3.570313 -4.16016,-7.144531 -6.23828,-10.714844 -1.0586,1.03125 -3.84375,0.609375 -5.29688,0.382813 -3.39843,-0.523438 -6.23437,-0.121094 -9.35547,1.3125 -1.78906,0.820312 0.32032,-1.554688 2.07422,2.75 -0.0586,-0.144532 0.14844,-1.667969 0.25391,-2.171876 0.44141,-2.019531 1.99219,-2.75 3.81641,-3.316406 5.5625,-1.714844 6.66015,-11.328125 0,-12.363281 -11.17579,-1.738281 -21.26563,2.34375 -31.835942,5.34375 -11.203126,3.179687 -22.226563,6.460937 -31.769532,13.410156 -7.882812,5.746094 -16.929687,13.566407 -17.007812,24.109375 -0.03516,4.863282 2.488281,10.433594 7.527344,11.820313 2.261718,0.621093 5.351562,0.394531 7.359374,-0.933594 0.878907,-0.582031 1.703126,-1.226563 2.5,-1.917969 1.65625,-1.429687 1.265626,-0.460937 -0.675781,-0.339844 8.214844,-0.511718 8.265625,-13.335937 0,-12.820312"
       id="path13" />
    <path
       style="fill:#e8e8e8;fill-opacity:1;fill-rule:nonzero;stroke:none"
       d="m 80.851562,64.6875 c -5.152343,0.121094 -10.175781,1.339844 -15.308593,1.539062 -4.566407,0.179688 -9.019531,-0.04297 -13.539063,0.824219 2.628906,1.492188 5.257813,2.984375 7.886719,4.480469 -0.882813,2.214844 -0.796875,2.730469 0.257813,1.546875 0.484374,-0.394531 0.972656,-0.777344 1.464843,-1.15625 1.445313,-1.128906 2.640625,-2.542969 3.773438,-3.964844 2.636719,-3.296875 5.671875,-4.714843 9.496093,-6.398437 3.417969,-1.511719 6.851563,-2.945313 10.074219,-4.851563 3.078125,-1.816406 6.066407,-3.964843 9.453125,-5.179687 0.4375,-0.08984 0.863282,-0.222656 1.273438,-0.398438 1.417968,0.09766 1.261718,-0.09375 -0.457032,-0.574218 1.355469,1.238281 2.308594,3.09375 3.542969,4.46875 2.835939,3.160156 7.550779,6.277343 11.539059,7.683593 4.28125,1.507813 8.61329,1.683594 13.10547,1.335938 2.16797,-0.167969 4.34766,-0.386719 6.50781,-0.644531 0.50782,-0.05859 3.91797,-0.394532 3.67579,-0.589844 2.58984,-3.359375 5.17968,-6.714844 7.76953,-10.070313 -1.00391,-0.667969 -1.79297,-1.929687 -2.55078,-2.84375 -4.63672,-5.605469 -14.22657,1.8125 -10.07032,7.765625 6.54297,9.375 16.1211,11.664063 26.79297,13.4375 6.13672,1.019532 11.33594,0.371094 17.21094,-1.523437 2.67187,-0.859375 6.37109,-0.121094 9.12891,0.03516 3.71875,0.210937 7.40234,0.386719 11.125,0.167969 2.92578,-0.167969 5.83593,-0.765625 8.71484,-1.28125 1.49609,-0.265625 2.14844,0.515625 0.46484,-0.894532 0.72266,0.605469 1.24219,1.550782 1.85938,2.277344 3.37109,3.960938 10.57422,4.84375 15.36719,5.285156 2.95312,0.273438 5.95312,0.105469 8.91406,0.207032 2.67578,0.08984 5.65234,1.386718 8.23828,2.054687 6.25781,1.625 12.36328,3.625 18.90625,3.609375 7.17578,-0.01563 8.81641,-10.847656 1.70312,-12.59375 -9.23828,-2.269531 -18.84375,-1.1875 -28.25,-1.191406 -11,-0.0039 -22,-0.386719 -33,-0.273438 -11.23437,0.113282 -22.46093,0.660157 -33.69921,0.554688 -5.1875,-0.05078 -10.39063,-0.234375 -15.57813,-0.441406 -2.51172,-0.09766 -5.01562,-0.332032 -7.53125,-0.433594 -1.53516,-0.0625 -3.07812,-0.04687 -4.61719,-0.04687 -4.17968,-0.0039 1.35938,0.03516 1.71485,2.097656 v 3.40625 c -2.59766,2.085938 -2.96094,2.8125 -1.07813,2.175781 5.50781,-1.277343 6.17188,-8.996093 1.53125,-11.722656 -6.63281,-3.894531 -14.26953,-2.386718 -21.55468,-2.621094 -3.53516,-0.117187 -6.86719,-0.558593 -10.21094,-1.746093 -3.24219,-1.144531 -4.26563,-4.617188 -6.67969,-6.6875 -2.859375,-2.457031 -6.414062,-2.738281 -10.042969,-2.59375 -2.097656,0.08594 -3.878906,0.71875 -5.75,1.601562 -1.160156,0.542969 -2.019531,1.84375 -3.210937,2.265625 -2.632813,0.929688 -5.933594,0.394532 -8.6875,0.625 -3.722656,0.3125 -7.570313,1.378906 -10.027344,4.390625 -2.058594,2.523438 -2.859375,6.648438 0,9.066407 4.445312,3.757812 9.789062,3.484374 15.246094,2.726562 C 82.066406,68.714844 88.203125,69 94.5625,69.480469 c 7.28516,0.550781 14.73438,-0.105469 21.97656,0.90625 2.21094,0.308593 4.61719,0.792969 6.62891,1.777343 0.37891,0.183594 -0.62891,-3.460937 -0.4375,-0.398437 0.125,2 0.67187,3.664063 1.74219,5.34375 2.41406,-3.136719 4.82812,-6.273437 7.23828,-9.414063 -4.66406,-1.261718 -8.75,-1.726562 -13.27344,0.214844 -5.37109,2.308594 -3.31641,10.335938 1.53125,11.71875 0.5,0.144532 0.99609,0.289063 1.49609,0.429688 0.56641,-4.199219 1.13672,-8.394532 1.70313,-12.59375 -7.41797,0.0039 -14.8125,0.164062 -22.22656,0.496094 -6.890629,0.308593 -9.148441,11.371093 -1.703129,12.59375 l 0.136719,0.02344 c 7.98828,1.3125 11.53516,-10.113281 3.40625,-12.367187 -2.828125,-0.785157 -6.324219,-1.269532 -8.953125,0.320312 -1.746094,1.058594 -3.460937,3.359375 -3.175781,5.539062 0.01172,0.07422 0.01953,0.15625 0.03125,0.234376 l 6.410156,-6.414063 c -6.515625,0.246094 -12.949219,-0.769531 -19.4375,-1.1875 -6.800781,-0.4375 -13.714844,-0.09375 -20.527344,-0.09375 -8.269531,0 -8.269531,12.824219 0,12.824219 6.300782,0 12.613282,-0.07422 18.914063,0.02344 7.050781,0.109375 13.980469,1.523438 21.050781,1.257813 3.13672,-0.117188 6.88281,-2.847656 6.41016,-6.410156 -0.008,-0.07813 -0.0195,-0.160157 -0.0273,-0.234376 -1.0625,1.84375 -2.11718,3.6875 -3.17968,5.535157 l 0.22265,-0.132813 c -1.08203,0.292969 -2.160155,0.582032 -3.23828,0.875 1.109375,-0.132812 0.566406,-0.195312 2.09375,0.230469 1.13281,-4.125 2.27344,-8.246094 3.40625,-12.367187 l -0.13672,-0.02344 c -0.5664,4.199219 -1.13672,8.398438 -1.70312,12.59375 7.41406,-0.332031 14.80859,-0.492188 22.22656,-0.492188 7.29297,-0.0039 8.66406,-10.609374 1.70703,-12.59375 -0.5,-0.144531 -1,-0.289062 -1.49609,-0.429687 0.50781,3.90625 1.01953,7.8125 1.53125,11.71875 -0.55078,0.234375 2.75,0.902344 3.39453,1.074219 5.27734,1.425781 10.3164,-4.570313 7.24218,-9.417969 -0.23437,-0.363281 -0.33593,-2.699219 -0.42968,-2.9375 -0.67969,-1.757813 -1.35547,-3.113281 -2.61719,-4.535156 -1.81641,-2.050781 -4.87891,-3.085938 -7.375,-3.957031 -6.125,-2.128907 -13.04687,-2.082032 -19.4375,-2.136719 -7.503906,-0.06641 -14.953125,-0.964844 -22.445312,-0.992188 -3.023438,-0.01172 -5.988282,0.382813 -8.960938,0.863281 -1.125,0.179688 -2.25,0.273438 -3.386719,0.339844 -1.304687,0.07813 -2.8125,-0.742187 -1.324219,0.515625 v 9.066407 c 0.863282,-1.0625 -0.945312,-0.382813 0.957032,-0.632813 1.402344,-0.183594 2.847656,-0.167969 4.257812,-0.199219 2.914063,-0.07031 5.929688,-0.210937 8.695313,-1.1875 2,-0.707031 4.050781,-3.078125 5.917969,-3.152344 2.308593,-0.09766 0.992187,0.324219 0.285156,-0.664062 1.007812,1.410156 1.984375,2.804688 3.132812,4.109375 4.609375,5.226563 12.046874,6.714844 18.609374,7.398437 3.16016,0.328126 6.3086,0.253907 9.47266,0.132813 2.95312,-0.109375 6.64453,-0.585937 9.29297,0.96875 0.51171,-3.90625 1.02343,-7.8125 1.53125,-11.71875 -5.86719,1.359375 -8.71875,5.328125 -7.6836,11.308594 1.03516,5.984375 7.32422,6.199219 11.9961,6.203125 13.22265,0.01563 26.39453,1.09375 39.64062,0.824218 13.97656,-0.277343 27.89453,-0.378906 41.875,-0.230468 6.19922,0.06641 12.41016,0.136718 18.60547,-0.02344 5.87109,-0.148437 11.85547,-0.609375 17.60547,0.800782 0.57031,-4.195313 1.13672,-8.394532 1.70703,-12.59375 -5.33594,0.01562 -10.40234,-1.757813 -15.5,-3.148438 -5.42188,-1.480469 -10.48047,-2.5625 -16.125,-2.59375 -4.17578,-0.02344 -9.15625,0.15625 -11.99219,-3.21875 -3.49609,-4.167969 -8.64844,-3.832031 -13.54297,-3.117188 -5.57812,0.8125 -10.78515,0.984376 -16.42968,0.652344 -5.98047,-0.355468 -10.875,0.04297 -16.60157,1.714844 -4.33203,1.269531 -9.61718,-0.148438 -13.93359,-1.03125 -4.35938,-0.890625 -8.87109,-2.480469 -11.52344,-6.277344 -3.35937,2.589844 -6.71484,5.179688 -10.07031,7.769532 1.55469,1.878906 3.09375,3.488281 5.14453,4.847656 6.01953,3.988281 13.47656,-5.503906 7.76953,-10.070313 -3.91406,-3.128906 -7.83984,-3.75 -12.74219,-3.160156 -4.92578,0.585937 -11.24218,2.007813 -15.92578,-0.175781 -4.71484,-2.199219 -6.76171,-6.234375 -10.38281,-9.53125 -3.730468,-3.402344 -9.234374,-2.917969 -13.640624,-1.339844 -4.421875,1.585938 -8.316406,4.230469 -12.332031,6.601562 -4.5625,2.699219 -9.667969,4.378907 -14.390625,6.777344 -4.625,2.359375 -6.859375,6.730469 -10.707031,9.945313 -4.03125,3.363281 -5.96875,6.691406 -5.019531,12.082031 0.640624,3.632812 4.71875,5.089844 7.886718,4.480469 3.683594,-0.707031 7.601563,-0.269531 11.335938,-0.414063 4.726562,-0.183594 9.355468,-1.382812 14.105468,-1.496094 8.253907,-0.195312 8.273438,-13.019531 0,-12.820312"
       id="path15" />
    <path
       style="fill:none;stroke:#211e1e;stroke-width:2.42354;stroke-linecap:butt;stroke-linejoin:miter;stroke-miterlimit:10;stroke-opacity:1"
       d="M 13.695312,-80.726562 H 327.03516"
       transform="scale(1,-1)"
       id="path17" />
    <path
       style="fill:none;stroke:#211e1e;stroke-width:0.606592;stroke-linecap:butt;stroke-linejoin:miter;stroke-miterlimit:10;stroke-opacity:1"
       d="m 13.695312,-80.726562 -2.464843,-4.703126"
       transform="scale(1,-1)"
       id="path19" />
    <path
       style="fill:none;stroke:#211e1e;stroke-width:0.606592;stroke-linecap:butt;stroke-linejoin:miter;stroke-miterlimit:10;stroke-opacity:1"
       d="m 16.15625,-80.726562 -2.460938,-4.703126"
       transform="scale(1,-1)"
       id="path21" />
    <path
       style="fill:none;stroke:#211e1e;stroke-width:0.606592;stroke-linecap:butt;stroke-linejoin:miter;stroke-miterlimit:10;stroke-opacity:1"
       d="M 18.621094,-80.726562 16.15625,-85.429688"
       transform="scale(1,-1)"
       id="path23" />
    <path
       style="fill:none;stroke:#211e1e;stroke-width:0.606592;stroke-linecap:butt;stroke-linejoin:miter;stroke-miterlimit:10;stroke-opacity:1"
       d="m 21.085938,-80.726562 -2.464844,-4.703126"
       transform="scale(1,-1)"
       id="path25" />
    <path
       style="fill:none;stroke:#211e1e;stroke-width:0.606592;stroke-linecap:butt;stroke-linejoin:miter;stroke-miterlimit:10;stroke-opacity:1"
       d="m 23.550781,-80.726562 -2.464843,-4.703126"
       transform="scale(1,-1)"
       id="path27" />
    <path
       style="fill:none;stroke:#211e1e;stroke-width:0.606592;stroke-linecap:butt;stroke-linejoin:miter;stroke-miterlimit:10;stroke-opacity:1"
       d="m 26.015625,-80.726562 -2.464844,-4.703126"
       transform="scale(1,-1)"
       id="path29" />
    <path
       style="fill:none;stroke:#211e1e;stroke-width:0.606592;stroke-linecap:butt;stroke-linejoin:miter;stroke-miterlimit:10;stroke-opacity:1"
       d="m 28.476562,-80.726562 -2.460937,-4.703126"
       transform="scale(1,-1)"
       id="path31" />
    <path
       style="fill:none;stroke:#211e1e;stroke-width:0.606592;stroke-linecap:butt;stroke-linejoin:miter;stroke-miterlimit:10;stroke-opacity:1"
       d="m 30.941406,-80.726562 -2.464844,-4.703126"
       transform="scale(1,-1)"
       id="path33" />
    <path
       style="fill:none;stroke:#211e1e;stroke-width:0.606592;stroke-linecap:butt;stroke-linejoin:miter;stroke-miterlimit:10;stroke-opacity:1"
       d="m 33.40625,-80.726562 -2.464844,-4.703126"
       transform="scale(1,-1)"
       id="path35" />
    <path
       style="fill:none;stroke:#211e1e;stroke-width:0.606592;stroke-linecap:butt;stroke-linejoin:miter;stroke-miterlimit:10;stroke-opacity:1"
       d="m 33.40625,-85.429688 2.464844,4.703126"
       transform="scale(1,-1)"
       id="path37" />
    <path
       style="fill:none;stroke:#211e1e;stroke-width:0.606592;stroke-linecap:butt;stroke-linejoin:miter;stroke-miterlimit:10;stroke-opacity:1"
       d="m 38.332031,-80.726562 -2.464843,-4.703126"
       transform="scale(1,-1)"
       id="path39" />
    <path
       style="fill:none;stroke:#211e1e;stroke-width:0.606592;stroke-linecap:butt;stroke-linejoin:miter;stroke-miterlimit:10;stroke-opacity:1"
       d="m 40.796875,-80.726562 -2.464844,-4.703126"
       transform="scale(1,-1)"
       id="path41" />
    <path
       style="fill:none;stroke:#211e1e;stroke-width:0.606592;stroke-linecap:butt;stroke-linejoin:miter;stroke-miterlimit:10;stroke-opacity:1"
       d="m 43.261719,-80.726562 -2.464844,-4.703126"
       transform="scale(1,-1)"
       id="path43" />
    <path
       style="fill:none;stroke:#211e1e;stroke-width:0.606592;stroke-linecap:butt;stroke-linejoin:miter;stroke-miterlimit:10;stroke-opacity:1"
       d="m 45.726562,-80.726562 -2.464843,-4.703126"
       transform="scale(1,-1)"
       id="path45" />
    <path
       style="fill:none;stroke:#211e1e;stroke-width:0.606592;stroke-linecap:butt;stroke-linejoin:miter;stroke-miterlimit:10;stroke-opacity:1"
       d="m 48.1875,-80.726562 -2.460938,-4.703126"
       transform="scale(1,-1)"
       id="path47" />
    <path
       style="fill:none;stroke:#211e1e;stroke-width:0.606592;stroke-linecap:butt;stroke-linejoin:miter;stroke-miterlimit:10;stroke-opacity:1"
       d="M 50.652344,-80.726562 48.1875,-85.429688"
       transform="scale(1,-1)"
       id="path49" />
    <path
       style="fill:none;stroke:#211e1e;stroke-width:0.606592;stroke-linecap:butt;stroke-linejoin:miter;stroke-miterlimit:10;stroke-opacity:1"
       d="m 53.039062,-80.726562 -2.464843,-4.703126"
       transform="scale(1,-1)"
       id="path51" />
    <path
       style="fill:none;stroke:#211e1e;stroke-width:0.606592;stroke-linecap:butt;stroke-linejoin:miter;stroke-miterlimit:10;stroke-opacity:1"
       d="m 55.503906,-80.726562 -2.464844,-4.703126"
       transform="scale(1,-1)"
       id="path53" />
    <path
       style="fill:none;stroke:#211e1e;stroke-width:0.606592;stroke-linecap:butt;stroke-linejoin:miter;stroke-miterlimit:10;stroke-opacity:1"
       d="m 57.96875,-80.726562 -2.464844,-4.703126"
       transform="scale(1,-1)"
       id="path55" />
    <path
       style="fill:none;stroke:#211e1e;stroke-width:0.606592;stroke-linecap:butt;stroke-linejoin:miter;stroke-miterlimit:10;stroke-opacity:1"
       d="M 60.429688,-80.726562 57.96875,-85.429688"
       transform="scale(1,-1)"
       id="path57" />
    <path
       style="fill:none;stroke:#211e1e;stroke-width:0.606592;stroke-linecap:butt;stroke-linejoin:miter;stroke-miterlimit:10;stroke-opacity:1"
       d="m 62.894531,-80.726562 -2.464843,-4.703126"
       transform="scale(1,-1)"
       id="path59" />
    <path
       style="fill:none;stroke:#211e1e;stroke-width:0.606592;stroke-linecap:butt;stroke-linejoin:miter;stroke-miterlimit:10;stroke-opacity:1"
       d="m 65.359375,-80.726562 -2.464844,-4.703126"
       transform="scale(1,-1)"
       id="path61" />
    <path
       style="fill:none;stroke:#211e1e;stroke-width:0.606592;stroke-linecap:butt;stroke-linejoin:miter;stroke-miterlimit:10;stroke-opacity:1"
       d="m 67.824219,-80.726562 -2.464844,-4.703126"
       transform="scale(1,-1)"
       id="path63" />
    <path
       style="fill:none;stroke:#211e1e;stroke-width:0.606592;stroke-linecap:butt;stroke-linejoin:miter;stroke-miterlimit:10;stroke-opacity:1"
       d="m 70.285156,-80.726562 -2.460937,-4.703126"
       transform="scale(1,-1)"
       id="path65" />
    <path
       style="fill:none;stroke:#211e1e;stroke-width:0.606592;stroke-linecap:butt;stroke-linejoin:miter;stroke-miterlimit:10;stroke-opacity:1"
       d="m 72.75,-80.726562 -2.464844,-4.703126"
       transform="scale(1,-1)"
       id="path67" />
    <path
       style="fill:none;stroke:#211e1e;stroke-width:0.606592;stroke-linecap:butt;stroke-linejoin:miter;stroke-miterlimit:10;stroke-opacity:1"
       d="M 75.214844,-80.726562 72.75,-85.429688"
       transform="scale(1,-1)"
       id="path69" />
    <path
       style="fill:none;stroke:#211e1e;stroke-width:0.606592;stroke-linecap:butt;stroke-linejoin:miter;stroke-miterlimit:10;stroke-opacity:1"
       d="m 77.679688,-80.726562 -2.464844,-4.703126"
       transform="scale(1,-1)"
       id="path71" />
    <path
       style="fill:none;stroke:#211e1e;stroke-width:0.606592;stroke-linecap:butt;stroke-linejoin:miter;stroke-miterlimit:10;stroke-opacity:1"
       d="m 80.140625,-80.726562 -2.460937,-4.703126"
       transform="scale(1,-1)"
       id="path73" />
    <path
       style="fill:none;stroke:#211e1e;stroke-width:0.606592;stroke-linecap:butt;stroke-linejoin:miter;stroke-miterlimit:10;stroke-opacity:1"
       d="m 82.605469,-80.726562 -2.464844,-4.703126"
       transform="scale(1,-1)"
       id="path75" />
    <path
       style="fill:none;stroke:#211e1e;stroke-width:0.606592;stroke-linecap:butt;stroke-linejoin:miter;stroke-miterlimit:10;stroke-opacity:1"
       d="m 85.070312,-80.726562 -2.464843,-4.703126"
       transform="scale(1,-1)"
       id="path77" />
    <path
       style="fill:none;stroke:#211e1e;stroke-width:0.606592;stroke-linecap:butt;stroke-linejoin:miter;stroke-miterlimit:10;stroke-opacity:1"
       d="m 87.535156,-80.726562 -2.464844,-4.703126"
       transform="scale(1,-1)"
       id="path79" />
    <path
       style="fill:none;stroke:#211e1e;stroke-width:0.606592;stroke-linecap:butt;stroke-linejoin:miter;stroke-miterlimit:10;stroke-opacity:1"
       d="m 89.996094,-80.726562 -2.460938,-4.703126"
       transform="scale(1,-1)"
       id="path81" />
    <path
       style="fill:#211e1e;fill-opacity:1;fill-rule:nonzero;stroke:none"
       d="m 55.210938,63.996094 -1.605469,0.65625 0.08594,0.21875 C 53.871094,64.8125 54,64.773438 54.085938,64.773438 c 0.09375,0 0.179687,0.02344 0.238281,0.08203 0.05859,0.05078 0.109375,0.144531 0.132812,0.277343 0.03516,0.144532 0.04687,0.515626 0.04687,1.125 v 4.847657 c 0,0.339843 -0.02344,0.554687 -0.07031,0.660156 -0.05078,0.109375 -0.109375,0.195313 -0.179688,0.230469 -0.144531,0.07031 -0.324218,0.105468 -0.5625,0.105468 v 0.21875 h 2.644532 v -0.21875 c -0.273438,0 -0.46875,-0.03516 -0.574219,-0.09375 -0.109375,-0.0625 -0.179688,-0.132812 -0.226563,-0.214843 -0.03516,-0.09766 -0.0625,-0.324219 -0.0625,-0.6875 V 68.26953 c 0.289063,-0.308593 0.539063,-0.511719 0.742188,-0.609375 0.207031,-0.105468 0.410156,-0.15625 0.601562,-0.15625 0.191406,0 0.347656,0.05078 0.480469,0.132813 0.128906,0.09375 0.226563,0.238281 0.285156,0.417969 0.0625,0.179687 0.09766,0.5625 0.09766,1.148437 v 1.902344 c 0,0.300781 0,0.480469 -0.01563,0.554687 -0.04297,0.144532 -0.105468,0.25 -0.203124,0.335938 -0.105469,0.07031 -0.273438,0.105468 -0.523438,0.105468 h -0.121094 v 0.21875 H 59.4375 v -0.21875 c -0.25,0 -0.417969,-0.02344 -0.515625,-0.08203 -0.08203,-0.04687 -0.152344,-0.121093 -0.191406,-0.214843 -0.05859,-0.132813 -0.08203,-0.359376 -0.08203,-0.699219 v -1.890625 c 0,-0.667969 -0.03516,-1.121094 -0.109376,-1.375 -0.105468,-0.359375 -0.273437,-0.625 -0.488281,-0.789063 -0.214843,-0.167969 -0.480469,-0.253906 -0.78125,-0.253906 -0.261719,0 -0.515625,0.07422 -0.765625,0.203125 -0.25,0.132812 -0.597656,0.445312 -1.03125,0.910156 v -3.914062 z m 9.265624,4.980468 c 0,-0.65625 -0.191406,-1.183593 -0.574218,-1.582031 C 63.519531,67 63.015625,66.796875 62.417969,66.796875 c -0.707031,0 -1.292969,0.253906 -1.761719,0.769531 -0.464844,0.515625 -0.707031,1.21875 -0.707031,2.140625 0,0.839844 0.226562,1.523438 0.683593,2.011719 0.46875,0.503906 1.007813,0.753906 1.652344,0.753906 0.597656,0 1.089844,-0.214844 1.472656,-0.65625 0.398438,-0.433594 0.636719,-0.921875 0.71875,-1.464844 l -0.179687,-0.117187 c -0.179687,0.464844 -0.394531,0.804687 -0.644531,0.996094 -0.265625,0.1875 -0.578125,0.285156 -0.925782,0.285156 -0.523437,0 -0.980468,-0.226563 -1.375,-0.671875 -0.382812,-0.453125 -0.574218,-1.074219 -0.574218,-1.867188 z M 61.21875,67.585938 c 0.261719,-0.25 0.550781,-0.371094 0.875,-0.371094 0.203125,0 0.40625,0.0625 0.597656,0.191406 0.191406,0.121094 0.347656,0.289062 0.445313,0.515625 0.05859,0.132813 0.09375,0.371094 0.117187,0.71875 h -2.476562 c 0.04687,-0.441406 0.191406,-0.800781 0.441406,-1.054687 m 7.183594,4.625 c 0.105468,0.128906 0.261718,0.203124 0.453125,0.203124 0.394531,0 0.816406,-0.300781 1.257812,-0.886718 V 71.207031 C 69.875,71.433594 69.71875,71.574219 69.636719,71.636719 l -0.15625,0.03516 -0.15625,-0.05859 c -0.04687,-0.03906 -0.08203,-0.121093 -0.109375,-0.230469 -0.01172,-0.117187 -0.02344,-0.429687 -0.02344,-0.933593 v -1.820313 c 0,-0.515625 -0.03516,-0.863281 -0.105468,-1.03125 -0.109376,-0.25 -0.277344,-0.441406 -0.503907,-0.5625 -0.3125,-0.152344 -0.695312,-0.238281 -1.175781,-0.238281 -0.621094,0 -1.101562,0.144531 -1.449219,0.417969 -0.347656,0.289062 -0.511719,0.585937 -0.511719,0.9375 0,0.167968 0.04688,0.308594 0.144532,0.40625 0.08203,0.105468 0.203125,0.15625 0.34375,0.15625 0.15625,0 0.277344,-0.05078 0.359375,-0.144532 0.09766,-0.09766 0.144531,-0.242187 0.144531,-0.417968 l -0.01172,-0.335938 c 0,-0.179687 0.07031,-0.324218 0.226563,-0.457031 0.144531,-0.132813 0.335937,-0.203125 0.574218,-0.203125 0.324219,0 0.574219,0.09766 0.746094,0.296875 0.164063,0.195313 0.25,0.566406 0.25,1.09375 v 0.214844 c -0.921875,0.332031 -1.582031,0.625 -1.976562,0.851562 -0.394532,0.238281 -0.671875,0.488281 -0.824219,0.753907 -0.121094,0.191406 -0.179687,0.417968 -0.179687,0.679687 0,0.40625 0.117187,0.746094 0.355468,0.996094 0.242188,0.25 0.550782,0.382812 0.914063,0.382812 0.238281,0 0.464843,-0.04687 0.679687,-0.144531 0.132813,-0.07031 0.480469,-0.308594 1.03125,-0.742188 0,0.324219 0.05859,0.539063 0.179688,0.671876 m -1.355469,-0.464844 c -0.226563,0 -0.417969,-0.09766 -0.585937,-0.277344 -0.167969,-0.191406 -0.25,-0.421875 -0.25,-0.695312 0,-0.226563 0.07031,-0.429688 0.203124,-0.621094 0.132813,-0.179688 0.347657,-0.359375 0.660157,-0.539063 0.179687,-0.09766 0.5625,-0.253906 1.148437,-0.492187 v 2.035156 c -0.492187,0.394531 -0.875,0.589844 -1.175781,0.589844 m 7.246094,0.726562 h 0.273437 l 1.59375,-0.65625 -0.05859,-0.214844 c -0.179687,0.07031 -0.324218,0.09375 -0.433593,0.09375 -0.08594,0 -0.15625,-0.02344 -0.226563,-0.08203 -0.0625,-0.05078 -0.109375,-0.144531 -0.132812,-0.285156 -0.03516,-0.136719 -0.04687,-0.519531 -0.04687,-1.140625 V 63.996103 H 74.9961 l -1.601563,0.65625 0.07031,0.21875 c 0.167968,-0.05859 0.308594,-0.09766 0.40625,-0.09766 0.09766,0 0.179687,0.02344 0.238281,0.08203 0.0625,0.05078 0.109375,0.144531 0.132813,0.277343 0.03906,0.144532 0.05078,0.515626 0.05078,1.125 v 0.996094 c -0.3125,-0.300781 -0.699219,-0.457031 -1.175781,-0.457031 -0.753907,0 -1.375,0.324219 -1.855469,0.960937 -0.492188,0.632813 -0.730469,1.328126 -0.730469,2.105469 0,0.765625 0.214844,1.390625 0.65625,1.882813 0.433594,0.488281 0.949219,0.726562 1.535156,0.726562 0.285156,0 0.550782,-0.05859 0.800782,-0.179687 0.25,-0.117188 0.503906,-0.320313 0.769531,-0.597657 z m -1.03125,-0.644531 c -0.417969,0 -0.804688,-0.203125 -1.148438,-0.621094 -0.351562,-0.421875 -0.515625,-1.035156 -0.515625,-1.8125 0,-0.777343 0.179688,-1.375 0.539063,-1.773437 0.261719,-0.308594 0.574219,-0.464844 0.910156,-0.464844 0.191406,0 0.371094,0.05859 0.574219,0.167969 0.191406,0.109375 0.347656,0.273437 0.453125,0.492187 0.121093,0.214844 0.191406,0.464844 0.21875,0.730469 v 2.742187 c -0.339844,0.359376 -0.671875,0.539063 -1.03125,0.539063 m 98.949224,-7.832031 h -0.26563 l -1.61719,0.65625 0.0859,0.21875 c 0.16797,-0.05859 0.29688,-0.09766 0.40625,-0.09766 0.0977,0 0.17969,0.02344 0.23828,0.08203 0.0625,0.05078 0.10938,0.144531 0.13282,0.277343 0.0352,0.144532 0.0469,0.515626 0.0469,1.125 v 5.535157 c 0.33594,0.226562 0.66016,0.394531 0.98438,0.511719 0.32421,0.109374 0.64453,0.167968 0.95703,0.167968 0.66015,0 1.26953,-0.25 1.80859,-0.742187 0.63672,-0.585938 0.94531,-1.351563 0.94531,-2.296875 0,-0.816406 -0.20312,-1.460938 -0.60937,-1.929688 -0.40625,-0.46875 -0.88672,-0.707031 -1.4375,-0.707031 -0.59766,0 -1.16016,0.359375 -1.67578,1.089844 z m 0.59765,3.796875 c 0.20313,-0.109375 0.40625,-0.15625 0.6211,-0.15625 0.38672,0 0.73047,0.179687 1.04297,0.550781 0.30078,0.371094 0.45703,0.898438 0.45703,1.582031 0,0.738281 -0.15625,1.304688 -0.45703,1.683594 -0.3125,0.398437 -0.63282,0.589844 -0.99219,0.589844 -0.22656,0 -0.44531,-0.04687 -0.64844,-0.144531 -0.21484,-0.105469 -0.41797,-0.25 -0.62109,-0.445313 V 68.25782 c 0.23828,-0.226562 0.4414,-0.382812 0.59765,-0.464843 m 5.28907,-0.644531 c -0.39454,0.222656 -0.71875,0.582031 -0.95704,1.074218 -0.25,0.480469 -0.37109,0.972656 -0.37109,1.460938 0,0.667968 0.20313,1.28125 0.59766,1.820312 0.48047,0.648438 1.125,0.96875 1.92968,0.96875 0.49219,0 0.94532,-0.117187 1.35157,-0.371094 0.39453,-0.25 0.71875,-0.621093 0.94531,-1.113281 0.22656,-0.488281 0.34766,-0.980469 0.34766,-1.460937 0,-0.671875 -0.20313,-1.28125 -0.6211,-1.808594 -0.49219,-0.609375 -1.15234,-0.921875 -1.96484,-0.921875 -0.44141,0 -0.86328,0.117187 -1.25781,0.351563 m 2.14453,0.59375 c 0.40625,0.539062 0.61328,1.292968 0.61328,2.242187 0,0.753906 -0.1211,1.292969 -0.375,1.601563 -0.23828,0.3125 -0.55078,0.46875 -0.9336,0.46875 -0.5039,0 -0.91015,-0.289063 -1.21875,-0.847657 -0.3125,-0.566406 -0.46875,-1.234375 -0.46875,-2.011719 0,-0.480468 0.0586,-0.875 0.19141,-1.1875 0.13281,-0.300781 0.29688,-0.515624 0.50391,-0.648437 0.21484,-0.117187 0.41797,-0.179687 0.62109,-0.179687 0.43359,0 0.78906,0.191406 1.06641,0.5625 m 6.24609,4.730468 h 0.27734 l 1.59375,-0.65625 -0.0625,-0.214844 c -0.17968,0.07031 -0.32421,0.09375 -0.42968,0.09375 -0.082,0 -0.15625,-0.02344 -0.22657,-0.08203 -0.0625,-0.05078 -0.10937,-0.144531 -0.13281,-0.285156 -0.0352,-0.136719 -0.0469,-0.519531 -0.0469,-1.140625 v -6.191406 h -0.26563 l -1.60547,0.65625 0.0742,0.21875 c 0.16797,-0.05859 0.3086,-0.09766 0.40625,-0.09766 0.0937,0 0.17969,0.02344 0.23828,0.08203 0.0625,0.05078 0.10938,0.144531 0.13282,0.277343 0.0352,0.144532 0.0469,0.515626 0.0469,1.125 v 0.996094 c -0.30859,-0.300781 -0.69141,-0.457031 -1.17187,-0.457031 -0.75391,0 -1.37891,0.324219 -1.85547,0.960937 -0.49219,0.632813 -0.73438,1.328126 -0.73438,2.105469 0,0.765625 0.21875,1.390625 0.66016,1.882813 0.43359,0.488281 0.94531,0.726562 1.53515,0.726562 0.28516,0 0.55079,-0.05859 0.80079,-0.179687 0.25,-0.117188 0.5039,-0.320313 0.76562,-0.597657 z m -1.02734,-0.644531 c -0.42188,0 -0.80469,-0.203125 -1.14844,-0.621094 -0.35156,-0.421875 -0.51953,-1.035156 -0.51953,-1.8125 0,-0.777343 0.17969,-1.375 0.53906,-1.773437 0.26563,-0.308594 0.57813,-0.464844 0.91406,-0.464844 0.19141,0 0.36719,0.05859 0.57422,0.167969 0.19141,0.109375 0.34375,0.273437 0.45313,0.492187 0.12109,0.214844 0.1914,0.464844 0.21484,0.730469 v 2.742187 c -0.33594,0.359376 -0.66797,0.539063 -1.02734,0.539063 m 2.91797,-4.660156 c 0.1914,0.04687 0.33593,0.109375 0.42968,0.167969 0.0625,0.05078 0.14453,0.132812 0.24219,0.277343 0.12891,0.179688 0.21484,0.332031 0.27344,0.453125 l 1.9414,4.035156 -0.38281,0.933594 c -0.14453,0.351563 -0.27734,0.574219 -0.42187,0.695313 -0.13282,0.121093 -0.26172,0.179687 -0.38282,0.179687 -0.0352,0 -0.1289,-0.02344 -0.28515,-0.08594 -0.23047,-0.08203 -0.41016,-0.117188 -0.53906,-0.117188 -0.17969,0 -0.33594,0.04687 -0.44532,0.144531 -0.10547,0.105469 -0.15234,0.238282 -0.15234,0.394532 0,0.179687 0.0703,0.324218 0.22656,0.457031 0.14063,0.128906 0.33203,0.203125 0.5625,0.203125 0.32031,0 0.64453,-0.132812 0.99219,-0.394531 0.33594,-0.265625 0.60937,-0.660157 0.82812,-1.175781 l 2.17969,-5.363282 c 0.0937,-0.242187 0.15235,-0.398437 0.1875,-0.445312 0.0977,-0.132813 0.1836,-0.214844 0.26563,-0.261719 0.0742,-0.05078 0.1914,-0.08594 0.33593,-0.09766 v -0.214844 h -1.75 v 0.214844 c 0.16797,0 0.28907,0.01172 0.35938,0.03516 l 0.14453,0.109375 0.0352,0.15625 c 0,0.152344 -0.0195,0.3125 -0.0937,0.476562 l -1.19922,2.972657 -1.30469,-2.71875 c -0.12891,-0.265625 -0.19141,-0.480469 -0.19141,-0.632813 0,-0.113281 0.0508,-0.207031 0.13282,-0.277344 0.082,-0.08594 0.21484,-0.121093 0.39453,-0.121093 h 0.12109 V 66.95313 H 188.379 Z M 300.92969,65.19532 c -0.15625,0.394532 -0.28907,0.667969 -0.38282,0.8125 -0.16796,0.273438 -0.375,0.527344 -0.60156,0.71875 -0.22656,0.203126 -0.4414,0.347657 -0.65625,0.429688 v 0.191406 h 0.84766 v 3.617188 c 0,0.382812 0.0351,0.671875 0.12109,0.863281 0.082,0.179687 0.21485,0.324219 0.38281,0.417969 0.16797,0.109375 0.34766,0.15625 0.52735,0.15625 0.26562,0 0.52734,-0.09766 0.77734,-0.289063 0.24219,-0.203125 0.44531,-0.488281 0.57422,-0.875 h -0.22266 c -0.0742,0.15625 -0.16015,0.277344 -0.27734,0.363281 -0.12109,0.08203 -0.25391,0.117188 -0.38672,0.117188 -0.15234,0 -0.27344,-0.05859 -0.38281,-0.179688 -0.0937,-0.121093 -0.14453,-0.355468 -0.14453,-0.707031 v -3.472656 l 1.25,-0.01172 v -0.394531 h -1.25 v -1.757813 z m 5.14453,7.015626 c 0.10937,0.128906 0.26562,0.203124 0.45703,0.203124 0.39453,0 0.8125,-0.300781 1.25781,-0.886718 v -0.320313 c -0.23828,0.226563 -0.39844,0.367188 -0.48047,0.429688 l -0.15234,0.03516 -0.16016,-0.05859 c -0.0469,-0.03906 -0.082,-0.121093 -0.10547,-0.230469 -0.0117,-0.117187 -0.0234,-0.429687 -0.0234,-0.933593 v -1.820313 c 0,-0.515625 -0.0391,-0.863281 -0.10938,-1.03125 -0.10547,-0.25 -0.27344,-0.441406 -0.5,-0.5625 -0.3125,-0.152344 -0.69531,-0.238281 -1.17578,-0.238281 -0.62109,0 -1.10156,0.144531 -1.44922,0.417969 -0.34765,0.289062 -0.51172,0.585937 -0.51172,0.9375 0,0.167968 0.043,0.308594 0.14063,0.40625 0.082,0.105468 0.20312,0.15625 0.34765,0.15625 0.15625,0 0.27735,-0.05078 0.35938,-0.144532 0.0977,-0.09766 0.14453,-0.242187 0.14453,-0.417968 l -0.0156,-0.335938 c 0,-0.179687 0.0742,-0.324218 0.23046,-0.457031 0.14454,-0.132813 0.33204,-0.203125 0.57422,-0.203125 0.32422,0 0.57422,0.09766 0.74219,0.296875 0.16797,0.195313 0.25,0.566406 0.25,1.09375 v 0.214844 c -0.92187,0.332031 -1.57812,0.625 -1.97656,0.851562 -0.39453,0.238281 -0.66797,0.488281 -0.82422,0.753907 -0.12109,0.191406 -0.17969,0.417968 -0.17969,0.679687 0,0.40625 0.11719,0.746094 0.35938,0.996094 0.23828,0.25 0.55078,0.382812 0.91015,0.382812 0.24219,0 0.46875,-0.04687 0.6836,-0.144531 0.13281,-0.07031 0.48047,-0.308594 1.02734,-0.742188 0,0.324219 0.0625,0.539063 0.17969,0.671876 m -1.35156,-0.464844 c -0.22657,0 -0.41797,-0.09766 -0.58594,-0.277344 -0.16797,-0.191406 -0.25,-0.421875 -0.25,-0.695312 0,-0.226563 0.0703,-0.429688 0.20312,-0.621094 0.13282,-0.179688 0.34766,-0.359375 0.65625,-0.539063 0.17969,-0.09766 0.56641,-0.253906 1.14844,-0.492187 v 2.035156 c -0.48828,0.394531 -0.87109,0.589844 -1.17187,0.589844 m 4.40625,-7.582032 c -0.10938,0.121094 -0.17188,0.261719 -0.17188,0.417969 0,0.167969 0.0625,0.3125 0.17969,0.417969 0.10937,0.121094 0.2539,0.179688 0.42187,0.179688 0.15625,0 0.30078,-0.05859 0.41797,-0.179688 0.10938,-0.105469 0.16797,-0.25 0.16797,-0.417969 0,-0.15625 -0.0586,-0.296875 -0.16797,-0.417969 -0.11719,-0.109374 -0.26172,-0.167968 -0.41797,-0.167968 -0.16797,0 -0.3125,0.05859 -0.42968,0.167968 m 0.65625,2.632813 -1.61329,0.65625 0.082,0.21875 c 0.15625,-0.05859 0.28515,-0.08594 0.39453,-0.08594 0.0937,0 0.17968,0.02734 0.23828,0.07422 0.0625,0.04687 0.0976,0.132813 0.13281,0.25 0.0352,0.183594 0.0469,0.550782 0.0469,1.125 v 2.070313 c 0,0.328125 -0.0234,0.554687 -0.082,0.675781 -0.0508,0.117188 -0.12109,0.191406 -0.20312,0.25 -0.0977,0.04687 -0.26563,0.07031 -0.52734,0.07031 v 0.21875 h 2.59765 v -0.21875 c -0.25,0 -0.43359,-0.02344 -0.52734,-0.08203 -0.0977,-0.04687 -0.16797,-0.132812 -0.21875,-0.238281 -0.043,-0.121094 -0.0664,-0.335938 -0.0664,-0.675781 v -4.308594 z m 3.3164,-2.800781 -1.59375,0.65625 0.0937,0.21875 c 0.16016,-0.05859 0.28906,-0.09766 0.38281,-0.09766 0.0977,0 0.17969,0.02344 0.24219,0.08203 0.0586,0.05078 0.0977,0.144531 0.13281,0.277343 0.0234,0.132813 0.0352,0.503907 0.0352,1.101563 v 4.871094 c 0,0.328125 -0.0234,0.554687 -0.0703,0.675781 -0.0625,0.117188 -0.1211,0.191406 -0.21875,0.25 -0.082,0.04687 -0.25,0.07031 -0.50391,0.07031 v 0.21875 h 2.625 v -0.21875 c -0.27344,0 -0.46875,-0.02344 -0.5625,-0.08203 -0.10937,-0.05859 -0.17969,-0.144531 -0.22656,-0.253906 -0.0469,-0.105469 -0.0742,-0.320313 -0.0742,-0.660156 v -7.109375 h -0.26172"
       id="path83" />
    <g
       clip-path="url(#clip1)"
       clip-rule="nonzero"
       id="g87">
      <path
         style="fill:none;stroke:#211e1e;stroke-width:1.70949;stroke-linecap:butt;stroke-linejoin:miter;stroke-miterlimit:10;stroke-opacity:1"
         d="m 44.125,-80.726562 c -15.027344,8.722656 1.351562,29.417968 10.503906,35.820312 11.246094,7.867188 26.207032,12.550781 39.203125,15.933594 6.976559,1.820312 21.984379,6.199218 28.296879,0.503906 7.96875,-7.183594 -5.27344,-9.191406 -5.125,-10.21875 0.004,-0.144531 0.004,-0.285156 0.004,-0.425781 6.17188,-0.480469 9.9961,-0.246094 14.46094,2.71875 4.82812,3.207031 7.69922,6.5 13.44141,7.777343 6.75,1.496094 12.42578,2.578126 13.625,-5.285156 1.10937,-7.324218 -3.42969,-12.183594 -10.48829,-10.648437 2.13672,-8.867188 10.42188,-4.996094 14.94532,-1.613281 5.96093,4.449218 11.67578,9.425781 19.79297,5.988281 1.88671,-6.777344 0.14453,-10.257813 -6.79297,-8.953125 11.74218,-6.003906 26.79297,6.960937 39.34765,4.824218 1.02735,-2.917968 3.98047,-5.171874 3.34766,-8.429687 -0.67188,0.03516 0.39062,-4.074219 -2.47266,-4.75 -3.17968,-0.753906 -10.30859,1.929687 -11.02343,2.101563 3.34765,-4.359376 12.5664,-2.128907 16.98828,-0.417969 7.57031,2.933593 18.5625,15.011719 27.1875,9.671875 2.55468,-1.585938 3.3164,-5.800782 6.22656,-6.644532 5.69922,-1.652343 24.50781,1.820313 21.51172,-6.8125 5.25781,-0.8125 10.61328,1.550782 15.83984,1.980469 6.82422,0.566407 27.05078,-1.292969 33.875,-1.238281"
         transform="scale(1,-1)"
         id="path85" />
    </g>
    <path
       style="fill:#211e1e;fill-opacity:1;fill-rule:nonzero;stroke:none"
       d="m 134.73047,0 -2.40625,3.9375 C 132.3125,3.808594 132.28906,3.484375 132.26562,2.980469 132.19141,1.640625 132.05078,0.644531 131.80859,0 l -1.67578,0.394531 v 0.214844 c 0.17969,-0.023437 0.32422,-0.035156 0.42969,-0.035156 0.20312,0 0.34766,0.046875 0.44531,0.132812 0.14453,0.132813 0.23828,0.382813 0.30078,0.789063 0.14063,0.960937 0.22657,2.261718 0.25,3.929687 h 0.25 l 2.41797,-4.039062 0.38281,4.039062 h 0.21485 c 0.21875,-0.214843 0.53906,-0.601562 0.98437,-1.136719 0.42969,-0.550781 0.86328,-1.140624 1.28125,-1.773437 0.33594,-0.527344 0.5625,-0.957031 0.6836,-1.292969 0.0586,-0.179687 0.082,-0.359375 0.082,-0.566406 0,-0.199219 -0.0586,-0.359375 -0.16797,-0.476562 C 137.58203,0.0585938 137.44922,0 137.29297,0 c -0.14063,0 -0.25,0.0351562 -0.34766,0.121094 -0.082,0.082031 -0.1289,0.191406 -0.1289,0.308594 0,0.085937 0.0234,0.15625 0.0586,0.226562 0.0469,0.074219 0.11719,0.148438 0.22656,0.21875 0.0977,0.070312 0.15625,0.117188 0.17969,0.15625 0.0391,0.058594 0.0586,0.140625 0.0586,0.226562 0,0.179688 -0.11718,0.480469 -0.35937,0.886719 -0.40625,0.691407 -0.94531,1.4375 -1.62891,2.226563 L 134.94922,0 h -0.21875"
       id="path89" />
    <path
       style="fill:#211e1e;fill-opacity:1;fill-rule:nonzero;stroke:none"
       d="m 139.58984,5.855469 c 0.48047,-0.171875 0.83985,-0.394531 1.08594,-0.667969 0.1875,-0.210938 0.28125,-0.433594 0.28125,-0.664062 0,-0.164063 -0.0664,-0.308594 -0.21094,-0.429688 -0.14843,-0.117188 -0.35937,-0.179688 -0.66015,-0.179688 -0.39844,0 -0.80078,0.121094 -1.1875,0.359376 -0.39063,0.238281 -0.70703,0.582031 -0.96485,1.007812 -0.25781,0.4375 -0.38281,0.867188 -0.38281,1.273438 0,0.308593 0.10156,0.589843 0.30859,0.847656 0.20313,0.253906 0.51172,0.382812 0.92188,0.382812 0.59766,0 1.21875,-0.324218 1.88672,-0.984375 l -0.0859,-0.117187 c -0.375,0.28125 -0.65625,0.460937 -0.84375,0.546875 -0.19141,0.078125 -0.38672,0.121093 -0.58984,0.121093 -0.25,0 -0.47266,-0.085937 -0.64844,-0.257812 -0.17969,-0.179688 -0.26953,-0.382812 -0.26953,-0.632812 0,-0.082032 0.0117,-0.203126 0.0273,-0.339844 0.57422,-0.058594 1.01953,-0.152344 1.33203,-0.265625 m -0.57812,-1.28125 c 0.32422,-0.300781 0.6289,-0.453125 0.92187,-0.453125 0.13672,0 0.25,0.035156 0.32422,0.109375 0.0781,0.070312 0.11328,0.164062 0.11328,0.28125 0,0.199219 -0.0859,0.394531 -0.26562,0.609375 -0.17188,0.210937 -0.4375,0.402344 -0.78906,0.554687 -0.26563,0.113281 -0.60547,0.1875 -1.02344,0.238281 0.15234,-0.589843 0.39453,-1.03125 0.71875,-1.339843"
       id="path91" />
    <path
       style="fill:#211e1e;fill-opacity:1;fill-rule:nonzero;stroke:none"
       d="m 15.226562,44.511719 c 0.441407,0.02344 0.71875,0.07031 0.839844,0.152343 0.105469,0.08594 0.15625,0.195313 0.15625,0.335938 0,0.179688 -0.05078,0.46875 -0.15625,0.863281 l -0.804687,2.707031 c -0.121094,0.417969 -0.203125,0.71875 -0.226563,0.886719 -0.04687,0.261719 -0.07422,0.503907 -0.07422,0.742188 0,0.574219 0.253906,1.089843 0.742187,1.546875 0.492187,0.441406 1.140625,0.667968 1.941406,0.667968 0.695313,0 1.269531,-0.140624 1.738281,-0.417968 0.476563,-0.277344 0.824219,-0.613282 1.054688,-1.019532 0.226562,-0.417968 0.476562,-1.125 0.765625,-2.117187 l 0.886719,-3.089844 c 0.128906,-0.433593 0.238281,-0.71875 0.335937,-0.863281 0.09375,-0.144531 0.203125,-0.25 0.332031,-0.3125 0.132813,-0.05859 0.347657,-0.08203 0.648438,-0.08203 l 0.05859,-0.214844 h -2.515625 l -0.05859,0.214844 c 0.359375,0.02344 0.601563,0.07031 0.71875,0.167969 0.121094,0.09375 0.179687,0.203124 0.179687,0.332031 0,0.179687 -0.08203,0.578125 -0.261718,1.175781 l -0.695313,2.433594 c -0.132812,0.464844 -0.289062,0.917968 -0.480469,1.363281 -0.179687,0.453125 -0.371093,0.8125 -0.597656,1.066406 -0.214844,0.261719 -0.480468,0.476563 -0.78125,0.621094 -0.308594,0.144531 -0.65625,0.214844 -1.0625,0.214844 -0.613281,0 -1.089844,-0.140625 -1.460937,-0.441407 -0.359375,-0.300781 -0.539063,-0.660156 -0.539063,-1.089843 0,-0.191407 0.02344,-0.410157 0.07031,-0.636719 0.02344,-0.167969 0.121093,-0.515625 0.277343,-1.039062 l 0.871094,-2.960938 c 0.109375,-0.394531 0.21875,-0.65625 0.324219,-0.800781 0.09766,-0.15625 0.230469,-0.253907 0.371094,-0.3125 0.144531,-0.05859 0.394531,-0.08203 0.730469,-0.09375 l 0.07422,-0.214844 h -3.355468 l -0.04688,0.214844"
       id="path93" />
    <path
       style="fill:#211e1e;fill-opacity:1;fill-rule:nonzero;stroke:none"
       d="m 176.75781,93.804688 v 0.214843 c 0.1211,-0.01172 0.21485,-0.01172 0.3125,-0.01172 0.27344,0 0.48047,0.05078 0.6211,0.15625 0.14453,0.105469 0.26562,0.289063 0.34765,0.539063 0.0234,0.0625 0.14453,0.5625 0.38281,1.507813 -0.0937,0.214843 -0.29687,0.5625 -0.60937,1.054687 -0.32422,0.492187 -0.56641,0.804687 -0.75391,0.945313 l -0.17968,0.09766 c -0.0469,0 -0.13282,-0.04687 -0.22657,-0.132813 -0.14453,-0.132812 -0.27734,-0.191406 -0.39843,-0.191406 -0.11719,0 -0.22657,0.04687 -0.3086,0.132813 -0.0859,0.08203 -0.13281,0.191406 -0.13281,0.320312 0,0.144531 0.0469,0.265625 0.14453,0.347656 0.11719,0.109375 0.26172,0.167969 0.41797,0.167969 0.22656,0 0.45703,-0.09375 0.69531,-0.285156 0.35938,-0.3125 0.85156,-0.996094 1.46094,-2.046875 0.25,1.160156 0.41797,1.816406 0.50391,1.972656 0.1289,0.242188 0.29687,0.359375 0.52734,0.359375 0.14062,0 0.32422,-0.08203 0.53906,-0.25 0.38281,-0.300781 0.69141,-0.683594 0.94531,-1.136719 l -0.20312,-0.109375 c -0.15625,0.289063 -0.34766,0.515625 -0.5625,0.695313 -0.10938,0.09375 -0.20703,0.132812 -0.28906,0.132812 l -0.15625,-0.08594 c -0.0469,-0.05859 -0.1211,-0.238281 -0.19141,-0.550781 l -0.48047,-2.011719 c 0.33594,-0.585938 0.625,-0.96875 0.875,-1.171875 0.1211,-0.109375 0.24219,-0.167969 0.33594,-0.167969 0.0586,0 0.17969,0.03516 0.37109,0.09375 0.0977,0.03516 0.17969,0.05078 0.26563,0.05078 0.14062,0 0.26172,-0.05078 0.38281,-0.144531 0.0586,-0.0625 0.082,-0.15625 0.082,-0.3125 0,-0.121094 -0.0469,-0.226563 -0.15625,-0.320313 -0.0937,-0.08594 -0.22656,-0.132812 -0.39453,-0.132812 -0.11719,0 -0.21484,0.02344 -0.3125,0.05859 -0.15625,0.05859 -0.32031,0.179687 -0.52344,0.347656 -0.19531,0.167969 -0.36328,0.347656 -0.5039,0.539062 l -0.51563,0.765626 c -0.15625,-0.597657 -0.26562,-0.957032 -0.33594,-1.101563 -0.0977,-0.203125 -0.23828,-0.40625 -0.42968,-0.609375 l -1.54688,0.273438"
       id="path95" />
    <path
       style="fill:#211e1e;fill-opacity:1;fill-rule:nonzero;stroke:none"
       d="m 7.554688,53.714844 v 7.265625 L 0.894531,57.347656 7.554688,53.714844"
       id="path97" />
    <path
       style="fill:none;stroke:#211e1e;stroke-width:0.85545;stroke-linecap:butt;stroke-linejoin:miter;stroke-miterlimit:10;stroke-opacity:1"
       d="m 7.554688,-53.714844 v -7.265625 l -6.660157,3.632813 z m 0,0"
       transform="scale(1,-1)"
       id="path99" />
    <path
       style="fill:none;stroke:#211e1e;stroke-width:0.85545;stroke-linecap:butt;stroke-linejoin:miter;stroke-miterlimit:10;stroke-opacity:1"
       d="M 7.554688,-57.347656 H 28.472656"
       transform="scale(1,-1)"
       id="path101" />
    <path
       style="fill:none;stroke:#211e1e;stroke-width:0.85545;stroke-linecap:butt;stroke-linejoin:miter;stroke-miterlimit:10;stroke-opacity:1"
       d="M 44.125,-91.488281 H 326.47656"
       transform="scale(1,-1)"
       id="path103" />
    <path
       style="fill:#211e1e;fill-opacity:1;fill-rule:nonzero;stroke:none"
       d="m 44.988281,87.851562 v 7.265626 l -6.660156,-3.632813 6.660156,-3.632813"
       id="path105" />
    <g
       clip-path="url(#clip2)"
       clip-rule="nonzero"
       id="g109">
      <path
         style="fill:none;stroke:#211e1e;stroke-width:0.85545;stroke-linecap:butt;stroke-linejoin:miter;stroke-miterlimit:10;stroke-opacity:1"
         d="m 44.988281,-87.851562 v -7.265626 l -6.660156,3.632813 z m 0,0"
         transform="scale(1,-1)"
         id="path107" />
    </g>
    <path
       style="fill:none;stroke:#211e1e;stroke-width:0.85545;stroke-linecap:butt;stroke-linejoin:miter;stroke-miterlimit:10;stroke-opacity:1"
       d="m 37.097656,-94.75 v 6.527344"
       transform="scale(1,-1)"
       id="path111" />
    <path
       style="fill:#211e1e;fill-opacity:1;fill-rule:nonzero;stroke:none"
       d="m 117.12109,35.792969 h -7.26562 l 3.63281,-6.660157 3.63281,6.660157"
       id="path113" />
    <path
       style="fill:none;stroke:#211e1e;stroke-width:0.85545;stroke-linecap:butt;stroke-linejoin:miter;stroke-miterlimit:10;stroke-opacity:1"
       d="m 117.12109,-35.792969 h -7.26562 l 3.63281,6.660157 z m 0,0"
       transform="scale(1,-1)"
       id="path115" />
    <path
       style="fill:#211e1e;fill-opacity:1;fill-rule:nonzero;stroke:none"
       d="m 109.85547,72.320312 h 7.26562 l -3.63281,6.660157 -3.63281,-6.660157"
       id="path117" />
    <path
       style="fill:none;stroke:#211e1e;stroke-width:0.85545;stroke-linecap:butt;stroke-linejoin:miter;stroke-miterlimit:10;stroke-opacity:1"
       d="m 109.85547,-72.320312 h 7.26562 l -3.63281,-6.660157 z m 0,0"
       transform="scale(1,-1)"
       id="path119" />
    <path
       style="fill:none;stroke:#211e1e;stroke-width:0.85545;stroke-linecap:butt;stroke-linejoin:miter;stroke-miterlimit:10;stroke-opacity:1"
       d="M 113.48828,-34.605469 V -72.320312"
       transform="scale(1,-1)"
       id="path121" />
    <path
       style="fill:#211e1e;fill-opacity:1;fill-rule:nonzero;stroke:none"
       d="m 106.21484,48.207031 v 0.226563 l 0.11719,-0.0078 c 0.14453,-0.02734 0.25391,-0.03906 0.32422,-0.03906 0.13281,0 0.22656,0.03906 0.3125,0.109375 0.0859,0.08203 0.13281,0.167968 0.13281,0.273437 l -0.20703,0.71875 -1.9375,6.71875 h 0.875 l 0.35938,-1.199219 c 0.10547,-0.320312 0.25,-0.621093 0.42968,-0.898437 0.58594,-0.847656 0.92188,-1.339844 1.03125,-1.457031 0.3711,-0.445313 0.70704,-0.753906 0.99219,-0.910156 0.15625,-0.08594 0.30078,-0.132813 0.42188,-0.132813 0.0937,0 0.15234,0.02344 0.21484,0.07031 l 0.0703,0.179687 c 0,0.167969 -0.0469,0.410156 -0.14453,0.695313 l -0.76562,2.347656 c -0.15625,0.46875 -0.23828,0.78125 -0.23828,0.960937 0,0.140625 0.0469,0.25 0.1289,0.34375 0.0977,0.08203 0.20703,0.132813 0.33594,0.132813 0.13281,0 0.27734,-0.05078 0.43359,-0.132813 0.16797,-0.09375 0.35938,-0.261719 0.57422,-0.503906 0.22656,-0.238281 0.40625,-0.453125 0.52735,-0.65625 l -0.17969,-0.121094 c -0.19141,0.3125 -0.38281,0.539063 -0.58985,0.707031 l -0.14062,0.08594 -0.10938,-0.0625 -0.0352,-0.121094 c 0,-0.03516 0.0469,-0.191406 0.14453,-0.488281 l 0.80078,-2.433594 c 0.12109,-0.355469 0.17969,-0.667969 0.17969,-0.921875 0,-0.238281 -0.0586,-0.429687 -0.20313,-0.5625 -0.13281,-0.144531 -0.30078,-0.214844 -0.49218,-0.214844 -0.38282,0 -0.78907,0.179688 -1.21875,0.527344 -0.42188,0.347656 -1.00782,1.054688 -1.76172,2.128906 l 1.6289,-5.6875 -2.01172,0.324219"
       id="path123" />
    <path
       style="fill:#8f8f8f;fill-opacity:1;fill-rule:nonzero;stroke:none"
       d="m 175.36328,25.804688 h 7.26953 L 179,32.464844 175.36328,25.804688"
       id="path125" />
    <path
       style="fill:none;stroke:#8f8f8f;stroke-width:0.85545;stroke-linecap:butt;stroke-linejoin:miter;stroke-miterlimit:10;stroke-opacity:1"
       d="m 175.36328,-25.804688 h 7.26953 L 179,-32.464844 Z m 0,0"
       transform="scale(1,-1)"
       id="path127" />
    <path
       style="fill:none;stroke:#8f8f8f;stroke-width:0.85545;stroke-linecap:butt;stroke-linejoin:miter;stroke-miterlimit:10;stroke-opacity:1"
       d="m 179,-25.644531 v 8.191406"
       transform="scale(1,-1)"
       id="path129" />
    <path
       style="fill:#8f8f8f;fill-opacity:1;fill-rule:nonzero;stroke:none"
       d="m 129.97266,19.140625 h 7.26562 l -3.63281,6.660156 -3.63281,-6.660156"
       id="path131" />
    <path
       style="fill:none;stroke:#8f8f8f;stroke-width:0.85545;stroke-linecap:butt;stroke-linejoin:miter;stroke-miterlimit:10;stroke-opacity:1"
       d="m 129.97266,-19.140625 h 7.26562 l -3.63281,-6.660156 z m 0,0"
       transform="scale(1,-1)"
       id="path133" />
    <path
       style="fill:none;stroke:#8f8f8f;stroke-width:0.85545;stroke-linecap:butt;stroke-linejoin:miter;stroke-miterlimit:10;stroke-opacity:1"
       d="m 133.60547,-18.984375 v 8.195313"
       transform="scale(1,-1)"
       id="path135" />
    <path
       style="fill:#8f8f8f;fill-opacity:1;fill-rule:nonzero;stroke:none"
       d="m 216.6875,33.308594 h 7.26562 l -3.63281,6.664062 -3.63281,-6.664062"
       id="path137" />
    <path
       style="fill:none;stroke:#8f8f8f;stroke-width:0.85545;stroke-linecap:butt;stroke-linejoin:miter;stroke-miterlimit:10;stroke-opacity:1"
       d="m 216.6875,-33.308594 h 7.26562 l -3.63281,-6.664062 z m 0,0"
       transform="scale(1,-1)"
       id="path139" />
    <path
       style="fill:none;stroke:#8f8f8f;stroke-width:0.85545;stroke-linecap:butt;stroke-linejoin:miter;stroke-miterlimit:10;stroke-opacity:1"
       d="m 220.32031,-33.152344 v 8.195313"
       transform="scale(1,-1)"
       id="path141" />
    <path
       style="fill:#211e1e;fill-opacity:1;fill-rule:nonzero;stroke:none"
       d="m 177.35547,7.195312 -2.40625,3.9375 c -0.0117,-0.128906 -0.0352,-0.453124 -0.0586,-0.957031 -0.0742,-1.339843 -0.21484,-2.335937 -0.45703,-2.980469 l -1.67578,0.394532 v 0.214844 c 0.17969,-0.023438 0.32422,-0.035157 0.42969,-0.035157 0.20312,0 0.34766,0.046875 0.44531,0.132813 0.14063,0.128906 0.23828,0.382812 0.30078,0.789062 0.14063,0.957032 0.22657,2.265625 0.25,3.925782 h 0.25 l 2.42188,-4.035157 0.38281,4.035157 h 0.21484 c 0.21485,-0.214844 0.53907,-0.597657 0.98047,-1.132813 0.4336,-0.554687 0.86328,-1.140625 1.28125,-1.773437 0.33594,-0.527344 0.56641,-0.957032 0.6836,-1.296876 0.0586,-0.175781 0.0859,-0.355468 0.0859,-0.5625 0,-0.203124 -0.0625,-0.359374 -0.16796,-0.476562 -0.10938,-0.121094 -0.24219,-0.179688 -0.39454,-0.179688 -0.14453,0 -0.2539,0.035157 -0.34765,0.121094 -0.0859,0.082032 -0.13281,0.1875 -0.13281,0.308594 0,0.082031 0.0234,0.15625 0.0586,0.226562 0.0469,0.074219 0.11719,0.144532 0.22656,0.21875 0.0977,0.070313 0.16016,0.117188 0.17969,0.15625 0.0391,0.058594 0.0625,0.144532 0.0625,0.226563 0,0.179687 -0.12109,0.476563 -0.35938,0.882813 -0.41015,0.699218 -0.94921,1.4375 -1.6289,2.230468 l -0.41016,-4.371094 h -0.21484"
       id="path143" />
    <path
       style="fill:#211e1e;fill-opacity:1;fill-rule:nonzero;stroke:none"
       d="m 182.21484,13.050781 c 0.48047,-0.171875 0.83594,-0.394531 1.08594,-0.667969 0.1875,-0.210937 0.28125,-0.4375 0.28125,-0.667968 0,-0.160156 -0.0664,-0.308594 -0.21484,-0.425782 -0.14063,-0.121093 -0.35547,-0.179687 -0.65625,-0.179687 -0.40235,0 -0.80469,0.121094 -1.1875,0.359375 -0.39453,0.238281 -0.71094,0.578125 -0.96485,1.007812 -0.25781,0.4375 -0.38672,0.863282 -0.38672,1.273438 0,0.308594 0.10157,0.589844 0.3086,0.84375 0.20703,0.257812 0.51172,0.386719 0.92187,0.386719 0.59766,0 1.22266,-0.324219 1.89063,-0.984375 l -0.0859,-0.117188 c -0.375,0.28125 -0.65625,0.460938 -0.84766,0.546875 -0.1875,0.07422 -0.38281,0.117188 -0.58984,0.117188 -0.24609,0 -0.46875,-0.08203 -0.64844,-0.253907 -0.17968,-0.179687 -0.26172,-0.386718 -0.26172,-0.632812 0,-0.08594 0.008,-0.207031 0.0234,-0.34375 0.57031,-0.05859 1.01563,-0.152344 1.33203,-0.261719 m -0.58203,-1.285156 c 0.32813,-0.296875 0.63281,-0.449219 0.92578,-0.449219 0.13672,0 0.2461,0.03125 0.32422,0.109375 0.0781,0.07031 0.11328,0.160157 0.11328,0.28125 0,0.195313 -0.0898,0.394531 -0.26953,0.605469 -0.16797,0.214844 -0.43359,0.402344 -0.78515,0.558594 -0.26563,0.109375 -0.60547,0.1875 -1.02344,0.238281 0.15234,-0.589844 0.39062,-1.035156 0.71484,-1.34375"
       id="path145" />
    <path
       style="fill:#211e1e;fill-opacity:1;fill-rule:nonzero;stroke:none"
       d="m 218.37891,13.847656 -2.40625,3.941406 c -0.0117,-0.132812 -0.0391,-0.457031 -0.0625,-0.957031 -0.0703,-1.34375 -0.21485,-2.335937 -0.45313,-2.984375 l -1.67969,0.394532 v 0.21875 c 0.1836,-0.02734 0.32422,-0.03516 0.4336,-0.03516 0.20312,0 0.34765,0.04297 0.44531,0.128907 0.14062,0.132812 0.23828,0.382812 0.29687,0.792968 0.14454,0.957032 0.23047,2.261719 0.25391,3.925782 h 0.25 l 2.41797,-4.035157 0.38281,4.035157 h 0.21875 c 0.21485,-0.214844 0.53516,-0.597657 0.98047,-1.136719 0.42969,-0.550781 0.86328,-1.136719 1.28125,-1.773438 0.33594,-0.527343 0.5625,-0.957031 0.68359,-1.292969 0.0586,-0.179687 0.082,-0.359374 0.082,-0.5625 0,-0.203124 -0.0586,-0.359374 -0.16407,-0.480468 -0.10937,-0.121094 -0.24218,-0.179688 -0.39843,-0.179688 -0.14454,0 -0.25,0.03516 -0.34766,0.121094 -0.0859,0.08203 -0.13281,0.191406 -0.13281,0.3125 0,0.08203 0.0273,0.152344 0.0625,0.226562 0.0469,0.07031 0.11718,0.144532 0.22656,0.214844 0.0977,0.07031 0.15625,0.121094 0.17969,0.15625 0.0352,0.05859 0.0625,0.144532 0.0625,0.226563 0,0.179687 -0.1211,0.480469 -0.36328,0.886719 -0.40625,0.695312 -0.94532,1.4375 -1.62891,2.226562 l -0.40625,-4.371094 h -0.21484"
       id="path147" />
    <path
       style="fill:#211e1e;fill-opacity:1;fill-rule:nonzero;stroke:none"
       d="m 223.23828,19.703125 c 0.47656,-0.167969 0.83594,-0.390625 1.08594,-0.664063 0.1875,-0.214843 0.28125,-0.433593 0.28125,-0.664062 0,-0.164062 -0.0703,-0.308594 -0.21485,-0.429688 -0.14453,-0.121093 -0.35546,-0.179687 -0.65625,-0.179687 -0.40234,0 -0.80468,0.121094 -1.1875,0.359375 -0.39453,0.238281 -0.71093,0.582031 -0.96875,1.007812 -0.2539,0.4375 -0.38281,0.863282 -0.38281,1.273438 0,0.308594 0.10156,0.589844 0.3086,0.84375 0.20312,0.257812 0.51171,0.386719 0.92187,0.386719 0.59766,0 1.22266,-0.324219 1.89063,-0.984375 l -0.0898,-0.117188 c -0.37109,0.28125 -0.65625,0.460938 -0.84375,0.546875 -0.1875,0.07813 -0.38281,0.117188 -0.58984,0.117188 -0.2461,0 -0.46875,-0.08594 -0.64844,-0.253907 -0.17969,-0.179687 -0.26562,-0.386718 -0.26562,-0.632812 0,-0.08594 0.008,-0.207031 0.0273,-0.34375 0.57031,-0.05859 1.01562,-0.152344 1.33203,-0.265625 m -0.58203,-1.277344 c 0.32422,-0.300781 0.63281,-0.457031 0.92578,-0.457031 0.13281,0 0.24609,0.03516 0.32422,0.113281 0.0742,0.06641 0.10937,0.164063 0.10937,0.28125 0,0.199219 -0.0859,0.394531 -0.26562,0.605469 -0.16797,0.214844 -0.43359,0.402344 -0.78516,0.558594 -0.26562,0.109375 -0.60547,0.1875 -1.02734,0.238281 0.15625,-0.589844 0.39453,-1.035156 0.71875,-1.339844"
       id="path149" />
    <path
       style="fill:#8f8f8f;fill-opacity:1;fill-rule:nonzero;stroke:none"
       d="m 24.394531,75.953125 v -7.269531 l 6.660157,3.636718 -6.660157,3.632813"
       id="path151" />
    <path
       style="fill:none;stroke:#8f8f8f;stroke-width:0.85545;stroke-linecap:butt;stroke-linejoin:miter;stroke-miterlimit:10;stroke-opacity:1"
       d="m 24.394531,-75.953125 v 7.269531 l 6.660157,-3.636718 z m 0,0"
       transform="scale(1,-1)"
       id="path153" />
    <path
       style="fill:none;stroke:#8f8f8f;stroke-width:0.85545;stroke-linecap:butt;stroke-linejoin:miter;stroke-miterlimit:10;stroke-opacity:1"
       d="M 24.238281,-72.320312 H 16.042969"
       transform="scale(1,-1)"
       id="path155" />
    <path
       style="fill:#211e1e;fill-opacity:1;fill-rule:nonzero;stroke:none"
       d="m 8.679688,70.660156 -2.40625,3.9375 C 6.261719,74.464844 6.234375,74.144531 6.210938,73.640625 6.140625,72.300781 5.996094,71.304688 5.757812,70.660156 l -1.675781,0.394532 v 0.214843 c 0.179688,-0.02344 0.320313,-0.03516 0.429688,-0.03516 0.203125,0 0.347656,0.04687 0.445312,0.132813 C 5.097656,71.5 5.195312,71.75 5.253906,72.15625 c 0.144532,0.957031 0.226563,2.261719 0.25,3.925781 h 0.253906 l 2.417969,-4.035156 0.382813,4.035156 h 0.214844 c 0.21875,-0.214843 0.539062,-0.597656 0.984374,-1.136719 0.429688,-0.550781 0.863282,-1.136718 1.28125,-1.773437 0.335938,-0.527344 0.5625,-0.957031 0.683594,-1.292969 0.05859,-0.179687 0.08203,-0.359375 0.08203,-0.5625 0,-0.203125 -0.05859,-0.359375 -0.167969,-0.476562 -0.105469,-0.121094 -0.238281,-0.179688 -0.394531,-0.179688 -0.144532,0 -0.253907,0.03516 -0.347657,0.117188 -0.08594,0.08594 -0.132812,0.191406 -0.132812,0.3125 0,0.08203 0.02344,0.15625 0.05859,0.226562 0.05078,0.07422 0.121094,0.144532 0.230469,0.214844 0.09375,0.07422 0.15625,0.121094 0.179688,0.15625 0.03516,0.0625 0.05859,0.144531 0.05859,0.230469 0,0.175781 -0.117187,0.476562 -0.359374,0.882812 -0.40625,0.695313 -0.945313,1.4375 -1.628907,2.230469 L 8.894531,70.660156 H 8.679688"
       id="path157" />
    <path
       style="fill:#211e1e;fill-opacity:1;fill-rule:nonzero;stroke:none"
       d="m 13.539062,76.515625 c 0.476563,-0.171875 0.835938,-0.394531 1.082032,-0.667969 0.191406,-0.214844 0.285156,-0.433594 0.285156,-0.664062 0,-0.164063 -0.07031,-0.308594 -0.214844,-0.429688 -0.144531,-0.117187 -0.359375,-0.179687 -0.65625,-0.179687 -0.402344,0 -0.804687,0.121093 -1.1875,0.359375 -0.394531,0.242187 -0.710937,0.582031 -0.96875,1.007812 -0.253906,0.4375 -0.382812,0.867188 -0.382812,1.273438 0,0.308594 0.101562,0.589844 0.308594,0.847656 0.203124,0.253906 0.511718,0.382812 0.921874,0.382812 0.597657,0 1.222657,-0.324218 1.886719,-0.984374 L 14.53125,77.34375 c -0.375,0.28125 -0.660156,0.460938 -0.847656,0.546875 -0.1875,0.07422 -0.382813,0.121094 -0.589844,0.121094 -0.246094,0 -0.46875,-0.08984 -0.648438,-0.257813 -0.179687,-0.179687 -0.265624,-0.386718 -0.265624,-0.632812 0,-0.08594 0.0078,-0.203125 0.02734,-0.339844 0.570313,-0.0625 1.015625,-0.15625 1.332031,-0.265625 m -0.582031,-1.28125 c 0.324219,-0.300781 0.632813,-0.457031 0.921875,-0.457031 0.136719,0 0.25,0.03516 0.328125,0.113281 0.07422,0.06641 0.109375,0.164063 0.109375,0.285156 0,0.191407 -0.08594,0.390625 -0.265625,0.601563 -0.171875,0.214844 -0.433593,0.40625 -0.785156,0.558594 -0.265625,0.109374 -0.605469,0.1875 -1.027344,0.238281 0.15625,-0.589844 0.394531,-1.035157 0.71875,-1.339844"
       id="path159" />
    <g
       clip-path="url(#clip3)"
       clip-rule="nonzero"
       id="g163">
      <path
         style="fill:none;stroke:#211e1e;stroke-width:0.606592;stroke-linecap:butt;stroke-linejoin:miter;stroke-miterlimit:10;stroke-opacity:1"
         d="m 327.03516,-53.1875 v -31.324219 l 8.11718,-1.597656 -13.85937,-2.195313 5.62109,-1.394531 v -16.199221"
         transform="scale(1,-1)"
         id="path161" />
    </g>
    <path
       style="fill:none;stroke:#211e1e;stroke-width:0.606592;stroke-linecap:butt;stroke-linejoin:miter;stroke-miterlimit:10;stroke-opacity:1"
       d="m 92.453125,-80.726562 -2.464844,-4.703126"
       transform="scale(1,-1)"
       id="path165" />
    <path
       style="fill:none;stroke:#211e1e;stroke-width:0.606592;stroke-linecap:butt;stroke-linejoin:miter;stroke-miterlimit:10;stroke-opacity:1"
       d="m 94.914062,-80.726562 -2.460937,-4.703126"
       transform="scale(1,-1)"
       id="path167" />
    <path
       style="fill:none;stroke:#211e1e;stroke-width:0.606592;stroke-linecap:butt;stroke-linejoin:miter;stroke-miterlimit:10;stroke-opacity:1"
       d="m 97.378906,-80.726562 -2.464844,-4.703126"
       transform="scale(1,-1)"
       id="path169" />
    <path
       style="fill:none;stroke:#211e1e;stroke-width:0.606592;stroke-linecap:butt;stroke-linejoin:miter;stroke-miterlimit:10;stroke-opacity:1"
       d="m 99.84375,-80.726562 -2.464844,-4.703126"
       transform="scale(1,-1)"
       id="path171" />
    <path
       style="fill:none;stroke:#211e1e;stroke-width:0.606592;stroke-linecap:butt;stroke-linejoin:miter;stroke-miterlimit:10;stroke-opacity:1"
       d="m 102.30859,-80.726562 -2.46484,-4.703126"
       transform="scale(1,-1)"
       id="path173" />
    <path
       style="fill:none;stroke:#211e1e;stroke-width:0.606592;stroke-linecap:butt;stroke-linejoin:miter;stroke-miterlimit:10;stroke-opacity:1"
       d="m 104.76953,-80.726562 -2.46094,-4.703126"
       transform="scale(1,-1)"
       id="path175" />
    <path
       style="fill:none;stroke:#211e1e;stroke-width:0.606592;stroke-linecap:butt;stroke-linejoin:miter;stroke-miterlimit:10;stroke-opacity:1"
       d="m 107.23438,-80.726562 -2.46485,-4.703126"
       transform="scale(1,-1)"
       id="path177" />
    <path
       style="fill:none;stroke:#211e1e;stroke-width:0.606592;stroke-linecap:butt;stroke-linejoin:miter;stroke-miterlimit:10;stroke-opacity:1"
       d="m 107.23438,-85.429688 2.46484,4.703126"
       transform="scale(1,-1)"
       id="path179" />
    <path
       style="fill:none;stroke:#211e1e;stroke-width:0.606592;stroke-linecap:butt;stroke-linejoin:miter;stroke-miterlimit:10;stroke-opacity:1"
       d="m 112.16406,-80.726562 -2.46484,-4.703126"
       transform="scale(1,-1)"
       id="path181" />
    <path
       style="fill:none;stroke:#211e1e;stroke-width:0.606592;stroke-linecap:butt;stroke-linejoin:miter;stroke-miterlimit:10;stroke-opacity:1"
       d="m 114.625,-80.726562 -2.46094,-4.703126"
       transform="scale(1,-1)"
       id="path183" />
    <path
       style="fill:none;stroke:#211e1e;stroke-width:0.606592;stroke-linecap:butt;stroke-linejoin:miter;stroke-miterlimit:10;stroke-opacity:1"
       d="M 117.08984,-80.726562 114.625,-85.429688"
       transform="scale(1,-1)"
       id="path185" />
    <path
       style="fill:none;stroke:#211e1e;stroke-width:0.606592;stroke-linecap:butt;stroke-linejoin:miter;stroke-miterlimit:10;stroke-opacity:1"
       d="m 119.55469,-80.726562 -2.46485,-4.703126"
       transform="scale(1,-1)"
       id="path187" />
    <path
       style="fill:none;stroke:#211e1e;stroke-width:0.606592;stroke-linecap:butt;stroke-linejoin:miter;stroke-miterlimit:10;stroke-opacity:1"
       d="m 122.01953,-80.726562 -2.46484,-4.703126"
       transform="scale(1,-1)"
       id="path189" />
    <path
       style="fill:none;stroke:#211e1e;stroke-width:0.606592;stroke-linecap:butt;stroke-linejoin:miter;stroke-miterlimit:10;stroke-opacity:1"
       d="m 124.48047,-80.726562 -2.46094,-4.703126"
       transform="scale(1,-1)"
       id="path191" />
    <path
       style="fill:none;stroke:#211e1e;stroke-width:0.606592;stroke-linecap:butt;stroke-linejoin:miter;stroke-miterlimit:10;stroke-opacity:1"
       d="m 126.87109,-80.726562 -2.46484,-4.703126"
       transform="scale(1,-1)"
       id="path193" />
    <path
       style="fill:none;stroke:#211e1e;stroke-width:0.606592;stroke-linecap:butt;stroke-linejoin:miter;stroke-miterlimit:10;stroke-opacity:1"
       d="m 129.33203,-80.726562 -2.46094,-4.703126"
       transform="scale(1,-1)"
       id="path195" />
    <path
       style="fill:none;stroke:#211e1e;stroke-width:0.606592;stroke-linecap:butt;stroke-linejoin:miter;stroke-miterlimit:10;stroke-opacity:1"
       d="m 131.79687,-80.726562 -2.46484,-4.703126"
       transform="scale(1,-1)"
       id="path197" />
    <path
       style="fill:none;stroke:#211e1e;stroke-width:0.606592;stroke-linecap:butt;stroke-linejoin:miter;stroke-miterlimit:10;stroke-opacity:1"
       d="m 134.26172,-80.726562 -2.46485,-4.703126"
       transform="scale(1,-1)"
       id="path199" />
    <path
       style="fill:none;stroke:#211e1e;stroke-width:0.606592;stroke-linecap:butt;stroke-linejoin:miter;stroke-miterlimit:10;stroke-opacity:1"
       d="m 136.72266,-80.726562 -2.46094,-4.703126"
       transform="scale(1,-1)"
       id="path201" />
    <path
       style="fill:none;stroke:#211e1e;stroke-width:0.606592;stroke-linecap:butt;stroke-linejoin:miter;stroke-miterlimit:10;stroke-opacity:1"
       d="m 139.1875,-80.726562 -2.46484,-4.703126"
       transform="scale(1,-1)"
       id="path203" />
    <path
       style="fill:none;stroke:#211e1e;stroke-width:0.606592;stroke-linecap:butt;stroke-linejoin:miter;stroke-miterlimit:10;stroke-opacity:1"
       d="m 141.65234,-80.726562 -2.46484,-4.703126"
       transform="scale(1,-1)"
       id="path205" />
    <path
       style="fill:none;stroke:#211e1e;stroke-width:0.606592;stroke-linecap:butt;stroke-linejoin:miter;stroke-miterlimit:10;stroke-opacity:1"
       d="m 144.11328,-80.726562 -2.46094,-4.703126"
       transform="scale(1,-1)"
       id="path207" />
    <path
       style="fill:none;stroke:#211e1e;stroke-width:0.606592;stroke-linecap:butt;stroke-linejoin:miter;stroke-miterlimit:10;stroke-opacity:1"
       d="m 146.57812,-80.726562 -2.46484,-4.703126"
       transform="scale(1,-1)"
       id="path209" />
    <path
       style="fill:none;stroke:#211e1e;stroke-width:0.606592;stroke-linecap:butt;stroke-linejoin:miter;stroke-miterlimit:10;stroke-opacity:1"
       d="m 149.04297,-80.726562 -2.46485,-4.703126"
       transform="scale(1,-1)"
       id="path211" />
    <path
       style="fill:none;stroke:#211e1e;stroke-width:0.606592;stroke-linecap:butt;stroke-linejoin:miter;stroke-miterlimit:10;stroke-opacity:1"
       d="m 151.50391,-80.726562 -2.46094,-4.703126"
       transform="scale(1,-1)"
       id="path213" />
    <path
       style="fill:none;stroke:#211e1e;stroke-width:0.606592;stroke-linecap:butt;stroke-linejoin:miter;stroke-miterlimit:10;stroke-opacity:1"
       d="m 153.96875,-80.726562 -2.46484,-4.703126"
       transform="scale(1,-1)"
       id="path215" />
    <path
       style="fill:none;stroke:#211e1e;stroke-width:0.606592;stroke-linecap:butt;stroke-linejoin:miter;stroke-miterlimit:10;stroke-opacity:1"
       d="m 156.43359,-80.726562 -2.46484,-4.703126"
       transform="scale(1,-1)"
       id="path217" />
    <path
       style="fill:none;stroke:#211e1e;stroke-width:0.606592;stroke-linecap:butt;stroke-linejoin:miter;stroke-miterlimit:10;stroke-opacity:1"
       d="m 158.89844,-80.726562 -2.46485,-4.703126"
       transform="scale(1,-1)"
       id="path219" />
    <path
       style="fill:none;stroke:#211e1e;stroke-width:0.606592;stroke-linecap:butt;stroke-linejoin:miter;stroke-miterlimit:10;stroke-opacity:1"
       d="m 161.35937,-80.726562 -2.46093,-4.703126"
       transform="scale(1,-1)"
       id="path221" />
    <path
       style="fill:none;stroke:#211e1e;stroke-width:0.606592;stroke-linecap:butt;stroke-linejoin:miter;stroke-miterlimit:10;stroke-opacity:1"
       d="m 163.82422,-80.726562 -2.46485,-4.703126"
       transform="scale(1,-1)"
       id="path223" />
    <path
       style="fill:none;stroke:#211e1e;stroke-width:0.606592;stroke-linecap:butt;stroke-linejoin:miter;stroke-miterlimit:10;stroke-opacity:1"
       d="m 166.28906,-80.726562 -2.46484,-4.703126"
       transform="scale(1,-1)"
       id="path225" />
    <path
       style="fill:none;stroke:#211e1e;stroke-width:0.606592;stroke-linecap:butt;stroke-linejoin:miter;stroke-miterlimit:10;stroke-opacity:1"
       d="m 168.75,-80.726562 -2.46094,-4.703126"
       transform="scale(1,-1)"
       id="path227" />
    <path
       style="fill:none;stroke:#211e1e;stroke-width:0.606592;stroke-linecap:butt;stroke-linejoin:miter;stroke-miterlimit:10;stroke-opacity:1"
       d="M 171.21484,-80.726562 168.75,-85.429688"
       transform="scale(1,-1)"
       id="path229" />
    <path
       style="fill:none;stroke:#211e1e;stroke-width:0.606592;stroke-linecap:butt;stroke-linejoin:miter;stroke-miterlimit:10;stroke-opacity:1"
       d="m 173.67969,-80.726562 -2.46485,-4.703126"
       transform="scale(1,-1)"
       id="path231" />
    <path
       style="fill:none;stroke:#211e1e;stroke-width:0.606592;stroke-linecap:butt;stroke-linejoin:miter;stroke-miterlimit:10;stroke-opacity:1"
       d="m 176.14453,-80.726562 -2.46484,-4.703126"
       transform="scale(1,-1)"
       id="path233" />
    <path
       style="fill:none;stroke:#211e1e;stroke-width:0.606592;stroke-linecap:butt;stroke-linejoin:miter;stroke-miterlimit:10;stroke-opacity:1"
       d="m 178.60547,-80.726562 -2.46094,-4.703126"
       transform="scale(1,-1)"
       id="path235" />
    <path
       style="fill:none;stroke:#211e1e;stroke-width:0.606592;stroke-linecap:butt;stroke-linejoin:miter;stroke-miterlimit:10;stroke-opacity:1"
       d="m 181.07031,-80.726562 -2.46484,-4.703126"
       transform="scale(1,-1)"
       id="path237" />
    <path
       style="fill:none;stroke:#211e1e;stroke-width:0.606592;stroke-linecap:butt;stroke-linejoin:miter;stroke-miterlimit:10;stroke-opacity:1"
       d="m 183.53125,-80.726562 -2.46094,-4.703126"
       transform="scale(1,-1)"
       id="path239" />
    <path
       style="fill:none;stroke:#211e1e;stroke-width:0.606592;stroke-linecap:butt;stroke-linejoin:miter;stroke-miterlimit:10;stroke-opacity:1"
       d="m 183.53125,-85.429688 2.46484,4.703126"
       transform="scale(1,-1)"
       id="path241" />
    <path
       style="fill:none;stroke:#211e1e;stroke-width:0.606592;stroke-linecap:butt;stroke-linejoin:miter;stroke-miterlimit:10;stroke-opacity:1"
       d="m 188.46094,-80.726562 -2.46485,-4.703126"
       transform="scale(1,-1)"
       id="path243" />
    <path
       style="fill:none;stroke:#211e1e;stroke-width:0.606592;stroke-linecap:butt;stroke-linejoin:miter;stroke-miterlimit:10;stroke-opacity:1"
       d="m 190.92187,-80.726562 -2.46093,-4.703126"
       transform="scale(1,-1)"
       id="path245" />
    <path
       style="fill:none;stroke:#211e1e;stroke-width:0.606592;stroke-linecap:butt;stroke-linejoin:miter;stroke-miterlimit:10;stroke-opacity:1"
       d="m 193.38672,-80.726562 -2.46485,-4.703126"
       transform="scale(1,-1)"
       id="path247" />
    <path
       style="fill:none;stroke:#211e1e;stroke-width:0.606592;stroke-linecap:butt;stroke-linejoin:miter;stroke-miterlimit:10;stroke-opacity:1"
       d="m 195.85156,-80.726562 -2.46484,-4.703126"
       transform="scale(1,-1)"
       id="path249" />
    <path
       style="fill:none;stroke:#211e1e;stroke-width:0.606592;stroke-linecap:butt;stroke-linejoin:miter;stroke-miterlimit:10;stroke-opacity:1"
       d="m 198.31641,-80.726562 -2.46485,-4.703126"
       transform="scale(1,-1)"
       id="path251" />
    <path
       style="fill:none;stroke:#211e1e;stroke-width:0.606592;stroke-linecap:butt;stroke-linejoin:miter;stroke-miterlimit:10;stroke-opacity:1"
       d="m 200.77734,-80.726562 -2.46093,-4.703126"
       transform="scale(1,-1)"
       id="path253" />
    <path
       style="fill:none;stroke:#211e1e;stroke-width:0.606592;stroke-linecap:butt;stroke-linejoin:miter;stroke-miterlimit:10;stroke-opacity:1"
       d="m 203.16406,-80.726562 -2.46094,-4.703126"
       transform="scale(1,-1)"
       id="path255" />
    <path
       style="fill:none;stroke:#211e1e;stroke-width:0.606592;stroke-linecap:butt;stroke-linejoin:miter;stroke-miterlimit:10;stroke-opacity:1"
       d="m 205.62891,-80.726562 -2.46485,-4.703126"
       transform="scale(1,-1)"
       id="path257" />
    <path
       style="fill:none;stroke:#211e1e;stroke-width:0.606592;stroke-linecap:butt;stroke-linejoin:miter;stroke-miterlimit:10;stroke-opacity:1"
       d="m 208.09375,-80.726562 -2.46484,-4.703126"
       transform="scale(1,-1)"
       id="path259" />
    <path
       style="fill:none;stroke:#211e1e;stroke-width:0.606592;stroke-linecap:butt;stroke-linejoin:miter;stroke-miterlimit:10;stroke-opacity:1"
       d="m 210.55859,-80.726562 -2.46484,-4.703126"
       transform="scale(1,-1)"
       id="path261" />
    <path
       style="fill:none;stroke:#211e1e;stroke-width:0.606592;stroke-linecap:butt;stroke-linejoin:miter;stroke-miterlimit:10;stroke-opacity:1"
       d="m 213.01953,-80.726562 -2.46094,-4.703126"
       transform="scale(1,-1)"
       id="path263" />
    <path
       style="fill:none;stroke:#211e1e;stroke-width:0.606592;stroke-linecap:butt;stroke-linejoin:miter;stroke-miterlimit:10;stroke-opacity:1"
       d="m 215.48437,-80.726562 -2.46484,-4.703126"
       transform="scale(1,-1)"
       id="path265" />
    <path
       style="fill:none;stroke:#211e1e;stroke-width:0.606592;stroke-linecap:butt;stroke-linejoin:miter;stroke-miterlimit:10;stroke-opacity:1"
       d="m 217.94922,-80.726562 -2.46485,-4.703126"
       transform="scale(1,-1)"
       id="path267" />
    <path
       style="fill:none;stroke:#211e1e;stroke-width:0.606592;stroke-linecap:butt;stroke-linejoin:miter;stroke-miterlimit:10;stroke-opacity:1"
       d="m 220.41016,-80.726562 -2.46094,-4.703126"
       transform="scale(1,-1)"
       id="path269" />
    <path
       style="fill:none;stroke:#211e1e;stroke-width:0.606592;stroke-linecap:butt;stroke-linejoin:miter;stroke-miterlimit:10;stroke-opacity:1"
       d="m 222.875,-80.726562 -2.46484,-4.703126"
       transform="scale(1,-1)"
       id="path271" />
    <path
       style="fill:none;stroke:#211e1e;stroke-width:0.606592;stroke-linecap:butt;stroke-linejoin:miter;stroke-miterlimit:10;stroke-opacity:1"
       d="M 225.33984,-80.726562 222.875,-85.429688"
       transform="scale(1,-1)"
       id="path273" />
    <path
       style="fill:none;stroke:#211e1e;stroke-width:0.606592;stroke-linecap:butt;stroke-linejoin:miter;stroke-miterlimit:10;stroke-opacity:1"
       d="m 227.80078,-80.726562 -2.46094,-4.703126"
       transform="scale(1,-1)"
       id="path275" />
    <path
       style="fill:none;stroke:#211e1e;stroke-width:0.606592;stroke-linecap:butt;stroke-linejoin:miter;stroke-miterlimit:10;stroke-opacity:1"
       d="m 230.26562,-80.726562 -2.46484,-4.703126"
       transform="scale(1,-1)"
       id="path277" />
    <path
       style="fill:none;stroke:#211e1e;stroke-width:0.606592;stroke-linecap:butt;stroke-linejoin:miter;stroke-miterlimit:10;stroke-opacity:1"
       d="m 232.73047,-80.726562 -2.46485,-4.703126"
       transform="scale(1,-1)"
       id="path279" />
    <path
       style="fill:none;stroke:#211e1e;stroke-width:0.606592;stroke-linecap:butt;stroke-linejoin:miter;stroke-miterlimit:10;stroke-opacity:1"
       d="m 235.19531,-80.726562 -2.46484,-4.703126"
       transform="scale(1,-1)"
       id="path281" />
    <path
       style="fill:none;stroke:#211e1e;stroke-width:0.606592;stroke-linecap:butt;stroke-linejoin:miter;stroke-miterlimit:10;stroke-opacity:1"
       d="m 237.65625,-80.726562 -2.46094,-4.703126"
       transform="scale(1,-1)"
       id="path283" />
    <path
       style="fill:none;stroke:#211e1e;stroke-width:0.606592;stroke-linecap:butt;stroke-linejoin:miter;stroke-miterlimit:10;stroke-opacity:1"
       d="m 240.12109,-80.726562 -2.46484,-4.703126"
       transform="scale(1,-1)"
       id="path285" />
    <path
       style="fill:none;stroke:#211e1e;stroke-width:0.606592;stroke-linecap:butt;stroke-linejoin:miter;stroke-miterlimit:10;stroke-opacity:1"
       d="m 242.58594,-80.726562 -2.46485,-4.703126"
       transform="scale(1,-1)"
       id="path287" />
    <path
       style="fill:none;stroke:#211e1e;stroke-width:0.606592;stroke-linecap:butt;stroke-linejoin:miter;stroke-miterlimit:10;stroke-opacity:1"
       d="m 245.04687,-80.726562 -2.46093,-4.703126"
       transform="scale(1,-1)"
       id="path289" />
    <path
       style="fill:none;stroke:#211e1e;stroke-width:0.606592;stroke-linecap:butt;stroke-linejoin:miter;stroke-miterlimit:10;stroke-opacity:1"
       d="m 247.51172,-80.726562 -2.46485,-4.703126"
       transform="scale(1,-1)"
       id="path291" />
    <path
       style="fill:none;stroke:#211e1e;stroke-width:0.606592;stroke-linecap:butt;stroke-linejoin:miter;stroke-miterlimit:10;stroke-opacity:1"
       d="m 249.97656,-80.726562 -2.46484,-4.703126"
       transform="scale(1,-1)"
       id="path293" />
    <path
       style="fill:none;stroke:#211e1e;stroke-width:0.606592;stroke-linecap:butt;stroke-linejoin:miter;stroke-miterlimit:10;stroke-opacity:1"
       d="m 252.4375,-80.726562 -2.46094,-4.703126"
       transform="scale(1,-1)"
       id="path295" />
    <path
       style="fill:none;stroke:#211e1e;stroke-width:0.606592;stroke-linecap:butt;stroke-linejoin:miter;stroke-miterlimit:10;stroke-opacity:1"
       d="m 254.90234,-80.726562 -2.46484,-4.703126"
       transform="scale(1,-1)"
       id="path297" />
    <path
       style="fill:none;stroke:#211e1e;stroke-width:0.606592;stroke-linecap:butt;stroke-linejoin:miter;stroke-miterlimit:10;stroke-opacity:1"
       d="m 257.36719,-80.726562 -2.46485,-4.703126"
       transform="scale(1,-1)"
       id="path299" />
    <path
       style="fill:none;stroke:#211e1e;stroke-width:0.606592;stroke-linecap:butt;stroke-linejoin:miter;stroke-miterlimit:10;stroke-opacity:1"
       d="m 257.36719,-85.429688 2.46093,4.703126"
       transform="scale(1,-1)"
       id="path301" />
    <path
       style="fill:none;stroke:#211e1e;stroke-width:0.606592;stroke-linecap:butt;stroke-linejoin:miter;stroke-miterlimit:10;stroke-opacity:1"
       d="m 262.29297,-80.726562 -2.46485,-4.703126"
       transform="scale(1,-1)"
       id="path303" />
    <path
       style="fill:none;stroke:#211e1e;stroke-width:0.606592;stroke-linecap:butt;stroke-linejoin:miter;stroke-miterlimit:10;stroke-opacity:1"
       d="m 264.75391,-80.726562 -2.46094,-4.703126"
       transform="scale(1,-1)"
       id="path305" />
    <path
       style="fill:none;stroke:#211e1e;stroke-width:0.606592;stroke-linecap:butt;stroke-linejoin:miter;stroke-miterlimit:10;stroke-opacity:1"
       d="m 267.22266,-80.726562 -2.46875,-4.703126"
       transform="scale(1,-1)"
       id="path307" />
    <path
       style="fill:none;stroke:#211e1e;stroke-width:0.606592;stroke-linecap:butt;stroke-linejoin:miter;stroke-miterlimit:10;stroke-opacity:1"
       d="m 269.68359,-80.726562 -2.46093,-4.703126"
       transform="scale(1,-1)"
       id="path309" />
    <path
       style="fill:none;stroke:#211e1e;stroke-width:0.606592;stroke-linecap:butt;stroke-linejoin:miter;stroke-miterlimit:10;stroke-opacity:1"
       d="m 272.14844,-80.726562 -2.46485,-4.703126"
       transform="scale(1,-1)"
       id="path311" />
    <path
       style="fill:none;stroke:#211e1e;stroke-width:0.606592;stroke-linecap:butt;stroke-linejoin:miter;stroke-miterlimit:10;stroke-opacity:1"
       d="m 274.60937,-80.726562 -2.46093,-4.703126"
       transform="scale(1,-1)"
       id="path313" />
    <path
       style="fill:none;stroke:#211e1e;stroke-width:0.606592;stroke-linecap:butt;stroke-linejoin:miter;stroke-miterlimit:10;stroke-opacity:1"
       d="m 276.99609,-80.726562 -2.46093,-4.703126"
       transform="scale(1,-1)"
       id="path315" />
    <path
       style="fill:none;stroke:#211e1e;stroke-width:0.606592;stroke-linecap:butt;stroke-linejoin:miter;stroke-miterlimit:10;stroke-opacity:1"
       d="m 279.46094,-80.726562 -2.46485,-4.703126"
       transform="scale(1,-1)"
       id="path317" />
    <path
       style="fill:none;stroke:#211e1e;stroke-width:0.606592;stroke-linecap:butt;stroke-linejoin:miter;stroke-miterlimit:10;stroke-opacity:1"
       d="m 281.92578,-80.726562 -2.46484,-4.703126"
       transform="scale(1,-1)"
       id="path319" />
    <path
       style="fill:none;stroke:#211e1e;stroke-width:0.606592;stroke-linecap:butt;stroke-linejoin:miter;stroke-miterlimit:10;stroke-opacity:1"
       d="m 284.38672,-80.726562 -2.46094,-4.703126"
       transform="scale(1,-1)"
       id="path321" />
    <path
       style="fill:none;stroke:#211e1e;stroke-width:0.606592;stroke-linecap:butt;stroke-linejoin:miter;stroke-miterlimit:10;stroke-opacity:1"
       d="m 286.85156,-80.726562 -2.46484,-4.703126"
       transform="scale(1,-1)"
       id="path323" />
    <path
       style="fill:none;stroke:#211e1e;stroke-width:0.606592;stroke-linecap:butt;stroke-linejoin:miter;stroke-miterlimit:10;stroke-opacity:1"
       d="m 289.31641,-80.726562 -2.46485,-4.703126"
       transform="scale(1,-1)"
       id="path325" />
    <path
       style="fill:none;stroke:#211e1e;stroke-width:0.606592;stroke-linecap:butt;stroke-linejoin:miter;stroke-miterlimit:10;stroke-opacity:1"
       d="m 291.78125,-80.726562 -2.46484,-4.703126"
       transform="scale(1,-1)"
       id="path327" />
    <path
       style="fill:none;stroke:#211e1e;stroke-width:0.606592;stroke-linecap:butt;stroke-linejoin:miter;stroke-miterlimit:10;stroke-opacity:1"
       d="m 294.24219,-80.726562 -2.46094,-4.703126"
       transform="scale(1,-1)"
       id="path329" />
    <path
       style="fill:none;stroke:#211e1e;stroke-width:0.606592;stroke-linecap:butt;stroke-linejoin:miter;stroke-miterlimit:10;stroke-opacity:1"
       d="m 296.70703,-80.726562 -2.46484,-4.703126"
       transform="scale(1,-1)"
       id="path331" />
    <path
       style="fill:none;stroke:#211e1e;stroke-width:0.606592;stroke-linecap:butt;stroke-linejoin:miter;stroke-miterlimit:10;stroke-opacity:1"
       d="m 299.17187,-80.726562 -2.46484,-4.703126"
       transform="scale(1,-1)"
       id="path333" />
    <path
       style="fill:none;stroke:#211e1e;stroke-width:0.606592;stroke-linecap:butt;stroke-linejoin:miter;stroke-miterlimit:10;stroke-opacity:1"
       d="m 301.63281,-80.726562 -2.46094,-4.703126"
       transform="scale(1,-1)"
       id="path335" />
    <path
       style="fill:none;stroke:#211e1e;stroke-width:0.606592;stroke-linecap:butt;stroke-linejoin:miter;stroke-miterlimit:10;stroke-opacity:1"
       d="m 304.09766,-80.726562 -2.46485,-4.703126"
       transform="scale(1,-1)"
       id="path337" />
    <path
       style="fill:none;stroke:#211e1e;stroke-width:0.606592;stroke-linecap:butt;stroke-linejoin:miter;stroke-miterlimit:10;stroke-opacity:1"
       d="m 306.5625,-80.726562 -2.46484,-4.703126"
       transform="scale(1,-1)"
       id="path339" />
    <path
       style="fill:none;stroke:#211e1e;stroke-width:0.606592;stroke-linecap:butt;stroke-linejoin:miter;stroke-miterlimit:10;stroke-opacity:1"
       d="m 309.02734,-80.726562 -2.46484,-4.703126"
       transform="scale(1,-1)"
       id="path341" />
    <path
       style="fill:none;stroke:#211e1e;stroke-width:0.606592;stroke-linecap:butt;stroke-linejoin:miter;stroke-miterlimit:10;stroke-opacity:1"
       d="m 311.48828,-80.726562 -2.46094,-4.703126"
       transform="scale(1,-1)"
       id="path343" />
    <path
       style="fill:none;stroke:#211e1e;stroke-width:0.606592;stroke-linecap:butt;stroke-linejoin:miter;stroke-miterlimit:10;stroke-opacity:1"
       d="m 313.95312,-80.726562 -2.46484,-4.703126"
       transform="scale(1,-1)"
       id="path345" />
    <path
       style="fill:none;stroke:#211e1e;stroke-width:0.606592;stroke-linecap:butt;stroke-linejoin:miter;stroke-miterlimit:10;stroke-opacity:1"
       d="m 316.41797,-80.726562 -2.46485,-4.703126"
       transform="scale(1,-1)"
       id="path347" />
    <path
       style="fill:none;stroke:#211e1e;stroke-width:0.606592;stroke-linecap:butt;stroke-linejoin:miter;stroke-miterlimit:10;stroke-opacity:1"
       d="m 318.88281,-80.726562 -2.46484,-4.703126"
       transform="scale(1,-1)"
       id="path349" />
    <path
       style="fill:none;stroke:#211e1e;stroke-width:0.606592;stroke-linecap:butt;stroke-linejoin:miter;stroke-miterlimit:10;stroke-opacity:1"
       d="m 321.34375,-80.726562 -2.46094,-4.703126"
       transform="scale(1,-1)"
       id="path351" />
    <path
       style="fill:none;stroke:#211e1e;stroke-width:0.606592;stroke-linecap:butt;stroke-linejoin:miter;stroke-miterlimit:10;stroke-opacity:1"
       d="m 323.80859,-80.726562 -2.46484,-4.703126"
       transform="scale(1,-1)"
       id="path353" />
    <path
       style="fill:none;stroke:#211e1e;stroke-width:0.606592;stroke-linecap:butt;stroke-linejoin:miter;stroke-miterlimit:10;stroke-opacity:1"
       d="m 326.26953,-80.726562 -2.46094,-4.703126"
       transform="scale(1,-1)"
       id="path355" />
  </g>
</svg>
