<?xml version="1.0" encoding="utf-8" standalone="no"?>
<!DOCTYPE svg PUBLIC "-//W3C//DTD SVG 1.1//EN"
  "http://www.w3.org/Graphics/SVG/1.1/DTD/svg11.dtd">
<svg xmlns:xlink="http://www.w3.org/1999/xlink" width="252.648242pt" height="126.324121pt" viewBox="0 0 252.648242 126.324121" xmlns="http://www.w3.org/2000/svg" version="1.1">
 <metadata>
  <rdf:RDF xmlns:dc="http://purl.org/dc/elements/1.1/" xmlns:cc="http://creativecommons.org/ns#" xmlns:rdf="http://www.w3.org/1999/02/22-rdf-syntax-ns#">
   <cc:Work>
    <dc:type rdf:resource="http://purl.org/dc/dcmitype/StillImage"/>
    <dc:date>2023-06-21T12:18:35.350317</dc:date>
    <dc:format>image/svg+xml</dc:format>
    <dc:creator>
     <cc:Agent>
      <dc:title>Matplotlib v3.7.1, https://matplotlib.org/</dc:title>
     </cc:Agent>
    </dc:creator>
   </cc:Work>
  </rdf:RDF>
 </metadata>
 <defs>
  <style type="text/css">*{stroke-linejoin: round; stroke-linecap: butt}</style>
 </defs>
 <g id="figure_1">
  <g id="patch_1">
   <path d="M 0 126.324121 
L 252.648242 126.324121 
L 252.648242 0 
L 0 0 
z
" style="fill: #ffffff"/>
  </g>
  <g id="axes_1">
   <g id="patch_2">
    <path d="M 235.848069 85.713012 
L 232.780385 50.649228 
L 4.736114 50.649228 
L 9.53605 105.512748 
z
" clip-path="url(#p081c29bb40)" style="fill: #00bfff; opacity: 0.15"/>
   </g>
   <g id="PathCollection_1">
    <defs>
     <path id="m86af13f62e" d="M 0 0.5 
C 0.132602 0.5 0.25979 0.447317 0.353553 0.353553 
C 0.447317 0.25979 0.5 0.132602 0.5 0 
C 0.5 -0.132602 0.447317 -0.25979 0.353553 -0.353553 
C 0.25979 -0.447317 0.132602 -0.5 0 -0.5 
C -0.132602 -0.5 -0.25979 -0.447317 -0.353553 -0.353553 
C -0.447317 -0.25979 -0.5 -0.132602 -0.5 0 
C -0.5 0.132602 -0.447317 0.25979 -0.353553 0.353553 
C -0.25979 0.447317 -0.132602 0.5 0 0.5 
z
" style="stroke: #cd853f"/>
    </defs>
    <g clip-path="url(#p081c29bb40)">
     <use xlink:href="#m86af13f62e" x="228.252408" y="61.600006" style="fill: #cd853f; stroke: #cd853f"/>
     <use xlink:href="#m86af13f62e" x="217.749244" y="85.197718" style="fill: #cd853f; stroke: #cd853f"/>
     <use xlink:href="#m86af13f62e" x="218.771586" y="71.542386" style="fill: #cd853f; stroke: #cd853f"/>
     <use xlink:href="#m86af13f62e" x="213.133077" y="59.6665" style="fill: #cd853f; stroke: #cd853f"/>
     <use xlink:href="#m86af13f62e" x="231.677924" y="75.205778" style="fill: #cd853f; stroke: #cd853f"/>
     <use xlink:href="#m86af13f62e" x="234.162042" y="68.530762" style="fill: #cd853f; stroke: #cd853f"/>
     <use xlink:href="#m86af13f62e" x="222.515108" y="64.211365" style="fill: #cd853f; stroke: #cd853f"/>
     <use xlink:href="#m86af13f62e" x="233.809163" y="80.39475" style="fill: #cd853f; stroke: #cd853f"/>
     <use xlink:href="#m86af13f62e" x="230.899624" y="82.140684" style="fill: #cd853f; stroke: #cd853f"/>
     <use xlink:href="#m86af13f62e" x="214.779349" y="70.515258" style="fill: #cd853f; stroke: #cd853f"/>
     <use xlink:href="#m86af13f62e" x="229.206707" y="67.028445" style="fill: #cd853f; stroke: #cd853f"/>
     <use xlink:href="#m86af13f62e" x="216.08355" y="62.314184" style="fill: #cd853f; stroke: #cd853f"/>
     <use xlink:href="#m86af13f62e" x="229.989484" y="77.960103" style="fill: #cd853f; stroke: #cd853f"/>
     <use xlink:href="#m86af13f62e" x="220.22966" y="78.227829" style="fill: #cd853f; stroke: #cd853f"/>
     <use xlink:href="#m86af13f62e" x="216.27439" y="83.110118" style="fill: #cd853f; stroke: #cd853f"/>
     <use xlink:href="#m86af13f62e" x="213.413653" y="63.989735" style="fill: #cd853f; stroke: #cd853f"/>
     <use xlink:href="#m86af13f62e" x="232.496089" y="53.325905" style="fill: #cd853f; stroke: #cd853f"/>
     <use xlink:href="#m86af13f62e" x="229.225209" y="60.601725" style="fill: #cd853f; stroke: #cd853f"/>
     <use xlink:href="#m86af13f62e" x="231.706714" y="69.416797" style="fill: #cd853f; stroke: #cd853f"/>
     <use xlink:href="#m86af13f62e" x="225.829521" y="51.013068" style="fill: #cd853f; stroke: #cd853f"/>
     <use xlink:href="#m86af13f62e" x="230.664346" y="51.174012" style="fill: #cd853f; stroke: #cd853f"/>
     <use xlink:href="#m86af13f62e" x="214.983425" y="53.795621" style="fill: #cd853f; stroke: #cd853f"/>
     <use xlink:href="#m86af13f62e" x="229.407232" y="80.862293" style="fill: #cd853f; stroke: #cd853f"/>
     <use xlink:href="#m86af13f62e" x="216.642123" y="77.264987" style="fill: #cd853f; stroke: #cd853f"/>
     <use xlink:href="#m86af13f62e" x="214.206008" y="74.281717" style="fill: #cd853f; stroke: #cd853f"/>
     <use xlink:href="#m86af13f62e" x="214.349265" y="55.764636" style="fill: #cd853f; stroke: #cd853f"/>
     <use xlink:href="#m86af13f62e" x="213.498481" y="59.610261" style="fill: #cd853f; stroke: #cd853f"/>
     <use xlink:href="#m86af13f62e" x="231.466127" y="54.875467" style="fill: #cd853f; stroke: #cd853f"/>
     <use xlink:href="#m86af13f62e" x="221.684849" y="85.841631" style="fill: #cd853f; stroke: #cd853f"/>
     <use xlink:href="#m86af13f62e" x="224.689961" y="79.696524" style="fill: #cd853f; stroke: #cd853f"/>
     <use xlink:href="#m86af13f62e" x="216.706838" y="76.345652" style="fill: #cd853f; stroke: #cd853f"/>
     <use xlink:href="#m86af13f62e" x="219.50981" y="77.215264" style="fill: #cd853f; stroke: #cd853f"/>
     <use xlink:href="#m86af13f62e" x="230.812221" y="62.273378" style="fill: #cd853f; stroke: #cd853f"/>
     <use xlink:href="#m86af13f62e" x="217.837477" y="86.280605" style="fill: #cd853f; stroke: #cd853f"/>
     <use xlink:href="#m86af13f62e" x="222.516791" y="54.686145" style="fill: #cd853f; stroke: #cd853f"/>
     <use xlink:href="#m86af13f62e" x="221.562012" y="53.710755" style="fill: #cd853f; stroke: #cd853f"/>
     <use xlink:href="#m86af13f62e" x="226.306333" y="64.371262" style="fill: #cd853f; stroke: #cd853f"/>
     <use xlink:href="#m86af13f62e" x="234.18883" y="71.603361" style="fill: #cd853f; stroke: #cd853f"/>
     <use xlink:href="#m86af13f62e" x="219.211236" y="67.085372" style="fill: #cd853f; stroke: #cd853f"/>
     <use xlink:href="#m86af13f62e" x="229.835003" y="55.681354" style="fill: #cd853f; stroke: #cd853f"/>
     <use xlink:href="#m86af13f62e" x="214.828864" y="68.887367" style="fill: #cd853f; stroke: #cd853f"/>
     <use xlink:href="#m86af13f62e" x="225.951393" y="75.584839" style="fill: #cd853f; stroke: #cd853f"/>
     <use xlink:href="#m86af13f62e" x="223.25237" y="66.601609" style="fill: #cd853f; stroke: #cd853f"/>
     <use xlink:href="#m86af13f62e" x="231.656196" y="78.848856" style="fill: #cd853f; stroke: #cd853f"/>
     <use xlink:href="#m86af13f62e" x="227.843824" y="53.888143" style="fill: #cd853f; stroke: #cd853f"/>
     <use xlink:href="#m86af13f62e" x="230.989196" y="59.704303" style="fill: #cd853f; stroke: #cd853f"/>
     <use xlink:href="#m86af13f62e" x="213.332853" y="51.167074" style="fill: #cd853f; stroke: #cd853f"/>
     <use xlink:href="#m86af13f62e" x="212.588874" y="51.719492" style="fill: #cd853f; stroke: #cd853f"/>
    </g>
   </g>
   <g id="line2d_1">
    <path d="M 235.848069 85.713012 
L 9.53605 105.512748 
" clip-path="url(#p081c29bb40)" style="fill: none; stroke: #000000; stroke-width: 1.5; stroke-linecap: square"/>
   </g>
   <g id="line2d_2">
    <path d="M 235.848069 85.713012 
L 230.448141 23.991552 
" clip-path="url(#p081c29bb40)" style="fill: none; stroke: #000000; stroke-width: 1.5; stroke-linecap: square"/>
   </g>
   <g id="line2d_3">
    <path d="M 9.53605 105.512748 
L 4.136122 43.791288 
" clip-path="url(#p081c29bb40)" style="fill: none; stroke: #000000; stroke-width: 1.5; stroke-linecap: square"/>
   </g>
   <g id="line2d_4">
    <path d="M 215.274249 87.512988 
L 210.414314 31.963674 
" clip-path="url(#p081c29bb40)" style="fill: none; stroke: #000000; stroke-width: 1.5; stroke-linecap: square"/>
   </g>
   <g id="line2d_5">
    <path d="M 224.481173 74.268708 
L 219.081245 12.547248 
" clip-path="url(#p081c29bb40)" style="fill: none; stroke: #808080; stroke-width: 1.5; stroke-linecap: square"/>
   </g>
   <g id="line2d_6">
    <path d="M 229.110283 73.863713 
L 219.852064 74.673702 
" clip-path="url(#p081c29bb40)" style="fill: none; stroke: #808080; stroke-width: 2; stroke-linecap: square"/>
   </g>
   <g id="line2d_7">
    <path d="M 9.53605 105.512748 
L 100.406648 105.512748 
" clip-path="url(#p081c29bb40)" style="fill: none; stroke-dasharray: 5.55,2.4; stroke-dashoffset: 0; stroke: #000000; stroke-width: 1.5"/>
   </g>
   <g id="line2d_8">
    <path d="M 89.047823 105.512748 
L 89.047792 105.44266 
L 89.0477 105.372572 
L 89.047545 105.302484 
L 89.047329 105.232396 
L 89.047051 105.162309 
L 89.046711 105.092222 
L 89.04631 105.022135 
L 89.045846 104.952048 
L 89.045321 104.881962 
L 89.044734 104.811877 
L 89.044085 104.741792 
L 89.043375 104.671707 
L 89.042603 104.601624 
L 89.041769 104.531541 
L 89.040873 104.461458 
L 89.039915 104.391377 
L 89.038896 104.321296 
L 89.037815 104.251217 
L 89.036672 104.181138 
L 89.035467 104.11106 
L 89.034201 104.040984 
L 89.032873 103.970908 
L 89.031483 103.900834 
L 89.030031 103.830761 
L 89.028517 103.76069 
L 89.026942 103.690619 
L 89.025305 103.620551 
L 89.023606 103.550483 
L 89.021846 103.480417 
L 89.020023 103.410353 
L 89.018139 103.34029 
L 89.016193 103.270229 
L 89.014186 103.20017 
L 89.012116 103.130113 
L 89.009985 103.060057 
L 89.007792 102.990003 
L 89.005538 102.919952 
L 89.003221 102.849902 
L 89.000843 102.779854 
L 88.998403 102.709809 
L 88.995902 102.639766 
L 88.993338 102.569724 
L 88.990713 102.499686 
L 88.988027 102.429649 
L 88.985278 102.359615 
L 88.982468 102.289583 
L 88.979596 102.219554 
L 88.976662 102.149528 
L 88.973666 102.079504 
L 88.970609 102.009483 
L 88.96749 101.939464 
L 88.96431 101.869448 
L 88.961067 101.799435 
L 88.957763 101.729425 
L 88.954398 101.659418 
L 88.95097 101.589414 
L 88.947481 101.519413 
L 88.94393 101.449415 
L 88.940317 101.37942 
L 88.936643 101.309428 
L 88.932907 101.23944 
L 88.929109 101.169455 
L 88.92525 101.099473 
L 88.921329 101.029495 
L 88.917346 100.95952 
L 88.913302 100.889549 
L 88.909196 100.819582 
L 88.905028 100.749618 
L 88.900799 100.679657 
L 88.896507 100.609701 
L 88.892155 100.539748 
L 88.88774 100.469799 
L 88.883264 100.399854 
L 88.878726 100.329914 
L 88.874127 100.259977 
L 88.869466 100.190044 
L 88.864743 100.120115 
L 88.859959 100.050191 
L 88.855113 99.98027 
L 88.850205 99.910354 
L 88.845236 99.840443 
L 88.840205 99.770536 
L 88.835113 99.700633 
L 88.829959 99.630735 
L 88.824743 99.560841 
L 88.819466 99.490952 
L 88.814127 99.421068 
L 88.808727 99.351188 
L 88.803264 99.281313 
L 88.797741 99.211443 
L 88.792156 99.141578 
L 88.786509 99.071718 
L 88.7808 99.001863 
L 88.77503 98.932013 
L 88.769199 98.862168 
L 88.763306 98.792328 
L 88.757351 98.722493 
L 88.751335 98.652664 
L 88.745257 98.58284 
" clip-path="url(#p081c29bb40)" style="fill: none; stroke: #000000; stroke-width: 1.5; stroke-linecap: square"/>
   </g>
   <g id="text_1">
    <!-- $\theta$ -->
    <g style="fill: #23373b" transform="translate(101.772387 105.523882) scale(0.09 -0.09)">
     <defs>
      <path id="CMMI12-12" d="M 2835 3200 
C 2835 3850 2630 4480 2106 4480 
C 1210 4480 256 2615 256 1216 
C 256 923 320 -64 992 -64 
C 1862 -64 2835 1756 2835 3200 
z
M 896 2304 
C 992 2679 1126 3214 1382 3665 
C 1594 4047 1818 4352 2099 4352 
C 2310 4352 2451 4174 2451 3564 
C 2451 3334 2432 3017 2246 2304 
L 896 2304 
z
M 2202 2113 
C 2042 1490 1907 1088 1677 687 
C 1491 363 1267 64 998 64 
C 800 64 640 217 640 846 
C 640 1260 742 1693 845 2113 
L 2202 2113 
z
" transform="scale(0.015625)"/>
     </defs>
     <use xlink:href="#CMMI12-12" transform="scale(0.996264)"/>
    </g>
   </g>
   <g id="patch_3">
    <path d="M 209.978391 26.981053 
Q 209.442142 20.851697 209.003336 15.83612 
" style="fill: none; stroke: #000000; stroke-linecap: round"/>
    <path d="M 207.359569 19.995211 
L 209.003336 15.83612 
L 211.344348 19.646588 
z
" style="stroke: #000000; stroke-linecap: round"/>
   </g>
   <g id="patch_4">
    <path d="M 215.108157 98.442547 
Q 113.352837 107.344984 11.597517 116.247421 
" style="fill: none; stroke: #000000; stroke-linecap: round"/>
    <path d="M 210.949066 96.79878 
L 215.108157 98.442547 
L 211.297689 100.783559 
" style="fill: none; stroke: #000000; stroke-linecap: round"/>
    <path d="M 15.756608 117.891187 
L 11.597517 116.247421 
L 15.407985 113.906408 
" style="fill: none; stroke: #000000; stroke-linecap: round"/>
   </g>
   <g id="text_2">
    <!-- $1.5~\textrm{m}$ -->
    <g style="fill: #23373b" transform="translate(102.089593 116.359709) scale(0.09 -0.09)">
     <defs>
      <path id="CMR17-31" d="M 1702 4058 
C 1702 4192 1696 4192 1606 4192 
C 1357 3916 979 3827 621 3827 
C 602 3827 570 3827 563 3808 
C 557 3795 557 3782 557 3648 
C 755 3648 1088 3686 1344 3839 
L 1344 461 
C 1344 236 1331 160 781 160 
L 589 160 
L 589 0 
C 896 0 1216 0 1523 0 
C 1830 0 2150 0 2458 0 
L 2458 160 
L 2266 160 
C 1715 160 1702 230 1702 458 
L 1702 4058 
z
" transform="scale(0.015625)"/>
      <path id="CMMI12-3a" d="M 1178 307 
C 1178 492 1024 619 870 619 
C 685 619 557 466 557 313 
C 557 128 710 0 864 0 
C 1050 0 1178 153 1178 307 
z
" transform="scale(0.015625)"/>
      <path id="CMR17-35" d="M 730 3692 
C 794 3666 1056 3584 1325 3584 
C 1920 3584 2246 3911 2432 4100 
C 2432 4157 2432 4192 2394 4192 
C 2387 4192 2374 4192 2323 4163 
C 2099 4058 1837 3973 1517 3973 
C 1325 3973 1037 3999 723 4139 
C 653 4171 640 4171 634 4171 
C 602 4171 595 4164 595 4037 
L 595 2203 
C 595 2089 595 2057 659 2057 
C 691 2057 704 2070 736 2114 
C 941 2401 1222 2522 1542 2522 
C 1766 2522 2246 2382 2246 1289 
C 2246 1085 2246 715 2054 421 
C 1894 159 1645 25 1370 25 
C 947 25 518 320 403 814 
C 429 807 480 795 506 795 
C 589 795 749 840 749 1038 
C 749 1210 627 1280 506 1280 
C 358 1280 262 1190 262 1011 
C 262 454 704 -128 1382 -128 
C 2042 -128 2669 440 2669 1264 
C 2669 2030 2170 2624 1549 2624 
C 1222 2624 947 2503 730 2274 
L 730 3692 
z
" transform="scale(0.015625)"/>
      <path id="CMR17-6d" d="M 4326 1933 
C 4326 2252 4269 2790 3507 2790 
C 3072 2790 2771 2496 2656 2151 
L 2650 2151 
C 2573 2676 2195 2790 1837 2790 
C 1331 2790 1069 2400 973 2144 
L 966 2144 
L 966 2790 
L 211 2720 
L 211 2554 
C 589 2554 646 2515 646 2208 
L 646 428 
C 646 184 621 153 211 153 
L 211 -13 
C 365 0 646 0 813 0 
C 979 0 1267 0 1421 -13 
L 1421 153 
C 1011 153 986 178 986 428 
L 986 1658 
C 986 2247 1344 2688 1792 2688 
C 2266 2688 2317 2266 2317 1958 
L 2317 428 
C 2317 184 2291 153 1882 153 
L 1882 -13 
C 2035 0 2317 0 2483 0 
C 2650 0 2938 0 3091 -13 
L 3091 153 
C 2682 153 2656 178 2656 428 
L 2656 1658 
C 2656 2247 3014 2688 3462 2688 
C 3936 2688 3987 2266 3987 1958 
L 3987 428 
C 3987 184 3962 153 3552 153 
L 3552 -13 
C 3706 0 3987 0 4154 0 
C 4320 0 4608 0 4762 -13 
L 4762 153 
C 4352 153 4326 178 4326 428 
L 4326 1933 
z
" transform="scale(0.015625)"/>
     </defs>
     <use xlink:href="#CMR17-31" transform="scale(0.996264)"/>
     <use xlink:href="#CMMI12-3a" transform="translate(45.690477 0) scale(0.996264)"/>
     <use xlink:href="#CMR17-35" transform="translate(72.787654 0) scale(0.996264)"/>
     <use xlink:href="#CMR17-6d" transform="translate(149.707244 0) scale(0.996264)"/>
    </g>
   </g>
   <g id="patch_5">
    <path d="M 217.335716 98.247661 
Q 226.508846 97.445116 235.681977 96.642571 
" style="fill: none; stroke: #000000; stroke-linecap: round"/>
    <path d="M 221.494806 99.891427 
L 217.335716 98.247661 
L 221.146183 95.906648 
" style="fill: none; stroke: #000000; stroke-linecap: round"/>
    <path d="M 231.522886 94.998804 
L 235.681977 96.642571 
L 231.871509 98.983583 
" style="fill: none; stroke: #000000; stroke-linecap: round"/>
   </g>
   <g id="text_3">
    <!-- $L_{0} =$\\$10~\textrm{cm}$ -->
    <g style="fill: #23373b" transform="translate(214.538385 106.917808) scale(0.09 -0.09)">
     <defs>
      <path id="CMMI12-4c" d="M 2349 3861 
C 2406 4103 2426 4167 2989 4167 
C 3162 4167 3206 4167 3206 4288 
C 3206 4352 3136 4352 3110 4352 
C 2982 4352 2835 4352 2707 4352 
L 1850 4352 
C 1728 4352 1587 4352 1466 4352 
C 1414 4352 1344 4352 1344 4231 
C 1344 4167 1402 4167 1498 4167 
C 1888 4167 1888 4116 1888 4046 
C 1888 4034 1888 3995 1862 3899 
L 998 472 
C 941 249 928 185 480 185 
C 358 185 294 185 294 70 
C 294 0 333 0 461 0 
L 3328 0 
C 3469 0 3475 6 3520 121 
L 4013 1478 
C 4026 1510 4038 1548 4038 1567 
C 4038 1605 4006 1631 3974 1631 
C 3968 1631 3936 1631 3923 1605 
C 3910 1599 3910 1586 3859 1465 
C 3654 905 3366 185 2285 185 
L 1670 185 
C 1581 185 1568 185 1530 192 
C 1459 198 1453 211 1453 262 
C 1453 307 1466 345 1478 401 
L 2349 3861 
z
" transform="scale(0.015625)"/>
      <path id="CMR17-30" d="M 2688 2025 
C 2688 2416 2682 3080 2413 3591 
C 2176 4039 1798 4198 1466 4198 
C 1158 4198 768 4058 525 3597 
C 269 3118 243 2524 243 2025 
C 243 1661 250 1106 448 619 
C 723 -39 1216 -128 1466 -128 
C 1760 -128 2208 -7 2470 600 
C 2662 1042 2688 1559 2688 2025 
z
M 1466 -26 
C 1056 -26 813 325 723 812 
C 653 1188 653 1738 653 2096 
C 653 2588 653 2997 736 3387 
C 858 3929 1216 4096 1466 4096 
C 1728 4096 2067 3923 2189 3400 
C 2272 3036 2278 2607 2278 2096 
C 2278 1680 2278 1169 2202 792 
C 2067 95 1690 -26 1466 -26 
z
" transform="scale(0.015625)"/>
      <path id="CMR17-3d" d="M 4115 2017 
C 4211 2017 4307 2017 4307 2125 
C 4307 2240 4198 2240 4090 2240 
L 512 2240 
C 403 2240 294 2240 294 2125 
C 294 2017 390 2017 486 2017 
L 4115 2017 
z
M 4090 896 
C 4198 896 4307 896 4307 1011 
C 4307 1119 4211 1119 4115 1119 
L 486 1119 
C 390 1119 294 1119 294 1011 
C 294 896 403 896 512 896 
L 4090 896 
z
" transform="scale(0.015625)"/>
      <path id="CMR17-63" d="M 2234 2240 
C 2112 2240 1933 2240 1933 2017 
C 1933 1838 2080 1787 2163 1787 
C 2208 1787 2394 1807 2394 2024 
C 2394 2467 1958 2803 1466 2803 
C 787 2803 211 2178 211 1363 
C 211 516 813 -64 1466 -64 
C 2259 -64 2458 677 2458 748 
C 2458 774 2451 793 2406 793 
C 2362 793 2355 787 2330 703 
C 2163 180 1798 51 1523 51 
C 1114 51 621 427 621 1369 
C 621 2338 1094 2688 1472 2688 
C 1722 2688 2093 2573 2234 2240 
z
" transform="scale(0.015625)"/>
     </defs>
     <use xlink:href="#CMMI12-4c" transform="translate(14.94396 0) scale(0.996264)"/>
     <use xlink:href="#CMR17-30" transform="translate(81.314836 -14.943915) scale(0.697382)"/>
     <use xlink:href="#CMR17-3d" transform="translate(141.470158 0) scale(0.996264)"/>
     <use xlink:href="#CMR17-31" transform="translate(0 -80.160488) scale(0.996264)"/>
     <use xlink:href="#CMR17-30" transform="translate(45.690477 -80.160488) scale(0.996264)"/>
     <use xlink:href="#CMR17-63" transform="translate(122.610067 -80.160488) scale(0.996264)"/>
     <use xlink:href="#CMR17-6d" transform="translate(163.095727 -80.160488) scale(0.996264)"/>
    </g>
   </g>
   <g id="patch_6">
    <path d="M 208.387445 86.9932 
Q 206.872308 69.6751 205.35717 52.357 
" style="fill: none; stroke: #000000; stroke-linecap: round"/>
    <path d="M 210.031212 82.83411 
L 208.387445 86.9932 
L 206.046433 83.182733 
" style="fill: none; stroke: #000000; stroke-linecap: round"/>
    <path d="M 203.713404 56.51609 
L 205.35717 52.357 
L 207.698183 56.167467 
" style="fill: none; stroke: #000000; stroke-linecap: round"/>
   </g>
   <g id="text_4">
    <!-- $h_{0} = 20~\textrm{cm}$ -->
    <g style="fill: #23373b" transform="translate(158.273707 71.916694) scale(0.09 -0.09)">
     <defs>
      <path id="CMMI12-68" d="M 1798 4257 
C 1805 4283 1818 4321 1818 4352 
C 1818 4416 1754 4416 1741 4416 
C 1734 4416 1421 4388 1389 4380 
C 1280 4373 1184 4358 1069 4358 
C 909 4345 864 4339 864 4224 
C 864 4160 915 4160 1005 4160 
C 1318 4160 1325 4103 1325 4040 
C 1325 4002 1312 3951 1306 3932 
L 378 248 
C 352 152 352 140 352 101 
C 352 -38 461 -64 525 -64 
C 634 -64 717 19 749 89 
L 1037 1245 
C 1069 1386 1107 1520 1139 1660 
C 1210 1929 1210 1935 1331 2120 
C 1453 2305 1741 2689 2234 2689 
C 2490 2689 2579 2497 2579 2242 
C 2579 1884 2330 1188 2189 805 
C 2131 651 2099 568 2099 453 
C 2099 166 2298 -64 2605 -64 
C 3200 -64 3424 875 3424 913 
C 3424 945 3398 971 3360 971 
C 3302 971 3296 952 3264 843 
C 3117 332 2880 64 2624 64 
C 2560 64 2458 64 2458 269 
C 2458 436 2534 640 2560 710 
C 2675 1018 2963 1773 2963 2145 
C 2963 2528 2739 2816 2253 2816 
C 1888 2816 1568 2644 1306 2312 
L 1798 4257 
z
" transform="scale(0.015625)"/>
      <path id="CMR17-32" d="M 2669 989 
L 2554 989 
C 2490 536 2438 459 2413 420 
C 2381 369 1920 369 1830 369 
L 602 369 
C 832 619 1280 1072 1824 1597 
C 2214 1967 2669 2402 2669 3035 
C 2669 3790 2067 4224 1395 4224 
C 691 4224 262 3604 262 3030 
C 262 2780 448 2748 525 2748 
C 589 2748 781 2787 781 3010 
C 781 3207 614 3264 525 3264 
C 486 3264 448 3258 422 3245 
C 544 3790 915 4058 1306 4058 
C 1862 4058 2227 3617 2227 3035 
C 2227 2479 1901 2000 1536 1584 
L 262 146 
L 262 0 
L 2515 0 
L 2669 989 
z
" transform="scale(0.015625)"/>
     </defs>
     <use xlink:href="#CMMI12-68" transform="scale(0.996264)"/>
     <use xlink:href="#CMR17-30" transform="translate(56.154624 -14.943915) scale(0.697382)"/>
     <use xlink:href="#CMR17-3d" transform="translate(116.309947 0) scale(0.996264)"/>
     <use xlink:href="#CMR17-32" transform="translate(215.698744 0) scale(0.996264)"/>
     <use xlink:href="#CMR17-30" transform="translate(261.389221 0) scale(0.996264)"/>
     <use xlink:href="#CMR17-63" transform="translate(338.308811 0) scale(0.996264)"/>
     <use xlink:href="#CMR17-6d" transform="translate(378.794471 0) scale(0.996264)"/>
    </g>
   </g>
  </g>
 </g>
 <defs>
  <clipPath id="p081c29bb40">
   <rect x="3.00024" y="9.659073" width="233.983711" height="107.005975"/>
  </clipPath>
 </defs>
</svg>
